%TF.GenerationSoftware,KiCad,Pcbnew,6.0.11+dfsg-1~bpo11+1*%
%TF.CreationDate,2023-07-05T16:33:08+02:00*%
%TF.ProjectId,avert_21,61766572-745f-4323-912e-6b696361645f,rev?*%
%TF.SameCoordinates,Original*%
%TF.FileFunction,Legend,Bot*%
%TF.FilePolarity,Positive*%
%FSLAX46Y46*%
G04 Gerber Fmt 4.6, Leading zero omitted, Abs format (unit mm)*
G04 Created by KiCad (PCBNEW 6.0.11+dfsg-1~bpo11+1) date 2023-07-05 16:33:08*
%MOMM*%
%LPD*%
G01*
G04 APERTURE LIST*
%ADD10C,0.150000*%
%ADD11C,0.100000*%
%ADD12C,0.600000*%
%ADD13C,0.300000*%
%ADD14C,0.120000*%
%ADD15C,0.010000*%
G04 APERTURE END LIST*
D10*
G36*
X169750000Y-75500000D02*
G01*
X168000000Y-77000000D01*
X168000000Y-76250000D01*
X163500000Y-76250000D01*
X163500000Y-74750000D01*
X168000000Y-74750000D01*
X168000000Y-73750000D01*
X169750000Y-75500000D01*
G37*
X169750000Y-75500000D02*
X168000000Y-77000000D01*
X168000000Y-76250000D01*
X163500000Y-76250000D01*
X163500000Y-74750000D01*
X168000000Y-74750000D01*
X168000000Y-73750000D01*
X169750000Y-75500000D01*
D11*
X118561428Y-99677142D02*
X118361428Y-99677142D01*
X118275714Y-99991428D02*
X118561428Y-99991428D01*
X118561428Y-99391428D01*
X118275714Y-99391428D01*
X118104285Y-99391428D02*
X117761428Y-99391428D01*
X117932857Y-99991428D02*
X117932857Y-99391428D01*
X117561428Y-99991428D02*
X117561428Y-99391428D01*
X117561428Y-99677142D02*
X117218571Y-99677142D01*
X117218571Y-99991428D02*
X117218571Y-99391428D01*
X140657142Y-119042857D02*
X140571428Y-119071428D01*
X140428571Y-119071428D01*
X140371428Y-119042857D01*
X140342857Y-119014285D01*
X140314285Y-118957142D01*
X140314285Y-118900000D01*
X140342857Y-118842857D01*
X140371428Y-118814285D01*
X140428571Y-118785714D01*
X140542857Y-118757142D01*
X140600000Y-118728571D01*
X140628571Y-118700000D01*
X140657142Y-118642857D01*
X140657142Y-118585714D01*
X140628571Y-118528571D01*
X140600000Y-118500000D01*
X140542857Y-118471428D01*
X140400000Y-118471428D01*
X140314285Y-118500000D01*
X140057142Y-119071428D02*
X140057142Y-118471428D01*
X139914285Y-118471428D01*
X139828571Y-118500000D01*
X139771428Y-118557142D01*
X139742857Y-118614285D01*
X139714285Y-118728571D01*
X139714285Y-118814285D01*
X139742857Y-118928571D01*
X139771428Y-118985714D01*
X139828571Y-119042857D01*
X139914285Y-119071428D01*
X140057142Y-119071428D01*
X139514285Y-118471428D02*
X139142857Y-118471428D01*
X139342857Y-118700000D01*
X139257142Y-118700000D01*
X139200000Y-118728571D01*
X139171428Y-118757142D01*
X139142857Y-118814285D01*
X139142857Y-118957142D01*
X139171428Y-119014285D01*
X139200000Y-119042857D01*
X139257142Y-119071428D01*
X139428571Y-119071428D01*
X139485714Y-119042857D01*
X139514285Y-119014285D01*
X151862857Y-73057142D02*
X151948571Y-73028571D01*
X152091428Y-73028571D01*
X152148571Y-73057142D01*
X152177142Y-73085714D01*
X152205714Y-73142857D01*
X152205714Y-73200000D01*
X152177142Y-73257142D01*
X152148571Y-73285714D01*
X152091428Y-73314285D01*
X151977142Y-73342857D01*
X151920000Y-73371428D01*
X151891428Y-73400000D01*
X151862857Y-73457142D01*
X151862857Y-73514285D01*
X151891428Y-73571428D01*
X151920000Y-73600000D01*
X151977142Y-73628571D01*
X152120000Y-73628571D01*
X152205714Y-73600000D01*
X152805714Y-73085714D02*
X152777142Y-73057142D01*
X152691428Y-73028571D01*
X152634285Y-73028571D01*
X152548571Y-73057142D01*
X152491428Y-73114285D01*
X152462857Y-73171428D01*
X152434285Y-73285714D01*
X152434285Y-73371428D01*
X152462857Y-73485714D01*
X152491428Y-73542857D01*
X152548571Y-73600000D01*
X152634285Y-73628571D01*
X152691428Y-73628571D01*
X152777142Y-73600000D01*
X152805714Y-73571428D01*
X153177142Y-73628571D02*
X153234285Y-73628571D01*
X153291428Y-73600000D01*
X153320000Y-73571428D01*
X153348571Y-73514285D01*
X153377142Y-73400000D01*
X153377142Y-73257142D01*
X153348571Y-73142857D01*
X153320000Y-73085714D01*
X153291428Y-73057142D01*
X153234285Y-73028571D01*
X153177142Y-73028571D01*
X153120000Y-73057142D01*
X153091428Y-73085714D01*
X153062857Y-73142857D01*
X153034285Y-73257142D01*
X153034285Y-73400000D01*
X153062857Y-73514285D01*
X153091428Y-73571428D01*
X153120000Y-73600000D01*
X153177142Y-73628571D01*
X124587142Y-84110000D02*
X124644285Y-84081428D01*
X124730000Y-84081428D01*
X124815714Y-84110000D01*
X124872857Y-84167142D01*
X124901428Y-84224285D01*
X124930000Y-84338571D01*
X124930000Y-84424285D01*
X124901428Y-84538571D01*
X124872857Y-84595714D01*
X124815714Y-84652857D01*
X124730000Y-84681428D01*
X124672857Y-84681428D01*
X124587142Y-84652857D01*
X124558571Y-84624285D01*
X124558571Y-84424285D01*
X124672857Y-84424285D01*
X124301428Y-84681428D02*
X124301428Y-84081428D01*
X123958571Y-84681428D01*
X123958571Y-84081428D01*
X123672857Y-84681428D02*
X123672857Y-84081428D01*
X123530000Y-84081428D01*
X123444285Y-84110000D01*
X123387142Y-84167142D01*
X123358571Y-84224285D01*
X123330000Y-84338571D01*
X123330000Y-84424285D01*
X123358571Y-84538571D01*
X123387142Y-84595714D01*
X123444285Y-84652857D01*
X123530000Y-84681428D01*
X123672857Y-84681428D01*
X124510000Y-87281428D02*
X124710000Y-86995714D01*
X124852857Y-87281428D02*
X124852857Y-86681428D01*
X124624285Y-86681428D01*
X124567142Y-86710000D01*
X124538571Y-86738571D01*
X124510000Y-86795714D01*
X124510000Y-86881428D01*
X124538571Y-86938571D01*
X124567142Y-86967142D01*
X124624285Y-86995714D01*
X124852857Y-86995714D01*
X124310000Y-86681428D02*
X123910000Y-87281428D01*
X123910000Y-86681428D02*
X124310000Y-87281428D01*
X123681428Y-87281428D02*
X123681428Y-86681428D01*
X123538571Y-86681428D01*
X123452857Y-86710000D01*
X123395714Y-86767142D01*
X123367142Y-86824285D01*
X123338571Y-86938571D01*
X123338571Y-87024285D01*
X123367142Y-87138571D01*
X123395714Y-87195714D01*
X123452857Y-87252857D01*
X123538571Y-87281428D01*
X123681428Y-87281428D01*
X160994285Y-71278714D02*
X160965714Y-71250142D01*
X160880000Y-71221571D01*
X160822857Y-71221571D01*
X160737142Y-71250142D01*
X160680000Y-71307285D01*
X160651428Y-71364428D01*
X160622857Y-71478714D01*
X160622857Y-71564428D01*
X160651428Y-71678714D01*
X160680000Y-71735857D01*
X160737142Y-71793000D01*
X160822857Y-71821571D01*
X160880000Y-71821571D01*
X160965714Y-71793000D01*
X160994285Y-71764428D01*
X161222857Y-71393000D02*
X161508571Y-71393000D01*
X161165714Y-71221571D02*
X161365714Y-71821571D01*
X161565714Y-71221571D01*
X161765714Y-71221571D02*
X161765714Y-71821571D01*
X162108571Y-71221571D01*
X162108571Y-71821571D01*
X158737142Y-70855571D02*
X159080000Y-70855571D01*
X158908571Y-70255571D02*
X158908571Y-70855571D01*
X159280000Y-70569857D02*
X159480000Y-70569857D01*
X159565714Y-70255571D02*
X159280000Y-70255571D01*
X159280000Y-70855571D01*
X159565714Y-70855571D01*
X160165714Y-70255571D02*
X159965714Y-70541285D01*
X159822857Y-70255571D02*
X159822857Y-70855571D01*
X160051428Y-70855571D01*
X160108571Y-70827000D01*
X160137142Y-70798428D01*
X160165714Y-70741285D01*
X160165714Y-70655571D01*
X160137142Y-70598428D01*
X160108571Y-70569857D01*
X160051428Y-70541285D01*
X159822857Y-70541285D01*
X160422857Y-70255571D02*
X160422857Y-70855571D01*
X160622857Y-70427000D01*
X160822857Y-70855571D01*
X160822857Y-70255571D01*
X161108571Y-70255571D02*
X161108571Y-70855571D01*
X161394285Y-70255571D02*
X161394285Y-70855571D01*
X161737142Y-70255571D01*
X161737142Y-70855571D01*
X161994285Y-70427000D02*
X162280000Y-70427000D01*
X161937142Y-70255571D02*
X162137142Y-70855571D01*
X162337142Y-70255571D01*
X162451428Y-70855571D02*
X162794285Y-70855571D01*
X162622857Y-70255571D02*
X162622857Y-70855571D01*
X163108571Y-70855571D02*
X163222857Y-70855571D01*
X163280000Y-70827000D01*
X163337142Y-70769857D01*
X163365714Y-70655571D01*
X163365714Y-70455571D01*
X163337142Y-70341285D01*
X163280000Y-70284142D01*
X163222857Y-70255571D01*
X163108571Y-70255571D01*
X163051428Y-70284142D01*
X162994285Y-70341285D01*
X162965714Y-70455571D01*
X162965714Y-70655571D01*
X162994285Y-70769857D01*
X163051428Y-70827000D01*
X163108571Y-70855571D01*
X163965714Y-70255571D02*
X163765714Y-70541285D01*
X163622857Y-70255571D02*
X163622857Y-70855571D01*
X163851428Y-70855571D01*
X163908571Y-70827000D01*
X163937142Y-70798428D01*
X163965714Y-70741285D01*
X163965714Y-70655571D01*
X163937142Y-70598428D01*
X163908571Y-70569857D01*
X163851428Y-70541285D01*
X163622857Y-70541285D01*
X145831428Y-113462857D02*
X145374285Y-113462857D01*
X145602857Y-113691428D02*
X145602857Y-113234285D01*
X144802857Y-113091428D02*
X145088571Y-113091428D01*
X145117142Y-113377142D01*
X145088571Y-113348571D01*
X145031428Y-113320000D01*
X144888571Y-113320000D01*
X144831428Y-113348571D01*
X144802857Y-113377142D01*
X144774285Y-113434285D01*
X144774285Y-113577142D01*
X144802857Y-113634285D01*
X144831428Y-113662857D01*
X144888571Y-113691428D01*
X145031428Y-113691428D01*
X145088571Y-113662857D01*
X145117142Y-113634285D01*
X144602857Y-113091428D02*
X144402857Y-113691428D01*
X144202857Y-113091428D01*
X149332857Y-67697142D02*
X149418571Y-67668571D01*
X149561428Y-67668571D01*
X149618571Y-67697142D01*
X149647142Y-67725714D01*
X149675714Y-67782857D01*
X149675714Y-67840000D01*
X149647142Y-67897142D01*
X149618571Y-67925714D01*
X149561428Y-67954285D01*
X149447142Y-67982857D01*
X149390000Y-68011428D01*
X149361428Y-68040000D01*
X149332857Y-68097142D01*
X149332857Y-68154285D01*
X149361428Y-68211428D01*
X149390000Y-68240000D01*
X149447142Y-68268571D01*
X149590000Y-68268571D01*
X149675714Y-68240000D01*
X149932857Y-67668571D02*
X149932857Y-68268571D01*
X150075714Y-68268571D01*
X150161428Y-68240000D01*
X150218571Y-68182857D01*
X150247142Y-68125714D01*
X150275714Y-68011428D01*
X150275714Y-67925714D01*
X150247142Y-67811428D01*
X150218571Y-67754285D01*
X150161428Y-67697142D01*
X150075714Y-67668571D01*
X149932857Y-67668571D01*
X150647142Y-68268571D02*
X150704285Y-68268571D01*
X150761428Y-68240000D01*
X150790000Y-68211428D01*
X150818571Y-68154285D01*
X150847142Y-68040000D01*
X150847142Y-67897142D01*
X150818571Y-67782857D01*
X150790000Y-67725714D01*
X150761428Y-67697142D01*
X150704285Y-67668571D01*
X150647142Y-67668571D01*
X150590000Y-67697142D01*
X150561428Y-67725714D01*
X150532857Y-67782857D01*
X150504285Y-67897142D01*
X150504285Y-68040000D01*
X150532857Y-68154285D01*
X150561428Y-68211428D01*
X150590000Y-68240000D01*
X150647142Y-68268571D01*
X136708571Y-73292857D02*
X136908571Y-73292857D01*
X136994285Y-72978571D02*
X136708571Y-72978571D01*
X136708571Y-73578571D01*
X136994285Y-73578571D01*
X137165714Y-73578571D02*
X137508571Y-73578571D01*
X137337142Y-72978571D02*
X137337142Y-73578571D01*
X137708571Y-72978571D02*
X137708571Y-73578571D01*
X137708571Y-73292857D02*
X138051428Y-73292857D01*
X138051428Y-72978571D02*
X138051428Y-73578571D01*
X138127142Y-113672857D02*
X138041428Y-113701428D01*
X137898571Y-113701428D01*
X137841428Y-113672857D01*
X137812857Y-113644285D01*
X137784285Y-113587142D01*
X137784285Y-113530000D01*
X137812857Y-113472857D01*
X137841428Y-113444285D01*
X137898571Y-113415714D01*
X138012857Y-113387142D01*
X138070000Y-113358571D01*
X138098571Y-113330000D01*
X138127142Y-113272857D01*
X138127142Y-113215714D01*
X138098571Y-113158571D01*
X138070000Y-113130000D01*
X138012857Y-113101428D01*
X137870000Y-113101428D01*
X137784285Y-113130000D01*
X137184285Y-113644285D02*
X137212857Y-113672857D01*
X137298571Y-113701428D01*
X137355714Y-113701428D01*
X137441428Y-113672857D01*
X137498571Y-113615714D01*
X137527142Y-113558571D01*
X137555714Y-113444285D01*
X137555714Y-113358571D01*
X137527142Y-113244285D01*
X137498571Y-113187142D01*
X137441428Y-113130000D01*
X137355714Y-113101428D01*
X137298571Y-113101428D01*
X137212857Y-113130000D01*
X137184285Y-113158571D01*
X136984285Y-113101428D02*
X136612857Y-113101428D01*
X136812857Y-113330000D01*
X136727142Y-113330000D01*
X136670000Y-113358571D01*
X136641428Y-113387142D01*
X136612857Y-113444285D01*
X136612857Y-113587142D01*
X136641428Y-113644285D01*
X136670000Y-113672857D01*
X136727142Y-113701428D01*
X136898571Y-113701428D01*
X136955714Y-113672857D01*
X136984285Y-113644285D01*
X146782857Y-67687142D02*
X146868571Y-67658571D01*
X147011428Y-67658571D01*
X147068571Y-67687142D01*
X147097142Y-67715714D01*
X147125714Y-67772857D01*
X147125714Y-67830000D01*
X147097142Y-67887142D01*
X147068571Y-67915714D01*
X147011428Y-67944285D01*
X146897142Y-67972857D01*
X146840000Y-68001428D01*
X146811428Y-68030000D01*
X146782857Y-68087142D01*
X146782857Y-68144285D01*
X146811428Y-68201428D01*
X146840000Y-68230000D01*
X146897142Y-68258571D01*
X147040000Y-68258571D01*
X147125714Y-68230000D01*
X147382857Y-67658571D02*
X147382857Y-68258571D01*
X147525714Y-68258571D01*
X147611428Y-68230000D01*
X147668571Y-68172857D01*
X147697142Y-68115714D01*
X147725714Y-68001428D01*
X147725714Y-67915714D01*
X147697142Y-67801428D01*
X147668571Y-67744285D01*
X147611428Y-67687142D01*
X147525714Y-67658571D01*
X147382857Y-67658571D01*
X148297142Y-67658571D02*
X147954285Y-67658571D01*
X148125714Y-67658571D02*
X148125714Y-68258571D01*
X148068571Y-68172857D01*
X148011428Y-68115714D01*
X147954285Y-68087142D01*
X150112857Y-87841428D02*
X149741428Y-87841428D01*
X149941428Y-88070000D01*
X149855714Y-88070000D01*
X149798571Y-88098571D01*
X149770000Y-88127142D01*
X149741428Y-88184285D01*
X149741428Y-88327142D01*
X149770000Y-88384285D01*
X149798571Y-88412857D01*
X149855714Y-88441428D01*
X150027142Y-88441428D01*
X150084285Y-88412857D01*
X150112857Y-88384285D01*
X149570000Y-87841428D02*
X149370000Y-88441428D01*
X149170000Y-87841428D01*
X149027142Y-87841428D02*
X148655714Y-87841428D01*
X148855714Y-88070000D01*
X148770000Y-88070000D01*
X148712857Y-88098571D01*
X148684285Y-88127142D01*
X148655714Y-88184285D01*
X148655714Y-88327142D01*
X148684285Y-88384285D01*
X148712857Y-88412857D01*
X148770000Y-88441428D01*
X148941428Y-88441428D01*
X148998571Y-88412857D01*
X149027142Y-88384285D01*
X164760000Y-116277142D02*
X164788571Y-116334285D01*
X164788571Y-116420000D01*
X164760000Y-116505714D01*
X164702857Y-116562857D01*
X164645714Y-116591428D01*
X164531428Y-116620000D01*
X164445714Y-116620000D01*
X164331428Y-116591428D01*
X164274285Y-116562857D01*
X164217142Y-116505714D01*
X164188571Y-116420000D01*
X164188571Y-116362857D01*
X164217142Y-116277142D01*
X164245714Y-116248571D01*
X164445714Y-116248571D01*
X164445714Y-116362857D01*
X164188571Y-115991428D02*
X164788571Y-115991428D01*
X164188571Y-115648571D01*
X164788571Y-115648571D01*
X164188571Y-115362857D02*
X164788571Y-115362857D01*
X164788571Y-115220000D01*
X164760000Y-115134285D01*
X164702857Y-115077142D01*
X164645714Y-115048571D01*
X164531428Y-115020000D01*
X164445714Y-115020000D01*
X164331428Y-115048571D01*
X164274285Y-115077142D01*
X164217142Y-115134285D01*
X164188571Y-115220000D01*
X164188571Y-115362857D01*
D12*
X155964285Y-115214285D02*
X155392857Y-115404761D01*
X155202380Y-115595238D01*
X155011904Y-115976190D01*
X155011904Y-116547619D01*
X155202380Y-116928571D01*
X155392857Y-117119047D01*
X155773809Y-117309523D01*
X157297619Y-117309523D01*
X157297619Y-113309523D01*
X155964285Y-113309523D01*
X155583333Y-113500000D01*
X155392857Y-113690476D01*
X155202380Y-114071428D01*
X155202380Y-114452380D01*
X155392857Y-114833333D01*
X155583333Y-115023809D01*
X155964285Y-115214285D01*
X157297619Y-115214285D01*
D11*
X138712857Y-73207142D02*
X139170000Y-73207142D01*
X138941428Y-72978571D02*
X138941428Y-73435714D01*
X139770000Y-72978571D02*
X139427142Y-72978571D01*
X139598571Y-72978571D02*
X139598571Y-73578571D01*
X139541428Y-73492857D01*
X139484285Y-73435714D01*
X139427142Y-73407142D01*
X139998571Y-73521428D02*
X140027142Y-73550000D01*
X140084285Y-73578571D01*
X140227142Y-73578571D01*
X140284285Y-73550000D01*
X140312857Y-73521428D01*
X140341428Y-73464285D01*
X140341428Y-73407142D01*
X140312857Y-73321428D01*
X139970000Y-72978571D01*
X140341428Y-72978571D01*
X140512857Y-73578571D02*
X140712857Y-72978571D01*
X140912857Y-73578571D01*
X118574285Y-89772857D02*
X118488571Y-89801428D01*
X118345714Y-89801428D01*
X118288571Y-89772857D01*
X118260000Y-89744285D01*
X118231428Y-89687142D01*
X118231428Y-89630000D01*
X118260000Y-89572857D01*
X118288571Y-89544285D01*
X118345714Y-89515714D01*
X118460000Y-89487142D01*
X118517142Y-89458571D01*
X118545714Y-89430000D01*
X118574285Y-89372857D01*
X118574285Y-89315714D01*
X118545714Y-89258571D01*
X118517142Y-89230000D01*
X118460000Y-89201428D01*
X118317142Y-89201428D01*
X118231428Y-89230000D01*
X117631428Y-89744285D02*
X117660000Y-89772857D01*
X117745714Y-89801428D01*
X117802857Y-89801428D01*
X117888571Y-89772857D01*
X117945714Y-89715714D01*
X117974285Y-89658571D01*
X118002857Y-89544285D01*
X118002857Y-89458571D01*
X117974285Y-89344285D01*
X117945714Y-89287142D01*
X117888571Y-89230000D01*
X117802857Y-89201428D01*
X117745714Y-89201428D01*
X117660000Y-89230000D01*
X117631428Y-89258571D01*
X117088571Y-89801428D02*
X117374285Y-89801428D01*
X117374285Y-89201428D01*
X164750000Y-118777142D02*
X164778571Y-118834285D01*
X164778571Y-118920000D01*
X164750000Y-119005714D01*
X164692857Y-119062857D01*
X164635714Y-119091428D01*
X164521428Y-119120000D01*
X164435714Y-119120000D01*
X164321428Y-119091428D01*
X164264285Y-119062857D01*
X164207142Y-119005714D01*
X164178571Y-118920000D01*
X164178571Y-118862857D01*
X164207142Y-118777142D01*
X164235714Y-118748571D01*
X164435714Y-118748571D01*
X164435714Y-118862857D01*
X164178571Y-118491428D02*
X164778571Y-118491428D01*
X164178571Y-118148571D01*
X164778571Y-118148571D01*
X164178571Y-117862857D02*
X164778571Y-117862857D01*
X164778571Y-117720000D01*
X164750000Y-117634285D01*
X164692857Y-117577142D01*
X164635714Y-117548571D01*
X164521428Y-117520000D01*
X164435714Y-117520000D01*
X164321428Y-117548571D01*
X164264285Y-117577142D01*
X164207142Y-117634285D01*
X164178571Y-117720000D01*
X164178571Y-117862857D01*
X138722857Y-67907142D02*
X139180000Y-67907142D01*
X139780000Y-67678571D02*
X139437142Y-67678571D01*
X139608571Y-67678571D02*
X139608571Y-68278571D01*
X139551428Y-68192857D01*
X139494285Y-68135714D01*
X139437142Y-68107142D01*
X140008571Y-68221428D02*
X140037142Y-68250000D01*
X140094285Y-68278571D01*
X140237142Y-68278571D01*
X140294285Y-68250000D01*
X140322857Y-68221428D01*
X140351428Y-68164285D01*
X140351428Y-68107142D01*
X140322857Y-68021428D01*
X139980000Y-67678571D01*
X140351428Y-67678571D01*
X140522857Y-68278571D02*
X140722857Y-67678571D01*
X140922857Y-68278571D01*
X150847142Y-118490000D02*
X150904285Y-118461428D01*
X150990000Y-118461428D01*
X151075714Y-118490000D01*
X151132857Y-118547142D01*
X151161428Y-118604285D01*
X151190000Y-118718571D01*
X151190000Y-118804285D01*
X151161428Y-118918571D01*
X151132857Y-118975714D01*
X151075714Y-119032857D01*
X150990000Y-119061428D01*
X150932857Y-119061428D01*
X150847142Y-119032857D01*
X150818571Y-119004285D01*
X150818571Y-118804285D01*
X150932857Y-118804285D01*
X150561428Y-119061428D02*
X150561428Y-118461428D01*
X150218571Y-119061428D01*
X150218571Y-118461428D01*
X149932857Y-119061428D02*
X149932857Y-118461428D01*
X149790000Y-118461428D01*
X149704285Y-118490000D01*
X149647142Y-118547142D01*
X149618571Y-118604285D01*
X149590000Y-118718571D01*
X149590000Y-118804285D01*
X149618571Y-118918571D01*
X149647142Y-118975714D01*
X149704285Y-119032857D01*
X149790000Y-119061428D01*
X149932857Y-119061428D01*
X149332857Y-119061428D02*
X149332857Y-118461428D01*
X149190000Y-118461428D01*
X149104285Y-118490000D01*
X149047142Y-118547142D01*
X149018571Y-118604285D01*
X148990000Y-118718571D01*
X148990000Y-118804285D01*
X149018571Y-118918571D01*
X149047142Y-118975714D01*
X149104285Y-119032857D01*
X149190000Y-119061428D01*
X149332857Y-119061428D01*
X164074285Y-92338809D02*
X164074285Y-91788809D01*
X163890952Y-92181666D01*
X163707619Y-91788809D01*
X163707619Y-92338809D01*
X163445714Y-92338809D02*
X163445714Y-91788809D01*
X163210000Y-92312619D02*
X163131428Y-92338809D01*
X163000476Y-92338809D01*
X162948095Y-92312619D01*
X162921904Y-92286428D01*
X162895714Y-92234047D01*
X162895714Y-92181666D01*
X162921904Y-92129285D01*
X162948095Y-92103095D01*
X163000476Y-92076904D01*
X163105238Y-92050714D01*
X163157619Y-92024523D01*
X163183809Y-91998333D01*
X163210000Y-91945952D01*
X163210000Y-91893571D01*
X163183809Y-91841190D01*
X163157619Y-91815000D01*
X163105238Y-91788809D01*
X162974285Y-91788809D01*
X162895714Y-91815000D01*
X162555238Y-91788809D02*
X162450476Y-91788809D01*
X162398095Y-91815000D01*
X162345714Y-91867380D01*
X162319523Y-91972142D01*
X162319523Y-92155476D01*
X162345714Y-92260238D01*
X162398095Y-92312619D01*
X162450476Y-92338809D01*
X162555238Y-92338809D01*
X162607619Y-92312619D01*
X162660000Y-92260238D01*
X162686190Y-92155476D01*
X162686190Y-91972142D01*
X162660000Y-91867380D01*
X162607619Y-91815000D01*
X162555238Y-91788809D01*
D10*
X138374285Y-75547619D02*
X138040952Y-76023809D01*
X137802857Y-75547619D02*
X137802857Y-76547619D01*
X138183809Y-76547619D01*
X138279047Y-76500000D01*
X138326666Y-76452380D01*
X138374285Y-76357142D01*
X138374285Y-76214285D01*
X138326666Y-76119047D01*
X138279047Y-76071428D01*
X138183809Y-76023809D01*
X137802857Y-76023809D01*
X138802857Y-75547619D02*
X138802857Y-76547619D01*
X139612380Y-76071428D02*
X139755238Y-76023809D01*
X139802857Y-75976190D01*
X139850476Y-75880952D01*
X139850476Y-75738095D01*
X139802857Y-75642857D01*
X139755238Y-75595238D01*
X139660000Y-75547619D01*
X139279047Y-75547619D01*
X139279047Y-76547619D01*
X139612380Y-76547619D01*
X139707619Y-76500000D01*
X139755238Y-76452380D01*
X139802857Y-76357142D01*
X139802857Y-76261904D01*
X139755238Y-76166666D01*
X139707619Y-76119047D01*
X139612380Y-76071428D01*
X139279047Y-76071428D01*
X141755238Y-76595238D02*
X140898095Y-75309523D01*
X143421904Y-75642857D02*
X143374285Y-75595238D01*
X143231428Y-75547619D01*
X143136190Y-75547619D01*
X142993333Y-75595238D01*
X142898095Y-75690476D01*
X142850476Y-75785714D01*
X142802857Y-75976190D01*
X142802857Y-76119047D01*
X142850476Y-76309523D01*
X142898095Y-76404761D01*
X142993333Y-76500000D01*
X143136190Y-76547619D01*
X143231428Y-76547619D01*
X143374285Y-76500000D01*
X143421904Y-76452380D01*
X144040952Y-76547619D02*
X144231428Y-76547619D01*
X144326666Y-76500000D01*
X144421904Y-76404761D01*
X144469523Y-76214285D01*
X144469523Y-75880952D01*
X144421904Y-75690476D01*
X144326666Y-75595238D01*
X144231428Y-75547619D01*
X144040952Y-75547619D01*
X143945714Y-75595238D01*
X143850476Y-75690476D01*
X143802857Y-75880952D01*
X143802857Y-76214285D01*
X143850476Y-76404761D01*
X143945714Y-76500000D01*
X144040952Y-76547619D01*
X144850476Y-75595238D02*
X144993333Y-75547619D01*
X145231428Y-75547619D01*
X145326666Y-75595238D01*
X145374285Y-75642857D01*
X145421904Y-75738095D01*
X145421904Y-75833333D01*
X145374285Y-75928571D01*
X145326666Y-75976190D01*
X145231428Y-76023809D01*
X145040952Y-76071428D01*
X144945714Y-76119047D01*
X144898095Y-76166666D01*
X144850476Y-76261904D01*
X144850476Y-76357142D01*
X144898095Y-76452380D01*
X144945714Y-76500000D01*
X145040952Y-76547619D01*
X145279047Y-76547619D01*
X145421904Y-76500000D01*
X145707619Y-76547619D02*
X146279047Y-76547619D01*
X145993333Y-75547619D02*
X145993333Y-76547619D01*
X146612380Y-76071428D02*
X146945714Y-76071428D01*
X147088571Y-75547619D02*
X146612380Y-75547619D01*
X146612380Y-76547619D01*
X147088571Y-76547619D01*
X147993333Y-75547619D02*
X147517142Y-75547619D01*
X147517142Y-76547619D01*
X148802857Y-75547619D02*
X148326666Y-75547619D01*
X148326666Y-76547619D01*
X149088571Y-75833333D02*
X149564761Y-75833333D01*
X148993333Y-75547619D02*
X149326666Y-76547619D01*
X149660000Y-75547619D01*
D11*
X150771428Y-113367142D02*
X150571428Y-113367142D01*
X150485714Y-113681428D02*
X150771428Y-113681428D01*
X150771428Y-113081428D01*
X150485714Y-113081428D01*
X150314285Y-113081428D02*
X149971428Y-113081428D01*
X150142857Y-113681428D02*
X150142857Y-113081428D01*
X149771428Y-113681428D02*
X149771428Y-113081428D01*
X149771428Y-113367142D02*
X149428571Y-113367142D01*
X149428571Y-113681428D02*
X149428571Y-113081428D01*
X163721666Y-97386428D02*
X163747857Y-97412619D01*
X163826428Y-97438809D01*
X163878809Y-97438809D01*
X163957380Y-97412619D01*
X164009761Y-97360238D01*
X164035952Y-97307857D01*
X164062142Y-97203095D01*
X164062142Y-97124523D01*
X164035952Y-97019761D01*
X164009761Y-96967380D01*
X163957380Y-96915000D01*
X163878809Y-96888809D01*
X163826428Y-96888809D01*
X163747857Y-96915000D01*
X163721666Y-96941190D01*
X163512142Y-97281666D02*
X163250238Y-97281666D01*
X163564523Y-97438809D02*
X163381190Y-96888809D01*
X163197857Y-97438809D01*
X163014523Y-97438809D02*
X163014523Y-96888809D01*
X162700238Y-97438809D01*
X162700238Y-96888809D01*
X162438333Y-97438809D02*
X162438333Y-96888809D01*
X162438333Y-97150714D02*
X162124047Y-97150714D01*
X162124047Y-97438809D02*
X162124047Y-96888809D01*
X164810000Y-113697142D02*
X164838571Y-113754285D01*
X164838571Y-113840000D01*
X164810000Y-113925714D01*
X164752857Y-113982857D01*
X164695714Y-114011428D01*
X164581428Y-114040000D01*
X164495714Y-114040000D01*
X164381428Y-114011428D01*
X164324285Y-113982857D01*
X164267142Y-113925714D01*
X164238571Y-113840000D01*
X164238571Y-113782857D01*
X164267142Y-113697142D01*
X164295714Y-113668571D01*
X164495714Y-113668571D01*
X164495714Y-113782857D01*
X164238571Y-113411428D02*
X164838571Y-113411428D01*
X164238571Y-113068571D01*
X164838571Y-113068571D01*
X164238571Y-112782857D02*
X164838571Y-112782857D01*
X164838571Y-112640000D01*
X164810000Y-112554285D01*
X164752857Y-112497142D01*
X164695714Y-112468571D01*
X164581428Y-112440000D01*
X164495714Y-112440000D01*
X164381428Y-112468571D01*
X164324285Y-112497142D01*
X164267142Y-112554285D01*
X164238571Y-112640000D01*
X164238571Y-112782857D01*
X151772857Y-68220000D02*
X151715714Y-68248571D01*
X151630000Y-68248571D01*
X151544285Y-68220000D01*
X151487142Y-68162857D01*
X151458571Y-68105714D01*
X151430000Y-67991428D01*
X151430000Y-67905714D01*
X151458571Y-67791428D01*
X151487142Y-67734285D01*
X151544285Y-67677142D01*
X151630000Y-67648571D01*
X151687142Y-67648571D01*
X151772857Y-67677142D01*
X151801428Y-67705714D01*
X151801428Y-67905714D01*
X151687142Y-67905714D01*
X152058571Y-67648571D02*
X152058571Y-68248571D01*
X152401428Y-67648571D01*
X152401428Y-68248571D01*
X152687142Y-67648571D02*
X152687142Y-68248571D01*
X152830000Y-68248571D01*
X152915714Y-68220000D01*
X152972857Y-68162857D01*
X153001428Y-68105714D01*
X153030000Y-67991428D01*
X153030000Y-67905714D01*
X153001428Y-67791428D01*
X152972857Y-67734285D01*
X152915714Y-67677142D01*
X152830000Y-67648571D01*
X152687142Y-67648571D01*
X153287142Y-67648571D02*
X153287142Y-68248571D01*
X153430000Y-68248571D01*
X153515714Y-68220000D01*
X153572857Y-68162857D01*
X153601428Y-68105714D01*
X153630000Y-67991428D01*
X153630000Y-67905714D01*
X153601428Y-67791428D01*
X153572857Y-67734285D01*
X153515714Y-67677142D01*
X153430000Y-67648571D01*
X153287142Y-67648571D01*
X133717142Y-73197142D02*
X134174285Y-73197142D01*
X133945714Y-72968571D02*
X133945714Y-73425714D01*
X134374285Y-73568571D02*
X134574285Y-72968571D01*
X134774285Y-73568571D01*
X134974285Y-73282857D02*
X135174285Y-73282857D01*
X135260000Y-72968571D02*
X134974285Y-72968571D01*
X134974285Y-73568571D01*
X135260000Y-73568571D01*
X135460000Y-73568571D02*
X135860000Y-72968571D01*
X135860000Y-73568571D02*
X135460000Y-72968571D01*
X164107142Y-86671428D02*
X163764285Y-86671428D01*
X163935714Y-87271428D02*
X163935714Y-86671428D01*
X163621428Y-86671428D02*
X163221428Y-87271428D01*
X163221428Y-86671428D02*
X163621428Y-87271428D01*
X162992857Y-87271428D02*
X162992857Y-86671428D01*
X162850000Y-86671428D01*
X162764285Y-86700000D01*
X162707142Y-86757142D01*
X162678571Y-86814285D01*
X162650000Y-86928571D01*
X162650000Y-87014285D01*
X162678571Y-87128571D01*
X162707142Y-87185714D01*
X162764285Y-87242857D01*
X162850000Y-87271428D01*
X162992857Y-87271428D01*
D12*
X150666666Y-92559523D02*
X150666666Y-90464285D01*
X150857142Y-90083333D01*
X151238095Y-89892857D01*
X152000000Y-89892857D01*
X152380952Y-90083333D01*
X150666666Y-92369047D02*
X151047619Y-92559523D01*
X152000000Y-92559523D01*
X152380952Y-92369047D01*
X152571428Y-91988095D01*
X152571428Y-91607142D01*
X152380952Y-91226190D01*
X152000000Y-91035714D01*
X151047619Y-91035714D01*
X150666666Y-90845238D01*
X149142857Y-89892857D02*
X148190476Y-92559523D01*
X147238095Y-89892857D01*
X144190476Y-92369047D02*
X144571428Y-92559523D01*
X145333333Y-92559523D01*
X145714285Y-92369047D01*
X145904761Y-91988095D01*
X145904761Y-90464285D01*
X145714285Y-90083333D01*
X145333333Y-89892857D01*
X144571428Y-89892857D01*
X144190476Y-90083333D01*
X144000000Y-90464285D01*
X144000000Y-90845238D01*
X145904761Y-91226190D01*
X142285714Y-92559523D02*
X142285714Y-89892857D01*
X142285714Y-90654761D02*
X142095238Y-90273809D01*
X141904761Y-90083333D01*
X141523809Y-89892857D01*
X141142857Y-89892857D01*
X140380952Y-89892857D02*
X138857142Y-89892857D01*
X139809523Y-88559523D02*
X139809523Y-91988095D01*
X139619047Y-92369047D01*
X139238095Y-92559523D01*
X138857142Y-92559523D01*
X137714285Y-88940476D02*
X137523809Y-88750000D01*
X137142857Y-88559523D01*
X136190476Y-88559523D01*
X135809523Y-88750000D01*
X135619047Y-88940476D01*
X135428571Y-89321428D01*
X135428571Y-89702380D01*
X135619047Y-90273809D01*
X137904761Y-92559523D01*
X135428571Y-92559523D01*
D11*
X148717142Y-118872857D02*
X148260000Y-118872857D01*
X147660000Y-119101428D02*
X148002857Y-119101428D01*
X147831428Y-119101428D02*
X147831428Y-118501428D01*
X147888571Y-118587142D01*
X147945714Y-118644285D01*
X148002857Y-118672857D01*
X147431428Y-118558571D02*
X147402857Y-118530000D01*
X147345714Y-118501428D01*
X147202857Y-118501428D01*
X147145714Y-118530000D01*
X147117142Y-118558571D01*
X147088571Y-118615714D01*
X147088571Y-118672857D01*
X147117142Y-118758571D01*
X147460000Y-119101428D01*
X147088571Y-119101428D01*
X146917142Y-118501428D02*
X146717142Y-119101428D01*
X146517142Y-118501428D01*
X153902857Y-113482857D02*
X153445714Y-113482857D01*
X153674285Y-113711428D02*
X153674285Y-113254285D01*
X153245714Y-113111428D02*
X153045714Y-113711428D01*
X152845714Y-113111428D01*
X152645714Y-113397142D02*
X152445714Y-113397142D01*
X152360000Y-113711428D02*
X152645714Y-113711428D01*
X152645714Y-113111428D01*
X152360000Y-113111428D01*
X152160000Y-113111428D02*
X151760000Y-113711428D01*
X151760000Y-113111428D02*
X152160000Y-113711428D01*
D10*
X149045714Y-111322380D02*
X149379047Y-110846190D01*
X149617142Y-111322380D02*
X149617142Y-110322380D01*
X149236190Y-110322380D01*
X149140952Y-110370000D01*
X149093333Y-110417619D01*
X149045714Y-110512857D01*
X149045714Y-110655714D01*
X149093333Y-110750952D01*
X149140952Y-110798571D01*
X149236190Y-110846190D01*
X149617142Y-110846190D01*
X148617142Y-111322380D02*
X148617142Y-110322380D01*
X147807619Y-110798571D02*
X147664761Y-110846190D01*
X147617142Y-110893809D01*
X147569523Y-110989047D01*
X147569523Y-111131904D01*
X147617142Y-111227142D01*
X147664761Y-111274761D01*
X147760000Y-111322380D01*
X148140952Y-111322380D01*
X148140952Y-110322380D01*
X147807619Y-110322380D01*
X147712380Y-110370000D01*
X147664761Y-110417619D01*
X147617142Y-110512857D01*
X147617142Y-110608095D01*
X147664761Y-110703333D01*
X147712380Y-110750952D01*
X147807619Y-110798571D01*
X148140952Y-110798571D01*
X145664761Y-110274761D02*
X146521904Y-111560476D01*
X143998095Y-111227142D02*
X144045714Y-111274761D01*
X144188571Y-111322380D01*
X144283809Y-111322380D01*
X144426666Y-111274761D01*
X144521904Y-111179523D01*
X144569523Y-111084285D01*
X144617142Y-110893809D01*
X144617142Y-110750952D01*
X144569523Y-110560476D01*
X144521904Y-110465238D01*
X144426666Y-110370000D01*
X144283809Y-110322380D01*
X144188571Y-110322380D01*
X144045714Y-110370000D01*
X143998095Y-110417619D01*
X143379047Y-110322380D02*
X143188571Y-110322380D01*
X143093333Y-110370000D01*
X142998095Y-110465238D01*
X142950476Y-110655714D01*
X142950476Y-110989047D01*
X142998095Y-111179523D01*
X143093333Y-111274761D01*
X143188571Y-111322380D01*
X143379047Y-111322380D01*
X143474285Y-111274761D01*
X143569523Y-111179523D01*
X143617142Y-110989047D01*
X143617142Y-110655714D01*
X143569523Y-110465238D01*
X143474285Y-110370000D01*
X143379047Y-110322380D01*
X142569523Y-111274761D02*
X142426666Y-111322380D01*
X142188571Y-111322380D01*
X142093333Y-111274761D01*
X142045714Y-111227142D01*
X141998095Y-111131904D01*
X141998095Y-111036666D01*
X142045714Y-110941428D01*
X142093333Y-110893809D01*
X142188571Y-110846190D01*
X142379047Y-110798571D01*
X142474285Y-110750952D01*
X142521904Y-110703333D01*
X142569523Y-110608095D01*
X142569523Y-110512857D01*
X142521904Y-110417619D01*
X142474285Y-110370000D01*
X142379047Y-110322380D01*
X142140952Y-110322380D01*
X141998095Y-110370000D01*
X141712380Y-110322380D02*
X141140952Y-110322380D01*
X141426666Y-111322380D02*
X141426666Y-110322380D01*
X140807619Y-110798571D02*
X140474285Y-110798571D01*
X140331428Y-111322380D02*
X140807619Y-111322380D01*
X140807619Y-110322380D01*
X140331428Y-110322380D01*
X139426666Y-111322380D02*
X139902857Y-111322380D01*
X139902857Y-110322380D01*
X138617142Y-111322380D02*
X139093333Y-111322380D01*
X139093333Y-110322380D01*
X138331428Y-111036666D02*
X137855238Y-111036666D01*
X138426666Y-111322380D02*
X138093333Y-110322380D01*
X137760000Y-111322380D01*
D11*
X170047142Y-84160000D02*
X170104285Y-84131428D01*
X170190000Y-84131428D01*
X170275714Y-84160000D01*
X170332857Y-84217142D01*
X170361428Y-84274285D01*
X170390000Y-84388571D01*
X170390000Y-84474285D01*
X170361428Y-84588571D01*
X170332857Y-84645714D01*
X170275714Y-84702857D01*
X170190000Y-84731428D01*
X170132857Y-84731428D01*
X170047142Y-84702857D01*
X170018571Y-84674285D01*
X170018571Y-84474285D01*
X170132857Y-84474285D01*
X169761428Y-84731428D02*
X169761428Y-84131428D01*
X169418571Y-84731428D01*
X169418571Y-84131428D01*
X169132857Y-84731428D02*
X169132857Y-84131428D01*
X168990000Y-84131428D01*
X168904285Y-84160000D01*
X168847142Y-84217142D01*
X168818571Y-84274285D01*
X168790000Y-84388571D01*
X168790000Y-84474285D01*
X168818571Y-84588571D01*
X168847142Y-84645714D01*
X168904285Y-84702857D01*
X168990000Y-84731428D01*
X169132857Y-84731428D01*
D10*
X153099523Y-84572380D02*
X153099523Y-83572380D01*
X152718571Y-83572380D01*
X152623333Y-83620000D01*
X152575714Y-83667619D01*
X152528095Y-83762857D01*
X152528095Y-83905714D01*
X152575714Y-84000952D01*
X152623333Y-84048571D01*
X152718571Y-84096190D01*
X153099523Y-84096190D01*
X151528095Y-84572380D02*
X151861428Y-84096190D01*
X152099523Y-84572380D02*
X152099523Y-83572380D01*
X151718571Y-83572380D01*
X151623333Y-83620000D01*
X151575714Y-83667619D01*
X151528095Y-83762857D01*
X151528095Y-83905714D01*
X151575714Y-84000952D01*
X151623333Y-84048571D01*
X151718571Y-84096190D01*
X152099523Y-84096190D01*
X150909047Y-83572380D02*
X150718571Y-83572380D01*
X150623333Y-83620000D01*
X150528095Y-83715238D01*
X150480476Y-83905714D01*
X150480476Y-84239047D01*
X150528095Y-84429523D01*
X150623333Y-84524761D01*
X150718571Y-84572380D01*
X150909047Y-84572380D01*
X151004285Y-84524761D01*
X151099523Y-84429523D01*
X151147142Y-84239047D01*
X151147142Y-83905714D01*
X151099523Y-83715238D01*
X151004285Y-83620000D01*
X150909047Y-83572380D01*
X149528095Y-83620000D02*
X149623333Y-83572380D01*
X149766190Y-83572380D01*
X149909047Y-83620000D01*
X150004285Y-83715238D01*
X150051904Y-83810476D01*
X150099523Y-84000952D01*
X150099523Y-84143809D01*
X150051904Y-84334285D01*
X150004285Y-84429523D01*
X149909047Y-84524761D01*
X149766190Y-84572380D01*
X149670952Y-84572380D01*
X149528095Y-84524761D01*
X149480476Y-84477142D01*
X149480476Y-84143809D01*
X149670952Y-84143809D01*
X148480476Y-84572380D02*
X148813809Y-84096190D01*
X149051904Y-84572380D02*
X149051904Y-83572380D01*
X148670952Y-83572380D01*
X148575714Y-83620000D01*
X148528095Y-83667619D01*
X148480476Y-83762857D01*
X148480476Y-83905714D01*
X148528095Y-84000952D01*
X148575714Y-84048571D01*
X148670952Y-84096190D01*
X149051904Y-84096190D01*
X148099523Y-84286666D02*
X147623333Y-84286666D01*
X148194761Y-84572380D02*
X147861428Y-83572380D01*
X147528095Y-84572380D01*
X147194761Y-84572380D02*
X147194761Y-83572380D01*
X146861428Y-84286666D01*
X146528095Y-83572380D01*
X146528095Y-84572380D01*
X146051904Y-84572380D02*
X146051904Y-83572380D01*
X145718571Y-84286666D01*
X145385238Y-83572380D01*
X145385238Y-84572380D01*
X144909047Y-84048571D02*
X144575714Y-84048571D01*
X144432857Y-84572380D02*
X144909047Y-84572380D01*
X144909047Y-83572380D01*
X144432857Y-83572380D01*
X143432857Y-84572380D02*
X143766190Y-84096190D01*
X144004285Y-84572380D02*
X144004285Y-83572380D01*
X143623333Y-83572380D01*
X143528095Y-83620000D01*
X143480476Y-83667619D01*
X143432857Y-83762857D01*
X143432857Y-83905714D01*
X143480476Y-84000952D01*
X143528095Y-84048571D01*
X143623333Y-84096190D01*
X144004285Y-84096190D01*
D11*
X170047142Y-99430000D02*
X170104285Y-99401428D01*
X170190000Y-99401428D01*
X170275714Y-99430000D01*
X170332857Y-99487142D01*
X170361428Y-99544285D01*
X170390000Y-99658571D01*
X170390000Y-99744285D01*
X170361428Y-99858571D01*
X170332857Y-99915714D01*
X170275714Y-99972857D01*
X170190000Y-100001428D01*
X170132857Y-100001428D01*
X170047142Y-99972857D01*
X170018571Y-99944285D01*
X170018571Y-99744285D01*
X170132857Y-99744285D01*
X169761428Y-100001428D02*
X169761428Y-99401428D01*
X169418571Y-100001428D01*
X169418571Y-99401428D01*
X169132857Y-100001428D02*
X169132857Y-99401428D01*
X168990000Y-99401428D01*
X168904285Y-99430000D01*
X168847142Y-99487142D01*
X168818571Y-99544285D01*
X168790000Y-99658571D01*
X168790000Y-99744285D01*
X168818571Y-99858571D01*
X168847142Y-99915714D01*
X168904285Y-99972857D01*
X168990000Y-100001428D01*
X169132857Y-100001428D01*
X135577142Y-113662857D02*
X135491428Y-113691428D01*
X135348571Y-113691428D01*
X135291428Y-113662857D01*
X135262857Y-113634285D01*
X135234285Y-113577142D01*
X135234285Y-113520000D01*
X135262857Y-113462857D01*
X135291428Y-113434285D01*
X135348571Y-113405714D01*
X135462857Y-113377142D01*
X135520000Y-113348571D01*
X135548571Y-113320000D01*
X135577142Y-113262857D01*
X135577142Y-113205714D01*
X135548571Y-113148571D01*
X135520000Y-113120000D01*
X135462857Y-113091428D01*
X135320000Y-113091428D01*
X135234285Y-113120000D01*
X134634285Y-113634285D02*
X134662857Y-113662857D01*
X134748571Y-113691428D01*
X134805714Y-113691428D01*
X134891428Y-113662857D01*
X134948571Y-113605714D01*
X134977142Y-113548571D01*
X135005714Y-113434285D01*
X135005714Y-113348571D01*
X134977142Y-113234285D01*
X134948571Y-113177142D01*
X134891428Y-113120000D01*
X134805714Y-113091428D01*
X134748571Y-113091428D01*
X134662857Y-113120000D01*
X134634285Y-113148571D01*
X134405714Y-113148571D02*
X134377142Y-113120000D01*
X134320000Y-113091428D01*
X134177142Y-113091428D01*
X134120000Y-113120000D01*
X134091428Y-113148571D01*
X134062857Y-113205714D01*
X134062857Y-113262857D01*
X134091428Y-113348571D01*
X134434285Y-113691428D01*
X134062857Y-113691428D01*
X164041428Y-94852857D02*
X163955714Y-94881428D01*
X163812857Y-94881428D01*
X163755714Y-94852857D01*
X163727142Y-94824285D01*
X163698571Y-94767142D01*
X163698571Y-94710000D01*
X163727142Y-94652857D01*
X163755714Y-94624285D01*
X163812857Y-94595714D01*
X163927142Y-94567142D01*
X163984285Y-94538571D01*
X164012857Y-94510000D01*
X164041428Y-94452857D01*
X164041428Y-94395714D01*
X164012857Y-94338571D01*
X163984285Y-94310000D01*
X163927142Y-94281428D01*
X163784285Y-94281428D01*
X163698571Y-94310000D01*
X163098571Y-94824285D02*
X163127142Y-94852857D01*
X163212857Y-94881428D01*
X163270000Y-94881428D01*
X163355714Y-94852857D01*
X163412857Y-94795714D01*
X163441428Y-94738571D01*
X163470000Y-94624285D01*
X163470000Y-94538571D01*
X163441428Y-94424285D01*
X163412857Y-94367142D01*
X163355714Y-94310000D01*
X163270000Y-94281428D01*
X163212857Y-94281428D01*
X163127142Y-94310000D01*
X163098571Y-94338571D01*
X162841428Y-94881428D02*
X162841428Y-94281428D01*
X162498571Y-94881428D02*
X162755714Y-94538571D01*
X162498571Y-94281428D02*
X162841428Y-94624285D01*
D10*
X128007619Y-96807619D02*
X127007619Y-96474285D01*
X128007619Y-96140952D01*
X127531428Y-95807619D02*
X127531428Y-95474285D01*
X127007619Y-95331428D02*
X127007619Y-95807619D01*
X128007619Y-95807619D01*
X128007619Y-95331428D01*
X127007619Y-94331428D02*
X127483809Y-94664761D01*
X127007619Y-94902857D02*
X128007619Y-94902857D01*
X128007619Y-94521904D01*
X127960000Y-94426666D01*
X127912380Y-94379047D01*
X127817142Y-94331428D01*
X127674285Y-94331428D01*
X127579047Y-94379047D01*
X127531428Y-94426666D01*
X127483809Y-94521904D01*
X127483809Y-94902857D01*
X128007619Y-94045714D02*
X128007619Y-93474285D01*
X127007619Y-93760000D02*
X128007619Y-93760000D01*
X127531428Y-93140952D02*
X127531428Y-92807619D01*
X127007619Y-92664761D02*
X127007619Y-93140952D01*
X128007619Y-93140952D01*
X128007619Y-92664761D01*
X127531428Y-91902857D02*
X127483809Y-91760000D01*
X127436190Y-91712380D01*
X127340952Y-91664761D01*
X127198095Y-91664761D01*
X127102857Y-91712380D01*
X127055238Y-91760000D01*
X127007619Y-91855238D01*
X127007619Y-92236190D01*
X128007619Y-92236190D01*
X128007619Y-91902857D01*
X127960000Y-91807619D01*
X127912380Y-91760000D01*
X127817142Y-91712380D01*
X127721904Y-91712380D01*
X127626666Y-91760000D01*
X127579047Y-91807619D01*
X127531428Y-91902857D01*
X127531428Y-92236190D01*
X127007619Y-90664761D02*
X127483809Y-90998095D01*
X127007619Y-91236190D02*
X128007619Y-91236190D01*
X128007619Y-90855238D01*
X127960000Y-90760000D01*
X127912380Y-90712380D01*
X127817142Y-90664761D01*
X127674285Y-90664761D01*
X127579047Y-90712380D01*
X127531428Y-90760000D01*
X127483809Y-90855238D01*
X127483809Y-91236190D01*
X127293333Y-90283809D02*
X127293333Y-89807619D01*
X127007619Y-90379047D02*
X128007619Y-90045714D01*
X127007619Y-89712380D01*
D11*
X118431666Y-97296428D02*
X118457857Y-97322619D01*
X118536428Y-97348809D01*
X118588809Y-97348809D01*
X118667380Y-97322619D01*
X118719761Y-97270238D01*
X118745952Y-97217857D01*
X118772142Y-97113095D01*
X118772142Y-97034523D01*
X118745952Y-96929761D01*
X118719761Y-96877380D01*
X118667380Y-96825000D01*
X118588809Y-96798809D01*
X118536428Y-96798809D01*
X118457857Y-96825000D01*
X118431666Y-96851190D01*
X118222142Y-97191666D02*
X117960238Y-97191666D01*
X118274523Y-97348809D02*
X118091190Y-96798809D01*
X117907857Y-97348809D01*
X117724523Y-97348809D02*
X117724523Y-96798809D01*
X117410238Y-97348809D01*
X117410238Y-96798809D01*
X117148333Y-97348809D02*
X117148333Y-96798809D01*
X117148333Y-97060714D02*
X116834047Y-97060714D01*
X116834047Y-97348809D02*
X116834047Y-96798809D01*
X118634285Y-92258809D02*
X118634285Y-91708809D01*
X118450952Y-92101666D01*
X118267619Y-91708809D01*
X118267619Y-92258809D01*
X118005714Y-92258809D02*
X118005714Y-91708809D01*
X117770000Y-92232619D02*
X117691428Y-92258809D01*
X117560476Y-92258809D01*
X117508095Y-92232619D01*
X117481904Y-92206428D01*
X117455714Y-92154047D01*
X117455714Y-92101666D01*
X117481904Y-92049285D01*
X117508095Y-92023095D01*
X117560476Y-91996904D01*
X117665238Y-91970714D01*
X117717619Y-91944523D01*
X117743809Y-91918333D01*
X117770000Y-91865952D01*
X117770000Y-91813571D01*
X117743809Y-91761190D01*
X117717619Y-91735000D01*
X117665238Y-91708809D01*
X117534285Y-91708809D01*
X117455714Y-91735000D01*
X117115238Y-91708809D02*
X117010476Y-91708809D01*
X116958095Y-91735000D01*
X116905714Y-91787380D01*
X116879523Y-91892142D01*
X116879523Y-92075476D01*
X116905714Y-92180238D01*
X116958095Y-92232619D01*
X117010476Y-92258809D01*
X117115238Y-92258809D01*
X117167619Y-92232619D01*
X117220000Y-92180238D01*
X117246190Y-92075476D01*
X117246190Y-91892142D01*
X117220000Y-91787380D01*
X117167619Y-91735000D01*
X117115238Y-91708809D01*
X146910000Y-88501428D02*
X147110000Y-88215714D01*
X147252857Y-88501428D02*
X147252857Y-87901428D01*
X147024285Y-87901428D01*
X146967142Y-87930000D01*
X146938571Y-87958571D01*
X146910000Y-88015714D01*
X146910000Y-88101428D01*
X146938571Y-88158571D01*
X146967142Y-88187142D01*
X147024285Y-88215714D01*
X147252857Y-88215714D01*
X146710000Y-87901428D02*
X146310000Y-88501428D01*
X146310000Y-87901428D02*
X146710000Y-88501428D01*
X138157142Y-119032857D02*
X138071428Y-119061428D01*
X137928571Y-119061428D01*
X137871428Y-119032857D01*
X137842857Y-119004285D01*
X137814285Y-118947142D01*
X137814285Y-118890000D01*
X137842857Y-118832857D01*
X137871428Y-118804285D01*
X137928571Y-118775714D01*
X138042857Y-118747142D01*
X138100000Y-118718571D01*
X138128571Y-118690000D01*
X138157142Y-118632857D01*
X138157142Y-118575714D01*
X138128571Y-118518571D01*
X138100000Y-118490000D01*
X138042857Y-118461428D01*
X137900000Y-118461428D01*
X137814285Y-118490000D01*
X137557142Y-119061428D02*
X137557142Y-118461428D01*
X137414285Y-118461428D01*
X137328571Y-118490000D01*
X137271428Y-118547142D01*
X137242857Y-118604285D01*
X137214285Y-118718571D01*
X137214285Y-118804285D01*
X137242857Y-118918571D01*
X137271428Y-118975714D01*
X137328571Y-119032857D01*
X137414285Y-119061428D01*
X137557142Y-119061428D01*
X136985714Y-118518571D02*
X136957142Y-118490000D01*
X136900000Y-118461428D01*
X136757142Y-118461428D01*
X136700000Y-118490000D01*
X136671428Y-118518571D01*
X136642857Y-118575714D01*
X136642857Y-118632857D01*
X136671428Y-118718571D01*
X137014285Y-119061428D01*
X136642857Y-119061428D01*
X169980000Y-87341428D02*
X170180000Y-87055714D01*
X170322857Y-87341428D02*
X170322857Y-86741428D01*
X170094285Y-86741428D01*
X170037142Y-86770000D01*
X170008571Y-86798571D01*
X169980000Y-86855714D01*
X169980000Y-86941428D01*
X170008571Y-86998571D01*
X170037142Y-87027142D01*
X170094285Y-87055714D01*
X170322857Y-87055714D01*
X169780000Y-86741428D02*
X169380000Y-87341428D01*
X169380000Y-86741428D02*
X169780000Y-87341428D01*
X169151428Y-87341428D02*
X169151428Y-86741428D01*
X169008571Y-86741428D01*
X168922857Y-86770000D01*
X168865714Y-86827142D01*
X168837142Y-86884285D01*
X168808571Y-86998571D01*
X168808571Y-87084285D01*
X168837142Y-87198571D01*
X168865714Y-87255714D01*
X168922857Y-87312857D01*
X169008571Y-87341428D01*
X169151428Y-87341428D01*
X148737142Y-113462857D02*
X148280000Y-113462857D01*
X148508571Y-113691428D02*
X148508571Y-113234285D01*
X147680000Y-113691428D02*
X148022857Y-113691428D01*
X147851428Y-113691428D02*
X147851428Y-113091428D01*
X147908571Y-113177142D01*
X147965714Y-113234285D01*
X148022857Y-113262857D01*
X147451428Y-113148571D02*
X147422857Y-113120000D01*
X147365714Y-113091428D01*
X147222857Y-113091428D01*
X147165714Y-113120000D01*
X147137142Y-113148571D01*
X147108571Y-113205714D01*
X147108571Y-113262857D01*
X147137142Y-113348571D01*
X147480000Y-113691428D01*
X147108571Y-113691428D01*
X146937142Y-113091428D02*
X146737142Y-113691428D01*
X146537142Y-113091428D01*
X158490000Y-113738571D02*
X158490000Y-113452857D01*
X158318571Y-113795714D02*
X158918571Y-113595714D01*
X158318571Y-113395714D01*
X158861428Y-113224285D02*
X158890000Y-113195714D01*
X158918571Y-113138571D01*
X158918571Y-112995714D01*
X158890000Y-112938571D01*
X158861428Y-112910000D01*
X158804285Y-112881428D01*
X158747142Y-112881428D01*
X158661428Y-112910000D01*
X158318571Y-113252857D01*
X158318571Y-112881428D01*
X135507142Y-118500000D02*
X135564285Y-118471428D01*
X135650000Y-118471428D01*
X135735714Y-118500000D01*
X135792857Y-118557142D01*
X135821428Y-118614285D01*
X135850000Y-118728571D01*
X135850000Y-118814285D01*
X135821428Y-118928571D01*
X135792857Y-118985714D01*
X135735714Y-119042857D01*
X135650000Y-119071428D01*
X135592857Y-119071428D01*
X135507142Y-119042857D01*
X135478571Y-119014285D01*
X135478571Y-118814285D01*
X135592857Y-118814285D01*
X135221428Y-119071428D02*
X135221428Y-118471428D01*
X134878571Y-119071428D01*
X134878571Y-118471428D01*
X134592857Y-119071428D02*
X134592857Y-118471428D01*
X134450000Y-118471428D01*
X134364285Y-118500000D01*
X134307142Y-118557142D01*
X134278571Y-118614285D01*
X134250000Y-118728571D01*
X134250000Y-118814285D01*
X134278571Y-118928571D01*
X134307142Y-118985714D01*
X134364285Y-119042857D01*
X134450000Y-119071428D01*
X134592857Y-119071428D01*
X133992857Y-119071428D02*
X133992857Y-118471428D01*
X133850000Y-118471428D01*
X133764285Y-118500000D01*
X133707142Y-118557142D01*
X133678571Y-118614285D01*
X133650000Y-118728571D01*
X133650000Y-118814285D01*
X133678571Y-118928571D01*
X133707142Y-118985714D01*
X133764285Y-119042857D01*
X133850000Y-119071428D01*
X133992857Y-119071428D01*
D13*
X160059523Y-106071428D02*
X159678571Y-107404761D01*
X159297619Y-106452380D01*
X158916666Y-107404761D01*
X158535714Y-106071428D01*
X157964285Y-106071428D02*
X157583333Y-107404761D01*
X157202380Y-106452380D01*
X156821428Y-107404761D01*
X156440476Y-106071428D01*
X155869047Y-106071428D02*
X155488095Y-107404761D01*
X155107142Y-106452380D01*
X154726190Y-107404761D01*
X154345238Y-106071428D01*
X153583333Y-107214285D02*
X153488095Y-107309523D01*
X153583333Y-107404761D01*
X153678571Y-107309523D01*
X153583333Y-107214285D01*
X153583333Y-107404761D01*
X152630952Y-107404761D02*
X152630952Y-106071428D01*
X152630952Y-105404761D02*
X152726190Y-105500000D01*
X152630952Y-105595238D01*
X152535714Y-105500000D01*
X152630952Y-105404761D01*
X152630952Y-105595238D01*
X151392857Y-107404761D02*
X151583333Y-107309523D01*
X151678571Y-107214285D01*
X151773809Y-107023809D01*
X151773809Y-106452380D01*
X151678571Y-106261904D01*
X151583333Y-106166666D01*
X151392857Y-106071428D01*
X151107142Y-106071428D01*
X150916666Y-106166666D01*
X150821428Y-106261904D01*
X150726190Y-106452380D01*
X150726190Y-107023809D01*
X150821428Y-107214285D01*
X150916666Y-107309523D01*
X151107142Y-107404761D01*
X151392857Y-107404761D01*
X150154761Y-106071428D02*
X149392857Y-106071428D01*
X149869047Y-105404761D02*
X149869047Y-107119047D01*
X149773809Y-107309523D01*
X149583333Y-107404761D01*
X149392857Y-107404761D01*
X148916666Y-106071428D02*
X148440476Y-107404761D01*
X147964285Y-106071428D01*
X146440476Y-107309523D02*
X146630952Y-107404761D01*
X147011904Y-107404761D01*
X147202380Y-107309523D01*
X147297619Y-107119047D01*
X147297619Y-106357142D01*
X147202380Y-106166666D01*
X147011904Y-106071428D01*
X146630952Y-106071428D01*
X146440476Y-106166666D01*
X146345238Y-106357142D01*
X146345238Y-106547619D01*
X147297619Y-106738095D01*
X145488095Y-107404761D02*
X145488095Y-106071428D01*
X145488095Y-106452380D02*
X145392857Y-106261904D01*
X145297619Y-106166666D01*
X145107142Y-106071428D01*
X144916666Y-106071428D01*
X144535714Y-106071428D02*
X143773809Y-106071428D01*
X144250000Y-105404761D02*
X144250000Y-107119047D01*
X144154761Y-107309523D01*
X143964285Y-107404761D01*
X143773809Y-107404761D01*
X142345238Y-107309523D02*
X142535714Y-107404761D01*
X142916666Y-107404761D01*
X143107142Y-107309523D01*
X143202380Y-107119047D01*
X143202380Y-106357142D01*
X143107142Y-106166666D01*
X142916666Y-106071428D01*
X142535714Y-106071428D01*
X142345238Y-106166666D01*
X142250000Y-106357142D01*
X142250000Y-106547619D01*
X143202380Y-106738095D01*
X141392857Y-107404761D02*
X141392857Y-105404761D01*
X141392857Y-106166666D02*
X141202380Y-106071428D01*
X140821428Y-106071428D01*
X140630952Y-106166666D01*
X140535714Y-106261904D01*
X140440476Y-106452380D01*
X140440476Y-107023809D01*
X140535714Y-107214285D01*
X140630952Y-107309523D01*
X140821428Y-107404761D01*
X141202380Y-107404761D01*
X141392857Y-107309523D01*
X139583333Y-107404761D02*
X139583333Y-106071428D01*
X139583333Y-106452380D02*
X139488095Y-106261904D01*
X139392857Y-106166666D01*
X139202380Y-106071428D01*
X139011904Y-106071428D01*
X137488095Y-107404761D02*
X137488095Y-106357142D01*
X137583333Y-106166666D01*
X137773809Y-106071428D01*
X138154761Y-106071428D01*
X138345238Y-106166666D01*
X137488095Y-107309523D02*
X137678571Y-107404761D01*
X138154761Y-107404761D01*
X138345238Y-107309523D01*
X138440476Y-107119047D01*
X138440476Y-106928571D01*
X138345238Y-106738095D01*
X138154761Y-106642857D01*
X137678571Y-106642857D01*
X137488095Y-106547619D01*
X135773809Y-107309523D02*
X135964285Y-107404761D01*
X136345238Y-107404761D01*
X136535714Y-107309523D01*
X136630952Y-107119047D01*
X136630952Y-106357142D01*
X136535714Y-106166666D01*
X136345238Y-106071428D01*
X135964285Y-106071428D01*
X135773809Y-106166666D01*
X135678571Y-106357142D01*
X135678571Y-106547619D01*
X136630952Y-106738095D01*
X134821428Y-107214285D02*
X134726190Y-107309523D01*
X134821428Y-107404761D01*
X134916666Y-107309523D01*
X134821428Y-107214285D01*
X134821428Y-107404761D01*
X133011904Y-107309523D02*
X133202380Y-107404761D01*
X133583333Y-107404761D01*
X133773809Y-107309523D01*
X133869047Y-107214285D01*
X133964285Y-107023809D01*
X133964285Y-106452380D01*
X133869047Y-106261904D01*
X133773809Y-106166666D01*
X133583333Y-106071428D01*
X133202380Y-106071428D01*
X133011904Y-106166666D01*
X131869047Y-107404761D02*
X132059523Y-107309523D01*
X132154761Y-107214285D01*
X132250000Y-107023809D01*
X132250000Y-106452380D01*
X132154761Y-106261904D01*
X132059523Y-106166666D01*
X131869047Y-106071428D01*
X131583333Y-106071428D01*
X131392857Y-106166666D01*
X131297619Y-106261904D01*
X131202380Y-106452380D01*
X131202380Y-107023809D01*
X131297619Y-107214285D01*
X131392857Y-107309523D01*
X131583333Y-107404761D01*
X131869047Y-107404761D01*
X130345238Y-107404761D02*
X130345238Y-106071428D01*
X130345238Y-106261904D02*
X130250000Y-106166666D01*
X130059523Y-106071428D01*
X129773809Y-106071428D01*
X129583333Y-106166666D01*
X129488095Y-106357142D01*
X129488095Y-107404761D01*
X129488095Y-106357142D02*
X129392857Y-106166666D01*
X129202380Y-106071428D01*
X128916666Y-106071428D01*
X128726190Y-106166666D01*
X128630952Y-106357142D01*
X128630952Y-107404761D01*
D10*
X160127619Y-96887619D02*
X159127619Y-96554285D01*
X160127619Y-96220952D01*
X159651428Y-95887619D02*
X159651428Y-95554285D01*
X159127619Y-95411428D02*
X159127619Y-95887619D01*
X160127619Y-95887619D01*
X160127619Y-95411428D01*
X159127619Y-94411428D02*
X159603809Y-94744761D01*
X159127619Y-94982857D02*
X160127619Y-94982857D01*
X160127619Y-94601904D01*
X160080000Y-94506666D01*
X160032380Y-94459047D01*
X159937142Y-94411428D01*
X159794285Y-94411428D01*
X159699047Y-94459047D01*
X159651428Y-94506666D01*
X159603809Y-94601904D01*
X159603809Y-94982857D01*
X160127619Y-94125714D02*
X160127619Y-93554285D01*
X159127619Y-93840000D02*
X160127619Y-93840000D01*
X159651428Y-93220952D02*
X159651428Y-92887619D01*
X159127619Y-92744761D02*
X159127619Y-93220952D01*
X160127619Y-93220952D01*
X160127619Y-92744761D01*
X159651428Y-91982857D02*
X159603809Y-91840000D01*
X159556190Y-91792380D01*
X159460952Y-91744761D01*
X159318095Y-91744761D01*
X159222857Y-91792380D01*
X159175238Y-91840000D01*
X159127619Y-91935238D01*
X159127619Y-92316190D01*
X160127619Y-92316190D01*
X160127619Y-91982857D01*
X160080000Y-91887619D01*
X160032380Y-91840000D01*
X159937142Y-91792380D01*
X159841904Y-91792380D01*
X159746666Y-91840000D01*
X159699047Y-91887619D01*
X159651428Y-91982857D01*
X159651428Y-92316190D01*
X159127619Y-90744761D02*
X159603809Y-91078095D01*
X159127619Y-91316190D02*
X160127619Y-91316190D01*
X160127619Y-90935238D01*
X160080000Y-90840000D01*
X160032380Y-90792380D01*
X159937142Y-90744761D01*
X159794285Y-90744761D01*
X159699047Y-90792380D01*
X159651428Y-90840000D01*
X159603809Y-90935238D01*
X159603809Y-91316190D01*
X159413333Y-90363809D02*
X159413333Y-89887619D01*
X159127619Y-90459047D02*
X160127619Y-90125714D01*
X159127619Y-89792380D01*
D11*
X164060000Y-102282857D02*
X163602857Y-102282857D01*
X163831428Y-102511428D02*
X163831428Y-102054285D01*
X163345714Y-101968571D02*
X163317142Y-101940000D01*
X163260000Y-101911428D01*
X163117142Y-101911428D01*
X163060000Y-101940000D01*
X163031428Y-101968571D01*
X163002857Y-102025714D01*
X163002857Y-102082857D01*
X163031428Y-102168571D01*
X163374285Y-102511428D01*
X163002857Y-102511428D01*
X162488571Y-102111428D02*
X162488571Y-102511428D01*
X162631428Y-101882857D02*
X162774285Y-102311428D01*
X162402857Y-102311428D01*
X158460000Y-111058571D02*
X158460000Y-110772857D01*
X158288571Y-111115714D02*
X158888571Y-110915714D01*
X158288571Y-110715714D01*
X158888571Y-110572857D02*
X158888571Y-110201428D01*
X158660000Y-110401428D01*
X158660000Y-110315714D01*
X158631428Y-110258571D01*
X158602857Y-110230000D01*
X158545714Y-110201428D01*
X158402857Y-110201428D01*
X158345714Y-110230000D01*
X158317142Y-110258571D01*
X158288571Y-110315714D01*
X158288571Y-110487142D01*
X158317142Y-110544285D01*
X158345714Y-110572857D01*
X124970000Y-102252857D02*
X124512857Y-102252857D01*
X124741428Y-102481428D02*
X124741428Y-102024285D01*
X124255714Y-101938571D02*
X124227142Y-101910000D01*
X124170000Y-101881428D01*
X124027142Y-101881428D01*
X123970000Y-101910000D01*
X123941428Y-101938571D01*
X123912857Y-101995714D01*
X123912857Y-102052857D01*
X123941428Y-102138571D01*
X124284285Y-102481428D01*
X123912857Y-102481428D01*
X123398571Y-102081428D02*
X123398571Y-102481428D01*
X123541428Y-101852857D02*
X123684285Y-102281428D01*
X123312857Y-102281428D01*
X118637142Y-86671428D02*
X118294285Y-86671428D01*
X118465714Y-87271428D02*
X118465714Y-86671428D01*
X118151428Y-86671428D02*
X117751428Y-87271428D01*
X117751428Y-86671428D02*
X118151428Y-87271428D01*
X117522857Y-87271428D02*
X117522857Y-86671428D01*
X117380000Y-86671428D01*
X117294285Y-86700000D01*
X117237142Y-86757142D01*
X117208571Y-86814285D01*
X117180000Y-86928571D01*
X117180000Y-87014285D01*
X117208571Y-87128571D01*
X117237142Y-87185714D01*
X117294285Y-87242857D01*
X117380000Y-87271428D01*
X117522857Y-87271428D01*
X124816190Y-97306428D02*
X124842380Y-97332619D01*
X124920952Y-97358809D01*
X124973333Y-97358809D01*
X125051904Y-97332619D01*
X125104285Y-97280238D01*
X125130476Y-97227857D01*
X125156666Y-97123095D01*
X125156666Y-97044523D01*
X125130476Y-96939761D01*
X125104285Y-96887380D01*
X125051904Y-96835000D01*
X124973333Y-96808809D01*
X124920952Y-96808809D01*
X124842380Y-96835000D01*
X124816190Y-96861190D01*
X124606666Y-97201666D02*
X124344761Y-97201666D01*
X124659047Y-97358809D02*
X124475714Y-96808809D01*
X124292380Y-97358809D01*
X124109047Y-97358809D02*
X124109047Y-96808809D01*
X123794761Y-97358809D01*
X123794761Y-96808809D01*
X123270952Y-97358809D02*
X123532857Y-97358809D01*
X123532857Y-96808809D01*
X141628571Y-73197142D02*
X142085714Y-73197142D01*
X141857142Y-72968571D02*
X141857142Y-73425714D01*
X142657142Y-73568571D02*
X142371428Y-73568571D01*
X142342857Y-73282857D01*
X142371428Y-73311428D01*
X142428571Y-73340000D01*
X142571428Y-73340000D01*
X142628571Y-73311428D01*
X142657142Y-73282857D01*
X142685714Y-73225714D01*
X142685714Y-73082857D01*
X142657142Y-73025714D01*
X142628571Y-72997142D01*
X142571428Y-72968571D01*
X142428571Y-72968571D01*
X142371428Y-72997142D01*
X142342857Y-73025714D01*
X142857142Y-73568571D02*
X143057142Y-72968571D01*
X143257142Y-73568571D01*
X170420000Y-102262857D02*
X169962857Y-102262857D01*
X170191428Y-102491428D02*
X170191428Y-102034285D01*
X169705714Y-101948571D02*
X169677142Y-101920000D01*
X169620000Y-101891428D01*
X169477142Y-101891428D01*
X169420000Y-101920000D01*
X169391428Y-101948571D01*
X169362857Y-102005714D01*
X169362857Y-102062857D01*
X169391428Y-102148571D01*
X169734285Y-102491428D01*
X169362857Y-102491428D01*
X168848571Y-102091428D02*
X168848571Y-102491428D01*
X168991428Y-101862857D02*
X169134285Y-102291428D01*
X168762857Y-102291428D01*
X149222857Y-73047142D02*
X149308571Y-73018571D01*
X149451428Y-73018571D01*
X149508571Y-73047142D01*
X149537142Y-73075714D01*
X149565714Y-73132857D01*
X149565714Y-73190000D01*
X149537142Y-73247142D01*
X149508571Y-73275714D01*
X149451428Y-73304285D01*
X149337142Y-73332857D01*
X149280000Y-73361428D01*
X149251428Y-73390000D01*
X149222857Y-73447142D01*
X149222857Y-73504285D01*
X149251428Y-73561428D01*
X149280000Y-73590000D01*
X149337142Y-73618571D01*
X149480000Y-73618571D01*
X149565714Y-73590000D01*
X150165714Y-73075714D02*
X150137142Y-73047142D01*
X150051428Y-73018571D01*
X149994285Y-73018571D01*
X149908571Y-73047142D01*
X149851428Y-73104285D01*
X149822857Y-73161428D01*
X149794285Y-73275714D01*
X149794285Y-73361428D01*
X149822857Y-73475714D01*
X149851428Y-73532857D01*
X149908571Y-73590000D01*
X149994285Y-73618571D01*
X150051428Y-73618571D01*
X150137142Y-73590000D01*
X150165714Y-73561428D01*
X150737142Y-73018571D02*
X150394285Y-73018571D01*
X150565714Y-73018571D02*
X150565714Y-73618571D01*
X150508571Y-73532857D01*
X150451428Y-73475714D01*
X150394285Y-73447142D01*
X118600000Y-102222857D02*
X118142857Y-102222857D01*
X118371428Y-102451428D02*
X118371428Y-101994285D01*
X117885714Y-101908571D02*
X117857142Y-101880000D01*
X117800000Y-101851428D01*
X117657142Y-101851428D01*
X117600000Y-101880000D01*
X117571428Y-101908571D01*
X117542857Y-101965714D01*
X117542857Y-102022857D01*
X117571428Y-102108571D01*
X117914285Y-102451428D01*
X117542857Y-102451428D01*
X117028571Y-102051428D02*
X117028571Y-102451428D01*
X117171428Y-101822857D02*
X117314285Y-102251428D01*
X116942857Y-102251428D01*
X118611428Y-94882857D02*
X118525714Y-94911428D01*
X118382857Y-94911428D01*
X118325714Y-94882857D01*
X118297142Y-94854285D01*
X118268571Y-94797142D01*
X118268571Y-94740000D01*
X118297142Y-94682857D01*
X118325714Y-94654285D01*
X118382857Y-94625714D01*
X118497142Y-94597142D01*
X118554285Y-94568571D01*
X118582857Y-94540000D01*
X118611428Y-94482857D01*
X118611428Y-94425714D01*
X118582857Y-94368571D01*
X118554285Y-94340000D01*
X118497142Y-94311428D01*
X118354285Y-94311428D01*
X118268571Y-94340000D01*
X117668571Y-94854285D02*
X117697142Y-94882857D01*
X117782857Y-94911428D01*
X117840000Y-94911428D01*
X117925714Y-94882857D01*
X117982857Y-94825714D01*
X118011428Y-94768571D01*
X118040000Y-94654285D01*
X118040000Y-94568571D01*
X118011428Y-94454285D01*
X117982857Y-94397142D01*
X117925714Y-94340000D01*
X117840000Y-94311428D01*
X117782857Y-94311428D01*
X117697142Y-94340000D01*
X117668571Y-94368571D01*
X117411428Y-94911428D02*
X117411428Y-94311428D01*
X117068571Y-94911428D02*
X117325714Y-94568571D01*
X117068571Y-94311428D02*
X117411428Y-94654285D01*
X118582857Y-84141428D02*
X118211428Y-84141428D01*
X118411428Y-84370000D01*
X118325714Y-84370000D01*
X118268571Y-84398571D01*
X118240000Y-84427142D01*
X118211428Y-84484285D01*
X118211428Y-84627142D01*
X118240000Y-84684285D01*
X118268571Y-84712857D01*
X118325714Y-84741428D01*
X118497142Y-84741428D01*
X118554285Y-84712857D01*
X118582857Y-84684285D01*
X118040000Y-84141428D02*
X117840000Y-84741428D01*
X117640000Y-84141428D01*
X117497142Y-84141428D02*
X117125714Y-84141428D01*
X117325714Y-84370000D01*
X117240000Y-84370000D01*
X117182857Y-84398571D01*
X117154285Y-84427142D01*
X117125714Y-84484285D01*
X117125714Y-84627142D01*
X117154285Y-84684285D01*
X117182857Y-84712857D01*
X117240000Y-84741428D01*
X117411428Y-84741428D01*
X117468571Y-84712857D01*
X117497142Y-84684285D01*
X125054285Y-92258809D02*
X125054285Y-91708809D01*
X124870952Y-92101666D01*
X124687619Y-91708809D01*
X124687619Y-92258809D01*
X124320952Y-91708809D02*
X124216190Y-91708809D01*
X124163809Y-91735000D01*
X124111428Y-91787380D01*
X124085238Y-91892142D01*
X124085238Y-92075476D01*
X124111428Y-92180238D01*
X124163809Y-92232619D01*
X124216190Y-92258809D01*
X124320952Y-92258809D01*
X124373333Y-92232619D01*
X124425714Y-92180238D01*
X124451904Y-92075476D01*
X124451904Y-91892142D01*
X124425714Y-91787380D01*
X124373333Y-91735000D01*
X124320952Y-91708809D01*
X123875714Y-92232619D02*
X123797142Y-92258809D01*
X123666190Y-92258809D01*
X123613809Y-92232619D01*
X123587619Y-92206428D01*
X123561428Y-92154047D01*
X123561428Y-92101666D01*
X123587619Y-92049285D01*
X123613809Y-92023095D01*
X123666190Y-91996904D01*
X123770952Y-91970714D01*
X123823333Y-91944523D01*
X123849523Y-91918333D01*
X123875714Y-91865952D01*
X123875714Y-91813571D01*
X123849523Y-91761190D01*
X123823333Y-91735000D01*
X123770952Y-91708809D01*
X123640000Y-91708809D01*
X123561428Y-91735000D01*
X123325714Y-92258809D02*
X123325714Y-91708809D01*
X124597142Y-99400000D02*
X124654285Y-99371428D01*
X124740000Y-99371428D01*
X124825714Y-99400000D01*
X124882857Y-99457142D01*
X124911428Y-99514285D01*
X124940000Y-99628571D01*
X124940000Y-99714285D01*
X124911428Y-99828571D01*
X124882857Y-99885714D01*
X124825714Y-99942857D01*
X124740000Y-99971428D01*
X124682857Y-99971428D01*
X124597142Y-99942857D01*
X124568571Y-99914285D01*
X124568571Y-99714285D01*
X124682857Y-99714285D01*
X124311428Y-99971428D02*
X124311428Y-99371428D01*
X123968571Y-99971428D01*
X123968571Y-99371428D01*
X123682857Y-99971428D02*
X123682857Y-99371428D01*
X123540000Y-99371428D01*
X123454285Y-99400000D01*
X123397142Y-99457142D01*
X123368571Y-99514285D01*
X123340000Y-99628571D01*
X123340000Y-99714285D01*
X123368571Y-99828571D01*
X123397142Y-99885714D01*
X123454285Y-99942857D01*
X123540000Y-99971428D01*
X123682857Y-99971428D01*
X154907142Y-87870000D02*
X154964285Y-87841428D01*
X155050000Y-87841428D01*
X155135714Y-87870000D01*
X155192857Y-87927142D01*
X155221428Y-87984285D01*
X155250000Y-88098571D01*
X155250000Y-88184285D01*
X155221428Y-88298571D01*
X155192857Y-88355714D01*
X155135714Y-88412857D01*
X155050000Y-88441428D01*
X154992857Y-88441428D01*
X154907142Y-88412857D01*
X154878571Y-88384285D01*
X154878571Y-88184285D01*
X154992857Y-88184285D01*
X154621428Y-88441428D02*
X154621428Y-87841428D01*
X154278571Y-88441428D01*
X154278571Y-87841428D01*
X153992857Y-88441428D02*
X153992857Y-87841428D01*
X153850000Y-87841428D01*
X153764285Y-87870000D01*
X153707142Y-87927142D01*
X153678571Y-87984285D01*
X153650000Y-88098571D01*
X153650000Y-88184285D01*
X153678571Y-88298571D01*
X153707142Y-88355714D01*
X153764285Y-88412857D01*
X153850000Y-88441428D01*
X153992857Y-88441428D01*
X169717142Y-94962857D02*
X169631428Y-94991428D01*
X169488571Y-94991428D01*
X169431428Y-94962857D01*
X169402857Y-94934285D01*
X169374285Y-94877142D01*
X169374285Y-94820000D01*
X169402857Y-94762857D01*
X169431428Y-94734285D01*
X169488571Y-94705714D01*
X169602857Y-94677142D01*
X169660000Y-94648571D01*
X169688571Y-94620000D01*
X169717142Y-94562857D01*
X169717142Y-94505714D01*
X169688571Y-94448571D01*
X169660000Y-94420000D01*
X169602857Y-94391428D01*
X169460000Y-94391428D01*
X169374285Y-94420000D01*
X169145714Y-94962857D02*
X169060000Y-94991428D01*
X168917142Y-94991428D01*
X168860000Y-94962857D01*
X168831428Y-94934285D01*
X168802857Y-94877142D01*
X168802857Y-94820000D01*
X168831428Y-94762857D01*
X168860000Y-94734285D01*
X168917142Y-94705714D01*
X169031428Y-94677142D01*
X169088571Y-94648571D01*
X169117142Y-94620000D01*
X169145714Y-94562857D01*
X169145714Y-94505714D01*
X169117142Y-94448571D01*
X169088571Y-94420000D01*
X169031428Y-94391428D01*
X168888571Y-94391428D01*
X168802857Y-94420000D01*
X153982857Y-118812857D02*
X153525714Y-118812857D01*
X153754285Y-119041428D02*
X153754285Y-118584285D01*
X153325714Y-118441428D02*
X153125714Y-119041428D01*
X152925714Y-118441428D01*
X152725714Y-118727142D02*
X152525714Y-118727142D01*
X152440000Y-119041428D02*
X152725714Y-119041428D01*
X152725714Y-118441428D01*
X152440000Y-118441428D01*
X152240000Y-118441428D02*
X151840000Y-119041428D01*
X151840000Y-118441428D02*
X152240000Y-119041428D01*
X158460000Y-118748571D02*
X158460000Y-118462857D01*
X158288571Y-118805714D02*
X158888571Y-118605714D01*
X158288571Y-118405714D01*
X158888571Y-118091428D02*
X158888571Y-118034285D01*
X158860000Y-117977142D01*
X158831428Y-117948571D01*
X158774285Y-117920000D01*
X158660000Y-117891428D01*
X158517142Y-117891428D01*
X158402857Y-117920000D01*
X158345714Y-117948571D01*
X158317142Y-117977142D01*
X158288571Y-118034285D01*
X158288571Y-118091428D01*
X158317142Y-118148571D01*
X158345714Y-118177142D01*
X158402857Y-118205714D01*
X158517142Y-118234285D01*
X158660000Y-118234285D01*
X158774285Y-118205714D01*
X158831428Y-118177142D01*
X158860000Y-118148571D01*
X158888571Y-118091428D01*
X124838571Y-89702857D02*
X124752857Y-89731428D01*
X124610000Y-89731428D01*
X124552857Y-89702857D01*
X124524285Y-89674285D01*
X124495714Y-89617142D01*
X124495714Y-89560000D01*
X124524285Y-89502857D01*
X124552857Y-89474285D01*
X124610000Y-89445714D01*
X124724285Y-89417142D01*
X124781428Y-89388571D01*
X124810000Y-89360000D01*
X124838571Y-89302857D01*
X124838571Y-89245714D01*
X124810000Y-89188571D01*
X124781428Y-89160000D01*
X124724285Y-89131428D01*
X124581428Y-89131428D01*
X124495714Y-89160000D01*
X124238571Y-89731428D02*
X124238571Y-89131428D01*
X124095714Y-89131428D01*
X124010000Y-89160000D01*
X123952857Y-89217142D01*
X123924285Y-89274285D01*
X123895714Y-89388571D01*
X123895714Y-89474285D01*
X123924285Y-89588571D01*
X123952857Y-89645714D01*
X124010000Y-89702857D01*
X124095714Y-89731428D01*
X124238571Y-89731428D01*
X123667142Y-89560000D02*
X123381428Y-89560000D01*
X123724285Y-89731428D02*
X123524285Y-89131428D01*
X123324285Y-89731428D01*
X164064285Y-89772857D02*
X163978571Y-89801428D01*
X163835714Y-89801428D01*
X163778571Y-89772857D01*
X163750000Y-89744285D01*
X163721428Y-89687142D01*
X163721428Y-89630000D01*
X163750000Y-89572857D01*
X163778571Y-89544285D01*
X163835714Y-89515714D01*
X163950000Y-89487142D01*
X164007142Y-89458571D01*
X164035714Y-89430000D01*
X164064285Y-89372857D01*
X164064285Y-89315714D01*
X164035714Y-89258571D01*
X164007142Y-89230000D01*
X163950000Y-89201428D01*
X163807142Y-89201428D01*
X163721428Y-89230000D01*
X163121428Y-89744285D02*
X163150000Y-89772857D01*
X163235714Y-89801428D01*
X163292857Y-89801428D01*
X163378571Y-89772857D01*
X163435714Y-89715714D01*
X163464285Y-89658571D01*
X163492857Y-89544285D01*
X163492857Y-89458571D01*
X163464285Y-89344285D01*
X163435714Y-89287142D01*
X163378571Y-89230000D01*
X163292857Y-89201428D01*
X163235714Y-89201428D01*
X163150000Y-89230000D01*
X163121428Y-89258571D01*
X162578571Y-89801428D02*
X162864285Y-89801428D01*
X162864285Y-89201428D01*
D12*
X157702380Y-72166666D02*
X155797619Y-72166666D01*
X158083333Y-73309523D02*
X156750000Y-69309523D01*
X155416666Y-73309523D01*
D14*
X145071428Y-94589285D02*
X144892857Y-95089285D01*
X144714285Y-94589285D01*
X144464285Y-94410714D02*
X144428571Y-94375000D01*
X144357142Y-94339285D01*
X144178571Y-94339285D01*
X144107142Y-94375000D01*
X144071428Y-94410714D01*
X144035714Y-94482142D01*
X144035714Y-94553571D01*
X144071428Y-94660714D01*
X144500000Y-95089285D01*
X144035714Y-95089285D01*
X143714285Y-95017857D02*
X143678571Y-95053571D01*
X143714285Y-95089285D01*
X143750000Y-95053571D01*
X143714285Y-95017857D01*
X143714285Y-95089285D01*
X142964285Y-95089285D02*
X143392857Y-95089285D01*
X143178571Y-95089285D02*
X143178571Y-94339285D01*
X143250000Y-94446428D01*
X143321428Y-94517857D01*
X143392857Y-94553571D01*
D11*
X136542857Y-68230000D02*
X136485714Y-68258571D01*
X136400000Y-68258571D01*
X136314285Y-68230000D01*
X136257142Y-68172857D01*
X136228571Y-68115714D01*
X136200000Y-68001428D01*
X136200000Y-67915714D01*
X136228571Y-67801428D01*
X136257142Y-67744285D01*
X136314285Y-67687142D01*
X136400000Y-67658571D01*
X136457142Y-67658571D01*
X136542857Y-67687142D01*
X136571428Y-67715714D01*
X136571428Y-67915714D01*
X136457142Y-67915714D01*
X136828571Y-67658571D02*
X136828571Y-68258571D01*
X137171428Y-67658571D01*
X137171428Y-68258571D01*
X137457142Y-67658571D02*
X137457142Y-68258571D01*
X137600000Y-68258571D01*
X137685714Y-68230000D01*
X137742857Y-68172857D01*
X137771428Y-68115714D01*
X137800000Y-68001428D01*
X137800000Y-67915714D01*
X137771428Y-67801428D01*
X137742857Y-67744285D01*
X137685714Y-67687142D01*
X137600000Y-67658571D01*
X137457142Y-67658571D01*
X138057142Y-67658571D02*
X138057142Y-68258571D01*
X138200000Y-68258571D01*
X138285714Y-68230000D01*
X138342857Y-68172857D01*
X138371428Y-68115714D01*
X138400000Y-68001428D01*
X138400000Y-67915714D01*
X138371428Y-67801428D01*
X138342857Y-67744285D01*
X138285714Y-67687142D01*
X138200000Y-67658571D01*
X138057142Y-67658571D01*
X133477142Y-67917142D02*
X133934285Y-67917142D01*
X133705714Y-67688571D02*
X133705714Y-68145714D01*
X134134285Y-68288571D02*
X134334285Y-67688571D01*
X134534285Y-68288571D01*
X134734285Y-68002857D02*
X134934285Y-68002857D01*
X135020000Y-67688571D02*
X134734285Y-67688571D01*
X134734285Y-68288571D01*
X135020000Y-68288571D01*
X135220000Y-68288571D02*
X135620000Y-67688571D01*
X135620000Y-68288571D02*
X135220000Y-67688571D01*
X164092857Y-84151428D02*
X163721428Y-84151428D01*
X163921428Y-84380000D01*
X163835714Y-84380000D01*
X163778571Y-84408571D01*
X163750000Y-84437142D01*
X163721428Y-84494285D01*
X163721428Y-84637142D01*
X163750000Y-84694285D01*
X163778571Y-84722857D01*
X163835714Y-84751428D01*
X164007142Y-84751428D01*
X164064285Y-84722857D01*
X164092857Y-84694285D01*
X163550000Y-84151428D02*
X163350000Y-84751428D01*
X163150000Y-84151428D01*
X163007142Y-84151428D02*
X162635714Y-84151428D01*
X162835714Y-84380000D01*
X162750000Y-84380000D01*
X162692857Y-84408571D01*
X162664285Y-84437142D01*
X162635714Y-84494285D01*
X162635714Y-84637142D01*
X162664285Y-84694285D01*
X162692857Y-84722857D01*
X162750000Y-84751428D01*
X162921428Y-84751428D01*
X162978571Y-84722857D01*
X163007142Y-84694285D01*
X158430000Y-116198571D02*
X158430000Y-115912857D01*
X158258571Y-116255714D02*
X158858571Y-116055714D01*
X158258571Y-115855714D01*
X158258571Y-115341428D02*
X158258571Y-115684285D01*
X158258571Y-115512857D02*
X158858571Y-115512857D01*
X158772857Y-115570000D01*
X158715714Y-115627142D01*
X158687142Y-115684285D01*
X144627142Y-87891428D02*
X144284285Y-87891428D01*
X144455714Y-88491428D02*
X144455714Y-87891428D01*
X144141428Y-87891428D02*
X143741428Y-88491428D01*
X143741428Y-87891428D02*
X144141428Y-88491428D01*
X170278571Y-89762857D02*
X170192857Y-89791428D01*
X170050000Y-89791428D01*
X169992857Y-89762857D01*
X169964285Y-89734285D01*
X169935714Y-89677142D01*
X169935714Y-89620000D01*
X169964285Y-89562857D01*
X169992857Y-89534285D01*
X170050000Y-89505714D01*
X170164285Y-89477142D01*
X170221428Y-89448571D01*
X170250000Y-89420000D01*
X170278571Y-89362857D01*
X170278571Y-89305714D01*
X170250000Y-89248571D01*
X170221428Y-89220000D01*
X170164285Y-89191428D01*
X170021428Y-89191428D01*
X169935714Y-89220000D01*
X169678571Y-89791428D02*
X169678571Y-89191428D01*
X169535714Y-89191428D01*
X169450000Y-89220000D01*
X169392857Y-89277142D01*
X169364285Y-89334285D01*
X169335714Y-89448571D01*
X169335714Y-89534285D01*
X169364285Y-89648571D01*
X169392857Y-89705714D01*
X169450000Y-89762857D01*
X169535714Y-89791428D01*
X169678571Y-89791428D01*
X169107142Y-89620000D02*
X168821428Y-89620000D01*
X169164285Y-89791428D02*
X168964285Y-89191428D01*
X168764285Y-89791428D01*
X170176190Y-97346428D02*
X170202380Y-97372619D01*
X170280952Y-97398809D01*
X170333333Y-97398809D01*
X170411904Y-97372619D01*
X170464285Y-97320238D01*
X170490476Y-97267857D01*
X170516666Y-97163095D01*
X170516666Y-97084523D01*
X170490476Y-96979761D01*
X170464285Y-96927380D01*
X170411904Y-96875000D01*
X170333333Y-96848809D01*
X170280952Y-96848809D01*
X170202380Y-96875000D01*
X170176190Y-96901190D01*
X169966666Y-97241666D02*
X169704761Y-97241666D01*
X170019047Y-97398809D02*
X169835714Y-96848809D01*
X169652380Y-97398809D01*
X169469047Y-97398809D02*
X169469047Y-96848809D01*
X169154761Y-97398809D01*
X169154761Y-96848809D01*
X168630952Y-97398809D02*
X168892857Y-97398809D01*
X168892857Y-96848809D01*
X170494285Y-92318809D02*
X170494285Y-91768809D01*
X170310952Y-92161666D01*
X170127619Y-91768809D01*
X170127619Y-92318809D01*
X169760952Y-91768809D02*
X169656190Y-91768809D01*
X169603809Y-91795000D01*
X169551428Y-91847380D01*
X169525238Y-91952142D01*
X169525238Y-92135476D01*
X169551428Y-92240238D01*
X169603809Y-92292619D01*
X169656190Y-92318809D01*
X169760952Y-92318809D01*
X169813333Y-92292619D01*
X169865714Y-92240238D01*
X169891904Y-92135476D01*
X169891904Y-91952142D01*
X169865714Y-91847380D01*
X169813333Y-91795000D01*
X169760952Y-91768809D01*
X169315714Y-92292619D02*
X169237142Y-92318809D01*
X169106190Y-92318809D01*
X169053809Y-92292619D01*
X169027619Y-92266428D01*
X169001428Y-92214047D01*
X169001428Y-92161666D01*
X169027619Y-92109285D01*
X169053809Y-92083095D01*
X169106190Y-92056904D01*
X169210952Y-92030714D01*
X169263333Y-92004523D01*
X169289523Y-91978333D01*
X169315714Y-91925952D01*
X169315714Y-91873571D01*
X169289523Y-91821190D01*
X169263333Y-91795000D01*
X169210952Y-91768809D01*
X169080000Y-91768809D01*
X169001428Y-91795000D01*
X168765714Y-92318809D02*
X168765714Y-91768809D01*
X164061428Y-99667142D02*
X163861428Y-99667142D01*
X163775714Y-99981428D02*
X164061428Y-99981428D01*
X164061428Y-99381428D01*
X163775714Y-99381428D01*
X163604285Y-99381428D02*
X163261428Y-99381428D01*
X163432857Y-99981428D02*
X163432857Y-99381428D01*
X163061428Y-99981428D02*
X163061428Y-99381428D01*
X163061428Y-99667142D02*
X162718571Y-99667142D01*
X162718571Y-99981428D02*
X162718571Y-99381428D01*
X124217142Y-94922857D02*
X124131428Y-94951428D01*
X123988571Y-94951428D01*
X123931428Y-94922857D01*
X123902857Y-94894285D01*
X123874285Y-94837142D01*
X123874285Y-94780000D01*
X123902857Y-94722857D01*
X123931428Y-94694285D01*
X123988571Y-94665714D01*
X124102857Y-94637142D01*
X124160000Y-94608571D01*
X124188571Y-94580000D01*
X124217142Y-94522857D01*
X124217142Y-94465714D01*
X124188571Y-94408571D01*
X124160000Y-94380000D01*
X124102857Y-94351428D01*
X123960000Y-94351428D01*
X123874285Y-94380000D01*
X123645714Y-94922857D02*
X123560000Y-94951428D01*
X123417142Y-94951428D01*
X123360000Y-94922857D01*
X123331428Y-94894285D01*
X123302857Y-94837142D01*
X123302857Y-94780000D01*
X123331428Y-94722857D01*
X123360000Y-94694285D01*
X123417142Y-94665714D01*
X123531428Y-94637142D01*
X123588571Y-94608571D01*
X123617142Y-94580000D01*
X123645714Y-94522857D01*
X123645714Y-94465714D01*
X123617142Y-94408571D01*
X123588571Y-94380000D01*
X123531428Y-94351428D01*
X123388571Y-94351428D01*
X123302857Y-94380000D01*
X164760000Y-111157142D02*
X164788571Y-111214285D01*
X164788571Y-111300000D01*
X164760000Y-111385714D01*
X164702857Y-111442857D01*
X164645714Y-111471428D01*
X164531428Y-111500000D01*
X164445714Y-111500000D01*
X164331428Y-111471428D01*
X164274285Y-111442857D01*
X164217142Y-111385714D01*
X164188571Y-111300000D01*
X164188571Y-111242857D01*
X164217142Y-111157142D01*
X164245714Y-111128571D01*
X164445714Y-111128571D01*
X164445714Y-111242857D01*
X164188571Y-110871428D02*
X164788571Y-110871428D01*
X164188571Y-110528571D01*
X164788571Y-110528571D01*
X164188571Y-110242857D02*
X164788571Y-110242857D01*
X164788571Y-110100000D01*
X164760000Y-110014285D01*
X164702857Y-109957142D01*
X164645714Y-109928571D01*
X164531428Y-109900000D01*
X164445714Y-109900000D01*
X164331428Y-109928571D01*
X164274285Y-109957142D01*
X164217142Y-110014285D01*
X164188571Y-110100000D01*
X164188571Y-110242857D01*
%TO.C,REF\u002A\u002A*%
G36*
X127612971Y-119337822D02*
G01*
X124092178Y-119337822D01*
X124092178Y-118470198D01*
X127612971Y-118470198D01*
X127612971Y-119337822D01*
G37*
D15*
X127612971Y-119337822D02*
X124092178Y-119337822D01*
X124092178Y-118470198D01*
X127612971Y-118470198D01*
X127612971Y-119337822D01*
G36*
X126851662Y-114080696D02*
G01*
X126891314Y-114081782D01*
X126959109Y-114081782D01*
X126959109Y-114194951D01*
X126799577Y-114194951D01*
X126784682Y-114372732D01*
X126782682Y-114397037D01*
X126778023Y-114457880D01*
X126774731Y-114507389D01*
X126773092Y-114540992D01*
X126773390Y-114554116D01*
X126777724Y-114550343D01*
X126797496Y-114530676D01*
X126831679Y-114495818D01*
X126878541Y-114447576D01*
X126936354Y-114387757D01*
X127003387Y-114318167D01*
X127077912Y-114240615D01*
X127158197Y-114156907D01*
X127242513Y-114068849D01*
X127329130Y-113978250D01*
X127416319Y-113886915D01*
X127502349Y-113796653D01*
X127585492Y-113709269D01*
X127664016Y-113626572D01*
X127736192Y-113550368D01*
X127800291Y-113482463D01*
X127854583Y-113424666D01*
X127951592Y-113321040D01*
X127952034Y-113409315D01*
X127952475Y-113497589D01*
X127351938Y-114129158D01*
X126751401Y-114760726D01*
X126739396Y-114904674D01*
X126691365Y-115480635D01*
X126682876Y-115582791D01*
X126672343Y-115710612D01*
X126662621Y-115829767D01*
X126653898Y-115937914D01*
X126646358Y-116032713D01*
X126640187Y-116111819D01*
X126635573Y-116172892D01*
X126632700Y-116213590D01*
X126631754Y-116231570D01*
X126634251Y-116239808D01*
X126645471Y-116257599D01*
X126666751Y-116284411D01*
X126677021Y-116296129D01*
X126699225Y-116321466D01*
X126744023Y-116369986D01*
X126802281Y-116431192D01*
X126875129Y-116506307D01*
X126963703Y-116596550D01*
X127069134Y-116703145D01*
X127138492Y-116773093D01*
X127235179Y-116870658D01*
X127331526Y-116967941D01*
X127424638Y-117062014D01*
X127511618Y-117149950D01*
X127589569Y-117228820D01*
X127655596Y-117295699D01*
X127706802Y-117347658D01*
X127907514Y-117551620D01*
X127871058Y-117589671D01*
X127862460Y-117598245D01*
X127837095Y-117619297D01*
X127819695Y-117627723D01*
X127806071Y-117620530D01*
X127780743Y-117598944D01*
X127750379Y-117567995D01*
X127731896Y-117548448D01*
X127697427Y-117512752D01*
X127648712Y-117462684D01*
X127587469Y-117400001D01*
X127515420Y-117326457D01*
X127434285Y-117243810D01*
X127345784Y-117153815D01*
X127251637Y-117058228D01*
X127153565Y-116958805D01*
X126611161Y-116409343D01*
X126589066Y-116694746D01*
X126584250Y-116755662D01*
X126577216Y-116837548D01*
X126570872Y-116899569D01*
X126564748Y-116944987D01*
X126558373Y-116977062D01*
X126551277Y-116999052D01*
X126542991Y-117014219D01*
X126531393Y-117035416D01*
X126521850Y-117074386D01*
X126519010Y-117130531D01*
X126519010Y-117212773D01*
X126292674Y-117212773D01*
X126292674Y-117036733D01*
X125447082Y-117036733D01*
X125398203Y-117092262D01*
X125384836Y-117106722D01*
X125312388Y-117164813D01*
X125230532Y-117200576D01*
X125141900Y-117212773D01*
X125063692Y-117206306D01*
X124975233Y-117179047D01*
X124899507Y-117130328D01*
X124884748Y-117116403D01*
X124847864Y-117071328D01*
X124815503Y-117018819D01*
X124792297Y-116967061D01*
X124782879Y-116924239D01*
X124782697Y-116918023D01*
X124781342Y-116895246D01*
X124777800Y-116879513D01*
X124770390Y-116872068D01*
X124757431Y-116874156D01*
X124737243Y-116887020D01*
X124708145Y-116911905D01*
X124668456Y-116950053D01*
X124616496Y-117002710D01*
X124550584Y-117071119D01*
X124469040Y-117156524D01*
X124425604Y-117202112D01*
X124353000Y-117278441D01*
X124284309Y-117350808D01*
X124222223Y-117416366D01*
X124169434Y-117472274D01*
X124128634Y-117515686D01*
X124102515Y-117543758D01*
X124031119Y-117621436D01*
X123942863Y-117533416D01*
X124488690Y-116961287D01*
X124523105Y-116925188D01*
X124645546Y-116796272D01*
X124750651Y-116684754D01*
X124838736Y-116590288D01*
X124910116Y-116512529D01*
X124960588Y-116456174D01*
X125167247Y-116456174D01*
X125168872Y-116469434D01*
X125169156Y-116470819D01*
X125182698Y-116502228D01*
X125209748Y-116516863D01*
X125293129Y-116548063D01*
X125367418Y-116600038D01*
X125425846Y-116668791D01*
X125465890Y-116751315D01*
X125485026Y-116844606D01*
X125491364Y-116923565D01*
X126440838Y-116923565D01*
X126447458Y-116895273D01*
X126448629Y-116888329D01*
X126452268Y-116857281D01*
X126457234Y-116807081D01*
X126463157Y-116741727D01*
X126469669Y-116665219D01*
X126476401Y-116581555D01*
X126498724Y-116296129D01*
X126197826Y-115990565D01*
X126142636Y-115934704D01*
X126075109Y-115866888D01*
X126014529Y-115806643D01*
X125963021Y-115756052D01*
X125922710Y-115717200D01*
X125895722Y-115692170D01*
X125884182Y-115683046D01*
X125876444Y-115687405D01*
X125853395Y-115707241D01*
X125818709Y-115740375D01*
X125775487Y-115783820D01*
X125726832Y-115834587D01*
X125714140Y-115848051D01*
X125657229Y-115908275D01*
X125589414Y-115979864D01*
X125515800Y-116057437D01*
X125441493Y-116135611D01*
X125371599Y-116209005D01*
X125367401Y-116213409D01*
X125302420Y-116281785D01*
X125252836Y-116334732D01*
X125216688Y-116374767D01*
X125192016Y-116404411D01*
X125176858Y-116426181D01*
X125169256Y-116442595D01*
X125167247Y-116456174D01*
X124960588Y-116456174D01*
X124965105Y-116451131D01*
X125004019Y-116405748D01*
X125027173Y-116376035D01*
X125034882Y-116361644D01*
X125034883Y-116361559D01*
X125033825Y-116343624D01*
X125030737Y-116303421D01*
X125025858Y-116243687D01*
X125019432Y-116167158D01*
X125011700Y-116076569D01*
X125002905Y-115974657D01*
X124993287Y-115864159D01*
X124983091Y-115747811D01*
X124972556Y-115628348D01*
X124961926Y-115508507D01*
X124951442Y-115391025D01*
X124941346Y-115278637D01*
X124931881Y-115174081D01*
X124923288Y-115080091D01*
X124915809Y-114999405D01*
X124909687Y-114934759D01*
X124905162Y-114888888D01*
X124902478Y-114864530D01*
X124897067Y-114823732D01*
X125026253Y-114823732D01*
X125027908Y-114854653D01*
X125031549Y-114906653D01*
X125036995Y-114977487D01*
X125044063Y-115064911D01*
X125052570Y-115166681D01*
X125062335Y-115280552D01*
X125073174Y-115404279D01*
X125084907Y-115535618D01*
X125094079Y-115636908D01*
X125105566Y-115762526D01*
X125116322Y-115878762D01*
X125126131Y-115983380D01*
X125134781Y-116074140D01*
X125142057Y-116148804D01*
X125147746Y-116205134D01*
X125151634Y-116240891D01*
X125153506Y-116253837D01*
X125159188Y-116249826D01*
X125180020Y-116230138D01*
X125213872Y-116196322D01*
X125258412Y-116150837D01*
X125311310Y-116096146D01*
X125370236Y-116034710D01*
X125432858Y-115968990D01*
X125496848Y-115901449D01*
X125559874Y-115834547D01*
X125619606Y-115770746D01*
X125673713Y-115712507D01*
X125719865Y-115662292D01*
X125755733Y-115622563D01*
X125778984Y-115595780D01*
X125785778Y-115586477D01*
X125967601Y-115586477D01*
X126243305Y-115861968D01*
X126310726Y-115929224D01*
X126374267Y-115992162D01*
X126423490Y-116040100D01*
X126460196Y-116074594D01*
X126486190Y-116097199D01*
X126503276Y-116109471D01*
X126513256Y-116112966D01*
X126517935Y-116109238D01*
X126519116Y-116099844D01*
X126519873Y-116084749D01*
X126522601Y-116045883D01*
X126527108Y-115986895D01*
X126533179Y-115910473D01*
X126540596Y-115819305D01*
X126549142Y-115716080D01*
X126558602Y-115603483D01*
X126568758Y-115484205D01*
X126577723Y-115379077D01*
X126587066Y-115268351D01*
X126595443Y-115167814D01*
X126602653Y-115079943D01*
X126608496Y-115007215D01*
X126612769Y-114952110D01*
X126615273Y-114917104D01*
X126615805Y-114904674D01*
X126615384Y-114904908D01*
X126603509Y-114916350D01*
X126577130Y-114943198D01*
X126538570Y-114983018D01*
X126490153Y-115033372D01*
X126434203Y-115091828D01*
X126373042Y-115155948D01*
X126308995Y-115223298D01*
X126244385Y-115291443D01*
X126181535Y-115357948D01*
X126122768Y-115420377D01*
X126070409Y-115476295D01*
X125969533Y-115584406D01*
X125967601Y-115586477D01*
X125785778Y-115586477D01*
X125787290Y-115584406D01*
X125779148Y-115573383D01*
X125755478Y-115546999D01*
X125718478Y-115507527D01*
X125670350Y-115457191D01*
X125613296Y-115398217D01*
X125549520Y-115332830D01*
X125481222Y-115263255D01*
X125410605Y-115191716D01*
X125339871Y-115120438D01*
X125271222Y-115051647D01*
X125206861Y-114987566D01*
X125148989Y-114930422D01*
X125099810Y-114882439D01*
X125061524Y-114845841D01*
X125036334Y-114822854D01*
X125026442Y-114815703D01*
X125026253Y-114823732D01*
X124897067Y-114823732D01*
X124895390Y-114811089D01*
X124620297Y-114811089D01*
X124620140Y-114710495D01*
X124720891Y-114710495D01*
X124802624Y-114710495D01*
X124809895Y-114710489D01*
X124850950Y-114709613D01*
X124873277Y-114705867D01*
X124882529Y-114697270D01*
X124884357Y-114681840D01*
X124876306Y-114659159D01*
X124848730Y-114621428D01*
X124802624Y-114572179D01*
X124720891Y-114491172D01*
X124720891Y-114710495D01*
X124620140Y-114710495D01*
X124619968Y-114600471D01*
X124619639Y-114389852D01*
X124167914Y-113930891D01*
X123716189Y-113471931D01*
X123715570Y-113384848D01*
X123714951Y-113297767D01*
X124256769Y-113846952D01*
X124309137Y-113899998D01*
X124417803Y-114009772D01*
X124510709Y-114103114D01*
X124589055Y-114181173D01*
X124654043Y-114245097D01*
X124706872Y-114296035D01*
X124748743Y-114335135D01*
X124780855Y-114363548D01*
X124804410Y-114382420D01*
X124820608Y-114392901D01*
X124830649Y-114396139D01*
X124847579Y-114395158D01*
X124857084Y-114387996D01*
X124858723Y-114368401D01*
X124854782Y-114330124D01*
X124852065Y-114306025D01*
X124848284Y-114265744D01*
X124846760Y-114238961D01*
X124846015Y-114229728D01*
X124838746Y-114219839D01*
X124818668Y-114216562D01*
X124779689Y-114217992D01*
X124769737Y-114218553D01*
X124729898Y-114217921D01*
X124701560Y-114209167D01*
X124681586Y-114194951D01*
X124964852Y-114194951D01*
X124969013Y-114242104D01*
X124970935Y-114263498D01*
X124976924Y-114321909D01*
X124982826Y-114360381D01*
X124989727Y-114382912D01*
X124998712Y-114393498D01*
X125010870Y-114396139D01*
X125021801Y-114397937D01*
X125029050Y-114406530D01*
X125033100Y-114426505D01*
X125034863Y-114462450D01*
X125035248Y-114518952D01*
X125035248Y-114641766D01*
X125075447Y-114681840D01*
X125173565Y-114779654D01*
X125311881Y-114917542D01*
X125311881Y-114811089D01*
X126066337Y-114811089D01*
X126066337Y-115050000D01*
X125447831Y-115050000D01*
X125657592Y-115266906D01*
X125697770Y-115308334D01*
X125753328Y-115365200D01*
X125801570Y-115414082D01*
X125839971Y-115452441D01*
X125866003Y-115477741D01*
X125877140Y-115487442D01*
X125881373Y-115484767D01*
X125901224Y-115466782D01*
X125935451Y-115433481D01*
X125982227Y-115386712D01*
X126039724Y-115328325D01*
X126106112Y-115260169D01*
X126179564Y-115184094D01*
X126258251Y-115101950D01*
X126337341Y-115018943D01*
X126414871Y-114937136D01*
X126477746Y-114870083D01*
X126527502Y-114816007D01*
X126565678Y-114773129D01*
X126593811Y-114739673D01*
X126613440Y-114713861D01*
X126626101Y-114693914D01*
X126633334Y-114678056D01*
X126636675Y-114664509D01*
X126637561Y-114657910D01*
X126641488Y-114621548D01*
X126646459Y-114568018D01*
X126651927Y-114503421D01*
X126657344Y-114433862D01*
X126659181Y-114409635D01*
X126664488Y-114344178D01*
X126669548Y-114287717D01*
X126673863Y-114245618D01*
X126676934Y-114223243D01*
X126682955Y-114194951D01*
X124964852Y-114194951D01*
X124681586Y-114194951D01*
X124673630Y-114189289D01*
X124668820Y-114185104D01*
X124629482Y-114134427D01*
X124613903Y-114081782D01*
X124954698Y-114081782D01*
X126369221Y-114081782D01*
X126581881Y-114081782D01*
X126638908Y-114081782D01*
X126655993Y-114081662D01*
X126681308Y-114079462D01*
X126688616Y-114072334D01*
X126682943Y-114057508D01*
X126681267Y-114054682D01*
X126662448Y-114032944D01*
X126635183Y-114008820D01*
X126607987Y-113989254D01*
X126589371Y-113981188D01*
X126587697Y-113982463D01*
X126583544Y-113999976D01*
X126581881Y-114031485D01*
X126581881Y-114081782D01*
X126369221Y-114081782D01*
X126365526Y-113991095D01*
X126361832Y-113900407D01*
X126286386Y-113885252D01*
X126248551Y-113878379D01*
X126185368Y-113868756D01*
X126126065Y-113861496D01*
X126041188Y-113852893D01*
X126041188Y-113956040D01*
X125462773Y-113956040D01*
X125462773Y-113865122D01*
X125390471Y-113873753D01*
X125279998Y-113892249D01*
X125168816Y-113925691D01*
X125076850Y-113972324D01*
X125002542Y-114032786D01*
X124954698Y-114081782D01*
X124613903Y-114081782D01*
X124612172Y-114075934D01*
X124617474Y-114014575D01*
X124645975Y-113955297D01*
X124648733Y-113951606D01*
X124686822Y-113919851D01*
X124736476Y-113901067D01*
X124790002Y-113896071D01*
X124839707Y-113905678D01*
X124877900Y-113930704D01*
X124890831Y-113943480D01*
X124903428Y-113946576D01*
X124921467Y-113936998D01*
X124951928Y-113913082D01*
X124961274Y-113905731D01*
X125033430Y-113859339D01*
X125118915Y-113818084D01*
X125188830Y-113792575D01*
X125563367Y-113792575D01*
X125563367Y-113855446D01*
X125940594Y-113855446D01*
X125940594Y-113792575D01*
X125563367Y-113792575D01*
X125188830Y-113792575D01*
X125209767Y-113784936D01*
X125298027Y-113762868D01*
X125375736Y-113754852D01*
X125383991Y-113754788D01*
X125429879Y-113750321D01*
X125455079Y-113737795D01*
X125462773Y-113715784D01*
X125463676Y-113708849D01*
X125468615Y-113702885D01*
X125480611Y-113698519D01*
X125502680Y-113695503D01*
X125537836Y-113693590D01*
X125589094Y-113692530D01*
X125659471Y-113692077D01*
X125751980Y-113691980D01*
X125838660Y-113692150D01*
X125912332Y-113692834D01*
X125966265Y-113694215D01*
X126003288Y-113696470D01*
X126026230Y-113699778D01*
X126037920Y-113704320D01*
X126041188Y-113710272D01*
X126051937Y-113724888D01*
X126082055Y-113734215D01*
X126093582Y-113735847D01*
X126132886Y-113741591D01*
X126185188Y-113749378D01*
X126242376Y-113758003D01*
X126273916Y-113762393D01*
X126320074Y-113767148D01*
X126352641Y-113768295D01*
X126366023Y-113765495D01*
X126368308Y-113763671D01*
X126389405Y-113759165D01*
X126427355Y-113756029D01*
X126476048Y-113754852D01*
X126581881Y-113754852D01*
X126581894Y-113792575D01*
X126581894Y-113795718D01*
X126582388Y-113808668D01*
X126588819Y-113830411D01*
X126607123Y-113848851D01*
X126642830Y-113870801D01*
X126674174Y-113890854D01*
X126721893Y-113929356D01*
X126765138Y-113972579D01*
X126798219Y-114014627D01*
X126815442Y-114049604D01*
X126819662Y-114063081D01*
X126827480Y-114072334D01*
X126830116Y-114075454D01*
X126851662Y-114080696D01*
G37*
X126851662Y-114080696D02*
X126891314Y-114081782D01*
X126959109Y-114081782D01*
X126959109Y-114194951D01*
X126799577Y-114194951D01*
X126784682Y-114372732D01*
X126782682Y-114397037D01*
X126778023Y-114457880D01*
X126774731Y-114507389D01*
X126773092Y-114540992D01*
X126773390Y-114554116D01*
X126777724Y-114550343D01*
X126797496Y-114530676D01*
X126831679Y-114495818D01*
X126878541Y-114447576D01*
X126936354Y-114387757D01*
X127003387Y-114318167D01*
X127077912Y-114240615D01*
X127158197Y-114156907D01*
X127242513Y-114068849D01*
X127329130Y-113978250D01*
X127416319Y-113886915D01*
X127502349Y-113796653D01*
X127585492Y-113709269D01*
X127664016Y-113626572D01*
X127736192Y-113550368D01*
X127800291Y-113482463D01*
X127854583Y-113424666D01*
X127951592Y-113321040D01*
X127952034Y-113409315D01*
X127952475Y-113497589D01*
X127351938Y-114129158D01*
X126751401Y-114760726D01*
X126739396Y-114904674D01*
X126691365Y-115480635D01*
X126682876Y-115582791D01*
X126672343Y-115710612D01*
X126662621Y-115829767D01*
X126653898Y-115937914D01*
X126646358Y-116032713D01*
X126640187Y-116111819D01*
X126635573Y-116172892D01*
X126632700Y-116213590D01*
X126631754Y-116231570D01*
X126634251Y-116239808D01*
X126645471Y-116257599D01*
X126666751Y-116284411D01*
X126677021Y-116296129D01*
X126699225Y-116321466D01*
X126744023Y-116369986D01*
X126802281Y-116431192D01*
X126875129Y-116506307D01*
X126963703Y-116596550D01*
X127069134Y-116703145D01*
X127138492Y-116773093D01*
X127235179Y-116870658D01*
X127331526Y-116967941D01*
X127424638Y-117062014D01*
X127511618Y-117149950D01*
X127589569Y-117228820D01*
X127655596Y-117295699D01*
X127706802Y-117347658D01*
X127907514Y-117551620D01*
X127871058Y-117589671D01*
X127862460Y-117598245D01*
X127837095Y-117619297D01*
X127819695Y-117627723D01*
X127806071Y-117620530D01*
X127780743Y-117598944D01*
X127750379Y-117567995D01*
X127731896Y-117548448D01*
X127697427Y-117512752D01*
X127648712Y-117462684D01*
X127587469Y-117400001D01*
X127515420Y-117326457D01*
X127434285Y-117243810D01*
X127345784Y-117153815D01*
X127251637Y-117058228D01*
X127153565Y-116958805D01*
X126611161Y-116409343D01*
X126589066Y-116694746D01*
X126584250Y-116755662D01*
X126577216Y-116837548D01*
X126570872Y-116899569D01*
X126564748Y-116944987D01*
X126558373Y-116977062D01*
X126551277Y-116999052D01*
X126542991Y-117014219D01*
X126531393Y-117035416D01*
X126521850Y-117074386D01*
X126519010Y-117130531D01*
X126519010Y-117212773D01*
X126292674Y-117212773D01*
X126292674Y-117036733D01*
X125447082Y-117036733D01*
X125398203Y-117092262D01*
X125384836Y-117106722D01*
X125312388Y-117164813D01*
X125230532Y-117200576D01*
X125141900Y-117212773D01*
X125063692Y-117206306D01*
X124975233Y-117179047D01*
X124899507Y-117130328D01*
X124884748Y-117116403D01*
X124847864Y-117071328D01*
X124815503Y-117018819D01*
X124792297Y-116967061D01*
X124782879Y-116924239D01*
X124782697Y-116918023D01*
X124781342Y-116895246D01*
X124777800Y-116879513D01*
X124770390Y-116872068D01*
X124757431Y-116874156D01*
X124737243Y-116887020D01*
X124708145Y-116911905D01*
X124668456Y-116950053D01*
X124616496Y-117002710D01*
X124550584Y-117071119D01*
X124469040Y-117156524D01*
X124425604Y-117202112D01*
X124353000Y-117278441D01*
X124284309Y-117350808D01*
X124222223Y-117416366D01*
X124169434Y-117472274D01*
X124128634Y-117515686D01*
X124102515Y-117543758D01*
X124031119Y-117621436D01*
X123942863Y-117533416D01*
X124488690Y-116961287D01*
X124523105Y-116925188D01*
X124645546Y-116796272D01*
X124750651Y-116684754D01*
X124838736Y-116590288D01*
X124910116Y-116512529D01*
X124960588Y-116456174D01*
X125167247Y-116456174D01*
X125168872Y-116469434D01*
X125169156Y-116470819D01*
X125182698Y-116502228D01*
X125209748Y-116516863D01*
X125293129Y-116548063D01*
X125367418Y-116600038D01*
X125425846Y-116668791D01*
X125465890Y-116751315D01*
X125485026Y-116844606D01*
X125491364Y-116923565D01*
X126440838Y-116923565D01*
X126447458Y-116895273D01*
X126448629Y-116888329D01*
X126452268Y-116857281D01*
X126457234Y-116807081D01*
X126463157Y-116741727D01*
X126469669Y-116665219D01*
X126476401Y-116581555D01*
X126498724Y-116296129D01*
X126197826Y-115990565D01*
X126142636Y-115934704D01*
X126075109Y-115866888D01*
X126014529Y-115806643D01*
X125963021Y-115756052D01*
X125922710Y-115717200D01*
X125895722Y-115692170D01*
X125884182Y-115683046D01*
X125876444Y-115687405D01*
X125853395Y-115707241D01*
X125818709Y-115740375D01*
X125775487Y-115783820D01*
X125726832Y-115834587D01*
X125714140Y-115848051D01*
X125657229Y-115908275D01*
X125589414Y-115979864D01*
X125515800Y-116057437D01*
X125441493Y-116135611D01*
X125371599Y-116209005D01*
X125367401Y-116213409D01*
X125302420Y-116281785D01*
X125252836Y-116334732D01*
X125216688Y-116374767D01*
X125192016Y-116404411D01*
X125176858Y-116426181D01*
X125169256Y-116442595D01*
X125167247Y-116456174D01*
X124960588Y-116456174D01*
X124965105Y-116451131D01*
X125004019Y-116405748D01*
X125027173Y-116376035D01*
X125034882Y-116361644D01*
X125034883Y-116361559D01*
X125033825Y-116343624D01*
X125030737Y-116303421D01*
X125025858Y-116243687D01*
X125019432Y-116167158D01*
X125011700Y-116076569D01*
X125002905Y-115974657D01*
X124993287Y-115864159D01*
X124983091Y-115747811D01*
X124972556Y-115628348D01*
X124961926Y-115508507D01*
X124951442Y-115391025D01*
X124941346Y-115278637D01*
X124931881Y-115174081D01*
X124923288Y-115080091D01*
X124915809Y-114999405D01*
X124909687Y-114934759D01*
X124905162Y-114888888D01*
X124902478Y-114864530D01*
X124897067Y-114823732D01*
X125026253Y-114823732D01*
X125027908Y-114854653D01*
X125031549Y-114906653D01*
X125036995Y-114977487D01*
X125044063Y-115064911D01*
X125052570Y-115166681D01*
X125062335Y-115280552D01*
X125073174Y-115404279D01*
X125084907Y-115535618D01*
X125094079Y-115636908D01*
X125105566Y-115762526D01*
X125116322Y-115878762D01*
X125126131Y-115983380D01*
X125134781Y-116074140D01*
X125142057Y-116148804D01*
X125147746Y-116205134D01*
X125151634Y-116240891D01*
X125153506Y-116253837D01*
X125159188Y-116249826D01*
X125180020Y-116230138D01*
X125213872Y-116196322D01*
X125258412Y-116150837D01*
X125311310Y-116096146D01*
X125370236Y-116034710D01*
X125432858Y-115968990D01*
X125496848Y-115901449D01*
X125559874Y-115834547D01*
X125619606Y-115770746D01*
X125673713Y-115712507D01*
X125719865Y-115662292D01*
X125755733Y-115622563D01*
X125778984Y-115595780D01*
X125785778Y-115586477D01*
X125967601Y-115586477D01*
X126243305Y-115861968D01*
X126310726Y-115929224D01*
X126374267Y-115992162D01*
X126423490Y-116040100D01*
X126460196Y-116074594D01*
X126486190Y-116097199D01*
X126503276Y-116109471D01*
X126513256Y-116112966D01*
X126517935Y-116109238D01*
X126519116Y-116099844D01*
X126519873Y-116084749D01*
X126522601Y-116045883D01*
X126527108Y-115986895D01*
X126533179Y-115910473D01*
X126540596Y-115819305D01*
X126549142Y-115716080D01*
X126558602Y-115603483D01*
X126568758Y-115484205D01*
X126577723Y-115379077D01*
X126587066Y-115268351D01*
X126595443Y-115167814D01*
X126602653Y-115079943D01*
X126608496Y-115007215D01*
X126612769Y-114952110D01*
X126615273Y-114917104D01*
X126615805Y-114904674D01*
X126615384Y-114904908D01*
X126603509Y-114916350D01*
X126577130Y-114943198D01*
X126538570Y-114983018D01*
X126490153Y-115033372D01*
X126434203Y-115091828D01*
X126373042Y-115155948D01*
X126308995Y-115223298D01*
X126244385Y-115291443D01*
X126181535Y-115357948D01*
X126122768Y-115420377D01*
X126070409Y-115476295D01*
X125969533Y-115584406D01*
X125967601Y-115586477D01*
X125785778Y-115586477D01*
X125787290Y-115584406D01*
X125779148Y-115573383D01*
X125755478Y-115546999D01*
X125718478Y-115507527D01*
X125670350Y-115457191D01*
X125613296Y-115398217D01*
X125549520Y-115332830D01*
X125481222Y-115263255D01*
X125410605Y-115191716D01*
X125339871Y-115120438D01*
X125271222Y-115051647D01*
X125206861Y-114987566D01*
X125148989Y-114930422D01*
X125099810Y-114882439D01*
X125061524Y-114845841D01*
X125036334Y-114822854D01*
X125026442Y-114815703D01*
X125026253Y-114823732D01*
X124897067Y-114823732D01*
X124895390Y-114811089D01*
X124620297Y-114811089D01*
X124620140Y-114710495D01*
X124720891Y-114710495D01*
X124802624Y-114710495D01*
X124809895Y-114710489D01*
X124850950Y-114709613D01*
X124873277Y-114705867D01*
X124882529Y-114697270D01*
X124884357Y-114681840D01*
X124876306Y-114659159D01*
X124848730Y-114621428D01*
X124802624Y-114572179D01*
X124720891Y-114491172D01*
X124720891Y-114710495D01*
X124620140Y-114710495D01*
X124619968Y-114600471D01*
X124619639Y-114389852D01*
X124167914Y-113930891D01*
X123716189Y-113471931D01*
X123715570Y-113384848D01*
X123714951Y-113297767D01*
X124256769Y-113846952D01*
X124309137Y-113899998D01*
X124417803Y-114009772D01*
X124510709Y-114103114D01*
X124589055Y-114181173D01*
X124654043Y-114245097D01*
X124706872Y-114296035D01*
X124748743Y-114335135D01*
X124780855Y-114363548D01*
X124804410Y-114382420D01*
X124820608Y-114392901D01*
X124830649Y-114396139D01*
X124847579Y-114395158D01*
X124857084Y-114387996D01*
X124858723Y-114368401D01*
X124854782Y-114330124D01*
X124852065Y-114306025D01*
X124848284Y-114265744D01*
X124846760Y-114238961D01*
X124846015Y-114229728D01*
X124838746Y-114219839D01*
X124818668Y-114216562D01*
X124779689Y-114217992D01*
X124769737Y-114218553D01*
X124729898Y-114217921D01*
X124701560Y-114209167D01*
X124681586Y-114194951D01*
X124964852Y-114194951D01*
X124969013Y-114242104D01*
X124970935Y-114263498D01*
X124976924Y-114321909D01*
X124982826Y-114360381D01*
X124989727Y-114382912D01*
X124998712Y-114393498D01*
X125010870Y-114396139D01*
X125021801Y-114397937D01*
X125029050Y-114406530D01*
X125033100Y-114426505D01*
X125034863Y-114462450D01*
X125035248Y-114518952D01*
X125035248Y-114641766D01*
X125075447Y-114681840D01*
X125173565Y-114779654D01*
X125311881Y-114917542D01*
X125311881Y-114811089D01*
X126066337Y-114811089D01*
X126066337Y-115050000D01*
X125447831Y-115050000D01*
X125657592Y-115266906D01*
X125697770Y-115308334D01*
X125753328Y-115365200D01*
X125801570Y-115414082D01*
X125839971Y-115452441D01*
X125866003Y-115477741D01*
X125877140Y-115487442D01*
X125881373Y-115484767D01*
X125901224Y-115466782D01*
X125935451Y-115433481D01*
X125982227Y-115386712D01*
X126039724Y-115328325D01*
X126106112Y-115260169D01*
X126179564Y-115184094D01*
X126258251Y-115101950D01*
X126337341Y-115018943D01*
X126414871Y-114937136D01*
X126477746Y-114870083D01*
X126527502Y-114816007D01*
X126565678Y-114773129D01*
X126593811Y-114739673D01*
X126613440Y-114713861D01*
X126626101Y-114693914D01*
X126633334Y-114678056D01*
X126636675Y-114664509D01*
X126637561Y-114657910D01*
X126641488Y-114621548D01*
X126646459Y-114568018D01*
X126651927Y-114503421D01*
X126657344Y-114433862D01*
X126659181Y-114409635D01*
X126664488Y-114344178D01*
X126669548Y-114287717D01*
X126673863Y-114245618D01*
X126676934Y-114223243D01*
X126682955Y-114194951D01*
X124964852Y-114194951D01*
X124681586Y-114194951D01*
X124673630Y-114189289D01*
X124668820Y-114185104D01*
X124629482Y-114134427D01*
X124613903Y-114081782D01*
X124954698Y-114081782D01*
X126369221Y-114081782D01*
X126581881Y-114081782D01*
X126638908Y-114081782D01*
X126655993Y-114081662D01*
X126681308Y-114079462D01*
X126688616Y-114072334D01*
X126682943Y-114057508D01*
X126681267Y-114054682D01*
X126662448Y-114032944D01*
X126635183Y-114008820D01*
X126607987Y-113989254D01*
X126589371Y-113981188D01*
X126587697Y-113982463D01*
X126583544Y-113999976D01*
X126581881Y-114031485D01*
X126581881Y-114081782D01*
X126369221Y-114081782D01*
X126365526Y-113991095D01*
X126361832Y-113900407D01*
X126286386Y-113885252D01*
X126248551Y-113878379D01*
X126185368Y-113868756D01*
X126126065Y-113861496D01*
X126041188Y-113852893D01*
X126041188Y-113956040D01*
X125462773Y-113956040D01*
X125462773Y-113865122D01*
X125390471Y-113873753D01*
X125279998Y-113892249D01*
X125168816Y-113925691D01*
X125076850Y-113972324D01*
X125002542Y-114032786D01*
X124954698Y-114081782D01*
X124613903Y-114081782D01*
X124612172Y-114075934D01*
X124617474Y-114014575D01*
X124645975Y-113955297D01*
X124648733Y-113951606D01*
X124686822Y-113919851D01*
X124736476Y-113901067D01*
X124790002Y-113896071D01*
X124839707Y-113905678D01*
X124877900Y-113930704D01*
X124890831Y-113943480D01*
X124903428Y-113946576D01*
X124921467Y-113936998D01*
X124951928Y-113913082D01*
X124961274Y-113905731D01*
X125033430Y-113859339D01*
X125118915Y-113818084D01*
X125188830Y-113792575D01*
X125563367Y-113792575D01*
X125563367Y-113855446D01*
X125940594Y-113855446D01*
X125940594Y-113792575D01*
X125563367Y-113792575D01*
X125188830Y-113792575D01*
X125209767Y-113784936D01*
X125298027Y-113762868D01*
X125375736Y-113754852D01*
X125383991Y-113754788D01*
X125429879Y-113750321D01*
X125455079Y-113737795D01*
X125462773Y-113715784D01*
X125463676Y-113708849D01*
X125468615Y-113702885D01*
X125480611Y-113698519D01*
X125502680Y-113695503D01*
X125537836Y-113693590D01*
X125589094Y-113692530D01*
X125659471Y-113692077D01*
X125751980Y-113691980D01*
X125838660Y-113692150D01*
X125912332Y-113692834D01*
X125966265Y-113694215D01*
X126003288Y-113696470D01*
X126026230Y-113699778D01*
X126037920Y-113704320D01*
X126041188Y-113710272D01*
X126051937Y-113724888D01*
X126082055Y-113734215D01*
X126093582Y-113735847D01*
X126132886Y-113741591D01*
X126185188Y-113749378D01*
X126242376Y-113758003D01*
X126273916Y-113762393D01*
X126320074Y-113767148D01*
X126352641Y-113768295D01*
X126366023Y-113765495D01*
X126368308Y-113763671D01*
X126389405Y-113759165D01*
X126427355Y-113756029D01*
X126476048Y-113754852D01*
X126581881Y-113754852D01*
X126581894Y-113792575D01*
X126581894Y-113795718D01*
X126582388Y-113808668D01*
X126588819Y-113830411D01*
X126607123Y-113848851D01*
X126642830Y-113870801D01*
X126674174Y-113890854D01*
X126721893Y-113929356D01*
X126765138Y-113972579D01*
X126798219Y-114014627D01*
X126815442Y-114049604D01*
X126819662Y-114063081D01*
X126827480Y-114072334D01*
X126830116Y-114075454D01*
X126851662Y-114080696D01*
G36*
X144347275Y-98578931D02*
G01*
X144431095Y-99023555D01*
X145049667Y-99278551D01*
X145420707Y-99026246D01*
X145494144Y-98976506D01*
X145591499Y-98911218D01*
X145675787Y-98855454D01*
X145742631Y-98812078D01*
X145787654Y-98783953D01*
X145806478Y-98773942D01*
X145818039Y-98781061D01*
X145852596Y-98810894D01*
X145904894Y-98859852D01*
X145970500Y-98923440D01*
X146044983Y-98997163D01*
X146123913Y-99076525D01*
X146202856Y-99157031D01*
X146277384Y-99234185D01*
X146343063Y-99303493D01*
X146395463Y-99360457D01*
X146430153Y-99400584D01*
X146442701Y-99419377D01*
X146439782Y-99427451D01*
X146419571Y-99463469D01*
X146382663Y-99522744D01*
X146332050Y-99600630D01*
X146270725Y-99692481D01*
X146201679Y-99793650D01*
X146163787Y-99848826D01*
X146098606Y-99944884D01*
X146042723Y-100028717D01*
X145999117Y-100095777D01*
X145970769Y-100141519D01*
X145960657Y-100161396D01*
X145960823Y-100162497D01*
X145969743Y-100187694D01*
X145990206Y-100239147D01*
X146019360Y-100310135D01*
X146054353Y-100393935D01*
X146092332Y-100483828D01*
X146130445Y-100573091D01*
X146165839Y-100655003D01*
X146195662Y-100722843D01*
X146217061Y-100769890D01*
X146227184Y-100789422D01*
X146233174Y-100791155D01*
X146269566Y-100798969D01*
X146334427Y-100811915D01*
X146422565Y-100828979D01*
X146528787Y-100849151D01*
X146647902Y-100871418D01*
X146710683Y-100883223D01*
X146825912Y-100905748D01*
X146926662Y-100926550D01*
X147007426Y-100944435D01*
X147062698Y-100958208D01*
X147086971Y-100966674D01*
X147091331Y-100975066D01*
X147098563Y-101016072D01*
X147104246Y-101084368D01*
X147108382Y-101173529D01*
X147110977Y-101277128D01*
X147112036Y-101388740D01*
X147111561Y-101501938D01*
X147109559Y-101610296D01*
X147106033Y-101707389D01*
X147100987Y-101786790D01*
X147094427Y-101842072D01*
X147086356Y-101866810D01*
X147081458Y-101869600D01*
X147044930Y-101881569D01*
X146981565Y-101897405D01*
X146898686Y-101915374D01*
X146803618Y-101933741D01*
X146771542Y-101939591D01*
X146623393Y-101966798D01*
X146506961Y-101988663D01*
X146418209Y-102006093D01*
X146353103Y-102019996D01*
X146307606Y-102031277D01*
X146277682Y-102040843D01*
X146259294Y-102049601D01*
X146248407Y-102058457D01*
X146247142Y-102059943D01*
X146229338Y-102090931D01*
X146202994Y-102147634D01*
X146170661Y-102223399D01*
X146134893Y-102311574D01*
X146098244Y-102405507D01*
X146063266Y-102498547D01*
X146032513Y-102584041D01*
X146008538Y-102655336D01*
X145993895Y-102705782D01*
X145991136Y-102728726D01*
X145992981Y-102731703D01*
X146012075Y-102760493D01*
X146047984Y-102813595D01*
X146097378Y-102886117D01*
X146156927Y-102973167D01*
X146223303Y-103069854D01*
X146241520Y-103096456D01*
X146305577Y-103191875D01*
X146360937Y-103277212D01*
X146404439Y-103347405D01*
X146432924Y-103397394D01*
X146443232Y-103422116D01*
X146441011Y-103428616D01*
X146417858Y-103460644D01*
X146372177Y-103512945D01*
X146307241Y-103581999D01*
X146226319Y-103664286D01*
X146132685Y-103756286D01*
X146079165Y-103807781D01*
X145994542Y-103887983D01*
X145920475Y-103956678D01*
X145860941Y-104010252D01*
X145819917Y-104045085D01*
X145801381Y-104057563D01*
X145788646Y-104052938D01*
X145749436Y-104031057D01*
X145692495Y-103995273D01*
X145625250Y-103950117D01*
X145577438Y-103917165D01*
X145481985Y-103851727D01*
X145380125Y-103782228D01*
X145287088Y-103719075D01*
X145104832Y-103595800D01*
X144951841Y-103678520D01*
X144915817Y-103697613D01*
X144850303Y-103730272D01*
X144799640Y-103752819D01*
X144772564Y-103761226D01*
X144763703Y-103750430D01*
X144741699Y-103709323D01*
X144709199Y-103641549D01*
X144668010Y-103551409D01*
X144619942Y-103443205D01*
X144566802Y-103321237D01*
X144510399Y-103189808D01*
X144452542Y-103053218D01*
X144395038Y-102915767D01*
X144339697Y-102781758D01*
X144288326Y-102655491D01*
X144242735Y-102541268D01*
X144204732Y-102443390D01*
X144176124Y-102366157D01*
X144158721Y-102313871D01*
X144154331Y-102290833D01*
X144154628Y-102290160D01*
X144175077Y-102268863D01*
X144217850Y-102235508D01*
X144274117Y-102197011D01*
X144291877Y-102185256D01*
X144427014Y-102073735D01*
X144538856Y-101940906D01*
X144624755Y-101792298D01*
X144682062Y-101633440D01*
X144708131Y-101469860D01*
X144700313Y-101307088D01*
X144668644Y-101162315D01*
X144611782Y-101016124D01*
X144528888Y-100885703D01*
X144415131Y-100761813D01*
X144370433Y-100722235D01*
X144225935Y-100624723D01*
X144069838Y-100559050D01*
X143906667Y-100524630D01*
X143740943Y-100520874D01*
X143577192Y-100547194D01*
X143419936Y-100603003D01*
X143273698Y-100687714D01*
X143143004Y-100800737D01*
X143032374Y-100941487D01*
X143011105Y-100976342D01*
X142938810Y-101135655D01*
X142900415Y-101301552D01*
X142894914Y-101469737D01*
X142921301Y-101635913D01*
X142978570Y-101795784D01*
X143065717Y-101945053D01*
X143181736Y-102079423D01*
X143325622Y-102194599D01*
X143330294Y-102197702D01*
X143385964Y-102236933D01*
X143427689Y-102270286D01*
X143446746Y-102290833D01*
X143444342Y-102306941D01*
X143429391Y-102353844D01*
X143402881Y-102426539D01*
X143366620Y-102520725D01*
X143322416Y-102632098D01*
X143272076Y-102756358D01*
X143217407Y-102889202D01*
X143160218Y-103026327D01*
X143102316Y-103163432D01*
X143045510Y-103296215D01*
X142991606Y-103420374D01*
X142942412Y-103531606D01*
X142899737Y-103625609D01*
X142865387Y-103698082D01*
X142841171Y-103744722D01*
X142828897Y-103761226D01*
X142818689Y-103758991D01*
X142778586Y-103742926D01*
X142719318Y-103714759D01*
X142649619Y-103678520D01*
X142496629Y-103595800D01*
X142314373Y-103719075D01*
X142260527Y-103755579D01*
X142160374Y-103823784D01*
X142060525Y-103892098D01*
X141976211Y-103950117D01*
X141929679Y-103981736D01*
X141869200Y-104021020D01*
X141824357Y-104047912D01*
X141802455Y-104057883D01*
X141793045Y-104053650D01*
X141759031Y-104027721D01*
X141706595Y-103982070D01*
X141640301Y-103921186D01*
X141564713Y-103849561D01*
X141484396Y-103771683D01*
X141403913Y-103692045D01*
X141327829Y-103615135D01*
X141260707Y-103545445D01*
X141207112Y-103487464D01*
X141171608Y-103445684D01*
X141158759Y-103424593D01*
X141159500Y-103420581D01*
X141174793Y-103387920D01*
X141207462Y-103331412D01*
X141254350Y-103256163D01*
X141312301Y-103167275D01*
X141378157Y-103069854D01*
X141396627Y-103042982D01*
X141461482Y-102948423D01*
X141518609Y-102864827D01*
X141564678Y-102797084D01*
X141596359Y-102750086D01*
X141610324Y-102728726D01*
X141610668Y-102727811D01*
X141606546Y-102701678D01*
X141590807Y-102648740D01*
X141566004Y-102575647D01*
X141534689Y-102489052D01*
X141499417Y-102395608D01*
X141462740Y-102301965D01*
X141427212Y-102214777D01*
X141395386Y-102140695D01*
X141369816Y-102086371D01*
X141353053Y-102058457D01*
X141351374Y-102056724D01*
X141339372Y-102047956D01*
X141319103Y-102039115D01*
X141286529Y-102029292D01*
X141237616Y-102017583D01*
X141168327Y-102003080D01*
X141074625Y-101984876D01*
X140952476Y-101962066D01*
X140797842Y-101933741D01*
X140765770Y-101927780D01*
X140673893Y-101909352D01*
X140596607Y-101891892D01*
X140541236Y-101877133D01*
X140515105Y-101866810D01*
X140510733Y-101858197D01*
X140503445Y-101816826D01*
X140497669Y-101748241D01*
X140493410Y-101658868D01*
X140490673Y-101555135D01*
X140489462Y-101443465D01*
X140489782Y-101330287D01*
X140491636Y-101222026D01*
X140495030Y-101125108D01*
X140499967Y-101045959D01*
X140506452Y-100991006D01*
X140514489Y-100966674D01*
X140522696Y-100963079D01*
X140563519Y-100951748D01*
X140632524Y-100935722D01*
X140724203Y-100916195D01*
X140833050Y-100894362D01*
X140953558Y-100871418D01*
X141019357Y-100859159D01*
X141132135Y-100837901D01*
X141229207Y-100819287D01*
X141305382Y-100804328D01*
X141355469Y-100794036D01*
X141374276Y-100789422D01*
X141374983Y-100788471D01*
X141386961Y-100764310D01*
X141409794Y-100713694D01*
X141440630Y-100643338D01*
X141476613Y-100559958D01*
X141514891Y-100470270D01*
X141552609Y-100380989D01*
X141586913Y-100298832D01*
X141614949Y-100230513D01*
X141633864Y-100182748D01*
X141640803Y-100162254D01*
X141637742Y-100155043D01*
X141617372Y-100120728D01*
X141580422Y-100062970D01*
X141529860Y-99986299D01*
X141468657Y-99895248D01*
X141399781Y-99794350D01*
X141361994Y-99739093D01*
X141296782Y-99642215D01*
X141240871Y-99557193D01*
X141197241Y-99488662D01*
X141168877Y-99441260D01*
X141158759Y-99419623D01*
X141165790Y-99407887D01*
X141195197Y-99372818D01*
X141243441Y-99319745D01*
X141306093Y-99253164D01*
X141378725Y-99177574D01*
X141456908Y-99097472D01*
X141536214Y-99017354D01*
X141612213Y-98941718D01*
X141680478Y-98875062D01*
X141736580Y-98821882D01*
X141776090Y-98786676D01*
X141794579Y-98773942D01*
X141804843Y-98778893D01*
X141842530Y-98801857D01*
X141903348Y-98840938D01*
X141982913Y-98893272D01*
X142076843Y-98955996D01*
X142180754Y-99026246D01*
X142551794Y-99278551D01*
X142861080Y-99151053D01*
X143170365Y-99023555D01*
X143254186Y-98578931D01*
X143338006Y-98134307D01*
X144263454Y-98134307D01*
X144347275Y-98578931D01*
G37*
X144347275Y-98578931D02*
X144431095Y-99023555D01*
X145049667Y-99278551D01*
X145420707Y-99026246D01*
X145494144Y-98976506D01*
X145591499Y-98911218D01*
X145675787Y-98855454D01*
X145742631Y-98812078D01*
X145787654Y-98783953D01*
X145806478Y-98773942D01*
X145818039Y-98781061D01*
X145852596Y-98810894D01*
X145904894Y-98859852D01*
X145970500Y-98923440D01*
X146044983Y-98997163D01*
X146123913Y-99076525D01*
X146202856Y-99157031D01*
X146277384Y-99234185D01*
X146343063Y-99303493D01*
X146395463Y-99360457D01*
X146430153Y-99400584D01*
X146442701Y-99419377D01*
X146439782Y-99427451D01*
X146419571Y-99463469D01*
X146382663Y-99522744D01*
X146332050Y-99600630D01*
X146270725Y-99692481D01*
X146201679Y-99793650D01*
X146163787Y-99848826D01*
X146098606Y-99944884D01*
X146042723Y-100028717D01*
X145999117Y-100095777D01*
X145970769Y-100141519D01*
X145960657Y-100161396D01*
X145960823Y-100162497D01*
X145969743Y-100187694D01*
X145990206Y-100239147D01*
X146019360Y-100310135D01*
X146054353Y-100393935D01*
X146092332Y-100483828D01*
X146130445Y-100573091D01*
X146165839Y-100655003D01*
X146195662Y-100722843D01*
X146217061Y-100769890D01*
X146227184Y-100789422D01*
X146233174Y-100791155D01*
X146269566Y-100798969D01*
X146334427Y-100811915D01*
X146422565Y-100828979D01*
X146528787Y-100849151D01*
X146647902Y-100871418D01*
X146710683Y-100883223D01*
X146825912Y-100905748D01*
X146926662Y-100926550D01*
X147007426Y-100944435D01*
X147062698Y-100958208D01*
X147086971Y-100966674D01*
X147091331Y-100975066D01*
X147098563Y-101016072D01*
X147104246Y-101084368D01*
X147108382Y-101173529D01*
X147110977Y-101277128D01*
X147112036Y-101388740D01*
X147111561Y-101501938D01*
X147109559Y-101610296D01*
X147106033Y-101707389D01*
X147100987Y-101786790D01*
X147094427Y-101842072D01*
X147086356Y-101866810D01*
X147081458Y-101869600D01*
X147044930Y-101881569D01*
X146981565Y-101897405D01*
X146898686Y-101915374D01*
X146803618Y-101933741D01*
X146771542Y-101939591D01*
X146623393Y-101966798D01*
X146506961Y-101988663D01*
X146418209Y-102006093D01*
X146353103Y-102019996D01*
X146307606Y-102031277D01*
X146277682Y-102040843D01*
X146259294Y-102049601D01*
X146248407Y-102058457D01*
X146247142Y-102059943D01*
X146229338Y-102090931D01*
X146202994Y-102147634D01*
X146170661Y-102223399D01*
X146134893Y-102311574D01*
X146098244Y-102405507D01*
X146063266Y-102498547D01*
X146032513Y-102584041D01*
X146008538Y-102655336D01*
X145993895Y-102705782D01*
X145991136Y-102728726D01*
X145992981Y-102731703D01*
X146012075Y-102760493D01*
X146047984Y-102813595D01*
X146097378Y-102886117D01*
X146156927Y-102973167D01*
X146223303Y-103069854D01*
X146241520Y-103096456D01*
X146305577Y-103191875D01*
X146360937Y-103277212D01*
X146404439Y-103347405D01*
X146432924Y-103397394D01*
X146443232Y-103422116D01*
X146441011Y-103428616D01*
X146417858Y-103460644D01*
X146372177Y-103512945D01*
X146307241Y-103581999D01*
X146226319Y-103664286D01*
X146132685Y-103756286D01*
X146079165Y-103807781D01*
X145994542Y-103887983D01*
X145920475Y-103956678D01*
X145860941Y-104010252D01*
X145819917Y-104045085D01*
X145801381Y-104057563D01*
X145788646Y-104052938D01*
X145749436Y-104031057D01*
X145692495Y-103995273D01*
X145625250Y-103950117D01*
X145577438Y-103917165D01*
X145481985Y-103851727D01*
X145380125Y-103782228D01*
X145287088Y-103719075D01*
X145104832Y-103595800D01*
X144951841Y-103678520D01*
X144915817Y-103697613D01*
X144850303Y-103730272D01*
X144799640Y-103752819D01*
X144772564Y-103761226D01*
X144763703Y-103750430D01*
X144741699Y-103709323D01*
X144709199Y-103641549D01*
X144668010Y-103551409D01*
X144619942Y-103443205D01*
X144566802Y-103321237D01*
X144510399Y-103189808D01*
X144452542Y-103053218D01*
X144395038Y-102915767D01*
X144339697Y-102781758D01*
X144288326Y-102655491D01*
X144242735Y-102541268D01*
X144204732Y-102443390D01*
X144176124Y-102366157D01*
X144158721Y-102313871D01*
X144154331Y-102290833D01*
X144154628Y-102290160D01*
X144175077Y-102268863D01*
X144217850Y-102235508D01*
X144274117Y-102197011D01*
X144291877Y-102185256D01*
X144427014Y-102073735D01*
X144538856Y-101940906D01*
X144624755Y-101792298D01*
X144682062Y-101633440D01*
X144708131Y-101469860D01*
X144700313Y-101307088D01*
X144668644Y-101162315D01*
X144611782Y-101016124D01*
X144528888Y-100885703D01*
X144415131Y-100761813D01*
X144370433Y-100722235D01*
X144225935Y-100624723D01*
X144069838Y-100559050D01*
X143906667Y-100524630D01*
X143740943Y-100520874D01*
X143577192Y-100547194D01*
X143419936Y-100603003D01*
X143273698Y-100687714D01*
X143143004Y-100800737D01*
X143032374Y-100941487D01*
X143011105Y-100976342D01*
X142938810Y-101135655D01*
X142900415Y-101301552D01*
X142894914Y-101469737D01*
X142921301Y-101635913D01*
X142978570Y-101795784D01*
X143065717Y-101945053D01*
X143181736Y-102079423D01*
X143325622Y-102194599D01*
X143330294Y-102197702D01*
X143385964Y-102236933D01*
X143427689Y-102270286D01*
X143446746Y-102290833D01*
X143444342Y-102306941D01*
X143429391Y-102353844D01*
X143402881Y-102426539D01*
X143366620Y-102520725D01*
X143322416Y-102632098D01*
X143272076Y-102756358D01*
X143217407Y-102889202D01*
X143160218Y-103026327D01*
X143102316Y-103163432D01*
X143045510Y-103296215D01*
X142991606Y-103420374D01*
X142942412Y-103531606D01*
X142899737Y-103625609D01*
X142865387Y-103698082D01*
X142841171Y-103744722D01*
X142828897Y-103761226D01*
X142818689Y-103758991D01*
X142778586Y-103742926D01*
X142719318Y-103714759D01*
X142649619Y-103678520D01*
X142496629Y-103595800D01*
X142314373Y-103719075D01*
X142260527Y-103755579D01*
X142160374Y-103823784D01*
X142060525Y-103892098D01*
X141976211Y-103950117D01*
X141929679Y-103981736D01*
X141869200Y-104021020D01*
X141824357Y-104047912D01*
X141802455Y-104057883D01*
X141793045Y-104053650D01*
X141759031Y-104027721D01*
X141706595Y-103982070D01*
X141640301Y-103921186D01*
X141564713Y-103849561D01*
X141484396Y-103771683D01*
X141403913Y-103692045D01*
X141327829Y-103615135D01*
X141260707Y-103545445D01*
X141207112Y-103487464D01*
X141171608Y-103445684D01*
X141158759Y-103424593D01*
X141159500Y-103420581D01*
X141174793Y-103387920D01*
X141207462Y-103331412D01*
X141254350Y-103256163D01*
X141312301Y-103167275D01*
X141378157Y-103069854D01*
X141396627Y-103042982D01*
X141461482Y-102948423D01*
X141518609Y-102864827D01*
X141564678Y-102797084D01*
X141596359Y-102750086D01*
X141610324Y-102728726D01*
X141610668Y-102727811D01*
X141606546Y-102701678D01*
X141590807Y-102648740D01*
X141566004Y-102575647D01*
X141534689Y-102489052D01*
X141499417Y-102395608D01*
X141462740Y-102301965D01*
X141427212Y-102214777D01*
X141395386Y-102140695D01*
X141369816Y-102086371D01*
X141353053Y-102058457D01*
X141351374Y-102056724D01*
X141339372Y-102047956D01*
X141319103Y-102039115D01*
X141286529Y-102029292D01*
X141237616Y-102017583D01*
X141168327Y-102003080D01*
X141074625Y-101984876D01*
X140952476Y-101962066D01*
X140797842Y-101933741D01*
X140765770Y-101927780D01*
X140673893Y-101909352D01*
X140596607Y-101891892D01*
X140541236Y-101877133D01*
X140515105Y-101866810D01*
X140510733Y-101858197D01*
X140503445Y-101816826D01*
X140497669Y-101748241D01*
X140493410Y-101658868D01*
X140490673Y-101555135D01*
X140489462Y-101443465D01*
X140489782Y-101330287D01*
X140491636Y-101222026D01*
X140495030Y-101125108D01*
X140499967Y-101045959D01*
X140506452Y-100991006D01*
X140514489Y-100966674D01*
X140522696Y-100963079D01*
X140563519Y-100951748D01*
X140632524Y-100935722D01*
X140724203Y-100916195D01*
X140833050Y-100894362D01*
X140953558Y-100871418D01*
X141019357Y-100859159D01*
X141132135Y-100837901D01*
X141229207Y-100819287D01*
X141305382Y-100804328D01*
X141355469Y-100794036D01*
X141374276Y-100789422D01*
X141374983Y-100788471D01*
X141386961Y-100764310D01*
X141409794Y-100713694D01*
X141440630Y-100643338D01*
X141476613Y-100559958D01*
X141514891Y-100470270D01*
X141552609Y-100380989D01*
X141586913Y-100298832D01*
X141614949Y-100230513D01*
X141633864Y-100182748D01*
X141640803Y-100162254D01*
X141637742Y-100155043D01*
X141617372Y-100120728D01*
X141580422Y-100062970D01*
X141529860Y-99986299D01*
X141468657Y-99895248D01*
X141399781Y-99794350D01*
X141361994Y-99739093D01*
X141296782Y-99642215D01*
X141240871Y-99557193D01*
X141197241Y-99488662D01*
X141168877Y-99441260D01*
X141158759Y-99419623D01*
X141165790Y-99407887D01*
X141195197Y-99372818D01*
X141243441Y-99319745D01*
X141306093Y-99253164D01*
X141378725Y-99177574D01*
X141456908Y-99097472D01*
X141536214Y-99017354D01*
X141612213Y-98941718D01*
X141680478Y-98875062D01*
X141736580Y-98821882D01*
X141776090Y-98786676D01*
X141794579Y-98773942D01*
X141804843Y-98778893D01*
X141842530Y-98801857D01*
X141903348Y-98840938D01*
X141982913Y-98893272D01*
X142076843Y-98955996D01*
X142180754Y-99026246D01*
X142551794Y-99278551D01*
X142861080Y-99151053D01*
X143170365Y-99023555D01*
X143254186Y-98578931D01*
X143338006Y-98134307D01*
X144263454Y-98134307D01*
X144347275Y-98578931D01*
%TD*%
M02*
