%TF.GenerationSoftware,KiCad,Pcbnew,6.0.11+dfsg-1~bpo11+1*%
%TF.CreationDate,2023-07-05T16:33:08+02:00*%
%TF.ProjectId,avert_21,61766572-745f-4323-912e-6b696361645f,rev?*%
%TF.SameCoordinates,Original*%
%TF.FileFunction,Copper,L3,Inr*%
%TF.FilePolarity,Positive*%
%FSLAX46Y46*%
G04 Gerber Fmt 4.6, Leading zero omitted, Abs format (unit mm)*
G04 Created by KiCad (PCBNEW 6.0.11+dfsg-1~bpo11+1) date 2023-07-05 16:33:08*
%MOMM*%
%LPD*%
G01*
G04 APERTURE LIST*
G04 Aperture macros list*
%AMRoundRect*
0 Rectangle with rounded corners*
0 $1 Rounding radius*
0 $2 $3 $4 $5 $6 $7 $8 $9 X,Y pos of 4 corners*
0 Add a 4 corners polygon primitive as box body*
4,1,4,$2,$3,$4,$5,$6,$7,$8,$9,$2,$3,0*
0 Add four circle primitives for the rounded corners*
1,1,$1+$1,$2,$3*
1,1,$1+$1,$4,$5*
1,1,$1+$1,$6,$7*
1,1,$1+$1,$8,$9*
0 Add four rect primitives between the rounded corners*
20,1,$1+$1,$2,$3,$4,$5,0*
20,1,$1+$1,$4,$5,$6,$7,0*
20,1,$1+$1,$6,$7,$8,$9,0*
20,1,$1+$1,$8,$9,$2,$3,0*%
G04 Aperture macros list end*
%TA.AperFunction,ComponentPad*%
%ADD10RoundRect,0.250000X0.600000X0.600000X-0.600000X0.600000X-0.600000X-0.600000X0.600000X-0.600000X0*%
%TD*%
%TA.AperFunction,ComponentPad*%
%ADD11C,1.700000*%
%TD*%
%TA.AperFunction,ComponentPad*%
%ADD12RoundRect,0.250000X0.600000X-0.600000X0.600000X0.600000X-0.600000X0.600000X-0.600000X-0.600000X0*%
%TD*%
%TA.AperFunction,ComponentPad*%
%ADD13R,1.700000X1.700000*%
%TD*%
%TA.AperFunction,ComponentPad*%
%ADD14O,1.700000X1.700000*%
%TD*%
%TA.AperFunction,ComponentPad*%
%ADD15RoundRect,0.250000X-0.600000X0.600000X-0.600000X-0.600000X0.600000X-0.600000X0.600000X0.600000X0*%
%TD*%
%TA.AperFunction,ComponentPad*%
%ADD16RoundRect,0.250000X-0.600000X-0.600000X0.600000X-0.600000X0.600000X0.600000X-0.600000X0.600000X0*%
%TD*%
%TA.AperFunction,ViaPad*%
%ADD17C,0.800000*%
%TD*%
%TA.AperFunction,Conductor*%
%ADD18C,0.800000*%
%TD*%
%TA.AperFunction,Conductor*%
%ADD19C,0.250000*%
%TD*%
G04 APERTURE END LIST*
D10*
%TO.N,+24V*%
%TO.C,J4*%
X167700000Y-102210000D03*
D11*
X165160000Y-102210000D03*
%TO.N,GND*%
X167700000Y-99670000D03*
%TO.N,Earth*%
X165160000Y-99670000D03*
%TO.N,/CANL*%
X167700000Y-97130000D03*
%TO.N,/CANH*%
X165160000Y-97130000D03*
%TO.N,/SS*%
X167700000Y-94590000D03*
%TO.N,/SCK*%
X165160000Y-94590000D03*
%TO.N,/MOSI*%
X167700000Y-92050000D03*
%TO.N,/MISO*%
X165160000Y-92050000D03*
%TO.N,/SDA*%
X167700000Y-89510000D03*
%TO.N,/SCL*%
X165160000Y-89510000D03*
%TO.N,/RXD*%
X167700000Y-86970000D03*
%TO.N,/TXD*%
X165160000Y-86970000D03*
%TO.N,GND*%
X167700000Y-84430000D03*
%TO.N,+3V3*%
X165160000Y-84430000D03*
%TD*%
D12*
%TO.N,GNDD*%
%TO.C,J2*%
X134790000Y-117340000D03*
D11*
%TO.N,/SC2*%
X134790000Y-114800000D03*
%TO.N,/SD2*%
X137330000Y-117340000D03*
%TO.N,/SC3*%
X137330000Y-114800000D03*
%TO.N,/SD3*%
X139870000Y-117340000D03*
%TO.N,unconnected-(J2-Pad6)*%
X139870000Y-114800000D03*
%TO.N,unconnected-(J2-Pad7)*%
X142410000Y-117340000D03*
%TO.N,unconnected-(J2-Pad8)*%
X142410000Y-114800000D03*
%TO.N,unconnected-(J2-Pad9)*%
X144950000Y-117340000D03*
%TO.N,+5V*%
X144950000Y-114800000D03*
%TO.N,-12V*%
X147490000Y-117340000D03*
%TO.N,+12V*%
X147490000Y-114800000D03*
%TO.N,GNDD*%
X150030000Y-117340000D03*
%TO.N,Earth*%
X150030000Y-114800000D03*
%TO.N,+VSW*%
X152570000Y-117340000D03*
X152570000Y-114800000D03*
%TD*%
D13*
%TO.N,/CANH*%
%TO.C,J7*%
X160155000Y-68840000D03*
D14*
%TO.N,Net-(J7-Pad2)*%
X162695000Y-68840000D03*
%TD*%
D15*
%TO.N,GNDD*%
%TO.C,J1*%
X152550000Y-69357500D03*
D11*
%TO.N,/SC0*%
X152550000Y-71897500D03*
%TO.N,/SD0*%
X150010000Y-69357500D03*
%TO.N,/SC1*%
X150010000Y-71897500D03*
%TO.N,/SD1*%
X147470000Y-69357500D03*
%TO.N,unconnected-(J1-Pad6)*%
X147470000Y-71897500D03*
%TO.N,unconnected-(J1-Pad7)*%
X144930000Y-69357500D03*
%TO.N,unconnected-(J1-Pad8)*%
X144930000Y-71897500D03*
%TO.N,unconnected-(J1-Pad9)*%
X142390000Y-69357500D03*
%TO.N,+5V*%
X142390000Y-71897500D03*
%TO.N,-12V*%
X139850000Y-69357500D03*
%TO.N,+12V*%
X139850000Y-71897500D03*
%TO.N,GNDD*%
X137310000Y-69357500D03*
%TO.N,Earth*%
X137310000Y-71897500D03*
%TO.N,+VSW*%
X134770000Y-69357500D03*
X134770000Y-71897500D03*
%TD*%
D13*
%TO.N,GND*%
%TO.C,J5*%
X154400000Y-86415000D03*
D14*
%TO.N,unconnected-(J5-Pad2)*%
X151860000Y-86415000D03*
%TO.N,+3V3*%
X149320000Y-86415000D03*
%TO.N,/RX_0*%
X146780000Y-86415000D03*
%TO.N,/TX_0*%
X144240000Y-86415000D03*
%TO.N,unconnected-(J5-Pad6)*%
X141700000Y-86415000D03*
%TD*%
D13*
%TO.N,GND*%
%TO.C,J8*%
X162795000Y-118340000D03*
D14*
%TO.N,/ADDR0*%
X160255000Y-118340000D03*
%TO.N,GND*%
X162795000Y-115800000D03*
%TO.N,/ADDR1*%
X160255000Y-115800000D03*
%TO.N,GND*%
X162795000Y-113260000D03*
%TO.N,/ADDR2*%
X160255000Y-113260000D03*
%TO.N,GND*%
X162795000Y-110720000D03*
%TO.N,/ADDR3*%
X160255000Y-110720000D03*
%TD*%
D16*
%TO.N,+3V3*%
%TO.C,J3*%
X119690000Y-84400000D03*
D11*
%TO.N,GND*%
X122230000Y-84400000D03*
%TO.N,/TXD*%
X119690000Y-86940000D03*
%TO.N,/RXD*%
X122230000Y-86940000D03*
%TO.N,/SCL*%
X119690000Y-89480000D03*
%TO.N,/SDA*%
X122230000Y-89480000D03*
%TO.N,/MISO*%
X119690000Y-92020000D03*
%TO.N,/MOSI*%
X122230000Y-92020000D03*
%TO.N,/SCK*%
X119690000Y-94560000D03*
%TO.N,/SS*%
X122230000Y-94560000D03*
%TO.N,/CANH*%
X119690000Y-97100000D03*
%TO.N,/CANL*%
X122230000Y-97100000D03*
%TO.N,Earth*%
X119690000Y-99640000D03*
%TO.N,GND*%
X122230000Y-99640000D03*
%TO.N,+24V*%
X119690000Y-102180000D03*
X122230000Y-102180000D03*
%TD*%
D17*
%TO.N,GND*%
X161650000Y-75020000D03*
X128840000Y-82810000D03*
X123050000Y-118710000D03*
X142140000Y-103440000D03*
X140810000Y-92980000D03*
X160430000Y-83350000D03*
X152300000Y-104100000D03*
X154650000Y-96510000D03*
X135440000Y-84400000D03*
X146260000Y-84470000D03*
X140790000Y-89730000D03*
X140960000Y-84280000D03*
%TO.N,+3V3*%
X127430000Y-81100000D03*
X143050000Y-104570000D03*
X148020000Y-81100000D03*
%TO.N,GNDD*%
X149440000Y-75050000D03*
X136040000Y-111030000D03*
X132270000Y-103430000D03*
X148760000Y-112560000D03*
X132570000Y-92950000D03*
X124610000Y-111540000D03*
X130310000Y-73680000D03*
X133920000Y-78330000D03*
X119420000Y-76760000D03*
X132790000Y-110980000D03*
X135210000Y-92960000D03*
X122630000Y-67270000D03*
%TO.N,+12V*%
X123210000Y-111520000D03*
X136770000Y-100590000D03*
X136050000Y-104930000D03*
%TO.N,-12V*%
X133260000Y-105940000D03*
X129530000Y-104920000D03*
X132910000Y-74810000D03*
%TO.N,+5V*%
X136910000Y-79280000D03*
X142420000Y-75914500D03*
X135690000Y-88990000D03*
%TO.N,/SC2*%
X150570000Y-79250000D03*
%TO.N,/SD2*%
X149290000Y-79230000D03*
%TO.N,/SCL*%
X162340000Y-89520000D03*
%TO.N,/SDA*%
X152990000Y-91260000D03*
%TO.N,Earth*%
X134874500Y-100090000D03*
X131780000Y-84610000D03*
%TO.N,/CTX*%
X153170000Y-100630000D03*
X157720000Y-74080000D03*
%TO.N,/CRX*%
X155180000Y-100720000D03*
X161360000Y-78230000D03*
%TO.N,/IO0*%
X154850000Y-92140000D03*
X130140000Y-89040000D03*
X130160000Y-91620000D03*
%TO.N,/ADDR0*%
X150640000Y-105670000D03*
%TO.N,/ADDR1*%
X152230000Y-105330000D03*
%TO.N,/LED_MQTT*%
X156520000Y-97270000D03*
X130565000Y-97275000D03*
%TO.N,/SC3*%
X144980000Y-79230000D03*
%TO.N,/SD3*%
X143740000Y-79200000D03*
%TO.N,/SCL2*%
X149320000Y-103320000D03*
X150550000Y-84440000D03*
%TO.N,/SDA2*%
X149330000Y-84450000D03*
X148080000Y-105480000D03*
%TO.N,/SCL3*%
X145000000Y-84460000D03*
X146810000Y-104450000D03*
%TO.N,/SDA3*%
X145580000Y-105440000D03*
X143160000Y-84560000D03*
%TD*%
D18*
%TO.N,+3V3*%
X119690000Y-82050000D02*
X120640000Y-81100000D01*
X165160000Y-81740000D02*
X164520000Y-81100000D01*
X163320000Y-81100000D02*
X148020000Y-81100000D01*
X119690000Y-84400000D02*
X119690000Y-82050000D01*
X147320000Y-81100000D02*
X148020000Y-81100000D01*
X120640000Y-81100000D02*
X122830000Y-81100000D01*
X165160000Y-84430000D02*
X165160000Y-81740000D01*
X164520000Y-81100000D02*
X163320000Y-81100000D01*
X122830000Y-81100000D02*
X127430000Y-81100000D01*
X127430000Y-81100000D02*
X147320000Y-81100000D01*
%TO.N,+24V*%
X122995000Y-102200000D02*
X120455000Y-102200000D01*
X167700000Y-102210000D02*
X165160000Y-102210000D01*
X133580000Y-102200000D02*
X133600000Y-102220000D01*
X165160000Y-102210000D02*
X123005000Y-102210000D01*
X123005000Y-102210000D02*
X122995000Y-102200000D01*
X133600000Y-102220000D02*
X164445000Y-102220000D01*
X122995000Y-102200000D02*
X133580000Y-102200000D01*
X119690000Y-102180000D02*
X122230000Y-102180000D01*
D19*
%TO.N,/TXD*%
X119690000Y-86940000D02*
X120970000Y-85660000D01*
X165160000Y-86970000D02*
X163690000Y-86970000D01*
X162210000Y-86980000D02*
X161213198Y-87976802D01*
X140106802Y-87976802D02*
X139210000Y-87080000D01*
X163680000Y-86980000D02*
X162210000Y-86980000D01*
X161213198Y-87976802D02*
X140106802Y-87976802D01*
X124460000Y-85660000D02*
X124585000Y-85785000D01*
X120970000Y-85660000D02*
X124460000Y-85660000D01*
X163690000Y-86970000D02*
X163680000Y-86980000D01*
X139210000Y-87080000D02*
X125880000Y-87080000D01*
X119690000Y-86940000D02*
X120845000Y-85785000D01*
X125880000Y-87080000D02*
X124585000Y-85785000D01*
X164445000Y-86980000D02*
X163680000Y-86980000D01*
%TO.N,/RXD*%
X138820000Y-87790000D02*
X125310000Y-87790000D01*
X162090000Y-88240000D02*
X161570000Y-88760000D01*
X139585000Y-88555000D02*
X138820000Y-87790000D01*
X122230000Y-86940000D02*
X124460000Y-86940000D01*
X161570000Y-88760000D02*
X142770000Y-88760000D01*
X125310000Y-87790000D02*
X124480000Y-86960000D01*
X124480000Y-86960000D02*
X122995000Y-86960000D01*
X142565000Y-88555000D02*
X139585000Y-88555000D01*
X124460000Y-86940000D02*
X124480000Y-86960000D01*
X142770000Y-88760000D02*
X142565000Y-88555000D01*
X167700000Y-86970000D02*
X166430000Y-88240000D01*
X166430000Y-88240000D02*
X162090000Y-88240000D01*
%TO.N,/SCL*%
X164445000Y-89520000D02*
X162340000Y-89520000D01*
X120865000Y-88305000D02*
X124165000Y-88305000D01*
X139370000Y-89790000D02*
X125650000Y-89790000D01*
X165160000Y-89510000D02*
X162350000Y-89510000D01*
X141475000Y-89005000D02*
X140155000Y-89005000D01*
X162340000Y-89520000D02*
X141990000Y-89520000D01*
X119690000Y-89480000D02*
X120865000Y-88305000D01*
X140155000Y-89005000D02*
X139370000Y-89790000D01*
X141990000Y-89520000D02*
X141475000Y-89005000D01*
X125650000Y-89790000D02*
X124185000Y-88325000D01*
X124165000Y-88305000D02*
X124185000Y-88325000D01*
X162350000Y-89510000D02*
X162340000Y-89520000D01*
%TO.N,/SDA*%
X125490000Y-90800000D02*
X125470000Y-90820000D01*
X165685000Y-90820000D02*
X154510000Y-90820000D01*
X124130000Y-89480000D02*
X124365000Y-89715000D01*
X167700000Y-89510000D02*
X166390000Y-90820000D01*
X152990000Y-91260000D02*
X152530000Y-90800000D01*
X166390000Y-90820000D02*
X165685000Y-90820000D01*
X125470000Y-90820000D02*
X124365000Y-89715000D01*
X152530000Y-90800000D02*
X125490000Y-90800000D01*
X122230000Y-89480000D02*
X124130000Y-89480000D01*
X152990000Y-91260000D02*
X154070000Y-91260000D01*
X154070000Y-91260000D02*
X154510000Y-90820000D01*
%TO.N,/MISO*%
X163350000Y-92050000D02*
X163340000Y-92060000D01*
X131220000Y-92680000D02*
X131840000Y-92060000D01*
X162450000Y-92950000D02*
X163340000Y-92060000D01*
X163340000Y-92060000D02*
X164445000Y-92060000D01*
X131840000Y-92060000D02*
X151410000Y-92060000D01*
X152300000Y-92950000D02*
X162450000Y-92950000D01*
X119690000Y-92020000D02*
X120980000Y-90730000D01*
X124330000Y-90730000D02*
X125660000Y-92060000D01*
X151410000Y-92060000D02*
X152300000Y-92950000D01*
X128870000Y-92060000D02*
X129490000Y-92680000D01*
X121765000Y-90730000D02*
X124330000Y-90730000D01*
X125660000Y-92060000D02*
X128870000Y-92060000D01*
X165160000Y-92050000D02*
X163350000Y-92050000D01*
X120980000Y-90730000D02*
X121765000Y-90730000D01*
X129490000Y-92680000D02*
X131220000Y-92680000D01*
%TO.N,/MOSI*%
X122995000Y-92040000D02*
X124430000Y-92040000D01*
X163010000Y-93760000D02*
X163370000Y-93400000D01*
X124430000Y-92040000D02*
X124825000Y-92435000D01*
X163510000Y-93260000D02*
X163370000Y-93400000D01*
X124410000Y-92020000D02*
X124825000Y-92435000D01*
X124825000Y-92435000D02*
X126150000Y-93760000D01*
X166490000Y-93260000D02*
X163510000Y-93260000D01*
X126150000Y-93760000D02*
X163010000Y-93760000D01*
X122230000Y-92020000D02*
X124410000Y-92020000D01*
X167700000Y-92050000D02*
X166490000Y-93260000D01*
%TO.N,/SCK*%
X121785000Y-93250000D02*
X124290000Y-93250000D01*
X125640000Y-94600000D02*
X124290000Y-93250000D01*
X164445000Y-94600000D02*
X125640000Y-94600000D01*
X120455000Y-94580000D02*
X121785000Y-93250000D01*
%TO.N,/SS*%
X166515000Y-95775000D02*
X125495000Y-95775000D01*
X125495000Y-95775000D02*
X124300000Y-94580000D01*
X167700000Y-94590000D02*
X166515000Y-95775000D01*
X124300000Y-94580000D02*
X122995000Y-94580000D01*
%TO.N,/CANH*%
X158020000Y-97140000D02*
X164130000Y-97140000D01*
X164445000Y-97140000D02*
X164130000Y-97140000D01*
X119690000Y-97100000D02*
X120960000Y-95830000D01*
X164140000Y-97130000D02*
X164130000Y-97140000D01*
X157070000Y-98090000D02*
X158020000Y-97140000D01*
X125360000Y-98090000D02*
X157070000Y-98090000D01*
X124640000Y-97370000D02*
X125360000Y-98090000D01*
X165160000Y-97130000D02*
X164140000Y-97130000D01*
X120960000Y-95830000D02*
X123750000Y-95830000D01*
X124640000Y-96720000D02*
X124640000Y-97370000D01*
X123750000Y-95830000D02*
X124640000Y-96720000D01*
%TO.N,/CANL*%
X167700000Y-97130000D02*
X166410000Y-98420000D01*
X122230000Y-97100000D02*
X124060000Y-98930000D01*
X124060000Y-98930000D02*
X125580000Y-98930000D01*
X157640000Y-98930000D02*
X125580000Y-98930000D01*
X166410000Y-98420000D02*
X158150000Y-98420000D01*
X158150000Y-98420000D02*
X157640000Y-98930000D01*
%TO.N,Earth*%
X164445000Y-99680000D02*
X163240000Y-99680000D01*
X165160000Y-99670000D02*
X163250000Y-99670000D01*
X135284500Y-99680000D02*
X134874500Y-100090000D01*
X163240000Y-99680000D02*
X135284500Y-99680000D01*
X163250000Y-99670000D02*
X163240000Y-99680000D01*
%TO.N,/IO0*%
X131690000Y-91430000D02*
X151750000Y-91430000D01*
X151750000Y-91430000D02*
X152460000Y-92140000D01*
X131500000Y-91620000D02*
X131690000Y-91430000D01*
X152460000Y-92140000D02*
X154850000Y-92140000D01*
X130160000Y-91620000D02*
X131500000Y-91620000D01*
%TO.N,/LED_MQTT*%
X130565000Y-97275000D02*
X156515000Y-97275000D01*
X156515000Y-97275000D02*
X156520000Y-97270000D01*
%TD*%
%TA.AperFunction,Conductor*%
%TO.N,Earth*%
G36*
X121706398Y-66868502D02*
G01*
X121752891Y-66922158D01*
X121762995Y-66992432D01*
X121758112Y-67013428D01*
X121736458Y-67080072D01*
X121716496Y-67270000D01*
X121736458Y-67459928D01*
X121795473Y-67641556D01*
X121798776Y-67647278D01*
X121798777Y-67647279D01*
X121821634Y-67686868D01*
X121890960Y-67806944D01*
X121895378Y-67811851D01*
X121895379Y-67811852D01*
X122011209Y-67940494D01*
X122018747Y-67948866D01*
X122106492Y-68012617D01*
X122132421Y-68031455D01*
X122173248Y-68061118D01*
X122179276Y-68063802D01*
X122179278Y-68063803D01*
X122292333Y-68114138D01*
X122347712Y-68138794D01*
X122438986Y-68158195D01*
X122528056Y-68177128D01*
X122528061Y-68177128D01*
X122534513Y-68178500D01*
X122725487Y-68178500D01*
X122731939Y-68177128D01*
X122731944Y-68177128D01*
X122821014Y-68158195D01*
X122912288Y-68138794D01*
X122967667Y-68114138D01*
X123080722Y-68063803D01*
X123080724Y-68063802D01*
X123086752Y-68061118D01*
X123127580Y-68031455D01*
X123153508Y-68012617D01*
X123241253Y-67948866D01*
X123248791Y-67940494D01*
X123364621Y-67811852D01*
X123364622Y-67811851D01*
X123369040Y-67806944D01*
X123438366Y-67686868D01*
X123461223Y-67647279D01*
X123461224Y-67647278D01*
X123464527Y-67641556D01*
X123523542Y-67459928D01*
X123543504Y-67270000D01*
X123523542Y-67080072D01*
X123501890Y-67013434D01*
X123499862Y-66942470D01*
X123536524Y-66881671D01*
X123600236Y-66850346D01*
X123621723Y-66848500D01*
X170060500Y-66848500D01*
X170128621Y-66868502D01*
X170175114Y-66922158D01*
X170186500Y-66974500D01*
X170186500Y-119705500D01*
X170166498Y-119773621D01*
X170112842Y-119820114D01*
X170060500Y-119831500D01*
X164015226Y-119831500D01*
X163947105Y-119811498D01*
X163900612Y-119757842D01*
X163890508Y-119687568D01*
X163920002Y-119622988D01*
X163939661Y-119604674D01*
X164001080Y-119558643D01*
X164001081Y-119558642D01*
X164008261Y-119553261D01*
X164095615Y-119436705D01*
X164146745Y-119300316D01*
X164153500Y-119238134D01*
X164153500Y-117441866D01*
X164146745Y-117379684D01*
X164123965Y-117318918D01*
X165681917Y-117318918D01*
X165682334Y-117326156D01*
X165697682Y-117592320D01*
X165750405Y-117861053D01*
X165751792Y-117865103D01*
X165751793Y-117865108D01*
X165830902Y-118096166D01*
X165839112Y-118120144D01*
X165868221Y-118178021D01*
X165946027Y-118332721D01*
X165962160Y-118364799D01*
X165964586Y-118368328D01*
X165964589Y-118368334D01*
X166104003Y-118571181D01*
X166117274Y-118590490D01*
X166120161Y-118593663D01*
X166120162Y-118593664D01*
X166215555Y-118698500D01*
X166301582Y-118793043D01*
X166511675Y-118968707D01*
X166515316Y-118970991D01*
X166740024Y-119111951D01*
X166740028Y-119111953D01*
X166743664Y-119114234D01*
X166811544Y-119144883D01*
X166989345Y-119225164D01*
X166989349Y-119225166D01*
X166993257Y-119226930D01*
X167052883Y-119244592D01*
X167251723Y-119303491D01*
X167251727Y-119303492D01*
X167255836Y-119304709D01*
X167260070Y-119305357D01*
X167260075Y-119305358D01*
X167522298Y-119345483D01*
X167522300Y-119345483D01*
X167526540Y-119346132D01*
X167665912Y-119348322D01*
X167796071Y-119350367D01*
X167796077Y-119350367D01*
X167800362Y-119350434D01*
X168072235Y-119317534D01*
X168337127Y-119248041D01*
X168341087Y-119246401D01*
X168341092Y-119246399D01*
X168463631Y-119195641D01*
X168590136Y-119143241D01*
X168826582Y-119005073D01*
X169042089Y-118836094D01*
X169083809Y-118793043D01*
X169180207Y-118693567D01*
X169232669Y-118639431D01*
X169235202Y-118635983D01*
X169235206Y-118635978D01*
X169392257Y-118422178D01*
X169394795Y-118418723D01*
X169396841Y-118414955D01*
X169523418Y-118181830D01*
X169523419Y-118181828D01*
X169525468Y-118178054D01*
X169595148Y-117993650D01*
X169620751Y-117925895D01*
X169620752Y-117925891D01*
X169622269Y-117921877D01*
X169663173Y-117743279D01*
X169682449Y-117659117D01*
X169682450Y-117659113D01*
X169683407Y-117654933D01*
X169685363Y-117633023D01*
X169707531Y-117384627D01*
X169707531Y-117384625D01*
X169707751Y-117382161D01*
X169708193Y-117340000D01*
X169702174Y-117251703D01*
X169689859Y-117071055D01*
X169689858Y-117071049D01*
X169689567Y-117066778D01*
X169683242Y-117036233D01*
X169634901Y-116802809D01*
X169634032Y-116798612D01*
X169542617Y-116540465D01*
X169480800Y-116420697D01*
X169418978Y-116300919D01*
X169418978Y-116300918D01*
X169417013Y-116297112D01*
X169407040Y-116282921D01*
X169307663Y-116141522D01*
X169259545Y-116073057D01*
X169177297Y-115984547D01*
X169076046Y-115875588D01*
X169076043Y-115875585D01*
X169073125Y-115872445D01*
X169069810Y-115869731D01*
X169069806Y-115869728D01*
X168864523Y-115701706D01*
X168861205Y-115698990D01*
X168627704Y-115555901D01*
X168611653Y-115548855D01*
X168380873Y-115447549D01*
X168380869Y-115447548D01*
X168376945Y-115445825D01*
X168113566Y-115370800D01*
X168109324Y-115370196D01*
X168109318Y-115370195D01*
X167908834Y-115341662D01*
X167842443Y-115332213D01*
X167698589Y-115331460D01*
X167572877Y-115330802D01*
X167572871Y-115330802D01*
X167568591Y-115330780D01*
X167564347Y-115331339D01*
X167564343Y-115331339D01*
X167445302Y-115347011D01*
X167297078Y-115366525D01*
X167292938Y-115367658D01*
X167292936Y-115367658D01*
X167220008Y-115387609D01*
X167032928Y-115438788D01*
X167028980Y-115440472D01*
X166784982Y-115544546D01*
X166784978Y-115544548D01*
X166781030Y-115546232D01*
X166682688Y-115605088D01*
X166549725Y-115684664D01*
X166549721Y-115684667D01*
X166546043Y-115686868D01*
X166332318Y-115858094D01*
X166262272Y-115931907D01*
X166156683Y-116043175D01*
X166143808Y-116056742D01*
X165984002Y-116279136D01*
X165855857Y-116521161D01*
X165854385Y-116525184D01*
X165854383Y-116525188D01*
X165763353Y-116773938D01*
X165761743Y-116778337D01*
X165703404Y-117045907D01*
X165681917Y-117318918D01*
X164123965Y-117318918D01*
X164095615Y-117243295D01*
X164008261Y-117126739D01*
X163891705Y-117039385D01*
X163864905Y-117029338D01*
X163773203Y-116994960D01*
X163716439Y-116952318D01*
X163691739Y-116885756D01*
X163706947Y-116816408D01*
X163728493Y-116787727D01*
X163825065Y-116691492D01*
X163833096Y-116683489D01*
X163845175Y-116666680D01*
X163960435Y-116506277D01*
X163963453Y-116502077D01*
X163973308Y-116482138D01*
X164060136Y-116306453D01*
X164060137Y-116306451D01*
X164062430Y-116301811D01*
X164127370Y-116088069D01*
X164156529Y-115866590D01*
X164158156Y-115800000D01*
X164139852Y-115577361D01*
X164085431Y-115360702D01*
X163996354Y-115155840D01*
X163875014Y-114968277D01*
X163724670Y-114803051D01*
X163720619Y-114799852D01*
X163720615Y-114799848D01*
X163553414Y-114667800D01*
X163553410Y-114667798D01*
X163549359Y-114664598D01*
X163508053Y-114641796D01*
X163458084Y-114591364D01*
X163443312Y-114521921D01*
X163468428Y-114455516D01*
X163495780Y-114428909D01*
X163539603Y-114397650D01*
X163674860Y-114301173D01*
X163833096Y-114143489D01*
X163845175Y-114126680D01*
X163960435Y-113966277D01*
X163963453Y-113962077D01*
X163973308Y-113942138D01*
X164060136Y-113766453D01*
X164060137Y-113766451D01*
X164062430Y-113761811D01*
X164127370Y-113548069D01*
X164156529Y-113326590D01*
X164158156Y-113260000D01*
X164139852Y-113037361D01*
X164085431Y-112820702D01*
X163996354Y-112615840D01*
X163888097Y-112448500D01*
X163877822Y-112432617D01*
X163877820Y-112432614D01*
X163875014Y-112428277D01*
X163724670Y-112263051D01*
X163720619Y-112259852D01*
X163720615Y-112259848D01*
X163553414Y-112127800D01*
X163553410Y-112127798D01*
X163549359Y-112124598D01*
X163508053Y-112101796D01*
X163458084Y-112051364D01*
X163443312Y-111981921D01*
X163468428Y-111915516D01*
X163495780Y-111888909D01*
X163555783Y-111846109D01*
X163674860Y-111761173D01*
X163699915Y-111736206D01*
X163756209Y-111680107D01*
X163833096Y-111603489D01*
X163892594Y-111520689D01*
X163960435Y-111426277D01*
X163963453Y-111422077D01*
X163976702Y-111395271D01*
X164060136Y-111226453D01*
X164060137Y-111226451D01*
X164062430Y-111221811D01*
X164120707Y-111030000D01*
X164125865Y-111013023D01*
X164125865Y-111013021D01*
X164127370Y-111008069D01*
X164156529Y-110786590D01*
X164156611Y-110783240D01*
X164158074Y-110723365D01*
X164158074Y-110723361D01*
X164158156Y-110720000D01*
X164139852Y-110497361D01*
X164085431Y-110280702D01*
X163996354Y-110075840D01*
X163875014Y-109888277D01*
X163724670Y-109723051D01*
X163720619Y-109719852D01*
X163720615Y-109719848D01*
X163553414Y-109587800D01*
X163553410Y-109587798D01*
X163549359Y-109584598D01*
X163353789Y-109476638D01*
X163348920Y-109474914D01*
X163348916Y-109474912D01*
X163148087Y-109403795D01*
X163148083Y-109403794D01*
X163143212Y-109402069D01*
X163138119Y-109401162D01*
X163138116Y-109401161D01*
X162928373Y-109363800D01*
X162928367Y-109363799D01*
X162923284Y-109362894D01*
X162849452Y-109361992D01*
X162705081Y-109360228D01*
X162705079Y-109360228D01*
X162699911Y-109360165D01*
X162479091Y-109393955D01*
X162266756Y-109463357D01*
X162068607Y-109566507D01*
X162064474Y-109569610D01*
X162064471Y-109569612D01*
X162040247Y-109587800D01*
X161889965Y-109700635D01*
X161735629Y-109862138D01*
X161628201Y-110019621D01*
X161573293Y-110064621D01*
X161502768Y-110072792D01*
X161439021Y-110041538D01*
X161418324Y-110017054D01*
X161337822Y-109892617D01*
X161337820Y-109892614D01*
X161335014Y-109888277D01*
X161184670Y-109723051D01*
X161180619Y-109719852D01*
X161180615Y-109719848D01*
X161013414Y-109587800D01*
X161013410Y-109587798D01*
X161009359Y-109584598D01*
X160813789Y-109476638D01*
X160808920Y-109474914D01*
X160808916Y-109474912D01*
X160608087Y-109403795D01*
X160608083Y-109403794D01*
X160603212Y-109402069D01*
X160598119Y-109401162D01*
X160598116Y-109401161D01*
X160388373Y-109363800D01*
X160388367Y-109363799D01*
X160383284Y-109362894D01*
X160309452Y-109361992D01*
X160165081Y-109360228D01*
X160165079Y-109360228D01*
X160159911Y-109360165D01*
X159939091Y-109393955D01*
X159726756Y-109463357D01*
X159528607Y-109566507D01*
X159524474Y-109569610D01*
X159524471Y-109569612D01*
X159500247Y-109587800D01*
X159349965Y-109700635D01*
X159195629Y-109862138D01*
X159069743Y-110046680D01*
X159054003Y-110080590D01*
X158978725Y-110242763D01*
X158975688Y-110249305D01*
X158915989Y-110464570D01*
X158892251Y-110686695D01*
X158892548Y-110691848D01*
X158892548Y-110691851D01*
X158901678Y-110850192D01*
X158905110Y-110909715D01*
X158906247Y-110914761D01*
X158906248Y-110914767D01*
X158926119Y-111002939D01*
X158954222Y-111127639D01*
X158992461Y-111221811D01*
X159033872Y-111323794D01*
X159038266Y-111334616D01*
X159075435Y-111395271D01*
X159152291Y-111520688D01*
X159154987Y-111525088D01*
X159301250Y-111693938D01*
X159473126Y-111836632D01*
X159489344Y-111846109D01*
X159546445Y-111879476D01*
X159595169Y-111931114D01*
X159608240Y-112000897D01*
X159581509Y-112066669D01*
X159541055Y-112100027D01*
X159528607Y-112106507D01*
X159524474Y-112109610D01*
X159524471Y-112109612D01*
X159354100Y-112237530D01*
X159349965Y-112240635D01*
X159346393Y-112244373D01*
X159260932Y-112333803D01*
X159195629Y-112402138D01*
X159192720Y-112406403D01*
X159192714Y-112406411D01*
X159190153Y-112410166D01*
X159069743Y-112586680D01*
X159054003Y-112620590D01*
X158997013Y-112743365D01*
X158975688Y-112789305D01*
X158915989Y-113004570D01*
X158892251Y-113226695D01*
X158892548Y-113231848D01*
X158892548Y-113231851D01*
X158904633Y-113441448D01*
X158905110Y-113449715D01*
X158906247Y-113454761D01*
X158906248Y-113454767D01*
X158928920Y-113555369D01*
X158954222Y-113667639D01*
X159038266Y-113874616D01*
X159077353Y-113938401D01*
X159152291Y-114060688D01*
X159154987Y-114065088D01*
X159301250Y-114233938D01*
X159473126Y-114376632D01*
X159543595Y-114417811D01*
X159546445Y-114419476D01*
X159595169Y-114471114D01*
X159608240Y-114540897D01*
X159581509Y-114606669D01*
X159541055Y-114640027D01*
X159528607Y-114646507D01*
X159524474Y-114649610D01*
X159524471Y-114649612D01*
X159368531Y-114766695D01*
X159349965Y-114780635D01*
X159195629Y-114942138D01*
X159192720Y-114946403D01*
X159192714Y-114946411D01*
X159163174Y-114989715D01*
X159069743Y-115126680D01*
X159052170Y-115164539D01*
X158986296Y-115306453D01*
X158975688Y-115329305D01*
X158915989Y-115544570D01*
X158892251Y-115766695D01*
X158892548Y-115771848D01*
X158892548Y-115771851D01*
X158900896Y-115916632D01*
X158905110Y-115989715D01*
X158906247Y-115994761D01*
X158906248Y-115994767D01*
X158925659Y-116080897D01*
X158954222Y-116207639D01*
X159038266Y-116414616D01*
X159077353Y-116478401D01*
X159152291Y-116600688D01*
X159154987Y-116605088D01*
X159301250Y-116773938D01*
X159473126Y-116916632D01*
X159529214Y-116949407D01*
X159546445Y-116959476D01*
X159595169Y-117011114D01*
X159608240Y-117080897D01*
X159581509Y-117146669D01*
X159541055Y-117180027D01*
X159528607Y-117186507D01*
X159524474Y-117189610D01*
X159524471Y-117189612D01*
X159354100Y-117317530D01*
X159349965Y-117320635D01*
X159310525Y-117361907D01*
X159256280Y-117418671D01*
X159195629Y-117482138D01*
X159069743Y-117666680D01*
X159067564Y-117671375D01*
X158986296Y-117846453D01*
X158975688Y-117869305D01*
X158915989Y-118084570D01*
X158892251Y-118306695D01*
X158892548Y-118311848D01*
X158892548Y-118311851D01*
X158900896Y-118456632D01*
X158905110Y-118529715D01*
X158906247Y-118534761D01*
X158906248Y-118534767D01*
X158923017Y-118609174D01*
X158954222Y-118747639D01*
X159038266Y-118954616D01*
X159040965Y-118959020D01*
X159136080Y-119114234D01*
X159154987Y-119145088D01*
X159301250Y-119313938D01*
X159473126Y-119456632D01*
X159666000Y-119569338D01*
X159670825Y-119571180D01*
X159670826Y-119571181D01*
X159714321Y-119587790D01*
X159770824Y-119630778D01*
X159795117Y-119697489D01*
X159779487Y-119766743D01*
X159728896Y-119816554D01*
X159669372Y-119831500D01*
X123342212Y-119831500D01*
X123274091Y-119811498D01*
X123227598Y-119757842D01*
X123217494Y-119687568D01*
X123246988Y-119622988D01*
X123306714Y-119584604D01*
X123316015Y-119582254D01*
X123325822Y-119580169D01*
X123325827Y-119580167D01*
X123332288Y-119578794D01*
X123338319Y-119576109D01*
X123500722Y-119503803D01*
X123500724Y-119503802D01*
X123506752Y-119501118D01*
X123661253Y-119388866D01*
X123696322Y-119349918D01*
X123784621Y-119251852D01*
X123784622Y-119251851D01*
X123789040Y-119246944D01*
X123865660Y-119114234D01*
X123881223Y-119087279D01*
X123881224Y-119087278D01*
X123884527Y-119081556D01*
X123943542Y-118899928D01*
X123963504Y-118710000D01*
X123956902Y-118647185D01*
X123944232Y-118526635D01*
X123944232Y-118526633D01*
X123943542Y-118520072D01*
X123884527Y-118338444D01*
X123870379Y-118313938D01*
X123820264Y-118227137D01*
X123789040Y-118173056D01*
X123675534Y-118046994D01*
X123665675Y-118036045D01*
X123665674Y-118036044D01*
X123661253Y-118031134D01*
X123506752Y-117918882D01*
X123500724Y-117916198D01*
X123500722Y-117916197D01*
X123338319Y-117843891D01*
X123338318Y-117843891D01*
X123332288Y-117841206D01*
X123238888Y-117821353D01*
X123151944Y-117802872D01*
X123151939Y-117802872D01*
X123145487Y-117801500D01*
X122954513Y-117801500D01*
X122948061Y-117802872D01*
X122948056Y-117802872D01*
X122861112Y-117821353D01*
X122767712Y-117841206D01*
X122761682Y-117843891D01*
X122761681Y-117843891D01*
X122599278Y-117916197D01*
X122599276Y-117916198D01*
X122593248Y-117918882D01*
X122438747Y-118031134D01*
X122434326Y-118036044D01*
X122434325Y-118036045D01*
X122424467Y-118046994D01*
X122310960Y-118173056D01*
X122279736Y-118227137D01*
X122229622Y-118313938D01*
X122215473Y-118338444D01*
X122156458Y-118520072D01*
X122155768Y-118526633D01*
X122155768Y-118526635D01*
X122143098Y-118647185D01*
X122136496Y-118710000D01*
X122156458Y-118899928D01*
X122215473Y-119081556D01*
X122218776Y-119087278D01*
X122218777Y-119087279D01*
X122234340Y-119114234D01*
X122310960Y-119246944D01*
X122315378Y-119251851D01*
X122315379Y-119251852D01*
X122403678Y-119349918D01*
X122438747Y-119388866D01*
X122593248Y-119501118D01*
X122599276Y-119503802D01*
X122599278Y-119503803D01*
X122761681Y-119576109D01*
X122767712Y-119578794D01*
X122774173Y-119580167D01*
X122774178Y-119580169D01*
X122783985Y-119582254D01*
X122846459Y-119615982D01*
X122880780Y-119678132D01*
X122876052Y-119748971D01*
X122833776Y-119806008D01*
X122767374Y-119831135D01*
X122757788Y-119831500D01*
X117329500Y-119831500D01*
X117261379Y-119811498D01*
X117214886Y-119757842D01*
X117203500Y-119705500D01*
X117203500Y-117318918D01*
X117681917Y-117318918D01*
X117682334Y-117326156D01*
X117697682Y-117592320D01*
X117750405Y-117861053D01*
X117751792Y-117865103D01*
X117751793Y-117865108D01*
X117830902Y-118096166D01*
X117839112Y-118120144D01*
X117868221Y-118178021D01*
X117946027Y-118332721D01*
X117962160Y-118364799D01*
X117964586Y-118368328D01*
X117964589Y-118368334D01*
X118104003Y-118571181D01*
X118117274Y-118590490D01*
X118120161Y-118593663D01*
X118120162Y-118593664D01*
X118215555Y-118698500D01*
X118301582Y-118793043D01*
X118511675Y-118968707D01*
X118515316Y-118970991D01*
X118740024Y-119111951D01*
X118740028Y-119111953D01*
X118743664Y-119114234D01*
X118811544Y-119144883D01*
X118989345Y-119225164D01*
X118989349Y-119225166D01*
X118993257Y-119226930D01*
X119052883Y-119244592D01*
X119251723Y-119303491D01*
X119251727Y-119303492D01*
X119255836Y-119304709D01*
X119260070Y-119305357D01*
X119260075Y-119305358D01*
X119522298Y-119345483D01*
X119522300Y-119345483D01*
X119526540Y-119346132D01*
X119665912Y-119348322D01*
X119796071Y-119350367D01*
X119796077Y-119350367D01*
X119800362Y-119350434D01*
X120072235Y-119317534D01*
X120337127Y-119248041D01*
X120341087Y-119246401D01*
X120341092Y-119246399D01*
X120463631Y-119195641D01*
X120590136Y-119143241D01*
X120826582Y-119005073D01*
X121042089Y-118836094D01*
X121083809Y-118793043D01*
X121180207Y-118693567D01*
X121232669Y-118639431D01*
X121235202Y-118635983D01*
X121235206Y-118635978D01*
X121392257Y-118422178D01*
X121394795Y-118418723D01*
X121396841Y-118414955D01*
X121523418Y-118181830D01*
X121523419Y-118181828D01*
X121525468Y-118178054D01*
X121595148Y-117993650D01*
X121620751Y-117925895D01*
X121620752Y-117925891D01*
X121622269Y-117921877D01*
X121663173Y-117743279D01*
X121682449Y-117659117D01*
X121682450Y-117659113D01*
X121683407Y-117654933D01*
X121685363Y-117633023D01*
X121707531Y-117384627D01*
X121707531Y-117384625D01*
X121707751Y-117382161D01*
X121708193Y-117340000D01*
X121702174Y-117251703D01*
X121689859Y-117071055D01*
X121689858Y-117071049D01*
X121689567Y-117066778D01*
X121683242Y-117036233D01*
X121634901Y-116802809D01*
X121634032Y-116798612D01*
X121542617Y-116540465D01*
X121480800Y-116420697D01*
X121418978Y-116300919D01*
X121418978Y-116300918D01*
X121417013Y-116297112D01*
X121407040Y-116282921D01*
X121307663Y-116141522D01*
X121259545Y-116073057D01*
X121177297Y-115984547D01*
X121076046Y-115875588D01*
X121076043Y-115875585D01*
X121073125Y-115872445D01*
X121069810Y-115869731D01*
X121069806Y-115869728D01*
X120864523Y-115701706D01*
X120861205Y-115698990D01*
X120627704Y-115555901D01*
X120611653Y-115548855D01*
X120380873Y-115447549D01*
X120380869Y-115447548D01*
X120376945Y-115445825D01*
X120113566Y-115370800D01*
X120109324Y-115370196D01*
X120109318Y-115370195D01*
X119908834Y-115341662D01*
X119842443Y-115332213D01*
X119698589Y-115331460D01*
X119572877Y-115330802D01*
X119572871Y-115330802D01*
X119568591Y-115330780D01*
X119564347Y-115331339D01*
X119564343Y-115331339D01*
X119445302Y-115347011D01*
X119297078Y-115366525D01*
X119292938Y-115367658D01*
X119292936Y-115367658D01*
X119220008Y-115387609D01*
X119032928Y-115438788D01*
X119028980Y-115440472D01*
X118784982Y-115544546D01*
X118784978Y-115544548D01*
X118781030Y-115546232D01*
X118682688Y-115605088D01*
X118549725Y-115684664D01*
X118549721Y-115684667D01*
X118546043Y-115686868D01*
X118332318Y-115858094D01*
X118262272Y-115931907D01*
X118156683Y-116043175D01*
X118143808Y-116056742D01*
X117984002Y-116279136D01*
X117855857Y-116521161D01*
X117854385Y-116525184D01*
X117854383Y-116525188D01*
X117763353Y-116773938D01*
X117761743Y-116778337D01*
X117703404Y-117045907D01*
X117681917Y-117318918D01*
X117203500Y-117318918D01*
X117203500Y-114766695D01*
X133427251Y-114766695D01*
X133427548Y-114771848D01*
X133427548Y-114771851D01*
X133433011Y-114866590D01*
X133440110Y-114989715D01*
X133441247Y-114994761D01*
X133441248Y-114994767D01*
X133461119Y-115082939D01*
X133489222Y-115207639D01*
X133573266Y-115414616D01*
X133624019Y-115497438D01*
X133687291Y-115600688D01*
X133689987Y-115605088D01*
X133836250Y-115773938D01*
X133863602Y-115796646D01*
X133906344Y-115832131D01*
X133945979Y-115891033D01*
X133947477Y-115962014D01*
X133910363Y-116022537D01*
X133879312Y-116043175D01*
X133872996Y-116046134D01*
X133866054Y-116048450D01*
X133715652Y-116141522D01*
X133710479Y-116146704D01*
X133655176Y-116202104D01*
X133590695Y-116266697D01*
X133586855Y-116272927D01*
X133586854Y-116272928D01*
X133502466Y-116409831D01*
X133497885Y-116417262D01*
X133478687Y-116475144D01*
X133457021Y-116540465D01*
X133442203Y-116585139D01*
X133431500Y-116689600D01*
X133431500Y-117990400D01*
X133431837Y-117993646D01*
X133431837Y-117993650D01*
X133441271Y-118084570D01*
X133442474Y-118096166D01*
X133444655Y-118102702D01*
X133444655Y-118102704D01*
X133488728Y-118234806D01*
X133498450Y-118263946D01*
X133591522Y-118414348D01*
X133716697Y-118539305D01*
X133722927Y-118543145D01*
X133722928Y-118543146D01*
X133860090Y-118627694D01*
X133867262Y-118632115D01*
X133921371Y-118650062D01*
X134028611Y-118685632D01*
X134028613Y-118685632D01*
X134035139Y-118687797D01*
X134041975Y-118688497D01*
X134041978Y-118688498D01*
X134081372Y-118692534D01*
X134139600Y-118698500D01*
X135440400Y-118698500D01*
X135443646Y-118698163D01*
X135443650Y-118698163D01*
X135539308Y-118688238D01*
X135539312Y-118688237D01*
X135546166Y-118687526D01*
X135552702Y-118685345D01*
X135552704Y-118685345D01*
X135700674Y-118635978D01*
X135713946Y-118631550D01*
X135864348Y-118538478D01*
X135989305Y-118413303D01*
X136017025Y-118368334D01*
X136078276Y-118268966D01*
X136082115Y-118262738D01*
X136084418Y-118255795D01*
X136086763Y-118250766D01*
X136133680Y-118197481D01*
X136201958Y-118178021D01*
X136269918Y-118198564D01*
X136296194Y-118221520D01*
X136372860Y-118310025D01*
X136376250Y-118313938D01*
X136548126Y-118456632D01*
X136741000Y-118569338D01*
X136949692Y-118649030D01*
X136954760Y-118650061D01*
X136954763Y-118650062D01*
X137062017Y-118671883D01*
X137168597Y-118693567D01*
X137173772Y-118693757D01*
X137173774Y-118693757D01*
X137386673Y-118701564D01*
X137386677Y-118701564D01*
X137391837Y-118701753D01*
X137396957Y-118701097D01*
X137396959Y-118701097D01*
X137608288Y-118674025D01*
X137608289Y-118674025D01*
X137613416Y-118673368D01*
X137618366Y-118671883D01*
X137822429Y-118610661D01*
X137822434Y-118610659D01*
X137827384Y-118609174D01*
X138027994Y-118510896D01*
X138209860Y-118381173D01*
X138226292Y-118364799D01*
X138291209Y-118300107D01*
X138368096Y-118223489D01*
X138403632Y-118174036D01*
X138498453Y-118042077D01*
X138499776Y-118043028D01*
X138546645Y-117999857D01*
X138616580Y-117987625D01*
X138682026Y-118015144D01*
X138709875Y-118046994D01*
X138769987Y-118145088D01*
X138916250Y-118313938D01*
X139088126Y-118456632D01*
X139281000Y-118569338D01*
X139489692Y-118649030D01*
X139494760Y-118650061D01*
X139494763Y-118650062D01*
X139602017Y-118671883D01*
X139708597Y-118693567D01*
X139713772Y-118693757D01*
X139713774Y-118693757D01*
X139926673Y-118701564D01*
X139926677Y-118701564D01*
X139931837Y-118701753D01*
X139936957Y-118701097D01*
X139936959Y-118701097D01*
X140148288Y-118674025D01*
X140148289Y-118674025D01*
X140153416Y-118673368D01*
X140158366Y-118671883D01*
X140362429Y-118610661D01*
X140362434Y-118610659D01*
X140367384Y-118609174D01*
X140567994Y-118510896D01*
X140749860Y-118381173D01*
X140766292Y-118364799D01*
X140831209Y-118300107D01*
X140908096Y-118223489D01*
X140943632Y-118174036D01*
X141038453Y-118042077D01*
X141039776Y-118043028D01*
X141086645Y-117999857D01*
X141156580Y-117987625D01*
X141222026Y-118015144D01*
X141249875Y-118046994D01*
X141309987Y-118145088D01*
X141456250Y-118313938D01*
X141628126Y-118456632D01*
X141821000Y-118569338D01*
X142029692Y-118649030D01*
X142034760Y-118650061D01*
X142034763Y-118650062D01*
X142142017Y-118671883D01*
X142248597Y-118693567D01*
X142253772Y-118693757D01*
X142253774Y-118693757D01*
X142466673Y-118701564D01*
X142466677Y-118701564D01*
X142471837Y-118701753D01*
X142476957Y-118701097D01*
X142476959Y-118701097D01*
X142688288Y-118674025D01*
X142688289Y-118674025D01*
X142693416Y-118673368D01*
X142698366Y-118671883D01*
X142902429Y-118610661D01*
X142902434Y-118610659D01*
X142907384Y-118609174D01*
X143107994Y-118510896D01*
X143289860Y-118381173D01*
X143306292Y-118364799D01*
X143371209Y-118300107D01*
X143448096Y-118223489D01*
X143483632Y-118174036D01*
X143578453Y-118042077D01*
X143579776Y-118043028D01*
X143626645Y-117999857D01*
X143696580Y-117987625D01*
X143762026Y-118015144D01*
X143789875Y-118046994D01*
X143849987Y-118145088D01*
X143996250Y-118313938D01*
X144168126Y-118456632D01*
X144361000Y-118569338D01*
X144569692Y-118649030D01*
X144574760Y-118650061D01*
X144574763Y-118650062D01*
X144682017Y-118671883D01*
X144788597Y-118693567D01*
X144793772Y-118693757D01*
X144793774Y-118693757D01*
X145006673Y-118701564D01*
X145006677Y-118701564D01*
X145011837Y-118701753D01*
X145016957Y-118701097D01*
X145016959Y-118701097D01*
X145228288Y-118674025D01*
X145228289Y-118674025D01*
X145233416Y-118673368D01*
X145238366Y-118671883D01*
X145442429Y-118610661D01*
X145442434Y-118610659D01*
X145447384Y-118609174D01*
X145647994Y-118510896D01*
X145829860Y-118381173D01*
X145846292Y-118364799D01*
X145911209Y-118300107D01*
X145988096Y-118223489D01*
X146023632Y-118174036D01*
X146118453Y-118042077D01*
X146119776Y-118043028D01*
X146166645Y-117999857D01*
X146236580Y-117987625D01*
X146302026Y-118015144D01*
X146329875Y-118046994D01*
X146389987Y-118145088D01*
X146536250Y-118313938D01*
X146708126Y-118456632D01*
X146901000Y-118569338D01*
X147109692Y-118649030D01*
X147114760Y-118650061D01*
X147114763Y-118650062D01*
X147222017Y-118671883D01*
X147328597Y-118693567D01*
X147333772Y-118693757D01*
X147333774Y-118693757D01*
X147546673Y-118701564D01*
X147546677Y-118701564D01*
X147551837Y-118701753D01*
X147556957Y-118701097D01*
X147556959Y-118701097D01*
X147768288Y-118674025D01*
X147768289Y-118674025D01*
X147773416Y-118673368D01*
X147778366Y-118671883D01*
X147982429Y-118610661D01*
X147982434Y-118610659D01*
X147987384Y-118609174D01*
X148187994Y-118510896D01*
X148369860Y-118381173D01*
X148386292Y-118364799D01*
X148451209Y-118300107D01*
X148528096Y-118223489D01*
X148563632Y-118174036D01*
X148658453Y-118042077D01*
X148659776Y-118043028D01*
X148706645Y-117999857D01*
X148776580Y-117987625D01*
X148842026Y-118015144D01*
X148869875Y-118046994D01*
X148929987Y-118145088D01*
X149076250Y-118313938D01*
X149248126Y-118456632D01*
X149441000Y-118569338D01*
X149649692Y-118649030D01*
X149654760Y-118650061D01*
X149654763Y-118650062D01*
X149762017Y-118671883D01*
X149868597Y-118693567D01*
X149873772Y-118693757D01*
X149873774Y-118693757D01*
X150086673Y-118701564D01*
X150086677Y-118701564D01*
X150091837Y-118701753D01*
X150096957Y-118701097D01*
X150096959Y-118701097D01*
X150308288Y-118674025D01*
X150308289Y-118674025D01*
X150313416Y-118673368D01*
X150318366Y-118671883D01*
X150522429Y-118610661D01*
X150522434Y-118610659D01*
X150527384Y-118609174D01*
X150727994Y-118510896D01*
X150909860Y-118381173D01*
X150926292Y-118364799D01*
X150991209Y-118300107D01*
X151068096Y-118223489D01*
X151103632Y-118174036D01*
X151198453Y-118042077D01*
X151199776Y-118043028D01*
X151246645Y-117999857D01*
X151316580Y-117987625D01*
X151382026Y-118015144D01*
X151409875Y-118046994D01*
X151469987Y-118145088D01*
X151616250Y-118313938D01*
X151788126Y-118456632D01*
X151981000Y-118569338D01*
X152189692Y-118649030D01*
X152194760Y-118650061D01*
X152194763Y-118650062D01*
X152302017Y-118671883D01*
X152408597Y-118693567D01*
X152413772Y-118693757D01*
X152413774Y-118693757D01*
X152626673Y-118701564D01*
X152626677Y-118701564D01*
X152631837Y-118701753D01*
X152636957Y-118701097D01*
X152636959Y-118701097D01*
X152848288Y-118674025D01*
X152848289Y-118674025D01*
X152853416Y-118673368D01*
X152858366Y-118671883D01*
X153062429Y-118610661D01*
X153062434Y-118610659D01*
X153067384Y-118609174D01*
X153267994Y-118510896D01*
X153449860Y-118381173D01*
X153466292Y-118364799D01*
X153531209Y-118300107D01*
X153608096Y-118223489D01*
X153643632Y-118174036D01*
X153735435Y-118046277D01*
X153738453Y-118042077D01*
X153743862Y-118031134D01*
X153835136Y-117846453D01*
X153835137Y-117846451D01*
X153837430Y-117841811D01*
X153902370Y-117628069D01*
X153931529Y-117406590D01*
X153931630Y-117402476D01*
X153933074Y-117343365D01*
X153933074Y-117343361D01*
X153933156Y-117340000D01*
X153914852Y-117117361D01*
X153860431Y-116900702D01*
X153771354Y-116695840D01*
X153673452Y-116544506D01*
X153652822Y-116512617D01*
X153652820Y-116512614D01*
X153650014Y-116508277D01*
X153499670Y-116343051D01*
X153495619Y-116339852D01*
X153495615Y-116339848D01*
X153328414Y-116207800D01*
X153328410Y-116207798D01*
X153324359Y-116204598D01*
X153283053Y-116181796D01*
X153233084Y-116131364D01*
X153218312Y-116061921D01*
X153243428Y-115995516D01*
X153270780Y-115968909D01*
X153335110Y-115923023D01*
X153449860Y-115841173D01*
X153608096Y-115683489D01*
X153667594Y-115600689D01*
X153735435Y-115506277D01*
X153738453Y-115502077D01*
X153751995Y-115474678D01*
X153835136Y-115306453D01*
X153835137Y-115306451D01*
X153837430Y-115301811D01*
X153902370Y-115088069D01*
X153931529Y-114866590D01*
X153933156Y-114800000D01*
X153914852Y-114577361D01*
X153860431Y-114360702D01*
X153771354Y-114155840D01*
X153650014Y-113968277D01*
X153499670Y-113803051D01*
X153495619Y-113799852D01*
X153495615Y-113799848D01*
X153328414Y-113667800D01*
X153328410Y-113667798D01*
X153324359Y-113664598D01*
X153128789Y-113556638D01*
X153123920Y-113554914D01*
X153123916Y-113554912D01*
X152923087Y-113483795D01*
X152923083Y-113483794D01*
X152918212Y-113482069D01*
X152913119Y-113481162D01*
X152913116Y-113481161D01*
X152703373Y-113443800D01*
X152703367Y-113443799D01*
X152698284Y-113442894D01*
X152624452Y-113441992D01*
X152480081Y-113440228D01*
X152480079Y-113440228D01*
X152474911Y-113440165D01*
X152254091Y-113473955D01*
X152041756Y-113543357D01*
X151843607Y-113646507D01*
X151839474Y-113649610D01*
X151839471Y-113649612D01*
X151669100Y-113777530D01*
X151664965Y-113780635D01*
X151661393Y-113784373D01*
X151517313Y-113935144D01*
X151510629Y-113942138D01*
X151507720Y-113946403D01*
X151507714Y-113946411D01*
X151496379Y-113963028D01*
X151403204Y-114099618D01*
X151402898Y-114100066D01*
X151347987Y-114145069D01*
X151277462Y-114153240D01*
X151213715Y-114121986D01*
X151193017Y-114097501D01*
X151163062Y-114051197D01*
X151152377Y-114041995D01*
X151142812Y-114046398D01*
X150402022Y-114787188D01*
X150394408Y-114801132D01*
X150394539Y-114802965D01*
X150398790Y-114809580D01*
X151140474Y-115551264D01*
X151152484Y-115557823D01*
X151164223Y-115548855D01*
X151198022Y-115501819D01*
X151199277Y-115502721D01*
X151246391Y-115459355D01*
X151316330Y-115447148D01*
X151381767Y-115474691D01*
X151409580Y-115506513D01*
X151467287Y-115600683D01*
X151467291Y-115600688D01*
X151469987Y-115605088D01*
X151616250Y-115773938D01*
X151788126Y-115916632D01*
X151799063Y-115923023D01*
X151861445Y-115959476D01*
X151910169Y-116011114D01*
X151923240Y-116080897D01*
X151896509Y-116146669D01*
X151856055Y-116180027D01*
X151843607Y-116186507D01*
X151839474Y-116189610D01*
X151839471Y-116189612D01*
X151669100Y-116317530D01*
X151664965Y-116320635D01*
X151661393Y-116324373D01*
X151517313Y-116475144D01*
X151510629Y-116482138D01*
X151403201Y-116639621D01*
X151348293Y-116684621D01*
X151277768Y-116692792D01*
X151214021Y-116661538D01*
X151193324Y-116637054D01*
X151112822Y-116512617D01*
X151112820Y-116512614D01*
X151110014Y-116508277D01*
X150959670Y-116343051D01*
X150955619Y-116339852D01*
X150955615Y-116339848D01*
X150788414Y-116207800D01*
X150788410Y-116207798D01*
X150784359Y-116204598D01*
X150742569Y-116181529D01*
X150692598Y-116131097D01*
X150677826Y-116061654D01*
X150702942Y-115995248D01*
X150730293Y-115968642D01*
X150779247Y-115933723D01*
X150787648Y-115923023D01*
X150780660Y-115909870D01*
X150042812Y-115172022D01*
X150028868Y-115164408D01*
X150027035Y-115164539D01*
X150020420Y-115168790D01*
X149276737Y-115912473D01*
X149269977Y-115924853D01*
X149275258Y-115931907D01*
X149321969Y-115959203D01*
X149370693Y-116010841D01*
X149383764Y-116080624D01*
X149357033Y-116146396D01*
X149316584Y-116179752D01*
X149303607Y-116186507D01*
X149299474Y-116189610D01*
X149299471Y-116189612D01*
X149129100Y-116317530D01*
X149124965Y-116320635D01*
X149121393Y-116324373D01*
X148977313Y-116475144D01*
X148970629Y-116482138D01*
X148863201Y-116639621D01*
X148808293Y-116684621D01*
X148737768Y-116692792D01*
X148674021Y-116661538D01*
X148653324Y-116637054D01*
X148572822Y-116512617D01*
X148572820Y-116512614D01*
X148570014Y-116508277D01*
X148419670Y-116343051D01*
X148415619Y-116339852D01*
X148415615Y-116339848D01*
X148248414Y-116207800D01*
X148248410Y-116207798D01*
X148244359Y-116204598D01*
X148203053Y-116181796D01*
X148153084Y-116131364D01*
X148138312Y-116061921D01*
X148163428Y-115995516D01*
X148190780Y-115968909D01*
X148255110Y-115923023D01*
X148369860Y-115841173D01*
X148528096Y-115683489D01*
X148587594Y-115600689D01*
X148658453Y-115502077D01*
X148659640Y-115502930D01*
X148706960Y-115459362D01*
X148776897Y-115447145D01*
X148842338Y-115474678D01*
X148870166Y-115506512D01*
X148896459Y-115549419D01*
X148906916Y-115558880D01*
X148915694Y-115555096D01*
X149657978Y-114812812D01*
X149665592Y-114798868D01*
X149665461Y-114797035D01*
X149661210Y-114790420D01*
X148919849Y-114049059D01*
X148908313Y-114042759D01*
X148896031Y-114052382D01*
X148863499Y-114100072D01*
X148808587Y-114145075D01*
X148738063Y-114153246D01*
X148674316Y-114121992D01*
X148653618Y-114097508D01*
X148572822Y-113972617D01*
X148572820Y-113972614D01*
X148570014Y-113968277D01*
X148419670Y-113803051D01*
X148415619Y-113799852D01*
X148415615Y-113799848D01*
X148259338Y-113676427D01*
X149271223Y-113676427D01*
X149277968Y-113688758D01*
X150017188Y-114427978D01*
X150031132Y-114435592D01*
X150032965Y-114435461D01*
X150039580Y-114431210D01*
X150783389Y-113687401D01*
X150790410Y-113674544D01*
X150783611Y-113665213D01*
X150779554Y-113662518D01*
X150593117Y-113559599D01*
X150583705Y-113555369D01*
X150382959Y-113484280D01*
X150372989Y-113481646D01*
X150163327Y-113444301D01*
X150153073Y-113443331D01*
X149940116Y-113440728D01*
X149929832Y-113441448D01*
X149719321Y-113473661D01*
X149709293Y-113476050D01*
X149506868Y-113542212D01*
X149497359Y-113546209D01*
X149308466Y-113644540D01*
X149299734Y-113650039D01*
X149279677Y-113665099D01*
X149271223Y-113676427D01*
X148259338Y-113676427D01*
X148248414Y-113667800D01*
X148248410Y-113667798D01*
X148244359Y-113664598D01*
X148048789Y-113556638D01*
X148043920Y-113554914D01*
X148043916Y-113554912D01*
X147843087Y-113483795D01*
X147843083Y-113483794D01*
X147838212Y-113482069D01*
X147833119Y-113481162D01*
X147833116Y-113481161D01*
X147623373Y-113443800D01*
X147623367Y-113443799D01*
X147618284Y-113442894D01*
X147544452Y-113441992D01*
X147400081Y-113440228D01*
X147400079Y-113440228D01*
X147394911Y-113440165D01*
X147174091Y-113473955D01*
X146961756Y-113543357D01*
X146763607Y-113646507D01*
X146759474Y-113649610D01*
X146759471Y-113649612D01*
X146589100Y-113777530D01*
X146584965Y-113780635D01*
X146581393Y-113784373D01*
X146437313Y-113935144D01*
X146430629Y-113942138D01*
X146323201Y-114099621D01*
X146268293Y-114144621D01*
X146197768Y-114152792D01*
X146134021Y-114121538D01*
X146113324Y-114097054D01*
X146032822Y-113972617D01*
X146032820Y-113972614D01*
X146030014Y-113968277D01*
X145879670Y-113803051D01*
X145875619Y-113799852D01*
X145875615Y-113799848D01*
X145708414Y-113667800D01*
X145708410Y-113667798D01*
X145704359Y-113664598D01*
X145508789Y-113556638D01*
X145503920Y-113554914D01*
X145503916Y-113554912D01*
X145303087Y-113483795D01*
X145303083Y-113483794D01*
X145298212Y-113482069D01*
X145293119Y-113481162D01*
X145293116Y-113481161D01*
X145083373Y-113443800D01*
X145083367Y-113443799D01*
X145078284Y-113442894D01*
X145004452Y-113441992D01*
X144860081Y-113440228D01*
X144860079Y-113440228D01*
X144854911Y-113440165D01*
X144634091Y-113473955D01*
X144421756Y-113543357D01*
X144223607Y-113646507D01*
X144219474Y-113649610D01*
X144219471Y-113649612D01*
X144049100Y-113777530D01*
X144044965Y-113780635D01*
X144041393Y-113784373D01*
X143897313Y-113935144D01*
X143890629Y-113942138D01*
X143783201Y-114099621D01*
X143728293Y-114144621D01*
X143657768Y-114152792D01*
X143594021Y-114121538D01*
X143573324Y-114097054D01*
X143492822Y-113972617D01*
X143492820Y-113972614D01*
X143490014Y-113968277D01*
X143339670Y-113803051D01*
X143335619Y-113799852D01*
X143335615Y-113799848D01*
X143168414Y-113667800D01*
X143168410Y-113667798D01*
X143164359Y-113664598D01*
X142968789Y-113556638D01*
X142963920Y-113554914D01*
X142963916Y-113554912D01*
X142763087Y-113483795D01*
X142763083Y-113483794D01*
X142758212Y-113482069D01*
X142753119Y-113481162D01*
X142753116Y-113481161D01*
X142543373Y-113443800D01*
X142543367Y-113443799D01*
X142538284Y-113442894D01*
X142464452Y-113441992D01*
X142320081Y-113440228D01*
X142320079Y-113440228D01*
X142314911Y-113440165D01*
X142094091Y-113473955D01*
X141881756Y-113543357D01*
X141683607Y-113646507D01*
X141679474Y-113649610D01*
X141679471Y-113649612D01*
X141509100Y-113777530D01*
X141504965Y-113780635D01*
X141501393Y-113784373D01*
X141357313Y-113935144D01*
X141350629Y-113942138D01*
X141243201Y-114099621D01*
X141188293Y-114144621D01*
X141117768Y-114152792D01*
X141054021Y-114121538D01*
X141033324Y-114097054D01*
X140952822Y-113972617D01*
X140952820Y-113972614D01*
X140950014Y-113968277D01*
X140799670Y-113803051D01*
X140795619Y-113799852D01*
X140795615Y-113799848D01*
X140628414Y-113667800D01*
X140628410Y-113667798D01*
X140624359Y-113664598D01*
X140428789Y-113556638D01*
X140423920Y-113554914D01*
X140423916Y-113554912D01*
X140223087Y-113483795D01*
X140223083Y-113483794D01*
X140218212Y-113482069D01*
X140213119Y-113481162D01*
X140213116Y-113481161D01*
X140003373Y-113443800D01*
X140003367Y-113443799D01*
X139998284Y-113442894D01*
X139924452Y-113441992D01*
X139780081Y-113440228D01*
X139780079Y-113440228D01*
X139774911Y-113440165D01*
X139554091Y-113473955D01*
X139341756Y-113543357D01*
X139143607Y-113646507D01*
X139139474Y-113649610D01*
X139139471Y-113649612D01*
X138969100Y-113777530D01*
X138964965Y-113780635D01*
X138961393Y-113784373D01*
X138817313Y-113935144D01*
X138810629Y-113942138D01*
X138703201Y-114099621D01*
X138648293Y-114144621D01*
X138577768Y-114152792D01*
X138514021Y-114121538D01*
X138493324Y-114097054D01*
X138412822Y-113972617D01*
X138412820Y-113972614D01*
X138410014Y-113968277D01*
X138259670Y-113803051D01*
X138255619Y-113799852D01*
X138255615Y-113799848D01*
X138088414Y-113667800D01*
X138088410Y-113667798D01*
X138084359Y-113664598D01*
X137888789Y-113556638D01*
X137883920Y-113554914D01*
X137883916Y-113554912D01*
X137683087Y-113483795D01*
X137683083Y-113483794D01*
X137678212Y-113482069D01*
X137673119Y-113481162D01*
X137673116Y-113481161D01*
X137463373Y-113443800D01*
X137463367Y-113443799D01*
X137458284Y-113442894D01*
X137384452Y-113441992D01*
X137240081Y-113440228D01*
X137240079Y-113440228D01*
X137234911Y-113440165D01*
X137014091Y-113473955D01*
X136801756Y-113543357D01*
X136603607Y-113646507D01*
X136599474Y-113649610D01*
X136599471Y-113649612D01*
X136429100Y-113777530D01*
X136424965Y-113780635D01*
X136421393Y-113784373D01*
X136277313Y-113935144D01*
X136270629Y-113942138D01*
X136163201Y-114099621D01*
X136108293Y-114144621D01*
X136037768Y-114152792D01*
X135974021Y-114121538D01*
X135953324Y-114097054D01*
X135872822Y-113972617D01*
X135872820Y-113972614D01*
X135870014Y-113968277D01*
X135719670Y-113803051D01*
X135715619Y-113799852D01*
X135715615Y-113799848D01*
X135548414Y-113667800D01*
X135548410Y-113667798D01*
X135544359Y-113664598D01*
X135348789Y-113556638D01*
X135343920Y-113554914D01*
X135343916Y-113554912D01*
X135143087Y-113483795D01*
X135143083Y-113483794D01*
X135138212Y-113482069D01*
X135133119Y-113481162D01*
X135133116Y-113481161D01*
X134923373Y-113443800D01*
X134923367Y-113443799D01*
X134918284Y-113442894D01*
X134844452Y-113441992D01*
X134700081Y-113440228D01*
X134700079Y-113440228D01*
X134694911Y-113440165D01*
X134474091Y-113473955D01*
X134261756Y-113543357D01*
X134063607Y-113646507D01*
X134059474Y-113649610D01*
X134059471Y-113649612D01*
X133889100Y-113777530D01*
X133884965Y-113780635D01*
X133881393Y-113784373D01*
X133737313Y-113935144D01*
X133730629Y-113942138D01*
X133727720Y-113946403D01*
X133727714Y-113946411D01*
X133716379Y-113963028D01*
X133604743Y-114126680D01*
X133589003Y-114160590D01*
X133522355Y-114304171D01*
X133510688Y-114329305D01*
X133450989Y-114544570D01*
X133427251Y-114766695D01*
X117203500Y-114766695D01*
X117203500Y-112560000D01*
X147846496Y-112560000D01*
X147866458Y-112749928D01*
X147925473Y-112931556D01*
X148020960Y-113096944D01*
X148148747Y-113238866D01*
X148303248Y-113351118D01*
X148309276Y-113353802D01*
X148309278Y-113353803D01*
X148471681Y-113426109D01*
X148477712Y-113428794D01*
X148551824Y-113444547D01*
X148658056Y-113467128D01*
X148658061Y-113467128D01*
X148664513Y-113468500D01*
X148855487Y-113468500D01*
X148861939Y-113467128D01*
X148861944Y-113467128D01*
X148968176Y-113444547D01*
X149042288Y-113428794D01*
X149048319Y-113426109D01*
X149210722Y-113353803D01*
X149210724Y-113353802D01*
X149216752Y-113351118D01*
X149371253Y-113238866D01*
X149499040Y-113096944D01*
X149594527Y-112931556D01*
X149653542Y-112749928D01*
X149673504Y-112560000D01*
X149657612Y-112408794D01*
X149654232Y-112376635D01*
X149654232Y-112376633D01*
X149653542Y-112370072D01*
X149594527Y-112188444D01*
X149499040Y-112023056D01*
X149388390Y-111900166D01*
X149375675Y-111886045D01*
X149375674Y-111886044D01*
X149371253Y-111881134D01*
X149216752Y-111768882D01*
X149210724Y-111766198D01*
X149210722Y-111766197D01*
X149048319Y-111693891D01*
X149048318Y-111693891D01*
X149042288Y-111691206D01*
X148948887Y-111671353D01*
X148861944Y-111652872D01*
X148861939Y-111652872D01*
X148855487Y-111651500D01*
X148664513Y-111651500D01*
X148658061Y-111652872D01*
X148658056Y-111652872D01*
X148571112Y-111671353D01*
X148477712Y-111691206D01*
X148471682Y-111693891D01*
X148471681Y-111693891D01*
X148309278Y-111766197D01*
X148309276Y-111766198D01*
X148303248Y-111768882D01*
X148148747Y-111881134D01*
X148144326Y-111886044D01*
X148144325Y-111886045D01*
X148131611Y-111900166D01*
X148020960Y-112023056D01*
X147925473Y-112188444D01*
X147866458Y-112370072D01*
X147865768Y-112376633D01*
X147865768Y-112376635D01*
X147862388Y-112408794D01*
X147846496Y-112560000D01*
X117203500Y-112560000D01*
X117203500Y-111520000D01*
X122296496Y-111520000D01*
X122316458Y-111709928D01*
X122375473Y-111891556D01*
X122470960Y-112056944D01*
X122475378Y-112061851D01*
X122475379Y-112061852D01*
X122515587Y-112106507D01*
X122598747Y-112198866D01*
X122753248Y-112311118D01*
X122759276Y-112313802D01*
X122759278Y-112313803D01*
X122885661Y-112370072D01*
X122927712Y-112388794D01*
X123010593Y-112406411D01*
X123108056Y-112427128D01*
X123108061Y-112427128D01*
X123114513Y-112428500D01*
X123305487Y-112428500D01*
X123311939Y-112427128D01*
X123311944Y-112427128D01*
X123409407Y-112406411D01*
X123492288Y-112388794D01*
X123534339Y-112370072D01*
X123660722Y-112313803D01*
X123660724Y-112313802D01*
X123666752Y-112311118D01*
X123793726Y-112218866D01*
X123821253Y-112198866D01*
X123822117Y-112200055D01*
X123879236Y-112172640D01*
X123949690Y-112181402D01*
X123989183Y-112209808D01*
X123989423Y-112209541D01*
X123991848Y-112211724D01*
X123993178Y-112212681D01*
X123998747Y-112218866D01*
X124153248Y-112331118D01*
X124159276Y-112333802D01*
X124159278Y-112333803D01*
X124312762Y-112402138D01*
X124327712Y-112408794D01*
X124413966Y-112427128D01*
X124508056Y-112447128D01*
X124508061Y-112447128D01*
X124514513Y-112448500D01*
X124705487Y-112448500D01*
X124711939Y-112447128D01*
X124711944Y-112447128D01*
X124806034Y-112427128D01*
X124892288Y-112408794D01*
X124907238Y-112402138D01*
X125060722Y-112333803D01*
X125060724Y-112333802D01*
X125066752Y-112331118D01*
X125221253Y-112218866D01*
X125235765Y-112202749D01*
X125344621Y-112081852D01*
X125344622Y-112081851D01*
X125349040Y-112076944D01*
X125444527Y-111911556D01*
X125503542Y-111729928D01*
X125523504Y-111540000D01*
X125511627Y-111426994D01*
X125504232Y-111356635D01*
X125504232Y-111356633D01*
X125503542Y-111350072D01*
X125444527Y-111168444D01*
X125349040Y-111003056D01*
X125336181Y-110988774D01*
X125328281Y-110980000D01*
X131876496Y-110980000D01*
X131877186Y-110986565D01*
X131895701Y-111162721D01*
X131896458Y-111169928D01*
X131955473Y-111351556D01*
X132050960Y-111516944D01*
X132055378Y-111521851D01*
X132055379Y-111521852D01*
X132095980Y-111566944D01*
X132178747Y-111658866D01*
X132333248Y-111771118D01*
X132339276Y-111773802D01*
X132339278Y-111773803D01*
X132501681Y-111846109D01*
X132507712Y-111848794D01*
X132601112Y-111868647D01*
X132688056Y-111887128D01*
X132688061Y-111887128D01*
X132694513Y-111888500D01*
X132885487Y-111888500D01*
X132891939Y-111887128D01*
X132891944Y-111887128D01*
X132978888Y-111868647D01*
X133072288Y-111848794D01*
X133078319Y-111846109D01*
X133240722Y-111773803D01*
X133240724Y-111773802D01*
X133246752Y-111771118D01*
X133401253Y-111658866D01*
X133484020Y-111566944D01*
X133524621Y-111521852D01*
X133524622Y-111521851D01*
X133529040Y-111516944D01*
X133624527Y-111351556D01*
X133683542Y-111169928D01*
X133684300Y-111162721D01*
X133698249Y-111030000D01*
X135126496Y-111030000D01*
X135127186Y-111036565D01*
X135145171Y-111207680D01*
X135146458Y-111219928D01*
X135205473Y-111401556D01*
X135300960Y-111566944D01*
X135305378Y-111571851D01*
X135305379Y-111571852D01*
X135411788Y-111690031D01*
X135428747Y-111708866D01*
X135583248Y-111821118D01*
X135589276Y-111823802D01*
X135589278Y-111823803D01*
X135741455Y-111891556D01*
X135757712Y-111898794D01*
X135844677Y-111917279D01*
X135938056Y-111937128D01*
X135938061Y-111937128D01*
X135944513Y-111938500D01*
X136135487Y-111938500D01*
X136141939Y-111937128D01*
X136141944Y-111937128D01*
X136235323Y-111917279D01*
X136322288Y-111898794D01*
X136338545Y-111891556D01*
X136490722Y-111823803D01*
X136490724Y-111823802D01*
X136496752Y-111821118D01*
X136651253Y-111708866D01*
X136668212Y-111690031D01*
X136774621Y-111571852D01*
X136774622Y-111571851D01*
X136779040Y-111566944D01*
X136874527Y-111401556D01*
X136933542Y-111219928D01*
X136934830Y-111207680D01*
X136952814Y-111036565D01*
X136953504Y-111030000D01*
X136934404Y-110848276D01*
X136934232Y-110846635D01*
X136934232Y-110846633D01*
X136933542Y-110840072D01*
X136874527Y-110658444D01*
X136779040Y-110493056D01*
X136758017Y-110469707D01*
X136655675Y-110356045D01*
X136655674Y-110356044D01*
X136651253Y-110351134D01*
X136496752Y-110238882D01*
X136490724Y-110236198D01*
X136490722Y-110236197D01*
X136328319Y-110163891D01*
X136328318Y-110163891D01*
X136322288Y-110161206D01*
X136228888Y-110141353D01*
X136141944Y-110122872D01*
X136141939Y-110122872D01*
X136135487Y-110121500D01*
X135944513Y-110121500D01*
X135938061Y-110122872D01*
X135938056Y-110122872D01*
X135851112Y-110141353D01*
X135757712Y-110161206D01*
X135751682Y-110163891D01*
X135751681Y-110163891D01*
X135589278Y-110236197D01*
X135589276Y-110236198D01*
X135583248Y-110238882D01*
X135428747Y-110351134D01*
X135424326Y-110356044D01*
X135424325Y-110356045D01*
X135321984Y-110469707D01*
X135300960Y-110493056D01*
X135205473Y-110658444D01*
X135146458Y-110840072D01*
X135145768Y-110846633D01*
X135145768Y-110846635D01*
X135145596Y-110848276D01*
X135126496Y-111030000D01*
X133698249Y-111030000D01*
X133702814Y-110986565D01*
X133703504Y-110980000D01*
X133689861Y-110850192D01*
X133684232Y-110796635D01*
X133684232Y-110796633D01*
X133683542Y-110790072D01*
X133624527Y-110608444D01*
X133529040Y-110443056D01*
X133401253Y-110301134D01*
X133246752Y-110188882D01*
X133240724Y-110186198D01*
X133240722Y-110186197D01*
X133078319Y-110113891D01*
X133078318Y-110113891D01*
X133072288Y-110111206D01*
X132978887Y-110091353D01*
X132891944Y-110072872D01*
X132891939Y-110072872D01*
X132885487Y-110071500D01*
X132694513Y-110071500D01*
X132688061Y-110072872D01*
X132688056Y-110072872D01*
X132601113Y-110091353D01*
X132507712Y-110111206D01*
X132501682Y-110113891D01*
X132501681Y-110113891D01*
X132339278Y-110186197D01*
X132339276Y-110186198D01*
X132333248Y-110188882D01*
X132178747Y-110301134D01*
X132050960Y-110443056D01*
X131955473Y-110608444D01*
X131896458Y-110790072D01*
X131895768Y-110796633D01*
X131895768Y-110796635D01*
X131890139Y-110850192D01*
X131876496Y-110980000D01*
X125328281Y-110980000D01*
X125225675Y-110866045D01*
X125225674Y-110866044D01*
X125221253Y-110861134D01*
X125066752Y-110748882D01*
X125060724Y-110746198D01*
X125060722Y-110746197D01*
X124898319Y-110673891D01*
X124898318Y-110673891D01*
X124892288Y-110671206D01*
X124791741Y-110649834D01*
X124711944Y-110632872D01*
X124711939Y-110632872D01*
X124705487Y-110631500D01*
X124514513Y-110631500D01*
X124508061Y-110632872D01*
X124508056Y-110632872D01*
X124428259Y-110649834D01*
X124327712Y-110671206D01*
X124321682Y-110673891D01*
X124321681Y-110673891D01*
X124159278Y-110746197D01*
X124159276Y-110746198D01*
X124153248Y-110748882D01*
X124147907Y-110752762D01*
X124147906Y-110752763D01*
X124019523Y-110846039D01*
X123998747Y-110861134D01*
X123997883Y-110859945D01*
X123940764Y-110887360D01*
X123870310Y-110878598D01*
X123830817Y-110850192D01*
X123830577Y-110850459D01*
X123828152Y-110848276D01*
X123826822Y-110847319D01*
X123821253Y-110841134D01*
X123666752Y-110728882D01*
X123660724Y-110726198D01*
X123660722Y-110726197D01*
X123498319Y-110653891D01*
X123498318Y-110653891D01*
X123492288Y-110651206D01*
X123398888Y-110631353D01*
X123311944Y-110612872D01*
X123311939Y-110612872D01*
X123305487Y-110611500D01*
X123114513Y-110611500D01*
X123108061Y-110612872D01*
X123108056Y-110612872D01*
X123021112Y-110631353D01*
X122927712Y-110651206D01*
X122921682Y-110653891D01*
X122921681Y-110653891D01*
X122759278Y-110726197D01*
X122759276Y-110726198D01*
X122753248Y-110728882D01*
X122598747Y-110841134D01*
X122594326Y-110846044D01*
X122594325Y-110846045D01*
X122500996Y-110949698D01*
X122470960Y-110983056D01*
X122467659Y-110988774D01*
X122384722Y-111132425D01*
X122375473Y-111148444D01*
X122316458Y-111330072D01*
X122315768Y-111336633D01*
X122315768Y-111336635D01*
X122306271Y-111426994D01*
X122296496Y-111520000D01*
X117203500Y-111520000D01*
X117203500Y-105940000D01*
X132346496Y-105940000D01*
X132366458Y-106129928D01*
X132425473Y-106311556D01*
X132428776Y-106317278D01*
X132428777Y-106317279D01*
X132449256Y-106352749D01*
X132520960Y-106476944D01*
X132648747Y-106618866D01*
X132803248Y-106731118D01*
X132809276Y-106733802D01*
X132809278Y-106733803D01*
X132971681Y-106806109D01*
X132977712Y-106808794D01*
X133071112Y-106828647D01*
X133158056Y-106847128D01*
X133158061Y-106847128D01*
X133164513Y-106848500D01*
X133355487Y-106848500D01*
X133361939Y-106847128D01*
X133361944Y-106847128D01*
X133448887Y-106828647D01*
X133542288Y-106808794D01*
X133548319Y-106806109D01*
X133710722Y-106733803D01*
X133710724Y-106733802D01*
X133716752Y-106731118D01*
X133871253Y-106618866D01*
X133999040Y-106476944D01*
X134070744Y-106352749D01*
X134091223Y-106317279D01*
X134091224Y-106317278D01*
X134094527Y-106311556D01*
X134153542Y-106129928D01*
X134173504Y-105940000D01*
X134169283Y-105899835D01*
X134154232Y-105756635D01*
X134154232Y-105756633D01*
X134153542Y-105750072D01*
X134094527Y-105568444D01*
X133999040Y-105403056D01*
X133963697Y-105363803D01*
X133875675Y-105266045D01*
X133875674Y-105266044D01*
X133871253Y-105261134D01*
X133716752Y-105148882D01*
X133710724Y-105146198D01*
X133710722Y-105146197D01*
X133548319Y-105073891D01*
X133548318Y-105073891D01*
X133542288Y-105071206D01*
X133448888Y-105051353D01*
X133361944Y-105032872D01*
X133361939Y-105032872D01*
X133355487Y-105031500D01*
X133164513Y-105031500D01*
X133158061Y-105032872D01*
X133158056Y-105032872D01*
X133071112Y-105051353D01*
X132977712Y-105071206D01*
X132971682Y-105073891D01*
X132971681Y-105073891D01*
X132809278Y-105146197D01*
X132809276Y-105146198D01*
X132803248Y-105148882D01*
X132648747Y-105261134D01*
X132644326Y-105266044D01*
X132644325Y-105266045D01*
X132556304Y-105363803D01*
X132520960Y-105403056D01*
X132425473Y-105568444D01*
X132366458Y-105750072D01*
X132365768Y-105756633D01*
X132365768Y-105756635D01*
X132350717Y-105899835D01*
X132346496Y-105940000D01*
X117203500Y-105940000D01*
X117203500Y-104920000D01*
X128616496Y-104920000D01*
X128617186Y-104926565D01*
X128635701Y-105102721D01*
X128636458Y-105109928D01*
X128695473Y-105291556D01*
X128698776Y-105297278D01*
X128698777Y-105297279D01*
X128703078Y-105304729D01*
X128790960Y-105456944D01*
X128795378Y-105461851D01*
X128795379Y-105461852D01*
X128847671Y-105519928D01*
X128918747Y-105598866D01*
X128961500Y-105629928D01*
X129051437Y-105695271D01*
X129073248Y-105711118D01*
X129079276Y-105713802D01*
X129079278Y-105713803D01*
X129175481Y-105756635D01*
X129247712Y-105788794D01*
X129325230Y-105805271D01*
X129428056Y-105827128D01*
X129428061Y-105827128D01*
X129434513Y-105828500D01*
X129625487Y-105828500D01*
X129631939Y-105827128D01*
X129631944Y-105827128D01*
X129734770Y-105805271D01*
X129812288Y-105788794D01*
X129884519Y-105756635D01*
X129980722Y-105713803D01*
X129980724Y-105713802D01*
X129986752Y-105711118D01*
X130008564Y-105695271D01*
X130098500Y-105629928D01*
X130141253Y-105598866D01*
X130212329Y-105519928D01*
X130264621Y-105461852D01*
X130264622Y-105461851D01*
X130269040Y-105456944D01*
X130356922Y-105304729D01*
X130361223Y-105297279D01*
X130361224Y-105297278D01*
X130364527Y-105291556D01*
X130423542Y-105109928D01*
X130424300Y-105102721D01*
X130442453Y-104930000D01*
X135136496Y-104930000D01*
X135137186Y-104936565D01*
X135143438Y-104996045D01*
X135156458Y-105119928D01*
X135215473Y-105301556D01*
X135218776Y-105307278D01*
X135218777Y-105307279D01*
X135248350Y-105358500D01*
X135310960Y-105466944D01*
X135315378Y-105471851D01*
X135315379Y-105471852D01*
X135358667Y-105519928D01*
X135438747Y-105608866D01*
X135522791Y-105669928D01*
X135574143Y-105707237D01*
X135593248Y-105721118D01*
X135599276Y-105723802D01*
X135599278Y-105723803D01*
X135748333Y-105790166D01*
X135767712Y-105798794D01*
X135854677Y-105817279D01*
X135948056Y-105837128D01*
X135948061Y-105837128D01*
X135954513Y-105838500D01*
X136145487Y-105838500D01*
X136151939Y-105837128D01*
X136151944Y-105837128D01*
X136245323Y-105817279D01*
X136332288Y-105798794D01*
X136351667Y-105790166D01*
X136500722Y-105723803D01*
X136500724Y-105723802D01*
X136506752Y-105721118D01*
X136525858Y-105707237D01*
X136577209Y-105669928D01*
X136661253Y-105608866D01*
X136741333Y-105519928D01*
X136784621Y-105471852D01*
X136784622Y-105471851D01*
X136789040Y-105466944D01*
X136851650Y-105358500D01*
X136881223Y-105307279D01*
X136881224Y-105307278D01*
X136884527Y-105301556D01*
X136943542Y-105119928D01*
X136956563Y-104996045D01*
X136962814Y-104936565D01*
X136963504Y-104930000D01*
X136950250Y-104803891D01*
X136944232Y-104746635D01*
X136944232Y-104746633D01*
X136943542Y-104740072D01*
X136884527Y-104558444D01*
X136878754Y-104548444D01*
X136792341Y-104398774D01*
X136789040Y-104393056D01*
X136771697Y-104373794D01*
X136665675Y-104256045D01*
X136665674Y-104256044D01*
X136661253Y-104251134D01*
X136506752Y-104138882D01*
X136500724Y-104136198D01*
X136500722Y-104136197D01*
X136338319Y-104063891D01*
X136338318Y-104063891D01*
X136332288Y-104061206D01*
X136238888Y-104041353D01*
X136151944Y-104022872D01*
X136151939Y-104022872D01*
X136145487Y-104021500D01*
X135954513Y-104021500D01*
X135948061Y-104022872D01*
X135948056Y-104022872D01*
X135861113Y-104041353D01*
X135767712Y-104061206D01*
X135761682Y-104063891D01*
X135761681Y-104063891D01*
X135599278Y-104136197D01*
X135599276Y-104136198D01*
X135593248Y-104138882D01*
X135438747Y-104251134D01*
X135434326Y-104256044D01*
X135434325Y-104256045D01*
X135328304Y-104373794D01*
X135310960Y-104393056D01*
X135307659Y-104398774D01*
X135221247Y-104548444D01*
X135215473Y-104558444D01*
X135156458Y-104740072D01*
X135155768Y-104746633D01*
X135155768Y-104746635D01*
X135149750Y-104803891D01*
X135136496Y-104930000D01*
X130442453Y-104930000D01*
X130442814Y-104926565D01*
X130443504Y-104920000D01*
X130431301Y-104803891D01*
X130424232Y-104736635D01*
X130424232Y-104736633D01*
X130423542Y-104730072D01*
X130364527Y-104548444D01*
X130355537Y-104532872D01*
X130278115Y-104398774D01*
X130269040Y-104383056D01*
X130260701Y-104373794D01*
X130145675Y-104246045D01*
X130145674Y-104246044D01*
X130141253Y-104241134D01*
X130042157Y-104169136D01*
X129992094Y-104132763D01*
X129992093Y-104132762D01*
X129986752Y-104128882D01*
X129980724Y-104126198D01*
X129980722Y-104126197D01*
X129818319Y-104053891D01*
X129818318Y-104053891D01*
X129812288Y-104051206D01*
X129718887Y-104031353D01*
X129631944Y-104012872D01*
X129631939Y-104012872D01*
X129625487Y-104011500D01*
X129434513Y-104011500D01*
X129428061Y-104012872D01*
X129428056Y-104012872D01*
X129341113Y-104031353D01*
X129247712Y-104051206D01*
X129241682Y-104053891D01*
X129241681Y-104053891D01*
X129079278Y-104126197D01*
X129079276Y-104126198D01*
X129073248Y-104128882D01*
X129067907Y-104132762D01*
X129067906Y-104132763D01*
X129017843Y-104169136D01*
X128918747Y-104241134D01*
X128914326Y-104246044D01*
X128914325Y-104246045D01*
X128799300Y-104373794D01*
X128790960Y-104383056D01*
X128781885Y-104398774D01*
X128704464Y-104532872D01*
X128695473Y-104548444D01*
X128636458Y-104730072D01*
X128635768Y-104736633D01*
X128635768Y-104736635D01*
X128628699Y-104803891D01*
X128616496Y-104920000D01*
X117203500Y-104920000D01*
X117203500Y-102146695D01*
X118327251Y-102146695D01*
X118340110Y-102369715D01*
X118341247Y-102374761D01*
X118341248Y-102374767D01*
X118365304Y-102481508D01*
X118389222Y-102587639D01*
X118473266Y-102794616D01*
X118589987Y-102985088D01*
X118736250Y-103153938D01*
X118908126Y-103296632D01*
X119101000Y-103409338D01*
X119105825Y-103411180D01*
X119105826Y-103411181D01*
X119137916Y-103423435D01*
X119309692Y-103489030D01*
X119314760Y-103490061D01*
X119314763Y-103490062D01*
X119412408Y-103509928D01*
X119528597Y-103533567D01*
X119533772Y-103533757D01*
X119533774Y-103533757D01*
X119746673Y-103541564D01*
X119746677Y-103541564D01*
X119751837Y-103541753D01*
X119756957Y-103541097D01*
X119756959Y-103541097D01*
X119968288Y-103514025D01*
X119968289Y-103514025D01*
X119973416Y-103513368D01*
X119984882Y-103509928D01*
X120182429Y-103450661D01*
X120182434Y-103450659D01*
X120187384Y-103449174D01*
X120387994Y-103350896D01*
X120569860Y-103221173D01*
X120646050Y-103145248D01*
X120708420Y-103111333D01*
X120734989Y-103108500D01*
X121179336Y-103108500D01*
X121247457Y-103128502D01*
X121268689Y-103146903D01*
X121269170Y-103146412D01*
X121272864Y-103150029D01*
X121276250Y-103153938D01*
X121448126Y-103296632D01*
X121641000Y-103409338D01*
X121645825Y-103411180D01*
X121645826Y-103411181D01*
X121677916Y-103423435D01*
X121849692Y-103489030D01*
X121854760Y-103490061D01*
X121854763Y-103490062D01*
X121952408Y-103509928D01*
X122068597Y-103533567D01*
X122073772Y-103533757D01*
X122073774Y-103533757D01*
X122286673Y-103541564D01*
X122286677Y-103541564D01*
X122291837Y-103541753D01*
X122296957Y-103541097D01*
X122296959Y-103541097D01*
X122508288Y-103514025D01*
X122508289Y-103514025D01*
X122513416Y-103513368D01*
X122524882Y-103509928D01*
X122722429Y-103450661D01*
X122722434Y-103450659D01*
X122727384Y-103449174D01*
X122927994Y-103350896D01*
X123109860Y-103221173D01*
X123113517Y-103217529D01*
X123113523Y-103217524D01*
X123176016Y-103155249D01*
X123238387Y-103121333D01*
X123264955Y-103118500D01*
X131249298Y-103118500D01*
X131317419Y-103138502D01*
X131363912Y-103192158D01*
X131374608Y-103257670D01*
X131367367Y-103326565D01*
X131356496Y-103430000D01*
X131357186Y-103436565D01*
X131371082Y-103568774D01*
X131376458Y-103619928D01*
X131435473Y-103801556D01*
X131438776Y-103807278D01*
X131438777Y-103807279D01*
X131444551Y-103817279D01*
X131530960Y-103966944D01*
X131535378Y-103971851D01*
X131535379Y-103971852D01*
X131563199Y-104002749D01*
X131658747Y-104108866D01*
X131705402Y-104142763D01*
X131790691Y-104204729D01*
X131813248Y-104221118D01*
X131819276Y-104223802D01*
X131819278Y-104223803D01*
X131981681Y-104296109D01*
X131987712Y-104298794D01*
X132081113Y-104318647D01*
X132168056Y-104337128D01*
X132168061Y-104337128D01*
X132174513Y-104338500D01*
X132365487Y-104338500D01*
X132371939Y-104337128D01*
X132371944Y-104337128D01*
X132458887Y-104318647D01*
X132552288Y-104298794D01*
X132558319Y-104296109D01*
X132720722Y-104223803D01*
X132720724Y-104223802D01*
X132726752Y-104221118D01*
X132749310Y-104204729D01*
X132834598Y-104142763D01*
X132881253Y-104108866D01*
X132976801Y-104002749D01*
X133004621Y-103971852D01*
X133004622Y-103971851D01*
X133009040Y-103966944D01*
X133095449Y-103817279D01*
X133101223Y-103807279D01*
X133101224Y-103807278D01*
X133104527Y-103801556D01*
X133163542Y-103619928D01*
X133168919Y-103568774D01*
X133182814Y-103436565D01*
X133183504Y-103430000D01*
X133172633Y-103326565D01*
X133165392Y-103257670D01*
X133178164Y-103187832D01*
X133226666Y-103135985D01*
X133290702Y-103118500D01*
X133427874Y-103118500D01*
X133447585Y-103120051D01*
X133450711Y-103120546D01*
X133457096Y-103122257D01*
X133463696Y-103122603D01*
X133463697Y-103122603D01*
X133525385Y-103125836D01*
X133531960Y-103126353D01*
X133546222Y-103127852D01*
X133552390Y-103128500D01*
X133572925Y-103128500D01*
X133579519Y-103128673D01*
X133641217Y-103131907D01*
X133641222Y-103131907D01*
X133647809Y-103132252D01*
X133661707Y-103130051D01*
X133681416Y-103128500D01*
X141119298Y-103128500D01*
X141187419Y-103148502D01*
X141233912Y-103202158D01*
X141244608Y-103267670D01*
X141238418Y-103326565D01*
X141226496Y-103440000D01*
X141227186Y-103446564D01*
X141227186Y-103446565D01*
X141240344Y-103571753D01*
X141246458Y-103629928D01*
X141305473Y-103811556D01*
X141308776Y-103817278D01*
X141308777Y-103817279D01*
X141331678Y-103856944D01*
X141400960Y-103976944D01*
X141405378Y-103981851D01*
X141405379Y-103981852D01*
X141424195Y-104002749D01*
X141528747Y-104118866D01*
X141621299Y-104186109D01*
X141664143Y-104217237D01*
X141683248Y-104231118D01*
X141689276Y-104233802D01*
X141689278Y-104233803D01*
X141838333Y-104300166D01*
X141857712Y-104308794D01*
X142044513Y-104348500D01*
X142043975Y-104351032D01*
X142098912Y-104373619D01*
X142139556Y-104431830D01*
X142145419Y-104485104D01*
X142136496Y-104570000D01*
X142137186Y-104576565D01*
X142144505Y-104646197D01*
X142156458Y-104759928D01*
X142215473Y-104941556D01*
X142310960Y-105106944D01*
X142315378Y-105111851D01*
X142315379Y-105111852D01*
X142434180Y-105243794D01*
X142438747Y-105248866D01*
X142486821Y-105283794D01*
X142557347Y-105335034D01*
X142593248Y-105361118D01*
X142599276Y-105363802D01*
X142599278Y-105363803D01*
X142755675Y-105433435D01*
X142767712Y-105438794D01*
X142836903Y-105453501D01*
X142948056Y-105477128D01*
X142948061Y-105477128D01*
X142954513Y-105478500D01*
X143145487Y-105478500D01*
X143151939Y-105477128D01*
X143151944Y-105477128D01*
X143263097Y-105453501D01*
X143326614Y-105440000D01*
X144666496Y-105440000D01*
X144667186Y-105446565D01*
X144675557Y-105526206D01*
X144686458Y-105629928D01*
X144745473Y-105811556D01*
X144748776Y-105817278D01*
X144748777Y-105817279D01*
X144760237Y-105837128D01*
X144840960Y-105976944D01*
X144845378Y-105981851D01*
X144845379Y-105981852D01*
X144873199Y-106012749D01*
X144968747Y-106118866D01*
X145123248Y-106231118D01*
X145129276Y-106233802D01*
X145129278Y-106233803D01*
X145289799Y-106305271D01*
X145297712Y-106308794D01*
X145391113Y-106328647D01*
X145478056Y-106347128D01*
X145478061Y-106347128D01*
X145484513Y-106348500D01*
X145675487Y-106348500D01*
X145681939Y-106347128D01*
X145681944Y-106347128D01*
X145768888Y-106328647D01*
X145862288Y-106308794D01*
X145870201Y-106305271D01*
X146030722Y-106233803D01*
X146030724Y-106233802D01*
X146036752Y-106231118D01*
X146191253Y-106118866D01*
X146286801Y-106012749D01*
X146314621Y-105981852D01*
X146314622Y-105981851D01*
X146319040Y-105976944D01*
X146399763Y-105837128D01*
X146411223Y-105817279D01*
X146411224Y-105817278D01*
X146414527Y-105811556D01*
X146473542Y-105629928D01*
X146484444Y-105526206D01*
X146492085Y-105453501D01*
X146519098Y-105387845D01*
X146577320Y-105347215D01*
X146643591Y-105343425D01*
X146661422Y-105347215D01*
X146708056Y-105357128D01*
X146708061Y-105357128D01*
X146714513Y-105358500D01*
X146905487Y-105358500D01*
X146922398Y-105354905D01*
X147015889Y-105335034D01*
X147086679Y-105340436D01*
X147143312Y-105383253D01*
X147167805Y-105449891D01*
X147167394Y-105471456D01*
X147166496Y-105480000D01*
X147186458Y-105669928D01*
X147245473Y-105851556D01*
X147248776Y-105857278D01*
X147248777Y-105857279D01*
X147251056Y-105861226D01*
X147340960Y-106016944D01*
X147345378Y-106021851D01*
X147345379Y-106021852D01*
X147436227Y-106122749D01*
X147468747Y-106158866D01*
X147541676Y-106211852D01*
X147571889Y-106233803D01*
X147623248Y-106271118D01*
X147629276Y-106273802D01*
X147629278Y-106273803D01*
X147786843Y-106343955D01*
X147797712Y-106348794D01*
X147891112Y-106368647D01*
X147978056Y-106387128D01*
X147978061Y-106387128D01*
X147984513Y-106388500D01*
X148175487Y-106388500D01*
X148181939Y-106387128D01*
X148181944Y-106387128D01*
X148268888Y-106368647D01*
X148362288Y-106348794D01*
X148373157Y-106343955D01*
X148530722Y-106273803D01*
X148530724Y-106273802D01*
X148536752Y-106271118D01*
X148588112Y-106233803D01*
X148618324Y-106211852D01*
X148691253Y-106158866D01*
X148723773Y-106122749D01*
X148814621Y-106021852D01*
X148814622Y-106021851D01*
X148819040Y-106016944D01*
X148908944Y-105861226D01*
X148911223Y-105857279D01*
X148911224Y-105857278D01*
X148914527Y-105851556D01*
X148973542Y-105669928D01*
X148993504Y-105480000D01*
X148979150Y-105343425D01*
X148974232Y-105296635D01*
X148974232Y-105296633D01*
X148973542Y-105290072D01*
X148914527Y-105108444D01*
X148892236Y-105069834D01*
X148844556Y-104987251D01*
X148819040Y-104943056D01*
X148813196Y-104936565D01*
X148695675Y-104806045D01*
X148695674Y-104806044D01*
X148691253Y-104801134D01*
X148536752Y-104688882D01*
X148530724Y-104686198D01*
X148530722Y-104686197D01*
X148368319Y-104613891D01*
X148368318Y-104613891D01*
X148362288Y-104611206D01*
X148260471Y-104589564D01*
X148181944Y-104572872D01*
X148181939Y-104572872D01*
X148175487Y-104571500D01*
X147984513Y-104571500D01*
X147967602Y-104575095D01*
X147874111Y-104594966D01*
X147803321Y-104589564D01*
X147746688Y-104546747D01*
X147722195Y-104480109D01*
X147722606Y-104458542D01*
X147722814Y-104456564D01*
X147723504Y-104450000D01*
X147703542Y-104260072D01*
X147644527Y-104078444D01*
X147633783Y-104059834D01*
X147600824Y-104002749D01*
X147549040Y-103913056D01*
X147540701Y-103903794D01*
X147425675Y-103776045D01*
X147425674Y-103776044D01*
X147421253Y-103771134D01*
X147266752Y-103658882D01*
X147260724Y-103656198D01*
X147260722Y-103656197D01*
X147098319Y-103583891D01*
X147098318Y-103583891D01*
X147092288Y-103581206D01*
X146984233Y-103558238D01*
X146911944Y-103542872D01*
X146911939Y-103542872D01*
X146905487Y-103541500D01*
X146714513Y-103541500D01*
X146708061Y-103542872D01*
X146708056Y-103542872D01*
X146635767Y-103558238D01*
X146527712Y-103581206D01*
X146521682Y-103583891D01*
X146521681Y-103583891D01*
X146359278Y-103656197D01*
X146359276Y-103656198D01*
X146353248Y-103658882D01*
X146198747Y-103771134D01*
X146194326Y-103776044D01*
X146194325Y-103776045D01*
X146079300Y-103903794D01*
X146070960Y-103913056D01*
X146019176Y-104002749D01*
X145986218Y-104059834D01*
X145975473Y-104078444D01*
X145916458Y-104260072D01*
X145915769Y-104266631D01*
X145915768Y-104266634D01*
X145897915Y-104436499D01*
X145870902Y-104502155D01*
X145812680Y-104542785D01*
X145746409Y-104546575D01*
X145728142Y-104542692D01*
X145681944Y-104532872D01*
X145681939Y-104532872D01*
X145675487Y-104531500D01*
X145484513Y-104531500D01*
X145478061Y-104532872D01*
X145478056Y-104532872D01*
X145404798Y-104548444D01*
X145297712Y-104571206D01*
X145291682Y-104573891D01*
X145291681Y-104573891D01*
X145129278Y-104646197D01*
X145129276Y-104646198D01*
X145123248Y-104648882D01*
X145117907Y-104652762D01*
X145117906Y-104652763D01*
X145068721Y-104688498D01*
X144968747Y-104761134D01*
X144964326Y-104766044D01*
X144964325Y-104766045D01*
X144911616Y-104824585D01*
X144840960Y-104903056D01*
X144829194Y-104923435D01*
X144766011Y-105032872D01*
X144745473Y-105068444D01*
X144686458Y-105250072D01*
X144685768Y-105256633D01*
X144685768Y-105256635D01*
X144672460Y-105383253D01*
X144666496Y-105440000D01*
X143326614Y-105440000D01*
X143332288Y-105438794D01*
X143344325Y-105433435D01*
X143500722Y-105363803D01*
X143500724Y-105363802D01*
X143506752Y-105361118D01*
X143542654Y-105335034D01*
X143613179Y-105283794D01*
X143661253Y-105248866D01*
X143665820Y-105243794D01*
X143784621Y-105111852D01*
X143784622Y-105111851D01*
X143789040Y-105106944D01*
X143884527Y-104941556D01*
X143943542Y-104759928D01*
X143955496Y-104646197D01*
X143962814Y-104576565D01*
X143963504Y-104570000D01*
X143952497Y-104465271D01*
X143944232Y-104386635D01*
X143944232Y-104386633D01*
X143943542Y-104380072D01*
X143884527Y-104198444D01*
X143877406Y-104186109D01*
X143840824Y-104122749D01*
X143789040Y-104033056D01*
X143761752Y-104002749D01*
X143665675Y-103896045D01*
X143665674Y-103896044D01*
X143661253Y-103891134D01*
X143537960Y-103801556D01*
X143512094Y-103782763D01*
X143512093Y-103782762D01*
X143506752Y-103778882D01*
X143500724Y-103776198D01*
X143500722Y-103776197D01*
X143338319Y-103703891D01*
X143338318Y-103703891D01*
X143332288Y-103701206D01*
X143145487Y-103661500D01*
X143146025Y-103658968D01*
X143091088Y-103636381D01*
X143050444Y-103578170D01*
X143044581Y-103524894D01*
X143045198Y-103519030D01*
X143053504Y-103440000D01*
X143041582Y-103326565D01*
X143035392Y-103267670D01*
X143048164Y-103197832D01*
X143096666Y-103145985D01*
X143160702Y-103128500D01*
X148286686Y-103128500D01*
X148354807Y-103148502D01*
X148401300Y-103202158D01*
X148411996Y-103267670D01*
X148406496Y-103320000D01*
X148407186Y-103326565D01*
X148424262Y-103489030D01*
X148426458Y-103509928D01*
X148485473Y-103691556D01*
X148488776Y-103697278D01*
X148488777Y-103697279D01*
X148503466Y-103722721D01*
X148580960Y-103856944D01*
X148585378Y-103861851D01*
X148585379Y-103861852D01*
X148704325Y-103993955D01*
X148708747Y-103998866D01*
X148778898Y-104049834D01*
X148838910Y-104093435D01*
X148863248Y-104111118D01*
X148869276Y-104113802D01*
X148869278Y-104113803D01*
X148925607Y-104138882D01*
X149037712Y-104188794D01*
X149112680Y-104204729D01*
X149218056Y-104227128D01*
X149218061Y-104227128D01*
X149224513Y-104228500D01*
X149415487Y-104228500D01*
X149421939Y-104227128D01*
X149421944Y-104227128D01*
X149527320Y-104204729D01*
X149602288Y-104188794D01*
X149714393Y-104138882D01*
X149770722Y-104113803D01*
X149770724Y-104113802D01*
X149776752Y-104111118D01*
X149801091Y-104093435D01*
X149861102Y-104049834D01*
X149931253Y-103998866D01*
X149935675Y-103993955D01*
X150054621Y-103861852D01*
X150054622Y-103861851D01*
X150059040Y-103856944D01*
X150136534Y-103722721D01*
X150151223Y-103697279D01*
X150151224Y-103697278D01*
X150154527Y-103691556D01*
X150213542Y-103509928D01*
X150215739Y-103489030D01*
X150232814Y-103326565D01*
X150233504Y-103320000D01*
X150228004Y-103267670D01*
X150240776Y-103197832D01*
X150289278Y-103145985D01*
X150353314Y-103128500D01*
X151703735Y-103128500D01*
X151771856Y-103148502D01*
X151818349Y-103202158D01*
X151828453Y-103272432D01*
X151798959Y-103337012D01*
X151777796Y-103356436D01*
X151700862Y-103412332D01*
X151688747Y-103421134D01*
X151684326Y-103426044D01*
X151684325Y-103426045D01*
X151567645Y-103555632D01*
X151560960Y-103563056D01*
X151465473Y-103728444D01*
X151406458Y-103910072D01*
X151405768Y-103916633D01*
X151405768Y-103916635D01*
X151394602Y-104022872D01*
X151386496Y-104100000D01*
X151387186Y-104106565D01*
X151402381Y-104251134D01*
X151406458Y-104289928D01*
X151465473Y-104471556D01*
X151518520Y-104563435D01*
X151542757Y-104605415D01*
X151559495Y-104674410D01*
X151536275Y-104741502D01*
X151527273Y-104752726D01*
X151495383Y-104788143D01*
X151495380Y-104788147D01*
X151490960Y-104793056D01*
X151415686Y-104923435D01*
X151409527Y-104934102D01*
X151358145Y-104983095D01*
X151288431Y-104996531D01*
X151226347Y-104973038D01*
X151102094Y-104882763D01*
X151102093Y-104882762D01*
X151096752Y-104878882D01*
X151090724Y-104876198D01*
X151090722Y-104876197D01*
X150928319Y-104803891D01*
X150928318Y-104803891D01*
X150922288Y-104801206D01*
X150828887Y-104781353D01*
X150741944Y-104762872D01*
X150741939Y-104762872D01*
X150735487Y-104761500D01*
X150544513Y-104761500D01*
X150538061Y-104762872D01*
X150538056Y-104762872D01*
X150451112Y-104781353D01*
X150357712Y-104801206D01*
X150351682Y-104803891D01*
X150351681Y-104803891D01*
X150189278Y-104876197D01*
X150189276Y-104876198D01*
X150183248Y-104878882D01*
X150028747Y-104991134D01*
X150024326Y-104996044D01*
X150024325Y-104996045D01*
X149921785Y-105109928D01*
X149900960Y-105133056D01*
X149893373Y-105146197D01*
X149810307Y-105290072D01*
X149805473Y-105298444D01*
X149746458Y-105480072D01*
X149745768Y-105486633D01*
X149745768Y-105486635D01*
X149732921Y-105608866D01*
X149726496Y-105670000D01*
X149727186Y-105676565D01*
X149744918Y-105845271D01*
X149746458Y-105859928D01*
X149805473Y-106041556D01*
X149900960Y-106206944D01*
X150028747Y-106348866D01*
X150183248Y-106461118D01*
X150189276Y-106463802D01*
X150189278Y-106463803D01*
X150351681Y-106536109D01*
X150357712Y-106538794D01*
X150451112Y-106558647D01*
X150538056Y-106577128D01*
X150538061Y-106577128D01*
X150544513Y-106578500D01*
X150735487Y-106578500D01*
X150741939Y-106577128D01*
X150741944Y-106577128D01*
X150828887Y-106558647D01*
X150922288Y-106538794D01*
X150928319Y-106536109D01*
X151090722Y-106463803D01*
X151090724Y-106463802D01*
X151096752Y-106461118D01*
X151251253Y-106348866D01*
X151379040Y-106206944D01*
X151460473Y-106065898D01*
X151511855Y-106016905D01*
X151581569Y-106003469D01*
X151643653Y-106026962D01*
X151697244Y-106065898D01*
X151773248Y-106121118D01*
X151779276Y-106123802D01*
X151779278Y-106123803D01*
X151866753Y-106162749D01*
X151947712Y-106198794D01*
X152041113Y-106218647D01*
X152128056Y-106237128D01*
X152128061Y-106237128D01*
X152134513Y-106238500D01*
X152325487Y-106238500D01*
X152331939Y-106237128D01*
X152331944Y-106237128D01*
X152418887Y-106218647D01*
X152512288Y-106198794D01*
X152593247Y-106162749D01*
X152680722Y-106123803D01*
X152680724Y-106123802D01*
X152686752Y-106121118D01*
X152841253Y-106008866D01*
X152845675Y-106003955D01*
X152964621Y-105871852D01*
X152964622Y-105871851D01*
X152969040Y-105866944D01*
X153057456Y-105713803D01*
X153061223Y-105707279D01*
X153061224Y-105707278D01*
X153064527Y-105701556D01*
X153123542Y-105519928D01*
X153128041Y-105477128D01*
X153142814Y-105336565D01*
X153143504Y-105330000D01*
X153134977Y-105248866D01*
X153124232Y-105146635D01*
X153124232Y-105146633D01*
X153123542Y-105140072D01*
X153064527Y-104958444D01*
X152987243Y-104824584D01*
X152970505Y-104755590D01*
X152993725Y-104688498D01*
X153002727Y-104677274D01*
X153034617Y-104641857D01*
X153034620Y-104641853D01*
X153039040Y-104636944D01*
X153075444Y-104573891D01*
X153131223Y-104477279D01*
X153131224Y-104477278D01*
X153134527Y-104471556D01*
X153193542Y-104289928D01*
X153197620Y-104251134D01*
X153212814Y-104106565D01*
X153213504Y-104100000D01*
X153205398Y-104022872D01*
X153194232Y-103916635D01*
X153194232Y-103916633D01*
X153193542Y-103910072D01*
X153134527Y-103728444D01*
X153039040Y-103563056D01*
X153032356Y-103555632D01*
X152915675Y-103426045D01*
X152915674Y-103426044D01*
X152911253Y-103421134D01*
X152899139Y-103412332D01*
X152822204Y-103356436D01*
X152778850Y-103300214D01*
X152772775Y-103229477D01*
X152805906Y-103166686D01*
X152867727Y-103131774D01*
X152896265Y-103128500D01*
X164100675Y-103128500D01*
X164168796Y-103148502D01*
X164195911Y-103172003D01*
X164206250Y-103183938D01*
X164378126Y-103326632D01*
X164571000Y-103439338D01*
X164575825Y-103441180D01*
X164575826Y-103441181D01*
X164590790Y-103446895D01*
X164779692Y-103519030D01*
X164784760Y-103520061D01*
X164784763Y-103520062D01*
X164851143Y-103533567D01*
X164998597Y-103563567D01*
X165003772Y-103563757D01*
X165003774Y-103563757D01*
X165216673Y-103571564D01*
X165216677Y-103571564D01*
X165221837Y-103571753D01*
X165226957Y-103571097D01*
X165226959Y-103571097D01*
X165438288Y-103544025D01*
X165438289Y-103544025D01*
X165443416Y-103543368D01*
X165449429Y-103541564D01*
X165652429Y-103480661D01*
X165652434Y-103480659D01*
X165657384Y-103479174D01*
X165857994Y-103380896D01*
X166039860Y-103251173D01*
X166136120Y-103155248D01*
X166198490Y-103121333D01*
X166225059Y-103118500D01*
X166328689Y-103118500D01*
X166396810Y-103138502D01*
X166435833Y-103178196D01*
X166501522Y-103284348D01*
X166626697Y-103409305D01*
X166632927Y-103413145D01*
X166632928Y-103413146D01*
X166770090Y-103497694D01*
X166777262Y-103502115D01*
X166831371Y-103520062D01*
X166938611Y-103555632D01*
X166938613Y-103555632D01*
X166945139Y-103557797D01*
X166951975Y-103558497D01*
X166951978Y-103558498D01*
X166991372Y-103562534D01*
X167049600Y-103568500D01*
X168350400Y-103568500D01*
X168353646Y-103568163D01*
X168353650Y-103568163D01*
X168449308Y-103558238D01*
X168449312Y-103558237D01*
X168456166Y-103557526D01*
X168462702Y-103555345D01*
X168462704Y-103555345D01*
X168598834Y-103509928D01*
X168623946Y-103501550D01*
X168774348Y-103408478D01*
X168899305Y-103283303D01*
X168906006Y-103272432D01*
X168988275Y-103138968D01*
X168988276Y-103138966D01*
X168992115Y-103132738D01*
X169047797Y-102964861D01*
X169058500Y-102860400D01*
X169058500Y-101559600D01*
X169058163Y-101556350D01*
X169048238Y-101460692D01*
X169048237Y-101460688D01*
X169047526Y-101453834D01*
X168991550Y-101286054D01*
X168898478Y-101135652D01*
X168773303Y-101010695D01*
X168622738Y-100917885D01*
X168615785Y-100915579D01*
X168614904Y-100915168D01*
X168561618Y-100868252D01*
X168542156Y-100799975D01*
X168562696Y-100732015D01*
X168580529Y-100711844D01*
X168579860Y-100711173D01*
X168588934Y-100702131D01*
X168738096Y-100553489D01*
X168749621Y-100537451D01*
X168865435Y-100376277D01*
X168868453Y-100372077D01*
X168881088Y-100346513D01*
X168965136Y-100176453D01*
X168965137Y-100176451D01*
X168967430Y-100171811D01*
X169032370Y-99958069D01*
X169061529Y-99736590D01*
X169062181Y-99709908D01*
X169063074Y-99673365D01*
X169063074Y-99673361D01*
X169063156Y-99670000D01*
X169044852Y-99447361D01*
X168990431Y-99230702D01*
X168901354Y-99025840D01*
X168815016Y-98892382D01*
X168782822Y-98842617D01*
X168782820Y-98842614D01*
X168780014Y-98838277D01*
X168629670Y-98673051D01*
X168625619Y-98669852D01*
X168625615Y-98669848D01*
X168458414Y-98537800D01*
X168458410Y-98537798D01*
X168454359Y-98534598D01*
X168413053Y-98511796D01*
X168363084Y-98461364D01*
X168348312Y-98391921D01*
X168373428Y-98325516D01*
X168400780Y-98298909D01*
X168516128Y-98216632D01*
X168579860Y-98171173D01*
X168738096Y-98013489D01*
X168868453Y-97832077D01*
X168890979Y-97786500D01*
X168965136Y-97636453D01*
X168965137Y-97636451D01*
X168967430Y-97631811D01*
X169032370Y-97418069D01*
X169061529Y-97196590D01*
X169063156Y-97130000D01*
X169044852Y-96907361D01*
X168990431Y-96690702D01*
X168901354Y-96485840D01*
X168851682Y-96409059D01*
X168782822Y-96302617D01*
X168782820Y-96302614D01*
X168780014Y-96298277D01*
X168629670Y-96133051D01*
X168625619Y-96129852D01*
X168625615Y-96129848D01*
X168458414Y-95997800D01*
X168458410Y-95997798D01*
X168454359Y-95994598D01*
X168413053Y-95971796D01*
X168363084Y-95921364D01*
X168348312Y-95851921D01*
X168373428Y-95785516D01*
X168400780Y-95758909D01*
X168516128Y-95676632D01*
X168579860Y-95631173D01*
X168738096Y-95473489D01*
X168868453Y-95292077D01*
X168926506Y-95174616D01*
X168965136Y-95096453D01*
X168965137Y-95096451D01*
X168967430Y-95091811D01*
X169032370Y-94878069D01*
X169061529Y-94656590D01*
X169063156Y-94590000D01*
X169044852Y-94367361D01*
X168990431Y-94150702D01*
X168901354Y-93945840D01*
X168780014Y-93758277D01*
X168629670Y-93593051D01*
X168625619Y-93589852D01*
X168625615Y-93589848D01*
X168458414Y-93457800D01*
X168458410Y-93457798D01*
X168454359Y-93454598D01*
X168413053Y-93431796D01*
X168363084Y-93381364D01*
X168348312Y-93311921D01*
X168373428Y-93245516D01*
X168400780Y-93218909D01*
X168516128Y-93136632D01*
X168579860Y-93091173D01*
X168592583Y-93078495D01*
X168683623Y-92987772D01*
X168738096Y-92933489D01*
X168745135Y-92923694D01*
X168865435Y-92756277D01*
X168868453Y-92752077D01*
X168884983Y-92718632D01*
X168965136Y-92556453D01*
X168965137Y-92556451D01*
X168967430Y-92551811D01*
X169032370Y-92338069D01*
X169061529Y-92116590D01*
X169063156Y-92050000D01*
X169044852Y-91827361D01*
X168990431Y-91610702D01*
X168901354Y-91405840D01*
X168780014Y-91218277D01*
X168629670Y-91053051D01*
X168625619Y-91049852D01*
X168625615Y-91049848D01*
X168458414Y-90917800D01*
X168458410Y-90917798D01*
X168454359Y-90914598D01*
X168413053Y-90891796D01*
X168363084Y-90841364D01*
X168348312Y-90771921D01*
X168373428Y-90705516D01*
X168400780Y-90678909D01*
X168478291Y-90623621D01*
X168579860Y-90551173D01*
X168738096Y-90393489D01*
X168770333Y-90348627D01*
X168865435Y-90216277D01*
X168868453Y-90212077D01*
X168875015Y-90198801D01*
X168965136Y-90016453D01*
X168965137Y-90016451D01*
X168967430Y-90011811D01*
X169032370Y-89798069D01*
X169061529Y-89576590D01*
X169063156Y-89510000D01*
X169044852Y-89287361D01*
X168990431Y-89070702D01*
X168901354Y-88865840D01*
X168780014Y-88678277D01*
X168629670Y-88513051D01*
X168625619Y-88509852D01*
X168625615Y-88509848D01*
X168458414Y-88377800D01*
X168458410Y-88377798D01*
X168454359Y-88374598D01*
X168413053Y-88351796D01*
X168363084Y-88301364D01*
X168348312Y-88231921D01*
X168373428Y-88165516D01*
X168400780Y-88138909D01*
X168516128Y-88056632D01*
X168579860Y-88011173D01*
X168738096Y-87853489D01*
X168868453Y-87672077D01*
X168926506Y-87554616D01*
X168965136Y-87476453D01*
X168965137Y-87476451D01*
X168967430Y-87471811D01*
X169015640Y-87313134D01*
X169030865Y-87263023D01*
X169030865Y-87263021D01*
X169032370Y-87258069D01*
X169061529Y-87036590D01*
X169061611Y-87033240D01*
X169063074Y-86973365D01*
X169063074Y-86973361D01*
X169063156Y-86970000D01*
X169044852Y-86747361D01*
X168990431Y-86530702D01*
X168901354Y-86325840D01*
X168860313Y-86262401D01*
X168782822Y-86142617D01*
X168782820Y-86142614D01*
X168780014Y-86138277D01*
X168629670Y-85973051D01*
X168625619Y-85969852D01*
X168625615Y-85969848D01*
X168458414Y-85837800D01*
X168458410Y-85837798D01*
X168454359Y-85834598D01*
X168413053Y-85811796D01*
X168363084Y-85761364D01*
X168348312Y-85691921D01*
X168373428Y-85625516D01*
X168400780Y-85598909D01*
X168464580Y-85553401D01*
X168579860Y-85471173D01*
X168595743Y-85455346D01*
X168675366Y-85376000D01*
X168738096Y-85313489D01*
X168741415Y-85308871D01*
X168865435Y-85136277D01*
X168868453Y-85132077D01*
X168873038Y-85122801D01*
X168965136Y-84936453D01*
X168965137Y-84936451D01*
X168967430Y-84931811D01*
X169020783Y-84756206D01*
X169030865Y-84723023D01*
X169030865Y-84723021D01*
X169032370Y-84718069D01*
X169061529Y-84496590D01*
X169062179Y-84470000D01*
X169063074Y-84433365D01*
X169063074Y-84433361D01*
X169063156Y-84430000D01*
X169044852Y-84207361D01*
X168990431Y-83990702D01*
X168901354Y-83785840D01*
X168853206Y-83711415D01*
X168782822Y-83602617D01*
X168782820Y-83602614D01*
X168780014Y-83598277D01*
X168629670Y-83433051D01*
X168625619Y-83429852D01*
X168625615Y-83429848D01*
X168458414Y-83297800D01*
X168458410Y-83297798D01*
X168454359Y-83294598D01*
X168258789Y-83186638D01*
X168253920Y-83184914D01*
X168253916Y-83184912D01*
X168053087Y-83113795D01*
X168053083Y-83113794D01*
X168048212Y-83112069D01*
X168043119Y-83111162D01*
X168043116Y-83111161D01*
X167833373Y-83073800D01*
X167833367Y-83073799D01*
X167828284Y-83072894D01*
X167754452Y-83071992D01*
X167610081Y-83070228D01*
X167610079Y-83070228D01*
X167604911Y-83070165D01*
X167384091Y-83103955D01*
X167171756Y-83173357D01*
X167145012Y-83187279D01*
X167001281Y-83262101D01*
X166973607Y-83276507D01*
X166969474Y-83279610D01*
X166969471Y-83279612D01*
X166799100Y-83407530D01*
X166794965Y-83410635D01*
X166791393Y-83414373D01*
X166644319Y-83568277D01*
X166640629Y-83572138D01*
X166533201Y-83729621D01*
X166478293Y-83774621D01*
X166407768Y-83782792D01*
X166344021Y-83751538D01*
X166323324Y-83727054D01*
X166242822Y-83602617D01*
X166242820Y-83602614D01*
X166240014Y-83598277D01*
X166233580Y-83591206D01*
X166101307Y-83445839D01*
X166070255Y-83381993D01*
X166068500Y-83361039D01*
X166068500Y-81821417D01*
X166070051Y-81801707D01*
X166071220Y-81794327D01*
X166071220Y-81794326D01*
X166072252Y-81787810D01*
X166068673Y-81719520D01*
X166068500Y-81712926D01*
X166068500Y-81692390D01*
X166067695Y-81684728D01*
X166066353Y-81671958D01*
X166065836Y-81665384D01*
X166062603Y-81603696D01*
X166062603Y-81603694D01*
X166062257Y-81597097D01*
X166058615Y-81583504D01*
X166055014Y-81564075D01*
X166054232Y-81556639D01*
X166053542Y-81550072D01*
X166032407Y-81485025D01*
X166030535Y-81478706D01*
X166014538Y-81419003D01*
X166014537Y-81419000D01*
X166012830Y-81412630D01*
X166006438Y-81400085D01*
X165998874Y-81381823D01*
X165996568Y-81374726D01*
X165994527Y-81368444D01*
X165960336Y-81309223D01*
X165957188Y-81303426D01*
X165929126Y-81248351D01*
X165929124Y-81248348D01*
X165926129Y-81242470D01*
X165917273Y-81231533D01*
X165906073Y-81215237D01*
X165902343Y-81208776D01*
X165902340Y-81208772D01*
X165899040Y-81203056D01*
X165894623Y-81198150D01*
X165894619Y-81198145D01*
X165853278Y-81152231D01*
X165848994Y-81147216D01*
X165838148Y-81133823D01*
X165836072Y-81131259D01*
X165821557Y-81116744D01*
X165817016Y-81111959D01*
X165775673Y-81066043D01*
X165771253Y-81061134D01*
X165759865Y-81052860D01*
X165744832Y-81040019D01*
X165219981Y-80515168D01*
X165207140Y-80500135D01*
X165202746Y-80494087D01*
X165202745Y-80494086D01*
X165198866Y-80488747D01*
X165148041Y-80442984D01*
X165143256Y-80438443D01*
X165128741Y-80423928D01*
X165121282Y-80417888D01*
X165112784Y-80411006D01*
X165107769Y-80406722D01*
X165061855Y-80365381D01*
X165061850Y-80365377D01*
X165056944Y-80360960D01*
X165051228Y-80357660D01*
X165051224Y-80357657D01*
X165044763Y-80353927D01*
X165028466Y-80342727D01*
X165022660Y-80338025D01*
X165022658Y-80338024D01*
X165017530Y-80333871D01*
X164956573Y-80302812D01*
X164950782Y-80299667D01*
X164897279Y-80268777D01*
X164897278Y-80268776D01*
X164891556Y-80265473D01*
X164885274Y-80263432D01*
X164885272Y-80263431D01*
X164878174Y-80261125D01*
X164859907Y-80253559D01*
X164859903Y-80253557D01*
X164847370Y-80247171D01*
X164781291Y-80229465D01*
X164774997Y-80227600D01*
X164709928Y-80206458D01*
X164703363Y-80205768D01*
X164703354Y-80205766D01*
X164695925Y-80204985D01*
X164676491Y-80201383D01*
X164669286Y-80199453D01*
X164669284Y-80199453D01*
X164662903Y-80197743D01*
X164656312Y-80197398D01*
X164656308Y-80197397D01*
X164594616Y-80194164D01*
X164588042Y-80193647D01*
X164570884Y-80191844D01*
X164570882Y-80191844D01*
X164567610Y-80191500D01*
X164547074Y-80191500D01*
X164540480Y-80191327D01*
X164478782Y-80188093D01*
X164478777Y-80188093D01*
X164472190Y-80187748D01*
X164458292Y-80189949D01*
X164438583Y-80191500D01*
X151207556Y-80191500D01*
X151139435Y-80171498D01*
X151092942Y-80117842D01*
X151082838Y-80047568D01*
X151112332Y-79982988D01*
X151133495Y-79963564D01*
X151139962Y-79958866D01*
X151181253Y-79928866D01*
X151282028Y-79816944D01*
X151304621Y-79791852D01*
X151304622Y-79791851D01*
X151309040Y-79786944D01*
X151383902Y-79657279D01*
X151401223Y-79627279D01*
X151401224Y-79627278D01*
X151404527Y-79621556D01*
X151463542Y-79439928D01*
X151483504Y-79250000D01*
X151463542Y-79060072D01*
X151404527Y-78878444D01*
X151397888Y-78866944D01*
X151329662Y-78748774D01*
X151309040Y-78713056D01*
X151303839Y-78707279D01*
X151185675Y-78576045D01*
X151185674Y-78576044D01*
X151181253Y-78571134D01*
X151026752Y-78458882D01*
X151020724Y-78456198D01*
X151020722Y-78456197D01*
X150858319Y-78383891D01*
X150858318Y-78383891D01*
X150852288Y-78381206D01*
X150751741Y-78359834D01*
X150671944Y-78342872D01*
X150671939Y-78342872D01*
X150665487Y-78341500D01*
X150474513Y-78341500D01*
X150468061Y-78342872D01*
X150468056Y-78342872D01*
X150388259Y-78359834D01*
X150287712Y-78381206D01*
X150281682Y-78383891D01*
X150281681Y-78383891D01*
X150119278Y-78456197D01*
X150119276Y-78456198D01*
X150113248Y-78458882D01*
X150107907Y-78462762D01*
X150107906Y-78462763D01*
X150017825Y-78528211D01*
X149950957Y-78552070D01*
X149881806Y-78535989D01*
X149869703Y-78528211D01*
X149752094Y-78442763D01*
X149752093Y-78442762D01*
X149746752Y-78438882D01*
X149740724Y-78436198D01*
X149740722Y-78436197D01*
X149578319Y-78363891D01*
X149578318Y-78363891D01*
X149572288Y-78361206D01*
X149456362Y-78336565D01*
X149391944Y-78322872D01*
X149391939Y-78322872D01*
X149385487Y-78321500D01*
X149194513Y-78321500D01*
X149188061Y-78322872D01*
X149188056Y-78322872D01*
X149123638Y-78336565D01*
X149007712Y-78361206D01*
X149001682Y-78363891D01*
X149001681Y-78363891D01*
X148839278Y-78436197D01*
X148839276Y-78436198D01*
X148833248Y-78438882D01*
X148678747Y-78551134D01*
X148674326Y-78556044D01*
X148674325Y-78556045D01*
X148572824Y-78668774D01*
X148550960Y-78693056D01*
X148518791Y-78748774D01*
X148472794Y-78828444D01*
X148455473Y-78858444D01*
X148396458Y-79040072D01*
X148376496Y-79230000D01*
X148396458Y-79419928D01*
X148455473Y-79601556D01*
X148550960Y-79766944D01*
X148555378Y-79771851D01*
X148555379Y-79771852D01*
X148595980Y-79816944D01*
X148678747Y-79908866D01*
X148747566Y-79958866D01*
X148754032Y-79963564D01*
X148797386Y-80019786D01*
X148803461Y-80090523D01*
X148770329Y-80153314D01*
X148708509Y-80188226D01*
X148679971Y-80191500D01*
X145590029Y-80191500D01*
X145521908Y-80171498D01*
X145475415Y-80117842D01*
X145465311Y-80047568D01*
X145494805Y-79982988D01*
X145515968Y-79963564D01*
X145522434Y-79958866D01*
X145591253Y-79908866D01*
X145674020Y-79816944D01*
X145714621Y-79771852D01*
X145714622Y-79771851D01*
X145719040Y-79766944D01*
X145814527Y-79601556D01*
X145873542Y-79419928D01*
X145893504Y-79230000D01*
X145873542Y-79040072D01*
X145814527Y-78858444D01*
X145797207Y-78828444D01*
X145751209Y-78748774D01*
X145719040Y-78693056D01*
X145697177Y-78668774D01*
X145595675Y-78556045D01*
X145595674Y-78556044D01*
X145591253Y-78551134D01*
X145436752Y-78438882D01*
X145430724Y-78436198D01*
X145430722Y-78436197D01*
X145268319Y-78363891D01*
X145268318Y-78363891D01*
X145262288Y-78361206D01*
X145146362Y-78336565D01*
X145081944Y-78322872D01*
X145081939Y-78322872D01*
X145075487Y-78321500D01*
X144884513Y-78321500D01*
X144878061Y-78322872D01*
X144878056Y-78322872D01*
X144813638Y-78336565D01*
X144697712Y-78361206D01*
X144691682Y-78363891D01*
X144691681Y-78363891D01*
X144529278Y-78436197D01*
X144529276Y-78436198D01*
X144523248Y-78438882D01*
X144458125Y-78486197D01*
X144454707Y-78488680D01*
X144387839Y-78512539D01*
X144318688Y-78496458D01*
X144306585Y-78488680D01*
X144202094Y-78412763D01*
X144202093Y-78412762D01*
X144196752Y-78408882D01*
X144190724Y-78406198D01*
X144190722Y-78406197D01*
X144028319Y-78333891D01*
X144028318Y-78333891D01*
X144022288Y-78331206D01*
X143928887Y-78311353D01*
X143841944Y-78292872D01*
X143841939Y-78292872D01*
X143835487Y-78291500D01*
X143644513Y-78291500D01*
X143638061Y-78292872D01*
X143638056Y-78292872D01*
X143551113Y-78311353D01*
X143457712Y-78331206D01*
X143451682Y-78333891D01*
X143451681Y-78333891D01*
X143289278Y-78406197D01*
X143289276Y-78406198D01*
X143283248Y-78408882D01*
X143277907Y-78412762D01*
X143277906Y-78412763D01*
X143245652Y-78436197D01*
X143128747Y-78521134D01*
X143124326Y-78526044D01*
X143124325Y-78526045D01*
X143115372Y-78535989D01*
X143000960Y-78663056D01*
X142905473Y-78828444D01*
X142846458Y-79010072D01*
X142845768Y-79016633D01*
X142845768Y-79016635D01*
X142833104Y-79137128D01*
X142826496Y-79200000D01*
X142846458Y-79389928D01*
X142905473Y-79571556D01*
X142908776Y-79577278D01*
X142908777Y-79577279D01*
X142926098Y-79607279D01*
X143000960Y-79736944D01*
X143005378Y-79741851D01*
X143005379Y-79741852D01*
X143045980Y-79786944D01*
X143128747Y-79878866D01*
X143197566Y-79928866D01*
X143245323Y-79963564D01*
X143288677Y-80019787D01*
X143294752Y-80090523D01*
X143261620Y-80153314D01*
X143199800Y-80188226D01*
X143171262Y-80191500D01*
X137588848Y-80191500D01*
X137520727Y-80171498D01*
X137474234Y-80117842D01*
X137464130Y-80047568D01*
X137493624Y-79982988D01*
X137514785Y-79963565D01*
X137521253Y-79958866D01*
X137649040Y-79816944D01*
X137744527Y-79651556D01*
X137803542Y-79469928D01*
X137811291Y-79396206D01*
X137822814Y-79286565D01*
X137823504Y-79280000D01*
X137803542Y-79090072D01*
X137744527Y-78908444D01*
X137727207Y-78878444D01*
X137652341Y-78748774D01*
X137649040Y-78743056D01*
X137627177Y-78718774D01*
X137525675Y-78606045D01*
X137525674Y-78606044D01*
X137521253Y-78601134D01*
X137409483Y-78519928D01*
X137372094Y-78492763D01*
X137372093Y-78492762D01*
X137366752Y-78488882D01*
X137360724Y-78486198D01*
X137360722Y-78486197D01*
X137198319Y-78413891D01*
X137198318Y-78413891D01*
X137192288Y-78411206D01*
X137098888Y-78391353D01*
X137011944Y-78372872D01*
X137011939Y-78372872D01*
X137005487Y-78371500D01*
X136814513Y-78371500D01*
X136808061Y-78372872D01*
X136808056Y-78372872D01*
X136721112Y-78391353D01*
X136627712Y-78411206D01*
X136621682Y-78413891D01*
X136621681Y-78413891D01*
X136459278Y-78486197D01*
X136459276Y-78486198D01*
X136453248Y-78488882D01*
X136447907Y-78492762D01*
X136447906Y-78492763D01*
X136410517Y-78519928D01*
X136298747Y-78601134D01*
X136294326Y-78606044D01*
X136294325Y-78606045D01*
X136192824Y-78718774D01*
X136170960Y-78743056D01*
X136167659Y-78748774D01*
X136092794Y-78878444D01*
X136075473Y-78908444D01*
X136016458Y-79090072D01*
X135996496Y-79280000D01*
X135997186Y-79286565D01*
X136008710Y-79396206D01*
X136016458Y-79469928D01*
X136075473Y-79651556D01*
X136170960Y-79816944D01*
X136298747Y-79958866D01*
X136305215Y-79963565D01*
X136305709Y-79964205D01*
X136308998Y-79967167D01*
X136308456Y-79967769D01*
X136348568Y-80019788D01*
X136354642Y-80090525D01*
X136321509Y-80153316D01*
X136259688Y-80188226D01*
X136231152Y-80191500D01*
X120721417Y-80191500D01*
X120701708Y-80189949D01*
X120687810Y-80187748D01*
X120681223Y-80188093D01*
X120681218Y-80188093D01*
X120619520Y-80191327D01*
X120612926Y-80191500D01*
X120592390Y-80191500D01*
X120589118Y-80191844D01*
X120589116Y-80191844D01*
X120571958Y-80193647D01*
X120565384Y-80194164D01*
X120503696Y-80197397D01*
X120503694Y-80197397D01*
X120497097Y-80197743D01*
X120483504Y-80201385D01*
X120464075Y-80204986D01*
X120450072Y-80206458D01*
X120385025Y-80227593D01*
X120378712Y-80229463D01*
X120358074Y-80234993D01*
X120319003Y-80245462D01*
X120319000Y-80245463D01*
X120312630Y-80247170D01*
X120300085Y-80253562D01*
X120281826Y-80261125D01*
X120268444Y-80265473D01*
X120262723Y-80268776D01*
X120209223Y-80299664D01*
X120203426Y-80302812D01*
X120148351Y-80330874D01*
X120148348Y-80330876D01*
X120142470Y-80333871D01*
X120137342Y-80338024D01*
X120137340Y-80338025D01*
X120131534Y-80342727D01*
X120115237Y-80353927D01*
X120108776Y-80357657D01*
X120108772Y-80357660D01*
X120103056Y-80360960D01*
X120098150Y-80365377D01*
X120098145Y-80365381D01*
X120052231Y-80406722D01*
X120047216Y-80411006D01*
X120038718Y-80417888D01*
X120031259Y-80423928D01*
X120016744Y-80438443D01*
X120011959Y-80442984D01*
X119961134Y-80488747D01*
X119957255Y-80494086D01*
X119957254Y-80494087D01*
X119952860Y-80500135D01*
X119940019Y-80515168D01*
X119105168Y-81350019D01*
X119090135Y-81362860D01*
X119078747Y-81371134D01*
X119074327Y-81376043D01*
X119032984Y-81421959D01*
X119028443Y-81426744D01*
X119013928Y-81441259D01*
X119011852Y-81443823D01*
X119001006Y-81457216D01*
X118996722Y-81462231D01*
X118955381Y-81508145D01*
X118955377Y-81508150D01*
X118950960Y-81513056D01*
X118947660Y-81518772D01*
X118947657Y-81518776D01*
X118943927Y-81525237D01*
X118932727Y-81541533D01*
X118923871Y-81552470D01*
X118897770Y-81603696D01*
X118892815Y-81613421D01*
X118889669Y-81619215D01*
X118855473Y-81678444D01*
X118853432Y-81684726D01*
X118853431Y-81684728D01*
X118851125Y-81691826D01*
X118843560Y-81710092D01*
X118837171Y-81722630D01*
X118835463Y-81729003D01*
X118835463Y-81729004D01*
X118819469Y-81788695D01*
X118817600Y-81795003D01*
X118796458Y-81860072D01*
X118795768Y-81866637D01*
X118795766Y-81866646D01*
X118794985Y-81874075D01*
X118791383Y-81893509D01*
X118789453Y-81900714D01*
X118787743Y-81907097D01*
X118787398Y-81913688D01*
X118787397Y-81913692D01*
X118784164Y-81975384D01*
X118783647Y-81981958D01*
X118781844Y-81999116D01*
X118781500Y-82002390D01*
X118781500Y-82022926D01*
X118781327Y-82029520D01*
X118777748Y-82097810D01*
X118778780Y-82104325D01*
X118779949Y-82111705D01*
X118781500Y-82131417D01*
X118781500Y-83028689D01*
X118761498Y-83096810D01*
X118721804Y-83135833D01*
X118615652Y-83201522D01*
X118610479Y-83206704D01*
X118552686Y-83264598D01*
X118490695Y-83326697D01*
X118486855Y-83332927D01*
X118486854Y-83332928D01*
X118402466Y-83469831D01*
X118397885Y-83477262D01*
X118372842Y-83552766D01*
X118352942Y-83612763D01*
X118342203Y-83645139D01*
X118341503Y-83651975D01*
X118341502Y-83651978D01*
X118341070Y-83656197D01*
X118331500Y-83749600D01*
X118331500Y-85050400D01*
X118331837Y-85053646D01*
X118331837Y-85053650D01*
X118341732Y-85149012D01*
X118342474Y-85156166D01*
X118344655Y-85162702D01*
X118344655Y-85162704D01*
X118382821Y-85277101D01*
X118398450Y-85323946D01*
X118491522Y-85474348D01*
X118616697Y-85599305D01*
X118767262Y-85692115D01*
X118774209Y-85694419D01*
X118776276Y-85695383D01*
X118829561Y-85742299D01*
X118849023Y-85810576D01*
X118828482Y-85878536D01*
X118798681Y-85910337D01*
X118784965Y-85920635D01*
X118630629Y-86082138D01*
X118627715Y-86086410D01*
X118627714Y-86086411D01*
X118589373Y-86142617D01*
X118504743Y-86266680D01*
X118467951Y-86345941D01*
X118418279Y-86452952D01*
X118410688Y-86469305D01*
X118350989Y-86684570D01*
X118327251Y-86906695D01*
X118327548Y-86911848D01*
X118327548Y-86911851D01*
X118334932Y-87039908D01*
X118340110Y-87129715D01*
X118341247Y-87134761D01*
X118341248Y-87134767D01*
X118345012Y-87151467D01*
X118389222Y-87347639D01*
X118473266Y-87554616D01*
X118589987Y-87745088D01*
X118736250Y-87913938D01*
X118908126Y-88056632D01*
X118978595Y-88097811D01*
X118981445Y-88099476D01*
X119030169Y-88151114D01*
X119043240Y-88220897D01*
X119016509Y-88286669D01*
X118976055Y-88320027D01*
X118963607Y-88326507D01*
X118959474Y-88329610D01*
X118959471Y-88329612D01*
X118795059Y-88453056D01*
X118784965Y-88460635D01*
X118781393Y-88464373D01*
X118640114Y-88612213D01*
X118630629Y-88622138D01*
X118627715Y-88626410D01*
X118627714Y-88626411D01*
X118589373Y-88682617D01*
X118504743Y-88806680D01*
X118410688Y-89009305D01*
X118350989Y-89224570D01*
X118327251Y-89446695D01*
X118327548Y-89451848D01*
X118327548Y-89451851D01*
X118334932Y-89579908D01*
X118340110Y-89669715D01*
X118341247Y-89674761D01*
X118341248Y-89674767D01*
X118365304Y-89781508D01*
X118389222Y-89887639D01*
X118473266Y-90094616D01*
X118514424Y-90161780D01*
X118574888Y-90260448D01*
X118589987Y-90285088D01*
X118736250Y-90453938D01*
X118908126Y-90596632D01*
X118959239Y-90626500D01*
X118981445Y-90639476D01*
X119030169Y-90691114D01*
X119043240Y-90760897D01*
X119016509Y-90826669D01*
X118976055Y-90860027D01*
X118963607Y-90866507D01*
X118959474Y-90869610D01*
X118959471Y-90869612D01*
X118895291Y-90917800D01*
X118784965Y-91000635D01*
X118630629Y-91162138D01*
X118627715Y-91166410D01*
X118627714Y-91166411D01*
X118589373Y-91222617D01*
X118504743Y-91346680D01*
X118486259Y-91386500D01*
X118428754Y-91510386D01*
X118410688Y-91549305D01*
X118350989Y-91764570D01*
X118327251Y-91986695D01*
X118327548Y-91991848D01*
X118327548Y-91991851D01*
X118334932Y-92119908D01*
X118340110Y-92209715D01*
X118341247Y-92214761D01*
X118341248Y-92214767D01*
X118359668Y-92296498D01*
X118389222Y-92427639D01*
X118473266Y-92634616D01*
X118520065Y-92710985D01*
X118554488Y-92767158D01*
X118589987Y-92825088D01*
X118736250Y-92993938D01*
X118908126Y-93136632D01*
X118978595Y-93177811D01*
X118981445Y-93179476D01*
X119030169Y-93231114D01*
X119043240Y-93300897D01*
X119016509Y-93366669D01*
X118976055Y-93400027D01*
X118963607Y-93406507D01*
X118959474Y-93409610D01*
X118959471Y-93409612D01*
X118789100Y-93537530D01*
X118784965Y-93540635D01*
X118630629Y-93702138D01*
X118627715Y-93706410D01*
X118627714Y-93706411D01*
X118589373Y-93762617D01*
X118504743Y-93886680D01*
X118410688Y-94089305D01*
X118350989Y-94304570D01*
X118327251Y-94526695D01*
X118327548Y-94531848D01*
X118327548Y-94531851D01*
X118334932Y-94659908D01*
X118340110Y-94749715D01*
X118341247Y-94754761D01*
X118341248Y-94754767D01*
X118365304Y-94861508D01*
X118389222Y-94967639D01*
X118473266Y-95174616D01*
X118511069Y-95236305D01*
X118583110Y-95353865D01*
X118589987Y-95365088D01*
X118736250Y-95533938D01*
X118908126Y-95676632D01*
X118978595Y-95717811D01*
X118981445Y-95719476D01*
X119030169Y-95771114D01*
X119043240Y-95840897D01*
X119016509Y-95906669D01*
X118976055Y-95940027D01*
X118963607Y-95946507D01*
X118959474Y-95949610D01*
X118959471Y-95949612D01*
X118895291Y-95997800D01*
X118784965Y-96080635D01*
X118630629Y-96242138D01*
X118627715Y-96246410D01*
X118627714Y-96246411D01*
X118589373Y-96302617D01*
X118504743Y-96426680D01*
X118462472Y-96517745D01*
X118414956Y-96620111D01*
X118410688Y-96629305D01*
X118350989Y-96844570D01*
X118327251Y-97066695D01*
X118327548Y-97071848D01*
X118327548Y-97071851D01*
X118334932Y-97199908D01*
X118340110Y-97289715D01*
X118341247Y-97294761D01*
X118341248Y-97294767D01*
X118344661Y-97309909D01*
X118389222Y-97507639D01*
X118473266Y-97714616D01*
X118514986Y-97782697D01*
X118587291Y-97900688D01*
X118589987Y-97905088D01*
X118736250Y-98073938D01*
X118908126Y-98216632D01*
X118981445Y-98259476D01*
X118981955Y-98259774D01*
X119030679Y-98311412D01*
X119043750Y-98381195D01*
X119017019Y-98446967D01*
X118976562Y-98480327D01*
X118968460Y-98484544D01*
X118959734Y-98490039D01*
X118939677Y-98505099D01*
X118931223Y-98516427D01*
X118937968Y-98528758D01*
X119677188Y-99267978D01*
X119691132Y-99275592D01*
X119692965Y-99275461D01*
X119699580Y-99271210D01*
X120443389Y-98527401D01*
X120450410Y-98514544D01*
X120443611Y-98505213D01*
X120439559Y-98502521D01*
X120402602Y-98482120D01*
X120352631Y-98431687D01*
X120337859Y-98362245D01*
X120362975Y-98295839D01*
X120390327Y-98269232D01*
X120413797Y-98252491D01*
X120569860Y-98141173D01*
X120728096Y-97983489D01*
X120787594Y-97900689D01*
X120858453Y-97802077D01*
X120859776Y-97803028D01*
X120906645Y-97759857D01*
X120976580Y-97747625D01*
X121042026Y-97775144D01*
X121069875Y-97806994D01*
X121129987Y-97905088D01*
X121276250Y-98073938D01*
X121448126Y-98216632D01*
X121518595Y-98257811D01*
X121521445Y-98259476D01*
X121570169Y-98311114D01*
X121583240Y-98380897D01*
X121556509Y-98446669D01*
X121516055Y-98480027D01*
X121503607Y-98486507D01*
X121499474Y-98489610D01*
X121499471Y-98489612D01*
X121435291Y-98537800D01*
X121324965Y-98620635D01*
X121170629Y-98782138D01*
X121097693Y-98889059D01*
X121062898Y-98940066D01*
X121007987Y-98985069D01*
X120937462Y-98993240D01*
X120873715Y-98961986D01*
X120853017Y-98937501D01*
X120823062Y-98891197D01*
X120812377Y-98881995D01*
X120802812Y-98886398D01*
X120062022Y-99627188D01*
X120054408Y-99641132D01*
X120054539Y-99642965D01*
X120058790Y-99649580D01*
X120800474Y-100391264D01*
X120812484Y-100397823D01*
X120824223Y-100388855D01*
X120858022Y-100341819D01*
X120859277Y-100342721D01*
X120906391Y-100299355D01*
X120976330Y-100287148D01*
X121041767Y-100314691D01*
X121069580Y-100346513D01*
X121127287Y-100440683D01*
X121127291Y-100440688D01*
X121129987Y-100445088D01*
X121276250Y-100613938D01*
X121448126Y-100756632D01*
X121492348Y-100782473D01*
X121521445Y-100799476D01*
X121570169Y-100851114D01*
X121583240Y-100920897D01*
X121556509Y-100986669D01*
X121516055Y-101020027D01*
X121503607Y-101026507D01*
X121499474Y-101029610D01*
X121499471Y-101029612D01*
X121329100Y-101157530D01*
X121324965Y-101160635D01*
X121274876Y-101213051D01*
X121256241Y-101232551D01*
X121194717Y-101267981D01*
X121165147Y-101271500D01*
X120755856Y-101271500D01*
X120687735Y-101251498D01*
X120662662Y-101230299D01*
X120650446Y-101216873D01*
X120623746Y-101187530D01*
X120623148Y-101186873D01*
X120623146Y-101186871D01*
X120619670Y-101183051D01*
X120548627Y-101126944D01*
X120448414Y-101047800D01*
X120448410Y-101047798D01*
X120444359Y-101044598D01*
X120402569Y-101021529D01*
X120352598Y-100971097D01*
X120337826Y-100901654D01*
X120362942Y-100835248D01*
X120390293Y-100808642D01*
X120439247Y-100773723D01*
X120447648Y-100763023D01*
X120440660Y-100749870D01*
X119702812Y-100012022D01*
X119688868Y-100004408D01*
X119687035Y-100004539D01*
X119680420Y-100008790D01*
X118936737Y-100752473D01*
X118929977Y-100764853D01*
X118935258Y-100771907D01*
X118981969Y-100799203D01*
X119030693Y-100850841D01*
X119043764Y-100920624D01*
X119017033Y-100986396D01*
X118976584Y-101019752D01*
X118963607Y-101026507D01*
X118959474Y-101029610D01*
X118959471Y-101029612D01*
X118789100Y-101157530D01*
X118784965Y-101160635D01*
X118759264Y-101187530D01*
X118657362Y-101294164D01*
X118630629Y-101322138D01*
X118504743Y-101506680D01*
X118410688Y-101709305D01*
X118350989Y-101924570D01*
X118327251Y-102146695D01*
X117203500Y-102146695D01*
X117203500Y-99611863D01*
X118328050Y-99611863D01*
X118340309Y-99824477D01*
X118341745Y-99834697D01*
X118388565Y-100042446D01*
X118391645Y-100052275D01*
X118471770Y-100249603D01*
X118476413Y-100258794D01*
X118556460Y-100389420D01*
X118566916Y-100398880D01*
X118575694Y-100395096D01*
X119317978Y-99652812D01*
X119325592Y-99638868D01*
X119325461Y-99637035D01*
X119321210Y-99630420D01*
X118579849Y-98889059D01*
X118568313Y-98882759D01*
X118556031Y-98892382D01*
X118508089Y-98962662D01*
X118503004Y-98971613D01*
X118413338Y-99164783D01*
X118409775Y-99174470D01*
X118352864Y-99379681D01*
X118350933Y-99389800D01*
X118328302Y-99601574D01*
X118328050Y-99611863D01*
X117203500Y-99611863D01*
X117203500Y-78330000D01*
X133006496Y-78330000D01*
X133007186Y-78336565D01*
X133016608Y-78426206D01*
X133026458Y-78519928D01*
X133085473Y-78701556D01*
X133088776Y-78707278D01*
X133088777Y-78707279D01*
X133095414Y-78718774D01*
X133180960Y-78866944D01*
X133185378Y-78871851D01*
X133185379Y-78871852D01*
X133213174Y-78902721D01*
X133308747Y-79008866D01*
X133463248Y-79121118D01*
X133469276Y-79123802D01*
X133469278Y-79123803D01*
X133625675Y-79193435D01*
X133637712Y-79198794D01*
X133731113Y-79218647D01*
X133818056Y-79237128D01*
X133818061Y-79237128D01*
X133824513Y-79238500D01*
X134015487Y-79238500D01*
X134021939Y-79237128D01*
X134021944Y-79237128D01*
X134108887Y-79218647D01*
X134202288Y-79198794D01*
X134214325Y-79193435D01*
X134370722Y-79123803D01*
X134370724Y-79123802D01*
X134376752Y-79121118D01*
X134531253Y-79008866D01*
X134626826Y-78902721D01*
X134654621Y-78871852D01*
X134654622Y-78871851D01*
X134659040Y-78866944D01*
X134744586Y-78718774D01*
X134751223Y-78707279D01*
X134751224Y-78707278D01*
X134754527Y-78701556D01*
X134813542Y-78519928D01*
X134823393Y-78426206D01*
X134832814Y-78336565D01*
X134833504Y-78330000D01*
X134822994Y-78230000D01*
X160446496Y-78230000D01*
X160466458Y-78419928D01*
X160525473Y-78601556D01*
X160620960Y-78766944D01*
X160748747Y-78908866D01*
X160756817Y-78914729D01*
X160897078Y-79016635D01*
X160903248Y-79021118D01*
X160909276Y-79023802D01*
X160909278Y-79023803D01*
X161005481Y-79066635D01*
X161077712Y-79098794D01*
X161164479Y-79117237D01*
X161258056Y-79137128D01*
X161258061Y-79137128D01*
X161264513Y-79138500D01*
X161455487Y-79138500D01*
X161461939Y-79137128D01*
X161461944Y-79137128D01*
X161555521Y-79117237D01*
X161642288Y-79098794D01*
X161714519Y-79066635D01*
X161810722Y-79023803D01*
X161810724Y-79023802D01*
X161816752Y-79021118D01*
X161822923Y-79016635D01*
X161963183Y-78914729D01*
X161971253Y-78908866D01*
X162099040Y-78766944D01*
X162194527Y-78601556D01*
X162253542Y-78419928D01*
X162273504Y-78230000D01*
X162264052Y-78140072D01*
X162254232Y-78046635D01*
X162254232Y-78046633D01*
X162253542Y-78040072D01*
X162194527Y-77858444D01*
X162099040Y-77693056D01*
X162075695Y-77667128D01*
X161975675Y-77556045D01*
X161975674Y-77556044D01*
X161971253Y-77551134D01*
X161816752Y-77438882D01*
X161810724Y-77436198D01*
X161810722Y-77436197D01*
X161648319Y-77363891D01*
X161648318Y-77363891D01*
X161642288Y-77361206D01*
X161548887Y-77341353D01*
X161461944Y-77322872D01*
X161461939Y-77322872D01*
X161455487Y-77321500D01*
X161264513Y-77321500D01*
X161258061Y-77322872D01*
X161258056Y-77322872D01*
X161171113Y-77341353D01*
X161077712Y-77361206D01*
X161071682Y-77363891D01*
X161071681Y-77363891D01*
X160909278Y-77436197D01*
X160909276Y-77436198D01*
X160903248Y-77438882D01*
X160748747Y-77551134D01*
X160744326Y-77556044D01*
X160744325Y-77556045D01*
X160644306Y-77667128D01*
X160620960Y-77693056D01*
X160525473Y-77858444D01*
X160466458Y-78040072D01*
X160465768Y-78046633D01*
X160465768Y-78046635D01*
X160455948Y-78140072D01*
X160446496Y-78230000D01*
X134822994Y-78230000D01*
X134813542Y-78140072D01*
X134754527Y-77958444D01*
X134659040Y-77793056D01*
X134546890Y-77668500D01*
X134535675Y-77656045D01*
X134535674Y-77656044D01*
X134531253Y-77651134D01*
X134397289Y-77553803D01*
X134382094Y-77542763D01*
X134382093Y-77542762D01*
X134376752Y-77538882D01*
X134370724Y-77536198D01*
X134370722Y-77536197D01*
X134208319Y-77463891D01*
X134208318Y-77463891D01*
X134202288Y-77461206D01*
X134108887Y-77441353D01*
X134021944Y-77422872D01*
X134021939Y-77422872D01*
X134015487Y-77421500D01*
X133824513Y-77421500D01*
X133818061Y-77422872D01*
X133818056Y-77422872D01*
X133731113Y-77441353D01*
X133637712Y-77461206D01*
X133631682Y-77463891D01*
X133631681Y-77463891D01*
X133469278Y-77536197D01*
X133469276Y-77536198D01*
X133463248Y-77538882D01*
X133457907Y-77542762D01*
X133457906Y-77542763D01*
X133442711Y-77553803D01*
X133308747Y-77651134D01*
X133304326Y-77656044D01*
X133304325Y-77656045D01*
X133293111Y-77668500D01*
X133180960Y-77793056D01*
X133085473Y-77958444D01*
X133026458Y-78140072D01*
X133006496Y-78330000D01*
X117203500Y-78330000D01*
X117203500Y-76760000D01*
X118506496Y-76760000D01*
X118526458Y-76949928D01*
X118585473Y-77131556D01*
X118680960Y-77296944D01*
X118685378Y-77301851D01*
X118685379Y-77301852D01*
X118794346Y-77422872D01*
X118808747Y-77438866D01*
X118843191Y-77463891D01*
X118946407Y-77538882D01*
X118963248Y-77551118D01*
X118969276Y-77553802D01*
X118969278Y-77553803D01*
X118974314Y-77556045D01*
X119137712Y-77628794D01*
X119224545Y-77647251D01*
X119318056Y-77667128D01*
X119318061Y-77667128D01*
X119324513Y-77668500D01*
X119515487Y-77668500D01*
X119521939Y-77667128D01*
X119521944Y-77667128D01*
X119615455Y-77647251D01*
X119702288Y-77628794D01*
X119865686Y-77556045D01*
X119870722Y-77553803D01*
X119870724Y-77553802D01*
X119876752Y-77551118D01*
X119893594Y-77538882D01*
X119996809Y-77463891D01*
X120031253Y-77438866D01*
X120045654Y-77422872D01*
X120154621Y-77301852D01*
X120154622Y-77301851D01*
X120159040Y-77296944D01*
X120254527Y-77131556D01*
X120313542Y-76949928D01*
X120333504Y-76760000D01*
X120332814Y-76753435D01*
X120314232Y-76576635D01*
X120314232Y-76576633D01*
X120313542Y-76570072D01*
X120254527Y-76388444D01*
X120159040Y-76223056D01*
X120031253Y-76081134D01*
X119876752Y-75968882D01*
X119870724Y-75966198D01*
X119870722Y-75966197D01*
X119754608Y-75914500D01*
X141506496Y-75914500D01*
X141507186Y-75921065D01*
X141523602Y-76077251D01*
X141526458Y-76104428D01*
X141585473Y-76286056D01*
X141680960Y-76451444D01*
X141808747Y-76593366D01*
X141963248Y-76705618D01*
X141969276Y-76708302D01*
X141969278Y-76708303D01*
X142131681Y-76780609D01*
X142137712Y-76783294D01*
X142231113Y-76803147D01*
X142318056Y-76821628D01*
X142318061Y-76821628D01*
X142324513Y-76823000D01*
X142515487Y-76823000D01*
X142521939Y-76821628D01*
X142521944Y-76821628D01*
X142608887Y-76803147D01*
X142702288Y-76783294D01*
X142708319Y-76780609D01*
X142870722Y-76708303D01*
X142870724Y-76708302D01*
X142876752Y-76705618D01*
X143031253Y-76593366D01*
X143159040Y-76451444D01*
X143254527Y-76286056D01*
X143313542Y-76104428D01*
X143316399Y-76077251D01*
X143332814Y-75921065D01*
X143333504Y-75914500D01*
X143325791Y-75841118D01*
X143314232Y-75731135D01*
X143314232Y-75731133D01*
X143313542Y-75724572D01*
X143254527Y-75542944D01*
X143159040Y-75377556D01*
X143126329Y-75341226D01*
X143035675Y-75240545D01*
X143035674Y-75240544D01*
X143031253Y-75235634D01*
X142876752Y-75123382D01*
X142870724Y-75120698D01*
X142870722Y-75120697D01*
X142711933Y-75050000D01*
X148526496Y-75050000D01*
X148527186Y-75056565D01*
X148545599Y-75231751D01*
X148546458Y-75239928D01*
X148605473Y-75421556D01*
X148700960Y-75586944D01*
X148828747Y-75728866D01*
X148983248Y-75841118D01*
X148989276Y-75843802D01*
X148989278Y-75843803D01*
X149133322Y-75907935D01*
X149157712Y-75918794D01*
X149251113Y-75938647D01*
X149338056Y-75957128D01*
X149338061Y-75957128D01*
X149344513Y-75958500D01*
X149535487Y-75958500D01*
X149541939Y-75957128D01*
X149541944Y-75957128D01*
X149628887Y-75938647D01*
X149722288Y-75918794D01*
X149746678Y-75907935D01*
X149890722Y-75843803D01*
X149890724Y-75843802D01*
X149896752Y-75841118D01*
X150051253Y-75728866D01*
X150179040Y-75586944D01*
X150274527Y-75421556D01*
X150333542Y-75239928D01*
X150334402Y-75231751D01*
X150352814Y-75056565D01*
X150353504Y-75050000D01*
X150350351Y-75020000D01*
X160736496Y-75020000D01*
X160737186Y-75026565D01*
X160754078Y-75187279D01*
X160756458Y-75209928D01*
X160815473Y-75391556D01*
X160818776Y-75397278D01*
X160818777Y-75397279D01*
X160836098Y-75427279D01*
X160910960Y-75556944D01*
X160915378Y-75561851D01*
X160915379Y-75561852D01*
X161020674Y-75678794D01*
X161038747Y-75698866D01*
X161193248Y-75811118D01*
X161199276Y-75813802D01*
X161199278Y-75813803D01*
X161287029Y-75852872D01*
X161367712Y-75888794D01*
X161457763Y-75907935D01*
X161548056Y-75927128D01*
X161548061Y-75927128D01*
X161554513Y-75928500D01*
X161745487Y-75928500D01*
X161751939Y-75927128D01*
X161751944Y-75927128D01*
X161842237Y-75907935D01*
X161932288Y-75888794D01*
X162012971Y-75852872D01*
X162100722Y-75813803D01*
X162100724Y-75813802D01*
X162106752Y-75811118D01*
X162261253Y-75698866D01*
X162279326Y-75678794D01*
X162384621Y-75561852D01*
X162384622Y-75561851D01*
X162389040Y-75556944D01*
X162463902Y-75427279D01*
X162481223Y-75397279D01*
X162481224Y-75397278D01*
X162484527Y-75391556D01*
X162543542Y-75209928D01*
X162545923Y-75187279D01*
X162562814Y-75026565D01*
X162563504Y-75020000D01*
X162543542Y-74830072D01*
X162484527Y-74648444D01*
X162466341Y-74616944D01*
X162409662Y-74518774D01*
X162389040Y-74483056D01*
X162261253Y-74341134D01*
X162106752Y-74228882D01*
X162100724Y-74226198D01*
X162100722Y-74226197D01*
X161938319Y-74153891D01*
X161938318Y-74153891D01*
X161932288Y-74151206D01*
X161837857Y-74131134D01*
X161751944Y-74112872D01*
X161751939Y-74112872D01*
X161745487Y-74111500D01*
X161554513Y-74111500D01*
X161548061Y-74112872D01*
X161548056Y-74112872D01*
X161462143Y-74131134D01*
X161367712Y-74151206D01*
X161361682Y-74153891D01*
X161361681Y-74153891D01*
X161199278Y-74226197D01*
X161199276Y-74226198D01*
X161193248Y-74228882D01*
X161038747Y-74341134D01*
X160910960Y-74483056D01*
X160890338Y-74518774D01*
X160833660Y-74616944D01*
X160815473Y-74648444D01*
X160756458Y-74830072D01*
X160736496Y-75020000D01*
X150350351Y-75020000D01*
X150348901Y-75006206D01*
X150334232Y-74866635D01*
X150334232Y-74866633D01*
X150333542Y-74860072D01*
X150274527Y-74678444D01*
X150257207Y-74648444D01*
X150222598Y-74588500D01*
X150179040Y-74513056D01*
X150157177Y-74488774D01*
X150055675Y-74376045D01*
X150055674Y-74376044D01*
X150051253Y-74371134D01*
X149924131Y-74278774D01*
X149902094Y-74262763D01*
X149902093Y-74262762D01*
X149896752Y-74258882D01*
X149890724Y-74256198D01*
X149890722Y-74256197D01*
X149728319Y-74183891D01*
X149728318Y-74183891D01*
X149722288Y-74181206D01*
X149628888Y-74161353D01*
X149541944Y-74142872D01*
X149541939Y-74142872D01*
X149535487Y-74141500D01*
X149344513Y-74141500D01*
X149338061Y-74142872D01*
X149338056Y-74142872D01*
X149251112Y-74161353D01*
X149157712Y-74181206D01*
X149151682Y-74183891D01*
X149151681Y-74183891D01*
X148989278Y-74256197D01*
X148989276Y-74256198D01*
X148983248Y-74258882D01*
X148977907Y-74262762D01*
X148977906Y-74262763D01*
X148955869Y-74278774D01*
X148828747Y-74371134D01*
X148824326Y-74376044D01*
X148824325Y-74376045D01*
X148722824Y-74488774D01*
X148700960Y-74513056D01*
X148657402Y-74588500D01*
X148622794Y-74648444D01*
X148605473Y-74678444D01*
X148546458Y-74860072D01*
X148545768Y-74866633D01*
X148545768Y-74866635D01*
X148531099Y-75006206D01*
X148526496Y-75050000D01*
X142711933Y-75050000D01*
X142708319Y-75048391D01*
X142708318Y-75048391D01*
X142702288Y-75045706D01*
X142608887Y-75025853D01*
X142521944Y-75007372D01*
X142521939Y-75007372D01*
X142515487Y-75006000D01*
X142324513Y-75006000D01*
X142318061Y-75007372D01*
X142318056Y-75007372D01*
X142231113Y-75025853D01*
X142137712Y-75045706D01*
X142131682Y-75048391D01*
X142131681Y-75048391D01*
X141969278Y-75120697D01*
X141969276Y-75120698D01*
X141963248Y-75123382D01*
X141808747Y-75235634D01*
X141804326Y-75240544D01*
X141804325Y-75240545D01*
X141713672Y-75341226D01*
X141680960Y-75377556D01*
X141585473Y-75542944D01*
X141526458Y-75724572D01*
X141525768Y-75731133D01*
X141525768Y-75731135D01*
X141514209Y-75841118D01*
X141506496Y-75914500D01*
X119754608Y-75914500D01*
X119708319Y-75893891D01*
X119708318Y-75893891D01*
X119702288Y-75891206D01*
X119608888Y-75871353D01*
X119521944Y-75852872D01*
X119521939Y-75852872D01*
X119515487Y-75851500D01*
X119324513Y-75851500D01*
X119318061Y-75852872D01*
X119318056Y-75852872D01*
X119231112Y-75871353D01*
X119137712Y-75891206D01*
X119131682Y-75893891D01*
X119131681Y-75893891D01*
X118969278Y-75966197D01*
X118969276Y-75966198D01*
X118963248Y-75968882D01*
X118808747Y-76081134D01*
X118680960Y-76223056D01*
X118585473Y-76388444D01*
X118526458Y-76570072D01*
X118525768Y-76576633D01*
X118525768Y-76576635D01*
X118507186Y-76753435D01*
X118506496Y-76760000D01*
X117203500Y-76760000D01*
X117203500Y-74810000D01*
X131996496Y-74810000D01*
X131997186Y-74816565D01*
X132015113Y-74987128D01*
X132016458Y-74999928D01*
X132075473Y-75181556D01*
X132170960Y-75346944D01*
X132175378Y-75351851D01*
X132175379Y-75351852D01*
X132205470Y-75385271D01*
X132298747Y-75488866D01*
X132453248Y-75601118D01*
X132459276Y-75603802D01*
X132459278Y-75603803D01*
X132621681Y-75676109D01*
X132627712Y-75678794D01*
X132721112Y-75698647D01*
X132808056Y-75717128D01*
X132808061Y-75717128D01*
X132814513Y-75718500D01*
X133005487Y-75718500D01*
X133011939Y-75717128D01*
X133011944Y-75717128D01*
X133098888Y-75698647D01*
X133192288Y-75678794D01*
X133198319Y-75676109D01*
X133360722Y-75603803D01*
X133360724Y-75603802D01*
X133366752Y-75601118D01*
X133521253Y-75488866D01*
X133614530Y-75385271D01*
X133644621Y-75351852D01*
X133644622Y-75351851D01*
X133649040Y-75346944D01*
X133744527Y-75181556D01*
X133803542Y-74999928D01*
X133804888Y-74987128D01*
X133822814Y-74816565D01*
X133823504Y-74810000D01*
X133806524Y-74648444D01*
X133804232Y-74626635D01*
X133804232Y-74626633D01*
X133803542Y-74620072D01*
X133744527Y-74438444D01*
X133649040Y-74273056D01*
X133541744Y-74153891D01*
X133525675Y-74136045D01*
X133525674Y-74136044D01*
X133521253Y-74131134D01*
X133450873Y-74080000D01*
X156806496Y-74080000D01*
X156826458Y-74269928D01*
X156885473Y-74451556D01*
X156888776Y-74457278D01*
X156888777Y-74457279D01*
X156906961Y-74488774D01*
X156980960Y-74616944D01*
X157108747Y-74758866D01*
X157170091Y-74803435D01*
X157257078Y-74866635D01*
X157263248Y-74871118D01*
X157269276Y-74873802D01*
X157269278Y-74873803D01*
X157431681Y-74946109D01*
X157437712Y-74948794D01*
X157531113Y-74968647D01*
X157618056Y-74987128D01*
X157618061Y-74987128D01*
X157624513Y-74988500D01*
X157815487Y-74988500D01*
X157821939Y-74987128D01*
X157821944Y-74987128D01*
X157908887Y-74968647D01*
X158002288Y-74948794D01*
X158008319Y-74946109D01*
X158170722Y-74873803D01*
X158170724Y-74873802D01*
X158176752Y-74871118D01*
X158182923Y-74866635D01*
X158269909Y-74803435D01*
X158331253Y-74758866D01*
X158459040Y-74616944D01*
X158533039Y-74488774D01*
X158551223Y-74457279D01*
X158551224Y-74457278D01*
X158554527Y-74451556D01*
X158613542Y-74269928D01*
X158633504Y-74080000D01*
X158618772Y-73939834D01*
X158614232Y-73896635D01*
X158614232Y-73896633D01*
X158613542Y-73890072D01*
X158554527Y-73708444D01*
X158459040Y-73543056D01*
X158417243Y-73496635D01*
X158335675Y-73406045D01*
X158335674Y-73406044D01*
X158331253Y-73401134D01*
X158176752Y-73288882D01*
X158170724Y-73286198D01*
X158170722Y-73286197D01*
X158008319Y-73213891D01*
X158008318Y-73213891D01*
X158002288Y-73211206D01*
X157908888Y-73191353D01*
X157821944Y-73172872D01*
X157821939Y-73172872D01*
X157815487Y-73171500D01*
X157624513Y-73171500D01*
X157618061Y-73172872D01*
X157618056Y-73172872D01*
X157531112Y-73191353D01*
X157437712Y-73211206D01*
X157431682Y-73213891D01*
X157431681Y-73213891D01*
X157269278Y-73286197D01*
X157269276Y-73286198D01*
X157263248Y-73288882D01*
X157108747Y-73401134D01*
X157104326Y-73406044D01*
X157104325Y-73406045D01*
X157022758Y-73496635D01*
X156980960Y-73543056D01*
X156885473Y-73708444D01*
X156826458Y-73890072D01*
X156825768Y-73896633D01*
X156825768Y-73896635D01*
X156821228Y-73939834D01*
X156806496Y-74080000D01*
X133450873Y-74080000D01*
X133366752Y-74018882D01*
X133360724Y-74016198D01*
X133360722Y-74016197D01*
X133198319Y-73943891D01*
X133198318Y-73943891D01*
X133192288Y-73941206D01*
X133098887Y-73921353D01*
X133011944Y-73902872D01*
X133011939Y-73902872D01*
X133005487Y-73901500D01*
X132814513Y-73901500D01*
X132808061Y-73902872D01*
X132808056Y-73902872D01*
X132721113Y-73921353D01*
X132627712Y-73941206D01*
X132621682Y-73943891D01*
X132621681Y-73943891D01*
X132459278Y-74016197D01*
X132459276Y-74016198D01*
X132453248Y-74018882D01*
X132298747Y-74131134D01*
X132294326Y-74136044D01*
X132294325Y-74136045D01*
X132278257Y-74153891D01*
X132170960Y-74273056D01*
X132075473Y-74438444D01*
X132016458Y-74620072D01*
X132015768Y-74626633D01*
X132015768Y-74626635D01*
X132013476Y-74648444D01*
X131996496Y-74810000D01*
X117203500Y-74810000D01*
X117203500Y-73680000D01*
X129396496Y-73680000D01*
X129416458Y-73869928D01*
X129475473Y-74051556D01*
X129570960Y-74216944D01*
X129575378Y-74221851D01*
X129575379Y-74221852D01*
X129617064Y-74268148D01*
X129698747Y-74358866D01*
X129853248Y-74471118D01*
X129859276Y-74473802D01*
X129859278Y-74473803D01*
X130021681Y-74546109D01*
X130027712Y-74548794D01*
X130121113Y-74568647D01*
X130208056Y-74587128D01*
X130208061Y-74587128D01*
X130214513Y-74588500D01*
X130405487Y-74588500D01*
X130411939Y-74587128D01*
X130411944Y-74587128D01*
X130498887Y-74568647D01*
X130592288Y-74548794D01*
X130598319Y-74546109D01*
X130760722Y-74473803D01*
X130760724Y-74473802D01*
X130766752Y-74471118D01*
X130921253Y-74358866D01*
X131002936Y-74268148D01*
X131044621Y-74221852D01*
X131044622Y-74221851D01*
X131049040Y-74216944D01*
X131144527Y-74051556D01*
X131203542Y-73869928D01*
X131223504Y-73680000D01*
X131203542Y-73490072D01*
X131144527Y-73308444D01*
X131049040Y-73143056D01*
X130983475Y-73070238D01*
X130925675Y-73006045D01*
X130925674Y-73006044D01*
X130921253Y-73001134D01*
X130766752Y-72888882D01*
X130760724Y-72886198D01*
X130760722Y-72886197D01*
X130598319Y-72813891D01*
X130598318Y-72813891D01*
X130592288Y-72811206D01*
X130498888Y-72791353D01*
X130411944Y-72772872D01*
X130411939Y-72772872D01*
X130405487Y-72771500D01*
X130214513Y-72771500D01*
X130208061Y-72772872D01*
X130208056Y-72772872D01*
X130121112Y-72791353D01*
X130027712Y-72811206D01*
X130021682Y-72813891D01*
X130021681Y-72813891D01*
X129859278Y-72886197D01*
X129859276Y-72886198D01*
X129853248Y-72888882D01*
X129698747Y-73001134D01*
X129694326Y-73006044D01*
X129694325Y-73006045D01*
X129636526Y-73070238D01*
X129570960Y-73143056D01*
X129475473Y-73308444D01*
X129416458Y-73490072D01*
X129396496Y-73680000D01*
X117203500Y-73680000D01*
X117203500Y-71864195D01*
X133407251Y-71864195D01*
X133407548Y-71869348D01*
X133407548Y-71869351D01*
X133413011Y-71964090D01*
X133420110Y-72087215D01*
X133421247Y-72092261D01*
X133421248Y-72092267D01*
X133441119Y-72180439D01*
X133469222Y-72305139D01*
X133553266Y-72512116D01*
X133604019Y-72594938D01*
X133667291Y-72698188D01*
X133669987Y-72702588D01*
X133816250Y-72871438D01*
X133988126Y-73014132D01*
X134181000Y-73126838D01*
X134185825Y-73128680D01*
X134185826Y-73128681D01*
X134258612Y-73156475D01*
X134389692Y-73206530D01*
X134394760Y-73207561D01*
X134394763Y-73207562D01*
X134499604Y-73228892D01*
X134608597Y-73251067D01*
X134613772Y-73251257D01*
X134613774Y-73251257D01*
X134826673Y-73259064D01*
X134826677Y-73259064D01*
X134831837Y-73259253D01*
X134836957Y-73258597D01*
X134836959Y-73258597D01*
X135048288Y-73231525D01*
X135048289Y-73231525D01*
X135053416Y-73230868D01*
X135058366Y-73229383D01*
X135262429Y-73168161D01*
X135262434Y-73168159D01*
X135267384Y-73166674D01*
X135467994Y-73068396D01*
X135532544Y-73022353D01*
X136549977Y-73022353D01*
X136555258Y-73029407D01*
X136716756Y-73123779D01*
X136726042Y-73128229D01*
X136925001Y-73204203D01*
X136934899Y-73207079D01*
X137143595Y-73249538D01*
X137153823Y-73250757D01*
X137366650Y-73258562D01*
X137376936Y-73258095D01*
X137588185Y-73231034D01*
X137598262Y-73228892D01*
X137802255Y-73167691D01*
X137811842Y-73163933D01*
X138003098Y-73070238D01*
X138011944Y-73064965D01*
X138059247Y-73031223D01*
X138067648Y-73020523D01*
X138060660Y-73007370D01*
X137322812Y-72269522D01*
X137308868Y-72261908D01*
X137307035Y-72262039D01*
X137300420Y-72266290D01*
X136556737Y-73009973D01*
X136549977Y-73022353D01*
X135532544Y-73022353D01*
X135649860Y-72938673D01*
X135808096Y-72780989D01*
X135814915Y-72771500D01*
X135938453Y-72599577D01*
X135939640Y-72600430D01*
X135986960Y-72556862D01*
X136056897Y-72544645D01*
X136122338Y-72572178D01*
X136150166Y-72604012D01*
X136176459Y-72646919D01*
X136186916Y-72656380D01*
X136195694Y-72652596D01*
X136937978Y-71910312D01*
X136945592Y-71896368D01*
X136945461Y-71894535D01*
X136941210Y-71887920D01*
X136199849Y-71146559D01*
X136188313Y-71140259D01*
X136176031Y-71149882D01*
X136143499Y-71197572D01*
X136088587Y-71242575D01*
X136018063Y-71250746D01*
X135954316Y-71219492D01*
X135933618Y-71195008D01*
X135852822Y-71070117D01*
X135852820Y-71070114D01*
X135850014Y-71065777D01*
X135699670Y-70900551D01*
X135695616Y-70897349D01*
X135695615Y-70897348D01*
X135528414Y-70765300D01*
X135528410Y-70765298D01*
X135524359Y-70762098D01*
X135483053Y-70739296D01*
X135433084Y-70688864D01*
X135418312Y-70619421D01*
X135443428Y-70553016D01*
X135470780Y-70526409D01*
X135514603Y-70495150D01*
X135649860Y-70398673D01*
X135808096Y-70240989D01*
X135838893Y-70198131D01*
X135938453Y-70059577D01*
X135939776Y-70060528D01*
X135986645Y-70017357D01*
X136056580Y-70005125D01*
X136122026Y-70032644D01*
X136149875Y-70064494D01*
X136153973Y-70071181D01*
X136209987Y-70162588D01*
X136356250Y-70331438D01*
X136528126Y-70474132D01*
X136601445Y-70516976D01*
X136601955Y-70517274D01*
X136650679Y-70568912D01*
X136663750Y-70638695D01*
X136637019Y-70704467D01*
X136596562Y-70737827D01*
X136588460Y-70742044D01*
X136579734Y-70747539D01*
X136559677Y-70762599D01*
X136551223Y-70773927D01*
X136557968Y-70786258D01*
X137297188Y-71525478D01*
X137311132Y-71533092D01*
X137312965Y-71532961D01*
X137319580Y-71528710D01*
X138063389Y-70784901D01*
X138070410Y-70772044D01*
X138063611Y-70762713D01*
X138059559Y-70760021D01*
X138022602Y-70739620D01*
X137972631Y-70689187D01*
X137957859Y-70619745D01*
X137982975Y-70553339D01*
X138010327Y-70526732D01*
X138033797Y-70509991D01*
X138189860Y-70398673D01*
X138348096Y-70240989D01*
X138378893Y-70198131D01*
X138478453Y-70059577D01*
X138479776Y-70060528D01*
X138526645Y-70017357D01*
X138596580Y-70005125D01*
X138662026Y-70032644D01*
X138689875Y-70064494D01*
X138693973Y-70071181D01*
X138749987Y-70162588D01*
X138896250Y-70331438D01*
X139068126Y-70474132D01*
X139138595Y-70515311D01*
X139141445Y-70516976D01*
X139190169Y-70568614D01*
X139203240Y-70638397D01*
X139176509Y-70704169D01*
X139136055Y-70737527D01*
X139123607Y-70744007D01*
X139119474Y-70747110D01*
X139119471Y-70747112D01*
X138949100Y-70875030D01*
X138944965Y-70878135D01*
X138941393Y-70881873D01*
X138826192Y-71002424D01*
X138790629Y-71039638D01*
X138683204Y-71197118D01*
X138682898Y-71197566D01*
X138627987Y-71242569D01*
X138557462Y-71250740D01*
X138493715Y-71219486D01*
X138473017Y-71195001D01*
X138443062Y-71148697D01*
X138432377Y-71139495D01*
X138422812Y-71143898D01*
X137682022Y-71884688D01*
X137674408Y-71898632D01*
X137674539Y-71900465D01*
X137678790Y-71907080D01*
X138420474Y-72648764D01*
X138432484Y-72655323D01*
X138444223Y-72646355D01*
X138478022Y-72599319D01*
X138479277Y-72600221D01*
X138526391Y-72556855D01*
X138596330Y-72544648D01*
X138661767Y-72572191D01*
X138689580Y-72604013D01*
X138747287Y-72698183D01*
X138747291Y-72698188D01*
X138749987Y-72702588D01*
X138896250Y-72871438D01*
X139068126Y-73014132D01*
X139261000Y-73126838D01*
X139265825Y-73128680D01*
X139265826Y-73128681D01*
X139338612Y-73156475D01*
X139469692Y-73206530D01*
X139474760Y-73207561D01*
X139474763Y-73207562D01*
X139579604Y-73228892D01*
X139688597Y-73251067D01*
X139693772Y-73251257D01*
X139693774Y-73251257D01*
X139906673Y-73259064D01*
X139906677Y-73259064D01*
X139911837Y-73259253D01*
X139916957Y-73258597D01*
X139916959Y-73258597D01*
X140128288Y-73231525D01*
X140128289Y-73231525D01*
X140133416Y-73230868D01*
X140138366Y-73229383D01*
X140342429Y-73168161D01*
X140342434Y-73168159D01*
X140347384Y-73166674D01*
X140547994Y-73068396D01*
X140729860Y-72938673D01*
X140888096Y-72780989D01*
X140894915Y-72771500D01*
X141018453Y-72599577D01*
X141019776Y-72600528D01*
X141066645Y-72557357D01*
X141136580Y-72545125D01*
X141202026Y-72572644D01*
X141229875Y-72604494D01*
X141289987Y-72702588D01*
X141436250Y-72871438D01*
X141608126Y-73014132D01*
X141801000Y-73126838D01*
X141805825Y-73128680D01*
X141805826Y-73128681D01*
X141878612Y-73156475D01*
X142009692Y-73206530D01*
X142014760Y-73207561D01*
X142014763Y-73207562D01*
X142119604Y-73228892D01*
X142228597Y-73251067D01*
X142233772Y-73251257D01*
X142233774Y-73251257D01*
X142446673Y-73259064D01*
X142446677Y-73259064D01*
X142451837Y-73259253D01*
X142456957Y-73258597D01*
X142456959Y-73258597D01*
X142668288Y-73231525D01*
X142668289Y-73231525D01*
X142673416Y-73230868D01*
X142678366Y-73229383D01*
X142882429Y-73168161D01*
X142882434Y-73168159D01*
X142887384Y-73166674D01*
X143087994Y-73068396D01*
X143269860Y-72938673D01*
X143428096Y-72780989D01*
X143434915Y-72771500D01*
X143558453Y-72599577D01*
X143559776Y-72600528D01*
X143606645Y-72557357D01*
X143676580Y-72545125D01*
X143742026Y-72572644D01*
X143769875Y-72604494D01*
X143829987Y-72702588D01*
X143976250Y-72871438D01*
X144148126Y-73014132D01*
X144341000Y-73126838D01*
X144345825Y-73128680D01*
X144345826Y-73128681D01*
X144418612Y-73156475D01*
X144549692Y-73206530D01*
X144554760Y-73207561D01*
X144554763Y-73207562D01*
X144659604Y-73228892D01*
X144768597Y-73251067D01*
X144773772Y-73251257D01*
X144773774Y-73251257D01*
X144986673Y-73259064D01*
X144986677Y-73259064D01*
X144991837Y-73259253D01*
X144996957Y-73258597D01*
X144996959Y-73258597D01*
X145208288Y-73231525D01*
X145208289Y-73231525D01*
X145213416Y-73230868D01*
X145218366Y-73229383D01*
X145422429Y-73168161D01*
X145422434Y-73168159D01*
X145427384Y-73166674D01*
X145627994Y-73068396D01*
X145809860Y-72938673D01*
X145968096Y-72780989D01*
X145974915Y-72771500D01*
X146098453Y-72599577D01*
X146099776Y-72600528D01*
X146146645Y-72557357D01*
X146216580Y-72545125D01*
X146282026Y-72572644D01*
X146309875Y-72604494D01*
X146369987Y-72702588D01*
X146516250Y-72871438D01*
X146688126Y-73014132D01*
X146881000Y-73126838D01*
X146885825Y-73128680D01*
X146885826Y-73128681D01*
X146958612Y-73156475D01*
X147089692Y-73206530D01*
X147094760Y-73207561D01*
X147094763Y-73207562D01*
X147199604Y-73228892D01*
X147308597Y-73251067D01*
X147313772Y-73251257D01*
X147313774Y-73251257D01*
X147526673Y-73259064D01*
X147526677Y-73259064D01*
X147531837Y-73259253D01*
X147536957Y-73258597D01*
X147536959Y-73258597D01*
X147748288Y-73231525D01*
X147748289Y-73231525D01*
X147753416Y-73230868D01*
X147758366Y-73229383D01*
X147962429Y-73168161D01*
X147962434Y-73168159D01*
X147967384Y-73166674D01*
X148167994Y-73068396D01*
X148349860Y-72938673D01*
X148508096Y-72780989D01*
X148514915Y-72771500D01*
X148638453Y-72599577D01*
X148639776Y-72600528D01*
X148686645Y-72557357D01*
X148756580Y-72545125D01*
X148822026Y-72572644D01*
X148849875Y-72604494D01*
X148909987Y-72702588D01*
X149056250Y-72871438D01*
X149228126Y-73014132D01*
X149421000Y-73126838D01*
X149425825Y-73128680D01*
X149425826Y-73128681D01*
X149498612Y-73156475D01*
X149629692Y-73206530D01*
X149634760Y-73207561D01*
X149634763Y-73207562D01*
X149739604Y-73228892D01*
X149848597Y-73251067D01*
X149853772Y-73251257D01*
X149853774Y-73251257D01*
X150066673Y-73259064D01*
X150066677Y-73259064D01*
X150071837Y-73259253D01*
X150076957Y-73258597D01*
X150076959Y-73258597D01*
X150288288Y-73231525D01*
X150288289Y-73231525D01*
X150293416Y-73230868D01*
X150298366Y-73229383D01*
X150502429Y-73168161D01*
X150502434Y-73168159D01*
X150507384Y-73166674D01*
X150707994Y-73068396D01*
X150889860Y-72938673D01*
X151048096Y-72780989D01*
X151054915Y-72771500D01*
X151178453Y-72599577D01*
X151179776Y-72600528D01*
X151226645Y-72557357D01*
X151296580Y-72545125D01*
X151362026Y-72572644D01*
X151389875Y-72604494D01*
X151449987Y-72702588D01*
X151596250Y-72871438D01*
X151768126Y-73014132D01*
X151961000Y-73126838D01*
X151965825Y-73128680D01*
X151965826Y-73128681D01*
X152038612Y-73156475D01*
X152169692Y-73206530D01*
X152174760Y-73207561D01*
X152174763Y-73207562D01*
X152279604Y-73228892D01*
X152388597Y-73251067D01*
X152393772Y-73251257D01*
X152393774Y-73251257D01*
X152606673Y-73259064D01*
X152606677Y-73259064D01*
X152611837Y-73259253D01*
X152616957Y-73258597D01*
X152616959Y-73258597D01*
X152828288Y-73231525D01*
X152828289Y-73231525D01*
X152833416Y-73230868D01*
X152838366Y-73229383D01*
X153042429Y-73168161D01*
X153042434Y-73168159D01*
X153047384Y-73166674D01*
X153247994Y-73068396D01*
X153429860Y-72938673D01*
X153588096Y-72780989D01*
X153594915Y-72771500D01*
X153715435Y-72603777D01*
X153718453Y-72599577D01*
X153731995Y-72572178D01*
X153815136Y-72403953D01*
X153815137Y-72403951D01*
X153817430Y-72399311D01*
X153882370Y-72185569D01*
X153911529Y-71964090D01*
X153913156Y-71897500D01*
X153894852Y-71674861D01*
X153840431Y-71458202D01*
X153751354Y-71253340D01*
X153661362Y-71114234D01*
X153632822Y-71070117D01*
X153632820Y-71070114D01*
X153630014Y-71065777D01*
X153479670Y-70900551D01*
X153437006Y-70866857D01*
X153395944Y-70808941D01*
X153392712Y-70738018D01*
X153428337Y-70676607D01*
X153461647Y-70653876D01*
X153467007Y-70651365D01*
X153473946Y-70649050D01*
X153624348Y-70555978D01*
X153749305Y-70430803D01*
X153792352Y-70360968D01*
X153838275Y-70286468D01*
X153838276Y-70286466D01*
X153842115Y-70280238D01*
X153876307Y-70177151D01*
X153895632Y-70118889D01*
X153895632Y-70118887D01*
X153897797Y-70112361D01*
X153908500Y-70007900D01*
X153908500Y-69738134D01*
X158796500Y-69738134D01*
X158803255Y-69800316D01*
X158854385Y-69936705D01*
X158941739Y-70053261D01*
X159058295Y-70140615D01*
X159194684Y-70191745D01*
X159256866Y-70198500D01*
X161053134Y-70198500D01*
X161115316Y-70191745D01*
X161251705Y-70140615D01*
X161368261Y-70053261D01*
X161455615Y-69936705D01*
X161477799Y-69877529D01*
X161499598Y-69819382D01*
X161542240Y-69762618D01*
X161608802Y-69737918D01*
X161678150Y-69753126D01*
X161712817Y-69781114D01*
X161741250Y-69813938D01*
X161913126Y-69956632D01*
X162106000Y-70069338D01*
X162314692Y-70149030D01*
X162319760Y-70150061D01*
X162319763Y-70150062D01*
X162381331Y-70162588D01*
X162533597Y-70193567D01*
X162538772Y-70193757D01*
X162538774Y-70193757D01*
X162751673Y-70201564D01*
X162751677Y-70201564D01*
X162756837Y-70201753D01*
X162761957Y-70201097D01*
X162761959Y-70201097D01*
X162973288Y-70174025D01*
X162973289Y-70174025D01*
X162978416Y-70173368D01*
X162983366Y-70171883D01*
X163187429Y-70110661D01*
X163187434Y-70110659D01*
X163192384Y-70109174D01*
X163392994Y-70010896D01*
X163574860Y-69881173D01*
X163595051Y-69861053D01*
X163718616Y-69737918D01*
X163733096Y-69723489D01*
X163863453Y-69542077D01*
X163962430Y-69341811D01*
X163969385Y-69318918D01*
X165681917Y-69318918D01*
X165682334Y-69326156D01*
X165697682Y-69592320D01*
X165750405Y-69861053D01*
X165751792Y-69865103D01*
X165751793Y-69865108D01*
X165834576Y-70106895D01*
X165839112Y-70120144D01*
X165868238Y-70178054D01*
X165937837Y-70316437D01*
X165962160Y-70364799D01*
X165964586Y-70368328D01*
X165964589Y-70368334D01*
X166066749Y-70516976D01*
X166117274Y-70590490D01*
X166120161Y-70593663D01*
X166120162Y-70593664D01*
X166234439Y-70719253D01*
X166301582Y-70793043D01*
X166511675Y-70968707D01*
X166515316Y-70970991D01*
X166740024Y-71111951D01*
X166740028Y-71111953D01*
X166743664Y-71114234D01*
X166868461Y-71170582D01*
X166989345Y-71225164D01*
X166989349Y-71225166D01*
X166993257Y-71226930D01*
X167044541Y-71242121D01*
X167251723Y-71303491D01*
X167251727Y-71303492D01*
X167255836Y-71304709D01*
X167260070Y-71305357D01*
X167260075Y-71305358D01*
X167522298Y-71345483D01*
X167522300Y-71345483D01*
X167526540Y-71346132D01*
X167665912Y-71348322D01*
X167796071Y-71350367D01*
X167796077Y-71350367D01*
X167800362Y-71350434D01*
X168072235Y-71317534D01*
X168337127Y-71248041D01*
X168341087Y-71246401D01*
X168341092Y-71246399D01*
X168466256Y-71194554D01*
X168590136Y-71143241D01*
X168760119Y-71043911D01*
X168822879Y-71007237D01*
X168822880Y-71007236D01*
X168826582Y-71005073D01*
X169042089Y-70836094D01*
X169083809Y-70793043D01*
X169222800Y-70649615D01*
X169232669Y-70639431D01*
X169235202Y-70635983D01*
X169235206Y-70635978D01*
X169392257Y-70422178D01*
X169394795Y-70418723D01*
X169422154Y-70368334D01*
X169523418Y-70181830D01*
X169523419Y-70181828D01*
X169525468Y-70178054D01*
X169622269Y-69921877D01*
X169654508Y-69781115D01*
X169682449Y-69659117D01*
X169682450Y-69659113D01*
X169683407Y-69654933D01*
X169691910Y-69559665D01*
X169707531Y-69384627D01*
X169707531Y-69384625D01*
X169707751Y-69382161D01*
X169708193Y-69340000D01*
X169706465Y-69314648D01*
X169689859Y-69071055D01*
X169689858Y-69071049D01*
X169689567Y-69066778D01*
X169634032Y-68798612D01*
X169542617Y-68540465D01*
X169451731Y-68364376D01*
X169418978Y-68300919D01*
X169418978Y-68300918D01*
X169417013Y-68297112D01*
X169412316Y-68290428D01*
X169306710Y-68140166D01*
X169259545Y-68073057D01*
X169133148Y-67937037D01*
X169076046Y-67875588D01*
X169076043Y-67875585D01*
X169073125Y-67872445D01*
X169069810Y-67869731D01*
X169069806Y-67869728D01*
X168939069Y-67762721D01*
X168861205Y-67698990D01*
X168627704Y-67555901D01*
X168623768Y-67554173D01*
X168380873Y-67447549D01*
X168380869Y-67447548D01*
X168376945Y-67445825D01*
X168113566Y-67370800D01*
X168109324Y-67370196D01*
X168109318Y-67370195D01*
X167908834Y-67341662D01*
X167842443Y-67332213D01*
X167698589Y-67331460D01*
X167572877Y-67330802D01*
X167572871Y-67330802D01*
X167568591Y-67330780D01*
X167564347Y-67331339D01*
X167564343Y-67331339D01*
X167445302Y-67347011D01*
X167297078Y-67366525D01*
X167292938Y-67367658D01*
X167292936Y-67367658D01*
X167220008Y-67387609D01*
X167032928Y-67438788D01*
X167028980Y-67440472D01*
X166784982Y-67544546D01*
X166784978Y-67544548D01*
X166781030Y-67546232D01*
X166715005Y-67585747D01*
X166549725Y-67684664D01*
X166549721Y-67684667D01*
X166546043Y-67686868D01*
X166332318Y-67858094D01*
X166315717Y-67875588D01*
X166158467Y-68041295D01*
X166143808Y-68056742D01*
X165984002Y-68279136D01*
X165855857Y-68521161D01*
X165854385Y-68525184D01*
X165854383Y-68525188D01*
X165787812Y-68707100D01*
X165761743Y-68778337D01*
X165703404Y-69045907D01*
X165681917Y-69318918D01*
X163969385Y-69318918D01*
X164027370Y-69128069D01*
X164056529Y-68906590D01*
X164056611Y-68903240D01*
X164058074Y-68843365D01*
X164058074Y-68843361D01*
X164058156Y-68840000D01*
X164039852Y-68617361D01*
X163985431Y-68400702D01*
X163896354Y-68195840D01*
X163814443Y-68069225D01*
X163777822Y-68012617D01*
X163777820Y-68012614D01*
X163775014Y-68008277D01*
X163624670Y-67843051D01*
X163620619Y-67839852D01*
X163620615Y-67839848D01*
X163453414Y-67707800D01*
X163453410Y-67707798D01*
X163449359Y-67704598D01*
X163422100Y-67689550D01*
X163335158Y-67641556D01*
X163253789Y-67596638D01*
X163248920Y-67594914D01*
X163248916Y-67594912D01*
X163048087Y-67523795D01*
X163048083Y-67523794D01*
X163043212Y-67522069D01*
X163038119Y-67521162D01*
X163038116Y-67521161D01*
X162828373Y-67483800D01*
X162828367Y-67483799D01*
X162823284Y-67482894D01*
X162749452Y-67481992D01*
X162605081Y-67480228D01*
X162605079Y-67480228D01*
X162599911Y-67480165D01*
X162379091Y-67513955D01*
X162166756Y-67583357D01*
X161968607Y-67686507D01*
X161964474Y-67689610D01*
X161964471Y-67689612D01*
X161794100Y-67817530D01*
X161789965Y-67820635D01*
X161733537Y-67879684D01*
X161709283Y-67905064D01*
X161647759Y-67940494D01*
X161576846Y-67937037D01*
X161519060Y-67895791D01*
X161500207Y-67862243D01*
X161458767Y-67751703D01*
X161455615Y-67743295D01*
X161368261Y-67626739D01*
X161251705Y-67539385D01*
X161115316Y-67488255D01*
X161053134Y-67481500D01*
X159256866Y-67481500D01*
X159194684Y-67488255D01*
X159058295Y-67539385D01*
X158941739Y-67626739D01*
X158854385Y-67743295D01*
X158803255Y-67879684D01*
X158796500Y-67941866D01*
X158796500Y-69738134D01*
X153908500Y-69738134D01*
X153908500Y-68707100D01*
X153908163Y-68703850D01*
X153898238Y-68608192D01*
X153898237Y-68608188D01*
X153897526Y-68601334D01*
X153877219Y-68540465D01*
X153843868Y-68440502D01*
X153841550Y-68433554D01*
X153748478Y-68283152D01*
X153623303Y-68158195D01*
X153549030Y-68112412D01*
X153478968Y-68069225D01*
X153478966Y-68069224D01*
X153472738Y-68065385D01*
X153368084Y-68030673D01*
X153311389Y-68011868D01*
X153311387Y-68011868D01*
X153304861Y-68009703D01*
X153298025Y-68009003D01*
X153298022Y-68009002D01*
X153253660Y-68004457D01*
X153200400Y-67999000D01*
X151899600Y-67999000D01*
X151896354Y-67999337D01*
X151896350Y-67999337D01*
X151800692Y-68009262D01*
X151800688Y-68009263D01*
X151793834Y-68009974D01*
X151787298Y-68012155D01*
X151787296Y-68012155D01*
X151724631Y-68033062D01*
X151626054Y-68065950D01*
X151475652Y-68159022D01*
X151470479Y-68164204D01*
X151412686Y-68222098D01*
X151350695Y-68284197D01*
X151346855Y-68290427D01*
X151346854Y-68290428D01*
X151301275Y-68364370D01*
X151257885Y-68434762D01*
X151255579Y-68441713D01*
X151253561Y-68446042D01*
X151206644Y-68499328D01*
X151138367Y-68518790D01*
X151070407Y-68498249D01*
X151046172Y-68477594D01*
X150943152Y-68364376D01*
X150943142Y-68364367D01*
X150939670Y-68360551D01*
X150935619Y-68357352D01*
X150935615Y-68357348D01*
X150768414Y-68225300D01*
X150768410Y-68225298D01*
X150764359Y-68222098D01*
X150568789Y-68114138D01*
X150563920Y-68112414D01*
X150563916Y-68112412D01*
X150363087Y-68041295D01*
X150363083Y-68041294D01*
X150358212Y-68039569D01*
X150353119Y-68038662D01*
X150353116Y-68038661D01*
X150143373Y-68001300D01*
X150143367Y-68001299D01*
X150138284Y-68000394D01*
X150064452Y-67999492D01*
X149920081Y-67997728D01*
X149920079Y-67997728D01*
X149914911Y-67997665D01*
X149694091Y-68031455D01*
X149481756Y-68100857D01*
X149451443Y-68116637D01*
X149299296Y-68195840D01*
X149283607Y-68204007D01*
X149279474Y-68207110D01*
X149279471Y-68207112D01*
X149154532Y-68300919D01*
X149104965Y-68338135D01*
X148950629Y-68499638D01*
X148843201Y-68657121D01*
X148788293Y-68702121D01*
X148717768Y-68710292D01*
X148654021Y-68679038D01*
X148633324Y-68654554D01*
X148552822Y-68530117D01*
X148552820Y-68530114D01*
X148550014Y-68525777D01*
X148399670Y-68360551D01*
X148395619Y-68357352D01*
X148395615Y-68357348D01*
X148228414Y-68225300D01*
X148228410Y-68225298D01*
X148224359Y-68222098D01*
X148028789Y-68114138D01*
X148023920Y-68112414D01*
X148023916Y-68112412D01*
X147823087Y-68041295D01*
X147823083Y-68041294D01*
X147818212Y-68039569D01*
X147813119Y-68038662D01*
X147813116Y-68038661D01*
X147603373Y-68001300D01*
X147603367Y-68001299D01*
X147598284Y-68000394D01*
X147524452Y-67999492D01*
X147380081Y-67997728D01*
X147380079Y-67997728D01*
X147374911Y-67997665D01*
X147154091Y-68031455D01*
X146941756Y-68100857D01*
X146911443Y-68116637D01*
X146759296Y-68195840D01*
X146743607Y-68204007D01*
X146739474Y-68207110D01*
X146739471Y-68207112D01*
X146614532Y-68300919D01*
X146564965Y-68338135D01*
X146410629Y-68499638D01*
X146303201Y-68657121D01*
X146248293Y-68702121D01*
X146177768Y-68710292D01*
X146114021Y-68679038D01*
X146093324Y-68654554D01*
X146012822Y-68530117D01*
X146012820Y-68530114D01*
X146010014Y-68525777D01*
X145859670Y-68360551D01*
X145855619Y-68357352D01*
X145855615Y-68357348D01*
X145688414Y-68225300D01*
X145688410Y-68225298D01*
X145684359Y-68222098D01*
X145488789Y-68114138D01*
X145483920Y-68112414D01*
X145483916Y-68112412D01*
X145283087Y-68041295D01*
X145283083Y-68041294D01*
X145278212Y-68039569D01*
X145273119Y-68038662D01*
X145273116Y-68038661D01*
X145063373Y-68001300D01*
X145063367Y-68001299D01*
X145058284Y-68000394D01*
X144984452Y-67999492D01*
X144840081Y-67997728D01*
X144840079Y-67997728D01*
X144834911Y-67997665D01*
X144614091Y-68031455D01*
X144401756Y-68100857D01*
X144371443Y-68116637D01*
X144219296Y-68195840D01*
X144203607Y-68204007D01*
X144199474Y-68207110D01*
X144199471Y-68207112D01*
X144074532Y-68300919D01*
X144024965Y-68338135D01*
X143870629Y-68499638D01*
X143763201Y-68657121D01*
X143708293Y-68702121D01*
X143637768Y-68710292D01*
X143574021Y-68679038D01*
X143553324Y-68654554D01*
X143472822Y-68530117D01*
X143472820Y-68530114D01*
X143470014Y-68525777D01*
X143319670Y-68360551D01*
X143315619Y-68357352D01*
X143315615Y-68357348D01*
X143148414Y-68225300D01*
X143148410Y-68225298D01*
X143144359Y-68222098D01*
X142948789Y-68114138D01*
X142943920Y-68112414D01*
X142943916Y-68112412D01*
X142743087Y-68041295D01*
X142743083Y-68041294D01*
X142738212Y-68039569D01*
X142733119Y-68038662D01*
X142733116Y-68038661D01*
X142523373Y-68001300D01*
X142523367Y-68001299D01*
X142518284Y-68000394D01*
X142444452Y-67999492D01*
X142300081Y-67997728D01*
X142300079Y-67997728D01*
X142294911Y-67997665D01*
X142074091Y-68031455D01*
X141861756Y-68100857D01*
X141831443Y-68116637D01*
X141679296Y-68195840D01*
X141663607Y-68204007D01*
X141659474Y-68207110D01*
X141659471Y-68207112D01*
X141534532Y-68300919D01*
X141484965Y-68338135D01*
X141330629Y-68499638D01*
X141223201Y-68657121D01*
X141168293Y-68702121D01*
X141097768Y-68710292D01*
X141034021Y-68679038D01*
X141013324Y-68654554D01*
X140932822Y-68530117D01*
X140932820Y-68530114D01*
X140930014Y-68525777D01*
X140779670Y-68360551D01*
X140775619Y-68357352D01*
X140775615Y-68357348D01*
X140608414Y-68225300D01*
X140608410Y-68225298D01*
X140604359Y-68222098D01*
X140408789Y-68114138D01*
X140403920Y-68112414D01*
X140403916Y-68112412D01*
X140203087Y-68041295D01*
X140203083Y-68041294D01*
X140198212Y-68039569D01*
X140193119Y-68038662D01*
X140193116Y-68038661D01*
X139983373Y-68001300D01*
X139983367Y-68001299D01*
X139978284Y-68000394D01*
X139904452Y-67999492D01*
X139760081Y-67997728D01*
X139760079Y-67997728D01*
X139754911Y-67997665D01*
X139534091Y-68031455D01*
X139321756Y-68100857D01*
X139291443Y-68116637D01*
X139139296Y-68195840D01*
X139123607Y-68204007D01*
X139119474Y-68207110D01*
X139119471Y-68207112D01*
X138994532Y-68300919D01*
X138944965Y-68338135D01*
X138790629Y-68499638D01*
X138683201Y-68657121D01*
X138628293Y-68702121D01*
X138557768Y-68710292D01*
X138494021Y-68679038D01*
X138473324Y-68654554D01*
X138392822Y-68530117D01*
X138392820Y-68530114D01*
X138390014Y-68525777D01*
X138239670Y-68360551D01*
X138235619Y-68357352D01*
X138235615Y-68357348D01*
X138068414Y-68225300D01*
X138068410Y-68225298D01*
X138064359Y-68222098D01*
X137868789Y-68114138D01*
X137863920Y-68112414D01*
X137863916Y-68112412D01*
X137663087Y-68041295D01*
X137663083Y-68041294D01*
X137658212Y-68039569D01*
X137653119Y-68038662D01*
X137653116Y-68038661D01*
X137443373Y-68001300D01*
X137443367Y-68001299D01*
X137438284Y-68000394D01*
X137364452Y-67999492D01*
X137220081Y-67997728D01*
X137220079Y-67997728D01*
X137214911Y-67997665D01*
X136994091Y-68031455D01*
X136781756Y-68100857D01*
X136751443Y-68116637D01*
X136599296Y-68195840D01*
X136583607Y-68204007D01*
X136579474Y-68207110D01*
X136579471Y-68207112D01*
X136454532Y-68300919D01*
X136404965Y-68338135D01*
X136250629Y-68499638D01*
X136143201Y-68657121D01*
X136088293Y-68702121D01*
X136017768Y-68710292D01*
X135954021Y-68679038D01*
X135933324Y-68654554D01*
X135852822Y-68530117D01*
X135852820Y-68530114D01*
X135850014Y-68525777D01*
X135699670Y-68360551D01*
X135695619Y-68357352D01*
X135695615Y-68357348D01*
X135528414Y-68225300D01*
X135528410Y-68225298D01*
X135524359Y-68222098D01*
X135328789Y-68114138D01*
X135323920Y-68112414D01*
X135323916Y-68112412D01*
X135123087Y-68041295D01*
X135123083Y-68041294D01*
X135118212Y-68039569D01*
X135113119Y-68038662D01*
X135113116Y-68038661D01*
X134903373Y-68001300D01*
X134903367Y-68001299D01*
X134898284Y-68000394D01*
X134824452Y-67999492D01*
X134680081Y-67997728D01*
X134680079Y-67997728D01*
X134674911Y-67997665D01*
X134454091Y-68031455D01*
X134241756Y-68100857D01*
X134211443Y-68116637D01*
X134059296Y-68195840D01*
X134043607Y-68204007D01*
X134039474Y-68207110D01*
X134039471Y-68207112D01*
X133914532Y-68300919D01*
X133864965Y-68338135D01*
X133710629Y-68499638D01*
X133584743Y-68684180D01*
X133490688Y-68886805D01*
X133430989Y-69102070D01*
X133407251Y-69324195D01*
X133407548Y-69329348D01*
X133407548Y-69329351D01*
X133410593Y-69382161D01*
X133420110Y-69547215D01*
X133421247Y-69552261D01*
X133421248Y-69552267D01*
X133442167Y-69645088D01*
X133469222Y-69765139D01*
X133516338Y-69881173D01*
X133546979Y-69956632D01*
X133553266Y-69972116D01*
X133598592Y-70046081D01*
X133667291Y-70158188D01*
X133669987Y-70162588D01*
X133816250Y-70331438D01*
X133988126Y-70474132D01*
X134058595Y-70515311D01*
X134061445Y-70516976D01*
X134110169Y-70568614D01*
X134123240Y-70638397D01*
X134096509Y-70704169D01*
X134056055Y-70737527D01*
X134043607Y-70744007D01*
X134039474Y-70747110D01*
X134039471Y-70747112D01*
X133869100Y-70875030D01*
X133864965Y-70878135D01*
X133861393Y-70881873D01*
X133746192Y-71002424D01*
X133710629Y-71039638D01*
X133584743Y-71224180D01*
X133490688Y-71426805D01*
X133430989Y-71642070D01*
X133407251Y-71864195D01*
X117203500Y-71864195D01*
X117203500Y-69318918D01*
X117681917Y-69318918D01*
X117682334Y-69326156D01*
X117697682Y-69592320D01*
X117750405Y-69861053D01*
X117751792Y-69865103D01*
X117751793Y-69865108D01*
X117834576Y-70106895D01*
X117839112Y-70120144D01*
X117868238Y-70178054D01*
X117937837Y-70316437D01*
X117962160Y-70364799D01*
X117964586Y-70368328D01*
X117964589Y-70368334D01*
X118066749Y-70516976D01*
X118117274Y-70590490D01*
X118120161Y-70593663D01*
X118120162Y-70593664D01*
X118234439Y-70719253D01*
X118301582Y-70793043D01*
X118511675Y-70968707D01*
X118515316Y-70970991D01*
X118740024Y-71111951D01*
X118740028Y-71111953D01*
X118743664Y-71114234D01*
X118868461Y-71170582D01*
X118989345Y-71225164D01*
X118989349Y-71225166D01*
X118993257Y-71226930D01*
X119044541Y-71242121D01*
X119251723Y-71303491D01*
X119251727Y-71303492D01*
X119255836Y-71304709D01*
X119260070Y-71305357D01*
X119260075Y-71305358D01*
X119522298Y-71345483D01*
X119522300Y-71345483D01*
X119526540Y-71346132D01*
X119665912Y-71348322D01*
X119796071Y-71350367D01*
X119796077Y-71350367D01*
X119800362Y-71350434D01*
X120072235Y-71317534D01*
X120337127Y-71248041D01*
X120341087Y-71246401D01*
X120341092Y-71246399D01*
X120466256Y-71194554D01*
X120590136Y-71143241D01*
X120760119Y-71043911D01*
X120822879Y-71007237D01*
X120822880Y-71007236D01*
X120826582Y-71005073D01*
X121042089Y-70836094D01*
X121083809Y-70793043D01*
X121222800Y-70649615D01*
X121232669Y-70639431D01*
X121235202Y-70635983D01*
X121235206Y-70635978D01*
X121392257Y-70422178D01*
X121394795Y-70418723D01*
X121422154Y-70368334D01*
X121523418Y-70181830D01*
X121523419Y-70181828D01*
X121525468Y-70178054D01*
X121622269Y-69921877D01*
X121654508Y-69781115D01*
X121682449Y-69659117D01*
X121682450Y-69659113D01*
X121683407Y-69654933D01*
X121691910Y-69559665D01*
X121707531Y-69384627D01*
X121707531Y-69384625D01*
X121707751Y-69382161D01*
X121708193Y-69340000D01*
X121706465Y-69314648D01*
X121689859Y-69071055D01*
X121689858Y-69071049D01*
X121689567Y-69066778D01*
X121634032Y-68798612D01*
X121542617Y-68540465D01*
X121451731Y-68364376D01*
X121418978Y-68300919D01*
X121418978Y-68300918D01*
X121417013Y-68297112D01*
X121412316Y-68290428D01*
X121306710Y-68140166D01*
X121259545Y-68073057D01*
X121133148Y-67937037D01*
X121076046Y-67875588D01*
X121076043Y-67875585D01*
X121073125Y-67872445D01*
X121069810Y-67869731D01*
X121069806Y-67869728D01*
X120939069Y-67762721D01*
X120861205Y-67698990D01*
X120627704Y-67555901D01*
X120623768Y-67554173D01*
X120380873Y-67447549D01*
X120380869Y-67447548D01*
X120376945Y-67445825D01*
X120113566Y-67370800D01*
X120109324Y-67370196D01*
X120109318Y-67370195D01*
X119908834Y-67341662D01*
X119842443Y-67332213D01*
X119698589Y-67331460D01*
X119572877Y-67330802D01*
X119572871Y-67330802D01*
X119568591Y-67330780D01*
X119564347Y-67331339D01*
X119564343Y-67331339D01*
X119445302Y-67347011D01*
X119297078Y-67366525D01*
X119292938Y-67367658D01*
X119292936Y-67367658D01*
X119220008Y-67387609D01*
X119032928Y-67438788D01*
X119028980Y-67440472D01*
X118784982Y-67544546D01*
X118784978Y-67544548D01*
X118781030Y-67546232D01*
X118715005Y-67585747D01*
X118549725Y-67684664D01*
X118549721Y-67684667D01*
X118546043Y-67686868D01*
X118332318Y-67858094D01*
X118315717Y-67875588D01*
X118158467Y-68041295D01*
X118143808Y-68056742D01*
X117984002Y-68279136D01*
X117855857Y-68521161D01*
X117854385Y-68525184D01*
X117854383Y-68525188D01*
X117787812Y-68707100D01*
X117761743Y-68778337D01*
X117703404Y-69045907D01*
X117681917Y-69318918D01*
X117203500Y-69318918D01*
X117203500Y-66974500D01*
X117223502Y-66906379D01*
X117277158Y-66859886D01*
X117329500Y-66848500D01*
X121638277Y-66848500D01*
X121706398Y-66868502D01*
G37*
%TD.AperFunction*%
%TA.AperFunction,Conductor*%
G36*
X163824065Y-99073502D02*
G01*
X163870558Y-99127158D01*
X163880662Y-99197432D01*
X163877361Y-99213172D01*
X163822864Y-99409681D01*
X163820933Y-99419800D01*
X163798302Y-99631574D01*
X163798050Y-99641863D01*
X163810309Y-99854477D01*
X163811745Y-99864697D01*
X163858565Y-100072446D01*
X163861645Y-100082275D01*
X163941770Y-100279603D01*
X163946413Y-100288794D01*
X164026460Y-100419420D01*
X164036916Y-100428880D01*
X164045694Y-100425096D01*
X165070905Y-99399885D01*
X165133217Y-99365859D01*
X165204032Y-99370924D01*
X165249095Y-99399885D01*
X166270474Y-100421264D01*
X166282484Y-100427823D01*
X166294223Y-100418855D01*
X166328022Y-100371819D01*
X166329277Y-100372721D01*
X166376391Y-100329355D01*
X166446330Y-100317148D01*
X166511767Y-100344691D01*
X166539580Y-100376513D01*
X166597287Y-100470683D01*
X166597291Y-100470688D01*
X166599987Y-100475088D01*
X166746250Y-100643938D01*
X166786711Y-100677529D01*
X166816344Y-100702131D01*
X166855979Y-100761033D01*
X166857477Y-100832014D01*
X166820363Y-100892537D01*
X166789312Y-100913175D01*
X166782996Y-100916134D01*
X166776054Y-100918450D01*
X166625652Y-101011522D01*
X166620479Y-101016704D01*
X166562686Y-101074598D01*
X166500695Y-101136697D01*
X166441610Y-101232551D01*
X166436022Y-101241616D01*
X166383250Y-101289109D01*
X166328762Y-101301500D01*
X166225856Y-101301500D01*
X166157735Y-101281498D01*
X166132662Y-101260299D01*
X166093148Y-101216873D01*
X166093146Y-101216871D01*
X166089670Y-101213051D01*
X165992990Y-101136697D01*
X165918414Y-101077800D01*
X165918410Y-101077798D01*
X165914359Y-101074598D01*
X165872569Y-101051529D01*
X165822598Y-101001097D01*
X165807826Y-100931654D01*
X165832942Y-100865248D01*
X165860293Y-100838642D01*
X165909247Y-100803723D01*
X165917648Y-100793023D01*
X165910660Y-100779870D01*
X165172812Y-100042022D01*
X165158868Y-100034408D01*
X165157035Y-100034539D01*
X165150420Y-100038790D01*
X164406737Y-100782473D01*
X164399977Y-100794853D01*
X164405258Y-100801907D01*
X164451969Y-100829203D01*
X164500693Y-100880841D01*
X164513764Y-100950624D01*
X164487033Y-101016396D01*
X164446584Y-101049752D01*
X164433607Y-101056507D01*
X164429474Y-101059610D01*
X164429471Y-101059612D01*
X164259100Y-101187530D01*
X164254965Y-101190635D01*
X164206247Y-101241616D01*
X164186241Y-101262551D01*
X164124717Y-101297981D01*
X164095147Y-101301500D01*
X156111554Y-101301500D01*
X156043433Y-101281498D01*
X155996940Y-101227842D01*
X155986836Y-101157568D01*
X156002435Y-101112500D01*
X156011223Y-101097279D01*
X156011224Y-101097278D01*
X156014527Y-101091556D01*
X156073542Y-100909928D01*
X156074647Y-100899421D01*
X156092814Y-100726565D01*
X156093504Y-100720000D01*
X156073542Y-100530072D01*
X156014527Y-100348444D01*
X155919040Y-100183056D01*
X155904455Y-100166857D01*
X155795675Y-100046045D01*
X155795674Y-100046044D01*
X155791253Y-100041134D01*
X155674139Y-99956045D01*
X155642094Y-99932763D01*
X155642093Y-99932762D01*
X155636752Y-99928882D01*
X155630724Y-99926198D01*
X155630722Y-99926197D01*
X155468319Y-99853891D01*
X155468318Y-99853891D01*
X155462288Y-99851206D01*
X155281354Y-99812747D01*
X155218881Y-99779018D01*
X155184559Y-99716869D01*
X155189287Y-99646030D01*
X155231563Y-99588992D01*
X155297964Y-99563865D01*
X155307551Y-99563500D01*
X157561233Y-99563500D01*
X157572416Y-99564027D01*
X157579909Y-99565702D01*
X157587835Y-99565453D01*
X157587836Y-99565453D01*
X157647986Y-99563562D01*
X157651945Y-99563500D01*
X157679856Y-99563500D01*
X157683791Y-99563003D01*
X157683856Y-99562995D01*
X157695693Y-99562062D01*
X157727951Y-99561048D01*
X157731970Y-99560922D01*
X157739889Y-99560673D01*
X157759343Y-99555021D01*
X157778700Y-99551013D01*
X157790930Y-99549468D01*
X157790931Y-99549468D01*
X157798797Y-99548474D01*
X157806168Y-99545555D01*
X157806170Y-99545555D01*
X157839912Y-99532196D01*
X157851142Y-99528351D01*
X157885983Y-99518229D01*
X157885984Y-99518229D01*
X157893593Y-99516018D01*
X157900412Y-99511985D01*
X157900417Y-99511983D01*
X157911028Y-99505707D01*
X157928776Y-99497012D01*
X157947617Y-99489552D01*
X157983387Y-99463564D01*
X157993307Y-99457048D01*
X158024535Y-99438580D01*
X158024538Y-99438578D01*
X158031362Y-99434542D01*
X158045683Y-99420221D01*
X158060717Y-99407380D01*
X158070693Y-99400132D01*
X158077107Y-99395472D01*
X158105288Y-99361407D01*
X158113278Y-99352626D01*
X158375501Y-99090404D01*
X158437813Y-99056379D01*
X158464596Y-99053500D01*
X163755944Y-99053500D01*
X163824065Y-99073502D01*
G37*
%TD.AperFunction*%
%TA.AperFunction,Conductor*%
G36*
X123767080Y-99493514D02*
G01*
X123775541Y-99497176D01*
X123786187Y-99502391D01*
X123824940Y-99523695D01*
X123832615Y-99525666D01*
X123832616Y-99525666D01*
X123844562Y-99528733D01*
X123863267Y-99535137D01*
X123881855Y-99543181D01*
X123889678Y-99544420D01*
X123889688Y-99544423D01*
X123925524Y-99550099D01*
X123937144Y-99552505D01*
X123968959Y-99560673D01*
X123979970Y-99563500D01*
X124000224Y-99563500D01*
X124019934Y-99565051D01*
X124039943Y-99568220D01*
X124047835Y-99567474D01*
X124066580Y-99565702D01*
X124083962Y-99564059D01*
X124095819Y-99563500D01*
X136252083Y-99563500D01*
X136320204Y-99583502D01*
X136366697Y-99637158D01*
X136376801Y-99707432D01*
X136347307Y-99772012D01*
X136316540Y-99797416D01*
X136313248Y-99798882D01*
X136307912Y-99802759D01*
X136307910Y-99802760D01*
X136258193Y-99838882D01*
X136158747Y-99911134D01*
X136154326Y-99916044D01*
X136154325Y-99916045D01*
X136041695Y-100041134D01*
X136030960Y-100053056D01*
X136010700Y-100088148D01*
X135959717Y-100176453D01*
X135935473Y-100218444D01*
X135876458Y-100400072D01*
X135875768Y-100406633D01*
X135875768Y-100406635D01*
X135860747Y-100549558D01*
X135856496Y-100590000D01*
X135857186Y-100596565D01*
X135874874Y-100764853D01*
X135876458Y-100779928D01*
X135935473Y-100961556D01*
X135938776Y-100967278D01*
X135938777Y-100967279D01*
X136022621Y-101112500D01*
X136039359Y-101181495D01*
X136016139Y-101248587D01*
X135960332Y-101292474D01*
X135913502Y-101301500D01*
X133752125Y-101301500D01*
X133732414Y-101299949D01*
X133729288Y-101299454D01*
X133722903Y-101297743D01*
X133716303Y-101297397D01*
X133716302Y-101297397D01*
X133654616Y-101294164D01*
X133648042Y-101293647D01*
X133630884Y-101291844D01*
X133630882Y-101291844D01*
X133627610Y-101291500D01*
X133607074Y-101291500D01*
X133600480Y-101291327D01*
X133538782Y-101288093D01*
X133538777Y-101288093D01*
X133532190Y-101287748D01*
X133518292Y-101289949D01*
X133498583Y-101291500D01*
X123314056Y-101291500D01*
X123245935Y-101271498D01*
X123220863Y-101250300D01*
X123163152Y-101186876D01*
X123163142Y-101186867D01*
X123159670Y-101183051D01*
X123155619Y-101179852D01*
X123155615Y-101179848D01*
X122988414Y-101047800D01*
X122988410Y-101047798D01*
X122984359Y-101044598D01*
X122943053Y-101021796D01*
X122893084Y-100971364D01*
X122878312Y-100901921D01*
X122903428Y-100835516D01*
X122930780Y-100808909D01*
X122997900Y-100761033D01*
X123109860Y-100681173D01*
X123268096Y-100523489D01*
X123302876Y-100475088D01*
X123395435Y-100346277D01*
X123398453Y-100342077D01*
X123419568Y-100299355D01*
X123495136Y-100146453D01*
X123495137Y-100146451D01*
X123497430Y-100141811D01*
X123562370Y-99928069D01*
X123591529Y-99706590D01*
X123593156Y-99640000D01*
X123592103Y-99627188D01*
X123591469Y-99619477D01*
X123605822Y-99549946D01*
X123655489Y-99499214D01*
X123724699Y-99483387D01*
X123767080Y-99493514D01*
G37*
%TD.AperFunction*%
%TA.AperFunction,Conductor*%
G36*
X128124288Y-82028502D02*
G01*
X128170781Y-82082158D01*
X128180885Y-82152432D01*
X128149805Y-82218808D01*
X128100960Y-82273056D01*
X128005473Y-82438444D01*
X127946458Y-82620072D01*
X127926496Y-82810000D01*
X127927186Y-82816565D01*
X127944861Y-82984729D01*
X127946458Y-82999928D01*
X128005473Y-83181556D01*
X128100960Y-83346944D01*
X128105378Y-83351851D01*
X128105379Y-83351852D01*
X128158822Y-83411206D01*
X128228747Y-83488866D01*
X128316843Y-83552872D01*
X128355842Y-83581206D01*
X128383248Y-83601118D01*
X128389276Y-83603802D01*
X128389278Y-83603803D01*
X128535449Y-83668882D01*
X128557712Y-83678794D01*
X128651112Y-83698647D01*
X128738056Y-83717128D01*
X128738061Y-83717128D01*
X128744513Y-83718500D01*
X128935487Y-83718500D01*
X128941939Y-83717128D01*
X128941944Y-83717128D01*
X129028888Y-83698647D01*
X129122288Y-83678794D01*
X129144551Y-83668882D01*
X129290722Y-83603803D01*
X129290724Y-83603802D01*
X129296752Y-83601118D01*
X129324159Y-83581206D01*
X129363157Y-83552872D01*
X129451253Y-83488866D01*
X129521178Y-83411206D01*
X129574621Y-83351852D01*
X129574622Y-83351851D01*
X129576289Y-83350000D01*
X159516496Y-83350000D01*
X159517186Y-83356565D01*
X159529872Y-83477262D01*
X159536458Y-83539928D01*
X159595473Y-83721556D01*
X159598776Y-83727278D01*
X159598777Y-83727279D01*
X159621855Y-83767251D01*
X159690960Y-83886944D01*
X159695378Y-83891851D01*
X159695379Y-83891852D01*
X159710616Y-83908774D01*
X159818747Y-84028866D01*
X159973248Y-84141118D01*
X159979276Y-84143802D01*
X159979278Y-84143803D01*
X160141681Y-84216109D01*
X160147712Y-84218794D01*
X160241112Y-84238647D01*
X160328056Y-84257128D01*
X160328061Y-84257128D01*
X160334513Y-84258500D01*
X160525487Y-84258500D01*
X160531939Y-84257128D01*
X160531944Y-84257128D01*
X160618887Y-84238647D01*
X160712288Y-84218794D01*
X160718319Y-84216109D01*
X160880722Y-84143803D01*
X160880724Y-84143802D01*
X160886752Y-84141118D01*
X161041253Y-84028866D01*
X161149384Y-83908774D01*
X161164621Y-83891852D01*
X161164622Y-83891851D01*
X161169040Y-83886944D01*
X161238145Y-83767251D01*
X161261223Y-83727279D01*
X161261224Y-83727278D01*
X161264527Y-83721556D01*
X161323542Y-83539928D01*
X161330129Y-83477262D01*
X161342814Y-83356565D01*
X161343504Y-83350000D01*
X161332627Y-83246507D01*
X161324232Y-83166635D01*
X161324232Y-83166633D01*
X161323542Y-83160072D01*
X161264527Y-82978444D01*
X161169040Y-82813056D01*
X161041253Y-82671134D01*
X160886752Y-82558882D01*
X160880724Y-82556198D01*
X160880722Y-82556197D01*
X160718319Y-82483891D01*
X160718318Y-82483891D01*
X160712288Y-82481206D01*
X160618888Y-82461353D01*
X160531944Y-82442872D01*
X160531939Y-82442872D01*
X160525487Y-82441500D01*
X160334513Y-82441500D01*
X160328061Y-82442872D01*
X160328056Y-82442872D01*
X160241112Y-82461353D01*
X160147712Y-82481206D01*
X160141682Y-82483891D01*
X160141681Y-82483891D01*
X159979278Y-82556197D01*
X159979276Y-82556198D01*
X159973248Y-82558882D01*
X159818747Y-82671134D01*
X159690960Y-82813056D01*
X159595473Y-82978444D01*
X159536458Y-83160072D01*
X159535768Y-83166633D01*
X159535768Y-83166635D01*
X159527373Y-83246507D01*
X159516496Y-83350000D01*
X129576289Y-83350000D01*
X129579040Y-83346944D01*
X129674527Y-83181556D01*
X129733542Y-82999928D01*
X129735140Y-82984729D01*
X129752814Y-82816565D01*
X129753504Y-82810000D01*
X129733542Y-82620072D01*
X129674527Y-82438444D01*
X129579040Y-82273056D01*
X129530195Y-82218808D01*
X129499479Y-82154802D01*
X129508244Y-82084349D01*
X129553707Y-82029818D01*
X129623833Y-82008500D01*
X164091497Y-82008500D01*
X164159618Y-82028502D01*
X164180592Y-82045405D01*
X164214595Y-82079408D01*
X164248621Y-82141720D01*
X164251500Y-82168503D01*
X164251500Y-83363737D01*
X164231498Y-83431858D01*
X164216594Y-83450788D01*
X164104319Y-83568277D01*
X164100629Y-83572138D01*
X164097720Y-83576403D01*
X164097714Y-83576411D01*
X164055284Y-83638611D01*
X163974743Y-83756680D01*
X163951406Y-83806955D01*
X163895151Y-83928148D01*
X163880688Y-83959305D01*
X163820989Y-84174570D01*
X163797251Y-84396695D01*
X163797548Y-84401848D01*
X163797548Y-84401851D01*
X163809812Y-84614547D01*
X163810110Y-84619715D01*
X163811247Y-84624761D01*
X163811248Y-84624767D01*
X163820587Y-84666206D01*
X163859222Y-84837639D01*
X163917526Y-84981226D01*
X163940975Y-85038973D01*
X163943266Y-85044616D01*
X163981641Y-85107238D01*
X164057291Y-85230688D01*
X164059987Y-85235088D01*
X164206250Y-85403938D01*
X164378126Y-85546632D01*
X164440837Y-85583277D01*
X164451445Y-85589476D01*
X164500169Y-85641114D01*
X164513240Y-85710897D01*
X164486509Y-85776669D01*
X164446055Y-85810027D01*
X164433607Y-85816507D01*
X164429474Y-85819610D01*
X164429471Y-85819612D01*
X164259100Y-85947530D01*
X164254965Y-85950635D01*
X164100629Y-86112138D01*
X164097720Y-86116403D01*
X164097714Y-86116411D01*
X163985095Y-86281504D01*
X163930184Y-86326507D01*
X163881007Y-86336500D01*
X163768767Y-86336500D01*
X163757584Y-86335973D01*
X163750091Y-86334298D01*
X163742165Y-86334547D01*
X163742164Y-86334547D01*
X163682014Y-86336438D01*
X163678055Y-86336500D01*
X163650144Y-86336500D01*
X163646210Y-86336997D01*
X163646209Y-86336997D01*
X163646144Y-86337005D01*
X163634307Y-86337938D01*
X163602490Y-86338938D01*
X163598029Y-86339078D01*
X163590110Y-86339327D01*
X163582500Y-86341538D01*
X163574671Y-86342778D01*
X163574648Y-86342635D01*
X163547489Y-86346500D01*
X162288767Y-86346500D01*
X162277584Y-86345973D01*
X162270091Y-86344298D01*
X162262165Y-86344547D01*
X162262164Y-86344547D01*
X162202001Y-86346438D01*
X162198043Y-86346500D01*
X162170144Y-86346500D01*
X162166154Y-86347004D01*
X162154320Y-86347936D01*
X162110111Y-86349326D01*
X162102497Y-86351538D01*
X162102492Y-86351539D01*
X162090659Y-86354977D01*
X162071296Y-86358988D01*
X162051203Y-86361526D01*
X162043836Y-86364443D01*
X162043831Y-86364444D01*
X162010092Y-86377802D01*
X161998865Y-86381646D01*
X161991561Y-86383768D01*
X161956407Y-86393982D01*
X161949581Y-86398019D01*
X161938972Y-86404293D01*
X161921224Y-86412988D01*
X161902383Y-86420448D01*
X161895967Y-86425110D01*
X161895966Y-86425110D01*
X161866613Y-86446436D01*
X161856693Y-86452952D01*
X161825465Y-86471420D01*
X161825462Y-86471422D01*
X161818638Y-86475458D01*
X161804317Y-86489779D01*
X161789284Y-86502619D01*
X161772893Y-86514528D01*
X161767843Y-86520632D01*
X161767838Y-86520637D01*
X161744707Y-86548598D01*
X161736717Y-86557379D01*
X160987697Y-87306398D01*
X160925385Y-87340423D01*
X160898602Y-87343302D01*
X155884500Y-87343302D01*
X155816379Y-87323300D01*
X155769886Y-87269644D01*
X155758500Y-87217302D01*
X155758500Y-85516866D01*
X155751745Y-85454684D01*
X155700615Y-85318295D01*
X155613261Y-85201739D01*
X155496705Y-85114385D01*
X155360316Y-85063255D01*
X155298134Y-85056500D01*
X153501866Y-85056500D01*
X153439684Y-85063255D01*
X153303295Y-85114385D01*
X153186739Y-85201739D01*
X153099385Y-85318295D01*
X153096233Y-85326703D01*
X153054919Y-85436907D01*
X153012277Y-85493671D01*
X152945716Y-85518371D01*
X152876367Y-85503163D01*
X152843743Y-85477476D01*
X152793151Y-85421875D01*
X152793142Y-85421866D01*
X152789670Y-85418051D01*
X152785619Y-85414852D01*
X152785615Y-85414848D01*
X152618414Y-85282800D01*
X152618410Y-85282798D01*
X152614359Y-85279598D01*
X152592895Y-85267749D01*
X152525758Y-85230688D01*
X152418789Y-85171638D01*
X152413920Y-85169914D01*
X152413916Y-85169912D01*
X152213087Y-85098795D01*
X152213083Y-85098794D01*
X152208212Y-85097069D01*
X152203119Y-85096162D01*
X152203116Y-85096161D01*
X151993373Y-85058800D01*
X151993367Y-85058799D01*
X151988284Y-85057894D01*
X151914452Y-85056992D01*
X151770081Y-85055228D01*
X151770079Y-85055228D01*
X151764911Y-85055165D01*
X151544091Y-85088955D01*
X151462815Y-85115520D01*
X151391854Y-85117671D01*
X151330992Y-85081116D01*
X151299555Y-85017458D01*
X151307525Y-84946910D01*
X151314553Y-84932755D01*
X151381223Y-84817279D01*
X151381224Y-84817278D01*
X151384527Y-84811556D01*
X151443542Y-84629928D01*
X151444616Y-84619715D01*
X151462814Y-84446565D01*
X151463504Y-84440000D01*
X151443542Y-84250072D01*
X151384527Y-84068444D01*
X151363919Y-84032749D01*
X151325219Y-83965720D01*
X151289040Y-83903056D01*
X151269302Y-83881134D01*
X151165675Y-83766045D01*
X151165674Y-83766044D01*
X151161253Y-83761134D01*
X151030584Y-83666197D01*
X151012094Y-83652763D01*
X151012093Y-83652762D01*
X151006752Y-83648882D01*
X151000724Y-83646198D01*
X151000722Y-83646197D01*
X150838319Y-83573891D01*
X150838318Y-83573891D01*
X150832288Y-83571206D01*
X150738888Y-83551353D01*
X150651944Y-83532872D01*
X150651939Y-83532872D01*
X150645487Y-83531500D01*
X150454513Y-83531500D01*
X150448061Y-83532872D01*
X150448056Y-83532872D01*
X150361112Y-83551353D01*
X150267712Y-83571206D01*
X150261682Y-83573891D01*
X150261681Y-83573891D01*
X150099278Y-83646197D01*
X150099276Y-83646198D01*
X150093248Y-83648882D01*
X150087907Y-83652762D01*
X150087906Y-83652763D01*
X150007179Y-83711415D01*
X149940311Y-83735273D01*
X149871160Y-83719193D01*
X149859057Y-83711415D01*
X149792094Y-83662763D01*
X149792093Y-83662762D01*
X149786752Y-83658882D01*
X149780724Y-83656198D01*
X149780722Y-83656197D01*
X149618319Y-83583891D01*
X149618318Y-83583891D01*
X149612288Y-83581206D01*
X149518888Y-83561353D01*
X149431944Y-83542872D01*
X149431939Y-83542872D01*
X149425487Y-83541500D01*
X149234513Y-83541500D01*
X149228061Y-83542872D01*
X149228056Y-83542872D01*
X149141112Y-83561353D01*
X149047712Y-83581206D01*
X149041682Y-83583891D01*
X149041681Y-83583891D01*
X148879278Y-83656197D01*
X148879276Y-83656198D01*
X148873248Y-83658882D01*
X148867907Y-83662762D01*
X148867906Y-83662763D01*
X148845720Y-83678882D01*
X148718747Y-83771134D01*
X148714326Y-83776044D01*
X148714325Y-83776045D01*
X148600266Y-83902721D01*
X148590960Y-83913056D01*
X148548872Y-83985954D01*
X148501247Y-84068444D01*
X148495473Y-84078444D01*
X148436458Y-84260072D01*
X148435768Y-84266633D01*
X148435768Y-84266635D01*
X148421751Y-84400000D01*
X148416496Y-84450000D01*
X148417186Y-84456565D01*
X148434865Y-84624767D01*
X148436458Y-84639928D01*
X148495473Y-84821556D01*
X148498776Y-84827278D01*
X148498777Y-84827279D01*
X148507020Y-84841556D01*
X148590960Y-84986944D01*
X148651241Y-85053893D01*
X148681956Y-85117897D01*
X148673193Y-85188350D01*
X148627730Y-85242881D01*
X148615797Y-85249955D01*
X148593607Y-85261507D01*
X148589474Y-85264610D01*
X148589471Y-85264612D01*
X148419100Y-85392530D01*
X148414965Y-85395635D01*
X148375525Y-85436907D01*
X148268175Y-85549242D01*
X148260629Y-85557138D01*
X148153201Y-85714621D01*
X148098293Y-85759621D01*
X148027768Y-85767792D01*
X147964021Y-85736538D01*
X147943324Y-85712054D01*
X147862822Y-85587617D01*
X147862820Y-85587614D01*
X147860014Y-85583277D01*
X147709670Y-85418051D01*
X147705619Y-85414852D01*
X147705615Y-85414848D01*
X147538414Y-85282800D01*
X147538410Y-85282798D01*
X147534359Y-85279598D01*
X147512895Y-85267749D01*
X147445758Y-85230688D01*
X147338789Y-85171638D01*
X147333920Y-85169914D01*
X147333916Y-85169912D01*
X147200877Y-85122801D01*
X147128212Y-85097069D01*
X147128272Y-85096900D01*
X147069352Y-85061266D01*
X147038108Y-84997514D01*
X147046291Y-84926991D01*
X147053171Y-84913187D01*
X147091223Y-84847279D01*
X147091224Y-84847278D01*
X147094527Y-84841556D01*
X147153542Y-84659928D01*
X147155083Y-84645271D01*
X147172814Y-84476565D01*
X147173504Y-84470000D01*
X147166837Y-84406565D01*
X147154232Y-84286635D01*
X147154232Y-84286633D01*
X147153542Y-84280072D01*
X147094527Y-84098444D01*
X147089694Y-84090072D01*
X147029581Y-83985954D01*
X146999040Y-83933056D01*
X146986181Y-83918774D01*
X146875675Y-83796045D01*
X146875674Y-83796044D01*
X146871253Y-83791134D01*
X146737410Y-83693891D01*
X146722094Y-83682763D01*
X146722093Y-83682762D01*
X146716752Y-83678882D01*
X146710724Y-83676198D01*
X146710722Y-83676197D01*
X146548319Y-83603891D01*
X146548318Y-83603891D01*
X146542288Y-83601206D01*
X146441741Y-83579834D01*
X146361944Y-83562872D01*
X146361939Y-83562872D01*
X146355487Y-83561500D01*
X146164513Y-83561500D01*
X146158061Y-83562872D01*
X146158056Y-83562872D01*
X146078259Y-83579834D01*
X145977712Y-83601206D01*
X145971682Y-83603891D01*
X145971681Y-83603891D01*
X145809278Y-83676197D01*
X145809276Y-83676198D01*
X145803248Y-83678882D01*
X145797907Y-83682762D01*
X145797906Y-83682763D01*
X145782590Y-83693891D01*
X145714921Y-83743056D01*
X145710943Y-83745946D01*
X145644076Y-83769804D01*
X145574924Y-83753724D01*
X145562821Y-83745946D01*
X145462094Y-83672763D01*
X145462093Y-83672762D01*
X145456752Y-83668882D01*
X145450724Y-83666198D01*
X145450722Y-83666197D01*
X145288319Y-83593891D01*
X145288318Y-83593891D01*
X145282288Y-83591206D01*
X145175000Y-83568401D01*
X145101944Y-83552872D01*
X145101939Y-83552872D01*
X145095487Y-83551500D01*
X144904513Y-83551500D01*
X144898061Y-83552872D01*
X144898056Y-83552872D01*
X144825000Y-83568401D01*
X144717712Y-83591206D01*
X144711682Y-83593891D01*
X144711681Y-83593891D01*
X144549278Y-83666197D01*
X144549276Y-83666198D01*
X144543248Y-83668882D01*
X144537907Y-83672762D01*
X144537906Y-83672763D01*
X144514410Y-83689834D01*
X144388747Y-83781134D01*
X144384326Y-83786044D01*
X144384325Y-83786045D01*
X144268458Y-83914729D01*
X144260960Y-83923056D01*
X144236328Y-83965720D01*
X144171247Y-84078444D01*
X144165473Y-84088444D01*
X144165391Y-84088697D01*
X144120935Y-84141001D01*
X144053008Y-84161651D01*
X143984699Y-84142299D01*
X143942688Y-84098657D01*
X143937732Y-84090072D01*
X143899040Y-84023056D01*
X143869909Y-83990702D01*
X143775675Y-83886045D01*
X143775674Y-83886044D01*
X143771253Y-83881134D01*
X143647379Y-83791134D01*
X143622094Y-83772763D01*
X143622093Y-83772762D01*
X143616752Y-83768882D01*
X143610724Y-83766198D01*
X143610722Y-83766197D01*
X143448319Y-83693891D01*
X143448318Y-83693891D01*
X143442288Y-83691206D01*
X143348887Y-83671353D01*
X143261944Y-83652872D01*
X143261939Y-83652872D01*
X143255487Y-83651500D01*
X143064513Y-83651500D01*
X143058061Y-83652872D01*
X143058056Y-83652872D01*
X142971113Y-83671353D01*
X142877712Y-83691206D01*
X142871682Y-83693891D01*
X142871681Y-83693891D01*
X142709278Y-83766197D01*
X142709276Y-83766198D01*
X142703248Y-83768882D01*
X142697907Y-83772762D01*
X142697906Y-83772763D01*
X142672621Y-83791134D01*
X142548747Y-83881134D01*
X142544326Y-83886044D01*
X142544325Y-83886045D01*
X142450092Y-83990702D01*
X142420960Y-84023056D01*
X142394755Y-84068444D01*
X142334770Y-84172342D01*
X142325473Y-84188444D01*
X142266458Y-84370072D01*
X142246496Y-84560000D01*
X142247186Y-84566565D01*
X142263110Y-84718069D01*
X142266458Y-84749928D01*
X142325473Y-84931556D01*
X142346076Y-84967241D01*
X142362813Y-85036233D01*
X142339593Y-85103325D01*
X142283786Y-85147213D01*
X142213111Y-85153962D01*
X142194897Y-85149012D01*
X142053091Y-85098796D01*
X142053083Y-85098794D01*
X142048212Y-85097069D01*
X142043119Y-85096162D01*
X142043116Y-85096161D01*
X141833373Y-85058800D01*
X141833367Y-85058799D01*
X141828284Y-85057894D01*
X141764244Y-85057112D01*
X141696374Y-85036279D01*
X141650540Y-84982060D01*
X141641295Y-84911668D01*
X141672146Y-84846813D01*
X141699040Y-84816944D01*
X141786069Y-84666206D01*
X141791223Y-84657279D01*
X141791224Y-84657278D01*
X141794527Y-84651556D01*
X141853542Y-84469928D01*
X141854586Y-84460000D01*
X141872814Y-84286565D01*
X141873504Y-84280000D01*
X141870750Y-84253794D01*
X141854232Y-84096635D01*
X141854232Y-84096633D01*
X141853542Y-84090072D01*
X141794527Y-83908444D01*
X141771624Y-83868774D01*
X141723741Y-83785840D01*
X141699040Y-83743056D01*
X141686941Y-83729618D01*
X141575675Y-83606045D01*
X141575674Y-83606044D01*
X141571253Y-83601134D01*
X141460674Y-83520793D01*
X141422094Y-83492763D01*
X141422093Y-83492762D01*
X141416752Y-83488882D01*
X141410724Y-83486198D01*
X141410722Y-83486197D01*
X141248319Y-83413891D01*
X141248318Y-83413891D01*
X141242288Y-83411206D01*
X141148887Y-83391353D01*
X141061944Y-83372872D01*
X141061939Y-83372872D01*
X141055487Y-83371500D01*
X140864513Y-83371500D01*
X140858061Y-83372872D01*
X140858056Y-83372872D01*
X140771113Y-83391353D01*
X140677712Y-83411206D01*
X140671682Y-83413891D01*
X140671681Y-83413891D01*
X140509278Y-83486197D01*
X140509276Y-83486198D01*
X140503248Y-83488882D01*
X140497907Y-83492762D01*
X140497906Y-83492763D01*
X140459326Y-83520793D01*
X140348747Y-83601134D01*
X140344326Y-83606044D01*
X140344325Y-83606045D01*
X140233060Y-83729618D01*
X140220960Y-83743056D01*
X140196259Y-83785840D01*
X140148377Y-83868774D01*
X140125473Y-83908444D01*
X140066458Y-84090072D01*
X140065768Y-84096633D01*
X140065768Y-84096635D01*
X140049250Y-84253794D01*
X140046496Y-84280000D01*
X140047186Y-84286565D01*
X140065415Y-84460000D01*
X140066458Y-84469928D01*
X140125473Y-84651556D01*
X140128776Y-84657278D01*
X140128777Y-84657279D01*
X140133931Y-84666206D01*
X140220960Y-84816944D01*
X140225375Y-84821847D01*
X140225379Y-84821852D01*
X140337982Y-84946910D01*
X140348747Y-84958866D01*
X140429392Y-85017458D01*
X140496624Y-85066305D01*
X140503248Y-85071118D01*
X140509276Y-85073802D01*
X140509278Y-85073803D01*
X140655413Y-85138866D01*
X140677712Y-85148794D01*
X140754253Y-85165063D01*
X140816725Y-85198791D01*
X140851047Y-85260941D01*
X140846319Y-85331780D01*
X140803712Y-85389067D01*
X140800016Y-85391843D01*
X140794965Y-85395635D01*
X140755525Y-85436907D01*
X140648175Y-85549242D01*
X140640629Y-85557138D01*
X140637720Y-85561403D01*
X140637714Y-85561411D01*
X140615392Y-85594134D01*
X140514743Y-85741680D01*
X140420688Y-85944305D01*
X140360989Y-86159570D01*
X140337251Y-86381695D01*
X140337548Y-86386848D01*
X140337548Y-86386851D01*
X140349474Y-86593680D01*
X140350110Y-86604715D01*
X140351247Y-86609761D01*
X140351248Y-86609767D01*
X140367415Y-86681502D01*
X140399222Y-86822639D01*
X140483266Y-87029616D01*
X140485965Y-87034020D01*
X140557936Y-87151467D01*
X140576474Y-87220001D01*
X140555017Y-87287678D01*
X140500378Y-87333011D01*
X140450503Y-87343302D01*
X140421397Y-87343302D01*
X140353276Y-87323300D01*
X140332301Y-87306397D01*
X139713647Y-86687742D01*
X139706113Y-86679463D01*
X139702000Y-86672982D01*
X139652348Y-86626356D01*
X139649507Y-86623602D01*
X139629770Y-86603865D01*
X139626573Y-86601385D01*
X139617551Y-86593680D01*
X139591100Y-86568841D01*
X139585321Y-86563414D01*
X139578375Y-86559595D01*
X139578372Y-86559593D01*
X139567566Y-86553652D01*
X139551047Y-86542801D01*
X139550583Y-86542441D01*
X139535041Y-86530386D01*
X139527772Y-86527241D01*
X139527768Y-86527238D01*
X139494463Y-86512826D01*
X139483813Y-86507609D01*
X139445060Y-86486305D01*
X139425437Y-86481267D01*
X139406734Y-86474863D01*
X139395420Y-86469967D01*
X139395419Y-86469967D01*
X139388145Y-86466819D01*
X139380322Y-86465580D01*
X139380312Y-86465577D01*
X139344476Y-86459901D01*
X139332856Y-86457495D01*
X139297711Y-86448472D01*
X139297710Y-86448472D01*
X139290030Y-86446500D01*
X139269776Y-86446500D01*
X139250065Y-86444949D01*
X139237886Y-86443020D01*
X139230057Y-86441780D01*
X139222165Y-86442526D01*
X139186039Y-86445941D01*
X139174181Y-86446500D01*
X126194594Y-86446500D01*
X126126473Y-86426498D01*
X126105499Y-86409595D01*
X125004776Y-85308871D01*
X125004770Y-85308865D01*
X125004767Y-85308863D01*
X124963653Y-85267749D01*
X124956110Y-85259460D01*
X124952000Y-85252982D01*
X124902361Y-85206369D01*
X124899518Y-85203614D01*
X124882571Y-85186666D01*
X124879770Y-85183865D01*
X124876573Y-85181385D01*
X124867551Y-85173680D01*
X124866577Y-85172765D01*
X124835321Y-85143414D01*
X124828375Y-85139595D01*
X124828372Y-85139593D01*
X124817566Y-85133652D01*
X124801047Y-85122801D01*
X124800583Y-85122441D01*
X124785041Y-85110386D01*
X124777772Y-85107241D01*
X124777768Y-85107238D01*
X124744463Y-85092826D01*
X124733813Y-85087609D01*
X124695060Y-85066305D01*
X124675437Y-85061267D01*
X124656734Y-85054863D01*
X124645420Y-85049967D01*
X124645419Y-85049967D01*
X124638145Y-85046819D01*
X124630322Y-85045580D01*
X124630312Y-85045577D01*
X124594476Y-85039901D01*
X124582856Y-85037495D01*
X124547711Y-85028472D01*
X124547710Y-85028472D01*
X124540030Y-85026500D01*
X124519776Y-85026500D01*
X124500065Y-85024949D01*
X124487886Y-85023020D01*
X124480057Y-85021780D01*
X124472165Y-85022526D01*
X124436039Y-85025941D01*
X124424181Y-85026500D01*
X123629515Y-85026500D01*
X123561394Y-85006498D01*
X123514901Y-84952842D01*
X123504797Y-84882568D01*
X123508957Y-84863871D01*
X123560865Y-84693023D01*
X123560865Y-84693021D01*
X123562370Y-84688069D01*
X123591529Y-84466590D01*
X123591774Y-84456565D01*
X123593074Y-84403365D01*
X123593074Y-84403361D01*
X123593156Y-84400000D01*
X134526496Y-84400000D01*
X134527186Y-84406565D01*
X134533844Y-84469908D01*
X134546458Y-84589928D01*
X134605473Y-84771556D01*
X134608776Y-84777278D01*
X134608777Y-84777279D01*
X134628567Y-84811556D01*
X134700960Y-84936944D01*
X134705378Y-84941851D01*
X134705379Y-84941852D01*
X134817437Y-85066305D01*
X134828747Y-85078866D01*
X134903294Y-85133028D01*
X134954061Y-85169912D01*
X134983248Y-85191118D01*
X134989276Y-85193802D01*
X134989278Y-85193803D01*
X135140471Y-85261118D01*
X135157712Y-85268794D01*
X135223605Y-85282800D01*
X135338056Y-85307128D01*
X135338061Y-85307128D01*
X135344513Y-85308500D01*
X135535487Y-85308500D01*
X135541939Y-85307128D01*
X135541944Y-85307128D01*
X135656395Y-85282800D01*
X135722288Y-85268794D01*
X135739529Y-85261118D01*
X135890722Y-85193803D01*
X135890724Y-85193802D01*
X135896752Y-85191118D01*
X135925940Y-85169912D01*
X135976706Y-85133028D01*
X136051253Y-85078866D01*
X136062563Y-85066305D01*
X136174621Y-84941852D01*
X136174622Y-84941851D01*
X136179040Y-84936944D01*
X136251433Y-84811556D01*
X136271223Y-84777279D01*
X136271224Y-84777278D01*
X136274527Y-84771556D01*
X136333542Y-84589928D01*
X136346157Y-84469908D01*
X136352814Y-84406565D01*
X136353504Y-84400000D01*
X136351048Y-84376635D01*
X136334232Y-84216635D01*
X136334232Y-84216633D01*
X136333542Y-84210072D01*
X136274527Y-84028444D01*
X136179040Y-83863056D01*
X136128527Y-83806955D01*
X136055675Y-83726045D01*
X136055674Y-83726044D01*
X136051253Y-83721134D01*
X135951807Y-83648882D01*
X135902094Y-83612763D01*
X135902093Y-83612762D01*
X135896752Y-83608882D01*
X135890724Y-83606198D01*
X135890722Y-83606197D01*
X135728319Y-83533891D01*
X135728318Y-83533891D01*
X135722288Y-83531206D01*
X135628887Y-83511353D01*
X135541944Y-83492872D01*
X135541939Y-83492872D01*
X135535487Y-83491500D01*
X135344513Y-83491500D01*
X135338061Y-83492872D01*
X135338056Y-83492872D01*
X135251113Y-83511353D01*
X135157712Y-83531206D01*
X135151682Y-83533891D01*
X135151681Y-83533891D01*
X134989278Y-83606197D01*
X134989276Y-83606198D01*
X134983248Y-83608882D01*
X134977907Y-83612762D01*
X134977906Y-83612763D01*
X134928193Y-83648882D01*
X134828747Y-83721134D01*
X134824326Y-83726044D01*
X134824325Y-83726045D01*
X134751474Y-83806955D01*
X134700960Y-83863056D01*
X134605473Y-84028444D01*
X134546458Y-84210072D01*
X134545768Y-84216633D01*
X134545768Y-84216635D01*
X134528952Y-84376635D01*
X134526496Y-84400000D01*
X123593156Y-84400000D01*
X123574852Y-84177361D01*
X123520431Y-83960702D01*
X123431354Y-83755840D01*
X123364741Y-83652872D01*
X123312822Y-83572617D01*
X123312820Y-83572614D01*
X123310014Y-83568277D01*
X123159670Y-83403051D01*
X123155619Y-83399852D01*
X123155615Y-83399848D01*
X122988414Y-83267800D01*
X122988410Y-83267798D01*
X122984359Y-83264598D01*
X122788789Y-83156638D01*
X122783920Y-83154914D01*
X122783916Y-83154912D01*
X122583087Y-83083795D01*
X122583083Y-83083794D01*
X122578212Y-83082069D01*
X122573119Y-83081162D01*
X122573116Y-83081161D01*
X122363373Y-83043800D01*
X122363367Y-83043799D01*
X122358284Y-83042894D01*
X122284452Y-83041992D01*
X122140081Y-83040228D01*
X122140079Y-83040228D01*
X122134911Y-83040165D01*
X121914091Y-83073955D01*
X121701756Y-83143357D01*
X121628377Y-83181556D01*
X121581678Y-83205866D01*
X121503607Y-83246507D01*
X121499474Y-83249610D01*
X121499471Y-83249612D01*
X121335304Y-83372872D01*
X121324965Y-83380635D01*
X121233781Y-83476054D01*
X121191027Y-83520793D01*
X121129503Y-83556223D01*
X121058590Y-83552766D01*
X121000804Y-83511520D01*
X120985833Y-83487194D01*
X120983865Y-83482994D01*
X120981550Y-83476054D01*
X120888478Y-83325652D01*
X120763303Y-83200695D01*
X120740499Y-83186638D01*
X120708048Y-83166635D01*
X120658383Y-83136021D01*
X120610891Y-83083250D01*
X120598500Y-83028762D01*
X120598500Y-82478503D01*
X120618502Y-82410382D01*
X120635405Y-82389408D01*
X120979408Y-82045405D01*
X121041720Y-82011379D01*
X121068503Y-82008500D01*
X128056167Y-82008500D01*
X128124288Y-82028502D01*
G37*
%TD.AperFunction*%
%TD*%
M02*
