%TF.GenerationSoftware,KiCad,Pcbnew,6.0.11+dfsg-1~bpo11+1*%
%TF.CreationDate,2023-07-05T16:33:08+02:00*%
%TF.ProjectId,avert_21,61766572-745f-4323-912e-6b696361645f,rev?*%
%TF.SameCoordinates,Original*%
%TF.FileFunction,Copper,L4,Bot*%
%TF.FilePolarity,Positive*%
%FSLAX46Y46*%
G04 Gerber Fmt 4.6, Leading zero omitted, Abs format (unit mm)*
G04 Created by KiCad (PCBNEW 6.0.11+dfsg-1~bpo11+1) date 2023-07-05 16:33:08*
%MOMM*%
%LPD*%
G01*
G04 APERTURE LIST*
G04 Aperture macros list*
%AMRoundRect*
0 Rectangle with rounded corners*
0 $1 Rounding radius*
0 $2 $3 $4 $5 $6 $7 $8 $9 X,Y pos of 4 corners*
0 Add a 4 corners polygon primitive as box body*
4,1,4,$2,$3,$4,$5,$6,$7,$8,$9,$2,$3,0*
0 Add four circle primitives for the rounded corners*
1,1,$1+$1,$2,$3*
1,1,$1+$1,$4,$5*
1,1,$1+$1,$6,$7*
1,1,$1+$1,$8,$9*
0 Add four rect primitives between the rounded corners*
20,1,$1+$1,$2,$3,$4,$5,0*
20,1,$1+$1,$4,$5,$6,$7,0*
20,1,$1+$1,$6,$7,$8,$9,0*
20,1,$1+$1,$8,$9,$2,$3,0*%
G04 Aperture macros list end*
%TA.AperFunction,ComponentPad*%
%ADD10RoundRect,0.250000X0.600000X0.600000X-0.600000X0.600000X-0.600000X-0.600000X0.600000X-0.600000X0*%
%TD*%
%TA.AperFunction,ComponentPad*%
%ADD11C,1.700000*%
%TD*%
%TA.AperFunction,ComponentPad*%
%ADD12RoundRect,0.250000X0.600000X-0.600000X0.600000X0.600000X-0.600000X0.600000X-0.600000X-0.600000X0*%
%TD*%
%TA.AperFunction,ComponentPad*%
%ADD13R,1.700000X1.700000*%
%TD*%
%TA.AperFunction,ComponentPad*%
%ADD14O,1.700000X1.700000*%
%TD*%
%TA.AperFunction,ComponentPad*%
%ADD15RoundRect,0.250000X-0.600000X0.600000X-0.600000X-0.600000X0.600000X-0.600000X0.600000X0.600000X0*%
%TD*%
%TA.AperFunction,ComponentPad*%
%ADD16RoundRect,0.250000X-0.600000X-0.600000X0.600000X-0.600000X0.600000X0.600000X-0.600000X0.600000X0*%
%TD*%
%TA.AperFunction,ViaPad*%
%ADD17C,0.800000*%
%TD*%
%TA.AperFunction,Conductor*%
%ADD18C,0.250000*%
%TD*%
%TA.AperFunction,Conductor*%
%ADD19C,0.800000*%
%TD*%
G04 APERTURE END LIST*
D10*
%TO.P,J4,1,Pin_1*%
%TO.N,+24V*%
X167700000Y-102210000D03*
D11*
%TO.P,J4,2,Pin_2*%
X165160000Y-102210000D03*
%TO.P,J4,3,Pin_3*%
%TO.N,GND*%
X167700000Y-99670000D03*
%TO.P,J4,4,Pin_4*%
%TO.N,Earth*%
X165160000Y-99670000D03*
%TO.P,J4,5,Pin_5*%
%TO.N,/CANL*%
X167700000Y-97130000D03*
%TO.P,J4,6,Pin_6*%
%TO.N,/CANH*%
X165160000Y-97130000D03*
%TO.P,J4,7,Pin_7*%
%TO.N,/SS*%
X167700000Y-94590000D03*
%TO.P,J4,8,Pin_8*%
%TO.N,/SCK*%
X165160000Y-94590000D03*
%TO.P,J4,9,Pin_9*%
%TO.N,/MOSI*%
X167700000Y-92050000D03*
%TO.P,J4,10,Pin_10*%
%TO.N,/MISO*%
X165160000Y-92050000D03*
%TO.P,J4,11,Pin_11*%
%TO.N,/SDA*%
X167700000Y-89510000D03*
%TO.P,J4,12,Pin_12*%
%TO.N,/SCL*%
X165160000Y-89510000D03*
%TO.P,J4,13,Pin_13*%
%TO.N,/RXD*%
X167700000Y-86970000D03*
%TO.P,J4,14,Pin_14*%
%TO.N,/TXD*%
X165160000Y-86970000D03*
%TO.P,J4,15,Pin_15*%
%TO.N,GND*%
X167700000Y-84430000D03*
%TO.P,J4,16,Pin_16*%
%TO.N,+3V3*%
X165160000Y-84430000D03*
%TD*%
D12*
%TO.P,J2,1,Pin_1*%
%TO.N,GNDD*%
X134790000Y-117340000D03*
D11*
%TO.P,J2,2,Pin_2*%
%TO.N,/SC2*%
X134790000Y-114800000D03*
%TO.P,J2,3,Pin_3*%
%TO.N,/SD2*%
X137330000Y-117340000D03*
%TO.P,J2,4,Pin_4*%
%TO.N,/SC3*%
X137330000Y-114800000D03*
%TO.P,J2,5,Pin_5*%
%TO.N,/SD3*%
X139870000Y-117340000D03*
%TO.P,J2,6,Pin_6*%
%TO.N,unconnected-(J2-Pad6)*%
X139870000Y-114800000D03*
%TO.P,J2,7,Pin_7*%
%TO.N,unconnected-(J2-Pad7)*%
X142410000Y-117340000D03*
%TO.P,J2,8,Pin_8*%
%TO.N,unconnected-(J2-Pad8)*%
X142410000Y-114800000D03*
%TO.P,J2,9,Pin_9*%
%TO.N,unconnected-(J2-Pad9)*%
X144950000Y-117340000D03*
%TO.P,J2,10,Pin_10*%
%TO.N,+5V*%
X144950000Y-114800000D03*
%TO.P,J2,11,Pin_11*%
%TO.N,-12V*%
X147490000Y-117340000D03*
%TO.P,J2,12,Pin_12*%
%TO.N,+12V*%
X147490000Y-114800000D03*
%TO.P,J2,13,Pin_13*%
%TO.N,GNDD*%
X150030000Y-117340000D03*
%TO.P,J2,14,Pin_14*%
%TO.N,Earth*%
X150030000Y-114800000D03*
%TO.P,J2,15,Pin_15*%
%TO.N,+VSW*%
X152570000Y-117340000D03*
%TO.P,J2,16,Pin_16*%
X152570000Y-114800000D03*
%TD*%
D13*
%TO.P,J7,1,Pin_1*%
%TO.N,/CANH*%
X160155000Y-68840000D03*
D14*
%TO.P,J7,2,Pin_2*%
%TO.N,Net-(J7-Pad2)*%
X162695000Y-68840000D03*
%TD*%
D15*
%TO.P,J1,1,Pin_1*%
%TO.N,GNDD*%
X152550000Y-69357500D03*
D11*
%TO.P,J1,2,Pin_2*%
%TO.N,/SC0*%
X152550000Y-71897500D03*
%TO.P,J1,3,Pin_3*%
%TO.N,/SD0*%
X150010000Y-69357500D03*
%TO.P,J1,4,Pin_4*%
%TO.N,/SC1*%
X150010000Y-71897500D03*
%TO.P,J1,5,Pin_5*%
%TO.N,/SD1*%
X147470000Y-69357500D03*
%TO.P,J1,6,Pin_6*%
%TO.N,unconnected-(J1-Pad6)*%
X147470000Y-71897500D03*
%TO.P,J1,7,Pin_7*%
%TO.N,unconnected-(J1-Pad7)*%
X144930000Y-69357500D03*
%TO.P,J1,8,Pin_8*%
%TO.N,unconnected-(J1-Pad8)*%
X144930000Y-71897500D03*
%TO.P,J1,9,Pin_9*%
%TO.N,unconnected-(J1-Pad9)*%
X142390000Y-69357500D03*
%TO.P,J1,10,Pin_10*%
%TO.N,+5V*%
X142390000Y-71897500D03*
%TO.P,J1,11,Pin_11*%
%TO.N,-12V*%
X139850000Y-69357500D03*
%TO.P,J1,12,Pin_12*%
%TO.N,+12V*%
X139850000Y-71897500D03*
%TO.P,J1,13,Pin_13*%
%TO.N,GNDD*%
X137310000Y-69357500D03*
%TO.P,J1,14,Pin_14*%
%TO.N,Earth*%
X137310000Y-71897500D03*
%TO.P,J1,15,Pin_15*%
%TO.N,+VSW*%
X134770000Y-69357500D03*
%TO.P,J1,16,Pin_16*%
X134770000Y-71897500D03*
%TD*%
D13*
%TO.P,J5,1,Pin_1*%
%TO.N,GND*%
X154400000Y-86415000D03*
D14*
%TO.P,J5,2,Pin_2*%
%TO.N,unconnected-(J5-Pad2)*%
X151860000Y-86415000D03*
%TO.P,J5,3,Pin_3*%
%TO.N,+3V3*%
X149320000Y-86415000D03*
%TO.P,J5,4,Pin_4*%
%TO.N,/RX_0*%
X146780000Y-86415000D03*
%TO.P,J5,5,Pin_5*%
%TO.N,/TX_0*%
X144240000Y-86415000D03*
%TO.P,J5,6,Pin_6*%
%TO.N,unconnected-(J5-Pad6)*%
X141700000Y-86415000D03*
%TD*%
D13*
%TO.P,J8,1,Pin_1*%
%TO.N,GND*%
X162795000Y-118340000D03*
D14*
%TO.P,J8,2,Pin_2*%
%TO.N,/ADDR0*%
X160255000Y-118340000D03*
%TO.P,J8,3,Pin_3*%
%TO.N,GND*%
X162795000Y-115800000D03*
%TO.P,J8,4,Pin_4*%
%TO.N,/ADDR1*%
X160255000Y-115800000D03*
%TO.P,J8,5,Pin_5*%
%TO.N,GND*%
X162795000Y-113260000D03*
%TO.P,J8,6,Pin_6*%
%TO.N,/ADDR2*%
X160255000Y-113260000D03*
%TO.P,J8,7,Pin_7*%
%TO.N,GND*%
X162795000Y-110720000D03*
%TO.P,J8,8,Pin_8*%
%TO.N,/ADDR3*%
X160255000Y-110720000D03*
%TD*%
D16*
%TO.P,J3,1,Pin_1*%
%TO.N,+3V3*%
X119690000Y-84400000D03*
D11*
%TO.P,J3,2,Pin_2*%
%TO.N,GND*%
X122230000Y-84400000D03*
%TO.P,J3,3,Pin_3*%
%TO.N,/TXD*%
X119690000Y-86940000D03*
%TO.P,J3,4,Pin_4*%
%TO.N,/RXD*%
X122230000Y-86940000D03*
%TO.P,J3,5,Pin_5*%
%TO.N,/SCL*%
X119690000Y-89480000D03*
%TO.P,J3,6,Pin_6*%
%TO.N,/SDA*%
X122230000Y-89480000D03*
%TO.P,J3,7,Pin_7*%
%TO.N,/MISO*%
X119690000Y-92020000D03*
%TO.P,J3,8,Pin_8*%
%TO.N,/MOSI*%
X122230000Y-92020000D03*
%TO.P,J3,9,Pin_9*%
%TO.N,/SCK*%
X119690000Y-94560000D03*
%TO.P,J3,10,Pin_10*%
%TO.N,/SS*%
X122230000Y-94560000D03*
%TO.P,J3,11,Pin_11*%
%TO.N,/CANH*%
X119690000Y-97100000D03*
%TO.P,J3,12,Pin_12*%
%TO.N,/CANL*%
X122230000Y-97100000D03*
%TO.P,J3,13,Pin_13*%
%TO.N,Earth*%
X119690000Y-99640000D03*
%TO.P,J3,14,Pin_14*%
%TO.N,GND*%
X122230000Y-99640000D03*
%TO.P,J3,15,Pin_15*%
%TO.N,+24V*%
X119690000Y-102180000D03*
%TO.P,J3,16,Pin_16*%
X122230000Y-102180000D03*
%TD*%
D17*
%TO.N,GND*%
X161650000Y-75020000D03*
X128840000Y-82810000D03*
X123050000Y-118710000D03*
X142140000Y-103440000D03*
X140810000Y-92980000D03*
X160430000Y-83350000D03*
X152300000Y-104100000D03*
X154650000Y-96510000D03*
X135440000Y-84400000D03*
X146260000Y-84470000D03*
X140790000Y-89730000D03*
X140960000Y-84280000D03*
%TO.N,+3V3*%
X127430000Y-81100000D03*
X143050000Y-104570000D03*
X148020000Y-81100000D03*
%TO.N,GNDD*%
X149440000Y-75050000D03*
X136040000Y-111030000D03*
X132270000Y-103430000D03*
X148760000Y-112560000D03*
X132570000Y-92950000D03*
X124610000Y-111540000D03*
X130310000Y-73680000D03*
X133920000Y-78330000D03*
X119420000Y-76760000D03*
X132790000Y-110980000D03*
X135210000Y-92960000D03*
X122630000Y-67270000D03*
%TO.N,+12V*%
X123210000Y-111520000D03*
X136770000Y-100590000D03*
X136050000Y-104930000D03*
%TO.N,-12V*%
X133260000Y-105940000D03*
X129530000Y-104920000D03*
X132910000Y-74810000D03*
%TO.N,+5V*%
X136910000Y-79280000D03*
X142420000Y-75914500D03*
X135690000Y-88990000D03*
%TO.N,/SC2*%
X150570000Y-79250000D03*
%TO.N,/SD2*%
X149290000Y-79230000D03*
%TO.N,/SCL*%
X162340000Y-89520000D03*
%TO.N,/SDA*%
X152990000Y-91260000D03*
%TO.N,Earth*%
X134874500Y-100090000D03*
X131780000Y-84610000D03*
%TO.N,/CTX*%
X153170000Y-100630000D03*
X157720000Y-74080000D03*
%TO.N,/CRX*%
X155180000Y-100720000D03*
X161360000Y-78230000D03*
%TO.N,/IO0*%
X154850000Y-92140000D03*
X130140000Y-89040000D03*
X130160000Y-91620000D03*
%TO.N,/ADDR0*%
X150640000Y-105670000D03*
%TO.N,/ADDR1*%
X152230000Y-105330000D03*
%TO.N,/LED_MQTT*%
X156520000Y-97270000D03*
X130565000Y-97275000D03*
%TO.N,/SC3*%
X144980000Y-79230000D03*
%TO.N,/SD3*%
X143740000Y-79200000D03*
%TO.N,/SCL2*%
X149320000Y-103320000D03*
X150550000Y-84440000D03*
%TO.N,/SDA2*%
X149330000Y-84450000D03*
X148080000Y-105480000D03*
%TO.N,/SCL3*%
X145000000Y-84460000D03*
X146810000Y-104450000D03*
%TO.N,/SDA3*%
X145580000Y-105440000D03*
X143160000Y-84560000D03*
%TD*%
D18*
%TO.N,GND*%
X124040000Y-119700000D02*
X123050000Y-118710000D01*
X145920000Y-83350000D02*
X141400000Y-83350000D01*
D19*
X160025000Y-86415000D02*
X154400000Y-86415000D01*
D18*
X146260000Y-83690000D02*
X145920000Y-83350000D01*
D19*
X161680000Y-84760000D02*
X161680000Y-82310000D01*
D18*
X147150000Y-84470000D02*
X148130000Y-83490000D01*
X162795000Y-119505000D02*
X162600000Y-119700000D01*
X146260000Y-84470000D02*
X146260000Y-83690000D01*
D19*
X167700000Y-84430000D02*
X167700000Y-82350000D01*
D18*
X154400000Y-84490000D02*
X154400000Y-86415000D01*
X141400000Y-83350000D02*
X140960000Y-83790000D01*
X162795000Y-118340000D02*
X162795000Y-119505000D01*
X128450000Y-84400000D02*
X128840000Y-84010000D01*
D19*
X167700000Y-82350000D02*
X166520000Y-81170000D01*
D18*
X140960000Y-83790000D02*
X140960000Y-84280000D01*
D19*
X160025000Y-86415000D02*
X161680000Y-84760000D01*
D18*
X140790000Y-89730000D02*
X140790000Y-88500000D01*
D19*
X166520000Y-81170000D02*
X165800000Y-81170000D01*
D18*
X128840000Y-84010000D02*
X128840000Y-82810000D01*
X146260000Y-84470000D02*
X147150000Y-84470000D01*
X140140000Y-87850000D02*
X140140000Y-85690000D01*
X140140000Y-85690000D02*
X140960000Y-84870000D01*
D19*
X162820000Y-81170000D02*
X165800000Y-81170000D01*
D18*
X162600000Y-119700000D02*
X124040000Y-119700000D01*
X140960000Y-84870000D02*
X140960000Y-84280000D01*
X122230000Y-84400000D02*
X128450000Y-84400000D01*
D19*
X161680000Y-82310000D02*
X162820000Y-81170000D01*
D18*
X148130000Y-83490000D02*
X153400000Y-83490000D01*
X140790000Y-88500000D02*
X140140000Y-87850000D01*
X153400000Y-83490000D02*
X154400000Y-84490000D01*
D19*
%TO.N,+VSW*%
X134770000Y-69357500D02*
X134770000Y-71897500D01*
X152570000Y-117340000D02*
X152570000Y-114800000D01*
D18*
%TO.N,GNDD*%
X138555000Y-70602500D02*
X137310000Y-69357500D01*
X133920000Y-77230000D02*
X136890000Y-74260000D01*
X132570000Y-79680000D02*
X132570000Y-92950000D01*
X133920000Y-78330000D02*
X133920000Y-77230000D01*
X138555000Y-73695000D02*
X138555000Y-70602500D01*
X133920000Y-78330000D02*
X132570000Y-79680000D01*
X136890000Y-74260000D02*
X137990000Y-74260000D01*
X137990000Y-74260000D02*
X138555000Y-73695000D01*
%TO.N,+12V*%
X136050000Y-106380000D02*
X135470000Y-106960000D01*
X127765000Y-108635000D02*
X126835000Y-108635000D01*
X136050000Y-104930000D02*
X136050000Y-106380000D01*
X128160000Y-107310000D02*
X128160000Y-108240000D01*
X125710000Y-113350000D02*
X124040000Y-113350000D01*
X139500000Y-74070000D02*
X136040000Y-77530000D01*
X126360000Y-109110000D02*
X126360000Y-112700000D01*
X139850000Y-73720000D02*
X139500000Y-74070000D01*
X126360000Y-112700000D02*
X125710000Y-113350000D01*
X136040000Y-79610000D02*
X135650000Y-80000000D01*
X139850000Y-71897500D02*
X139850000Y-73720000D01*
X133390000Y-93590000D02*
X136770000Y-96970000D01*
X136040000Y-77530000D02*
X136040000Y-79610000D01*
X128510000Y-106960000D02*
X128160000Y-107310000D01*
X134700000Y-80000000D02*
X133390000Y-81310000D01*
X135470000Y-106960000D02*
X128510000Y-106960000D01*
X126835000Y-108635000D02*
X126360000Y-109110000D01*
X123210000Y-112520000D02*
X123210000Y-111520000D01*
X128160000Y-108240000D02*
X127765000Y-108635000D01*
X124040000Y-113350000D02*
X123210000Y-112520000D01*
X133390000Y-81310000D02*
X133390000Y-93590000D01*
X136770000Y-96970000D02*
X136770000Y-100590000D01*
X135650000Y-80000000D02*
X134700000Y-80000000D01*
%TO.N,-12V*%
X133260000Y-105940000D02*
X129840000Y-105940000D01*
X128850000Y-104920000D02*
X128280000Y-104350000D01*
X130130000Y-76280000D02*
X131600000Y-74810000D01*
X129530000Y-104920000D02*
X128850000Y-104920000D01*
X131600000Y-74810000D02*
X132910000Y-74810000D01*
X129530000Y-105630000D02*
X129530000Y-104920000D01*
X128280000Y-104350000D02*
X128280000Y-88400000D01*
X128280000Y-88400000D02*
X130130000Y-86550000D01*
X130130000Y-86550000D02*
X130130000Y-76280000D01*
X129840000Y-105940000D02*
X129530000Y-105630000D01*
%TO.N,+5V*%
X138990000Y-109830000D02*
X138000000Y-108840000D01*
X136450000Y-80700000D02*
X134860000Y-80700000D01*
X137190000Y-88990000D02*
X135690000Y-88990000D01*
X144950000Y-114800000D02*
X144950000Y-110080000D01*
X136910000Y-79280000D02*
X136910000Y-77640000D01*
X136910000Y-80240000D02*
X136450000Y-80700000D01*
X140595500Y-75914500D02*
X139760000Y-76750000D01*
X142420000Y-75914500D02*
X140595500Y-75914500D01*
X136910000Y-79280000D02*
X136910000Y-80240000D01*
X144700000Y-109830000D02*
X138990000Y-109830000D01*
X144950000Y-110080000D02*
X144700000Y-109830000D01*
X138000000Y-108840000D02*
X138000000Y-89800000D01*
X134330000Y-81230000D02*
X134330000Y-88570000D01*
X138000000Y-89800000D02*
X137190000Y-88990000D01*
X134860000Y-80700000D02*
X134330000Y-81230000D01*
X136910000Y-77640000D02*
X137800000Y-76750000D01*
X134750000Y-88990000D02*
X135690000Y-88990000D01*
X134330000Y-88570000D02*
X134750000Y-88990000D01*
X137800000Y-76750000D02*
X139760000Y-76750000D01*
%TO.N,Earth*%
X134860000Y-100075500D02*
X134874500Y-100090000D01*
X136985000Y-73335000D02*
X136535000Y-73335000D01*
X131780000Y-84610000D02*
X131780000Y-94110000D01*
X131780000Y-94110000D02*
X134860000Y-97190000D01*
X132560000Y-75650000D02*
X134220000Y-75650000D01*
X134860000Y-97190000D02*
X134860000Y-100075500D01*
X137310000Y-71897500D02*
X137310000Y-73010000D01*
X131780000Y-76430000D02*
X132560000Y-75650000D01*
X137310000Y-73010000D02*
X136985000Y-73335000D01*
X131780000Y-84610000D02*
X131780000Y-76430000D01*
X134220000Y-75650000D02*
X136535000Y-73335000D01*
%TO.N,/IO0*%
X130140000Y-89040000D02*
X130140000Y-91600000D01*
X130140000Y-91600000D02*
X130160000Y-91620000D01*
%TO.N,/ADDR0*%
X156215000Y-106635000D02*
X151485000Y-106635000D01*
X160255000Y-118340000D02*
X158000000Y-118340000D01*
X157340000Y-107760000D02*
X156215000Y-106635000D01*
X157340000Y-117680000D02*
X157340000Y-107760000D01*
X158000000Y-118340000D02*
X157340000Y-117680000D01*
X151485000Y-106635000D02*
X150640000Y-105790000D01*
X150640000Y-105790000D02*
X150640000Y-105670000D01*
%TO.N,/ADDR1*%
X158140000Y-115310000D02*
X158140000Y-107320000D01*
X158140000Y-107320000D02*
X156150000Y-105330000D01*
X158630000Y-115800000D02*
X158140000Y-115310000D01*
X160255000Y-115800000D02*
X158630000Y-115800000D01*
X156150000Y-105330000D02*
X152230000Y-105330000D01*
%TO.N,/SCL2*%
X149320000Y-103320000D02*
X149320000Y-88580000D01*
X149320000Y-88580000D02*
X150550000Y-87350000D01*
X150550000Y-87350000D02*
X150550000Y-84440000D01*
%TO.N,/SDA2*%
X148080000Y-105480000D02*
X148080000Y-85700000D01*
X148080000Y-85700000D02*
X149330000Y-84450000D01*
%TO.N,/SCL3*%
X145500000Y-84960000D02*
X145000000Y-84460000D01*
X146810000Y-104450000D02*
X146810000Y-88550000D01*
X145500000Y-87240000D02*
X145500000Y-84960000D01*
X146810000Y-88550000D02*
X145500000Y-87240000D01*
%TO.N,/SDA3*%
X142970000Y-87700000D02*
X142970000Y-84750000D01*
X144900000Y-88240000D02*
X143510000Y-88240000D01*
X145590000Y-96520000D02*
X145590000Y-88930000D01*
X142970000Y-84750000D02*
X143160000Y-84560000D01*
X143510000Y-88240000D02*
X142970000Y-87700000D01*
X145590000Y-88930000D02*
X144900000Y-88240000D01*
X145580000Y-105440000D02*
X145600000Y-105420000D01*
X145600000Y-96530000D02*
X145590000Y-96520000D01*
X145600000Y-105420000D02*
X145600000Y-96530000D01*
%TD*%
%TA.AperFunction,Conductor*%
%TO.N,GNDD*%
G36*
X155763058Y-66868502D02*
G01*
X155809551Y-66922158D01*
X155820937Y-66974310D01*
X155839733Y-79501715D01*
X155839809Y-79552548D01*
X155819909Y-79620699D01*
X155766323Y-79667272D01*
X155712555Y-79678731D01*
X151571516Y-79637488D01*
X151503600Y-79616809D01*
X151457644Y-79562693D01*
X151448240Y-79492322D01*
X151452939Y-79472560D01*
X151453794Y-79469928D01*
X151463542Y-79439928D01*
X151464429Y-79431495D01*
X151482814Y-79256565D01*
X151483504Y-79250000D01*
X151463542Y-79060072D01*
X151404527Y-78878444D01*
X151309040Y-78713056D01*
X151296181Y-78698774D01*
X151185675Y-78576045D01*
X151185674Y-78576044D01*
X151181253Y-78571134D01*
X151026752Y-78458882D01*
X151020724Y-78456198D01*
X151020722Y-78456197D01*
X150858319Y-78383891D01*
X150858318Y-78383891D01*
X150852288Y-78381206D01*
X150751741Y-78359834D01*
X150671944Y-78342872D01*
X150671939Y-78342872D01*
X150665487Y-78341500D01*
X150474513Y-78341500D01*
X150468061Y-78342872D01*
X150468056Y-78342872D01*
X150388259Y-78359834D01*
X150287712Y-78381206D01*
X150281682Y-78383891D01*
X150281681Y-78383891D01*
X150119278Y-78456197D01*
X150119276Y-78456198D01*
X150113248Y-78458882D01*
X150107907Y-78462762D01*
X150107906Y-78462763D01*
X150017825Y-78528211D01*
X149950957Y-78552070D01*
X149881806Y-78535989D01*
X149869703Y-78528211D01*
X149752094Y-78442763D01*
X149752093Y-78442762D01*
X149746752Y-78438882D01*
X149740724Y-78436198D01*
X149740722Y-78436197D01*
X149578319Y-78363891D01*
X149578318Y-78363891D01*
X149572288Y-78361206D01*
X149478887Y-78341353D01*
X149391944Y-78322872D01*
X149391939Y-78322872D01*
X149385487Y-78321500D01*
X149194513Y-78321500D01*
X149188061Y-78322872D01*
X149188056Y-78322872D01*
X149101113Y-78341353D01*
X149007712Y-78361206D01*
X149001682Y-78363891D01*
X149001681Y-78363891D01*
X148839278Y-78436197D01*
X148839276Y-78436198D01*
X148833248Y-78438882D01*
X148678747Y-78551134D01*
X148674326Y-78556044D01*
X148674325Y-78556045D01*
X148572824Y-78668774D01*
X148550960Y-78693056D01*
X148518791Y-78748774D01*
X148472794Y-78828444D01*
X148455473Y-78858444D01*
X148396458Y-79040072D01*
X148376496Y-79230000D01*
X148377186Y-79236565D01*
X148395601Y-79411770D01*
X148396458Y-79419928D01*
X148398496Y-79426202D01*
X148398498Y-79426209D01*
X148402913Y-79439796D01*
X148404940Y-79510764D01*
X148368277Y-79571561D01*
X148304565Y-79602886D01*
X148281826Y-79604725D01*
X145992743Y-79581927D01*
X145924825Y-79561247D01*
X145878869Y-79507131D01*
X145870752Y-79429735D01*
X145871502Y-79426205D01*
X145873542Y-79419928D01*
X145874400Y-79411770D01*
X145892814Y-79236565D01*
X145893504Y-79230000D01*
X145873542Y-79040072D01*
X145814527Y-78858444D01*
X145797207Y-78828444D01*
X145751209Y-78748774D01*
X145719040Y-78693056D01*
X145697177Y-78668774D01*
X145595675Y-78556045D01*
X145595674Y-78556044D01*
X145591253Y-78551134D01*
X145436752Y-78438882D01*
X145430724Y-78436198D01*
X145430722Y-78436197D01*
X145268319Y-78363891D01*
X145268318Y-78363891D01*
X145262288Y-78361206D01*
X145168887Y-78341353D01*
X145081944Y-78322872D01*
X145081939Y-78322872D01*
X145075487Y-78321500D01*
X144884513Y-78321500D01*
X144878061Y-78322872D01*
X144878056Y-78322872D01*
X144791113Y-78341353D01*
X144697712Y-78361206D01*
X144691682Y-78363891D01*
X144691681Y-78363891D01*
X144529278Y-78436197D01*
X144529276Y-78436198D01*
X144523248Y-78438882D01*
X144517907Y-78442762D01*
X144517906Y-78442763D01*
X144454707Y-78488680D01*
X144387839Y-78512539D01*
X144318688Y-78496458D01*
X144306585Y-78488680D01*
X144202094Y-78412763D01*
X144202093Y-78412762D01*
X144196752Y-78408882D01*
X144190724Y-78406198D01*
X144190722Y-78406197D01*
X144028319Y-78333891D01*
X144028318Y-78333891D01*
X144022288Y-78331206D01*
X143928887Y-78311353D01*
X143841944Y-78292872D01*
X143841939Y-78292872D01*
X143835487Y-78291500D01*
X143644513Y-78291500D01*
X143638061Y-78292872D01*
X143638056Y-78292872D01*
X143551113Y-78311353D01*
X143457712Y-78331206D01*
X143451682Y-78333891D01*
X143451681Y-78333891D01*
X143289278Y-78406197D01*
X143289276Y-78406198D01*
X143283248Y-78408882D01*
X143128747Y-78521134D01*
X143124326Y-78526044D01*
X143124325Y-78526045D01*
X143034468Y-78625842D01*
X143000960Y-78663056D01*
X142905473Y-78828444D01*
X142846458Y-79010072D01*
X142845768Y-79016633D01*
X142845768Y-79016635D01*
X142838050Y-79090072D01*
X142826496Y-79200000D01*
X142846458Y-79389928D01*
X142848499Y-79396209D01*
X142848706Y-79397184D01*
X142843304Y-79467974D01*
X142800487Y-79524607D01*
X142733849Y-79549100D01*
X142724204Y-79549374D01*
X137938883Y-79501715D01*
X137870965Y-79481035D01*
X137825009Y-79426919D01*
X137814828Y-79362551D01*
X137822814Y-79286565D01*
X137823504Y-79280000D01*
X137803542Y-79090072D01*
X137744527Y-78908444D01*
X137727207Y-78878444D01*
X137652341Y-78748774D01*
X137649040Y-78743056D01*
X137575863Y-78661785D01*
X137545147Y-78597779D01*
X137543500Y-78577476D01*
X137543500Y-77954595D01*
X137563502Y-77886474D01*
X137580405Y-77865499D01*
X138025501Y-77420404D01*
X138087813Y-77386379D01*
X138114596Y-77383500D01*
X139681233Y-77383500D01*
X139692416Y-77384027D01*
X139699909Y-77385702D01*
X139707835Y-77385453D01*
X139707836Y-77385453D01*
X139767986Y-77383562D01*
X139771945Y-77383500D01*
X139799856Y-77383500D01*
X139803791Y-77383003D01*
X139803856Y-77382995D01*
X139815693Y-77382062D01*
X139847951Y-77381048D01*
X139851970Y-77380922D01*
X139859889Y-77380673D01*
X139879343Y-77375021D01*
X139898700Y-77371013D01*
X139910930Y-77369468D01*
X139910931Y-77369468D01*
X139918797Y-77368474D01*
X139926168Y-77365555D01*
X139926170Y-77365555D01*
X139959912Y-77352196D01*
X139971142Y-77348351D01*
X140005983Y-77338229D01*
X140005984Y-77338229D01*
X140013593Y-77336018D01*
X140020412Y-77331985D01*
X140020417Y-77331983D01*
X140031028Y-77325707D01*
X140048776Y-77317012D01*
X140067617Y-77309552D01*
X140103387Y-77283564D01*
X140113307Y-77277048D01*
X140144535Y-77258580D01*
X140144538Y-77258578D01*
X140151362Y-77254542D01*
X140165683Y-77240221D01*
X140180717Y-77227380D01*
X140190694Y-77220131D01*
X140197107Y-77215472D01*
X140225298Y-77181395D01*
X140233288Y-77172616D01*
X140820999Y-76584905D01*
X140883311Y-76550879D01*
X140910094Y-76548000D01*
X141711800Y-76548000D01*
X141779921Y-76568002D01*
X141799147Y-76584343D01*
X141799420Y-76584040D01*
X141804332Y-76588463D01*
X141808747Y-76593366D01*
X141830329Y-76609046D01*
X141945061Y-76692404D01*
X141963248Y-76705618D01*
X141969276Y-76708302D01*
X141969278Y-76708303D01*
X142062932Y-76750000D01*
X142137712Y-76783294D01*
X142231113Y-76803147D01*
X142318056Y-76821628D01*
X142318061Y-76821628D01*
X142324513Y-76823000D01*
X142515487Y-76823000D01*
X142521939Y-76821628D01*
X142521944Y-76821628D01*
X142608887Y-76803147D01*
X142702288Y-76783294D01*
X142777068Y-76750000D01*
X142870722Y-76708303D01*
X142870724Y-76708302D01*
X142876752Y-76705618D01*
X142894940Y-76692404D01*
X142945735Y-76655499D01*
X143031253Y-76593366D01*
X143054091Y-76568002D01*
X143154621Y-76456352D01*
X143154622Y-76456351D01*
X143159040Y-76451444D01*
X143244190Y-76303961D01*
X143251223Y-76291779D01*
X143251224Y-76291778D01*
X143254527Y-76286056D01*
X143313542Y-76104428D01*
X143314376Y-76096498D01*
X143332814Y-75921065D01*
X143333504Y-75914500D01*
X143320816Y-75793777D01*
X143314232Y-75731135D01*
X143314232Y-75731133D01*
X143313542Y-75724572D01*
X143254527Y-75542944D01*
X143159040Y-75377556D01*
X143142882Y-75359610D01*
X143035675Y-75240545D01*
X143035674Y-75240544D01*
X143031253Y-75235634D01*
X142876752Y-75123382D01*
X142870724Y-75120698D01*
X142870722Y-75120697D01*
X142708319Y-75048391D01*
X142708318Y-75048391D01*
X142702288Y-75045706D01*
X142608887Y-75025853D01*
X142521944Y-75007372D01*
X142521939Y-75007372D01*
X142515487Y-75006000D01*
X142324513Y-75006000D01*
X142318061Y-75007372D01*
X142318056Y-75007372D01*
X142231113Y-75025853D01*
X142137712Y-75045706D01*
X142131682Y-75048391D01*
X142131681Y-75048391D01*
X141969278Y-75120697D01*
X141969276Y-75120698D01*
X141963248Y-75123382D01*
X141808747Y-75235634D01*
X141804332Y-75240537D01*
X141799420Y-75244960D01*
X141798295Y-75243711D01*
X141744986Y-75276551D01*
X141711800Y-75281000D01*
X140674263Y-75281000D01*
X140663079Y-75280473D01*
X140655591Y-75278799D01*
X140647668Y-75279048D01*
X140587533Y-75280938D01*
X140583575Y-75281000D01*
X140555644Y-75281000D01*
X140551729Y-75281495D01*
X140551725Y-75281495D01*
X140551667Y-75281503D01*
X140551638Y-75281506D01*
X140539796Y-75282439D01*
X140495610Y-75283827D01*
X140478244Y-75288872D01*
X140476158Y-75289478D01*
X140456806Y-75293486D01*
X140444568Y-75295032D01*
X140444566Y-75295033D01*
X140436703Y-75296026D01*
X140395586Y-75312306D01*
X140384385Y-75316141D01*
X140341906Y-75328482D01*
X140335087Y-75332515D01*
X140335082Y-75332517D01*
X140324471Y-75338793D01*
X140306721Y-75347490D01*
X140287883Y-75354948D01*
X140281467Y-75359609D01*
X140281466Y-75359610D01*
X140252125Y-75380928D01*
X140242201Y-75387447D01*
X140210960Y-75405922D01*
X140210955Y-75405926D01*
X140204137Y-75409958D01*
X140189813Y-75424282D01*
X140174781Y-75437121D01*
X140158393Y-75449028D01*
X140130212Y-75483093D01*
X140122222Y-75491873D01*
X139534500Y-76079595D01*
X139472188Y-76113621D01*
X139445405Y-76116500D01*
X138653595Y-76116500D01*
X138585474Y-76096498D01*
X138538981Y-76042842D01*
X138528877Y-75972568D01*
X138558371Y-75907988D01*
X138564500Y-75901405D01*
X140242258Y-74223647D01*
X140250537Y-74216113D01*
X140257018Y-74212000D01*
X140303645Y-74162347D01*
X140306399Y-74159506D01*
X140326135Y-74139770D01*
X140328615Y-74136573D01*
X140336320Y-74127551D01*
X140361159Y-74101100D01*
X140366586Y-74095321D01*
X140370405Y-74088375D01*
X140370407Y-74088372D01*
X140376348Y-74077566D01*
X140387199Y-74061047D01*
X140394758Y-74051301D01*
X140399614Y-74045041D01*
X140402759Y-74037772D01*
X140402762Y-74037768D01*
X140417174Y-74004463D01*
X140422391Y-73993813D01*
X140443695Y-73955060D01*
X140448733Y-73935437D01*
X140455137Y-73916734D01*
X140460033Y-73905420D01*
X140460033Y-73905419D01*
X140463181Y-73898145D01*
X140464420Y-73890322D01*
X140464423Y-73890312D01*
X140470099Y-73854476D01*
X140472505Y-73842856D01*
X140481528Y-73807711D01*
X140481528Y-73807710D01*
X140483500Y-73800030D01*
X140483500Y-73779776D01*
X140485051Y-73760065D01*
X140486980Y-73747886D01*
X140488220Y-73740057D01*
X140484059Y-73696038D01*
X140483500Y-73684181D01*
X140483500Y-73177927D01*
X140503502Y-73109806D01*
X140544618Y-73070050D01*
X140547994Y-73068396D01*
X140729860Y-72938673D01*
X140888096Y-72780989D01*
X140902320Y-72761195D01*
X141018453Y-72599577D01*
X141019776Y-72600528D01*
X141066645Y-72557357D01*
X141136580Y-72545125D01*
X141202026Y-72572644D01*
X141229875Y-72604494D01*
X141289987Y-72702588D01*
X141436250Y-72871438D01*
X141608126Y-73014132D01*
X141801000Y-73126838D01*
X142009692Y-73206530D01*
X142014760Y-73207561D01*
X142014763Y-73207562D01*
X142055417Y-73215833D01*
X142228597Y-73251067D01*
X142233772Y-73251257D01*
X142233774Y-73251257D01*
X142446673Y-73259064D01*
X142446677Y-73259064D01*
X142451837Y-73259253D01*
X142456957Y-73258597D01*
X142456959Y-73258597D01*
X142668288Y-73231525D01*
X142668289Y-73231525D01*
X142673416Y-73230868D01*
X142723530Y-73215833D01*
X142882429Y-73168161D01*
X142882434Y-73168159D01*
X142887384Y-73166674D01*
X143087994Y-73068396D01*
X143269860Y-72938673D01*
X143428096Y-72780989D01*
X143442320Y-72761195D01*
X143558453Y-72599577D01*
X143559776Y-72600528D01*
X143606645Y-72557357D01*
X143676580Y-72545125D01*
X143742026Y-72572644D01*
X143769875Y-72604494D01*
X143829987Y-72702588D01*
X143976250Y-72871438D01*
X144148126Y-73014132D01*
X144341000Y-73126838D01*
X144549692Y-73206530D01*
X144554760Y-73207561D01*
X144554763Y-73207562D01*
X144595417Y-73215833D01*
X144768597Y-73251067D01*
X144773772Y-73251257D01*
X144773774Y-73251257D01*
X144986673Y-73259064D01*
X144986677Y-73259064D01*
X144991837Y-73259253D01*
X144996957Y-73258597D01*
X144996959Y-73258597D01*
X145208288Y-73231525D01*
X145208289Y-73231525D01*
X145213416Y-73230868D01*
X145263530Y-73215833D01*
X145422429Y-73168161D01*
X145422434Y-73168159D01*
X145427384Y-73166674D01*
X145627994Y-73068396D01*
X145809860Y-72938673D01*
X145968096Y-72780989D01*
X145982320Y-72761195D01*
X146098453Y-72599577D01*
X146099776Y-72600528D01*
X146146645Y-72557357D01*
X146216580Y-72545125D01*
X146282026Y-72572644D01*
X146309875Y-72604494D01*
X146369987Y-72702588D01*
X146516250Y-72871438D01*
X146688126Y-73014132D01*
X146881000Y-73126838D01*
X147089692Y-73206530D01*
X147094760Y-73207561D01*
X147094763Y-73207562D01*
X147135417Y-73215833D01*
X147308597Y-73251067D01*
X147313772Y-73251257D01*
X147313774Y-73251257D01*
X147526673Y-73259064D01*
X147526677Y-73259064D01*
X147531837Y-73259253D01*
X147536957Y-73258597D01*
X147536959Y-73258597D01*
X147748288Y-73231525D01*
X147748289Y-73231525D01*
X147753416Y-73230868D01*
X147803530Y-73215833D01*
X147962429Y-73168161D01*
X147962434Y-73168159D01*
X147967384Y-73166674D01*
X148167994Y-73068396D01*
X148349860Y-72938673D01*
X148508096Y-72780989D01*
X148522320Y-72761195D01*
X148638453Y-72599577D01*
X148639776Y-72600528D01*
X148686645Y-72557357D01*
X148756580Y-72545125D01*
X148822026Y-72572644D01*
X148849875Y-72604494D01*
X148909987Y-72702588D01*
X149056250Y-72871438D01*
X149228126Y-73014132D01*
X149421000Y-73126838D01*
X149629692Y-73206530D01*
X149634760Y-73207561D01*
X149634763Y-73207562D01*
X149675417Y-73215833D01*
X149848597Y-73251067D01*
X149853772Y-73251257D01*
X149853774Y-73251257D01*
X150066673Y-73259064D01*
X150066677Y-73259064D01*
X150071837Y-73259253D01*
X150076957Y-73258597D01*
X150076959Y-73258597D01*
X150288288Y-73231525D01*
X150288289Y-73231525D01*
X150293416Y-73230868D01*
X150343530Y-73215833D01*
X150502429Y-73168161D01*
X150502434Y-73168159D01*
X150507384Y-73166674D01*
X150707994Y-73068396D01*
X150889860Y-72938673D01*
X151048096Y-72780989D01*
X151062320Y-72761195D01*
X151178453Y-72599577D01*
X151179776Y-72600528D01*
X151226645Y-72557357D01*
X151296580Y-72545125D01*
X151362026Y-72572644D01*
X151389875Y-72604494D01*
X151449987Y-72702588D01*
X151596250Y-72871438D01*
X151768126Y-73014132D01*
X151961000Y-73126838D01*
X152169692Y-73206530D01*
X152174760Y-73207561D01*
X152174763Y-73207562D01*
X152215417Y-73215833D01*
X152388597Y-73251067D01*
X152393772Y-73251257D01*
X152393774Y-73251257D01*
X152606673Y-73259064D01*
X152606677Y-73259064D01*
X152611837Y-73259253D01*
X152616957Y-73258597D01*
X152616959Y-73258597D01*
X152828288Y-73231525D01*
X152828289Y-73231525D01*
X152833416Y-73230868D01*
X152883530Y-73215833D01*
X153042429Y-73168161D01*
X153042434Y-73168159D01*
X153047384Y-73166674D01*
X153247994Y-73068396D01*
X153429860Y-72938673D01*
X153588096Y-72780989D01*
X153602320Y-72761195D01*
X153715435Y-72603777D01*
X153718453Y-72599577D01*
X153739320Y-72557357D01*
X153815136Y-72403953D01*
X153815137Y-72403951D01*
X153817430Y-72399311D01*
X153882370Y-72185569D01*
X153911529Y-71964090D01*
X153913156Y-71897500D01*
X153894852Y-71674861D01*
X153840431Y-71458202D01*
X153751354Y-71253340D01*
X153661362Y-71114234D01*
X153632822Y-71070117D01*
X153632820Y-71070114D01*
X153630014Y-71065777D01*
X153479670Y-70900551D01*
X153436564Y-70866508D01*
X153395502Y-70808592D01*
X153392270Y-70737669D01*
X153427895Y-70676258D01*
X153461204Y-70653527D01*
X153479958Y-70644741D01*
X153617807Y-70559437D01*
X153629208Y-70550401D01*
X153743739Y-70435671D01*
X153752751Y-70424260D01*
X153837816Y-70286257D01*
X153843963Y-70273076D01*
X153895138Y-70118790D01*
X153898005Y-70105414D01*
X153907672Y-70011062D01*
X153908000Y-70004645D01*
X153908000Y-69629615D01*
X153903525Y-69614376D01*
X153902135Y-69613171D01*
X153894452Y-69611500D01*
X152422000Y-69611500D01*
X152353879Y-69591498D01*
X152307386Y-69537842D01*
X152296000Y-69485500D01*
X152296000Y-69085385D01*
X152804000Y-69085385D01*
X152808475Y-69100624D01*
X152809865Y-69101829D01*
X152817548Y-69103500D01*
X153889884Y-69103500D01*
X153905123Y-69099025D01*
X153906328Y-69097635D01*
X153907999Y-69089952D01*
X153907999Y-68710405D01*
X153907662Y-68703886D01*
X153897743Y-68608294D01*
X153894851Y-68594900D01*
X153843412Y-68440716D01*
X153837239Y-68427538D01*
X153751937Y-68289693D01*
X153742901Y-68278292D01*
X153628171Y-68163761D01*
X153616760Y-68154749D01*
X153478757Y-68069684D01*
X153465576Y-68063537D01*
X153311290Y-68012362D01*
X153297914Y-68009495D01*
X153203562Y-67999828D01*
X153197145Y-67999500D01*
X152822115Y-67999500D01*
X152806876Y-68003975D01*
X152805671Y-68005365D01*
X152804000Y-68013048D01*
X152804000Y-69085385D01*
X152296000Y-69085385D01*
X152296000Y-68017616D01*
X152291525Y-68002377D01*
X152290135Y-68001172D01*
X152282452Y-67999501D01*
X151902905Y-67999501D01*
X151896386Y-67999838D01*
X151800794Y-68009757D01*
X151787400Y-68012649D01*
X151633216Y-68064088D01*
X151620038Y-68070261D01*
X151482193Y-68155563D01*
X151470792Y-68164599D01*
X151356261Y-68279329D01*
X151347249Y-68290740D01*
X151262183Y-68428744D01*
X151253926Y-68446450D01*
X151207008Y-68499734D01*
X151138730Y-68519194D01*
X151070771Y-68498651D01*
X151046538Y-68477997D01*
X150943151Y-68364375D01*
X150943142Y-68364366D01*
X150939670Y-68360551D01*
X150935619Y-68357352D01*
X150935615Y-68357348D01*
X150768414Y-68225300D01*
X150768410Y-68225298D01*
X150764359Y-68222098D01*
X150568789Y-68114138D01*
X150563920Y-68112414D01*
X150563916Y-68112412D01*
X150363087Y-68041295D01*
X150363083Y-68041294D01*
X150358212Y-68039569D01*
X150353119Y-68038662D01*
X150353116Y-68038661D01*
X150143373Y-68001300D01*
X150143367Y-68001299D01*
X150138284Y-68000394D01*
X150064452Y-67999492D01*
X149920081Y-67997728D01*
X149920079Y-67997728D01*
X149914911Y-67997665D01*
X149694091Y-68031455D01*
X149481756Y-68100857D01*
X149283607Y-68204007D01*
X149279474Y-68207110D01*
X149279471Y-68207112D01*
X149154532Y-68300919D01*
X149104965Y-68338135D01*
X148950629Y-68499638D01*
X148843201Y-68657121D01*
X148788293Y-68702121D01*
X148717768Y-68710292D01*
X148654021Y-68679038D01*
X148633324Y-68654554D01*
X148552822Y-68530117D01*
X148552820Y-68530114D01*
X148550014Y-68525777D01*
X148399670Y-68360551D01*
X148395619Y-68357352D01*
X148395615Y-68357348D01*
X148228414Y-68225300D01*
X148228410Y-68225298D01*
X148224359Y-68222098D01*
X148028789Y-68114138D01*
X148023920Y-68112414D01*
X148023916Y-68112412D01*
X147823087Y-68041295D01*
X147823083Y-68041294D01*
X147818212Y-68039569D01*
X147813119Y-68038662D01*
X147813116Y-68038661D01*
X147603373Y-68001300D01*
X147603367Y-68001299D01*
X147598284Y-68000394D01*
X147524452Y-67999492D01*
X147380081Y-67997728D01*
X147380079Y-67997728D01*
X147374911Y-67997665D01*
X147154091Y-68031455D01*
X146941756Y-68100857D01*
X146743607Y-68204007D01*
X146739474Y-68207110D01*
X146739471Y-68207112D01*
X146614532Y-68300919D01*
X146564965Y-68338135D01*
X146410629Y-68499638D01*
X146303201Y-68657121D01*
X146248293Y-68702121D01*
X146177768Y-68710292D01*
X146114021Y-68679038D01*
X146093324Y-68654554D01*
X146012822Y-68530117D01*
X146012820Y-68530114D01*
X146010014Y-68525777D01*
X145859670Y-68360551D01*
X145855619Y-68357352D01*
X145855615Y-68357348D01*
X145688414Y-68225300D01*
X145688410Y-68225298D01*
X145684359Y-68222098D01*
X145488789Y-68114138D01*
X145483920Y-68112414D01*
X145483916Y-68112412D01*
X145283087Y-68041295D01*
X145283083Y-68041294D01*
X145278212Y-68039569D01*
X145273119Y-68038662D01*
X145273116Y-68038661D01*
X145063373Y-68001300D01*
X145063367Y-68001299D01*
X145058284Y-68000394D01*
X144984452Y-67999492D01*
X144840081Y-67997728D01*
X144840079Y-67997728D01*
X144834911Y-67997665D01*
X144614091Y-68031455D01*
X144401756Y-68100857D01*
X144203607Y-68204007D01*
X144199474Y-68207110D01*
X144199471Y-68207112D01*
X144074532Y-68300919D01*
X144024965Y-68338135D01*
X143870629Y-68499638D01*
X143763201Y-68657121D01*
X143708293Y-68702121D01*
X143637768Y-68710292D01*
X143574021Y-68679038D01*
X143553324Y-68654554D01*
X143472822Y-68530117D01*
X143472820Y-68530114D01*
X143470014Y-68525777D01*
X143319670Y-68360551D01*
X143315619Y-68357352D01*
X143315615Y-68357348D01*
X143148414Y-68225300D01*
X143148410Y-68225298D01*
X143144359Y-68222098D01*
X142948789Y-68114138D01*
X142943920Y-68112414D01*
X142943916Y-68112412D01*
X142743087Y-68041295D01*
X142743083Y-68041294D01*
X142738212Y-68039569D01*
X142733119Y-68038662D01*
X142733116Y-68038661D01*
X142523373Y-68001300D01*
X142523367Y-68001299D01*
X142518284Y-68000394D01*
X142444452Y-67999492D01*
X142300081Y-67997728D01*
X142300079Y-67997728D01*
X142294911Y-67997665D01*
X142074091Y-68031455D01*
X141861756Y-68100857D01*
X141663607Y-68204007D01*
X141659474Y-68207110D01*
X141659471Y-68207112D01*
X141534532Y-68300919D01*
X141484965Y-68338135D01*
X141330629Y-68499638D01*
X141223201Y-68657121D01*
X141168293Y-68702121D01*
X141097768Y-68710292D01*
X141034021Y-68679038D01*
X141013324Y-68654554D01*
X140932822Y-68530117D01*
X140932820Y-68530114D01*
X140930014Y-68525777D01*
X140779670Y-68360551D01*
X140775619Y-68357352D01*
X140775615Y-68357348D01*
X140608414Y-68225300D01*
X140608410Y-68225298D01*
X140604359Y-68222098D01*
X140408789Y-68114138D01*
X140403920Y-68112414D01*
X140403916Y-68112412D01*
X140203087Y-68041295D01*
X140203083Y-68041294D01*
X140198212Y-68039569D01*
X140193119Y-68038662D01*
X140193116Y-68038661D01*
X139983373Y-68001300D01*
X139983367Y-68001299D01*
X139978284Y-68000394D01*
X139904452Y-67999492D01*
X139760081Y-67997728D01*
X139760079Y-67997728D01*
X139754911Y-67997665D01*
X139534091Y-68031455D01*
X139321756Y-68100857D01*
X139123607Y-68204007D01*
X139119474Y-68207110D01*
X139119471Y-68207112D01*
X138994532Y-68300919D01*
X138944965Y-68338135D01*
X138790629Y-68499638D01*
X138683204Y-68657118D01*
X138682898Y-68657566D01*
X138627987Y-68702569D01*
X138557462Y-68710740D01*
X138493715Y-68679486D01*
X138473017Y-68655001D01*
X138443062Y-68608697D01*
X138432377Y-68599495D01*
X138422812Y-68603898D01*
X137682022Y-69344688D01*
X137674408Y-69358632D01*
X137674539Y-69360465D01*
X137678790Y-69367080D01*
X138420474Y-70108764D01*
X138432484Y-70115323D01*
X138444223Y-70106355D01*
X138478022Y-70059319D01*
X138479277Y-70060221D01*
X138526391Y-70016855D01*
X138596330Y-70004648D01*
X138661767Y-70032191D01*
X138689580Y-70064013D01*
X138747287Y-70158183D01*
X138747291Y-70158188D01*
X138749987Y-70162588D01*
X138896250Y-70331438D01*
X139068126Y-70474132D01*
X139079063Y-70480523D01*
X139141445Y-70516976D01*
X139190169Y-70568614D01*
X139203240Y-70638397D01*
X139176509Y-70704169D01*
X139136055Y-70737527D01*
X139123607Y-70744007D01*
X139119474Y-70747110D01*
X139119471Y-70747112D01*
X138960449Y-70866509D01*
X138944965Y-70878135D01*
X138941393Y-70881873D01*
X138826192Y-71002424D01*
X138790629Y-71039638D01*
X138683201Y-71197121D01*
X138628293Y-71242121D01*
X138557768Y-71250292D01*
X138494021Y-71219038D01*
X138473324Y-71194554D01*
X138392822Y-71070117D01*
X138392820Y-71070114D01*
X138390014Y-71065777D01*
X138239670Y-70900551D01*
X138235616Y-70897349D01*
X138235615Y-70897348D01*
X138068414Y-70765300D01*
X138068410Y-70765298D01*
X138064359Y-70762098D01*
X138022569Y-70739029D01*
X137972598Y-70688597D01*
X137957826Y-70619154D01*
X137982942Y-70552748D01*
X138010293Y-70526142D01*
X138059247Y-70491223D01*
X138067648Y-70480523D01*
X138060660Y-70467370D01*
X137322812Y-69729522D01*
X137308868Y-69721908D01*
X137307035Y-69722039D01*
X137300420Y-69726290D01*
X136556737Y-70469973D01*
X136549977Y-70482353D01*
X136555258Y-70489407D01*
X136601969Y-70516703D01*
X136650693Y-70568341D01*
X136663764Y-70638124D01*
X136637033Y-70703896D01*
X136596584Y-70737252D01*
X136583607Y-70744007D01*
X136579474Y-70747110D01*
X136579471Y-70747112D01*
X136420449Y-70866509D01*
X136404965Y-70878135D01*
X136401393Y-70881873D01*
X136286192Y-71002424D01*
X136250629Y-71039638D01*
X136143201Y-71197121D01*
X136088293Y-71242121D01*
X136017768Y-71250292D01*
X135954021Y-71219038D01*
X135933324Y-71194554D01*
X135852822Y-71070117D01*
X135852820Y-71070114D01*
X135850014Y-71065777D01*
X135846532Y-71061950D01*
X135711307Y-70913339D01*
X135680255Y-70849493D01*
X135678500Y-70828539D01*
X135678500Y-70422453D01*
X135698502Y-70354332D01*
X135715560Y-70333202D01*
X135762670Y-70286257D01*
X135808096Y-70240989D01*
X135867594Y-70158189D01*
X135938453Y-70059577D01*
X135939640Y-70060430D01*
X135986960Y-70016862D01*
X136056897Y-70004645D01*
X136122338Y-70032178D01*
X136150166Y-70064012D01*
X136176459Y-70106919D01*
X136186916Y-70116380D01*
X136195694Y-70112596D01*
X136937978Y-69370312D01*
X136945592Y-69356368D01*
X136945461Y-69354535D01*
X136941210Y-69347920D01*
X136199849Y-68606559D01*
X136188313Y-68600259D01*
X136176031Y-68609882D01*
X136143499Y-68657572D01*
X136088587Y-68702575D01*
X136018063Y-68710746D01*
X135954316Y-68679492D01*
X135933618Y-68655008D01*
X135852822Y-68530117D01*
X135852820Y-68530114D01*
X135850014Y-68525777D01*
X135699670Y-68360551D01*
X135695619Y-68357352D01*
X135695615Y-68357348D01*
X135539338Y-68233927D01*
X136551223Y-68233927D01*
X136557968Y-68246258D01*
X137297188Y-68985478D01*
X137311132Y-68993092D01*
X137312965Y-68992961D01*
X137319580Y-68988710D01*
X138063389Y-68244901D01*
X138070410Y-68232044D01*
X138063611Y-68222713D01*
X138059554Y-68220018D01*
X137873117Y-68117099D01*
X137863705Y-68112869D01*
X137662959Y-68041780D01*
X137652989Y-68039146D01*
X137443327Y-68001801D01*
X137433073Y-68000831D01*
X137220116Y-67998228D01*
X137209832Y-67998948D01*
X136999321Y-68031161D01*
X136989293Y-68033550D01*
X136786868Y-68099712D01*
X136777359Y-68103709D01*
X136588466Y-68202040D01*
X136579734Y-68207539D01*
X136559677Y-68222599D01*
X136551223Y-68233927D01*
X135539338Y-68233927D01*
X135528414Y-68225300D01*
X135528410Y-68225298D01*
X135524359Y-68222098D01*
X135328789Y-68114138D01*
X135323920Y-68112414D01*
X135323916Y-68112412D01*
X135123087Y-68041295D01*
X135123083Y-68041294D01*
X135118212Y-68039569D01*
X135113119Y-68038662D01*
X135113116Y-68038661D01*
X134903373Y-68001300D01*
X134903367Y-68001299D01*
X134898284Y-68000394D01*
X134824452Y-67999492D01*
X134680081Y-67997728D01*
X134680079Y-67997728D01*
X134674911Y-67997665D01*
X134454091Y-68031455D01*
X134241756Y-68100857D01*
X134043607Y-68204007D01*
X134039474Y-68207110D01*
X134039471Y-68207112D01*
X133914532Y-68300919D01*
X133864965Y-68338135D01*
X133710629Y-68499638D01*
X133584743Y-68684180D01*
X133490688Y-68886805D01*
X133430989Y-69102070D01*
X133407251Y-69324195D01*
X133407548Y-69329348D01*
X133407548Y-69329351D01*
X133410593Y-69382161D01*
X133420110Y-69547215D01*
X133421247Y-69552261D01*
X133421248Y-69552267D01*
X133438680Y-69629615D01*
X133469222Y-69765139D01*
X133553266Y-69972116D01*
X133604942Y-70056444D01*
X133667291Y-70158188D01*
X133669987Y-70162588D01*
X133673367Y-70166490D01*
X133812866Y-70327532D01*
X133812869Y-70327535D01*
X133816250Y-70331438D01*
X133820224Y-70334737D01*
X133823658Y-70338100D01*
X133858334Y-70400053D01*
X133861500Y-70428123D01*
X133861500Y-70831237D01*
X133841498Y-70899358D01*
X133826594Y-70918288D01*
X133746192Y-71002424D01*
X133710629Y-71039638D01*
X133584743Y-71224180D01*
X133490688Y-71426805D01*
X133430989Y-71642070D01*
X133407251Y-71864195D01*
X133407548Y-71869348D01*
X133407548Y-71869351D01*
X133413011Y-71964090D01*
X133420110Y-72087215D01*
X133421247Y-72092261D01*
X133421248Y-72092267D01*
X133441119Y-72180439D01*
X133469222Y-72305139D01*
X133553266Y-72512116D01*
X133604019Y-72594938D01*
X133667291Y-72698188D01*
X133669987Y-72702588D01*
X133816250Y-72871438D01*
X133988126Y-73014132D01*
X134181000Y-73126838D01*
X134389692Y-73206530D01*
X134394760Y-73207561D01*
X134394763Y-73207562D01*
X134435417Y-73215833D01*
X134608597Y-73251067D01*
X134613772Y-73251257D01*
X134613774Y-73251257D01*
X134826673Y-73259064D01*
X134826677Y-73259064D01*
X134831837Y-73259253D01*
X134836957Y-73258597D01*
X134836959Y-73258597D01*
X135048288Y-73231525D01*
X135048289Y-73231525D01*
X135053416Y-73230868D01*
X135103530Y-73215833D01*
X135262429Y-73168161D01*
X135262434Y-73168159D01*
X135267384Y-73166674D01*
X135467994Y-73068396D01*
X135649860Y-72938673D01*
X135808096Y-72780989D01*
X135822320Y-72761195D01*
X135938453Y-72599577D01*
X135939776Y-72600528D01*
X135986645Y-72557357D01*
X136056580Y-72545125D01*
X136122026Y-72572644D01*
X136149875Y-72604494D01*
X136183278Y-72659003D01*
X136201816Y-72727537D01*
X136180359Y-72795214D01*
X136153073Y-72824396D01*
X136150460Y-72826423D01*
X136143637Y-72830458D01*
X136129313Y-72844782D01*
X136114281Y-72857621D01*
X136097893Y-72869528D01*
X136069712Y-72903593D01*
X136061722Y-72912373D01*
X134035100Y-74938995D01*
X133972788Y-74973021D01*
X133901973Y-74967956D01*
X133845137Y-74925409D01*
X133820326Y-74858889D01*
X133820695Y-74836731D01*
X133822814Y-74816567D01*
X133822814Y-74816565D01*
X133823504Y-74810000D01*
X133803542Y-74620072D01*
X133744527Y-74438444D01*
X133649040Y-74273056D01*
X133632882Y-74255110D01*
X133525675Y-74136045D01*
X133525674Y-74136044D01*
X133521253Y-74131134D01*
X133366752Y-74018882D01*
X133360724Y-74016198D01*
X133360722Y-74016197D01*
X133198319Y-73943891D01*
X133198318Y-73943891D01*
X133192288Y-73941206D01*
X133097311Y-73921018D01*
X133011944Y-73902872D01*
X133011939Y-73902872D01*
X133005487Y-73901500D01*
X132814513Y-73901500D01*
X132808061Y-73902872D01*
X132808056Y-73902872D01*
X132722689Y-73921018D01*
X132627712Y-73941206D01*
X132621682Y-73943891D01*
X132621681Y-73943891D01*
X132459278Y-74016197D01*
X132459276Y-74016198D01*
X132453248Y-74018882D01*
X132298747Y-74131134D01*
X132294332Y-74136037D01*
X132289420Y-74140460D01*
X132288295Y-74139211D01*
X132234986Y-74172051D01*
X132201800Y-74176500D01*
X131678767Y-74176500D01*
X131667584Y-74175973D01*
X131660091Y-74174298D01*
X131652165Y-74174547D01*
X131652164Y-74174547D01*
X131592001Y-74176438D01*
X131588043Y-74176500D01*
X131560144Y-74176500D01*
X131556154Y-74177004D01*
X131544320Y-74177936D01*
X131500111Y-74179326D01*
X131492497Y-74181538D01*
X131492492Y-74181539D01*
X131480659Y-74184977D01*
X131461296Y-74188988D01*
X131441203Y-74191526D01*
X131433836Y-74194443D01*
X131433831Y-74194444D01*
X131400092Y-74207802D01*
X131388865Y-74211646D01*
X131346407Y-74223982D01*
X131339581Y-74228019D01*
X131328972Y-74234293D01*
X131311224Y-74242988D01*
X131292383Y-74250448D01*
X131285967Y-74255110D01*
X131285966Y-74255110D01*
X131256613Y-74276436D01*
X131246693Y-74282952D01*
X131215465Y-74301420D01*
X131215462Y-74301422D01*
X131208638Y-74305458D01*
X131194317Y-74319779D01*
X131179284Y-74332619D01*
X131162893Y-74344528D01*
X131157842Y-74350634D01*
X131134702Y-74378605D01*
X131126712Y-74387384D01*
X129737747Y-75776348D01*
X129729461Y-75783888D01*
X129722982Y-75788000D01*
X129717557Y-75793777D01*
X129676357Y-75837651D01*
X129673602Y-75840493D01*
X129653865Y-75860230D01*
X129651385Y-75863427D01*
X129643682Y-75872447D01*
X129613414Y-75904679D01*
X129609595Y-75911625D01*
X129609593Y-75911628D01*
X129603652Y-75922434D01*
X129592801Y-75938953D01*
X129580386Y-75954959D01*
X129577241Y-75962228D01*
X129577238Y-75962232D01*
X129562826Y-75995537D01*
X129557609Y-76006187D01*
X129536305Y-76044940D01*
X129534334Y-76052615D01*
X129534334Y-76052616D01*
X129531267Y-76064562D01*
X129524863Y-76083266D01*
X129516819Y-76101855D01*
X129515580Y-76109678D01*
X129515577Y-76109688D01*
X129509901Y-76145524D01*
X129507495Y-76157144D01*
X129502385Y-76177048D01*
X129496500Y-76199970D01*
X129496500Y-76220224D01*
X129494949Y-76239934D01*
X129491780Y-76259943D01*
X129492526Y-76267835D01*
X129495941Y-76303961D01*
X129496500Y-76315819D01*
X129496500Y-79290373D01*
X129476498Y-79358494D01*
X129422842Y-79404987D01*
X129369247Y-79416367D01*
X129082858Y-79413514D01*
X128854745Y-79411242D01*
X128786827Y-79390562D01*
X128740871Y-79336446D01*
X128730000Y-79285248D01*
X128730000Y-76750000D01*
X118829712Y-76791080D01*
X117330023Y-76797303D01*
X117261820Y-76777584D01*
X117215105Y-76724121D01*
X117203500Y-76671304D01*
X117203500Y-69318918D01*
X117681917Y-69318918D01*
X117682334Y-69326156D01*
X117697682Y-69592320D01*
X117750405Y-69861053D01*
X117751792Y-69865103D01*
X117751793Y-69865108D01*
X117837461Y-70115323D01*
X117839112Y-70120144D01*
X117868238Y-70178054D01*
X117956896Y-70354332D01*
X117962160Y-70364799D01*
X117964586Y-70368328D01*
X117964589Y-70368334D01*
X118109768Y-70579569D01*
X118117274Y-70590490D01*
X118120161Y-70593663D01*
X118120162Y-70593664D01*
X118256963Y-70744007D01*
X118301582Y-70793043D01*
X118304877Y-70795798D01*
X118304878Y-70795799D01*
X118344035Y-70828539D01*
X118511675Y-70968707D01*
X118515316Y-70970991D01*
X118740024Y-71111951D01*
X118740028Y-71111953D01*
X118743664Y-71114234D01*
X118811544Y-71144883D01*
X118989345Y-71225164D01*
X118989349Y-71225166D01*
X118993257Y-71226930D01*
X119044541Y-71242121D01*
X119251723Y-71303491D01*
X119251727Y-71303492D01*
X119255836Y-71304709D01*
X119260070Y-71305357D01*
X119260075Y-71305358D01*
X119522298Y-71345483D01*
X119522300Y-71345483D01*
X119526540Y-71346132D01*
X119665912Y-71348322D01*
X119796071Y-71350367D01*
X119796077Y-71350367D01*
X119800362Y-71350434D01*
X120072235Y-71317534D01*
X120337127Y-71248041D01*
X120341087Y-71246401D01*
X120341092Y-71246399D01*
X120466256Y-71194554D01*
X120590136Y-71143241D01*
X120760119Y-71043911D01*
X120822879Y-71007237D01*
X120822880Y-71007236D01*
X120826582Y-71005073D01*
X121042089Y-70836094D01*
X121049411Y-70828539D01*
X121219009Y-70653527D01*
X121232669Y-70639431D01*
X121235202Y-70635983D01*
X121235206Y-70635978D01*
X121392257Y-70422178D01*
X121394795Y-70418723D01*
X121422154Y-70368334D01*
X121523418Y-70181830D01*
X121523419Y-70181828D01*
X121525468Y-70178054D01*
X121622269Y-69921877D01*
X121647107Y-69813427D01*
X121682449Y-69659117D01*
X121682450Y-69659113D01*
X121683407Y-69654933D01*
X121687284Y-69611500D01*
X121707531Y-69384627D01*
X121707531Y-69384625D01*
X121707751Y-69382161D01*
X121708193Y-69340000D01*
X121706465Y-69314648D01*
X121689859Y-69071055D01*
X121689858Y-69071049D01*
X121689567Y-69066778D01*
X121634032Y-68798612D01*
X121542617Y-68540465D01*
X121451730Y-68364375D01*
X121418978Y-68300919D01*
X121418978Y-68300918D01*
X121417013Y-68297112D01*
X121407040Y-68282921D01*
X121287204Y-68112412D01*
X121259545Y-68073057D01*
X121073125Y-67872445D01*
X121069810Y-67869731D01*
X121069806Y-67869728D01*
X120864523Y-67701706D01*
X120861205Y-67698990D01*
X120627704Y-67555901D01*
X120623768Y-67554173D01*
X120380873Y-67447549D01*
X120380869Y-67447548D01*
X120376945Y-67445825D01*
X120113566Y-67370800D01*
X120109324Y-67370196D01*
X120109318Y-67370195D01*
X119908834Y-67341662D01*
X119842443Y-67332213D01*
X119698589Y-67331460D01*
X119572877Y-67330802D01*
X119572871Y-67330802D01*
X119568591Y-67330780D01*
X119564347Y-67331339D01*
X119564343Y-67331339D01*
X119445302Y-67347011D01*
X119297078Y-67366525D01*
X119292938Y-67367658D01*
X119292936Y-67367658D01*
X119220008Y-67387609D01*
X119032928Y-67438788D01*
X119028980Y-67440472D01*
X118784982Y-67544546D01*
X118784978Y-67544548D01*
X118781030Y-67546232D01*
X118761125Y-67558145D01*
X118549725Y-67684664D01*
X118549721Y-67684667D01*
X118546043Y-67686868D01*
X118332318Y-67858094D01*
X118315717Y-67875588D01*
X118158467Y-68041295D01*
X118143808Y-68056742D01*
X117984002Y-68279136D01*
X117855857Y-68521161D01*
X117854385Y-68525184D01*
X117854383Y-68525188D01*
X117797915Y-68679492D01*
X117761743Y-68778337D01*
X117703404Y-69045907D01*
X117681917Y-69318918D01*
X117203500Y-69318918D01*
X117203500Y-66974500D01*
X117223502Y-66906379D01*
X117277158Y-66859886D01*
X117329500Y-66848500D01*
X155694937Y-66848500D01*
X155763058Y-66868502D01*
G37*
%TD.AperFunction*%
%TA.AperFunction,Conductor*%
G36*
X138662026Y-72572644D02*
G01*
X138689875Y-72604494D01*
X138749987Y-72702588D01*
X138896250Y-72871438D01*
X139068126Y-73014132D01*
X139072593Y-73016742D01*
X139154070Y-73064353D01*
X139202794Y-73115991D01*
X139216500Y-73173141D01*
X139216500Y-73405405D01*
X139196498Y-73473526D01*
X139179595Y-73494500D01*
X139023865Y-73650230D01*
X139023862Y-73650234D01*
X135647747Y-77026348D01*
X135639461Y-77033888D01*
X135632982Y-77038000D01*
X135627557Y-77043777D01*
X135586357Y-77087651D01*
X135583602Y-77090493D01*
X135563865Y-77110230D01*
X135561385Y-77113427D01*
X135553682Y-77122447D01*
X135523414Y-77154679D01*
X135519595Y-77161625D01*
X135519593Y-77161628D01*
X135513652Y-77172434D01*
X135502801Y-77188953D01*
X135490386Y-77204959D01*
X135487241Y-77212228D01*
X135487238Y-77212232D01*
X135472826Y-77245537D01*
X135467609Y-77256187D01*
X135446305Y-77294940D01*
X135444334Y-77302615D01*
X135444334Y-77302616D01*
X135441267Y-77314562D01*
X135434863Y-77333266D01*
X135426819Y-77351855D01*
X135425580Y-77359678D01*
X135425577Y-77359688D01*
X135419901Y-77395524D01*
X135417495Y-77407144D01*
X135406500Y-77449970D01*
X135406500Y-77470224D01*
X135404949Y-77489934D01*
X135401780Y-77509943D01*
X135402526Y-77517835D01*
X135405941Y-77553961D01*
X135406500Y-77565819D01*
X135406500Y-79240500D01*
X135386498Y-79308621D01*
X135332842Y-79355114D01*
X135280500Y-79366500D01*
X134778768Y-79366500D01*
X134767585Y-79365973D01*
X134760092Y-79364298D01*
X134752166Y-79364547D01*
X134752165Y-79364547D01*
X134692002Y-79366438D01*
X134688044Y-79366500D01*
X134660144Y-79366500D01*
X134656154Y-79367004D01*
X134644320Y-79367936D01*
X134600111Y-79369326D01*
X134592497Y-79371538D01*
X134592492Y-79371539D01*
X134580659Y-79374977D01*
X134561296Y-79378988D01*
X134541203Y-79381526D01*
X134533836Y-79384443D01*
X134533831Y-79384444D01*
X134500092Y-79397802D01*
X134488865Y-79401646D01*
X134446407Y-79413982D01*
X134439581Y-79418019D01*
X134428972Y-79424293D01*
X134411224Y-79432988D01*
X134392383Y-79440448D01*
X134385965Y-79445111D01*
X134379021Y-79448928D01*
X134377578Y-79446304D01*
X134323958Y-79465429D01*
X134315522Y-79465628D01*
X132731058Y-79449848D01*
X132538245Y-79447928D01*
X132470327Y-79427248D01*
X132424371Y-79373132D01*
X132413500Y-79321934D01*
X132413500Y-76744594D01*
X132433502Y-76676473D01*
X132450405Y-76655499D01*
X132785499Y-76320405D01*
X132847811Y-76286379D01*
X132874594Y-76283500D01*
X134141233Y-76283500D01*
X134152416Y-76284027D01*
X134159909Y-76285702D01*
X134167835Y-76285453D01*
X134167836Y-76285453D01*
X134227986Y-76283562D01*
X134231945Y-76283500D01*
X134259856Y-76283500D01*
X134263791Y-76283003D01*
X134263856Y-76282995D01*
X134275693Y-76282062D01*
X134307951Y-76281048D01*
X134311970Y-76280922D01*
X134319889Y-76280673D01*
X134339343Y-76275021D01*
X134358700Y-76271013D01*
X134370930Y-76269468D01*
X134370931Y-76269468D01*
X134378797Y-76268474D01*
X134386168Y-76265555D01*
X134386170Y-76265555D01*
X134419912Y-76252196D01*
X134431142Y-76248351D01*
X134465983Y-76238229D01*
X134465984Y-76238229D01*
X134473593Y-76236018D01*
X134480412Y-76231985D01*
X134480417Y-76231983D01*
X134491028Y-76225707D01*
X134508776Y-76217012D01*
X134527617Y-76209552D01*
X134563387Y-76183564D01*
X134573307Y-76177048D01*
X134604535Y-76158580D01*
X134604538Y-76158578D01*
X134611362Y-76154542D01*
X134625683Y-76140221D01*
X134640717Y-76127380D01*
X134650694Y-76120131D01*
X134657107Y-76115472D01*
X134685298Y-76081395D01*
X134693288Y-76072616D01*
X136760499Y-74005405D01*
X136822811Y-73971379D01*
X136849594Y-73968500D01*
X136906233Y-73968500D01*
X136917416Y-73969027D01*
X136924909Y-73970702D01*
X136932835Y-73970453D01*
X136932836Y-73970453D01*
X136992986Y-73968562D01*
X136996945Y-73968500D01*
X137024856Y-73968500D01*
X137028791Y-73968003D01*
X137028856Y-73967995D01*
X137040693Y-73967062D01*
X137072951Y-73966048D01*
X137076970Y-73965922D01*
X137084889Y-73965673D01*
X137104343Y-73960021D01*
X137123700Y-73956013D01*
X137135930Y-73954468D01*
X137135931Y-73954468D01*
X137143797Y-73953474D01*
X137151168Y-73950555D01*
X137151170Y-73950555D01*
X137184912Y-73937196D01*
X137196142Y-73933351D01*
X137230983Y-73923229D01*
X137230984Y-73923229D01*
X137238593Y-73921018D01*
X137245412Y-73916985D01*
X137245417Y-73916983D01*
X137256028Y-73910707D01*
X137273776Y-73902012D01*
X137292617Y-73894552D01*
X137328387Y-73868564D01*
X137338307Y-73862048D01*
X137369535Y-73843580D01*
X137369538Y-73843578D01*
X137376362Y-73839542D01*
X137390683Y-73825221D01*
X137405717Y-73812380D01*
X137415694Y-73805131D01*
X137422107Y-73800472D01*
X137450298Y-73766395D01*
X137458288Y-73757616D01*
X137702247Y-73513657D01*
X137710537Y-73506113D01*
X137717018Y-73502000D01*
X137763659Y-73452332D01*
X137766413Y-73449491D01*
X137786134Y-73429770D01*
X137788612Y-73426575D01*
X137796318Y-73417553D01*
X137821158Y-73391101D01*
X137826586Y-73385321D01*
X137836346Y-73367568D01*
X137847199Y-73351045D01*
X137854753Y-73341306D01*
X137859613Y-73335041D01*
X137877176Y-73294457D01*
X137882383Y-73283827D01*
X137903695Y-73245060D01*
X137905666Y-73237383D01*
X137905668Y-73237378D01*
X137908732Y-73225442D01*
X137915138Y-73206730D01*
X137920034Y-73195417D01*
X137923181Y-73188145D01*
X137924420Y-73180320D01*
X137924423Y-73180311D01*
X137926371Y-73168011D01*
X137956784Y-73103858D01*
X137995384Y-73074574D01*
X138003350Y-73070671D01*
X138007994Y-73068396D01*
X138012198Y-73065398D01*
X138012202Y-73065395D01*
X138088703Y-73010827D01*
X138189860Y-72938673D01*
X138348096Y-72780989D01*
X138362320Y-72761195D01*
X138478453Y-72599577D01*
X138479776Y-72600528D01*
X138526645Y-72557357D01*
X138596580Y-72545125D01*
X138662026Y-72572644D01*
G37*
%TD.AperFunction*%
%TD*%
%TA.AperFunction,Conductor*%
%TO.N,GND*%
G36*
X170128621Y-66868502D02*
G01*
X170175114Y-66922158D01*
X170186500Y-66974500D01*
X170186500Y-119705500D01*
X170166498Y-119773621D01*
X170112842Y-119820114D01*
X170060500Y-119831500D01*
X164014392Y-119831500D01*
X163946271Y-119811498D01*
X163899778Y-119757842D01*
X163889674Y-119687568D01*
X163919168Y-119622988D01*
X163938827Y-119604674D01*
X164000724Y-119558285D01*
X164013285Y-119545724D01*
X164089786Y-119443649D01*
X164098324Y-119428054D01*
X164143478Y-119307606D01*
X164147105Y-119292351D01*
X164152631Y-119241486D01*
X164153000Y-119234672D01*
X164153000Y-118612115D01*
X164148525Y-118596876D01*
X164147135Y-118595671D01*
X164139452Y-118594000D01*
X162667000Y-118594000D01*
X162598879Y-118573998D01*
X162552386Y-118520342D01*
X162541000Y-118468000D01*
X162541000Y-118067885D01*
X163049000Y-118067885D01*
X163053475Y-118083124D01*
X163054865Y-118084329D01*
X163062548Y-118086000D01*
X164134884Y-118086000D01*
X164150123Y-118081525D01*
X164151328Y-118080135D01*
X164152999Y-118072452D01*
X164152999Y-117445331D01*
X164152629Y-117438510D01*
X164147105Y-117387648D01*
X164143479Y-117372396D01*
X164123431Y-117318918D01*
X165681917Y-117318918D01*
X165682334Y-117326156D01*
X165697682Y-117592320D01*
X165750405Y-117861053D01*
X165751792Y-117865103D01*
X165751793Y-117865108D01*
X165837723Y-118116088D01*
X165839112Y-118120144D01*
X165868238Y-118178054D01*
X165937837Y-118316437D01*
X165962160Y-118364799D01*
X165964586Y-118368328D01*
X165964589Y-118368334D01*
X166033088Y-118468000D01*
X166117274Y-118590490D01*
X166301582Y-118793043D01*
X166511675Y-118968707D01*
X166515316Y-118970991D01*
X166740024Y-119111951D01*
X166740028Y-119111953D01*
X166743664Y-119114234D01*
X166811544Y-119144883D01*
X166989345Y-119225164D01*
X166989349Y-119225166D01*
X166993257Y-119226930D01*
X166997377Y-119228150D01*
X166997376Y-119228150D01*
X167251723Y-119303491D01*
X167251727Y-119303492D01*
X167255836Y-119304709D01*
X167260070Y-119305357D01*
X167260075Y-119305358D01*
X167522298Y-119345483D01*
X167522300Y-119345483D01*
X167526540Y-119346132D01*
X167665912Y-119348322D01*
X167796071Y-119350367D01*
X167796077Y-119350367D01*
X167800362Y-119350434D01*
X168072235Y-119317534D01*
X168337127Y-119248041D01*
X168341087Y-119246401D01*
X168341092Y-119246399D01*
X168463631Y-119195641D01*
X168590136Y-119143241D01*
X168826582Y-119005073D01*
X169042089Y-118836094D01*
X169081928Y-118794984D01*
X169229686Y-118642509D01*
X169232669Y-118639431D01*
X169235202Y-118635983D01*
X169235206Y-118635978D01*
X169392257Y-118422178D01*
X169394795Y-118418723D01*
X169422154Y-118368334D01*
X169523418Y-118181830D01*
X169523419Y-118181828D01*
X169525468Y-118178054D01*
X169622269Y-117921877D01*
X169663173Y-117743279D01*
X169682449Y-117659117D01*
X169682450Y-117659113D01*
X169683407Y-117654933D01*
X169691910Y-117559665D01*
X169707531Y-117384627D01*
X169707531Y-117384625D01*
X169707751Y-117382161D01*
X169708193Y-117340000D01*
X169699181Y-117207800D01*
X169689859Y-117071055D01*
X169689858Y-117071049D01*
X169689567Y-117066778D01*
X169681814Y-117029338D01*
X169642846Y-116841173D01*
X169634032Y-116798612D01*
X169542617Y-116540465D01*
X169432102Y-116326346D01*
X169418978Y-116300919D01*
X169418978Y-116300918D01*
X169417013Y-116297112D01*
X169407040Y-116282921D01*
X169273498Y-116092910D01*
X169259545Y-116073057D01*
X169073125Y-115872445D01*
X169069810Y-115869731D01*
X169069806Y-115869728D01*
X168864523Y-115701706D01*
X168861205Y-115698990D01*
X168627704Y-115555901D01*
X168623768Y-115554173D01*
X168380873Y-115447549D01*
X168380869Y-115447548D01*
X168376945Y-115445825D01*
X168113566Y-115370800D01*
X168109324Y-115370196D01*
X168109318Y-115370195D01*
X167908834Y-115341662D01*
X167842443Y-115332213D01*
X167698589Y-115331460D01*
X167572877Y-115330802D01*
X167572871Y-115330802D01*
X167568591Y-115330780D01*
X167564347Y-115331339D01*
X167564343Y-115331339D01*
X167445302Y-115347011D01*
X167297078Y-115366525D01*
X167292938Y-115367658D01*
X167292936Y-115367658D01*
X167220008Y-115387609D01*
X167032928Y-115438788D01*
X167028980Y-115440472D01*
X166784982Y-115544546D01*
X166784978Y-115544548D01*
X166781030Y-115546232D01*
X166761125Y-115558145D01*
X166549725Y-115684664D01*
X166549721Y-115684667D01*
X166546043Y-115686868D01*
X166332318Y-115858094D01*
X166143808Y-116056742D01*
X165984002Y-116279136D01*
X165855857Y-116521161D01*
X165854385Y-116525184D01*
X165854383Y-116525188D01*
X165763353Y-116773938D01*
X165761743Y-116778337D01*
X165703404Y-117045907D01*
X165681917Y-117318918D01*
X164123431Y-117318918D01*
X164098324Y-117251946D01*
X164089786Y-117236351D01*
X164013285Y-117134276D01*
X164000724Y-117121715D01*
X163898649Y-117045214D01*
X163883054Y-117036676D01*
X163772297Y-116995155D01*
X163715533Y-116952513D01*
X163690833Y-116885952D01*
X163706040Y-116816603D01*
X163727587Y-116787922D01*
X163829057Y-116686805D01*
X163835730Y-116678965D01*
X163960003Y-116506020D01*
X163965313Y-116497183D01*
X164059670Y-116306267D01*
X164063469Y-116296672D01*
X164125377Y-116092910D01*
X164127555Y-116082837D01*
X164128986Y-116071962D01*
X164126775Y-116057778D01*
X164113617Y-116054000D01*
X163067115Y-116054000D01*
X163051876Y-116058475D01*
X163050671Y-116059865D01*
X163049000Y-116067548D01*
X163049000Y-118067885D01*
X162541000Y-118067885D01*
X162541000Y-115527885D01*
X163049000Y-115527885D01*
X163053475Y-115543124D01*
X163054865Y-115544329D01*
X163062548Y-115546000D01*
X164113344Y-115546000D01*
X164126875Y-115542027D01*
X164128180Y-115532947D01*
X164086214Y-115365875D01*
X164082894Y-115356124D01*
X163997972Y-115160814D01*
X163993105Y-115151739D01*
X163877426Y-114972926D01*
X163871136Y-114964757D01*
X163727806Y-114807240D01*
X163720273Y-114800215D01*
X163553139Y-114668222D01*
X163544552Y-114662517D01*
X163507116Y-114641851D01*
X163457146Y-114591419D01*
X163442374Y-114521976D01*
X163467490Y-114455571D01*
X163494842Y-114428964D01*
X163670327Y-114303792D01*
X163678200Y-114297139D01*
X163829052Y-114146812D01*
X163835730Y-114138965D01*
X163960003Y-113966020D01*
X163965313Y-113957183D01*
X164059670Y-113766267D01*
X164063469Y-113756672D01*
X164125377Y-113552910D01*
X164127555Y-113542837D01*
X164128986Y-113531962D01*
X164126775Y-113517778D01*
X164113617Y-113514000D01*
X163067115Y-113514000D01*
X163051876Y-113518475D01*
X163050671Y-113519865D01*
X163049000Y-113527548D01*
X163049000Y-115527885D01*
X162541000Y-115527885D01*
X162541000Y-112987885D01*
X163049000Y-112987885D01*
X163053475Y-113003124D01*
X163054865Y-113004329D01*
X163062548Y-113006000D01*
X164113344Y-113006000D01*
X164126875Y-113002027D01*
X164128180Y-112992947D01*
X164086214Y-112825875D01*
X164082894Y-112816124D01*
X163997972Y-112620814D01*
X163993105Y-112611739D01*
X163877426Y-112432926D01*
X163871136Y-112424757D01*
X163727806Y-112267240D01*
X163720273Y-112260215D01*
X163553139Y-112128222D01*
X163544552Y-112122517D01*
X163507116Y-112101851D01*
X163457146Y-112051419D01*
X163442374Y-111981976D01*
X163467490Y-111915571D01*
X163494842Y-111888964D01*
X163670327Y-111763792D01*
X163678200Y-111757139D01*
X163829052Y-111606812D01*
X163835730Y-111598965D01*
X163960003Y-111426020D01*
X163965313Y-111417183D01*
X164059670Y-111226267D01*
X164063469Y-111216672D01*
X164125377Y-111012910D01*
X164127555Y-111002837D01*
X164128986Y-110991962D01*
X164126775Y-110977778D01*
X164113617Y-110974000D01*
X163067115Y-110974000D01*
X163051876Y-110978475D01*
X163050671Y-110979865D01*
X163049000Y-110987548D01*
X163049000Y-112987885D01*
X162541000Y-112987885D01*
X162541000Y-110447885D01*
X163049000Y-110447885D01*
X163053475Y-110463124D01*
X163054865Y-110464329D01*
X163062548Y-110466000D01*
X164113344Y-110466000D01*
X164126875Y-110462027D01*
X164128180Y-110452947D01*
X164086214Y-110285875D01*
X164082894Y-110276124D01*
X163997972Y-110080814D01*
X163993105Y-110071739D01*
X163877426Y-109892926D01*
X163871136Y-109884757D01*
X163727806Y-109727240D01*
X163720273Y-109720215D01*
X163553139Y-109588222D01*
X163544552Y-109582517D01*
X163358117Y-109479599D01*
X163348705Y-109475369D01*
X163147959Y-109404280D01*
X163137988Y-109401646D01*
X163066837Y-109388972D01*
X163053540Y-109390432D01*
X163049000Y-109404989D01*
X163049000Y-110447885D01*
X162541000Y-110447885D01*
X162541000Y-109403102D01*
X162537082Y-109389758D01*
X162522806Y-109387771D01*
X162484324Y-109393660D01*
X162474288Y-109396051D01*
X162271868Y-109462212D01*
X162262359Y-109466209D01*
X162073463Y-109564542D01*
X162064738Y-109570036D01*
X161894433Y-109697905D01*
X161886726Y-109704748D01*
X161739590Y-109858717D01*
X161733109Y-109866722D01*
X161628498Y-110020074D01*
X161573587Y-110065076D01*
X161503062Y-110073247D01*
X161439315Y-110041993D01*
X161418618Y-110017509D01*
X161337822Y-109892617D01*
X161337820Y-109892614D01*
X161335014Y-109888277D01*
X161184670Y-109723051D01*
X161180619Y-109719852D01*
X161180615Y-109719848D01*
X161013414Y-109587800D01*
X161013410Y-109587798D01*
X161009359Y-109584598D01*
X160973028Y-109564542D01*
X160957136Y-109555769D01*
X160813789Y-109476638D01*
X160808920Y-109474914D01*
X160808916Y-109474912D01*
X160608087Y-109403795D01*
X160608083Y-109403794D01*
X160603212Y-109402069D01*
X160598119Y-109401162D01*
X160598116Y-109401161D01*
X160388373Y-109363800D01*
X160388367Y-109363799D01*
X160383284Y-109362894D01*
X160309452Y-109361992D01*
X160165081Y-109360228D01*
X160165079Y-109360228D01*
X160159911Y-109360165D01*
X159939091Y-109393955D01*
X159726756Y-109463357D01*
X159528607Y-109566507D01*
X159524474Y-109569610D01*
X159524471Y-109569612D01*
X159500247Y-109587800D01*
X159349965Y-109700635D01*
X159195629Y-109862138D01*
X159069743Y-110046680D01*
X159053899Y-110080814D01*
X159013788Y-110167225D01*
X158966964Y-110220592D01*
X158898720Y-110240173D01*
X158830725Y-110219749D01*
X158784565Y-110165807D01*
X158773500Y-110114175D01*
X158773500Y-107398767D01*
X158774027Y-107387584D01*
X158775702Y-107380091D01*
X158773562Y-107312014D01*
X158773500Y-107308055D01*
X158773500Y-107280144D01*
X158772995Y-107276144D01*
X158772062Y-107264301D01*
X158770922Y-107228030D01*
X158770673Y-107220111D01*
X158765021Y-107200657D01*
X158761013Y-107181300D01*
X158759468Y-107169070D01*
X158759468Y-107169069D01*
X158758474Y-107161203D01*
X158755555Y-107153830D01*
X158742196Y-107120088D01*
X158738351Y-107108858D01*
X158728229Y-107074017D01*
X158728229Y-107074016D01*
X158726018Y-107066407D01*
X158721985Y-107059588D01*
X158721983Y-107059583D01*
X158715707Y-107048972D01*
X158707012Y-107031224D01*
X158699552Y-107012383D01*
X158673564Y-106976613D01*
X158667048Y-106966693D01*
X158648580Y-106935465D01*
X158648578Y-106935462D01*
X158644542Y-106928638D01*
X158630221Y-106914317D01*
X158617380Y-106899283D01*
X158610131Y-106889306D01*
X158605472Y-106882893D01*
X158571395Y-106854702D01*
X158562616Y-106846712D01*
X157836905Y-106121001D01*
X157802879Y-106058689D01*
X157800000Y-106031906D01*
X157800000Y-102176695D01*
X163797251Y-102176695D01*
X163810110Y-102399715D01*
X163811247Y-102404761D01*
X163811248Y-102404767D01*
X163835304Y-102511508D01*
X163859222Y-102617639D01*
X163943266Y-102824616D01*
X163967154Y-102863598D01*
X164030008Y-102966166D01*
X164059987Y-103015088D01*
X164206250Y-103183938D01*
X164378126Y-103326632D01*
X164571000Y-103439338D01*
X164779692Y-103519030D01*
X164784760Y-103520061D01*
X164784763Y-103520062D01*
X164892017Y-103541883D01*
X164998597Y-103563567D01*
X165003772Y-103563757D01*
X165003774Y-103563757D01*
X165216673Y-103571564D01*
X165216677Y-103571564D01*
X165221837Y-103571753D01*
X165226957Y-103571097D01*
X165226959Y-103571097D01*
X165438288Y-103544025D01*
X165438289Y-103544025D01*
X165443416Y-103543368D01*
X165448366Y-103541883D01*
X165652429Y-103480661D01*
X165652434Y-103480659D01*
X165657384Y-103479174D01*
X165857994Y-103380896D01*
X166039860Y-103251173D01*
X166198096Y-103093489D01*
X166198671Y-103094066D01*
X166254391Y-103057562D01*
X166325385Y-103056939D01*
X166385446Y-103094796D01*
X166405051Y-103124691D01*
X166406133Y-103127000D01*
X166408450Y-103133946D01*
X166501522Y-103284348D01*
X166626697Y-103409305D01*
X166632927Y-103413145D01*
X166632928Y-103413146D01*
X166770090Y-103497694D01*
X166777262Y-103502115D01*
X166831371Y-103520062D01*
X166938611Y-103555632D01*
X166938613Y-103555632D01*
X166945139Y-103557797D01*
X166951975Y-103558497D01*
X166951978Y-103558498D01*
X166991372Y-103562534D01*
X167049600Y-103568500D01*
X168350400Y-103568500D01*
X168353646Y-103568163D01*
X168353650Y-103568163D01*
X168449308Y-103558238D01*
X168449312Y-103558237D01*
X168456166Y-103557526D01*
X168462702Y-103555345D01*
X168462704Y-103555345D01*
X168594806Y-103511272D01*
X168623946Y-103501550D01*
X168774348Y-103408478D01*
X168899305Y-103283303D01*
X168921357Y-103247529D01*
X168988275Y-103138968D01*
X168988276Y-103138966D01*
X168992115Y-103132738D01*
X169047797Y-102964861D01*
X169058500Y-102860400D01*
X169058500Y-101559600D01*
X169047526Y-101453834D01*
X169013598Y-101352138D01*
X168993868Y-101293002D01*
X168991550Y-101286054D01*
X168898478Y-101135652D01*
X168773303Y-101010695D01*
X168767072Y-101006854D01*
X168628968Y-100921725D01*
X168628966Y-100921724D01*
X168622738Y-100917885D01*
X168566820Y-100899338D01*
X168547640Y-100892976D01*
X168489280Y-100852545D01*
X168478729Y-100827146D01*
X168476424Y-100828370D01*
X168450660Y-100779870D01*
X167712812Y-100042022D01*
X167698868Y-100034408D01*
X167697035Y-100034539D01*
X167690420Y-100038790D01*
X166946737Y-100782473D01*
X166923985Y-100824139D01*
X166921777Y-100834287D01*
X166871574Y-100884488D01*
X166851067Y-100893424D01*
X166776054Y-100918450D01*
X166625652Y-101011522D01*
X166500695Y-101136697D01*
X166496855Y-101142927D01*
X166496854Y-101142928D01*
X166451272Y-101216876D01*
X166407885Y-101287262D01*
X166405579Y-101294213D01*
X166403561Y-101298542D01*
X166356644Y-101351828D01*
X166288367Y-101371290D01*
X166220407Y-101350749D01*
X166196172Y-101330094D01*
X166093152Y-101216876D01*
X166093142Y-101216867D01*
X166089670Y-101213051D01*
X166085619Y-101209852D01*
X166085615Y-101209848D01*
X165918414Y-101077800D01*
X165918410Y-101077798D01*
X165914359Y-101074598D01*
X165873053Y-101051796D01*
X165823084Y-101001364D01*
X165808312Y-100931921D01*
X165833428Y-100865516D01*
X165860780Y-100838909D01*
X165904603Y-100807650D01*
X166039860Y-100711173D01*
X166198096Y-100553489D01*
X166257594Y-100470689D01*
X166328453Y-100372077D01*
X166329640Y-100372930D01*
X166376960Y-100329362D01*
X166446897Y-100317145D01*
X166512338Y-100344678D01*
X166540166Y-100376512D01*
X166566459Y-100419419D01*
X166576916Y-100428880D01*
X166585694Y-100425096D01*
X167327978Y-99682812D01*
X167334356Y-99671132D01*
X168064408Y-99671132D01*
X168064539Y-99672965D01*
X168068790Y-99679580D01*
X168810474Y-100421264D01*
X168822484Y-100427823D01*
X168834223Y-100418855D01*
X168865004Y-100376019D01*
X168870315Y-100367180D01*
X168964670Y-100176267D01*
X168968469Y-100166672D01*
X169030376Y-99962915D01*
X169032555Y-99952834D01*
X169060590Y-99739887D01*
X169061109Y-99733212D01*
X169062572Y-99673364D01*
X169062378Y-99666646D01*
X169044781Y-99452604D01*
X169043096Y-99442424D01*
X168991214Y-99235875D01*
X168987894Y-99226124D01*
X168902972Y-99030814D01*
X168898105Y-99021739D01*
X168833063Y-98921197D01*
X168822377Y-98911995D01*
X168812812Y-98916398D01*
X168072022Y-99657188D01*
X168064408Y-99671132D01*
X167334356Y-99671132D01*
X167335592Y-99668868D01*
X167335461Y-99667035D01*
X167331210Y-99660420D01*
X166589849Y-98919059D01*
X166578313Y-98912759D01*
X166566031Y-98922382D01*
X166533499Y-98970072D01*
X166478587Y-99015075D01*
X166408063Y-99023246D01*
X166344316Y-98991992D01*
X166323618Y-98967508D01*
X166242822Y-98842617D01*
X166242820Y-98842614D01*
X166240014Y-98838277D01*
X166089670Y-98673051D01*
X166085619Y-98669852D01*
X166085615Y-98669848D01*
X165918414Y-98537800D01*
X165918410Y-98537798D01*
X165914359Y-98534598D01*
X165873053Y-98511796D01*
X165823084Y-98461364D01*
X165808312Y-98391921D01*
X165833428Y-98325516D01*
X165860780Y-98298909D01*
X165904603Y-98267650D01*
X166039860Y-98171173D01*
X166198096Y-98013489D01*
X166257594Y-97930689D01*
X166328453Y-97832077D01*
X166329776Y-97833028D01*
X166376645Y-97789857D01*
X166446580Y-97777625D01*
X166512026Y-97805144D01*
X166539875Y-97836994D01*
X166599987Y-97935088D01*
X166746250Y-98103938D01*
X166918126Y-98246632D01*
X166991445Y-98289476D01*
X166991955Y-98289774D01*
X167040679Y-98341412D01*
X167053750Y-98411195D01*
X167027019Y-98476967D01*
X166986562Y-98510327D01*
X166978460Y-98514544D01*
X166969734Y-98520039D01*
X166949677Y-98535099D01*
X166941223Y-98546427D01*
X166947968Y-98558758D01*
X167687188Y-99297978D01*
X167701132Y-99305592D01*
X167702965Y-99305461D01*
X167709580Y-99301210D01*
X168453389Y-98557401D01*
X168460410Y-98544544D01*
X168453611Y-98535213D01*
X168449559Y-98532521D01*
X168412602Y-98512120D01*
X168362631Y-98461687D01*
X168347859Y-98392245D01*
X168372975Y-98325839D01*
X168400327Y-98299232D01*
X168423797Y-98282491D01*
X168579860Y-98171173D01*
X168738096Y-98013489D01*
X168797594Y-97930689D01*
X168865435Y-97836277D01*
X168868453Y-97832077D01*
X168889320Y-97789857D01*
X168965136Y-97636453D01*
X168965137Y-97636451D01*
X168967430Y-97631811D01*
X169032370Y-97418069D01*
X169061529Y-97196590D01*
X169063156Y-97130000D01*
X169044852Y-96907361D01*
X168990431Y-96690702D01*
X168901354Y-96485840D01*
X168780014Y-96298277D01*
X168629670Y-96133051D01*
X168625619Y-96129852D01*
X168625615Y-96129848D01*
X168458414Y-95997800D01*
X168458410Y-95997798D01*
X168454359Y-95994598D01*
X168413053Y-95971796D01*
X168363084Y-95921364D01*
X168348312Y-95851921D01*
X168373428Y-95785516D01*
X168400780Y-95758909D01*
X168444603Y-95727650D01*
X168579860Y-95631173D01*
X168738096Y-95473489D01*
X168797594Y-95390689D01*
X168865435Y-95296277D01*
X168868453Y-95292077D01*
X168889320Y-95249857D01*
X168965136Y-95096453D01*
X168965137Y-95096451D01*
X168967430Y-95091811D01*
X169032370Y-94878069D01*
X169061529Y-94656590D01*
X169063156Y-94590000D01*
X169044852Y-94367361D01*
X168990431Y-94150702D01*
X168901354Y-93945840D01*
X168780014Y-93758277D01*
X168629670Y-93593051D01*
X168625619Y-93589852D01*
X168625615Y-93589848D01*
X168458414Y-93457800D01*
X168458410Y-93457798D01*
X168454359Y-93454598D01*
X168413053Y-93431796D01*
X168363084Y-93381364D01*
X168348312Y-93311921D01*
X168373428Y-93245516D01*
X168400780Y-93218909D01*
X168444603Y-93187650D01*
X168579860Y-93091173D01*
X168738096Y-92933489D01*
X168797594Y-92850689D01*
X168865435Y-92756277D01*
X168868453Y-92752077D01*
X168889320Y-92709857D01*
X168965136Y-92556453D01*
X168965137Y-92556451D01*
X168967430Y-92551811D01*
X169032370Y-92338069D01*
X169061529Y-92116590D01*
X169063156Y-92050000D01*
X169044852Y-91827361D01*
X168990431Y-91610702D01*
X168901354Y-91405840D01*
X168780014Y-91218277D01*
X168629670Y-91053051D01*
X168625619Y-91049852D01*
X168625615Y-91049848D01*
X168458414Y-90917800D01*
X168458410Y-90917798D01*
X168454359Y-90914598D01*
X168413053Y-90891796D01*
X168363084Y-90841364D01*
X168348312Y-90771921D01*
X168373428Y-90705516D01*
X168400780Y-90678909D01*
X168444603Y-90647650D01*
X168579860Y-90551173D01*
X168738096Y-90393489D01*
X168797594Y-90310689D01*
X168865435Y-90216277D01*
X168868453Y-90212077D01*
X168874983Y-90198866D01*
X168965136Y-90016453D01*
X168965137Y-90016451D01*
X168967430Y-90011811D01*
X169032370Y-89798069D01*
X169061529Y-89576590D01*
X169063156Y-89510000D01*
X169044852Y-89287361D01*
X168990431Y-89070702D01*
X168901354Y-88865840D01*
X168780014Y-88678277D01*
X168629670Y-88513051D01*
X168625619Y-88509852D01*
X168625615Y-88509848D01*
X168458414Y-88377800D01*
X168458410Y-88377798D01*
X168454359Y-88374598D01*
X168413053Y-88351796D01*
X168363084Y-88301364D01*
X168348312Y-88231921D01*
X168373428Y-88165516D01*
X168400780Y-88138909D01*
X168444603Y-88107650D01*
X168579860Y-88011173D01*
X168738096Y-87853489D01*
X168797594Y-87770689D01*
X168865435Y-87676277D01*
X168868453Y-87672077D01*
X168889320Y-87629857D01*
X168965136Y-87476453D01*
X168965137Y-87476451D01*
X168967430Y-87471811D01*
X169032370Y-87258069D01*
X169061529Y-87036590D01*
X169063156Y-86970000D01*
X169044852Y-86747361D01*
X168990431Y-86530702D01*
X168901354Y-86325840D01*
X168780014Y-86138277D01*
X168629670Y-85973051D01*
X168625619Y-85969852D01*
X168625615Y-85969848D01*
X168458414Y-85837800D01*
X168458410Y-85837798D01*
X168454359Y-85834598D01*
X168412569Y-85811529D01*
X168362598Y-85761097D01*
X168347826Y-85691654D01*
X168372942Y-85625248D01*
X168400293Y-85598642D01*
X168449247Y-85563723D01*
X168457648Y-85553023D01*
X168450660Y-85539870D01*
X167712812Y-84802022D01*
X167698868Y-84794408D01*
X167697035Y-84794539D01*
X167690420Y-84798790D01*
X166946737Y-85542473D01*
X166939977Y-85554853D01*
X166945258Y-85561907D01*
X166991969Y-85589203D01*
X167040693Y-85640841D01*
X167053764Y-85710624D01*
X167027033Y-85776396D01*
X166986584Y-85809752D01*
X166973607Y-85816507D01*
X166969474Y-85819610D01*
X166969471Y-85819612D01*
X166945247Y-85837800D01*
X166794965Y-85950635D01*
X166640629Y-86112138D01*
X166533201Y-86269621D01*
X166478293Y-86314621D01*
X166407768Y-86322792D01*
X166344021Y-86291538D01*
X166323324Y-86267054D01*
X166242822Y-86142617D01*
X166242820Y-86142614D01*
X166240014Y-86138277D01*
X166089670Y-85973051D01*
X166085619Y-85969852D01*
X166085615Y-85969848D01*
X165918414Y-85837800D01*
X165918410Y-85837798D01*
X165914359Y-85834598D01*
X165873053Y-85811796D01*
X165823084Y-85761364D01*
X165808312Y-85691921D01*
X165833428Y-85625516D01*
X165860780Y-85598909D01*
X165925110Y-85553023D01*
X166039860Y-85471173D01*
X166198096Y-85313489D01*
X166257594Y-85230689D01*
X166328453Y-85132077D01*
X166329640Y-85132930D01*
X166376960Y-85089362D01*
X166446897Y-85077145D01*
X166512338Y-85104678D01*
X166540166Y-85136512D01*
X166566459Y-85179419D01*
X166576916Y-85188880D01*
X166585694Y-85185096D01*
X167327978Y-84442812D01*
X167334356Y-84431132D01*
X168064408Y-84431132D01*
X168064539Y-84432965D01*
X168068790Y-84439580D01*
X168810474Y-85181264D01*
X168822484Y-85187823D01*
X168834223Y-85178855D01*
X168865004Y-85136019D01*
X168870315Y-85127180D01*
X168964670Y-84936267D01*
X168968469Y-84926672D01*
X169030376Y-84722915D01*
X169032555Y-84712834D01*
X169060590Y-84499887D01*
X169061109Y-84493212D01*
X169062572Y-84433364D01*
X169062378Y-84426646D01*
X169044781Y-84212604D01*
X169043096Y-84202424D01*
X168991214Y-83995875D01*
X168987894Y-83986124D01*
X168902972Y-83790814D01*
X168898105Y-83781739D01*
X168833063Y-83681197D01*
X168822377Y-83671995D01*
X168812812Y-83676398D01*
X168072022Y-84417188D01*
X168064408Y-84431132D01*
X167334356Y-84431132D01*
X167335592Y-84428868D01*
X167335461Y-84427035D01*
X167331210Y-84420420D01*
X166589849Y-83679059D01*
X166578313Y-83672759D01*
X166566031Y-83682382D01*
X166533499Y-83730072D01*
X166478587Y-83775075D01*
X166408063Y-83783246D01*
X166344316Y-83751992D01*
X166323618Y-83727508D01*
X166242822Y-83602617D01*
X166242820Y-83602614D01*
X166240014Y-83598277D01*
X166089670Y-83433051D01*
X166085619Y-83429852D01*
X166085615Y-83429848D01*
X165929338Y-83306427D01*
X166941223Y-83306427D01*
X166947968Y-83318758D01*
X167687188Y-84057978D01*
X167701132Y-84065592D01*
X167702965Y-84065461D01*
X167709580Y-84061210D01*
X168453389Y-83317401D01*
X168460410Y-83304544D01*
X168453611Y-83295213D01*
X168449554Y-83292518D01*
X168263117Y-83189599D01*
X168253705Y-83185369D01*
X168052959Y-83114280D01*
X168042989Y-83111646D01*
X167833327Y-83074301D01*
X167823073Y-83073331D01*
X167610116Y-83070728D01*
X167599832Y-83071448D01*
X167389321Y-83103661D01*
X167379293Y-83106050D01*
X167176868Y-83172212D01*
X167167359Y-83176209D01*
X166978466Y-83274540D01*
X166969734Y-83280039D01*
X166949677Y-83295099D01*
X166941223Y-83306427D01*
X165929338Y-83306427D01*
X165918414Y-83297800D01*
X165918410Y-83297798D01*
X165914359Y-83294598D01*
X165718789Y-83186638D01*
X165713920Y-83184914D01*
X165713916Y-83184912D01*
X165513087Y-83113795D01*
X165513083Y-83113794D01*
X165508212Y-83112069D01*
X165503119Y-83111162D01*
X165503116Y-83111161D01*
X165293373Y-83073800D01*
X165293367Y-83073799D01*
X165288284Y-83072894D01*
X165214452Y-83071992D01*
X165070081Y-83070228D01*
X165070079Y-83070228D01*
X165064911Y-83070165D01*
X164844091Y-83103955D01*
X164631756Y-83173357D01*
X164433607Y-83276507D01*
X164429474Y-83279610D01*
X164429471Y-83279612D01*
X164259100Y-83407530D01*
X164254965Y-83410635D01*
X164100629Y-83572138D01*
X163974743Y-83756680D01*
X163880688Y-83959305D01*
X163820989Y-84174570D01*
X163797251Y-84396695D01*
X163797548Y-84401848D01*
X163797548Y-84401851D01*
X163799910Y-84442812D01*
X163810110Y-84619715D01*
X163811247Y-84624761D01*
X163811248Y-84624767D01*
X163832275Y-84718069D01*
X163859222Y-84837639D01*
X163943266Y-85044616D01*
X164059987Y-85235088D01*
X164206250Y-85403938D01*
X164378126Y-85546632D01*
X164389063Y-85553023D01*
X164451445Y-85589476D01*
X164500169Y-85641114D01*
X164513240Y-85710897D01*
X164486509Y-85776669D01*
X164446055Y-85810027D01*
X164433607Y-85816507D01*
X164429474Y-85819610D01*
X164429471Y-85819612D01*
X164405247Y-85837800D01*
X164254965Y-85950635D01*
X164100629Y-86112138D01*
X163974743Y-86296680D01*
X163880688Y-86499305D01*
X163820989Y-86714570D01*
X163797251Y-86936695D01*
X163797548Y-86941848D01*
X163797548Y-86941851D01*
X163803011Y-87036590D01*
X163810110Y-87159715D01*
X163811247Y-87164761D01*
X163811248Y-87164767D01*
X163831119Y-87252939D01*
X163859222Y-87377639D01*
X163943266Y-87584616D01*
X163994019Y-87667438D01*
X164057291Y-87770688D01*
X164059987Y-87775088D01*
X164206250Y-87943938D01*
X164378126Y-88086632D01*
X164448595Y-88127811D01*
X164451445Y-88129476D01*
X164500169Y-88181114D01*
X164513240Y-88250897D01*
X164486509Y-88316669D01*
X164446055Y-88350027D01*
X164433607Y-88356507D01*
X164429474Y-88359610D01*
X164429471Y-88359612D01*
X164405247Y-88377800D01*
X164254965Y-88490635D01*
X164100629Y-88652138D01*
X163974743Y-88836680D01*
X163959003Y-88870590D01*
X163904144Y-88988774D01*
X163880688Y-89039305D01*
X163820989Y-89254570D01*
X163797251Y-89476695D01*
X163797548Y-89481848D01*
X163797548Y-89481851D01*
X163803011Y-89576590D01*
X163810110Y-89699715D01*
X163811247Y-89704761D01*
X163811248Y-89704767D01*
X163813826Y-89716206D01*
X163859222Y-89917639D01*
X163943266Y-90124616D01*
X163985757Y-90193955D01*
X164057291Y-90310688D01*
X164059987Y-90315088D01*
X164206250Y-90483938D01*
X164378126Y-90626632D01*
X164448595Y-90667811D01*
X164451445Y-90669476D01*
X164500169Y-90721114D01*
X164513240Y-90790897D01*
X164486509Y-90856669D01*
X164446055Y-90890027D01*
X164433607Y-90896507D01*
X164429474Y-90899610D01*
X164429471Y-90899612D01*
X164405247Y-90917800D01*
X164254965Y-91030635D01*
X164100629Y-91192138D01*
X163974743Y-91376680D01*
X163880688Y-91579305D01*
X163820989Y-91794570D01*
X163797251Y-92016695D01*
X163797548Y-92021848D01*
X163797548Y-92021851D01*
X163803011Y-92116590D01*
X163810110Y-92239715D01*
X163811247Y-92244761D01*
X163811248Y-92244767D01*
X163831119Y-92332939D01*
X163859222Y-92457639D01*
X163943266Y-92664616D01*
X163994019Y-92747438D01*
X164057291Y-92850688D01*
X164059987Y-92855088D01*
X164206250Y-93023938D01*
X164378126Y-93166632D01*
X164448595Y-93207811D01*
X164451445Y-93209476D01*
X164500169Y-93261114D01*
X164513240Y-93330897D01*
X164486509Y-93396669D01*
X164446055Y-93430027D01*
X164433607Y-93436507D01*
X164429474Y-93439610D01*
X164429471Y-93439612D01*
X164405247Y-93457800D01*
X164254965Y-93570635D01*
X164100629Y-93732138D01*
X163974743Y-93916680D01*
X163880688Y-94119305D01*
X163820989Y-94334570D01*
X163797251Y-94556695D01*
X163797548Y-94561848D01*
X163797548Y-94561851D01*
X163803011Y-94656590D01*
X163810110Y-94779715D01*
X163811247Y-94784761D01*
X163811248Y-94784767D01*
X163831119Y-94872939D01*
X163859222Y-94997639D01*
X163943266Y-95204616D01*
X163994019Y-95287438D01*
X164057291Y-95390688D01*
X164059987Y-95395088D01*
X164206250Y-95563938D01*
X164378126Y-95706632D01*
X164448595Y-95747811D01*
X164451445Y-95749476D01*
X164500169Y-95801114D01*
X164513240Y-95870897D01*
X164486509Y-95936669D01*
X164446055Y-95970027D01*
X164433607Y-95976507D01*
X164429474Y-95979610D01*
X164429471Y-95979612D01*
X164405247Y-95997800D01*
X164254965Y-96110635D01*
X164100629Y-96272138D01*
X163974743Y-96456680D01*
X163880688Y-96659305D01*
X163820989Y-96874570D01*
X163797251Y-97096695D01*
X163797548Y-97101848D01*
X163797548Y-97101851D01*
X163803011Y-97196590D01*
X163810110Y-97319715D01*
X163811247Y-97324761D01*
X163811248Y-97324767D01*
X163831119Y-97412939D01*
X163859222Y-97537639D01*
X163943266Y-97744616D01*
X163994019Y-97827438D01*
X164057291Y-97930688D01*
X164059987Y-97935088D01*
X164206250Y-98103938D01*
X164378126Y-98246632D01*
X164448595Y-98287811D01*
X164451445Y-98289476D01*
X164500169Y-98341114D01*
X164513240Y-98410897D01*
X164486509Y-98476669D01*
X164446055Y-98510027D01*
X164433607Y-98516507D01*
X164429474Y-98519610D01*
X164429471Y-98519612D01*
X164259100Y-98647530D01*
X164254965Y-98650635D01*
X164100629Y-98812138D01*
X163974743Y-98996680D01*
X163880688Y-99199305D01*
X163820989Y-99414570D01*
X163797251Y-99636695D01*
X163797548Y-99641848D01*
X163797548Y-99641851D01*
X163799910Y-99682812D01*
X163810110Y-99859715D01*
X163811247Y-99864761D01*
X163811248Y-99864767D01*
X163832275Y-99958069D01*
X163859222Y-100077639D01*
X163943266Y-100284616D01*
X164059987Y-100475088D01*
X164206250Y-100643938D01*
X164378126Y-100786632D01*
X164442312Y-100824139D01*
X164451445Y-100829476D01*
X164500169Y-100881114D01*
X164513240Y-100950897D01*
X164486509Y-101016669D01*
X164446055Y-101050027D01*
X164433607Y-101056507D01*
X164429474Y-101059610D01*
X164429471Y-101059612D01*
X164259100Y-101187530D01*
X164254965Y-101190635D01*
X164100629Y-101352138D01*
X163974743Y-101536680D01*
X163880688Y-101739305D01*
X163820989Y-101954570D01*
X163797251Y-102176695D01*
X157800000Y-102176695D01*
X157800000Y-89520000D01*
X161426496Y-89520000D01*
X161427186Y-89526565D01*
X161445385Y-89699715D01*
X161446458Y-89709928D01*
X161505473Y-89891556D01*
X161600960Y-90056944D01*
X161728747Y-90198866D01*
X161883248Y-90311118D01*
X161889276Y-90313802D01*
X161889278Y-90313803D01*
X162051681Y-90386109D01*
X162057712Y-90388794D01*
X162151113Y-90408647D01*
X162238056Y-90427128D01*
X162238061Y-90427128D01*
X162244513Y-90428500D01*
X162435487Y-90428500D01*
X162441939Y-90427128D01*
X162441944Y-90427128D01*
X162528888Y-90408647D01*
X162622288Y-90388794D01*
X162628319Y-90386109D01*
X162790722Y-90313803D01*
X162790724Y-90313802D01*
X162796752Y-90311118D01*
X162951253Y-90198866D01*
X163079040Y-90056944D01*
X163174527Y-89891556D01*
X163233542Y-89709928D01*
X163234616Y-89699715D01*
X163252814Y-89526565D01*
X163253504Y-89520000D01*
X163233542Y-89330072D01*
X163174527Y-89148444D01*
X163079040Y-88983056D01*
X162969584Y-88861492D01*
X162955675Y-88846045D01*
X162955674Y-88846044D01*
X162951253Y-88841134D01*
X162796752Y-88728882D01*
X162790724Y-88726198D01*
X162790722Y-88726197D01*
X162628319Y-88653891D01*
X162628318Y-88653891D01*
X162622288Y-88651206D01*
X162528888Y-88631353D01*
X162441944Y-88612872D01*
X162441939Y-88612872D01*
X162435487Y-88611500D01*
X162244513Y-88611500D01*
X162238061Y-88612872D01*
X162238056Y-88612872D01*
X162151113Y-88631353D01*
X162057712Y-88651206D01*
X162051682Y-88653891D01*
X162051681Y-88653891D01*
X161889278Y-88726197D01*
X161889276Y-88726198D01*
X161883248Y-88728882D01*
X161728747Y-88841134D01*
X161724326Y-88846044D01*
X161724325Y-88846045D01*
X161710417Y-88861492D01*
X161600960Y-88983056D01*
X161505473Y-89148444D01*
X161446458Y-89330072D01*
X161426496Y-89520000D01*
X157800000Y-89520000D01*
X157800000Y-78230000D01*
X160446496Y-78230000D01*
X160466458Y-78419928D01*
X160525473Y-78601556D01*
X160620960Y-78766944D01*
X160748747Y-78908866D01*
X160903248Y-79021118D01*
X160909276Y-79023802D01*
X160909278Y-79023803D01*
X161071681Y-79096109D01*
X161077712Y-79098794D01*
X161171113Y-79118647D01*
X161258056Y-79137128D01*
X161258061Y-79137128D01*
X161264513Y-79138500D01*
X161455487Y-79138500D01*
X161461939Y-79137128D01*
X161461944Y-79137128D01*
X161548887Y-79118647D01*
X161642288Y-79098794D01*
X161648319Y-79096109D01*
X161810722Y-79023803D01*
X161810724Y-79023802D01*
X161816752Y-79021118D01*
X161971253Y-78908866D01*
X162099040Y-78766944D01*
X162194527Y-78601556D01*
X162253542Y-78419928D01*
X162273504Y-78230000D01*
X162253542Y-78040072D01*
X162194527Y-77858444D01*
X162099040Y-77693056D01*
X161971253Y-77551134D01*
X161816752Y-77438882D01*
X161810724Y-77436198D01*
X161810722Y-77436197D01*
X161648319Y-77363891D01*
X161648318Y-77363891D01*
X161642288Y-77361206D01*
X161548887Y-77341353D01*
X161461944Y-77322872D01*
X161461939Y-77322872D01*
X161455487Y-77321500D01*
X161264513Y-77321500D01*
X161258061Y-77322872D01*
X161258056Y-77322872D01*
X161171113Y-77341353D01*
X161077712Y-77361206D01*
X161071682Y-77363891D01*
X161071681Y-77363891D01*
X160909278Y-77436197D01*
X160909276Y-77436198D01*
X160903248Y-77438882D01*
X160748747Y-77551134D01*
X160620960Y-77693056D01*
X160525473Y-77858444D01*
X160466458Y-78040072D01*
X160446496Y-78230000D01*
X157800000Y-78230000D01*
X157800000Y-75093825D01*
X157820002Y-75025704D01*
X157873658Y-74979211D01*
X157899803Y-74970578D01*
X157903445Y-74969804D01*
X158002288Y-74948794D01*
X158008319Y-74946109D01*
X158170722Y-74873803D01*
X158170724Y-74873802D01*
X158176752Y-74871118D01*
X158331253Y-74758866D01*
X158459040Y-74616944D01*
X158554527Y-74451556D01*
X158613542Y-74269928D01*
X158633504Y-74080000D01*
X158613542Y-73890072D01*
X158554527Y-73708444D01*
X158459040Y-73543056D01*
X158331253Y-73401134D01*
X158176752Y-73288882D01*
X158170724Y-73286198D01*
X158170722Y-73286197D01*
X158008319Y-73213891D01*
X158008318Y-73213891D01*
X158002288Y-73211206D01*
X157899803Y-73189422D01*
X157837330Y-73155693D01*
X157803008Y-73093544D01*
X157800000Y-73066175D01*
X157800000Y-69738134D01*
X158796500Y-69738134D01*
X158803255Y-69800316D01*
X158854385Y-69936705D01*
X158941739Y-70053261D01*
X159058295Y-70140615D01*
X159194684Y-70191745D01*
X159256866Y-70198500D01*
X161053134Y-70198500D01*
X161115316Y-70191745D01*
X161251705Y-70140615D01*
X161368261Y-70053261D01*
X161455615Y-69936705D01*
X161477799Y-69877529D01*
X161499598Y-69819382D01*
X161542240Y-69762618D01*
X161608802Y-69737918D01*
X161678150Y-69753126D01*
X161712817Y-69781114D01*
X161741250Y-69813938D01*
X161913126Y-69956632D01*
X162106000Y-70069338D01*
X162314692Y-70149030D01*
X162319760Y-70150061D01*
X162319763Y-70150062D01*
X162427017Y-70171883D01*
X162533597Y-70193567D01*
X162538772Y-70193757D01*
X162538774Y-70193757D01*
X162751673Y-70201564D01*
X162751677Y-70201564D01*
X162756837Y-70201753D01*
X162761957Y-70201097D01*
X162761959Y-70201097D01*
X162973288Y-70174025D01*
X162973289Y-70174025D01*
X162978416Y-70173368D01*
X162983366Y-70171883D01*
X163187429Y-70110661D01*
X163187434Y-70110659D01*
X163192384Y-70109174D01*
X163392994Y-70010896D01*
X163574860Y-69881173D01*
X163595051Y-69861053D01*
X163718616Y-69737918D01*
X163733096Y-69723489D01*
X163863453Y-69542077D01*
X163962430Y-69341811D01*
X163969385Y-69318918D01*
X165681917Y-69318918D01*
X165682334Y-69326156D01*
X165697682Y-69592320D01*
X165750405Y-69861053D01*
X165751792Y-69865103D01*
X165751793Y-69865108D01*
X165821717Y-70069338D01*
X165839112Y-70120144D01*
X165868238Y-70178054D01*
X165937837Y-70316437D01*
X165962160Y-70364799D01*
X165964586Y-70368328D01*
X165964589Y-70368334D01*
X166114843Y-70586953D01*
X166117274Y-70590490D01*
X166301582Y-70793043D01*
X166511675Y-70968707D01*
X166515316Y-70970991D01*
X166740024Y-71111951D01*
X166740028Y-71111953D01*
X166743664Y-71114234D01*
X166811544Y-71144883D01*
X166989345Y-71225164D01*
X166989349Y-71225166D01*
X166993257Y-71226930D01*
X166997377Y-71228150D01*
X166997376Y-71228150D01*
X167251723Y-71303491D01*
X167251727Y-71303492D01*
X167255836Y-71304709D01*
X167260070Y-71305357D01*
X167260075Y-71305358D01*
X167522298Y-71345483D01*
X167522300Y-71345483D01*
X167526540Y-71346132D01*
X167665912Y-71348322D01*
X167796071Y-71350367D01*
X167796077Y-71350367D01*
X167800362Y-71350434D01*
X168072235Y-71317534D01*
X168337127Y-71248041D01*
X168341087Y-71246401D01*
X168341092Y-71246399D01*
X168463631Y-71195641D01*
X168590136Y-71143241D01*
X168826582Y-71005073D01*
X169042089Y-70836094D01*
X169083809Y-70793043D01*
X169229686Y-70642509D01*
X169232669Y-70639431D01*
X169235202Y-70635983D01*
X169235206Y-70635978D01*
X169392257Y-70422178D01*
X169394795Y-70418723D01*
X169422154Y-70368334D01*
X169523418Y-70181830D01*
X169523419Y-70181828D01*
X169525468Y-70178054D01*
X169622269Y-69921877D01*
X169668667Y-69719292D01*
X169682449Y-69659117D01*
X169682450Y-69659113D01*
X169683407Y-69654933D01*
X169691910Y-69559665D01*
X169707531Y-69384627D01*
X169707531Y-69384625D01*
X169707751Y-69382161D01*
X169708193Y-69340000D01*
X169706465Y-69314648D01*
X169689859Y-69071055D01*
X169689858Y-69071049D01*
X169689567Y-69066778D01*
X169634032Y-68798612D01*
X169542617Y-68540465D01*
X169417013Y-68297112D01*
X169407040Y-68282921D01*
X169262008Y-68076562D01*
X169259545Y-68073057D01*
X169133148Y-67937037D01*
X169076046Y-67875588D01*
X169076043Y-67875585D01*
X169073125Y-67872445D01*
X169069810Y-67869731D01*
X169069806Y-67869728D01*
X168939069Y-67762721D01*
X168861205Y-67698990D01*
X168627704Y-67555901D01*
X168623768Y-67554173D01*
X168380873Y-67447549D01*
X168380869Y-67447548D01*
X168376945Y-67445825D01*
X168113566Y-67370800D01*
X168109324Y-67370196D01*
X168109318Y-67370195D01*
X167908834Y-67341662D01*
X167842443Y-67332213D01*
X167698589Y-67331460D01*
X167572877Y-67330802D01*
X167572871Y-67330802D01*
X167568591Y-67330780D01*
X167564347Y-67331339D01*
X167564343Y-67331339D01*
X167445302Y-67347011D01*
X167297078Y-67366525D01*
X167292938Y-67367658D01*
X167292936Y-67367658D01*
X167220008Y-67387609D01*
X167032928Y-67438788D01*
X167028980Y-67440472D01*
X166784982Y-67544546D01*
X166784978Y-67544548D01*
X166781030Y-67546232D01*
X166715005Y-67585747D01*
X166549725Y-67684664D01*
X166549721Y-67684667D01*
X166546043Y-67686868D01*
X166332318Y-67858094D01*
X166315717Y-67875588D01*
X166189800Y-68008277D01*
X166143808Y-68056742D01*
X165984002Y-68279136D01*
X165855857Y-68521161D01*
X165854385Y-68525184D01*
X165854383Y-68525188D01*
X165811872Y-68641355D01*
X165761743Y-68778337D01*
X165703404Y-69045907D01*
X165681917Y-69318918D01*
X163969385Y-69318918D01*
X164027370Y-69128069D01*
X164056529Y-68906590D01*
X164058156Y-68840000D01*
X164039852Y-68617361D01*
X163985431Y-68400702D01*
X163896354Y-68195840D01*
X163808619Y-68060222D01*
X163777822Y-68012617D01*
X163777820Y-68012614D01*
X163775014Y-68008277D01*
X163624670Y-67843051D01*
X163620619Y-67839852D01*
X163620615Y-67839848D01*
X163453414Y-67707800D01*
X163453410Y-67707798D01*
X163449359Y-67704598D01*
X163422100Y-67689550D01*
X163397136Y-67675769D01*
X163253789Y-67596638D01*
X163248920Y-67594914D01*
X163248916Y-67594912D01*
X163048087Y-67523795D01*
X163048083Y-67523794D01*
X163043212Y-67522069D01*
X163038119Y-67521162D01*
X163038116Y-67521161D01*
X162828373Y-67483800D01*
X162828367Y-67483799D01*
X162823284Y-67482894D01*
X162749452Y-67481992D01*
X162605081Y-67480228D01*
X162605079Y-67480228D01*
X162599911Y-67480165D01*
X162379091Y-67513955D01*
X162166756Y-67583357D01*
X161968607Y-67686507D01*
X161964474Y-67689610D01*
X161964471Y-67689612D01*
X161794100Y-67817530D01*
X161789965Y-67820635D01*
X161733537Y-67879684D01*
X161709283Y-67905064D01*
X161647759Y-67940494D01*
X161576846Y-67937037D01*
X161519060Y-67895791D01*
X161500207Y-67862243D01*
X161458767Y-67751703D01*
X161455615Y-67743295D01*
X161368261Y-67626739D01*
X161251705Y-67539385D01*
X161115316Y-67488255D01*
X161053134Y-67481500D01*
X159256866Y-67481500D01*
X159194684Y-67488255D01*
X159058295Y-67539385D01*
X158941739Y-67626739D01*
X158854385Y-67743295D01*
X158803255Y-67879684D01*
X158796500Y-67941866D01*
X158796500Y-69738134D01*
X157800000Y-69738134D01*
X157800000Y-66974500D01*
X157820002Y-66906379D01*
X157873658Y-66859886D01*
X157926000Y-66848500D01*
X170060500Y-66848500D01*
X170128621Y-66868502D01*
G37*
%TD.AperFunction*%
%TD*%
%TA.AperFunction,Conductor*%
%TO.N,GNDD*%
G36*
X136911794Y-105440692D02*
G01*
X136970778Y-105480206D01*
X136999036Y-105545336D01*
X137000000Y-105560890D01*
X137000000Y-110840000D01*
X138422519Y-110840748D01*
X144190566Y-110843783D01*
X144258676Y-110863821D01*
X144305141Y-110917501D01*
X144316500Y-110969783D01*
X144316500Y-113521692D01*
X144296498Y-113589813D01*
X144248683Y-113633453D01*
X144223607Y-113646507D01*
X144219474Y-113649610D01*
X144219471Y-113649612D01*
X144055632Y-113772626D01*
X144044965Y-113780635D01*
X144041393Y-113784373D01*
X143894365Y-113938229D01*
X143890629Y-113942138D01*
X143783201Y-114099621D01*
X143728293Y-114144621D01*
X143657768Y-114152792D01*
X143594021Y-114121538D01*
X143573324Y-114097054D01*
X143492822Y-113972617D01*
X143492820Y-113972614D01*
X143490014Y-113968277D01*
X143339670Y-113803051D01*
X143335619Y-113799852D01*
X143335615Y-113799848D01*
X143168414Y-113667800D01*
X143168410Y-113667798D01*
X143164359Y-113664598D01*
X143159831Y-113662098D01*
X143043988Y-113598150D01*
X142968789Y-113556638D01*
X142963920Y-113554914D01*
X142963916Y-113554912D01*
X142763087Y-113483795D01*
X142763083Y-113483794D01*
X142758212Y-113482069D01*
X142753119Y-113481162D01*
X142753116Y-113481161D01*
X142543373Y-113443800D01*
X142543367Y-113443799D01*
X142538284Y-113442894D01*
X142464452Y-113441992D01*
X142320081Y-113440228D01*
X142320079Y-113440228D01*
X142314911Y-113440165D01*
X142094091Y-113473955D01*
X141881756Y-113543357D01*
X141851443Y-113559137D01*
X141707975Y-113633822D01*
X141683607Y-113646507D01*
X141679474Y-113649610D01*
X141679471Y-113649612D01*
X141515632Y-113772626D01*
X141504965Y-113780635D01*
X141501393Y-113784373D01*
X141354365Y-113938229D01*
X141350629Y-113942138D01*
X141243201Y-114099621D01*
X141188293Y-114144621D01*
X141117768Y-114152792D01*
X141054021Y-114121538D01*
X141033324Y-114097054D01*
X140952822Y-113972617D01*
X140952820Y-113972614D01*
X140950014Y-113968277D01*
X140799670Y-113803051D01*
X140795619Y-113799852D01*
X140795615Y-113799848D01*
X140628414Y-113667800D01*
X140628410Y-113667798D01*
X140624359Y-113664598D01*
X140619831Y-113662098D01*
X140503988Y-113598150D01*
X140428789Y-113556638D01*
X140423920Y-113554914D01*
X140423916Y-113554912D01*
X140223087Y-113483795D01*
X140223083Y-113483794D01*
X140218212Y-113482069D01*
X140213119Y-113481162D01*
X140213116Y-113481161D01*
X140003373Y-113443800D01*
X140003367Y-113443799D01*
X139998284Y-113442894D01*
X139924452Y-113441992D01*
X139780081Y-113440228D01*
X139780079Y-113440228D01*
X139774911Y-113440165D01*
X139554091Y-113473955D01*
X139341756Y-113543357D01*
X139311443Y-113559137D01*
X139167975Y-113633822D01*
X139143607Y-113646507D01*
X139139474Y-113649610D01*
X139139471Y-113649612D01*
X138975632Y-113772626D01*
X138964965Y-113780635D01*
X138961393Y-113784373D01*
X138814365Y-113938229D01*
X138810629Y-113942138D01*
X138703201Y-114099621D01*
X138648293Y-114144621D01*
X138577768Y-114152792D01*
X138514021Y-114121538D01*
X138493324Y-114097054D01*
X138412822Y-113972617D01*
X138412820Y-113972614D01*
X138410014Y-113968277D01*
X138259670Y-113803051D01*
X138255619Y-113799852D01*
X138255615Y-113799848D01*
X138088414Y-113667800D01*
X138088410Y-113667798D01*
X138084359Y-113664598D01*
X138079831Y-113662098D01*
X137963988Y-113598150D01*
X137888789Y-113556638D01*
X137883920Y-113554914D01*
X137883916Y-113554912D01*
X137683087Y-113483795D01*
X137683083Y-113483794D01*
X137678212Y-113482069D01*
X137673119Y-113481162D01*
X137673116Y-113481161D01*
X137463373Y-113443800D01*
X137463367Y-113443799D01*
X137458284Y-113442894D01*
X137384452Y-113441992D01*
X137240081Y-113440228D01*
X137240079Y-113440228D01*
X137234911Y-113440165D01*
X137014091Y-113473955D01*
X136801756Y-113543357D01*
X136771443Y-113559137D01*
X136627975Y-113633822D01*
X136603607Y-113646507D01*
X136599474Y-113649610D01*
X136599471Y-113649612D01*
X136435632Y-113772626D01*
X136424965Y-113780635D01*
X136421393Y-113784373D01*
X136274365Y-113938229D01*
X136270629Y-113942138D01*
X136163201Y-114099621D01*
X136108293Y-114144621D01*
X136037768Y-114152792D01*
X135974021Y-114121538D01*
X135953324Y-114097054D01*
X135872822Y-113972617D01*
X135872820Y-113972614D01*
X135870014Y-113968277D01*
X135719670Y-113803051D01*
X135715619Y-113799852D01*
X135715615Y-113799848D01*
X135548414Y-113667800D01*
X135548410Y-113667798D01*
X135544359Y-113664598D01*
X135539831Y-113662098D01*
X135423988Y-113598150D01*
X135348789Y-113556638D01*
X135343920Y-113554914D01*
X135343916Y-113554912D01*
X135143087Y-113483795D01*
X135143083Y-113483794D01*
X135138212Y-113482069D01*
X135133119Y-113481162D01*
X135133116Y-113481161D01*
X134923373Y-113443800D01*
X134923367Y-113443799D01*
X134918284Y-113442894D01*
X134844452Y-113441992D01*
X134700081Y-113440228D01*
X134700079Y-113440228D01*
X134694911Y-113440165D01*
X134474091Y-113473955D01*
X134261756Y-113543357D01*
X134231443Y-113559137D01*
X134087975Y-113633822D01*
X134063607Y-113646507D01*
X134059474Y-113649610D01*
X134059471Y-113649612D01*
X133895632Y-113772626D01*
X133884965Y-113780635D01*
X133881393Y-113784373D01*
X133734365Y-113938229D01*
X133730629Y-113942138D01*
X133727720Y-113946403D01*
X133727714Y-113946411D01*
X133700912Y-113985702D01*
X133604743Y-114126680D01*
X133510688Y-114329305D01*
X133450989Y-114544570D01*
X133427251Y-114766695D01*
X133427548Y-114771848D01*
X133427548Y-114771851D01*
X133433011Y-114866590D01*
X133440110Y-114989715D01*
X133441247Y-114994761D01*
X133441248Y-114994767D01*
X133461119Y-115082939D01*
X133489222Y-115207639D01*
X133573266Y-115414616D01*
X133624019Y-115497438D01*
X133687291Y-115600688D01*
X133689987Y-115605088D01*
X133836250Y-115773938D01*
X133906772Y-115832486D01*
X133946408Y-115891389D01*
X133947906Y-115962370D01*
X133910792Y-116022893D01*
X133879739Y-116043532D01*
X133860040Y-116052760D01*
X133722193Y-116138063D01*
X133710792Y-116147099D01*
X133596261Y-116261829D01*
X133587249Y-116273240D01*
X133502184Y-116411243D01*
X133496037Y-116424424D01*
X133444862Y-116578710D01*
X133441995Y-116592086D01*
X133432328Y-116686438D01*
X133432000Y-116692855D01*
X133432000Y-117067885D01*
X133436475Y-117083124D01*
X133437865Y-117084329D01*
X133445548Y-117086000D01*
X134918000Y-117086000D01*
X134986121Y-117106002D01*
X135032614Y-117159658D01*
X135044000Y-117212000D01*
X135044000Y-118679884D01*
X135048475Y-118695123D01*
X135049865Y-118696328D01*
X135057548Y-118697999D01*
X135437095Y-118697999D01*
X135443614Y-118697662D01*
X135539206Y-118687743D01*
X135552600Y-118684851D01*
X135706784Y-118633412D01*
X135719962Y-118627239D01*
X135857807Y-118541937D01*
X135869208Y-118532901D01*
X135983739Y-118418171D01*
X135992751Y-118406760D01*
X136077818Y-118268755D01*
X136086400Y-118250350D01*
X136133316Y-118197065D01*
X136201593Y-118177603D01*
X136269554Y-118198144D01*
X136295832Y-118221101D01*
X136319630Y-118248574D01*
X136372866Y-118310032D01*
X136372869Y-118310035D01*
X136376250Y-118313938D01*
X136548126Y-118456632D01*
X136741000Y-118569338D01*
X136949692Y-118649030D01*
X136954760Y-118650061D01*
X136954763Y-118650062D01*
X137059604Y-118671392D01*
X137168597Y-118693567D01*
X137173772Y-118693757D01*
X137173774Y-118693757D01*
X137386673Y-118701564D01*
X137386677Y-118701564D01*
X137391837Y-118701753D01*
X137396957Y-118701097D01*
X137396959Y-118701097D01*
X137608288Y-118674025D01*
X137608289Y-118674025D01*
X137613416Y-118673368D01*
X137618366Y-118671883D01*
X137822429Y-118610661D01*
X137822434Y-118610659D01*
X137827384Y-118609174D01*
X138027994Y-118510896D01*
X138209860Y-118381173D01*
X138226292Y-118364799D01*
X138321460Y-118269962D01*
X138368096Y-118223489D01*
X138387084Y-118197065D01*
X138498453Y-118042077D01*
X138499776Y-118043028D01*
X138546645Y-117999857D01*
X138616580Y-117987625D01*
X138682026Y-118015144D01*
X138709875Y-118046994D01*
X138769987Y-118145088D01*
X138916250Y-118313938D01*
X139088126Y-118456632D01*
X139281000Y-118569338D01*
X139489692Y-118649030D01*
X139494760Y-118650061D01*
X139494763Y-118650062D01*
X139599604Y-118671392D01*
X139708597Y-118693567D01*
X139713772Y-118693757D01*
X139713774Y-118693757D01*
X139926673Y-118701564D01*
X139926677Y-118701564D01*
X139931837Y-118701753D01*
X139936957Y-118701097D01*
X139936959Y-118701097D01*
X140148288Y-118674025D01*
X140148289Y-118674025D01*
X140153416Y-118673368D01*
X140158366Y-118671883D01*
X140362429Y-118610661D01*
X140362434Y-118610659D01*
X140367384Y-118609174D01*
X140567994Y-118510896D01*
X140749860Y-118381173D01*
X140766292Y-118364799D01*
X140861460Y-118269962D01*
X140908096Y-118223489D01*
X140927084Y-118197065D01*
X141038453Y-118042077D01*
X141039776Y-118043028D01*
X141086645Y-117999857D01*
X141156580Y-117987625D01*
X141222026Y-118015144D01*
X141249875Y-118046994D01*
X141309987Y-118145088D01*
X141456250Y-118313938D01*
X141628126Y-118456632D01*
X141821000Y-118569338D01*
X142029692Y-118649030D01*
X142034760Y-118650061D01*
X142034763Y-118650062D01*
X142139604Y-118671392D01*
X142248597Y-118693567D01*
X142253772Y-118693757D01*
X142253774Y-118693757D01*
X142466673Y-118701564D01*
X142466677Y-118701564D01*
X142471837Y-118701753D01*
X142476957Y-118701097D01*
X142476959Y-118701097D01*
X142688288Y-118674025D01*
X142688289Y-118674025D01*
X142693416Y-118673368D01*
X142698366Y-118671883D01*
X142902429Y-118610661D01*
X142902434Y-118610659D01*
X142907384Y-118609174D01*
X143107994Y-118510896D01*
X143289860Y-118381173D01*
X143306292Y-118364799D01*
X143401460Y-118269962D01*
X143448096Y-118223489D01*
X143467084Y-118197065D01*
X143578453Y-118042077D01*
X143579776Y-118043028D01*
X143626645Y-117999857D01*
X143696580Y-117987625D01*
X143762026Y-118015144D01*
X143789875Y-118046994D01*
X143849987Y-118145088D01*
X143996250Y-118313938D01*
X144168126Y-118456632D01*
X144361000Y-118569338D01*
X144569692Y-118649030D01*
X144574760Y-118650061D01*
X144574763Y-118650062D01*
X144679604Y-118671392D01*
X144788597Y-118693567D01*
X144793772Y-118693757D01*
X144793774Y-118693757D01*
X145006673Y-118701564D01*
X145006677Y-118701564D01*
X145011837Y-118701753D01*
X145016957Y-118701097D01*
X145016959Y-118701097D01*
X145228288Y-118674025D01*
X145228289Y-118674025D01*
X145233416Y-118673368D01*
X145238366Y-118671883D01*
X145442429Y-118610661D01*
X145442434Y-118610659D01*
X145447384Y-118609174D01*
X145647994Y-118510896D01*
X145829860Y-118381173D01*
X145846292Y-118364799D01*
X145941460Y-118269962D01*
X145988096Y-118223489D01*
X146007084Y-118197065D01*
X146118453Y-118042077D01*
X146119776Y-118043028D01*
X146166645Y-117999857D01*
X146236580Y-117987625D01*
X146302026Y-118015144D01*
X146329875Y-118046994D01*
X146389987Y-118145088D01*
X146536250Y-118313938D01*
X146708126Y-118456632D01*
X146901000Y-118569338D01*
X147109692Y-118649030D01*
X147114760Y-118650061D01*
X147114763Y-118650062D01*
X147219604Y-118671392D01*
X147328597Y-118693567D01*
X147333772Y-118693757D01*
X147333774Y-118693757D01*
X147546673Y-118701564D01*
X147546677Y-118701564D01*
X147551837Y-118701753D01*
X147556957Y-118701097D01*
X147556959Y-118701097D01*
X147768288Y-118674025D01*
X147768289Y-118674025D01*
X147773416Y-118673368D01*
X147778366Y-118671883D01*
X147982429Y-118610661D01*
X147982434Y-118610659D01*
X147987384Y-118609174D01*
X148187994Y-118510896D01*
X148252544Y-118464853D01*
X149269977Y-118464853D01*
X149275258Y-118471907D01*
X149436756Y-118566279D01*
X149446042Y-118570729D01*
X149645001Y-118646703D01*
X149654899Y-118649579D01*
X149863595Y-118692038D01*
X149873823Y-118693257D01*
X150086650Y-118701062D01*
X150096936Y-118700595D01*
X150308185Y-118673534D01*
X150318262Y-118671392D01*
X150522255Y-118610191D01*
X150531842Y-118606433D01*
X150723098Y-118512738D01*
X150731944Y-118507465D01*
X150779247Y-118473723D01*
X150787648Y-118463023D01*
X150780660Y-118449870D01*
X150042812Y-117712022D01*
X150028868Y-117704408D01*
X150027035Y-117704539D01*
X150020420Y-117708790D01*
X149276737Y-118452473D01*
X149269977Y-118464853D01*
X148252544Y-118464853D01*
X148369860Y-118381173D01*
X148386292Y-118364799D01*
X148481460Y-118269962D01*
X148528096Y-118223489D01*
X148547084Y-118197065D01*
X148658453Y-118042077D01*
X148659640Y-118042930D01*
X148706960Y-117999362D01*
X148776897Y-117987145D01*
X148842338Y-118014678D01*
X148870166Y-118046512D01*
X148896459Y-118089419D01*
X148906916Y-118098880D01*
X148915694Y-118095096D01*
X149657978Y-117352812D01*
X149665592Y-117338868D01*
X149665461Y-117337035D01*
X149661210Y-117330420D01*
X148919849Y-116589059D01*
X148908313Y-116582759D01*
X148896031Y-116592382D01*
X148863499Y-116640072D01*
X148808587Y-116685075D01*
X148738063Y-116693246D01*
X148674316Y-116661992D01*
X148653618Y-116637508D01*
X148572822Y-116512617D01*
X148572820Y-116512614D01*
X148570014Y-116508277D01*
X148419670Y-116343051D01*
X148415619Y-116339852D01*
X148415615Y-116339848D01*
X148248414Y-116207800D01*
X148248410Y-116207798D01*
X148244359Y-116204598D01*
X148203053Y-116181796D01*
X148153084Y-116131364D01*
X148138312Y-116061921D01*
X148163428Y-115995516D01*
X148190780Y-115968909D01*
X148244866Y-115930330D01*
X148369860Y-115841173D01*
X148378578Y-115832486D01*
X148512541Y-115698990D01*
X148528096Y-115683489D01*
X148587594Y-115600689D01*
X148658453Y-115502077D01*
X148659776Y-115503028D01*
X148706645Y-115459857D01*
X148776580Y-115447625D01*
X148842026Y-115475144D01*
X148869875Y-115506994D01*
X148929987Y-115605088D01*
X149076250Y-115773938D01*
X149248126Y-115916632D01*
X149321445Y-115959476D01*
X149321955Y-115959774D01*
X149370679Y-116011412D01*
X149383750Y-116081195D01*
X149357019Y-116146967D01*
X149316562Y-116180327D01*
X149308460Y-116184544D01*
X149299734Y-116190039D01*
X149279677Y-116205099D01*
X149271223Y-116216427D01*
X149277968Y-116228758D01*
X150017188Y-116967978D01*
X150031132Y-116975592D01*
X150032965Y-116975461D01*
X150039580Y-116971210D01*
X150783389Y-116227401D01*
X150790410Y-116214544D01*
X150783611Y-116205213D01*
X150779559Y-116202521D01*
X150742602Y-116182120D01*
X150692631Y-116131687D01*
X150677859Y-116062245D01*
X150702975Y-115995839D01*
X150730327Y-115969232D01*
X150784866Y-115930330D01*
X150909860Y-115841173D01*
X150918578Y-115832486D01*
X151052541Y-115698990D01*
X151068096Y-115683489D01*
X151127594Y-115600689D01*
X151198453Y-115502077D01*
X151199776Y-115503028D01*
X151246645Y-115459857D01*
X151316580Y-115447625D01*
X151382026Y-115475144D01*
X151409875Y-115506994D01*
X151469987Y-115605088D01*
X151473367Y-115608990D01*
X151612866Y-115770032D01*
X151612869Y-115770035D01*
X151616250Y-115773938D01*
X151620224Y-115777237D01*
X151623658Y-115780600D01*
X151658334Y-115842553D01*
X151661500Y-115870623D01*
X151661500Y-116273737D01*
X151641498Y-116341858D01*
X151626594Y-116360788D01*
X151510629Y-116482138D01*
X151403204Y-116639618D01*
X151402898Y-116640066D01*
X151347987Y-116685069D01*
X151277462Y-116693240D01*
X151213715Y-116661986D01*
X151193017Y-116637501D01*
X151163062Y-116591197D01*
X151152377Y-116581995D01*
X151142812Y-116586398D01*
X150402022Y-117327188D01*
X150394408Y-117341132D01*
X150394539Y-117342965D01*
X150398790Y-117349580D01*
X151140474Y-118091264D01*
X151152484Y-118097823D01*
X151164223Y-118088855D01*
X151198022Y-118041819D01*
X151199277Y-118042721D01*
X151246391Y-117999355D01*
X151316330Y-117987148D01*
X151381767Y-118014691D01*
X151409580Y-118046513D01*
X151467287Y-118140683D01*
X151467291Y-118140688D01*
X151469987Y-118145088D01*
X151616250Y-118313938D01*
X151788126Y-118456632D01*
X151981000Y-118569338D01*
X152189692Y-118649030D01*
X152194760Y-118650061D01*
X152194763Y-118650062D01*
X152299604Y-118671392D01*
X152408597Y-118693567D01*
X152413772Y-118693757D01*
X152413774Y-118693757D01*
X152626673Y-118701564D01*
X152626677Y-118701564D01*
X152631837Y-118701753D01*
X152636957Y-118701097D01*
X152636959Y-118701097D01*
X152848288Y-118674025D01*
X152848289Y-118674025D01*
X152853416Y-118673368D01*
X152858366Y-118671883D01*
X153062429Y-118610661D01*
X153062434Y-118610659D01*
X153067384Y-118609174D01*
X153267994Y-118510896D01*
X153449860Y-118381173D01*
X153466292Y-118364799D01*
X153561460Y-118269962D01*
X153608096Y-118223489D01*
X153627084Y-118197065D01*
X153735435Y-118046277D01*
X153738453Y-118042077D01*
X153743862Y-118031134D01*
X153835136Y-117846453D01*
X153835137Y-117846451D01*
X153837430Y-117841811D01*
X153902370Y-117628069D01*
X153931529Y-117406590D01*
X153932126Y-117382161D01*
X153933074Y-117343365D01*
X153933074Y-117343361D01*
X153933156Y-117340000D01*
X153914852Y-117117361D01*
X153860431Y-116900702D01*
X153771354Y-116695840D01*
X153704424Y-116592382D01*
X153652822Y-116512617D01*
X153652820Y-116512614D01*
X153650014Y-116508277D01*
X153646532Y-116504450D01*
X153511307Y-116355839D01*
X153480255Y-116291993D01*
X153478500Y-116271039D01*
X153478500Y-115864953D01*
X153498502Y-115796832D01*
X153515560Y-115775702D01*
X153594788Y-115696751D01*
X153608096Y-115683489D01*
X153667594Y-115600689D01*
X153735435Y-115506277D01*
X153738453Y-115502077D01*
X153759320Y-115459857D01*
X153835136Y-115306453D01*
X153835137Y-115306451D01*
X153837430Y-115301811D01*
X153902370Y-115088069D01*
X153931529Y-114866590D01*
X153933156Y-114800000D01*
X153914852Y-114577361D01*
X153860431Y-114360702D01*
X153771354Y-114155840D01*
X153660224Y-113984059D01*
X153652822Y-113972617D01*
X153652820Y-113972614D01*
X153650014Y-113968277D01*
X153499670Y-113803051D01*
X153495619Y-113799852D01*
X153495615Y-113799848D01*
X153328414Y-113667800D01*
X153328410Y-113667798D01*
X153324359Y-113664598D01*
X153319831Y-113662098D01*
X153203988Y-113598150D01*
X153128789Y-113556638D01*
X153123920Y-113554914D01*
X153123916Y-113554912D01*
X152923087Y-113483795D01*
X152923083Y-113483794D01*
X152918212Y-113482069D01*
X152913119Y-113481162D01*
X152913116Y-113481161D01*
X152703373Y-113443800D01*
X152703367Y-113443799D01*
X152698284Y-113442894D01*
X152624452Y-113441992D01*
X152480081Y-113440228D01*
X152480079Y-113440228D01*
X152474911Y-113440165D01*
X152254091Y-113473955D01*
X152041756Y-113543357D01*
X152011443Y-113559137D01*
X151867975Y-113633822D01*
X151843607Y-113646507D01*
X151839474Y-113649610D01*
X151839471Y-113649612D01*
X151675632Y-113772626D01*
X151664965Y-113780635D01*
X151661393Y-113784373D01*
X151514365Y-113938229D01*
X151510629Y-113942138D01*
X151403201Y-114099621D01*
X151348293Y-114144621D01*
X151277768Y-114152792D01*
X151214021Y-114121538D01*
X151193324Y-114097054D01*
X151112822Y-113972617D01*
X151112820Y-113972614D01*
X151110014Y-113968277D01*
X150959670Y-113803051D01*
X150955619Y-113799852D01*
X150955615Y-113799848D01*
X150788414Y-113667800D01*
X150788410Y-113667798D01*
X150784359Y-113664598D01*
X150779831Y-113662098D01*
X150663988Y-113598150D01*
X150588789Y-113556638D01*
X150583920Y-113554914D01*
X150583916Y-113554912D01*
X150383087Y-113483795D01*
X150383083Y-113483794D01*
X150378212Y-113482069D01*
X150373119Y-113481162D01*
X150373116Y-113481161D01*
X150163373Y-113443800D01*
X150163367Y-113443799D01*
X150158284Y-113442894D01*
X150084452Y-113441992D01*
X149940081Y-113440228D01*
X149940079Y-113440228D01*
X149934911Y-113440165D01*
X149714091Y-113473955D01*
X149501756Y-113543357D01*
X149471443Y-113559137D01*
X149327975Y-113633822D01*
X149303607Y-113646507D01*
X149299474Y-113649610D01*
X149299471Y-113649612D01*
X149135632Y-113772626D01*
X149124965Y-113780635D01*
X149121393Y-113784373D01*
X148974365Y-113938229D01*
X148970629Y-113942138D01*
X148863201Y-114099621D01*
X148808293Y-114144621D01*
X148737768Y-114152792D01*
X148674021Y-114121538D01*
X148653324Y-114097054D01*
X148572822Y-113972617D01*
X148572820Y-113972614D01*
X148570014Y-113968277D01*
X148419670Y-113803051D01*
X148415619Y-113799852D01*
X148415615Y-113799848D01*
X148248414Y-113667800D01*
X148248410Y-113667798D01*
X148244359Y-113664598D01*
X148239831Y-113662098D01*
X148123988Y-113598150D01*
X148048789Y-113556638D01*
X148043920Y-113554914D01*
X148043916Y-113554912D01*
X147843087Y-113483795D01*
X147843083Y-113483794D01*
X147838212Y-113482069D01*
X147833119Y-113481162D01*
X147833116Y-113481161D01*
X147623373Y-113443800D01*
X147623367Y-113443799D01*
X147618284Y-113442894D01*
X147544452Y-113441992D01*
X147400081Y-113440228D01*
X147400079Y-113440228D01*
X147394911Y-113440165D01*
X147174091Y-113473955D01*
X146961756Y-113543357D01*
X146931443Y-113559137D01*
X146787975Y-113633822D01*
X146763607Y-113646507D01*
X146759474Y-113649610D01*
X146759471Y-113649612D01*
X146595632Y-113772626D01*
X146584965Y-113780635D01*
X146581393Y-113784373D01*
X146434365Y-113938229D01*
X146430629Y-113942138D01*
X146323201Y-114099621D01*
X146268293Y-114144621D01*
X146197768Y-114152792D01*
X146134021Y-114121538D01*
X146113324Y-114097054D01*
X146032822Y-113972617D01*
X146032820Y-113972614D01*
X146030014Y-113968277D01*
X145879670Y-113803051D01*
X145875619Y-113799852D01*
X145875615Y-113799848D01*
X145708414Y-113667800D01*
X145708410Y-113667798D01*
X145704359Y-113664598D01*
X145699835Y-113662101D01*
X145699831Y-113662098D01*
X145648608Y-113633822D01*
X145598636Y-113583390D01*
X145583500Y-113523513D01*
X145583500Y-110970581D01*
X145603502Y-110902460D01*
X145657158Y-110855967D01*
X145709563Y-110844582D01*
X152257127Y-110848026D01*
X155883933Y-110849934D01*
X155952044Y-110869972D01*
X155998508Y-110923652D01*
X156009867Y-110976067D01*
X156008094Y-112658700D01*
X156001525Y-118893365D01*
X156001475Y-118940633D01*
X155981401Y-119008732D01*
X155927696Y-119055169D01*
X155875475Y-119066500D01*
X124354595Y-119066500D01*
X124286474Y-119046498D01*
X124265500Y-119029595D01*
X123997122Y-118761217D01*
X123963096Y-118698905D01*
X123960907Y-118685292D01*
X123944232Y-118526635D01*
X123944232Y-118526633D01*
X123943542Y-118520072D01*
X123884527Y-118338444D01*
X123870379Y-118313938D01*
X123820264Y-118227137D01*
X123789040Y-118173056D01*
X123675534Y-118046994D01*
X123665675Y-118036045D01*
X123665674Y-118036044D01*
X123661253Y-118031134D01*
X123600639Y-117987095D01*
X133432001Y-117987095D01*
X133432338Y-117993614D01*
X133442257Y-118089206D01*
X133445149Y-118102600D01*
X133496588Y-118256784D01*
X133502761Y-118269962D01*
X133588063Y-118407807D01*
X133597099Y-118419208D01*
X133711829Y-118533739D01*
X133723240Y-118542751D01*
X133861243Y-118627816D01*
X133874424Y-118633963D01*
X134028710Y-118685138D01*
X134042086Y-118688005D01*
X134136438Y-118697672D01*
X134142854Y-118698000D01*
X134517885Y-118698000D01*
X134533124Y-118693525D01*
X134534329Y-118692135D01*
X134536000Y-118684452D01*
X134536000Y-117612115D01*
X134531525Y-117596876D01*
X134530135Y-117595671D01*
X134522452Y-117594000D01*
X133450116Y-117594000D01*
X133434877Y-117598475D01*
X133433672Y-117599865D01*
X133432001Y-117607548D01*
X133432001Y-117987095D01*
X123600639Y-117987095D01*
X123506752Y-117918882D01*
X123500724Y-117916198D01*
X123500722Y-117916197D01*
X123338319Y-117843891D01*
X123338318Y-117843891D01*
X123332288Y-117841206D01*
X123238888Y-117821353D01*
X123151944Y-117802872D01*
X123151939Y-117802872D01*
X123145487Y-117801500D01*
X122954513Y-117801500D01*
X122948061Y-117802872D01*
X122948056Y-117802872D01*
X122861112Y-117821353D01*
X122767712Y-117841206D01*
X122761682Y-117843891D01*
X122761681Y-117843891D01*
X122599278Y-117916197D01*
X122599276Y-117916198D01*
X122593248Y-117918882D01*
X122438747Y-118031134D01*
X122434326Y-118036044D01*
X122434325Y-118036045D01*
X122424467Y-118046994D01*
X122310960Y-118173056D01*
X122279736Y-118227137D01*
X122229622Y-118313938D01*
X122215473Y-118338444D01*
X122156458Y-118520072D01*
X122155768Y-118526633D01*
X122155768Y-118526635D01*
X122143149Y-118646703D01*
X122136496Y-118710000D01*
X122156458Y-118899928D01*
X122215473Y-119081556D01*
X122218776Y-119087278D01*
X122218777Y-119087279D01*
X122234340Y-119114234D01*
X122310960Y-119246944D01*
X122315378Y-119251851D01*
X122315379Y-119251852D01*
X122403678Y-119349918D01*
X122438747Y-119388866D01*
X122593248Y-119501118D01*
X122599276Y-119503802D01*
X122599278Y-119503803D01*
X122761681Y-119576109D01*
X122767712Y-119578794D01*
X122774173Y-119580167D01*
X122774178Y-119580169D01*
X122783985Y-119582254D01*
X122846459Y-119615982D01*
X122880780Y-119678132D01*
X122876052Y-119748971D01*
X122833776Y-119806008D01*
X122767374Y-119831135D01*
X122757788Y-119831500D01*
X117329500Y-119831500D01*
X117261379Y-119811498D01*
X117214886Y-119757842D01*
X117203500Y-119705500D01*
X117203500Y-117318918D01*
X117681917Y-117318918D01*
X117682334Y-117326156D01*
X117697682Y-117592320D01*
X117750405Y-117861053D01*
X117751792Y-117865103D01*
X117751793Y-117865108D01*
X117833105Y-118102600D01*
X117839112Y-118120144D01*
X117868011Y-118177603D01*
X117946027Y-118332721D01*
X117962160Y-118364799D01*
X117964586Y-118368328D01*
X117964589Y-118368334D01*
X118104003Y-118571181D01*
X118117274Y-118590490D01*
X118120161Y-118593663D01*
X118120162Y-118593664D01*
X118215099Y-118697999D01*
X118301582Y-118793043D01*
X118511675Y-118968707D01*
X118515316Y-118970991D01*
X118740024Y-119111951D01*
X118740028Y-119111953D01*
X118743664Y-119114234D01*
X118811544Y-119144883D01*
X118989345Y-119225164D01*
X118989349Y-119225166D01*
X118993257Y-119226930D01*
X118997377Y-119228150D01*
X118997376Y-119228150D01*
X119251723Y-119303491D01*
X119251727Y-119303492D01*
X119255836Y-119304709D01*
X119260070Y-119305357D01*
X119260075Y-119305358D01*
X119522298Y-119345483D01*
X119522300Y-119345483D01*
X119526540Y-119346132D01*
X119665912Y-119348322D01*
X119796071Y-119350367D01*
X119796077Y-119350367D01*
X119800362Y-119350434D01*
X120072235Y-119317534D01*
X120337127Y-119248041D01*
X120341087Y-119246401D01*
X120341092Y-119246399D01*
X120493150Y-119183414D01*
X120590136Y-119143241D01*
X120784618Y-119029595D01*
X120822879Y-119007237D01*
X120822880Y-119007236D01*
X120826582Y-119005073D01*
X121042089Y-118836094D01*
X121083809Y-118793043D01*
X121180508Y-118693257D01*
X121232669Y-118639431D01*
X121235202Y-118635983D01*
X121235206Y-118635978D01*
X121392257Y-118422178D01*
X121394795Y-118418723D01*
X121400722Y-118407807D01*
X121523418Y-118181830D01*
X121523419Y-118181828D01*
X121525468Y-118178054D01*
X121622269Y-117921877D01*
X121671072Y-117708790D01*
X121682449Y-117659117D01*
X121682450Y-117659113D01*
X121683407Y-117654933D01*
X121685363Y-117633023D01*
X121707531Y-117384627D01*
X121707531Y-117384625D01*
X121707751Y-117382161D01*
X121708193Y-117340000D01*
X121695899Y-117159658D01*
X121689859Y-117071055D01*
X121689858Y-117071049D01*
X121689567Y-117066778D01*
X121634032Y-116798612D01*
X121542617Y-116540465D01*
X121432095Y-116326332D01*
X121418978Y-116300919D01*
X121418978Y-116300918D01*
X121417013Y-116297112D01*
X121413416Y-116291993D01*
X121262008Y-116076562D01*
X121259545Y-116073057D01*
X121126915Y-115930330D01*
X121076046Y-115875588D01*
X121076043Y-115875585D01*
X121073125Y-115872445D01*
X121069810Y-115869731D01*
X121069806Y-115869728D01*
X120864523Y-115701706D01*
X120861205Y-115698990D01*
X120627704Y-115555901D01*
X120623768Y-115554173D01*
X120380873Y-115447549D01*
X120380869Y-115447548D01*
X120376945Y-115445825D01*
X120113566Y-115370800D01*
X120109324Y-115370196D01*
X120109318Y-115370195D01*
X119908834Y-115341662D01*
X119842443Y-115332213D01*
X119698589Y-115331460D01*
X119572877Y-115330802D01*
X119572871Y-115330802D01*
X119568591Y-115330780D01*
X119564347Y-115331339D01*
X119564343Y-115331339D01*
X119445302Y-115347011D01*
X119297078Y-115366525D01*
X119292938Y-115367658D01*
X119292936Y-115367658D01*
X119220008Y-115387609D01*
X119032928Y-115438788D01*
X119028980Y-115440472D01*
X118784982Y-115544546D01*
X118784978Y-115544548D01*
X118781030Y-115546232D01*
X118682688Y-115605088D01*
X118549725Y-115684664D01*
X118549721Y-115684667D01*
X118546043Y-115686868D01*
X118332318Y-115858094D01*
X118274291Y-115919242D01*
X118147587Y-116052760D01*
X118143808Y-116056742D01*
X117984002Y-116279136D01*
X117855857Y-116521161D01*
X117854385Y-116525184D01*
X117854383Y-116525188D01*
X117763214Y-116774317D01*
X117761743Y-116778337D01*
X117703404Y-117045907D01*
X117681917Y-117318918D01*
X117203500Y-117318918D01*
X117203500Y-109396558D01*
X117223502Y-109328437D01*
X117277158Y-109281944D01*
X117329612Y-109270558D01*
X120176375Y-109273079D01*
X125600614Y-109277884D01*
X125668715Y-109297945D01*
X125715160Y-109351642D01*
X125726500Y-109403883D01*
X125726500Y-112385405D01*
X125706498Y-112453526D01*
X125689595Y-112474501D01*
X125484499Y-112679596D01*
X125422187Y-112713621D01*
X125395404Y-112716500D01*
X124354595Y-112716500D01*
X124286474Y-112696498D01*
X124265500Y-112679595D01*
X123888516Y-112302611D01*
X123854490Y-112240299D01*
X123859555Y-112169484D01*
X123883975Y-112129206D01*
X123944621Y-112061852D01*
X123944625Y-112061847D01*
X123949040Y-112056944D01*
X124044527Y-111891556D01*
X124103542Y-111709928D01*
X124123504Y-111520000D01*
X124103542Y-111330072D01*
X124044527Y-111148444D01*
X123949040Y-110983056D01*
X123937808Y-110970581D01*
X123825675Y-110846045D01*
X123825674Y-110846044D01*
X123821253Y-110841134D01*
X123666752Y-110728882D01*
X123660724Y-110726198D01*
X123660722Y-110726197D01*
X123498319Y-110653891D01*
X123498318Y-110653891D01*
X123492288Y-110651206D01*
X123398888Y-110631353D01*
X123311944Y-110612872D01*
X123311939Y-110612872D01*
X123305487Y-110611500D01*
X123114513Y-110611500D01*
X123108061Y-110612872D01*
X123108056Y-110612872D01*
X123021112Y-110631353D01*
X122927712Y-110651206D01*
X122921682Y-110653891D01*
X122921681Y-110653891D01*
X122759278Y-110726197D01*
X122759276Y-110726198D01*
X122753248Y-110728882D01*
X122598747Y-110841134D01*
X122594326Y-110846044D01*
X122594325Y-110846045D01*
X122482193Y-110970581D01*
X122470960Y-110983056D01*
X122375473Y-111148444D01*
X122316458Y-111330072D01*
X122296496Y-111520000D01*
X122316458Y-111709928D01*
X122375473Y-111891556D01*
X122470960Y-112056944D01*
X122544137Y-112138215D01*
X122574853Y-112202221D01*
X122576500Y-112222524D01*
X122576500Y-112441233D01*
X122575973Y-112452416D01*
X122574298Y-112459909D01*
X122574547Y-112467835D01*
X122574547Y-112467836D01*
X122576438Y-112527986D01*
X122576500Y-112531945D01*
X122576500Y-112559856D01*
X122576997Y-112563790D01*
X122576997Y-112563791D01*
X122577005Y-112563856D01*
X122577938Y-112575693D01*
X122579327Y-112619889D01*
X122584978Y-112639339D01*
X122588987Y-112658700D01*
X122591526Y-112678797D01*
X122594445Y-112686168D01*
X122594445Y-112686170D01*
X122607804Y-112719912D01*
X122611649Y-112731142D01*
X122619968Y-112759776D01*
X122623982Y-112773593D01*
X122628015Y-112780412D01*
X122628017Y-112780417D01*
X122634293Y-112791028D01*
X122642988Y-112808776D01*
X122650448Y-112827617D01*
X122655110Y-112834033D01*
X122655110Y-112834034D01*
X122676436Y-112863387D01*
X122682952Y-112873307D01*
X122705458Y-112911362D01*
X122719779Y-112925683D01*
X122732619Y-112940716D01*
X122744528Y-112957107D01*
X122750634Y-112962158D01*
X122778605Y-112985298D01*
X122787384Y-112993288D01*
X123536343Y-113742247D01*
X123543887Y-113750537D01*
X123548000Y-113757018D01*
X123553777Y-113762443D01*
X123597667Y-113803658D01*
X123600509Y-113806413D01*
X123620230Y-113826134D01*
X123623425Y-113828612D01*
X123632447Y-113836318D01*
X123664679Y-113866586D01*
X123671628Y-113870406D01*
X123682432Y-113876346D01*
X123698956Y-113887199D01*
X123714959Y-113899613D01*
X123755543Y-113917176D01*
X123766173Y-113922383D01*
X123804940Y-113943695D01*
X123812617Y-113945666D01*
X123812622Y-113945668D01*
X123824558Y-113948732D01*
X123843266Y-113955137D01*
X123861855Y-113963181D01*
X123869683Y-113964421D01*
X123869690Y-113964423D01*
X123905524Y-113970099D01*
X123917144Y-113972505D01*
X123948959Y-113980673D01*
X123959970Y-113983500D01*
X123980224Y-113983500D01*
X123999934Y-113985051D01*
X124019943Y-113988220D01*
X124027835Y-113987474D01*
X124046580Y-113985702D01*
X124063962Y-113984059D01*
X124075819Y-113983500D01*
X125631233Y-113983500D01*
X125642416Y-113984027D01*
X125649909Y-113985702D01*
X125657835Y-113985453D01*
X125657836Y-113985453D01*
X125717986Y-113983562D01*
X125721945Y-113983500D01*
X125749856Y-113983500D01*
X125753791Y-113983003D01*
X125753856Y-113982995D01*
X125765693Y-113982062D01*
X125797951Y-113981048D01*
X125801970Y-113980922D01*
X125809889Y-113980673D01*
X125829343Y-113975021D01*
X125848700Y-113971013D01*
X125860930Y-113969468D01*
X125860931Y-113969468D01*
X125868797Y-113968474D01*
X125876168Y-113965555D01*
X125876170Y-113965555D01*
X125909912Y-113952196D01*
X125921142Y-113948351D01*
X125955983Y-113938229D01*
X125955984Y-113938229D01*
X125963593Y-113936018D01*
X125970412Y-113931985D01*
X125970417Y-113931983D01*
X125981028Y-113925707D01*
X125998776Y-113917012D01*
X126017617Y-113909552D01*
X126037987Y-113894753D01*
X126053387Y-113883564D01*
X126063307Y-113877048D01*
X126094535Y-113858580D01*
X126094538Y-113858578D01*
X126101362Y-113854542D01*
X126115683Y-113840221D01*
X126130717Y-113827380D01*
X126140693Y-113820132D01*
X126147107Y-113815472D01*
X126175288Y-113781407D01*
X126183278Y-113772626D01*
X126752258Y-113203647D01*
X126760537Y-113196113D01*
X126767018Y-113192000D01*
X126813644Y-113142348D01*
X126816398Y-113139507D01*
X126836135Y-113119770D01*
X126838615Y-113116573D01*
X126846320Y-113107551D01*
X126871159Y-113081100D01*
X126876586Y-113075321D01*
X126880405Y-113068375D01*
X126880407Y-113068372D01*
X126886348Y-113057566D01*
X126897199Y-113041047D01*
X126904758Y-113031301D01*
X126909614Y-113025041D01*
X126912759Y-113017772D01*
X126912762Y-113017768D01*
X126927174Y-112984463D01*
X126932391Y-112973813D01*
X126953695Y-112935060D01*
X126958733Y-112915437D01*
X126965137Y-112896734D01*
X126970033Y-112885420D01*
X126970033Y-112885419D01*
X126973181Y-112878145D01*
X126974420Y-112870322D01*
X126974423Y-112870312D01*
X126980099Y-112834476D01*
X126982505Y-112822856D01*
X126991528Y-112787711D01*
X126991528Y-112787710D01*
X126993500Y-112780030D01*
X126993500Y-112759776D01*
X126995051Y-112740065D01*
X126996980Y-112727886D01*
X126998220Y-112720057D01*
X126994059Y-112676038D01*
X126993500Y-112664181D01*
X126993500Y-109424594D01*
X127013502Y-109356473D01*
X127030405Y-109335499D01*
X127049753Y-109316151D01*
X127112065Y-109282125D01*
X127138958Y-109279246D01*
X127820994Y-109279850D01*
X127971886Y-109279984D01*
X127990000Y-109280000D01*
X127990008Y-109272205D01*
X128001649Y-109258795D01*
X128019152Y-109226813D01*
X128061783Y-109198841D01*
X128072617Y-109194552D01*
X128108387Y-109168564D01*
X128118307Y-109162048D01*
X128149535Y-109143580D01*
X128149538Y-109143578D01*
X128156362Y-109139542D01*
X128170683Y-109125221D01*
X128185717Y-109112380D01*
X128195694Y-109105131D01*
X128202107Y-109100472D01*
X128230298Y-109066395D01*
X128238288Y-109057616D01*
X128552247Y-108743657D01*
X128560537Y-108736113D01*
X128567018Y-108732000D01*
X128613659Y-108682332D01*
X128616413Y-108679491D01*
X128636134Y-108659770D01*
X128638612Y-108656575D01*
X128646318Y-108647553D01*
X128671158Y-108621101D01*
X128676586Y-108615321D01*
X128686346Y-108597568D01*
X128697199Y-108581045D01*
X128704753Y-108571306D01*
X128709613Y-108565041D01*
X128727176Y-108524457D01*
X128732383Y-108513827D01*
X128753695Y-108475060D01*
X128755666Y-108467383D01*
X128755668Y-108467378D01*
X128758732Y-108455442D01*
X128765138Y-108436730D01*
X128770034Y-108425417D01*
X128773181Y-108418145D01*
X128780097Y-108374481D01*
X128782504Y-108362860D01*
X128791528Y-108327711D01*
X128791528Y-108327710D01*
X128793500Y-108320030D01*
X128793500Y-108299769D01*
X128795051Y-108280058D01*
X128796979Y-108267885D01*
X128798219Y-108260057D01*
X128794059Y-108216046D01*
X128793500Y-108204189D01*
X128793500Y-107719500D01*
X128813502Y-107651379D01*
X128867158Y-107604886D01*
X128919500Y-107593500D01*
X135391233Y-107593500D01*
X135402416Y-107594027D01*
X135409909Y-107595702D01*
X135417835Y-107595453D01*
X135417836Y-107595453D01*
X135477986Y-107593562D01*
X135481945Y-107593500D01*
X135509856Y-107593500D01*
X135513791Y-107593003D01*
X135513856Y-107592995D01*
X135525693Y-107592062D01*
X135557951Y-107591048D01*
X135561970Y-107590922D01*
X135569889Y-107590673D01*
X135589343Y-107585021D01*
X135608700Y-107581013D01*
X135620930Y-107579468D01*
X135620931Y-107579468D01*
X135628797Y-107578474D01*
X135636168Y-107575555D01*
X135636170Y-107575555D01*
X135669912Y-107562196D01*
X135681142Y-107558351D01*
X135715983Y-107548229D01*
X135715984Y-107548229D01*
X135723593Y-107546018D01*
X135730412Y-107541985D01*
X135730417Y-107541983D01*
X135741028Y-107535707D01*
X135758776Y-107527012D01*
X135777617Y-107519552D01*
X135813387Y-107493564D01*
X135823307Y-107487048D01*
X135854535Y-107468580D01*
X135854538Y-107468578D01*
X135861362Y-107464542D01*
X135875683Y-107450221D01*
X135890717Y-107437380D01*
X135900693Y-107430132D01*
X135907107Y-107425472D01*
X135935288Y-107391407D01*
X135943278Y-107382626D01*
X136442258Y-106883647D01*
X136450537Y-106876113D01*
X136457018Y-106872000D01*
X136503644Y-106822348D01*
X136506398Y-106819507D01*
X136526135Y-106799770D01*
X136528615Y-106796573D01*
X136536320Y-106787551D01*
X136561159Y-106761100D01*
X136566586Y-106755321D01*
X136570405Y-106748375D01*
X136570407Y-106748372D01*
X136576348Y-106737566D01*
X136587199Y-106721047D01*
X136594758Y-106711301D01*
X136599614Y-106705041D01*
X136602759Y-106697772D01*
X136602762Y-106697768D01*
X136617174Y-106664463D01*
X136622391Y-106653813D01*
X136643695Y-106615060D01*
X136648733Y-106595437D01*
X136655137Y-106576734D01*
X136660033Y-106565420D01*
X136660033Y-106565419D01*
X136663181Y-106558145D01*
X136664420Y-106550322D01*
X136664423Y-106550312D01*
X136670099Y-106514476D01*
X136672505Y-106502856D01*
X136681528Y-106467711D01*
X136681528Y-106467710D01*
X136683500Y-106460030D01*
X136683500Y-106439776D01*
X136685051Y-106420065D01*
X136686980Y-106407886D01*
X136688220Y-106400057D01*
X136684059Y-106356038D01*
X136683500Y-106344181D01*
X136683500Y-105632524D01*
X136703502Y-105564403D01*
X136715858Y-105548221D01*
X136780365Y-105476578D01*
X136840810Y-105439340D01*
X136911794Y-105440692D01*
G37*
%TD.AperFunction*%
%TA.AperFunction,Conductor*%
G36*
X129069724Y-90252358D02*
G01*
X129380782Y-90253050D01*
X129448856Y-90273203D01*
X129495230Y-90326962D01*
X129506500Y-90379049D01*
X129506500Y-90939688D01*
X129486498Y-91007809D01*
X129474136Y-91023998D01*
X129420960Y-91083056D01*
X129390015Y-91136655D01*
X129335256Y-91231500D01*
X129325473Y-91248444D01*
X129266458Y-91430072D01*
X129246496Y-91620000D01*
X129266458Y-91809928D01*
X129325473Y-91991556D01*
X129420960Y-92156944D01*
X129548747Y-92298866D01*
X129703248Y-92411118D01*
X129709276Y-92413802D01*
X129709278Y-92413803D01*
X129774982Y-92443056D01*
X129877712Y-92488794D01*
X129966563Y-92507680D01*
X130058056Y-92527128D01*
X130058061Y-92527128D01*
X130064513Y-92528500D01*
X130255487Y-92528500D01*
X130261939Y-92527128D01*
X130261944Y-92527128D01*
X130353437Y-92507680D01*
X130442288Y-92488794D01*
X130545018Y-92443056D01*
X130610722Y-92413803D01*
X130610724Y-92413802D01*
X130616752Y-92411118D01*
X130771253Y-92298866D01*
X130899040Y-92156944D01*
X130911382Y-92135567D01*
X130962764Y-92086575D01*
X131032478Y-92073140D01*
X131098389Y-92099527D01*
X131139570Y-92157359D01*
X131146500Y-92198569D01*
X131146500Y-94031233D01*
X131145973Y-94042416D01*
X131144298Y-94049909D01*
X131144547Y-94057835D01*
X131144547Y-94057836D01*
X131146438Y-94117986D01*
X131146500Y-94121945D01*
X131146500Y-94149856D01*
X131146997Y-94153790D01*
X131146997Y-94153791D01*
X131147005Y-94153856D01*
X131147938Y-94165693D01*
X131149327Y-94209889D01*
X131154978Y-94229339D01*
X131158987Y-94248700D01*
X131161526Y-94268797D01*
X131164445Y-94276168D01*
X131164445Y-94276170D01*
X131177804Y-94309912D01*
X131181649Y-94321142D01*
X131193982Y-94363593D01*
X131198015Y-94370412D01*
X131198017Y-94370417D01*
X131204293Y-94381028D01*
X131212988Y-94398776D01*
X131220448Y-94417617D01*
X131225110Y-94424033D01*
X131225110Y-94424034D01*
X131246436Y-94453387D01*
X131252952Y-94463307D01*
X131275458Y-94501362D01*
X131289779Y-94515683D01*
X131302619Y-94530716D01*
X131314528Y-94547107D01*
X131320634Y-94552158D01*
X131348605Y-94575298D01*
X131357384Y-94583288D01*
X134189595Y-97415500D01*
X134223621Y-97477812D01*
X134226500Y-97504595D01*
X134226500Y-99403579D01*
X134206498Y-99471700D01*
X134194137Y-99487889D01*
X134135460Y-99553056D01*
X134039973Y-99718444D01*
X133980958Y-99900072D01*
X133980268Y-99906633D01*
X133980268Y-99906635D01*
X133967398Y-100029085D01*
X133960996Y-100090000D01*
X133961686Y-100096565D01*
X133978298Y-100254616D01*
X133980958Y-100279928D01*
X134039973Y-100461556D01*
X134135460Y-100626944D01*
X134139878Y-100631851D01*
X134139879Y-100631852D01*
X134184288Y-100681173D01*
X134263247Y-100768866D01*
X134417748Y-100881118D01*
X134423776Y-100883802D01*
X134423778Y-100883803D01*
X134584299Y-100955271D01*
X134592212Y-100958794D01*
X134685612Y-100978647D01*
X134772556Y-100997128D01*
X134772561Y-100997128D01*
X134779013Y-100998500D01*
X134969987Y-100998500D01*
X134976439Y-100997128D01*
X134976444Y-100997128D01*
X135063388Y-100978647D01*
X135156788Y-100958794D01*
X135164701Y-100955271D01*
X135325222Y-100883803D01*
X135325224Y-100883802D01*
X135331252Y-100881118D01*
X135485753Y-100768866D01*
X135564712Y-100681173D01*
X135609121Y-100631852D01*
X135609122Y-100631851D01*
X135613540Y-100626944D01*
X135628469Y-100601086D01*
X135679851Y-100552093D01*
X135749565Y-100538656D01*
X135815476Y-100565043D01*
X135856658Y-100622875D01*
X135862898Y-100650915D01*
X135874779Y-100763955D01*
X135876458Y-100779928D01*
X135935473Y-100961556D01*
X135938776Y-100967278D01*
X135938777Y-100967279D01*
X135956803Y-100998500D01*
X136030960Y-101126944D01*
X136158747Y-101268866D01*
X136313248Y-101381118D01*
X136319276Y-101383802D01*
X136319278Y-101383803D01*
X136481681Y-101456109D01*
X136487712Y-101458794D01*
X136581112Y-101478647D01*
X136668056Y-101497128D01*
X136668061Y-101497128D01*
X136674513Y-101498500D01*
X136865487Y-101498500D01*
X136865487Y-101499148D01*
X136930665Y-101511066D01*
X136982513Y-101559566D01*
X137000000Y-101623605D01*
X137000000Y-104299110D01*
X136979998Y-104367231D01*
X136926342Y-104413724D01*
X136856068Y-104423828D01*
X136791488Y-104394334D01*
X136780369Y-104383426D01*
X136661253Y-104251134D01*
X136506752Y-104138882D01*
X136500724Y-104136198D01*
X136500722Y-104136197D01*
X136338319Y-104063891D01*
X136338318Y-104063891D01*
X136332288Y-104061206D01*
X136234070Y-104040329D01*
X136151944Y-104022872D01*
X136151939Y-104022872D01*
X136145487Y-104021500D01*
X135954513Y-104021500D01*
X135948061Y-104022872D01*
X135948056Y-104022872D01*
X135865930Y-104040329D01*
X135767712Y-104061206D01*
X135761682Y-104063891D01*
X135761681Y-104063891D01*
X135599278Y-104136197D01*
X135599276Y-104136198D01*
X135593248Y-104138882D01*
X135438747Y-104251134D01*
X135434329Y-104256041D01*
X135434325Y-104256045D01*
X135340762Y-104359958D01*
X135310960Y-104393056D01*
X135265638Y-104471556D01*
X135221247Y-104548444D01*
X135215473Y-104558444D01*
X135156458Y-104740072D01*
X135155768Y-104746633D01*
X135155768Y-104746635D01*
X135148154Y-104819076D01*
X135136496Y-104930000D01*
X135156458Y-105119928D01*
X135215473Y-105301556D01*
X135218776Y-105307278D01*
X135218777Y-105307279D01*
X135233307Y-105332446D01*
X135310960Y-105466944D01*
X135384137Y-105548215D01*
X135414853Y-105612221D01*
X135416500Y-105632524D01*
X135416500Y-106065405D01*
X135396498Y-106133526D01*
X135379595Y-106154501D01*
X135244499Y-106289596D01*
X135182187Y-106323621D01*
X135155404Y-106326500D01*
X134263096Y-106326500D01*
X134194975Y-106306498D01*
X134148482Y-106252842D01*
X134138378Y-106182568D01*
X134143263Y-106161564D01*
X134151502Y-106136206D01*
X134153542Y-106129928D01*
X134163448Y-106035683D01*
X134172814Y-105946565D01*
X134173504Y-105940000D01*
X134168293Y-105890417D01*
X134154232Y-105756635D01*
X134154232Y-105756633D01*
X134153542Y-105750072D01*
X134094527Y-105568444D01*
X134086473Y-105554493D01*
X134039285Y-105472762D01*
X133999040Y-105403056D01*
X133972557Y-105373643D01*
X133875675Y-105266045D01*
X133875674Y-105266044D01*
X133871253Y-105261134D01*
X133716752Y-105148882D01*
X133710724Y-105146198D01*
X133710722Y-105146197D01*
X133548319Y-105073891D01*
X133548318Y-105073891D01*
X133542288Y-105071206D01*
X133448888Y-105051353D01*
X133361944Y-105032872D01*
X133361939Y-105032872D01*
X133355487Y-105031500D01*
X133164513Y-105031500D01*
X133158061Y-105032872D01*
X133158056Y-105032872D01*
X133071112Y-105051353D01*
X132977712Y-105071206D01*
X132971682Y-105073891D01*
X132971681Y-105073891D01*
X132809278Y-105146197D01*
X132809276Y-105146198D01*
X132803248Y-105148882D01*
X132797907Y-105152762D01*
X132797906Y-105152763D01*
X132738280Y-105196084D01*
X132648747Y-105261134D01*
X132644332Y-105266037D01*
X132639420Y-105270460D01*
X132638295Y-105269211D01*
X132584986Y-105302051D01*
X132551800Y-105306500D01*
X130533096Y-105306500D01*
X130464975Y-105286498D01*
X130418482Y-105232842D01*
X130408378Y-105162568D01*
X130413263Y-105141564D01*
X130421502Y-105116206D01*
X130423542Y-105109928D01*
X130443504Y-104920000D01*
X130432897Y-104819076D01*
X130424232Y-104736635D01*
X130424232Y-104736633D01*
X130423542Y-104730072D01*
X130364527Y-104548444D01*
X130269040Y-104383056D01*
X130248243Y-104359958D01*
X130145675Y-104246045D01*
X130145674Y-104246044D01*
X130141253Y-104241134D01*
X130042157Y-104169136D01*
X129992094Y-104132763D01*
X129992093Y-104132762D01*
X129986752Y-104128882D01*
X129980724Y-104126198D01*
X129980722Y-104126197D01*
X129818319Y-104053891D01*
X129818318Y-104053891D01*
X129812288Y-104051206D01*
X129718887Y-104031353D01*
X129631944Y-104012872D01*
X129631939Y-104012872D01*
X129625487Y-104011500D01*
X129434513Y-104011500D01*
X129428061Y-104012872D01*
X129428056Y-104012872D01*
X129341113Y-104031353D01*
X129247712Y-104051206D01*
X129241682Y-104053891D01*
X129241681Y-104053891D01*
X129090749Y-104121090D01*
X129020382Y-104130524D01*
X128956085Y-104100417D01*
X128918271Y-104040329D01*
X128913500Y-104005983D01*
X128913500Y-97275000D01*
X129651496Y-97275000D01*
X129671458Y-97464928D01*
X129730473Y-97646556D01*
X129825960Y-97811944D01*
X129953747Y-97953866D01*
X130108248Y-98066118D01*
X130114276Y-98068802D01*
X130114278Y-98068803D01*
X130276681Y-98141109D01*
X130282712Y-98143794D01*
X130376113Y-98163647D01*
X130463056Y-98182128D01*
X130463061Y-98182128D01*
X130469513Y-98183500D01*
X130660487Y-98183500D01*
X130666939Y-98182128D01*
X130666944Y-98182128D01*
X130753888Y-98163647D01*
X130847288Y-98143794D01*
X130853319Y-98141109D01*
X131015722Y-98068803D01*
X131015724Y-98068802D01*
X131021752Y-98066118D01*
X131176253Y-97953866D01*
X131304040Y-97811944D01*
X131399527Y-97646556D01*
X131458542Y-97464928D01*
X131478504Y-97275000D01*
X131476921Y-97259943D01*
X131459232Y-97091635D01*
X131459232Y-97091633D01*
X131458542Y-97085072D01*
X131399527Y-96903444D01*
X131387368Y-96882383D01*
X131326699Y-96777303D01*
X131304040Y-96738056D01*
X131288614Y-96720923D01*
X131180675Y-96601045D01*
X131180674Y-96601044D01*
X131176253Y-96596134D01*
X131021752Y-96483882D01*
X131015724Y-96481198D01*
X131015722Y-96481197D01*
X130853319Y-96408891D01*
X130853318Y-96408891D01*
X130847288Y-96406206D01*
X130753887Y-96386353D01*
X130666944Y-96367872D01*
X130666939Y-96367872D01*
X130660487Y-96366500D01*
X130469513Y-96366500D01*
X130463061Y-96367872D01*
X130463056Y-96367872D01*
X130376113Y-96386353D01*
X130282712Y-96406206D01*
X130276682Y-96408891D01*
X130276681Y-96408891D01*
X130114278Y-96481197D01*
X130114276Y-96481198D01*
X130108248Y-96483882D01*
X129953747Y-96596134D01*
X129949326Y-96601044D01*
X129949325Y-96601045D01*
X129841387Y-96720923D01*
X129825960Y-96738056D01*
X129803301Y-96777303D01*
X129742633Y-96882383D01*
X129730473Y-96903444D01*
X129671458Y-97085072D01*
X129670768Y-97091633D01*
X129670768Y-97091635D01*
X129653079Y-97259943D01*
X129651496Y-97275000D01*
X128913500Y-97275000D01*
X128913500Y-90378291D01*
X128933502Y-90310170D01*
X128987158Y-90263677D01*
X129039780Y-90252291D01*
X129069724Y-90252358D01*
G37*
%TD.AperFunction*%
%TA.AperFunction,Conductor*%
G36*
X136874281Y-90269720D02*
G01*
X136942356Y-90289874D01*
X136988730Y-90343633D01*
X137000000Y-90395720D01*
X137000000Y-95999906D01*
X136979998Y-96068027D01*
X136926342Y-96114520D01*
X136856068Y-96124624D01*
X136791488Y-96095130D01*
X136784905Y-96089001D01*
X135543974Y-94848069D01*
X134060405Y-93364500D01*
X134026379Y-93302188D01*
X134023500Y-93275405D01*
X134023500Y-90389659D01*
X134043502Y-90321538D01*
X134097158Y-90275045D01*
X134149779Y-90263659D01*
X136874281Y-90269720D01*
G37*
%TD.AperFunction*%
%TA.AperFunction,Conductor*%
G36*
X132601851Y-90260215D02*
G01*
X132630781Y-90260280D01*
X132698857Y-90280434D01*
X132745230Y-90334194D01*
X132756500Y-90386280D01*
X132756500Y-93511233D01*
X132755973Y-93522416D01*
X132754298Y-93529909D01*
X132754547Y-93537835D01*
X132754547Y-93537836D01*
X132756438Y-93597986D01*
X132756500Y-93601945D01*
X132756500Y-93629856D01*
X132756997Y-93633790D01*
X132756997Y-93633791D01*
X132757005Y-93633856D01*
X132757938Y-93645693D01*
X132759327Y-93689889D01*
X132762886Y-93702138D01*
X132764978Y-93709339D01*
X132768987Y-93728700D01*
X132771526Y-93748797D01*
X132774445Y-93756168D01*
X132774445Y-93756170D01*
X132787804Y-93789912D01*
X132791649Y-93801142D01*
X132803982Y-93843593D01*
X132808015Y-93850412D01*
X132808017Y-93850417D01*
X132814293Y-93861028D01*
X132822988Y-93878776D01*
X132830448Y-93897617D01*
X132835110Y-93904033D01*
X132835110Y-93904034D01*
X132856436Y-93933387D01*
X132862952Y-93943307D01*
X132867232Y-93950544D01*
X132884692Y-94019360D01*
X132862176Y-94086692D01*
X132806831Y-94131161D01*
X132736231Y-94138650D01*
X132669684Y-94103779D01*
X132450405Y-93884500D01*
X132416379Y-93822188D01*
X132413500Y-93795405D01*
X132413500Y-90386077D01*
X132433502Y-90317956D01*
X132487158Y-90271463D01*
X132539779Y-90260077D01*
X132601851Y-90260215D01*
G37*
%TD.AperFunction*%
%TD*%
%TA.AperFunction,Conductor*%
%TO.N,GND*%
G36*
X147049832Y-81334721D02*
G01*
X147117895Y-81354920D01*
X147164233Y-81408709D01*
X147169301Y-81421783D01*
X147185473Y-81471556D01*
X147188776Y-81477277D01*
X147188777Y-81477279D01*
X147222686Y-81536010D01*
X147280960Y-81636944D01*
X147408747Y-81778866D01*
X147563248Y-81891118D01*
X147569276Y-81893802D01*
X147569278Y-81893803D01*
X147731681Y-81966109D01*
X147737712Y-81968794D01*
X147831112Y-81988647D01*
X147918056Y-82007128D01*
X147918061Y-82007128D01*
X147924513Y-82008500D01*
X148115487Y-82008500D01*
X148121939Y-82007128D01*
X148121944Y-82007128D01*
X148208888Y-81988647D01*
X148302288Y-81968794D01*
X148308319Y-81966109D01*
X148470722Y-81893803D01*
X148470724Y-81893802D01*
X148476752Y-81891118D01*
X148631253Y-81778866D01*
X148759040Y-81636944D01*
X148854527Y-81471556D01*
X148868877Y-81427392D01*
X148908951Y-81368787D01*
X148974348Y-81341150D01*
X148989074Y-81340330D01*
X152006019Y-81349056D01*
X155664867Y-81359638D01*
X155732930Y-81379837D01*
X155779268Y-81433626D01*
X155790502Y-81485131D01*
X155804989Y-85093660D01*
X155785261Y-85161861D01*
X155731792Y-85208569D01*
X155661559Y-85218954D01*
X155603425Y-85194992D01*
X155503649Y-85120214D01*
X155488054Y-85111676D01*
X155367606Y-85066522D01*
X155352351Y-85062895D01*
X155301486Y-85057369D01*
X155294672Y-85057000D01*
X154672115Y-85057000D01*
X154656876Y-85061475D01*
X154655671Y-85062865D01*
X154654000Y-85070548D01*
X154654000Y-87754884D01*
X154658475Y-87770123D01*
X154659865Y-87771328D01*
X154667548Y-87772999D01*
X155294669Y-87772999D01*
X155301490Y-87772629D01*
X155352352Y-87767105D01*
X155367604Y-87763479D01*
X155488054Y-87718324D01*
X155503649Y-87709786D01*
X155612904Y-87627904D01*
X155614949Y-87630633D01*
X155662780Y-87604515D01*
X155733595Y-87609580D01*
X155790431Y-87652127D01*
X155815242Y-87718647D01*
X155815561Y-87727114D01*
X155830572Y-91466045D01*
X155830914Y-91551252D01*
X155811186Y-91619453D01*
X155757717Y-91666161D01*
X155687484Y-91676546D01*
X155622785Y-91647313D01*
X155595797Y-91614759D01*
X155589040Y-91603056D01*
X155461253Y-91461134D01*
X155306752Y-91348882D01*
X155300724Y-91346198D01*
X155300722Y-91346197D01*
X155138319Y-91273891D01*
X155138318Y-91273891D01*
X155132288Y-91271206D01*
X155025202Y-91248444D01*
X154951944Y-91232872D01*
X154951939Y-91232872D01*
X154945487Y-91231500D01*
X154754513Y-91231500D01*
X154748061Y-91232872D01*
X154748056Y-91232872D01*
X154674798Y-91248444D01*
X154567712Y-91271206D01*
X154561682Y-91273891D01*
X154561681Y-91273891D01*
X154399278Y-91346197D01*
X154399276Y-91346198D01*
X154393248Y-91348882D01*
X154238747Y-91461134D01*
X154110960Y-91603056D01*
X154085409Y-91647313D01*
X154076425Y-91662873D01*
X154025043Y-91711866D01*
X153966320Y-91723185D01*
X153991764Y-91758916D01*
X153995142Y-91829832D01*
X153992527Y-91839063D01*
X153956458Y-91950072D01*
X153955768Y-91956633D01*
X153955768Y-91956635D01*
X153941624Y-92091206D01*
X153936496Y-92140000D01*
X153937186Y-92146565D01*
X153951330Y-92281134D01*
X153956458Y-92329928D01*
X154015473Y-92511556D01*
X154018776Y-92517278D01*
X154018777Y-92517279D01*
X154052686Y-92576010D01*
X154110960Y-92676944D01*
X154238747Y-92818866D01*
X154393248Y-92931118D01*
X154399276Y-92933802D01*
X154399278Y-92933803D01*
X154458118Y-92960000D01*
X154567712Y-93008794D01*
X154661113Y-93028647D01*
X154748056Y-93047128D01*
X154748061Y-93047128D01*
X154754513Y-93048500D01*
X154945487Y-93048500D01*
X154951939Y-93047128D01*
X154951944Y-93047128D01*
X155038887Y-93028647D01*
X155132288Y-93008794D01*
X155241882Y-92960000D01*
X155300722Y-92933803D01*
X155300724Y-92933802D01*
X155306752Y-92931118D01*
X155461253Y-92818866D01*
X155589040Y-92676944D01*
X155600488Y-92657116D01*
X155651871Y-92608124D01*
X155721585Y-92594689D01*
X155787496Y-92621077D01*
X155828677Y-92678909D01*
X155835604Y-92719608D01*
X155851207Y-96606167D01*
X155831480Y-96674365D01*
X155818848Y-96690977D01*
X155780960Y-96733056D01*
X155685473Y-96898444D01*
X155626458Y-97080072D01*
X155606496Y-97270000D01*
X155626458Y-97459928D01*
X155685473Y-97641556D01*
X155780960Y-97806944D01*
X155824195Y-97854962D01*
X155854911Y-97918967D01*
X155856557Y-97938764D01*
X155864215Y-99846352D01*
X155844488Y-99914551D01*
X155791019Y-99961259D01*
X155720786Y-99971644D01*
X155664156Y-99948792D01*
X155642094Y-99932763D01*
X155642093Y-99932762D01*
X155636752Y-99928882D01*
X155630724Y-99926198D01*
X155630722Y-99926197D01*
X155468319Y-99853891D01*
X155468318Y-99853891D01*
X155462288Y-99851206D01*
X155368887Y-99831353D01*
X155281944Y-99812872D01*
X155281939Y-99812872D01*
X155275487Y-99811500D01*
X155084513Y-99811500D01*
X155078061Y-99812872D01*
X155078056Y-99812872D01*
X154991113Y-99831353D01*
X154897712Y-99851206D01*
X154891682Y-99853891D01*
X154891681Y-99853891D01*
X154729278Y-99926197D01*
X154729276Y-99926198D01*
X154723248Y-99928882D01*
X154568747Y-100041134D01*
X154440960Y-100183056D01*
X154345473Y-100348444D01*
X154308721Y-100461556D01*
X154308149Y-100463315D01*
X154268075Y-100521921D01*
X154202679Y-100549558D01*
X154132722Y-100537451D01*
X154080416Y-100489445D01*
X154065070Y-100450579D01*
X154064232Y-100446635D01*
X154063542Y-100440072D01*
X154004527Y-100258444D01*
X153909040Y-100093056D01*
X153781253Y-99951134D01*
X153647410Y-99853891D01*
X153632094Y-99842763D01*
X153632093Y-99842762D01*
X153626752Y-99838882D01*
X153620724Y-99836198D01*
X153620722Y-99836197D01*
X153458319Y-99763891D01*
X153458318Y-99763891D01*
X153452288Y-99761206D01*
X153358887Y-99741353D01*
X153271944Y-99722872D01*
X153271939Y-99722872D01*
X153265487Y-99721500D01*
X153074513Y-99721500D01*
X153068061Y-99722872D01*
X153068056Y-99722872D01*
X152981113Y-99741353D01*
X152887712Y-99761206D01*
X152881682Y-99763891D01*
X152881681Y-99763891D01*
X152719278Y-99836197D01*
X152719276Y-99836198D01*
X152713248Y-99838882D01*
X152707907Y-99842762D01*
X152707906Y-99842763D01*
X152692590Y-99853891D01*
X152558747Y-99951134D01*
X152430960Y-100093056D01*
X152335473Y-100258444D01*
X152276458Y-100440072D01*
X152275768Y-100446633D01*
X152275768Y-100446635D01*
X152274200Y-100461556D01*
X152256496Y-100630000D01*
X152276458Y-100819928D01*
X152335473Y-101001556D01*
X152430960Y-101166944D01*
X152558747Y-101308866D01*
X152713248Y-101421118D01*
X152719276Y-101423802D01*
X152719278Y-101423803D01*
X152841798Y-101478352D01*
X152887712Y-101498794D01*
X152981113Y-101518647D01*
X153068056Y-101537128D01*
X153068061Y-101537128D01*
X153074513Y-101538500D01*
X153265487Y-101538500D01*
X153271939Y-101537128D01*
X153271944Y-101537128D01*
X153358888Y-101518647D01*
X153452288Y-101498794D01*
X153498202Y-101478352D01*
X153620722Y-101423803D01*
X153620724Y-101423802D01*
X153626752Y-101421118D01*
X153781253Y-101308866D01*
X153909040Y-101166944D01*
X154004527Y-101001556D01*
X154041851Y-100886685D01*
X154081925Y-100828079D01*
X154147321Y-100800442D01*
X154217278Y-100812549D01*
X154269584Y-100860555D01*
X154284930Y-100899421D01*
X154285768Y-100903363D01*
X154286458Y-100909928D01*
X154345473Y-101091556D01*
X154440960Y-101256944D01*
X154445378Y-101261851D01*
X154445379Y-101261852D01*
X154461346Y-101279585D01*
X154568747Y-101398866D01*
X154656016Y-101462271D01*
X154706286Y-101498794D01*
X154723248Y-101511118D01*
X154729276Y-101513802D01*
X154729278Y-101513803D01*
X154784749Y-101538500D01*
X154897712Y-101588794D01*
X154991113Y-101608647D01*
X155078056Y-101627128D01*
X155078061Y-101627128D01*
X155084513Y-101628500D01*
X155275487Y-101628500D01*
X155281939Y-101627128D01*
X155281944Y-101627128D01*
X155368887Y-101608647D01*
X155462288Y-101588794D01*
X155575251Y-101538500D01*
X155630722Y-101513803D01*
X155630724Y-101513802D01*
X155636752Y-101511118D01*
X155653715Y-101498794D01*
X155671145Y-101486130D01*
X155738013Y-101462271D01*
X155807164Y-101478352D01*
X155856645Y-101529266D01*
X155871205Y-101587560D01*
X155875985Y-102778153D01*
X155883153Y-104563435D01*
X155883179Y-104569994D01*
X155863451Y-104638195D01*
X155809982Y-104684903D01*
X155757180Y-104696500D01*
X152938200Y-104696500D01*
X152870079Y-104676498D01*
X152850853Y-104660157D01*
X152850580Y-104660460D01*
X152845668Y-104656037D01*
X152841253Y-104651134D01*
X152686752Y-104538882D01*
X152680724Y-104536198D01*
X152680722Y-104536197D01*
X152518319Y-104463891D01*
X152518318Y-104463891D01*
X152512288Y-104461206D01*
X152418887Y-104441353D01*
X152331944Y-104422872D01*
X152331939Y-104422872D01*
X152325487Y-104421500D01*
X152134513Y-104421500D01*
X152128061Y-104422872D01*
X152128056Y-104422872D01*
X152041112Y-104441353D01*
X151947712Y-104461206D01*
X151941682Y-104463891D01*
X151941681Y-104463891D01*
X151779278Y-104536197D01*
X151779276Y-104536198D01*
X151773248Y-104538882D01*
X151618747Y-104651134D01*
X151614326Y-104656044D01*
X151614325Y-104656045D01*
X151520789Y-104759928D01*
X151490960Y-104793056D01*
X151441408Y-104878882D01*
X151409527Y-104934102D01*
X151358145Y-104983095D01*
X151288431Y-104996531D01*
X151226347Y-104973038D01*
X151102094Y-104882763D01*
X151102093Y-104882762D01*
X151096752Y-104878882D01*
X151090724Y-104876198D01*
X151090722Y-104876197D01*
X150928319Y-104803891D01*
X150928318Y-104803891D01*
X150922288Y-104801206D01*
X150810648Y-104777476D01*
X150741944Y-104762872D01*
X150741939Y-104762872D01*
X150735487Y-104761500D01*
X150544513Y-104761500D01*
X150538061Y-104762872D01*
X150538056Y-104762872D01*
X150469352Y-104777476D01*
X150357712Y-104801206D01*
X150351682Y-104803891D01*
X150351681Y-104803891D01*
X150189278Y-104876197D01*
X150189276Y-104876198D01*
X150183248Y-104878882D01*
X150028747Y-104991134D01*
X150024326Y-104996044D01*
X150024325Y-104996045D01*
X149921785Y-105109928D01*
X149900960Y-105133056D01*
X149897659Y-105138774D01*
X149810307Y-105290072D01*
X149805473Y-105298444D01*
X149746458Y-105480072D01*
X149745768Y-105486633D01*
X149745768Y-105486635D01*
X149727193Y-105663365D01*
X149726496Y-105670000D01*
X149727186Y-105676565D01*
X149744918Y-105845271D01*
X149746458Y-105859928D01*
X149805473Y-106041556D01*
X149900960Y-106206944D01*
X149905378Y-106211851D01*
X149905379Y-106211852D01*
X150022138Y-106341526D01*
X150028747Y-106348866D01*
X150084456Y-106389341D01*
X150175458Y-106455458D01*
X150183248Y-106461118D01*
X150189276Y-106463802D01*
X150189278Y-106463803D01*
X150351681Y-106536109D01*
X150357712Y-106538794D01*
X150435282Y-106555282D01*
X150492874Y-106567524D01*
X150555772Y-106601676D01*
X150981343Y-107027247D01*
X150988887Y-107035537D01*
X150993000Y-107042018D01*
X150998777Y-107047443D01*
X151042667Y-107088658D01*
X151045509Y-107091413D01*
X151065230Y-107111134D01*
X151068425Y-107113612D01*
X151077447Y-107121318D01*
X151109679Y-107151586D01*
X151116628Y-107155406D01*
X151127432Y-107161346D01*
X151143956Y-107172199D01*
X151159959Y-107184613D01*
X151200543Y-107202176D01*
X151211173Y-107207383D01*
X151249940Y-107228695D01*
X151257617Y-107230666D01*
X151257622Y-107230668D01*
X151269558Y-107233732D01*
X151288266Y-107240137D01*
X151306855Y-107248181D01*
X151314680Y-107249420D01*
X151314682Y-107249421D01*
X151350519Y-107255097D01*
X151362140Y-107257504D01*
X151397289Y-107266528D01*
X151404970Y-107268500D01*
X151425231Y-107268500D01*
X151444940Y-107270051D01*
X151464943Y-107273219D01*
X151472835Y-107272473D01*
X151478062Y-107271979D01*
X151508954Y-107269059D01*
X151520811Y-107268500D01*
X155768517Y-107268500D01*
X155836638Y-107288502D01*
X155883131Y-107342158D01*
X155894516Y-107393994D01*
X155899494Y-108633872D01*
X155879766Y-108702073D01*
X155826297Y-108748781D01*
X155773872Y-108760377D01*
X148963911Y-108780729D01*
X139295452Y-108809625D01*
X139227271Y-108789827D01*
X139180618Y-108736311D01*
X139169078Y-108684552D01*
X139138824Y-104570000D01*
X142136496Y-104570000D01*
X142137186Y-104576565D01*
X142154507Y-104741362D01*
X142156458Y-104759928D01*
X142215473Y-104941556D01*
X142310960Y-105106944D01*
X142315378Y-105111851D01*
X142315379Y-105111852D01*
X142322651Y-105119928D01*
X142438747Y-105248866D01*
X142486821Y-105283794D01*
X142557347Y-105335034D01*
X142593248Y-105361118D01*
X142599276Y-105363802D01*
X142599278Y-105363803D01*
X142755675Y-105433435D01*
X142767712Y-105438794D01*
X142836903Y-105453501D01*
X142948056Y-105477128D01*
X142948061Y-105477128D01*
X142954513Y-105478500D01*
X143145487Y-105478500D01*
X143151939Y-105477128D01*
X143151944Y-105477128D01*
X143263097Y-105453501D01*
X143332288Y-105438794D01*
X143344325Y-105433435D01*
X143500722Y-105363803D01*
X143500724Y-105363802D01*
X143506752Y-105361118D01*
X143542654Y-105335034D01*
X143613179Y-105283794D01*
X143661253Y-105248866D01*
X143777349Y-105119928D01*
X143784621Y-105111852D01*
X143784622Y-105111851D01*
X143789040Y-105106944D01*
X143884527Y-104941556D01*
X143943542Y-104759928D01*
X143945494Y-104741362D01*
X143962814Y-104576565D01*
X143963504Y-104570000D01*
X143952352Y-104463891D01*
X143944232Y-104386635D01*
X143944232Y-104386633D01*
X143943542Y-104380072D01*
X143884527Y-104198444D01*
X143877406Y-104186109D01*
X143832809Y-104108866D01*
X143789040Y-104033056D01*
X143761752Y-104002749D01*
X143665675Y-103896045D01*
X143665674Y-103896044D01*
X143661253Y-103891134D01*
X143537960Y-103801556D01*
X143512094Y-103782763D01*
X143512093Y-103782762D01*
X143506752Y-103778882D01*
X143500724Y-103776198D01*
X143500722Y-103776197D01*
X143338319Y-103703891D01*
X143338318Y-103703891D01*
X143332288Y-103701206D01*
X143238888Y-103681353D01*
X143151944Y-103662872D01*
X143151939Y-103662872D01*
X143145487Y-103661500D01*
X142954513Y-103661500D01*
X142948061Y-103662872D01*
X142948056Y-103662872D01*
X142861112Y-103681353D01*
X142767712Y-103701206D01*
X142761682Y-103703891D01*
X142761681Y-103703891D01*
X142599278Y-103776197D01*
X142599276Y-103776198D01*
X142593248Y-103778882D01*
X142587907Y-103782762D01*
X142587906Y-103782763D01*
X142562040Y-103801556D01*
X142438747Y-103891134D01*
X142434326Y-103896044D01*
X142434325Y-103896045D01*
X142338249Y-104002749D01*
X142310960Y-104033056D01*
X142267191Y-104108866D01*
X142222595Y-104186109D01*
X142215473Y-104198444D01*
X142156458Y-104380072D01*
X142155768Y-104386633D01*
X142155768Y-104386635D01*
X142147648Y-104463891D01*
X142136496Y-104570000D01*
X139138824Y-104570000D01*
X139054107Y-93048500D01*
X139020000Y-88410000D01*
X138382040Y-88408244D01*
X137469864Y-88405733D01*
X137427348Y-88397563D01*
X137425060Y-88396305D01*
X137405437Y-88391267D01*
X137386734Y-88384863D01*
X137375420Y-88379967D01*
X137375419Y-88379967D01*
X137368145Y-88376819D01*
X137360322Y-88375580D01*
X137360312Y-88375577D01*
X137324476Y-88369901D01*
X137312856Y-88367495D01*
X137277711Y-88358472D01*
X137277710Y-88358472D01*
X137270030Y-88356500D01*
X137249776Y-88356500D01*
X137230065Y-88354949D01*
X137217886Y-88353020D01*
X137210057Y-88351780D01*
X137202165Y-88352526D01*
X137166039Y-88355941D01*
X137154181Y-88356500D01*
X136398200Y-88356500D01*
X136330079Y-88336498D01*
X136310853Y-88320157D01*
X136310580Y-88320460D01*
X136305668Y-88316037D01*
X136301253Y-88311134D01*
X136206626Y-88242383D01*
X136152094Y-88202763D01*
X136152093Y-88202762D01*
X136146752Y-88198882D01*
X136140724Y-88196198D01*
X136140722Y-88196197D01*
X135978319Y-88123891D01*
X135978318Y-88123891D01*
X135972288Y-88121206D01*
X135877321Y-88101020D01*
X135791944Y-88082872D01*
X135791939Y-88082872D01*
X135785487Y-88081500D01*
X135594513Y-88081500D01*
X135588061Y-88082872D01*
X135588056Y-88082872D01*
X135502679Y-88101020D01*
X135407712Y-88121206D01*
X135401682Y-88123891D01*
X135401681Y-88123891D01*
X135239278Y-88196197D01*
X135239276Y-88196198D01*
X135233248Y-88198882D01*
X135227907Y-88202762D01*
X135227906Y-88202763D01*
X135163561Y-88249513D01*
X135096694Y-88273371D01*
X135027542Y-88257291D01*
X134978062Y-88206378D01*
X134963500Y-88147577D01*
X134963500Y-86381695D01*
X140337251Y-86381695D01*
X140350110Y-86604715D01*
X140351247Y-86609761D01*
X140351248Y-86609767D01*
X140354028Y-86622101D01*
X140399222Y-86822639D01*
X140457670Y-86966581D01*
X140468134Y-86992349D01*
X140483266Y-87029616D01*
X140599987Y-87220088D01*
X140746250Y-87388938D01*
X140918126Y-87531632D01*
X141111000Y-87644338D01*
X141319692Y-87724030D01*
X141324760Y-87725061D01*
X141324763Y-87725062D01*
X141419297Y-87744295D01*
X141538597Y-87768567D01*
X141543772Y-87768757D01*
X141543774Y-87768757D01*
X141756673Y-87776564D01*
X141756677Y-87776564D01*
X141761837Y-87776753D01*
X141766957Y-87776097D01*
X141766959Y-87776097D01*
X141978288Y-87749025D01*
X141978289Y-87749025D01*
X141983416Y-87748368D01*
X142178252Y-87689914D01*
X142249247Y-87689497D01*
X142309197Y-87727530D01*
X142338908Y-87790890D01*
X142339078Y-87791962D01*
X142339327Y-87799889D01*
X142341539Y-87807502D01*
X142344978Y-87819339D01*
X142348987Y-87838700D01*
X142351526Y-87858797D01*
X142354445Y-87866168D01*
X142354445Y-87866170D01*
X142367804Y-87899912D01*
X142371649Y-87911142D01*
X142383982Y-87953593D01*
X142388015Y-87960412D01*
X142388017Y-87960417D01*
X142394293Y-87971028D01*
X142402988Y-87988776D01*
X142410448Y-88007617D01*
X142415110Y-88014033D01*
X142415110Y-88014034D01*
X142436436Y-88043387D01*
X142442952Y-88053307D01*
X142459626Y-88081500D01*
X142465458Y-88091362D01*
X142479779Y-88105683D01*
X142492619Y-88120716D01*
X142504528Y-88137107D01*
X142532479Y-88160230D01*
X142538605Y-88165298D01*
X142547384Y-88173288D01*
X143006343Y-88632247D01*
X143013887Y-88640537D01*
X143018000Y-88647018D01*
X143023777Y-88652443D01*
X143067667Y-88693658D01*
X143070509Y-88696413D01*
X143090230Y-88716134D01*
X143093425Y-88718612D01*
X143102447Y-88726318D01*
X143134679Y-88756586D01*
X143141628Y-88760406D01*
X143152432Y-88766346D01*
X143168956Y-88777199D01*
X143184959Y-88789613D01*
X143225543Y-88807176D01*
X143236173Y-88812383D01*
X143274940Y-88833695D01*
X143282617Y-88835666D01*
X143282622Y-88835668D01*
X143294558Y-88838732D01*
X143313266Y-88845137D01*
X143331855Y-88853181D01*
X143339683Y-88854421D01*
X143339690Y-88854423D01*
X143375524Y-88860099D01*
X143387144Y-88862505D01*
X143422289Y-88871528D01*
X143429970Y-88873500D01*
X143450224Y-88873500D01*
X143469934Y-88875051D01*
X143489943Y-88878220D01*
X143497835Y-88877474D01*
X143533961Y-88874059D01*
X143545819Y-88873500D01*
X144585406Y-88873500D01*
X144653527Y-88893502D01*
X144674501Y-88910405D01*
X144919595Y-89155499D01*
X144953621Y-89217811D01*
X144956500Y-89244594D01*
X144956500Y-96441233D01*
X144955973Y-96452416D01*
X144954298Y-96459909D01*
X144954547Y-96467835D01*
X144954547Y-96467836D01*
X144956438Y-96527986D01*
X144956500Y-96531945D01*
X144956500Y-96559856D01*
X144956997Y-96563790D01*
X144956997Y-96563791D01*
X144957005Y-96563856D01*
X144957938Y-96575693D01*
X144959327Y-96619889D01*
X144961538Y-96627499D01*
X144962778Y-96635328D01*
X144962635Y-96635351D01*
X144966500Y-96662510D01*
X144966500Y-104715263D01*
X144946498Y-104783384D01*
X144934137Y-104799573D01*
X144840960Y-104903056D01*
X144745473Y-105068444D01*
X144686458Y-105250072D01*
X144685768Y-105256633D01*
X144685768Y-105256635D01*
X144673329Y-105374984D01*
X144666496Y-105440000D01*
X144667186Y-105446565D01*
X144676290Y-105533181D01*
X144686458Y-105629928D01*
X144745473Y-105811556D01*
X144840960Y-105976944D01*
X144845378Y-105981851D01*
X144845379Y-105981852D01*
X144876976Y-106016944D01*
X144968747Y-106118866D01*
X145123248Y-106231118D01*
X145129276Y-106233802D01*
X145129278Y-106233803D01*
X145291681Y-106306109D01*
X145297712Y-106308794D01*
X145391113Y-106328647D01*
X145478056Y-106347128D01*
X145478061Y-106347128D01*
X145484513Y-106348500D01*
X145675487Y-106348500D01*
X145681939Y-106347128D01*
X145681944Y-106347128D01*
X145768888Y-106328647D01*
X145862288Y-106308794D01*
X145868319Y-106306109D01*
X146030722Y-106233803D01*
X146030724Y-106233802D01*
X146036752Y-106231118D01*
X146191253Y-106118866D01*
X146283024Y-106016944D01*
X146314621Y-105981852D01*
X146314622Y-105981851D01*
X146319040Y-105976944D01*
X146414527Y-105811556D01*
X146473542Y-105629928D01*
X146483711Y-105533181D01*
X146492085Y-105453501D01*
X146519098Y-105387845D01*
X146577320Y-105347215D01*
X146643591Y-105343425D01*
X146661422Y-105347215D01*
X146708056Y-105357128D01*
X146708061Y-105357128D01*
X146714513Y-105358500D01*
X146905487Y-105358500D01*
X146922398Y-105354905D01*
X147015889Y-105335034D01*
X147086679Y-105340436D01*
X147143312Y-105383253D01*
X147167805Y-105449891D01*
X147167394Y-105471456D01*
X147166496Y-105480000D01*
X147186458Y-105669928D01*
X147245473Y-105851556D01*
X147248776Y-105857278D01*
X147248777Y-105857279D01*
X147253931Y-105866206D01*
X147340960Y-106016944D01*
X147468747Y-106158866D01*
X147541676Y-106211852D01*
X147571889Y-106233803D01*
X147623248Y-106271118D01*
X147629276Y-106273802D01*
X147629278Y-106273803D01*
X147786843Y-106343955D01*
X147797712Y-106348794D01*
X147891112Y-106368647D01*
X147978056Y-106387128D01*
X147978061Y-106387128D01*
X147984513Y-106388500D01*
X148175487Y-106388500D01*
X148181939Y-106387128D01*
X148181944Y-106387128D01*
X148268888Y-106368647D01*
X148362288Y-106348794D01*
X148373157Y-106343955D01*
X148530722Y-106273803D01*
X148530724Y-106273802D01*
X148536752Y-106271118D01*
X148588112Y-106233803D01*
X148618324Y-106211852D01*
X148691253Y-106158866D01*
X148819040Y-106016944D01*
X148906069Y-105866206D01*
X148911223Y-105857279D01*
X148911224Y-105857278D01*
X148914527Y-105851556D01*
X148973542Y-105669928D01*
X148993504Y-105480000D01*
X148979150Y-105343425D01*
X148974232Y-105296635D01*
X148974232Y-105296633D01*
X148973542Y-105290072D01*
X148914527Y-105108444D01*
X148819040Y-104943056D01*
X148745863Y-104861785D01*
X148715147Y-104797779D01*
X148713500Y-104777476D01*
X148713500Y-104238469D01*
X148733502Y-104170348D01*
X148787158Y-104123855D01*
X148857432Y-104113751D01*
X148890748Y-104123362D01*
X149037712Y-104188794D01*
X149112680Y-104204729D01*
X149218056Y-104227128D01*
X149218061Y-104227128D01*
X149224513Y-104228500D01*
X149415487Y-104228500D01*
X149421939Y-104227128D01*
X149421944Y-104227128D01*
X149527320Y-104204729D01*
X149602288Y-104188794D01*
X149714393Y-104138882D01*
X149770722Y-104113803D01*
X149770724Y-104113802D01*
X149776752Y-104111118D01*
X149931253Y-103998866D01*
X149959996Y-103966944D01*
X150054621Y-103861852D01*
X150054622Y-103861851D01*
X150059040Y-103856944D01*
X150117314Y-103756010D01*
X150151223Y-103697279D01*
X150151224Y-103697278D01*
X150154527Y-103691556D01*
X150213542Y-103509928D01*
X150233504Y-103320000D01*
X150213542Y-103130072D01*
X150154527Y-102948444D01*
X150059040Y-102783056D01*
X149985863Y-102701785D01*
X149955147Y-102637779D01*
X149953500Y-102617476D01*
X149953500Y-91260000D01*
X152076496Y-91260000D01*
X152077186Y-91266565D01*
X152085556Y-91346197D01*
X152096458Y-91449928D01*
X152155473Y-91631556D01*
X152250960Y-91796944D01*
X152378747Y-91938866D01*
X152533248Y-92051118D01*
X152539276Y-92053802D01*
X152539278Y-92053803D01*
X152701681Y-92126109D01*
X152707712Y-92128794D01*
X152791318Y-92146565D01*
X152888056Y-92167128D01*
X152888061Y-92167128D01*
X152894513Y-92168500D01*
X153085487Y-92168500D01*
X153091939Y-92167128D01*
X153091944Y-92167128D01*
X153188682Y-92146565D01*
X153272288Y-92128794D01*
X153278319Y-92126109D01*
X153440722Y-92053803D01*
X153440724Y-92053802D01*
X153446752Y-92051118D01*
X153601253Y-91938866D01*
X153729040Y-91796944D01*
X153763576Y-91737126D01*
X153814957Y-91688134D01*
X153873680Y-91676815D01*
X153848236Y-91641084D01*
X153844858Y-91570168D01*
X153847473Y-91560937D01*
X153879901Y-91461134D01*
X153883542Y-91449928D01*
X153894445Y-91346197D01*
X153902814Y-91266565D01*
X153903504Y-91260000D01*
X153883542Y-91070072D01*
X153824527Y-90888444D01*
X153729040Y-90723056D01*
X153601253Y-90581134D01*
X153446752Y-90468882D01*
X153440724Y-90466198D01*
X153440722Y-90466197D01*
X153278319Y-90393891D01*
X153278318Y-90393891D01*
X153272288Y-90391206D01*
X153178888Y-90371353D01*
X153091944Y-90352872D01*
X153091939Y-90352872D01*
X153085487Y-90351500D01*
X152894513Y-90351500D01*
X152888061Y-90352872D01*
X152888056Y-90352872D01*
X152801113Y-90371353D01*
X152707712Y-90391206D01*
X152701682Y-90393891D01*
X152701681Y-90393891D01*
X152539278Y-90466197D01*
X152539276Y-90466198D01*
X152533248Y-90468882D01*
X152378747Y-90581134D01*
X152250960Y-90723056D01*
X152155473Y-90888444D01*
X152096458Y-91070072D01*
X152076496Y-91260000D01*
X149953500Y-91260000D01*
X149953500Y-88894594D01*
X149973502Y-88826473D01*
X149990405Y-88805499D01*
X150942247Y-87853657D01*
X150950537Y-87846113D01*
X150957018Y-87842000D01*
X151003659Y-87792332D01*
X151006413Y-87789491D01*
X151026135Y-87769769D01*
X151028612Y-87766576D01*
X151036317Y-87757555D01*
X151061159Y-87731100D01*
X151066586Y-87725321D01*
X151070407Y-87718371D01*
X151076346Y-87707568D01*
X151087202Y-87691041D01*
X151092072Y-87684763D01*
X151099613Y-87675041D01*
X151101639Y-87676612D01*
X151144354Y-87636728D01*
X151214205Y-87624022D01*
X151261800Y-87639651D01*
X151261874Y-87639496D01*
X151263061Y-87640065D01*
X151264491Y-87640534D01*
X151271000Y-87644338D01*
X151479692Y-87724030D01*
X151484760Y-87725061D01*
X151484763Y-87725062D01*
X151579297Y-87744295D01*
X151698597Y-87768567D01*
X151703772Y-87768757D01*
X151703774Y-87768757D01*
X151916673Y-87776564D01*
X151916677Y-87776564D01*
X151921837Y-87776753D01*
X151926957Y-87776097D01*
X151926959Y-87776097D01*
X152138288Y-87749025D01*
X152138289Y-87749025D01*
X152143416Y-87748368D01*
X152200973Y-87731100D01*
X152352429Y-87685661D01*
X152352434Y-87685659D01*
X152357384Y-87684174D01*
X152557994Y-87585896D01*
X152739860Y-87456173D01*
X152807331Y-87388938D01*
X152848479Y-87347933D01*
X152910851Y-87314017D01*
X152981658Y-87319205D01*
X153038419Y-87361851D01*
X153055401Y-87392954D01*
X153096676Y-87503054D01*
X153105214Y-87518649D01*
X153181715Y-87620724D01*
X153194276Y-87633285D01*
X153296351Y-87709786D01*
X153311946Y-87718324D01*
X153432394Y-87763478D01*
X153447649Y-87767105D01*
X153498514Y-87772631D01*
X153505328Y-87773000D01*
X154127885Y-87773000D01*
X154143124Y-87768525D01*
X154144329Y-87767135D01*
X154146000Y-87759452D01*
X154146000Y-85075116D01*
X154141525Y-85059877D01*
X154140135Y-85058672D01*
X154132452Y-85057001D01*
X153505331Y-85057001D01*
X153498510Y-85057371D01*
X153447648Y-85062895D01*
X153432396Y-85066521D01*
X153311946Y-85111676D01*
X153296351Y-85120214D01*
X153194276Y-85196715D01*
X153181715Y-85209276D01*
X153105214Y-85311351D01*
X153096676Y-85326946D01*
X153055297Y-85437322D01*
X153012655Y-85494087D01*
X152946093Y-85518786D01*
X152876744Y-85503578D01*
X152844121Y-85477891D01*
X152793151Y-85421876D01*
X152793148Y-85421873D01*
X152789670Y-85418051D01*
X152785619Y-85414852D01*
X152785615Y-85414848D01*
X152618414Y-85282800D01*
X152618410Y-85282798D01*
X152614359Y-85279598D01*
X152592089Y-85267304D01*
X152534537Y-85235534D01*
X152418789Y-85171638D01*
X152413920Y-85169914D01*
X152413916Y-85169912D01*
X152213087Y-85098795D01*
X152213083Y-85098794D01*
X152208212Y-85097069D01*
X152203119Y-85096162D01*
X152203116Y-85096161D01*
X151993373Y-85058800D01*
X151993367Y-85058799D01*
X151988284Y-85057894D01*
X151914452Y-85056992D01*
X151770081Y-85055228D01*
X151770079Y-85055228D01*
X151764911Y-85055165D01*
X151544091Y-85088955D01*
X151462815Y-85115520D01*
X151391854Y-85117671D01*
X151330992Y-85081116D01*
X151299555Y-85017458D01*
X151307525Y-84946910D01*
X151314553Y-84932755D01*
X151381223Y-84817279D01*
X151381224Y-84817278D01*
X151384527Y-84811556D01*
X151443542Y-84629928D01*
X151444942Y-84616613D01*
X151462814Y-84446565D01*
X151463504Y-84440000D01*
X151443542Y-84250072D01*
X151384527Y-84068444D01*
X151361624Y-84028774D01*
X151297753Y-83918148D01*
X151289040Y-83903056D01*
X151269302Y-83881134D01*
X151165675Y-83766045D01*
X151165674Y-83766044D01*
X151161253Y-83761134D01*
X151030584Y-83666197D01*
X151012094Y-83652763D01*
X151012093Y-83652762D01*
X151006752Y-83648882D01*
X151000724Y-83646198D01*
X151000722Y-83646197D01*
X150838319Y-83573891D01*
X150838318Y-83573891D01*
X150832288Y-83571206D01*
X150738888Y-83551353D01*
X150651944Y-83532872D01*
X150651939Y-83532872D01*
X150645487Y-83531500D01*
X150454513Y-83531500D01*
X150448061Y-83532872D01*
X150448056Y-83532872D01*
X150361112Y-83551353D01*
X150267712Y-83571206D01*
X150261682Y-83573891D01*
X150261681Y-83573891D01*
X150099278Y-83646197D01*
X150099276Y-83646198D01*
X150093248Y-83648882D01*
X150087907Y-83652762D01*
X150087906Y-83652763D01*
X150007179Y-83711415D01*
X149940311Y-83735273D01*
X149871160Y-83719193D01*
X149859057Y-83711415D01*
X149792094Y-83662763D01*
X149792093Y-83662762D01*
X149786752Y-83658882D01*
X149780724Y-83656198D01*
X149780722Y-83656197D01*
X149618319Y-83583891D01*
X149618318Y-83583891D01*
X149612288Y-83581206D01*
X149518888Y-83561353D01*
X149431944Y-83542872D01*
X149431939Y-83542872D01*
X149425487Y-83541500D01*
X149234513Y-83541500D01*
X149228061Y-83542872D01*
X149228056Y-83542872D01*
X149141112Y-83561353D01*
X149047712Y-83581206D01*
X149041682Y-83583891D01*
X149041681Y-83583891D01*
X148879278Y-83656197D01*
X148879276Y-83656198D01*
X148873248Y-83658882D01*
X148867907Y-83662762D01*
X148867906Y-83662763D01*
X148830646Y-83689834D01*
X148718747Y-83771134D01*
X148714326Y-83776044D01*
X148714325Y-83776045D01*
X148619703Y-83881134D01*
X148590960Y-83913056D01*
X148554852Y-83975597D01*
X148501247Y-84068444D01*
X148495473Y-84078444D01*
X148436458Y-84260072D01*
X148435768Y-84266633D01*
X148435768Y-84266635D01*
X148419093Y-84425292D01*
X148392080Y-84490949D01*
X148382878Y-84501218D01*
X148031603Y-84852492D01*
X147687742Y-85196353D01*
X147679463Y-85203887D01*
X147672982Y-85208000D01*
X147667554Y-85213780D01*
X147667553Y-85213781D01*
X147648400Y-85234177D01*
X147587187Y-85270143D01*
X147516247Y-85267304D01*
X147495657Y-85258233D01*
X147343316Y-85174137D01*
X147338789Y-85171638D01*
X147333920Y-85169914D01*
X147333916Y-85169912D01*
X147133087Y-85098795D01*
X147133083Y-85098794D01*
X147128212Y-85097069D01*
X147123119Y-85096162D01*
X147123116Y-85096161D01*
X146913373Y-85058800D01*
X146913367Y-85058799D01*
X146908284Y-85057894D01*
X146834452Y-85056992D01*
X146690081Y-85055228D01*
X146690079Y-85055228D01*
X146684911Y-85055165D01*
X146464091Y-85088955D01*
X146321733Y-85135485D01*
X146300157Y-85142537D01*
X146229193Y-85144688D01*
X146168332Y-85108132D01*
X146136895Y-85044475D01*
X146135934Y-85020085D01*
X146135702Y-85020092D01*
X146133562Y-84952002D01*
X146133500Y-84948044D01*
X146133500Y-84920144D01*
X146132996Y-84916153D01*
X146132063Y-84904311D01*
X146130923Y-84868036D01*
X146130674Y-84860111D01*
X146128462Y-84852497D01*
X146128461Y-84852492D01*
X146125023Y-84840659D01*
X146121012Y-84821295D01*
X146119467Y-84809064D01*
X146118474Y-84801203D01*
X146115557Y-84793836D01*
X146115556Y-84793831D01*
X146102198Y-84760092D01*
X146098354Y-84748865D01*
X146088230Y-84714022D01*
X146086018Y-84706407D01*
X146075707Y-84688972D01*
X146067012Y-84671224D01*
X146059552Y-84652383D01*
X146033564Y-84616613D01*
X146027048Y-84606693D01*
X146008580Y-84575465D01*
X146008578Y-84575462D01*
X146004542Y-84568638D01*
X145990221Y-84554317D01*
X145977380Y-84539283D01*
X145970132Y-84529307D01*
X145965472Y-84522893D01*
X145955414Y-84514572D01*
X145915676Y-84455738D01*
X145910420Y-84430658D01*
X145894232Y-84276635D01*
X145894232Y-84276633D01*
X145893542Y-84270072D01*
X145834527Y-84088444D01*
X145828754Y-84078444D01*
X145796775Y-84023056D01*
X145739040Y-83923056D01*
X145726181Y-83908774D01*
X145615675Y-83786045D01*
X145615674Y-83786044D01*
X145611253Y-83781134D01*
X145456752Y-83668882D01*
X145450724Y-83666198D01*
X145450722Y-83666197D01*
X145288319Y-83593891D01*
X145288318Y-83593891D01*
X145282288Y-83591206D01*
X145181741Y-83569834D01*
X145101944Y-83552872D01*
X145101939Y-83552872D01*
X145095487Y-83551500D01*
X144904513Y-83551500D01*
X144898061Y-83552872D01*
X144898056Y-83552872D01*
X144818259Y-83569834D01*
X144717712Y-83591206D01*
X144711682Y-83593891D01*
X144711681Y-83593891D01*
X144549278Y-83666197D01*
X144549276Y-83666198D01*
X144543248Y-83668882D01*
X144388747Y-83781134D01*
X144384326Y-83786044D01*
X144384325Y-83786045D01*
X144273820Y-83908774D01*
X144260960Y-83923056D01*
X144257659Y-83928774D01*
X144171247Y-84078444D01*
X144165473Y-84088444D01*
X144165391Y-84088697D01*
X144120935Y-84141001D01*
X144053008Y-84161651D01*
X143984699Y-84142299D01*
X143942688Y-84098657D01*
X143940421Y-84094729D01*
X143899040Y-84023056D01*
X143795577Y-83908148D01*
X143775675Y-83886045D01*
X143775674Y-83886044D01*
X143771253Y-83881134D01*
X143640375Y-83786045D01*
X143622094Y-83772763D01*
X143622093Y-83772762D01*
X143616752Y-83768882D01*
X143610724Y-83766198D01*
X143610722Y-83766197D01*
X143448319Y-83693891D01*
X143448318Y-83693891D01*
X143442288Y-83691206D01*
X143348887Y-83671353D01*
X143261944Y-83652872D01*
X143261939Y-83652872D01*
X143255487Y-83651500D01*
X143064513Y-83651500D01*
X143058061Y-83652872D01*
X143058056Y-83652872D01*
X142971113Y-83671353D01*
X142877712Y-83691206D01*
X142871682Y-83693891D01*
X142871681Y-83693891D01*
X142709278Y-83766197D01*
X142709276Y-83766198D01*
X142703248Y-83768882D01*
X142697907Y-83772762D01*
X142697906Y-83772763D01*
X142679625Y-83786045D01*
X142548747Y-83881134D01*
X142544326Y-83886044D01*
X142544325Y-83886045D01*
X142524424Y-83908148D01*
X142420960Y-84023056D01*
X142325473Y-84188444D01*
X142266458Y-84370072D01*
X142246496Y-84560000D01*
X142266458Y-84749928D01*
X142268498Y-84756206D01*
X142323054Y-84924110D01*
X142325473Y-84931556D01*
X142326155Y-84932737D01*
X142336500Y-84981408D01*
X142336500Y-85020871D01*
X142316498Y-85088992D01*
X142262842Y-85135485D01*
X142192568Y-85145589D01*
X142168440Y-85139644D01*
X142156696Y-85135485D01*
X142113572Y-85120214D01*
X142053087Y-85098795D01*
X142053083Y-85098794D01*
X142048212Y-85097069D01*
X142043119Y-85096162D01*
X142043116Y-85096161D01*
X141833373Y-85058800D01*
X141833367Y-85058799D01*
X141828284Y-85057894D01*
X141754452Y-85056992D01*
X141610081Y-85055228D01*
X141610079Y-85055228D01*
X141604911Y-85055165D01*
X141384091Y-85088955D01*
X141171756Y-85158357D01*
X141144079Y-85172765D01*
X141023501Y-85235534D01*
X140973607Y-85261507D01*
X140969474Y-85264610D01*
X140969471Y-85264612D01*
X140886450Y-85326946D01*
X140794965Y-85395635D01*
X140640629Y-85557138D01*
X140514743Y-85741680D01*
X140420688Y-85944305D01*
X140360989Y-86159570D01*
X140337251Y-86381695D01*
X134963500Y-86381695D01*
X134963500Y-81544594D01*
X134983502Y-81476473D01*
X135000405Y-81455499D01*
X135085499Y-81370405D01*
X135147811Y-81336379D01*
X135174594Y-81333500D01*
X136371233Y-81333500D01*
X136382416Y-81334027D01*
X136389909Y-81335702D01*
X136397835Y-81335453D01*
X136397836Y-81335453D01*
X136457986Y-81333562D01*
X136461945Y-81333500D01*
X136489856Y-81333500D01*
X136493791Y-81333003D01*
X136493856Y-81332995D01*
X136505693Y-81332062D01*
X136537951Y-81331048D01*
X136541970Y-81330922D01*
X136549889Y-81330673D01*
X136569343Y-81325021D01*
X136588700Y-81321013D01*
X136600931Y-81319468D01*
X136600933Y-81319468D01*
X136608797Y-81318474D01*
X136621255Y-81313541D01*
X136668001Y-81304694D01*
X147049832Y-81334721D01*
G37*
%TD.AperFunction*%
%TA.AperFunction,Conductor*%
G36*
X128991617Y-81282492D02*
G01*
X129370864Y-81283589D01*
X129438927Y-81303788D01*
X129485265Y-81357577D01*
X129496500Y-81409588D01*
X129496500Y-86235406D01*
X129476498Y-86303527D01*
X129459595Y-86324501D01*
X128336534Y-87447561D01*
X128274222Y-87481587D01*
X128203406Y-87476522D01*
X128146571Y-87433975D01*
X128121760Y-87367455D01*
X128121439Y-87358289D01*
X128122925Y-86303527D01*
X128129367Y-81729193D01*
X128149465Y-81661101D01*
X128161727Y-81645066D01*
X128169040Y-81636944D01*
X128227314Y-81536010D01*
X128261223Y-81477279D01*
X128261224Y-81477277D01*
X128264527Y-81471556D01*
X128298208Y-81367897D01*
X128338282Y-81309291D01*
X128403678Y-81281654D01*
X128418403Y-81280834D01*
X128991617Y-81282492D01*
G37*
%TD.AperFunction*%
%TD*%
%TA.AperFunction,Conductor*%
%TO.N,GND*%
G36*
X126612164Y-78840002D02*
G01*
X126658657Y-78893658D01*
X126670043Y-78945956D01*
X126670602Y-80564512D01*
X126653721Y-80627555D01*
X126595473Y-80728444D01*
X126536458Y-80910072D01*
X126516496Y-81100000D01*
X126536458Y-81289928D01*
X126595473Y-81471556D01*
X126598776Y-81477278D01*
X126598777Y-81477279D01*
X126654091Y-81573085D01*
X126670972Y-81636042D01*
X126671498Y-83159599D01*
X126678534Y-103541097D01*
X126679957Y-107664083D01*
X126659978Y-107732210D01*
X126606339Y-107778722D01*
X126554083Y-107790126D01*
X125249029Y-107791432D01*
X117329625Y-107799360D01*
X117261485Y-107779426D01*
X117214939Y-107725817D01*
X117203500Y-107673360D01*
X117203500Y-102146695D01*
X118327251Y-102146695D01*
X118327548Y-102151848D01*
X118327548Y-102151851D01*
X118333011Y-102246590D01*
X118340110Y-102369715D01*
X118341247Y-102374761D01*
X118341248Y-102374767D01*
X118361119Y-102462939D01*
X118389222Y-102587639D01*
X118473266Y-102794616D01*
X118524019Y-102877438D01*
X118587291Y-102980688D01*
X118589987Y-102985088D01*
X118736250Y-103153938D01*
X118908126Y-103296632D01*
X119101000Y-103409338D01*
X119309692Y-103489030D01*
X119314760Y-103490061D01*
X119314763Y-103490062D01*
X119422017Y-103511883D01*
X119528597Y-103533567D01*
X119533772Y-103533757D01*
X119533774Y-103533757D01*
X119746673Y-103541564D01*
X119746677Y-103541564D01*
X119751837Y-103541753D01*
X119756957Y-103541097D01*
X119756959Y-103541097D01*
X119968288Y-103514025D01*
X119968289Y-103514025D01*
X119973416Y-103513368D01*
X119978366Y-103511883D01*
X120182429Y-103450661D01*
X120182434Y-103450659D01*
X120187384Y-103449174D01*
X120387994Y-103350896D01*
X120569860Y-103221173D01*
X120728096Y-103063489D01*
X120787594Y-102980689D01*
X120858453Y-102882077D01*
X120859776Y-102883028D01*
X120906645Y-102839857D01*
X120976580Y-102827625D01*
X121042026Y-102855144D01*
X121069875Y-102886994D01*
X121129987Y-102985088D01*
X121276250Y-103153938D01*
X121448126Y-103296632D01*
X121641000Y-103409338D01*
X121849692Y-103489030D01*
X121854760Y-103490061D01*
X121854763Y-103490062D01*
X121962017Y-103511883D01*
X122068597Y-103533567D01*
X122073772Y-103533757D01*
X122073774Y-103533757D01*
X122286673Y-103541564D01*
X122286677Y-103541564D01*
X122291837Y-103541753D01*
X122296957Y-103541097D01*
X122296959Y-103541097D01*
X122508288Y-103514025D01*
X122508289Y-103514025D01*
X122513416Y-103513368D01*
X122518366Y-103511883D01*
X122722429Y-103450661D01*
X122722434Y-103450659D01*
X122727384Y-103449174D01*
X122927994Y-103350896D01*
X123109860Y-103221173D01*
X123268096Y-103063489D01*
X123327594Y-102980689D01*
X123395435Y-102886277D01*
X123398453Y-102882077D01*
X123419320Y-102839857D01*
X123495136Y-102686453D01*
X123495137Y-102686451D01*
X123497430Y-102681811D01*
X123562370Y-102468069D01*
X123591529Y-102246590D01*
X123593156Y-102180000D01*
X123574852Y-101957361D01*
X123520431Y-101740702D01*
X123431354Y-101535840D01*
X123310014Y-101348277D01*
X123159670Y-101183051D01*
X123155619Y-101179852D01*
X123155615Y-101179848D01*
X122988414Y-101047800D01*
X122988410Y-101047798D01*
X122984359Y-101044598D01*
X122942569Y-101021529D01*
X122892598Y-100971097D01*
X122877826Y-100901654D01*
X122902942Y-100835248D01*
X122930293Y-100808642D01*
X122979247Y-100773723D01*
X122987648Y-100763023D01*
X122980660Y-100749870D01*
X122242812Y-100012022D01*
X122228868Y-100004408D01*
X122227035Y-100004539D01*
X122220420Y-100008790D01*
X121476737Y-100752473D01*
X121469977Y-100764853D01*
X121475258Y-100771907D01*
X121521969Y-100799203D01*
X121570693Y-100850841D01*
X121583764Y-100920624D01*
X121557033Y-100986396D01*
X121516584Y-101019752D01*
X121503607Y-101026507D01*
X121499474Y-101029610D01*
X121499471Y-101029612D01*
X121475247Y-101047800D01*
X121324965Y-101160635D01*
X121170629Y-101322138D01*
X121063201Y-101479621D01*
X121008293Y-101524621D01*
X120937768Y-101532792D01*
X120874021Y-101501538D01*
X120853324Y-101477054D01*
X120772822Y-101352617D01*
X120772820Y-101352614D01*
X120770014Y-101348277D01*
X120619670Y-101183051D01*
X120615619Y-101179852D01*
X120615615Y-101179848D01*
X120448414Y-101047800D01*
X120448410Y-101047798D01*
X120444359Y-101044598D01*
X120403053Y-101021796D01*
X120353084Y-100971364D01*
X120338312Y-100901921D01*
X120363428Y-100835516D01*
X120390780Y-100808909D01*
X120455110Y-100763023D01*
X120569860Y-100681173D01*
X120728096Y-100523489D01*
X120787594Y-100440689D01*
X120858453Y-100342077D01*
X120859640Y-100342930D01*
X120906960Y-100299362D01*
X120976897Y-100287145D01*
X121042338Y-100314678D01*
X121070166Y-100346512D01*
X121096459Y-100389419D01*
X121106916Y-100398880D01*
X121115694Y-100395096D01*
X121857978Y-99652812D01*
X121864356Y-99641132D01*
X122594408Y-99641132D01*
X122594539Y-99642965D01*
X122598790Y-99649580D01*
X123340474Y-100391264D01*
X123352484Y-100397823D01*
X123364223Y-100388855D01*
X123395004Y-100346019D01*
X123400315Y-100337180D01*
X123494670Y-100146267D01*
X123498469Y-100136672D01*
X123560376Y-99932915D01*
X123562555Y-99922834D01*
X123590590Y-99709887D01*
X123591109Y-99703212D01*
X123592572Y-99643364D01*
X123592378Y-99636646D01*
X123574781Y-99422604D01*
X123573096Y-99412424D01*
X123521214Y-99205875D01*
X123517894Y-99196124D01*
X123432972Y-99000814D01*
X123428105Y-98991739D01*
X123363063Y-98891197D01*
X123352377Y-98881995D01*
X123342812Y-98886398D01*
X122602022Y-99627188D01*
X122594408Y-99641132D01*
X121864356Y-99641132D01*
X121865592Y-99638868D01*
X121865461Y-99637035D01*
X121861210Y-99630420D01*
X121119849Y-98889059D01*
X121108313Y-98882759D01*
X121096031Y-98892382D01*
X121063499Y-98940072D01*
X121008587Y-98985075D01*
X120938063Y-98993246D01*
X120874316Y-98961992D01*
X120853618Y-98937508D01*
X120772822Y-98812617D01*
X120772820Y-98812614D01*
X120770014Y-98808277D01*
X120619670Y-98643051D01*
X120615619Y-98639852D01*
X120615615Y-98639848D01*
X120448414Y-98507800D01*
X120448410Y-98507798D01*
X120444359Y-98504598D01*
X120403053Y-98481796D01*
X120353084Y-98431364D01*
X120338312Y-98361921D01*
X120363428Y-98295516D01*
X120390780Y-98268909D01*
X120434603Y-98237650D01*
X120569860Y-98141173D01*
X120728096Y-97983489D01*
X120787594Y-97900689D01*
X120858453Y-97802077D01*
X120859776Y-97803028D01*
X120906645Y-97759857D01*
X120976580Y-97747625D01*
X121042026Y-97775144D01*
X121069875Y-97806994D01*
X121129987Y-97905088D01*
X121276250Y-98073938D01*
X121448126Y-98216632D01*
X121521445Y-98259476D01*
X121521955Y-98259774D01*
X121570679Y-98311412D01*
X121583750Y-98381195D01*
X121557019Y-98446967D01*
X121516562Y-98480327D01*
X121508460Y-98484544D01*
X121499734Y-98490039D01*
X121479677Y-98505099D01*
X121471223Y-98516427D01*
X121477968Y-98528758D01*
X122217188Y-99267978D01*
X122231132Y-99275592D01*
X122232965Y-99275461D01*
X122239580Y-99271210D01*
X122983389Y-98527401D01*
X122990410Y-98514544D01*
X122983611Y-98505213D01*
X122979559Y-98502521D01*
X122942602Y-98482120D01*
X122892631Y-98431687D01*
X122877859Y-98362245D01*
X122902975Y-98295839D01*
X122930327Y-98269232D01*
X122953797Y-98252491D01*
X123109860Y-98141173D01*
X123268096Y-97983489D01*
X123327594Y-97900689D01*
X123395435Y-97806277D01*
X123398453Y-97802077D01*
X123419320Y-97759857D01*
X123495136Y-97606453D01*
X123495137Y-97606451D01*
X123497430Y-97601811D01*
X123562370Y-97388069D01*
X123591529Y-97166590D01*
X123593156Y-97100000D01*
X123574852Y-96877361D01*
X123520431Y-96660702D01*
X123431354Y-96455840D01*
X123310014Y-96268277D01*
X123159670Y-96103051D01*
X123155619Y-96099852D01*
X123155615Y-96099848D01*
X122988414Y-95967800D01*
X122988410Y-95967798D01*
X122984359Y-95964598D01*
X122943053Y-95941796D01*
X122893084Y-95891364D01*
X122878312Y-95821921D01*
X122903428Y-95755516D01*
X122930780Y-95728909D01*
X122974603Y-95697650D01*
X123109860Y-95601173D01*
X123268096Y-95443489D01*
X123327594Y-95360689D01*
X123395435Y-95266277D01*
X123398453Y-95262077D01*
X123419320Y-95219857D01*
X123495136Y-95066453D01*
X123495137Y-95066451D01*
X123497430Y-95061811D01*
X123562370Y-94848069D01*
X123591529Y-94626590D01*
X123593156Y-94560000D01*
X123574852Y-94337361D01*
X123520431Y-94120702D01*
X123431354Y-93915840D01*
X123310014Y-93728277D01*
X123159670Y-93563051D01*
X123155619Y-93559852D01*
X123155615Y-93559848D01*
X122988414Y-93427800D01*
X122988410Y-93427798D01*
X122984359Y-93424598D01*
X122943053Y-93401796D01*
X122893084Y-93351364D01*
X122878312Y-93281921D01*
X122903428Y-93215516D01*
X122930780Y-93188909D01*
X122974603Y-93157650D01*
X123109860Y-93061173D01*
X123268096Y-92903489D01*
X123327594Y-92820689D01*
X123395435Y-92726277D01*
X123398453Y-92722077D01*
X123419320Y-92679857D01*
X123495136Y-92526453D01*
X123495137Y-92526451D01*
X123497430Y-92521811D01*
X123562370Y-92308069D01*
X123591529Y-92086590D01*
X123593156Y-92020000D01*
X123574852Y-91797361D01*
X123520431Y-91580702D01*
X123431354Y-91375840D01*
X123310014Y-91188277D01*
X123159670Y-91023051D01*
X123155619Y-91019852D01*
X123155615Y-91019848D01*
X122988414Y-90887800D01*
X122988410Y-90887798D01*
X122984359Y-90884598D01*
X122943053Y-90861796D01*
X122893084Y-90811364D01*
X122878312Y-90741921D01*
X122903428Y-90675516D01*
X122930780Y-90648909D01*
X122974603Y-90617650D01*
X123109860Y-90521173D01*
X123268096Y-90363489D01*
X123327594Y-90280689D01*
X123395435Y-90186277D01*
X123398453Y-90182077D01*
X123419320Y-90139857D01*
X123495136Y-89986453D01*
X123495137Y-89986451D01*
X123497430Y-89981811D01*
X123562370Y-89768069D01*
X123591529Y-89546590D01*
X123593156Y-89480000D01*
X123574852Y-89257361D01*
X123520431Y-89040702D01*
X123431354Y-88835840D01*
X123310014Y-88648277D01*
X123159670Y-88483051D01*
X123155619Y-88479852D01*
X123155615Y-88479848D01*
X122988414Y-88347800D01*
X122988410Y-88347798D01*
X122984359Y-88344598D01*
X122943053Y-88321796D01*
X122893084Y-88271364D01*
X122878312Y-88201921D01*
X122903428Y-88135516D01*
X122930780Y-88108909D01*
X122974603Y-88077650D01*
X123109860Y-87981173D01*
X123268096Y-87823489D01*
X123327594Y-87740689D01*
X123395435Y-87646277D01*
X123398453Y-87642077D01*
X123419320Y-87599857D01*
X123495136Y-87446453D01*
X123495137Y-87446451D01*
X123497430Y-87441811D01*
X123562370Y-87228069D01*
X123591529Y-87006590D01*
X123593156Y-86940000D01*
X123574852Y-86717361D01*
X123520431Y-86500702D01*
X123431354Y-86295840D01*
X123310014Y-86108277D01*
X123159670Y-85943051D01*
X123155616Y-85939849D01*
X123155615Y-85939848D01*
X122988414Y-85807800D01*
X122988410Y-85807798D01*
X122984359Y-85804598D01*
X122942569Y-85781529D01*
X122892598Y-85731097D01*
X122877826Y-85661654D01*
X122902942Y-85595248D01*
X122930293Y-85568642D01*
X122979247Y-85533723D01*
X122987648Y-85523023D01*
X122980660Y-85509870D01*
X122242812Y-84772022D01*
X122228868Y-84764408D01*
X122227035Y-84764539D01*
X122220420Y-84768790D01*
X121476737Y-85512473D01*
X121469977Y-85524853D01*
X121475258Y-85531907D01*
X121521969Y-85559203D01*
X121570693Y-85610841D01*
X121583764Y-85680624D01*
X121557033Y-85746396D01*
X121516584Y-85779752D01*
X121503607Y-85786507D01*
X121499474Y-85789610D01*
X121499471Y-85789612D01*
X121329100Y-85917530D01*
X121324965Y-85920635D01*
X121170629Y-86082138D01*
X121063201Y-86239621D01*
X121008293Y-86284621D01*
X120937768Y-86292792D01*
X120874021Y-86261538D01*
X120853324Y-86237054D01*
X120772822Y-86112617D01*
X120772820Y-86112614D01*
X120770014Y-86108277D01*
X120619670Y-85943051D01*
X120577006Y-85909357D01*
X120535944Y-85851441D01*
X120532712Y-85780518D01*
X120568337Y-85719107D01*
X120601647Y-85696376D01*
X120607007Y-85693865D01*
X120613946Y-85691550D01*
X120764348Y-85598478D01*
X120889305Y-85473303D01*
X120982115Y-85322738D01*
X121006913Y-85247975D01*
X121047342Y-85189616D01*
X121076630Y-85171934D01*
X121115694Y-85155096D01*
X121857978Y-84412812D01*
X121864356Y-84401132D01*
X122594408Y-84401132D01*
X122594539Y-84402965D01*
X122598790Y-84409580D01*
X123340474Y-85151264D01*
X123352484Y-85157823D01*
X123364223Y-85148855D01*
X123395004Y-85106019D01*
X123400315Y-85097180D01*
X123494670Y-84906267D01*
X123498469Y-84896672D01*
X123560376Y-84692915D01*
X123562555Y-84682834D01*
X123590590Y-84469887D01*
X123591109Y-84463212D01*
X123592572Y-84403364D01*
X123592378Y-84396646D01*
X123574781Y-84182604D01*
X123573096Y-84172424D01*
X123521214Y-83965875D01*
X123517894Y-83956124D01*
X123432972Y-83760814D01*
X123428105Y-83751739D01*
X123363063Y-83651197D01*
X123352377Y-83641995D01*
X123342812Y-83646398D01*
X122602022Y-84387188D01*
X122594408Y-84401132D01*
X121864356Y-84401132D01*
X121865592Y-84398868D01*
X121865461Y-84397035D01*
X121861210Y-84390420D01*
X121119849Y-83649059D01*
X121079510Y-83627031D01*
X121066523Y-83624206D01*
X121016322Y-83574003D01*
X121007388Y-83553497D01*
X120983870Y-83483007D01*
X120983869Y-83483005D01*
X120981550Y-83476054D01*
X120888478Y-83325652D01*
X120839167Y-83276427D01*
X121471223Y-83276427D01*
X121477968Y-83288758D01*
X122217188Y-84027978D01*
X122231132Y-84035592D01*
X122232965Y-84035461D01*
X122239580Y-84031210D01*
X122983389Y-83287401D01*
X122990410Y-83274544D01*
X122983611Y-83265213D01*
X122979554Y-83262518D01*
X122793117Y-83159599D01*
X122783705Y-83155369D01*
X122582959Y-83084280D01*
X122572989Y-83081646D01*
X122363327Y-83044301D01*
X122353073Y-83043331D01*
X122140116Y-83040728D01*
X122129832Y-83041448D01*
X121919321Y-83073661D01*
X121909293Y-83076050D01*
X121706868Y-83142212D01*
X121697359Y-83146209D01*
X121508466Y-83244540D01*
X121499734Y-83250039D01*
X121479677Y-83265099D01*
X121471223Y-83276427D01*
X120839167Y-83276427D01*
X120763303Y-83200695D01*
X120757072Y-83196854D01*
X120618968Y-83111725D01*
X120618966Y-83111724D01*
X120612738Y-83107885D01*
X120452254Y-83054655D01*
X120451389Y-83054368D01*
X120451387Y-83054368D01*
X120444861Y-83052203D01*
X120438025Y-83051503D01*
X120438022Y-83051502D01*
X120394969Y-83047091D01*
X120340400Y-83041500D01*
X119039600Y-83041500D01*
X119036354Y-83041837D01*
X119036350Y-83041837D01*
X118940692Y-83051762D01*
X118940688Y-83051763D01*
X118933834Y-83052474D01*
X118927298Y-83054655D01*
X118927296Y-83054655D01*
X118870329Y-83073661D01*
X118766054Y-83108450D01*
X118615652Y-83201522D01*
X118490695Y-83326697D01*
X118397885Y-83477262D01*
X118342203Y-83645139D01*
X118331500Y-83749600D01*
X118331500Y-85050400D01*
X118331837Y-85053646D01*
X118331837Y-85053650D01*
X118336354Y-85097180D01*
X118342474Y-85156166D01*
X118344655Y-85162702D01*
X118344655Y-85162704D01*
X118353634Y-85189616D01*
X118398450Y-85323946D01*
X118491522Y-85474348D01*
X118616697Y-85599305D01*
X118622927Y-85603145D01*
X118622928Y-85603146D01*
X118640464Y-85613955D01*
X118767262Y-85692115D01*
X118774209Y-85694419D01*
X118776276Y-85695383D01*
X118829561Y-85742299D01*
X118849023Y-85810576D01*
X118828482Y-85878536D01*
X118798681Y-85910337D01*
X118784965Y-85920635D01*
X118630629Y-86082138D01*
X118504743Y-86266680D01*
X118410688Y-86469305D01*
X118350989Y-86684570D01*
X118327251Y-86906695D01*
X118327548Y-86911848D01*
X118327548Y-86911851D01*
X118333011Y-87006590D01*
X118340110Y-87129715D01*
X118341247Y-87134761D01*
X118341248Y-87134767D01*
X118361119Y-87222939D01*
X118389222Y-87347639D01*
X118473266Y-87554616D01*
X118524019Y-87637438D01*
X118587291Y-87740688D01*
X118589987Y-87745088D01*
X118736250Y-87913938D01*
X118908126Y-88056632D01*
X118978595Y-88097811D01*
X118981445Y-88099476D01*
X119030169Y-88151114D01*
X119043240Y-88220897D01*
X119016509Y-88286669D01*
X118976055Y-88320027D01*
X118963607Y-88326507D01*
X118959474Y-88329610D01*
X118959471Y-88329612D01*
X118935247Y-88347800D01*
X118784965Y-88460635D01*
X118630629Y-88622138D01*
X118504743Y-88806680D01*
X118410688Y-89009305D01*
X118350989Y-89224570D01*
X118327251Y-89446695D01*
X118327548Y-89451848D01*
X118327548Y-89451851D01*
X118333011Y-89546590D01*
X118340110Y-89669715D01*
X118341247Y-89674761D01*
X118341248Y-89674767D01*
X118361119Y-89762939D01*
X118389222Y-89887639D01*
X118473266Y-90094616D01*
X118524019Y-90177438D01*
X118587291Y-90280688D01*
X118589987Y-90285088D01*
X118736250Y-90453938D01*
X118908126Y-90596632D01*
X118978595Y-90637811D01*
X118981445Y-90639476D01*
X119030169Y-90691114D01*
X119043240Y-90760897D01*
X119016509Y-90826669D01*
X118976055Y-90860027D01*
X118963607Y-90866507D01*
X118959474Y-90869610D01*
X118959471Y-90869612D01*
X118935247Y-90887800D01*
X118784965Y-91000635D01*
X118630629Y-91162138D01*
X118504743Y-91346680D01*
X118410688Y-91549305D01*
X118350989Y-91764570D01*
X118327251Y-91986695D01*
X118327548Y-91991848D01*
X118327548Y-91991851D01*
X118333011Y-92086590D01*
X118340110Y-92209715D01*
X118341247Y-92214761D01*
X118341248Y-92214767D01*
X118361119Y-92302939D01*
X118389222Y-92427639D01*
X118473266Y-92634616D01*
X118524019Y-92717438D01*
X118587291Y-92820688D01*
X118589987Y-92825088D01*
X118736250Y-92993938D01*
X118908126Y-93136632D01*
X118978595Y-93177811D01*
X118981445Y-93179476D01*
X119030169Y-93231114D01*
X119043240Y-93300897D01*
X119016509Y-93366669D01*
X118976055Y-93400027D01*
X118963607Y-93406507D01*
X118959474Y-93409610D01*
X118959471Y-93409612D01*
X118935247Y-93427800D01*
X118784965Y-93540635D01*
X118630629Y-93702138D01*
X118504743Y-93886680D01*
X118410688Y-94089305D01*
X118350989Y-94304570D01*
X118327251Y-94526695D01*
X118327548Y-94531848D01*
X118327548Y-94531851D01*
X118333011Y-94626590D01*
X118340110Y-94749715D01*
X118341247Y-94754761D01*
X118341248Y-94754767D01*
X118361119Y-94842939D01*
X118389222Y-94967639D01*
X118473266Y-95174616D01*
X118524019Y-95257438D01*
X118587291Y-95360688D01*
X118589987Y-95365088D01*
X118736250Y-95533938D01*
X118908126Y-95676632D01*
X118978595Y-95717811D01*
X118981445Y-95719476D01*
X119030169Y-95771114D01*
X119043240Y-95840897D01*
X119016509Y-95906669D01*
X118976055Y-95940027D01*
X118963607Y-95946507D01*
X118959474Y-95949610D01*
X118959471Y-95949612D01*
X118935247Y-95967800D01*
X118784965Y-96080635D01*
X118630629Y-96242138D01*
X118504743Y-96426680D01*
X118410688Y-96629305D01*
X118350989Y-96844570D01*
X118327251Y-97066695D01*
X118327548Y-97071848D01*
X118327548Y-97071851D01*
X118333011Y-97166590D01*
X118340110Y-97289715D01*
X118341247Y-97294761D01*
X118341248Y-97294767D01*
X118361119Y-97382939D01*
X118389222Y-97507639D01*
X118473266Y-97714616D01*
X118524019Y-97797438D01*
X118587291Y-97900688D01*
X118589987Y-97905088D01*
X118736250Y-98073938D01*
X118908126Y-98216632D01*
X118978595Y-98257811D01*
X118981445Y-98259476D01*
X119030169Y-98311114D01*
X119043240Y-98380897D01*
X119016509Y-98446669D01*
X118976055Y-98480027D01*
X118963607Y-98486507D01*
X118959474Y-98489610D01*
X118959471Y-98489612D01*
X118789100Y-98617530D01*
X118784965Y-98620635D01*
X118630629Y-98782138D01*
X118504743Y-98966680D01*
X118410688Y-99169305D01*
X118350989Y-99384570D01*
X118327251Y-99606695D01*
X118327548Y-99611848D01*
X118327548Y-99611851D01*
X118329910Y-99652812D01*
X118340110Y-99829715D01*
X118341247Y-99834761D01*
X118341248Y-99834767D01*
X118362275Y-99928069D01*
X118389222Y-100047639D01*
X118473266Y-100254616D01*
X118589987Y-100445088D01*
X118736250Y-100613938D01*
X118908126Y-100756632D01*
X118919063Y-100763023D01*
X118981445Y-100799476D01*
X119030169Y-100851114D01*
X119043240Y-100920897D01*
X119016509Y-100986669D01*
X118976055Y-101020027D01*
X118963607Y-101026507D01*
X118959474Y-101029610D01*
X118959471Y-101029612D01*
X118935247Y-101047800D01*
X118784965Y-101160635D01*
X118630629Y-101322138D01*
X118504743Y-101506680D01*
X118410688Y-101709305D01*
X118350989Y-101924570D01*
X118327251Y-102146695D01*
X117203500Y-102146695D01*
X117203500Y-78946000D01*
X117223502Y-78877879D01*
X117277158Y-78831386D01*
X117329500Y-78820000D01*
X126544043Y-78820000D01*
X126612164Y-78840002D01*
G37*
%TD.AperFunction*%
%TD*%
M02*
