%TF.GenerationSoftware,KiCad,Pcbnew,6.0.11+dfsg-1~bpo11+1*%
%TF.CreationDate,2023-07-05T16:33:08+02:00*%
%TF.ProjectId,avert_21,61766572-745f-4323-912e-6b696361645f,rev?*%
%TF.SameCoordinates,Original*%
%TF.FileFunction,Soldermask,Bot*%
%TF.FilePolarity,Negative*%
%FSLAX46Y46*%
G04 Gerber Fmt 4.6, Leading zero omitted, Abs format (unit mm)*
G04 Created by KiCad (PCBNEW 6.0.11+dfsg-1~bpo11+1) date 2023-07-05 16:33:08*
%MOMM*%
%LPD*%
G01*
G04 APERTURE LIST*
G04 Aperture macros list*
%AMRoundRect*
0 Rectangle with rounded corners*
0 $1 Rounding radius*
0 $2 $3 $4 $5 $6 $7 $8 $9 X,Y pos of 4 corners*
0 Add a 4 corners polygon primitive as box body*
4,1,4,$2,$3,$4,$5,$6,$7,$8,$9,$2,$3,0*
0 Add four circle primitives for the rounded corners*
1,1,$1+$1,$2,$3*
1,1,$1+$1,$4,$5*
1,1,$1+$1,$6,$7*
1,1,$1+$1,$8,$9*
0 Add four rect primitives between the rounded corners*
20,1,$1+$1,$2,$3,$4,$5,0*
20,1,$1+$1,$4,$5,$6,$7,0*
20,1,$1+$1,$6,$7,$8,$9,0*
20,1,$1+$1,$8,$9,$2,$3,0*%
G04 Aperture macros list end*
%ADD10RoundRect,0.250000X0.600000X0.600000X-0.600000X0.600000X-0.600000X-0.600000X0.600000X-0.600000X0*%
%ADD11C,1.700000*%
%ADD12RoundRect,0.250000X0.600000X-0.600000X0.600000X0.600000X-0.600000X0.600000X-0.600000X-0.600000X0*%
%ADD13R,1.700000X1.700000*%
%ADD14O,1.700000X1.700000*%
%ADD15RoundRect,0.250000X-0.600000X0.600000X-0.600000X-0.600000X0.600000X-0.600000X0.600000X0.600000X0*%
%ADD16RoundRect,0.250000X-0.600000X-0.600000X0.600000X-0.600000X0.600000X0.600000X-0.600000X0.600000X0*%
G04 APERTURE END LIST*
D10*
%TO.C,J4*%
X167700000Y-102210000D03*
D11*
X165160000Y-102210000D03*
X167700000Y-99670000D03*
X165160000Y-99670000D03*
X167700000Y-97130000D03*
X165160000Y-97130000D03*
X167700000Y-94590000D03*
X165160000Y-94590000D03*
X167700000Y-92050000D03*
X165160000Y-92050000D03*
X167700000Y-89510000D03*
X165160000Y-89510000D03*
X167700000Y-86970000D03*
X165160000Y-86970000D03*
X167700000Y-84430000D03*
X165160000Y-84430000D03*
%TD*%
D12*
%TO.C,J2*%
X134790000Y-117340000D03*
D11*
X134790000Y-114800000D03*
X137330000Y-117340000D03*
X137330000Y-114800000D03*
X139870000Y-117340000D03*
X139870000Y-114800000D03*
X142410000Y-117340000D03*
X142410000Y-114800000D03*
X144950000Y-117340000D03*
X144950000Y-114800000D03*
X147490000Y-117340000D03*
X147490000Y-114800000D03*
X150030000Y-117340000D03*
X150030000Y-114800000D03*
X152570000Y-117340000D03*
X152570000Y-114800000D03*
%TD*%
D13*
%TO.C,J7*%
X160155000Y-68840000D03*
D14*
X162695000Y-68840000D03*
%TD*%
D15*
%TO.C,J1*%
X152550000Y-69357500D03*
D11*
X152550000Y-71897500D03*
X150010000Y-69357500D03*
X150010000Y-71897500D03*
X147470000Y-69357500D03*
X147470000Y-71897500D03*
X144930000Y-69357500D03*
X144930000Y-71897500D03*
X142390000Y-69357500D03*
X142390000Y-71897500D03*
X139850000Y-69357500D03*
X139850000Y-71897500D03*
X137310000Y-69357500D03*
X137310000Y-71897500D03*
X134770000Y-69357500D03*
X134770000Y-71897500D03*
%TD*%
D13*
%TO.C,J5*%
X154400000Y-86415000D03*
D14*
X151860000Y-86415000D03*
X149320000Y-86415000D03*
X146780000Y-86415000D03*
X144240000Y-86415000D03*
X141700000Y-86415000D03*
%TD*%
D13*
%TO.C,J8*%
X162795000Y-118340000D03*
D14*
X160255000Y-118340000D03*
X162795000Y-115800000D03*
X160255000Y-115800000D03*
X162795000Y-113260000D03*
X160255000Y-113260000D03*
X162795000Y-110720000D03*
X160255000Y-110720000D03*
%TD*%
D16*
%TO.C,J3*%
X119690000Y-84400000D03*
D11*
X122230000Y-84400000D03*
X119690000Y-86940000D03*
X122230000Y-86940000D03*
X119690000Y-89480000D03*
X122230000Y-89480000D03*
X119690000Y-92020000D03*
X122230000Y-92020000D03*
X119690000Y-94560000D03*
X122230000Y-94560000D03*
X119690000Y-97100000D03*
X122230000Y-97100000D03*
X119690000Y-99640000D03*
X122230000Y-99640000D03*
X119690000Y-102180000D03*
X122230000Y-102180000D03*
%TD*%
M02*
