%TF.GenerationSoftware,KiCad,Pcbnew,6.0.11+dfsg-1~bpo11+1*%
%TF.CreationDate,2023-07-05T16:24:21+02:00*%
%TF.ProjectId,dout8rib21,646f7574-3872-4696-9232-312e6b696361,1.1*%
%TF.SameCoordinates,Original*%
%TF.FileFunction,Legend,Top*%
%TF.FilePolarity,Positive*%
%FSLAX46Y46*%
G04 Gerber Fmt 4.6, Leading zero omitted, Abs format (unit mm)*
G04 Created by KiCad (PCBNEW 6.0.11+dfsg-1~bpo11+1) date 2023-07-05 16:24:21*
%MOMM*%
%LPD*%
G01*
G04 APERTURE LIST*
%ADD10C,0.150000*%
%ADD11C,0.200000*%
%ADD12C,0.100000*%
%ADD13C,0.120000*%
G04 APERTURE END LIST*
D10*
X126485714Y-110054761D02*
X127152380Y-109864285D01*
X126676190Y-109673809D01*
X127152380Y-109483333D01*
X126485714Y-109292857D01*
X126485714Y-109007142D02*
X127152380Y-108816666D01*
X126676190Y-108626190D01*
X127152380Y-108435714D01*
X126485714Y-108245238D01*
X126485714Y-107959523D02*
X127152380Y-107769047D01*
X126676190Y-107578571D01*
X127152380Y-107388095D01*
X126485714Y-107197619D01*
X127057142Y-106816666D02*
X127104761Y-106769047D01*
X127152380Y-106816666D01*
X127104761Y-106864285D01*
X127057142Y-106816666D01*
X127152380Y-106816666D01*
X127152380Y-106340476D02*
X126485714Y-106340476D01*
X126152380Y-106340476D02*
X126200000Y-106388095D01*
X126247619Y-106340476D01*
X126200000Y-106292857D01*
X126152380Y-106340476D01*
X126247619Y-106340476D01*
X127152380Y-105721428D02*
X127104761Y-105816666D01*
X127057142Y-105864285D01*
X126961904Y-105911904D01*
X126676190Y-105911904D01*
X126580952Y-105864285D01*
X126533333Y-105816666D01*
X126485714Y-105721428D01*
X126485714Y-105578571D01*
X126533333Y-105483333D01*
X126580952Y-105435714D01*
X126676190Y-105388095D01*
X126961904Y-105388095D01*
X127057142Y-105435714D01*
X127104761Y-105483333D01*
X127152380Y-105578571D01*
X127152380Y-105721428D01*
X126485714Y-105102380D02*
X126485714Y-104721428D01*
X126152380Y-104959523D02*
X127009523Y-104959523D01*
X127104761Y-104911904D01*
X127152380Y-104816666D01*
X127152380Y-104721428D01*
X126485714Y-104483333D02*
X127152380Y-104245238D01*
X126485714Y-104007142D01*
X127104761Y-103245238D02*
X127152380Y-103340476D01*
X127152380Y-103530952D01*
X127104761Y-103626190D01*
X127009523Y-103673809D01*
X126628571Y-103673809D01*
X126533333Y-103626190D01*
X126485714Y-103530952D01*
X126485714Y-103340476D01*
X126533333Y-103245238D01*
X126628571Y-103197619D01*
X126723809Y-103197619D01*
X126819047Y-103673809D01*
X127152380Y-102769047D02*
X126485714Y-102769047D01*
X126676190Y-102769047D02*
X126580952Y-102721428D01*
X126533333Y-102673809D01*
X126485714Y-102578571D01*
X126485714Y-102483333D01*
X126485714Y-102292857D02*
X126485714Y-101911904D01*
X126152380Y-102150000D02*
X127009523Y-102150000D01*
X127104761Y-102102380D01*
X127152380Y-102007142D01*
X127152380Y-101911904D01*
X127104761Y-101197619D02*
X127152380Y-101292857D01*
X127152380Y-101483333D01*
X127104761Y-101578571D01*
X127009523Y-101626190D01*
X126628571Y-101626190D01*
X126533333Y-101578571D01*
X126485714Y-101483333D01*
X126485714Y-101292857D01*
X126533333Y-101197619D01*
X126628571Y-101150000D01*
X126723809Y-101150000D01*
X126819047Y-101626190D01*
X127152380Y-100721428D02*
X126152380Y-100721428D01*
X126533333Y-100721428D02*
X126485714Y-100626190D01*
X126485714Y-100435714D01*
X126533333Y-100340476D01*
X126580952Y-100292857D01*
X126676190Y-100245238D01*
X126961904Y-100245238D01*
X127057142Y-100292857D01*
X127104761Y-100340476D01*
X127152380Y-100435714D01*
X127152380Y-100626190D01*
X127104761Y-100721428D01*
X127152380Y-99816666D02*
X126485714Y-99816666D01*
X126676190Y-99816666D02*
X126580952Y-99769047D01*
X126533333Y-99721428D01*
X126485714Y-99626190D01*
X126485714Y-99530952D01*
X127152380Y-98769047D02*
X126628571Y-98769047D01*
X126533333Y-98816666D01*
X126485714Y-98911904D01*
X126485714Y-99102380D01*
X126533333Y-99197619D01*
X127104761Y-98769047D02*
X127152380Y-98864285D01*
X127152380Y-99102380D01*
X127104761Y-99197619D01*
X127009523Y-99245238D01*
X126914285Y-99245238D01*
X126819047Y-99197619D01*
X126771428Y-99102380D01*
X126771428Y-98864285D01*
X126723809Y-98769047D01*
X127104761Y-97911904D02*
X127152380Y-98007142D01*
X127152380Y-98197619D01*
X127104761Y-98292857D01*
X127009523Y-98340476D01*
X126628571Y-98340476D01*
X126533333Y-98292857D01*
X126485714Y-98197619D01*
X126485714Y-98007142D01*
X126533333Y-97911904D01*
X126628571Y-97864285D01*
X126723809Y-97864285D01*
X126819047Y-98340476D01*
X127057142Y-97435714D02*
X127104761Y-97388095D01*
X127152380Y-97435714D01*
X127104761Y-97483333D01*
X127057142Y-97435714D01*
X127152380Y-97435714D01*
X127104761Y-96530952D02*
X127152380Y-96626190D01*
X127152380Y-96816666D01*
X127104761Y-96911904D01*
X127057142Y-96959523D01*
X126961904Y-97007142D01*
X126676190Y-97007142D01*
X126580952Y-96959523D01*
X126533333Y-96911904D01*
X126485714Y-96816666D01*
X126485714Y-96626190D01*
X126533333Y-96530952D01*
X127152380Y-95959523D02*
X127104761Y-96054761D01*
X127057142Y-96102380D01*
X126961904Y-96150000D01*
X126676190Y-96150000D01*
X126580952Y-96102380D01*
X126533333Y-96054761D01*
X126485714Y-95959523D01*
X126485714Y-95816666D01*
X126533333Y-95721428D01*
X126580952Y-95673809D01*
X126676190Y-95626190D01*
X126961904Y-95626190D01*
X127057142Y-95673809D01*
X127104761Y-95721428D01*
X127152380Y-95816666D01*
X127152380Y-95959523D01*
X127152380Y-95197619D02*
X126485714Y-95197619D01*
X126580952Y-95197619D02*
X126533333Y-95150000D01*
X126485714Y-95054761D01*
X126485714Y-94911904D01*
X126533333Y-94816666D01*
X126628571Y-94769047D01*
X127152380Y-94769047D01*
X126628571Y-94769047D02*
X126533333Y-94721428D01*
X126485714Y-94626190D01*
X126485714Y-94483333D01*
X126533333Y-94388095D01*
X126628571Y-94340476D01*
X127152380Y-94340476D01*
D11*
X148392857Y-96478571D02*
X148678571Y-96478571D01*
X148821428Y-96550000D01*
X148964285Y-96692857D01*
X149035714Y-96978571D01*
X149035714Y-97478571D01*
X148964285Y-97764285D01*
X148821428Y-97907142D01*
X148678571Y-97978571D01*
X148392857Y-97978571D01*
X148250000Y-97907142D01*
X148107142Y-97764285D01*
X148035714Y-97478571D01*
X148035714Y-96978571D01*
X148107142Y-96692857D01*
X148250000Y-96550000D01*
X148392857Y-96478571D01*
X150321428Y-96978571D02*
X150321428Y-97978571D01*
X149964285Y-96407142D02*
X149607142Y-97478571D01*
X150535714Y-97478571D01*
X154792857Y-96478571D02*
X155078571Y-96478571D01*
X155221428Y-96550000D01*
X155364285Y-96692857D01*
X155435714Y-96978571D01*
X155435714Y-97478571D01*
X155364285Y-97764285D01*
X155221428Y-97907142D01*
X155078571Y-97978571D01*
X154792857Y-97978571D01*
X154650000Y-97907142D01*
X154507142Y-97764285D01*
X154435714Y-97478571D01*
X154435714Y-96978571D01*
X154507142Y-96692857D01*
X154650000Y-96550000D01*
X154792857Y-96478571D01*
X155935714Y-96478571D02*
X156864285Y-96478571D01*
X156364285Y-97050000D01*
X156578571Y-97050000D01*
X156721428Y-97121428D01*
X156792857Y-97192857D01*
X156864285Y-97335714D01*
X156864285Y-97692857D01*
X156792857Y-97835714D01*
X156721428Y-97907142D01*
X156578571Y-97978571D01*
X156150000Y-97978571D01*
X156007142Y-97907142D01*
X155935714Y-97835714D01*
D12*
X170328571Y-114959285D02*
X170507142Y-115459285D01*
X170685714Y-114959285D01*
X170935714Y-114780714D02*
X170971428Y-114745000D01*
X171042857Y-114709285D01*
X171221428Y-114709285D01*
X171292857Y-114745000D01*
X171328571Y-114780714D01*
X171364285Y-114852142D01*
X171364285Y-114923571D01*
X171328571Y-115030714D01*
X170900000Y-115459285D01*
X171364285Y-115459285D01*
X171685714Y-115387857D02*
X171721428Y-115423571D01*
X171685714Y-115459285D01*
X171650000Y-115423571D01*
X171685714Y-115387857D01*
X171685714Y-115459285D01*
X172435714Y-115459285D02*
X172007142Y-115459285D01*
X172221428Y-115459285D02*
X172221428Y-114709285D01*
X172150000Y-114816428D01*
X172078571Y-114887857D01*
X172007142Y-114923571D01*
D11*
X174042857Y-96578571D02*
X174328571Y-96578571D01*
X174471428Y-96650000D01*
X174614285Y-96792857D01*
X174685714Y-97078571D01*
X174685714Y-97578571D01*
X174614285Y-97864285D01*
X174471428Y-98007142D01*
X174328571Y-98078571D01*
X174042857Y-98078571D01*
X173900000Y-98007142D01*
X173757142Y-97864285D01*
X173685714Y-97578571D01*
X173685714Y-97078571D01*
X173757142Y-96792857D01*
X173900000Y-96650000D01*
X174042857Y-96578571D01*
X175614285Y-96578571D02*
X175757142Y-96578571D01*
X175900000Y-96650000D01*
X175971428Y-96721428D01*
X176042857Y-96864285D01*
X176114285Y-97150000D01*
X176114285Y-97507142D01*
X176042857Y-97792857D01*
X175971428Y-97935714D01*
X175900000Y-98007142D01*
X175757142Y-98078571D01*
X175614285Y-98078571D01*
X175471428Y-98007142D01*
X175400000Y-97935714D01*
X175328571Y-97792857D01*
X175257142Y-97507142D01*
X175257142Y-97150000D01*
X175328571Y-96864285D01*
X175400000Y-96721428D01*
X175471428Y-96650000D01*
X175614285Y-96578571D01*
X161142857Y-96578571D02*
X161428571Y-96578571D01*
X161571428Y-96650000D01*
X161714285Y-96792857D01*
X161785714Y-97078571D01*
X161785714Y-97578571D01*
X161714285Y-97864285D01*
X161571428Y-98007142D01*
X161428571Y-98078571D01*
X161142857Y-98078571D01*
X161000000Y-98007142D01*
X160857142Y-97864285D01*
X160785714Y-97578571D01*
X160785714Y-97078571D01*
X160857142Y-96792857D01*
X161000000Y-96650000D01*
X161142857Y-96578571D01*
X162357142Y-96721428D02*
X162428571Y-96650000D01*
X162571428Y-96578571D01*
X162928571Y-96578571D01*
X163071428Y-96650000D01*
X163142857Y-96721428D01*
X163214285Y-96864285D01*
X163214285Y-97007142D01*
X163142857Y-97221428D01*
X162285714Y-98078571D01*
X163214285Y-98078571D01*
X169394285Y-114232857D02*
X169394285Y-113032857D01*
X169394285Y-114175714D02*
X169280000Y-114232857D01*
X169051428Y-114232857D01*
X168937142Y-114175714D01*
X168880000Y-114118571D01*
X168822857Y-114004285D01*
X168822857Y-113661428D01*
X168880000Y-113547142D01*
X168937142Y-113490000D01*
X169051428Y-113432857D01*
X169280000Y-113432857D01*
X169394285Y-113490000D01*
X170137142Y-114232857D02*
X170022857Y-114175714D01*
X169965714Y-114118571D01*
X169908571Y-114004285D01*
X169908571Y-113661428D01*
X169965714Y-113547142D01*
X170022857Y-113490000D01*
X170137142Y-113432857D01*
X170308571Y-113432857D01*
X170422857Y-113490000D01*
X170480000Y-113547142D01*
X170537142Y-113661428D01*
X170537142Y-114004285D01*
X170480000Y-114118571D01*
X170422857Y-114175714D01*
X170308571Y-114232857D01*
X170137142Y-114232857D01*
X171565714Y-113432857D02*
X171565714Y-114232857D01*
X171051428Y-113432857D02*
X171051428Y-114061428D01*
X171108571Y-114175714D01*
X171222857Y-114232857D01*
X171394285Y-114232857D01*
X171508571Y-114175714D01*
X171565714Y-114118571D01*
X171965714Y-113432857D02*
X172422857Y-113432857D01*
X172137142Y-113032857D02*
X172137142Y-114061428D01*
X172194285Y-114175714D01*
X172308571Y-114232857D01*
X172422857Y-114232857D01*
X172822857Y-113775714D02*
X173737142Y-113775714D01*
X174480000Y-113547142D02*
X174365714Y-113490000D01*
X174308571Y-113432857D01*
X174251428Y-113318571D01*
X174251428Y-113261428D01*
X174308571Y-113147142D01*
X174365714Y-113090000D01*
X174480000Y-113032857D01*
X174708571Y-113032857D01*
X174822857Y-113090000D01*
X174880000Y-113147142D01*
X174937142Y-113261428D01*
X174937142Y-113318571D01*
X174880000Y-113432857D01*
X174822857Y-113490000D01*
X174708571Y-113547142D01*
X174480000Y-113547142D01*
X174365714Y-113604285D01*
X174308571Y-113661428D01*
X174251428Y-113775714D01*
X174251428Y-114004285D01*
X174308571Y-114118571D01*
X174365714Y-114175714D01*
X174480000Y-114232857D01*
X174708571Y-114232857D01*
X174822857Y-114175714D01*
X174880000Y-114118571D01*
X174937142Y-114004285D01*
X174937142Y-113775714D01*
X174880000Y-113661428D01*
X174822857Y-113604285D01*
X174708571Y-113547142D01*
X131142857Y-82971428D02*
X129942857Y-82971428D01*
X131142857Y-82285714D01*
X129942857Y-82285714D01*
X131142857Y-81714285D02*
X129942857Y-81714285D01*
X129942857Y-81257142D01*
X130000000Y-81142857D01*
X130057142Y-81085714D01*
X130171428Y-81028571D01*
X130342857Y-81028571D01*
X130457142Y-81085714D01*
X130514285Y-81142857D01*
X130571428Y-81257142D01*
X130571428Y-81714285D01*
X131142857Y-80514285D02*
X129942857Y-80514285D01*
X131142857Y-79828571D01*
X129942857Y-79828571D01*
X128892857Y-96528571D02*
X129178571Y-96528571D01*
X129321428Y-96600000D01*
X129464285Y-96742857D01*
X129535714Y-97028571D01*
X129535714Y-97528571D01*
X129464285Y-97814285D01*
X129321428Y-97957142D01*
X129178571Y-98028571D01*
X128892857Y-98028571D01*
X128750000Y-97957142D01*
X128607142Y-97814285D01*
X128535714Y-97528571D01*
X128535714Y-97028571D01*
X128607142Y-96742857D01*
X128750000Y-96600000D01*
X128892857Y-96528571D01*
X130035714Y-96528571D02*
X131035714Y-96528571D01*
X130392857Y-98028571D01*
X167642857Y-96578571D02*
X167928571Y-96578571D01*
X168071428Y-96650000D01*
X168214285Y-96792857D01*
X168285714Y-97078571D01*
X168285714Y-97578571D01*
X168214285Y-97864285D01*
X168071428Y-98007142D01*
X167928571Y-98078571D01*
X167642857Y-98078571D01*
X167500000Y-98007142D01*
X167357142Y-97864285D01*
X167285714Y-97578571D01*
X167285714Y-97078571D01*
X167357142Y-96792857D01*
X167500000Y-96650000D01*
X167642857Y-96578571D01*
X169714285Y-98078571D02*
X168857142Y-98078571D01*
X169285714Y-98078571D02*
X169285714Y-96578571D01*
X169142857Y-96792857D01*
X169000000Y-96935714D01*
X168857142Y-97007142D01*
X131142857Y-78942857D02*
X129942857Y-78942857D01*
X129942857Y-78485714D01*
X130000000Y-78371428D01*
X130057142Y-78314285D01*
X130171428Y-78257142D01*
X130342857Y-78257142D01*
X130457142Y-78314285D01*
X130514285Y-78371428D01*
X130571428Y-78485714D01*
X130571428Y-78942857D01*
X131142857Y-77742857D02*
X129942857Y-77742857D01*
X131142857Y-77057142D01*
X129942857Y-77057142D01*
X131142857Y-76485714D02*
X129942857Y-76485714D01*
X129942857Y-76028571D01*
X130000000Y-75914285D01*
X130057142Y-75857142D01*
X130171428Y-75800000D01*
X130342857Y-75800000D01*
X130457142Y-75857142D01*
X130514285Y-75914285D01*
X130571428Y-76028571D01*
X130571428Y-76485714D01*
X135392857Y-96478571D02*
X135678571Y-96478571D01*
X135821428Y-96550000D01*
X135964285Y-96692857D01*
X136035714Y-96978571D01*
X136035714Y-97478571D01*
X135964285Y-97764285D01*
X135821428Y-97907142D01*
X135678571Y-97978571D01*
X135392857Y-97978571D01*
X135250000Y-97907142D01*
X135107142Y-97764285D01*
X135035714Y-97478571D01*
X135035714Y-96978571D01*
X135107142Y-96692857D01*
X135250000Y-96550000D01*
X135392857Y-96478571D01*
X137321428Y-96478571D02*
X137035714Y-96478571D01*
X136892857Y-96550000D01*
X136821428Y-96621428D01*
X136678571Y-96835714D01*
X136607142Y-97121428D01*
X136607142Y-97692857D01*
X136678571Y-97835714D01*
X136750000Y-97907142D01*
X136892857Y-97978571D01*
X137178571Y-97978571D01*
X137321428Y-97907142D01*
X137392857Y-97835714D01*
X137464285Y-97692857D01*
X137464285Y-97335714D01*
X137392857Y-97192857D01*
X137321428Y-97121428D01*
X137178571Y-97050000D01*
X136892857Y-97050000D01*
X136750000Y-97121428D01*
X136678571Y-97192857D01*
X136607142Y-97335714D01*
X141892857Y-96478571D02*
X142178571Y-96478571D01*
X142321428Y-96550000D01*
X142464285Y-96692857D01*
X142535714Y-96978571D01*
X142535714Y-97478571D01*
X142464285Y-97764285D01*
X142321428Y-97907142D01*
X142178571Y-97978571D01*
X141892857Y-97978571D01*
X141750000Y-97907142D01*
X141607142Y-97764285D01*
X141535714Y-97478571D01*
X141535714Y-96978571D01*
X141607142Y-96692857D01*
X141750000Y-96550000D01*
X141892857Y-96478571D01*
X143892857Y-96478571D02*
X143178571Y-96478571D01*
X143107142Y-97192857D01*
X143178571Y-97121428D01*
X143321428Y-97050000D01*
X143678571Y-97050000D01*
X143821428Y-97121428D01*
X143892857Y-97192857D01*
X143964285Y-97335714D01*
X143964285Y-97692857D01*
X143892857Y-97835714D01*
X143821428Y-97907142D01*
X143678571Y-97978571D01*
X143321428Y-97978571D01*
X143178571Y-97907142D01*
X143107142Y-97835714D01*
D13*
%TO.C,U6*%
X144716666Y-89833333D02*
X145283333Y-89833333D01*
X145350000Y-89800000D01*
X145383333Y-89766666D01*
X145416666Y-89700000D01*
X145416666Y-89566666D01*
X145383333Y-89500000D01*
X145350000Y-89466666D01*
X145283333Y-89433333D01*
X144716666Y-89433333D01*
X144716666Y-88800000D02*
X144716666Y-88933333D01*
X144750000Y-89000000D01*
X144783333Y-89033333D01*
X144883333Y-89100000D01*
X145016666Y-89133333D01*
X145283333Y-89133333D01*
X145350000Y-89100000D01*
X145383333Y-89066666D01*
X145416666Y-89000000D01*
X145416666Y-88866666D01*
X145383333Y-88800000D01*
X145350000Y-88766666D01*
X145283333Y-88733333D01*
X145116666Y-88733333D01*
X145050000Y-88766666D01*
X145016666Y-88800000D01*
X144983333Y-88866666D01*
X144983333Y-89000000D01*
X145016666Y-89066666D01*
X145050000Y-89100000D01*
X145116666Y-89133333D01*
%TO.C,D23*%
X131850000Y-81916666D02*
X131850000Y-81216666D01*
X132016666Y-81216666D01*
X132116666Y-81250000D01*
X132183333Y-81316666D01*
X132216666Y-81383333D01*
X132250000Y-81516666D01*
X132250000Y-81616666D01*
X132216666Y-81750000D01*
X132183333Y-81816666D01*
X132116666Y-81883333D01*
X132016666Y-81916666D01*
X131850000Y-81916666D01*
X132516666Y-81283333D02*
X132550000Y-81250000D01*
X132616666Y-81216666D01*
X132783333Y-81216666D01*
X132850000Y-81250000D01*
X132883333Y-81283333D01*
X132916666Y-81350000D01*
X132916666Y-81416666D01*
X132883333Y-81516666D01*
X132483333Y-81916666D01*
X132916666Y-81916666D01*
X133150000Y-81216666D02*
X133583333Y-81216666D01*
X133350000Y-81483333D01*
X133450000Y-81483333D01*
X133516666Y-81516666D01*
X133550000Y-81550000D01*
X133583333Y-81616666D01*
X133583333Y-81783333D01*
X133550000Y-81850000D01*
X133516666Y-81883333D01*
X133450000Y-81916666D01*
X133250000Y-81916666D01*
X133183333Y-81883333D01*
X133150000Y-81850000D01*
%TO.C,Q4*%
X158723333Y-107653333D02*
X158656666Y-107620000D01*
X158590000Y-107553333D01*
X158490000Y-107453333D01*
X158423333Y-107420000D01*
X158356666Y-107420000D01*
X158390000Y-107586666D02*
X158323333Y-107553333D01*
X158256666Y-107486666D01*
X158223333Y-107353333D01*
X158223333Y-107120000D01*
X158256666Y-106986666D01*
X158323333Y-106920000D01*
X158390000Y-106886666D01*
X158523333Y-106886666D01*
X158590000Y-106920000D01*
X158656666Y-106986666D01*
X158690000Y-107120000D01*
X158690000Y-107353333D01*
X158656666Y-107486666D01*
X158590000Y-107553333D01*
X158523333Y-107586666D01*
X158390000Y-107586666D01*
X159290000Y-107120000D02*
X159290000Y-107586666D01*
X159123333Y-106853333D02*
X158956666Y-107353333D01*
X159390000Y-107353333D01*
%TO.C,Q7*%
X139353333Y-107683333D02*
X139286666Y-107650000D01*
X139220000Y-107583333D01*
X139120000Y-107483333D01*
X139053333Y-107450000D01*
X138986666Y-107450000D01*
X139020000Y-107616666D02*
X138953333Y-107583333D01*
X138886666Y-107516666D01*
X138853333Y-107383333D01*
X138853333Y-107150000D01*
X138886666Y-107016666D01*
X138953333Y-106950000D01*
X139020000Y-106916666D01*
X139153333Y-106916666D01*
X139220000Y-106950000D01*
X139286666Y-107016666D01*
X139320000Y-107150000D01*
X139320000Y-107383333D01*
X139286666Y-107516666D01*
X139220000Y-107583333D01*
X139153333Y-107616666D01*
X139020000Y-107616666D01*
X139553333Y-106916666D02*
X140020000Y-106916666D01*
X139720000Y-107616666D01*
%TO.C,F8*%
X136550000Y-85833333D02*
X136550000Y-86066666D01*
X136916666Y-86066666D02*
X136216666Y-86066666D01*
X136216666Y-85733333D01*
X136516666Y-85366666D02*
X136483333Y-85433333D01*
X136450000Y-85466666D01*
X136383333Y-85500000D01*
X136350000Y-85500000D01*
X136283333Y-85466666D01*
X136250000Y-85433333D01*
X136216666Y-85366666D01*
X136216666Y-85233333D01*
X136250000Y-85166666D01*
X136283333Y-85133333D01*
X136350000Y-85100000D01*
X136383333Y-85100000D01*
X136450000Y-85133333D01*
X136483333Y-85166666D01*
X136516666Y-85233333D01*
X136516666Y-85366666D01*
X136550000Y-85433333D01*
X136583333Y-85466666D01*
X136650000Y-85500000D01*
X136783333Y-85500000D01*
X136850000Y-85466666D01*
X136883333Y-85433333D01*
X136916666Y-85366666D01*
X136916666Y-85233333D01*
X136883333Y-85166666D01*
X136850000Y-85133333D01*
X136783333Y-85100000D01*
X136650000Y-85100000D01*
X136583333Y-85133333D01*
X136550000Y-85166666D01*
X136516666Y-85233333D01*
%TO.C,D21*%
X134456666Y-99770000D02*
X133756666Y-99770000D01*
X133756666Y-99603333D01*
X133790000Y-99503333D01*
X133856666Y-99436666D01*
X133923333Y-99403333D01*
X134056666Y-99370000D01*
X134156666Y-99370000D01*
X134290000Y-99403333D01*
X134356666Y-99436666D01*
X134423333Y-99503333D01*
X134456666Y-99603333D01*
X134456666Y-99770000D01*
X133823333Y-99103333D02*
X133790000Y-99070000D01*
X133756666Y-99003333D01*
X133756666Y-98836666D01*
X133790000Y-98770000D01*
X133823333Y-98736666D01*
X133890000Y-98703333D01*
X133956666Y-98703333D01*
X134056666Y-98736666D01*
X134456666Y-99136666D01*
X134456666Y-98703333D01*
X134456666Y-98036666D02*
X134456666Y-98436666D01*
X134456666Y-98236666D02*
X133756666Y-98236666D01*
X133856666Y-98303333D01*
X133923333Y-98370000D01*
X133956666Y-98436666D01*
%TO.C,F7*%
X142050000Y-85933333D02*
X142050000Y-86166666D01*
X142416666Y-86166666D02*
X141716666Y-86166666D01*
X141716666Y-85833333D01*
X141716666Y-85633333D02*
X141716666Y-85166666D01*
X142416666Y-85466666D01*
%TO.C,Q1*%
X178043333Y-107913333D02*
X177976666Y-107880000D01*
X177910000Y-107813333D01*
X177810000Y-107713333D01*
X177743333Y-107680000D01*
X177676666Y-107680000D01*
X177710000Y-107846666D02*
X177643333Y-107813333D01*
X177576666Y-107746666D01*
X177543333Y-107613333D01*
X177543333Y-107380000D01*
X177576666Y-107246666D01*
X177643333Y-107180000D01*
X177710000Y-107146666D01*
X177843333Y-107146666D01*
X177910000Y-107180000D01*
X177976666Y-107246666D01*
X178010000Y-107380000D01*
X178010000Y-107613333D01*
X177976666Y-107746666D01*
X177910000Y-107813333D01*
X177843333Y-107846666D01*
X177710000Y-107846666D01*
X178676666Y-107846666D02*
X178276666Y-107846666D01*
X178476666Y-107846666D02*
X178476666Y-107146666D01*
X178410000Y-107246666D01*
X178343333Y-107313333D01*
X178276666Y-107346666D01*
%TO.C,R15*%
X141380000Y-106886666D02*
X141146666Y-106553333D01*
X140980000Y-106886666D02*
X140980000Y-106186666D01*
X141246666Y-106186666D01*
X141313333Y-106220000D01*
X141346666Y-106253333D01*
X141380000Y-106320000D01*
X141380000Y-106420000D01*
X141346666Y-106486666D01*
X141313333Y-106520000D01*
X141246666Y-106553333D01*
X140980000Y-106553333D01*
X142046666Y-106886666D02*
X141646666Y-106886666D01*
X141846666Y-106886666D02*
X141846666Y-106186666D01*
X141780000Y-106286666D01*
X141713333Y-106353333D01*
X141646666Y-106386666D01*
X142680000Y-106186666D02*
X142346666Y-106186666D01*
X142313333Y-106520000D01*
X142346666Y-106486666D01*
X142413333Y-106453333D01*
X142580000Y-106453333D01*
X142646666Y-106486666D01*
X142680000Y-106520000D01*
X142713333Y-106586666D01*
X142713333Y-106753333D01*
X142680000Y-106820000D01*
X142646666Y-106853333D01*
X142580000Y-106886666D01*
X142413333Y-106886666D01*
X142346666Y-106853333D01*
X142313333Y-106820000D01*
%TO.C,D18*%
X152410000Y-81946666D02*
X152410000Y-81246666D01*
X152576666Y-81246666D01*
X152676666Y-81280000D01*
X152743333Y-81346666D01*
X152776666Y-81413333D01*
X152810000Y-81546666D01*
X152810000Y-81646666D01*
X152776666Y-81780000D01*
X152743333Y-81846666D01*
X152676666Y-81913333D01*
X152576666Y-81946666D01*
X152410000Y-81946666D01*
X153476666Y-81946666D02*
X153076666Y-81946666D01*
X153276666Y-81946666D02*
X153276666Y-81246666D01*
X153210000Y-81346666D01*
X153143333Y-81413333D01*
X153076666Y-81446666D01*
X153876666Y-81546666D02*
X153810000Y-81513333D01*
X153776666Y-81480000D01*
X153743333Y-81413333D01*
X153743333Y-81380000D01*
X153776666Y-81313333D01*
X153810000Y-81280000D01*
X153876666Y-81246666D01*
X154010000Y-81246666D01*
X154076666Y-81280000D01*
X154110000Y-81313333D01*
X154143333Y-81380000D01*
X154143333Y-81413333D01*
X154110000Y-81480000D01*
X154076666Y-81513333D01*
X154010000Y-81546666D01*
X153876666Y-81546666D01*
X153810000Y-81580000D01*
X153776666Y-81613333D01*
X153743333Y-81680000D01*
X153743333Y-81813333D01*
X153776666Y-81880000D01*
X153810000Y-81913333D01*
X153876666Y-81946666D01*
X154010000Y-81946666D01*
X154076666Y-81913333D01*
X154110000Y-81880000D01*
X154143333Y-81813333D01*
X154143333Y-81680000D01*
X154110000Y-81613333D01*
X154076666Y-81580000D01*
X154010000Y-81546666D01*
%TO.C,D4*%
X166726666Y-99506666D02*
X166026666Y-99506666D01*
X166026666Y-99340000D01*
X166060000Y-99240000D01*
X166126666Y-99173333D01*
X166193333Y-99140000D01*
X166326666Y-99106666D01*
X166426666Y-99106666D01*
X166560000Y-99140000D01*
X166626666Y-99173333D01*
X166693333Y-99240000D01*
X166726666Y-99340000D01*
X166726666Y-99506666D01*
X166260000Y-98506666D02*
X166726666Y-98506666D01*
X165993333Y-98673333D02*
X166493333Y-98840000D01*
X166493333Y-98406666D01*
%TO.C,R20*%
X134880000Y-106956666D02*
X134646666Y-106623333D01*
X134480000Y-106956666D02*
X134480000Y-106256666D01*
X134746666Y-106256666D01*
X134813333Y-106290000D01*
X134846666Y-106323333D01*
X134880000Y-106390000D01*
X134880000Y-106490000D01*
X134846666Y-106556666D01*
X134813333Y-106590000D01*
X134746666Y-106623333D01*
X134480000Y-106623333D01*
X135146666Y-106323333D02*
X135180000Y-106290000D01*
X135246666Y-106256666D01*
X135413333Y-106256666D01*
X135480000Y-106290000D01*
X135513333Y-106323333D01*
X135546666Y-106390000D01*
X135546666Y-106456666D01*
X135513333Y-106556666D01*
X135113333Y-106956666D01*
X135546666Y-106956666D01*
X135980000Y-106256666D02*
X136046666Y-106256666D01*
X136113333Y-106290000D01*
X136146666Y-106323333D01*
X136180000Y-106390000D01*
X136213333Y-106523333D01*
X136213333Y-106690000D01*
X136180000Y-106823333D01*
X136146666Y-106890000D01*
X136113333Y-106923333D01*
X136046666Y-106956666D01*
X135980000Y-106956666D01*
X135913333Y-106923333D01*
X135880000Y-106890000D01*
X135846666Y-106823333D01*
X135813333Y-106690000D01*
X135813333Y-106523333D01*
X135846666Y-106390000D01*
X135880000Y-106323333D01*
X135913333Y-106290000D01*
X135980000Y-106256666D01*
%TO.C,R6*%
X173583333Y-101736666D02*
X173350000Y-101403333D01*
X173183333Y-101736666D02*
X173183333Y-101036666D01*
X173450000Y-101036666D01*
X173516666Y-101070000D01*
X173550000Y-101103333D01*
X173583333Y-101170000D01*
X173583333Y-101270000D01*
X173550000Y-101336666D01*
X173516666Y-101370000D01*
X173450000Y-101403333D01*
X173183333Y-101403333D01*
X174183333Y-101036666D02*
X174050000Y-101036666D01*
X173983333Y-101070000D01*
X173950000Y-101103333D01*
X173883333Y-101203333D01*
X173850000Y-101336666D01*
X173850000Y-101603333D01*
X173883333Y-101670000D01*
X173916666Y-101703333D01*
X173983333Y-101736666D01*
X174116666Y-101736666D01*
X174183333Y-101703333D01*
X174216666Y-101670000D01*
X174250000Y-101603333D01*
X174250000Y-101436666D01*
X174216666Y-101370000D01*
X174183333Y-101336666D01*
X174116666Y-101303333D01*
X173983333Y-101303333D01*
X173916666Y-101336666D01*
X173883333Y-101370000D01*
X173850000Y-101436666D01*
%TO.C,R12*%
X160680000Y-101746666D02*
X160446666Y-101413333D01*
X160280000Y-101746666D02*
X160280000Y-101046666D01*
X160546666Y-101046666D01*
X160613333Y-101080000D01*
X160646666Y-101113333D01*
X160680000Y-101180000D01*
X160680000Y-101280000D01*
X160646666Y-101346666D01*
X160613333Y-101380000D01*
X160546666Y-101413333D01*
X160280000Y-101413333D01*
X161346666Y-101746666D02*
X160946666Y-101746666D01*
X161146666Y-101746666D02*
X161146666Y-101046666D01*
X161080000Y-101146666D01*
X161013333Y-101213333D01*
X160946666Y-101246666D01*
X161613333Y-101113333D02*
X161646666Y-101080000D01*
X161713333Y-101046666D01*
X161880000Y-101046666D01*
X161946666Y-101080000D01*
X161980000Y-101113333D01*
X162013333Y-101180000D01*
X162013333Y-101246666D01*
X161980000Y-101346666D01*
X161580000Y-101746666D01*
X162013333Y-101746666D01*
%TO.C,D16*%
X164450000Y-81976666D02*
X164450000Y-81276666D01*
X164616666Y-81276666D01*
X164716666Y-81310000D01*
X164783333Y-81376666D01*
X164816666Y-81443333D01*
X164850000Y-81576666D01*
X164850000Y-81676666D01*
X164816666Y-81810000D01*
X164783333Y-81876666D01*
X164716666Y-81943333D01*
X164616666Y-81976666D01*
X164450000Y-81976666D01*
X165516666Y-81976666D02*
X165116666Y-81976666D01*
X165316666Y-81976666D02*
X165316666Y-81276666D01*
X165250000Y-81376666D01*
X165183333Y-81443333D01*
X165116666Y-81476666D01*
X166116666Y-81276666D02*
X165983333Y-81276666D01*
X165916666Y-81310000D01*
X165883333Y-81343333D01*
X165816666Y-81443333D01*
X165783333Y-81576666D01*
X165783333Y-81843333D01*
X165816666Y-81910000D01*
X165850000Y-81943333D01*
X165916666Y-81976666D01*
X166050000Y-81976666D01*
X166116666Y-81943333D01*
X166150000Y-81910000D01*
X166183333Y-81843333D01*
X166183333Y-81676666D01*
X166150000Y-81610000D01*
X166116666Y-81576666D01*
X166050000Y-81543333D01*
X165916666Y-81543333D01*
X165850000Y-81576666D01*
X165816666Y-81610000D01*
X165783333Y-81676666D01*
%TO.C,D17*%
X158450000Y-81976666D02*
X158450000Y-81276666D01*
X158616666Y-81276666D01*
X158716666Y-81310000D01*
X158783333Y-81376666D01*
X158816666Y-81443333D01*
X158850000Y-81576666D01*
X158850000Y-81676666D01*
X158816666Y-81810000D01*
X158783333Y-81876666D01*
X158716666Y-81943333D01*
X158616666Y-81976666D01*
X158450000Y-81976666D01*
X159516666Y-81976666D02*
X159116666Y-81976666D01*
X159316666Y-81976666D02*
X159316666Y-81276666D01*
X159250000Y-81376666D01*
X159183333Y-81443333D01*
X159116666Y-81476666D01*
X159750000Y-81276666D02*
X160216666Y-81276666D01*
X159916666Y-81976666D01*
%TO.C,Q2*%
X171523333Y-107833333D02*
X171456666Y-107800000D01*
X171390000Y-107733333D01*
X171290000Y-107633333D01*
X171223333Y-107600000D01*
X171156666Y-107600000D01*
X171190000Y-107766666D02*
X171123333Y-107733333D01*
X171056666Y-107666666D01*
X171023333Y-107533333D01*
X171023333Y-107300000D01*
X171056666Y-107166666D01*
X171123333Y-107100000D01*
X171190000Y-107066666D01*
X171323333Y-107066666D01*
X171390000Y-107100000D01*
X171456666Y-107166666D01*
X171490000Y-107300000D01*
X171490000Y-107533333D01*
X171456666Y-107666666D01*
X171390000Y-107733333D01*
X171323333Y-107766666D01*
X171190000Y-107766666D01*
X171756666Y-107133333D02*
X171790000Y-107100000D01*
X171856666Y-107066666D01*
X172023333Y-107066666D01*
X172090000Y-107100000D01*
X172123333Y-107133333D01*
X172156666Y-107200000D01*
X172156666Y-107266666D01*
X172123333Y-107366666D01*
X171723333Y-107766666D01*
X172156666Y-107766666D01*
%TO.C,D14*%
X176350000Y-81916666D02*
X176350000Y-81216666D01*
X176516666Y-81216666D01*
X176616666Y-81250000D01*
X176683333Y-81316666D01*
X176716666Y-81383333D01*
X176750000Y-81516666D01*
X176750000Y-81616666D01*
X176716666Y-81750000D01*
X176683333Y-81816666D01*
X176616666Y-81883333D01*
X176516666Y-81916666D01*
X176350000Y-81916666D01*
X177416666Y-81916666D02*
X177016666Y-81916666D01*
X177216666Y-81916666D02*
X177216666Y-81216666D01*
X177150000Y-81316666D01*
X177083333Y-81383333D01*
X177016666Y-81416666D01*
X178016666Y-81450000D02*
X178016666Y-81916666D01*
X177850000Y-81183333D02*
X177683333Y-81683333D01*
X178116666Y-81683333D01*
%TO.C,D19*%
X146450000Y-81916666D02*
X146450000Y-81216666D01*
X146616666Y-81216666D01*
X146716666Y-81250000D01*
X146783333Y-81316666D01*
X146816666Y-81383333D01*
X146850000Y-81516666D01*
X146850000Y-81616666D01*
X146816666Y-81750000D01*
X146783333Y-81816666D01*
X146716666Y-81883333D01*
X146616666Y-81916666D01*
X146450000Y-81916666D01*
X147516666Y-81916666D02*
X147116666Y-81916666D01*
X147316666Y-81916666D02*
X147316666Y-81216666D01*
X147250000Y-81316666D01*
X147183333Y-81383333D01*
X147116666Y-81416666D01*
X147850000Y-81916666D02*
X147983333Y-81916666D01*
X148050000Y-81883333D01*
X148083333Y-81850000D01*
X148150000Y-81750000D01*
X148183333Y-81616666D01*
X148183333Y-81350000D01*
X148150000Y-81283333D01*
X148116666Y-81250000D01*
X148050000Y-81216666D01*
X147916666Y-81216666D01*
X147850000Y-81250000D01*
X147816666Y-81283333D01*
X147783333Y-81350000D01*
X147783333Y-81516666D01*
X147816666Y-81583333D01*
X147850000Y-81616666D01*
X147916666Y-81650000D01*
X148050000Y-81650000D01*
X148116666Y-81616666D01*
X148150000Y-81583333D01*
X148183333Y-81516666D01*
%TO.C,D15*%
X170450000Y-82006666D02*
X170450000Y-81306666D01*
X170616666Y-81306666D01*
X170716666Y-81340000D01*
X170783333Y-81406666D01*
X170816666Y-81473333D01*
X170850000Y-81606666D01*
X170850000Y-81706666D01*
X170816666Y-81840000D01*
X170783333Y-81906666D01*
X170716666Y-81973333D01*
X170616666Y-82006666D01*
X170450000Y-82006666D01*
X171516666Y-82006666D02*
X171116666Y-82006666D01*
X171316666Y-82006666D02*
X171316666Y-81306666D01*
X171250000Y-81406666D01*
X171183333Y-81473333D01*
X171116666Y-81506666D01*
X172150000Y-81306666D02*
X171816666Y-81306666D01*
X171783333Y-81640000D01*
X171816666Y-81606666D01*
X171883333Y-81573333D01*
X172050000Y-81573333D01*
X172116666Y-81606666D01*
X172150000Y-81640000D01*
X172183333Y-81706666D01*
X172183333Y-81873333D01*
X172150000Y-81940000D01*
X172116666Y-81973333D01*
X172050000Y-82006666D01*
X171883333Y-82006666D01*
X171816666Y-81973333D01*
X171783333Y-81940000D01*
%TO.C,J3*%
X126966666Y-83426666D02*
X126966666Y-83926666D01*
X126933333Y-84026666D01*
X126866666Y-84093333D01*
X126766666Y-84126666D01*
X126700000Y-84126666D01*
X127233333Y-83426666D02*
X127666666Y-83426666D01*
X127433333Y-83693333D01*
X127533333Y-83693333D01*
X127600000Y-83726666D01*
X127633333Y-83760000D01*
X127666666Y-83826666D01*
X127666666Y-83993333D01*
X127633333Y-84060000D01*
X127600000Y-84093333D01*
X127533333Y-84126666D01*
X127333333Y-84126666D01*
X127266666Y-84093333D01*
X127233333Y-84060000D01*
%TO.C,D11*%
X155450000Y-82006666D02*
X155450000Y-81306666D01*
X155616666Y-81306666D01*
X155716666Y-81340000D01*
X155783333Y-81406666D01*
X155816666Y-81473333D01*
X155850000Y-81606666D01*
X155850000Y-81706666D01*
X155816666Y-81840000D01*
X155783333Y-81906666D01*
X155716666Y-81973333D01*
X155616666Y-82006666D01*
X155450000Y-82006666D01*
X156516666Y-82006666D02*
X156116666Y-82006666D01*
X156316666Y-82006666D02*
X156316666Y-81306666D01*
X156250000Y-81406666D01*
X156183333Y-81473333D01*
X156116666Y-81506666D01*
X157183333Y-82006666D02*
X156783333Y-82006666D01*
X156983333Y-82006666D02*
X156983333Y-81306666D01*
X156916666Y-81406666D01*
X156850000Y-81473333D01*
X156783333Y-81506666D01*
%TO.C,F2*%
X168520000Y-85698333D02*
X168520000Y-85931666D01*
X168886666Y-85931666D02*
X168186666Y-85931666D01*
X168186666Y-85598333D01*
X168253333Y-85365000D02*
X168220000Y-85331666D01*
X168186666Y-85265000D01*
X168186666Y-85098333D01*
X168220000Y-85031666D01*
X168253333Y-84998333D01*
X168320000Y-84965000D01*
X168386666Y-84965000D01*
X168486666Y-84998333D01*
X168886666Y-85398333D01*
X168886666Y-84965000D01*
%TO.C,R24*%
X134980000Y-101706666D02*
X134746666Y-101373333D01*
X134580000Y-101706666D02*
X134580000Y-101006666D01*
X134846666Y-101006666D01*
X134913333Y-101040000D01*
X134946666Y-101073333D01*
X134980000Y-101140000D01*
X134980000Y-101240000D01*
X134946666Y-101306666D01*
X134913333Y-101340000D01*
X134846666Y-101373333D01*
X134580000Y-101373333D01*
X135246666Y-101073333D02*
X135280000Y-101040000D01*
X135346666Y-101006666D01*
X135513333Y-101006666D01*
X135580000Y-101040000D01*
X135613333Y-101073333D01*
X135646666Y-101140000D01*
X135646666Y-101206666D01*
X135613333Y-101306666D01*
X135213333Y-101706666D01*
X135646666Y-101706666D01*
X136246666Y-101240000D02*
X136246666Y-101706666D01*
X136080000Y-100973333D02*
X135913333Y-101473333D01*
X136346666Y-101473333D01*
%TO.C,F3*%
X163250000Y-85833333D02*
X163250000Y-86066666D01*
X163616666Y-86066666D02*
X162916666Y-86066666D01*
X162916666Y-85733333D01*
X162916666Y-85533333D02*
X162916666Y-85100000D01*
X163183333Y-85333333D01*
X163183333Y-85233333D01*
X163216666Y-85166666D01*
X163250000Y-85133333D01*
X163316666Y-85100000D01*
X163483333Y-85100000D01*
X163550000Y-85133333D01*
X163583333Y-85166666D01*
X163616666Y-85233333D01*
X163616666Y-85433333D01*
X163583333Y-85500000D01*
X163550000Y-85533333D01*
%TO.C,Q3*%
X165123333Y-107668333D02*
X165056666Y-107635000D01*
X164990000Y-107568333D01*
X164890000Y-107468333D01*
X164823333Y-107435000D01*
X164756666Y-107435000D01*
X164790000Y-107601666D02*
X164723333Y-107568333D01*
X164656666Y-107501666D01*
X164623333Y-107368333D01*
X164623333Y-107135000D01*
X164656666Y-107001666D01*
X164723333Y-106935000D01*
X164790000Y-106901666D01*
X164923333Y-106901666D01*
X164990000Y-106935000D01*
X165056666Y-107001666D01*
X165090000Y-107135000D01*
X165090000Y-107368333D01*
X165056666Y-107501666D01*
X164990000Y-107568333D01*
X164923333Y-107601666D01*
X164790000Y-107601666D01*
X165323333Y-106901666D02*
X165756666Y-106901666D01*
X165523333Y-107168333D01*
X165623333Y-107168333D01*
X165690000Y-107201666D01*
X165723333Y-107235000D01*
X165756666Y-107301666D01*
X165756666Y-107468333D01*
X165723333Y-107535000D01*
X165690000Y-107568333D01*
X165623333Y-107601666D01*
X165423333Y-107601666D01*
X165356666Y-107568333D01*
X165323333Y-107535000D01*
%TO.C,R3*%
X167133333Y-106876666D02*
X166900000Y-106543333D01*
X166733333Y-106876666D02*
X166733333Y-106176666D01*
X167000000Y-106176666D01*
X167066666Y-106210000D01*
X167100000Y-106243333D01*
X167133333Y-106310000D01*
X167133333Y-106410000D01*
X167100000Y-106476666D01*
X167066666Y-106510000D01*
X167000000Y-106543333D01*
X166733333Y-106543333D01*
X167366666Y-106176666D02*
X167800000Y-106176666D01*
X167566666Y-106443333D01*
X167666666Y-106443333D01*
X167733333Y-106476666D01*
X167766666Y-106510000D01*
X167800000Y-106576666D01*
X167800000Y-106743333D01*
X167766666Y-106810000D01*
X167733333Y-106843333D01*
X167666666Y-106876666D01*
X167466666Y-106876666D01*
X167400000Y-106843333D01*
X167366666Y-106810000D01*
%TO.C,D2*%
X179636666Y-99426666D02*
X178936666Y-99426666D01*
X178936666Y-99260000D01*
X178970000Y-99160000D01*
X179036666Y-99093333D01*
X179103333Y-99060000D01*
X179236666Y-99026666D01*
X179336666Y-99026666D01*
X179470000Y-99060000D01*
X179536666Y-99093333D01*
X179603333Y-99160000D01*
X179636666Y-99260000D01*
X179636666Y-99426666D01*
X179003333Y-98760000D02*
X178970000Y-98726666D01*
X178936666Y-98660000D01*
X178936666Y-98493333D01*
X178970000Y-98426666D01*
X179003333Y-98393333D01*
X179070000Y-98360000D01*
X179136666Y-98360000D01*
X179236666Y-98393333D01*
X179636666Y-98793333D01*
X179636666Y-98360000D01*
%TO.C,F1*%
X173760000Y-85593333D02*
X173760000Y-85826666D01*
X174126666Y-85826666D02*
X173426666Y-85826666D01*
X173426666Y-85493333D01*
X174126666Y-84860000D02*
X174126666Y-85260000D01*
X174126666Y-85060000D02*
X173426666Y-85060000D01*
X173526666Y-85126666D01*
X173593333Y-85193333D01*
X173626666Y-85260000D01*
%TO.C,R18*%
X147880000Y-101746666D02*
X147646666Y-101413333D01*
X147480000Y-101746666D02*
X147480000Y-101046666D01*
X147746666Y-101046666D01*
X147813333Y-101080000D01*
X147846666Y-101113333D01*
X147880000Y-101180000D01*
X147880000Y-101280000D01*
X147846666Y-101346666D01*
X147813333Y-101380000D01*
X147746666Y-101413333D01*
X147480000Y-101413333D01*
X148546666Y-101746666D02*
X148146666Y-101746666D01*
X148346666Y-101746666D02*
X148346666Y-101046666D01*
X148280000Y-101146666D01*
X148213333Y-101213333D01*
X148146666Y-101246666D01*
X148946666Y-101346666D02*
X148880000Y-101313333D01*
X148846666Y-101280000D01*
X148813333Y-101213333D01*
X148813333Y-101180000D01*
X148846666Y-101113333D01*
X148880000Y-101080000D01*
X148946666Y-101046666D01*
X149080000Y-101046666D01*
X149146666Y-101080000D01*
X149180000Y-101113333D01*
X149213333Y-101180000D01*
X149213333Y-101213333D01*
X149180000Y-101280000D01*
X149146666Y-101313333D01*
X149080000Y-101346666D01*
X148946666Y-101346666D01*
X148880000Y-101380000D01*
X148846666Y-101413333D01*
X148813333Y-101480000D01*
X148813333Y-101613333D01*
X148846666Y-101680000D01*
X148880000Y-101713333D01*
X148946666Y-101746666D01*
X149080000Y-101746666D01*
X149146666Y-101713333D01*
X149180000Y-101680000D01*
X149213333Y-101613333D01*
X149213333Y-101480000D01*
X149180000Y-101413333D01*
X149146666Y-101380000D01*
X149080000Y-101346666D01*
%TO.C,U5*%
X150116666Y-89833333D02*
X150683333Y-89833333D01*
X150750000Y-89800000D01*
X150783333Y-89766666D01*
X150816666Y-89700000D01*
X150816666Y-89566666D01*
X150783333Y-89500000D01*
X150750000Y-89466666D01*
X150683333Y-89433333D01*
X150116666Y-89433333D01*
X150116666Y-88766666D02*
X150116666Y-89100000D01*
X150450000Y-89133333D01*
X150416666Y-89100000D01*
X150383333Y-89033333D01*
X150383333Y-88866666D01*
X150416666Y-88800000D01*
X150450000Y-88766666D01*
X150516666Y-88733333D01*
X150683333Y-88733333D01*
X150750000Y-88766666D01*
X150783333Y-88800000D01*
X150816666Y-88866666D01*
X150816666Y-89033333D01*
X150783333Y-89100000D01*
X150750000Y-89133333D01*
%TO.C,R16*%
X152466666Y-105120000D02*
X152133333Y-105353333D01*
X152466666Y-105520000D02*
X151766666Y-105520000D01*
X151766666Y-105253333D01*
X151800000Y-105186666D01*
X151833333Y-105153333D01*
X151900000Y-105120000D01*
X152000000Y-105120000D01*
X152066666Y-105153333D01*
X152100000Y-105186666D01*
X152133333Y-105253333D01*
X152133333Y-105520000D01*
X152466666Y-104453333D02*
X152466666Y-104853333D01*
X152466666Y-104653333D02*
X151766666Y-104653333D01*
X151866666Y-104720000D01*
X151933333Y-104786666D01*
X151966666Y-104853333D01*
X151766666Y-103853333D02*
X151766666Y-103986666D01*
X151800000Y-104053333D01*
X151833333Y-104086666D01*
X151933333Y-104153333D01*
X152066666Y-104186666D01*
X152333333Y-104186666D01*
X152400000Y-104153333D01*
X152433333Y-104120000D01*
X152466666Y-104053333D01*
X152466666Y-103920000D01*
X152433333Y-103853333D01*
X152400000Y-103820000D01*
X152333333Y-103786666D01*
X152166666Y-103786666D01*
X152100000Y-103820000D01*
X152066666Y-103853333D01*
X152033333Y-103920000D01*
X152033333Y-104053333D01*
X152066666Y-104120000D01*
X152100000Y-104153333D01*
X152166666Y-104186666D01*
%TO.C,D7*%
X147426666Y-99396666D02*
X146726666Y-99396666D01*
X146726666Y-99230000D01*
X146760000Y-99130000D01*
X146826666Y-99063333D01*
X146893333Y-99030000D01*
X147026666Y-98996666D01*
X147126666Y-98996666D01*
X147260000Y-99030000D01*
X147326666Y-99063333D01*
X147393333Y-99130000D01*
X147426666Y-99230000D01*
X147426666Y-99396666D01*
X146726666Y-98763333D02*
X146726666Y-98296666D01*
X147426666Y-98596666D01*
%TO.C,R17*%
X145966666Y-105110000D02*
X145633333Y-105343333D01*
X145966666Y-105510000D02*
X145266666Y-105510000D01*
X145266666Y-105243333D01*
X145300000Y-105176666D01*
X145333333Y-105143333D01*
X145400000Y-105110000D01*
X145500000Y-105110000D01*
X145566666Y-105143333D01*
X145600000Y-105176666D01*
X145633333Y-105243333D01*
X145633333Y-105510000D01*
X145966666Y-104443333D02*
X145966666Y-104843333D01*
X145966666Y-104643333D02*
X145266666Y-104643333D01*
X145366666Y-104710000D01*
X145433333Y-104776666D01*
X145466666Y-104843333D01*
X145266666Y-104210000D02*
X145266666Y-103743333D01*
X145966666Y-104043333D01*
%TO.C,D25*%
X134850000Y-81916666D02*
X134850000Y-81216666D01*
X135016666Y-81216666D01*
X135116666Y-81250000D01*
X135183333Y-81316666D01*
X135216666Y-81383333D01*
X135250000Y-81516666D01*
X135250000Y-81616666D01*
X135216666Y-81750000D01*
X135183333Y-81816666D01*
X135116666Y-81883333D01*
X135016666Y-81916666D01*
X134850000Y-81916666D01*
X135516666Y-81283333D02*
X135550000Y-81250000D01*
X135616666Y-81216666D01*
X135783333Y-81216666D01*
X135850000Y-81250000D01*
X135883333Y-81283333D01*
X135916666Y-81350000D01*
X135916666Y-81416666D01*
X135883333Y-81516666D01*
X135483333Y-81916666D01*
X135916666Y-81916666D01*
X136550000Y-81216666D02*
X136216666Y-81216666D01*
X136183333Y-81550000D01*
X136216666Y-81516666D01*
X136283333Y-81483333D01*
X136450000Y-81483333D01*
X136516666Y-81516666D01*
X136550000Y-81550000D01*
X136583333Y-81616666D01*
X136583333Y-81783333D01*
X136550000Y-81850000D01*
X136516666Y-81883333D01*
X136450000Y-81916666D01*
X136283333Y-81916666D01*
X136216666Y-81883333D01*
X136183333Y-81850000D01*
%TO.C,D9*%
X167593333Y-82006666D02*
X167593333Y-81306666D01*
X167760000Y-81306666D01*
X167860000Y-81340000D01*
X167926666Y-81406666D01*
X167960000Y-81473333D01*
X167993333Y-81606666D01*
X167993333Y-81706666D01*
X167960000Y-81840000D01*
X167926666Y-81906666D01*
X167860000Y-81973333D01*
X167760000Y-82006666D01*
X167593333Y-82006666D01*
X168326666Y-82006666D02*
X168460000Y-82006666D01*
X168526666Y-81973333D01*
X168560000Y-81940000D01*
X168626666Y-81840000D01*
X168660000Y-81706666D01*
X168660000Y-81440000D01*
X168626666Y-81373333D01*
X168593333Y-81340000D01*
X168526666Y-81306666D01*
X168393333Y-81306666D01*
X168326666Y-81340000D01*
X168293333Y-81373333D01*
X168260000Y-81440000D01*
X168260000Y-81606666D01*
X168293333Y-81673333D01*
X168326666Y-81706666D01*
X168393333Y-81740000D01*
X168526666Y-81740000D01*
X168593333Y-81706666D01*
X168626666Y-81673333D01*
X168660000Y-81606666D01*
%TO.C,U7*%
X134216666Y-89833333D02*
X134783333Y-89833333D01*
X134850000Y-89800000D01*
X134883333Y-89766666D01*
X134916666Y-89700000D01*
X134916666Y-89566666D01*
X134883333Y-89500000D01*
X134850000Y-89466666D01*
X134783333Y-89433333D01*
X134216666Y-89433333D01*
X134216666Y-89166666D02*
X134216666Y-88700000D01*
X134916666Y-89000000D01*
%TO.C,D12*%
X149450000Y-81946666D02*
X149450000Y-81246666D01*
X149616666Y-81246666D01*
X149716666Y-81280000D01*
X149783333Y-81346666D01*
X149816666Y-81413333D01*
X149850000Y-81546666D01*
X149850000Y-81646666D01*
X149816666Y-81780000D01*
X149783333Y-81846666D01*
X149716666Y-81913333D01*
X149616666Y-81946666D01*
X149450000Y-81946666D01*
X150516666Y-81946666D02*
X150116666Y-81946666D01*
X150316666Y-81946666D02*
X150316666Y-81246666D01*
X150250000Y-81346666D01*
X150183333Y-81413333D01*
X150116666Y-81446666D01*
X150783333Y-81313333D02*
X150816666Y-81280000D01*
X150883333Y-81246666D01*
X151050000Y-81246666D01*
X151116666Y-81280000D01*
X151150000Y-81313333D01*
X151183333Y-81380000D01*
X151183333Y-81446666D01*
X151150000Y-81546666D01*
X150750000Y-81946666D01*
X151183333Y-81946666D01*
%TO.C,D3*%
X173076666Y-99416666D02*
X172376666Y-99416666D01*
X172376666Y-99250000D01*
X172410000Y-99150000D01*
X172476666Y-99083333D01*
X172543333Y-99050000D01*
X172676666Y-99016666D01*
X172776666Y-99016666D01*
X172910000Y-99050000D01*
X172976666Y-99083333D01*
X173043333Y-99150000D01*
X173076666Y-99250000D01*
X173076666Y-99416666D01*
X172376666Y-98783333D02*
X172376666Y-98350000D01*
X172643333Y-98583333D01*
X172643333Y-98483333D01*
X172676666Y-98416666D01*
X172710000Y-98383333D01*
X172776666Y-98350000D01*
X172943333Y-98350000D01*
X173010000Y-98383333D01*
X173043333Y-98416666D01*
X173076666Y-98483333D01*
X173076666Y-98683333D01*
X173043333Y-98750000D01*
X173010000Y-98783333D01*
%TO.C,J1*%
X167786666Y-118826666D02*
X167786666Y-119326666D01*
X167753333Y-119426666D01*
X167686666Y-119493333D01*
X167586666Y-119526666D01*
X167520000Y-119526666D01*
X168486666Y-119526666D02*
X168086666Y-119526666D01*
X168286666Y-119526666D02*
X168286666Y-118826666D01*
X168220000Y-118926666D01*
X168153333Y-118993333D01*
X168086666Y-119026666D01*
%TO.C,U1*%
X171316666Y-89833333D02*
X171883333Y-89833333D01*
X171950000Y-89800000D01*
X171983333Y-89766666D01*
X172016666Y-89700000D01*
X172016666Y-89566666D01*
X171983333Y-89500000D01*
X171950000Y-89466666D01*
X171883333Y-89433333D01*
X171316666Y-89433333D01*
X172016666Y-88733333D02*
X172016666Y-89133333D01*
X172016666Y-88933333D02*
X171316666Y-88933333D01*
X171416666Y-89000000D01*
X171483333Y-89066666D01*
X171516666Y-89133333D01*
%TO.C,D10*%
X161450000Y-82016666D02*
X161450000Y-81316666D01*
X161616666Y-81316666D01*
X161716666Y-81350000D01*
X161783333Y-81416666D01*
X161816666Y-81483333D01*
X161850000Y-81616666D01*
X161850000Y-81716666D01*
X161816666Y-81850000D01*
X161783333Y-81916666D01*
X161716666Y-81983333D01*
X161616666Y-82016666D01*
X161450000Y-82016666D01*
X162516666Y-82016666D02*
X162116666Y-82016666D01*
X162316666Y-82016666D02*
X162316666Y-81316666D01*
X162250000Y-81416666D01*
X162183333Y-81483333D01*
X162116666Y-81516666D01*
X162950000Y-81316666D02*
X163016666Y-81316666D01*
X163083333Y-81350000D01*
X163116666Y-81383333D01*
X163150000Y-81450000D01*
X163183333Y-81583333D01*
X163183333Y-81750000D01*
X163150000Y-81883333D01*
X163116666Y-81950000D01*
X163083333Y-81983333D01*
X163016666Y-82016666D01*
X162950000Y-82016666D01*
X162883333Y-81983333D01*
X162850000Y-81950000D01*
X162816666Y-81883333D01*
X162783333Y-81750000D01*
X162783333Y-81583333D01*
X162816666Y-81450000D01*
X162850000Y-81383333D01*
X162883333Y-81350000D01*
X162950000Y-81316666D01*
%TO.C,F4*%
X157910000Y-85693333D02*
X157910000Y-85926666D01*
X158276666Y-85926666D02*
X157576666Y-85926666D01*
X157576666Y-85593333D01*
X157810000Y-85026666D02*
X158276666Y-85026666D01*
X157543333Y-85193333D02*
X158043333Y-85360000D01*
X158043333Y-84926666D01*
%TO.C,Q8*%
X132903333Y-107873333D02*
X132836666Y-107840000D01*
X132770000Y-107773333D01*
X132670000Y-107673333D01*
X132603333Y-107640000D01*
X132536666Y-107640000D01*
X132570000Y-107806666D02*
X132503333Y-107773333D01*
X132436666Y-107706666D01*
X132403333Y-107573333D01*
X132403333Y-107340000D01*
X132436666Y-107206666D01*
X132503333Y-107140000D01*
X132570000Y-107106666D01*
X132703333Y-107106666D01*
X132770000Y-107140000D01*
X132836666Y-107206666D01*
X132870000Y-107340000D01*
X132870000Y-107573333D01*
X132836666Y-107706666D01*
X132770000Y-107773333D01*
X132703333Y-107806666D01*
X132570000Y-107806666D01*
X133270000Y-107406666D02*
X133203333Y-107373333D01*
X133170000Y-107340000D01*
X133136666Y-107273333D01*
X133136666Y-107240000D01*
X133170000Y-107173333D01*
X133203333Y-107140000D01*
X133270000Y-107106666D01*
X133403333Y-107106666D01*
X133470000Y-107140000D01*
X133503333Y-107173333D01*
X133536666Y-107240000D01*
X133536666Y-107273333D01*
X133503333Y-107340000D01*
X133470000Y-107373333D01*
X133403333Y-107406666D01*
X133270000Y-107406666D01*
X133203333Y-107440000D01*
X133170000Y-107473333D01*
X133136666Y-107540000D01*
X133136666Y-107673333D01*
X133170000Y-107740000D01*
X133203333Y-107773333D01*
X133270000Y-107806666D01*
X133403333Y-107806666D01*
X133470000Y-107773333D01*
X133503333Y-107740000D01*
X133536666Y-107673333D01*
X133536666Y-107540000D01*
X133503333Y-107473333D01*
X133470000Y-107440000D01*
X133403333Y-107406666D01*
%TO.C,R25*%
X128390000Y-101696666D02*
X128156666Y-101363333D01*
X127990000Y-101696666D02*
X127990000Y-100996666D01*
X128256666Y-100996666D01*
X128323333Y-101030000D01*
X128356666Y-101063333D01*
X128390000Y-101130000D01*
X128390000Y-101230000D01*
X128356666Y-101296666D01*
X128323333Y-101330000D01*
X128256666Y-101363333D01*
X127990000Y-101363333D01*
X128656666Y-101063333D02*
X128690000Y-101030000D01*
X128756666Y-100996666D01*
X128923333Y-100996666D01*
X128990000Y-101030000D01*
X129023333Y-101063333D01*
X129056666Y-101130000D01*
X129056666Y-101196666D01*
X129023333Y-101296666D01*
X128623333Y-101696666D01*
X129056666Y-101696666D01*
X129690000Y-100996666D02*
X129356666Y-100996666D01*
X129323333Y-101330000D01*
X129356666Y-101296666D01*
X129423333Y-101263333D01*
X129590000Y-101263333D01*
X129656666Y-101296666D01*
X129690000Y-101330000D01*
X129723333Y-101396666D01*
X129723333Y-101563333D01*
X129690000Y-101630000D01*
X129656666Y-101663333D01*
X129590000Y-101696666D01*
X129423333Y-101696666D01*
X129356666Y-101663333D01*
X129323333Y-101630000D01*
%TO.C,D13*%
X143450000Y-81916666D02*
X143450000Y-81216666D01*
X143616666Y-81216666D01*
X143716666Y-81250000D01*
X143783333Y-81316666D01*
X143816666Y-81383333D01*
X143850000Y-81516666D01*
X143850000Y-81616666D01*
X143816666Y-81750000D01*
X143783333Y-81816666D01*
X143716666Y-81883333D01*
X143616666Y-81916666D01*
X143450000Y-81916666D01*
X144516666Y-81916666D02*
X144116666Y-81916666D01*
X144316666Y-81916666D02*
X144316666Y-81216666D01*
X144250000Y-81316666D01*
X144183333Y-81383333D01*
X144116666Y-81416666D01*
X144750000Y-81216666D02*
X145183333Y-81216666D01*
X144950000Y-81483333D01*
X145050000Y-81483333D01*
X145116666Y-81516666D01*
X145150000Y-81550000D01*
X145183333Y-81616666D01*
X145183333Y-81783333D01*
X145150000Y-81850000D01*
X145116666Y-81883333D01*
X145050000Y-81916666D01*
X144850000Y-81916666D01*
X144783333Y-81883333D01*
X144750000Y-81850000D01*
%TO.C,R8*%
X160673333Y-106856666D02*
X160440000Y-106523333D01*
X160273333Y-106856666D02*
X160273333Y-106156666D01*
X160540000Y-106156666D01*
X160606666Y-106190000D01*
X160640000Y-106223333D01*
X160673333Y-106290000D01*
X160673333Y-106390000D01*
X160640000Y-106456666D01*
X160606666Y-106490000D01*
X160540000Y-106523333D01*
X160273333Y-106523333D01*
X161073333Y-106456666D02*
X161006666Y-106423333D01*
X160973333Y-106390000D01*
X160940000Y-106323333D01*
X160940000Y-106290000D01*
X160973333Y-106223333D01*
X161006666Y-106190000D01*
X161073333Y-106156666D01*
X161206666Y-106156666D01*
X161273333Y-106190000D01*
X161306666Y-106223333D01*
X161340000Y-106290000D01*
X161340000Y-106323333D01*
X161306666Y-106390000D01*
X161273333Y-106423333D01*
X161206666Y-106456666D01*
X161073333Y-106456666D01*
X161006666Y-106490000D01*
X160973333Y-106523333D01*
X160940000Y-106590000D01*
X160940000Y-106723333D01*
X160973333Y-106790000D01*
X161006666Y-106823333D01*
X161073333Y-106856666D01*
X161206666Y-106856666D01*
X161273333Y-106823333D01*
X161306666Y-106790000D01*
X161340000Y-106723333D01*
X161340000Y-106590000D01*
X161306666Y-106523333D01*
X161273333Y-106490000D01*
X161206666Y-106456666D01*
%TO.C,R11*%
X158866666Y-105120000D02*
X158533333Y-105353333D01*
X158866666Y-105520000D02*
X158166666Y-105520000D01*
X158166666Y-105253333D01*
X158200000Y-105186666D01*
X158233333Y-105153333D01*
X158300000Y-105120000D01*
X158400000Y-105120000D01*
X158466666Y-105153333D01*
X158500000Y-105186666D01*
X158533333Y-105253333D01*
X158533333Y-105520000D01*
X158866666Y-104453333D02*
X158866666Y-104853333D01*
X158866666Y-104653333D02*
X158166666Y-104653333D01*
X158266666Y-104720000D01*
X158333333Y-104786666D01*
X158366666Y-104853333D01*
X158866666Y-103786666D02*
X158866666Y-104186666D01*
X158866666Y-103986666D02*
X158166666Y-103986666D01*
X158266666Y-104053333D01*
X158333333Y-104120000D01*
X158366666Y-104186666D01*
%TO.C,R22*%
X139566666Y-105070000D02*
X139233333Y-105303333D01*
X139566666Y-105470000D02*
X138866666Y-105470000D01*
X138866666Y-105203333D01*
X138900000Y-105136666D01*
X138933333Y-105103333D01*
X139000000Y-105070000D01*
X139100000Y-105070000D01*
X139166666Y-105103333D01*
X139200000Y-105136666D01*
X139233333Y-105203333D01*
X139233333Y-105470000D01*
X138933333Y-104803333D02*
X138900000Y-104770000D01*
X138866666Y-104703333D01*
X138866666Y-104536666D01*
X138900000Y-104470000D01*
X138933333Y-104436666D01*
X139000000Y-104403333D01*
X139066666Y-104403333D01*
X139166666Y-104436666D01*
X139566666Y-104836666D01*
X139566666Y-104403333D01*
X138933333Y-104136666D02*
X138900000Y-104103333D01*
X138866666Y-104036666D01*
X138866666Y-103870000D01*
X138900000Y-103803333D01*
X138933333Y-103770000D01*
X139000000Y-103736666D01*
X139066666Y-103736666D01*
X139166666Y-103770000D01*
X139566666Y-104170000D01*
X139566666Y-103736666D01*
%TO.C,D22*%
X137750000Y-81916666D02*
X137750000Y-81216666D01*
X137916666Y-81216666D01*
X138016666Y-81250000D01*
X138083333Y-81316666D01*
X138116666Y-81383333D01*
X138150000Y-81516666D01*
X138150000Y-81616666D01*
X138116666Y-81750000D01*
X138083333Y-81816666D01*
X138016666Y-81883333D01*
X137916666Y-81916666D01*
X137750000Y-81916666D01*
X138416666Y-81283333D02*
X138450000Y-81250000D01*
X138516666Y-81216666D01*
X138683333Y-81216666D01*
X138750000Y-81250000D01*
X138783333Y-81283333D01*
X138816666Y-81350000D01*
X138816666Y-81416666D01*
X138783333Y-81516666D01*
X138383333Y-81916666D01*
X138816666Y-81916666D01*
X139083333Y-81283333D02*
X139116666Y-81250000D01*
X139183333Y-81216666D01*
X139350000Y-81216666D01*
X139416666Y-81250000D01*
X139450000Y-81283333D01*
X139483333Y-81350000D01*
X139483333Y-81416666D01*
X139450000Y-81516666D01*
X139050000Y-81916666D01*
X139483333Y-81916666D01*
%TO.C,U2*%
X166016666Y-89833333D02*
X166583333Y-89833333D01*
X166650000Y-89800000D01*
X166683333Y-89766666D01*
X166716666Y-89700000D01*
X166716666Y-89566666D01*
X166683333Y-89500000D01*
X166650000Y-89466666D01*
X166583333Y-89433333D01*
X166016666Y-89433333D01*
X166083333Y-89133333D02*
X166050000Y-89100000D01*
X166016666Y-89033333D01*
X166016666Y-88866666D01*
X166050000Y-88800000D01*
X166083333Y-88766666D01*
X166150000Y-88733333D01*
X166216666Y-88733333D01*
X166316666Y-88766666D01*
X166716666Y-89166666D01*
X166716666Y-88733333D01*
%TO.C,R5*%
X171666666Y-105126666D02*
X171333333Y-105360000D01*
X171666666Y-105526666D02*
X170966666Y-105526666D01*
X170966666Y-105260000D01*
X171000000Y-105193333D01*
X171033333Y-105160000D01*
X171100000Y-105126666D01*
X171200000Y-105126666D01*
X171266666Y-105160000D01*
X171300000Y-105193333D01*
X171333333Y-105260000D01*
X171333333Y-105526666D01*
X170966666Y-104493333D02*
X170966666Y-104826666D01*
X171300000Y-104860000D01*
X171266666Y-104826666D01*
X171233333Y-104760000D01*
X171233333Y-104593333D01*
X171266666Y-104526666D01*
X171300000Y-104493333D01*
X171366666Y-104460000D01*
X171533333Y-104460000D01*
X171600000Y-104493333D01*
X171633333Y-104526666D01*
X171666666Y-104593333D01*
X171666666Y-104760000D01*
X171633333Y-104826666D01*
X171600000Y-104860000D01*
%TO.C,F5*%
X152620000Y-85855833D02*
X152620000Y-86089166D01*
X152986666Y-86089166D02*
X152286666Y-86089166D01*
X152286666Y-85755833D01*
X152286666Y-85155833D02*
X152286666Y-85489166D01*
X152620000Y-85522500D01*
X152586666Y-85489166D01*
X152553333Y-85422500D01*
X152553333Y-85255833D01*
X152586666Y-85189166D01*
X152620000Y-85155833D01*
X152686666Y-85122500D01*
X152853333Y-85122500D01*
X152920000Y-85155833D01*
X152953333Y-85189166D01*
X152986666Y-85255833D01*
X152986666Y-85422500D01*
X152953333Y-85489166D01*
X152920000Y-85522500D01*
%TO.C,D1*%
X138546666Y-118156666D02*
X137846666Y-118156666D01*
X137846666Y-117990000D01*
X137880000Y-117890000D01*
X137946666Y-117823333D01*
X138013333Y-117790000D01*
X138146666Y-117756666D01*
X138246666Y-117756666D01*
X138380000Y-117790000D01*
X138446666Y-117823333D01*
X138513333Y-117890000D01*
X138546666Y-117990000D01*
X138546666Y-118156666D01*
X138546666Y-117090000D02*
X138546666Y-117490000D01*
X138546666Y-117290000D02*
X137846666Y-117290000D01*
X137946666Y-117356666D01*
X138013333Y-117423333D01*
X138046666Y-117490000D01*
%TO.C,U8*%
X139516666Y-89833333D02*
X140083333Y-89833333D01*
X140150000Y-89800000D01*
X140183333Y-89766666D01*
X140216666Y-89700000D01*
X140216666Y-89566666D01*
X140183333Y-89500000D01*
X140150000Y-89466666D01*
X140083333Y-89433333D01*
X139516666Y-89433333D01*
X139816666Y-89000000D02*
X139783333Y-89066666D01*
X139750000Y-89100000D01*
X139683333Y-89133333D01*
X139650000Y-89133333D01*
X139583333Y-89100000D01*
X139550000Y-89066666D01*
X139516666Y-89000000D01*
X139516666Y-88866666D01*
X139550000Y-88800000D01*
X139583333Y-88766666D01*
X139650000Y-88733333D01*
X139683333Y-88733333D01*
X139750000Y-88766666D01*
X139783333Y-88800000D01*
X139816666Y-88866666D01*
X139816666Y-89000000D01*
X139850000Y-89066666D01*
X139883333Y-89100000D01*
X139950000Y-89133333D01*
X140083333Y-89133333D01*
X140150000Y-89100000D01*
X140183333Y-89066666D01*
X140216666Y-89000000D01*
X140216666Y-88866666D01*
X140183333Y-88800000D01*
X140150000Y-88766666D01*
X140083333Y-88733333D01*
X139950000Y-88733333D01*
X139883333Y-88766666D01*
X139850000Y-88800000D01*
X139816666Y-88866666D01*
%TO.C,R4*%
X178066666Y-105116666D02*
X177733333Y-105350000D01*
X178066666Y-105516666D02*
X177366666Y-105516666D01*
X177366666Y-105250000D01*
X177400000Y-105183333D01*
X177433333Y-105150000D01*
X177500000Y-105116666D01*
X177600000Y-105116666D01*
X177666666Y-105150000D01*
X177700000Y-105183333D01*
X177733333Y-105250000D01*
X177733333Y-105516666D01*
X177600000Y-104516666D02*
X178066666Y-104516666D01*
X177333333Y-104683333D02*
X177833333Y-104850000D01*
X177833333Y-104416666D01*
%TO.C,R9*%
X154293333Y-106846666D02*
X154060000Y-106513333D01*
X153893333Y-106846666D02*
X153893333Y-106146666D01*
X154160000Y-106146666D01*
X154226666Y-106180000D01*
X154260000Y-106213333D01*
X154293333Y-106280000D01*
X154293333Y-106380000D01*
X154260000Y-106446666D01*
X154226666Y-106480000D01*
X154160000Y-106513333D01*
X153893333Y-106513333D01*
X154626666Y-106846666D02*
X154760000Y-106846666D01*
X154826666Y-106813333D01*
X154860000Y-106780000D01*
X154926666Y-106680000D01*
X154960000Y-106546666D01*
X154960000Y-106280000D01*
X154926666Y-106213333D01*
X154893333Y-106180000D01*
X154826666Y-106146666D01*
X154693333Y-106146666D01*
X154626666Y-106180000D01*
X154593333Y-106213333D01*
X154560000Y-106280000D01*
X154560000Y-106446666D01*
X154593333Y-106513333D01*
X154626666Y-106546666D01*
X154693333Y-106580000D01*
X154826666Y-106580000D01*
X154893333Y-106546666D01*
X154926666Y-106513333D01*
X154960000Y-106446666D01*
%TO.C,R13*%
X154280000Y-101736666D02*
X154046666Y-101403333D01*
X153880000Y-101736666D02*
X153880000Y-101036666D01*
X154146666Y-101036666D01*
X154213333Y-101070000D01*
X154246666Y-101103333D01*
X154280000Y-101170000D01*
X154280000Y-101270000D01*
X154246666Y-101336666D01*
X154213333Y-101370000D01*
X154146666Y-101403333D01*
X153880000Y-101403333D01*
X154946666Y-101736666D02*
X154546666Y-101736666D01*
X154746666Y-101736666D02*
X154746666Y-101036666D01*
X154680000Y-101136666D01*
X154613333Y-101203333D01*
X154546666Y-101236666D01*
X155180000Y-101036666D02*
X155613333Y-101036666D01*
X155380000Y-101303333D01*
X155480000Y-101303333D01*
X155546666Y-101336666D01*
X155580000Y-101370000D01*
X155613333Y-101436666D01*
X155613333Y-101603333D01*
X155580000Y-101670000D01*
X155546666Y-101703333D01*
X155480000Y-101736666D01*
X155280000Y-101736666D01*
X155213333Y-101703333D01*
X155180000Y-101670000D01*
%TO.C,R19*%
X141380000Y-101746666D02*
X141146666Y-101413333D01*
X140980000Y-101746666D02*
X140980000Y-101046666D01*
X141246666Y-101046666D01*
X141313333Y-101080000D01*
X141346666Y-101113333D01*
X141380000Y-101180000D01*
X141380000Y-101280000D01*
X141346666Y-101346666D01*
X141313333Y-101380000D01*
X141246666Y-101413333D01*
X140980000Y-101413333D01*
X142046666Y-101746666D02*
X141646666Y-101746666D01*
X141846666Y-101746666D02*
X141846666Y-101046666D01*
X141780000Y-101146666D01*
X141713333Y-101213333D01*
X141646666Y-101246666D01*
X142380000Y-101746666D02*
X142513333Y-101746666D01*
X142580000Y-101713333D01*
X142613333Y-101680000D01*
X142680000Y-101580000D01*
X142713333Y-101446666D01*
X142713333Y-101180000D01*
X142680000Y-101113333D01*
X142646666Y-101080000D01*
X142580000Y-101046666D01*
X142446666Y-101046666D01*
X142380000Y-101080000D01*
X142346666Y-101113333D01*
X142313333Y-101180000D01*
X142313333Y-101346666D01*
X142346666Y-101413333D01*
X142380000Y-101446666D01*
X142446666Y-101480000D01*
X142580000Y-101480000D01*
X142646666Y-101446666D01*
X142680000Y-101413333D01*
X142713333Y-101346666D01*
%TO.C,R14*%
X147900000Y-106876666D02*
X147666666Y-106543333D01*
X147500000Y-106876666D02*
X147500000Y-106176666D01*
X147766666Y-106176666D01*
X147833333Y-106210000D01*
X147866666Y-106243333D01*
X147900000Y-106310000D01*
X147900000Y-106410000D01*
X147866666Y-106476666D01*
X147833333Y-106510000D01*
X147766666Y-106543333D01*
X147500000Y-106543333D01*
X148566666Y-106876666D02*
X148166666Y-106876666D01*
X148366666Y-106876666D02*
X148366666Y-106176666D01*
X148300000Y-106276666D01*
X148233333Y-106343333D01*
X148166666Y-106376666D01*
X149166666Y-106410000D02*
X149166666Y-106876666D01*
X149000000Y-106143333D02*
X148833333Y-106643333D01*
X149266666Y-106643333D01*
%TO.C,Q6*%
X145823333Y-107693333D02*
X145756666Y-107660000D01*
X145690000Y-107593333D01*
X145590000Y-107493333D01*
X145523333Y-107460000D01*
X145456666Y-107460000D01*
X145490000Y-107626666D02*
X145423333Y-107593333D01*
X145356666Y-107526666D01*
X145323333Y-107393333D01*
X145323333Y-107160000D01*
X145356666Y-107026666D01*
X145423333Y-106960000D01*
X145490000Y-106926666D01*
X145623333Y-106926666D01*
X145690000Y-106960000D01*
X145756666Y-107026666D01*
X145790000Y-107160000D01*
X145790000Y-107393333D01*
X145756666Y-107526666D01*
X145690000Y-107593333D01*
X145623333Y-107626666D01*
X145490000Y-107626666D01*
X146390000Y-106926666D02*
X146256666Y-106926666D01*
X146190000Y-106960000D01*
X146156666Y-106993333D01*
X146090000Y-107093333D01*
X146056666Y-107226666D01*
X146056666Y-107493333D01*
X146090000Y-107560000D01*
X146123333Y-107593333D01*
X146190000Y-107626666D01*
X146323333Y-107626666D01*
X146390000Y-107593333D01*
X146423333Y-107560000D01*
X146456666Y-107493333D01*
X146456666Y-107326666D01*
X146423333Y-107260000D01*
X146390000Y-107226666D01*
X146323333Y-107193333D01*
X146190000Y-107193333D01*
X146123333Y-107226666D01*
X146090000Y-107260000D01*
X146056666Y-107326666D01*
%TO.C,J2*%
X178796666Y-73186666D02*
X178796666Y-73686666D01*
X178763333Y-73786666D01*
X178696666Y-73853333D01*
X178596666Y-73886666D01*
X178530000Y-73886666D01*
X179096666Y-73253333D02*
X179130000Y-73220000D01*
X179196666Y-73186666D01*
X179363333Y-73186666D01*
X179430000Y-73220000D01*
X179463333Y-73253333D01*
X179496666Y-73320000D01*
X179496666Y-73386666D01*
X179463333Y-73486666D01*
X179063333Y-73886666D01*
X179496666Y-73886666D01*
%TO.C,F6*%
X147190000Y-85700833D02*
X147190000Y-85934166D01*
X147556666Y-85934166D02*
X146856666Y-85934166D01*
X146856666Y-85600833D01*
X146856666Y-85034166D02*
X146856666Y-85167500D01*
X146890000Y-85234166D01*
X146923333Y-85267500D01*
X147023333Y-85334166D01*
X147156666Y-85367500D01*
X147423333Y-85367500D01*
X147490000Y-85334166D01*
X147523333Y-85300833D01*
X147556666Y-85234166D01*
X147556666Y-85100833D01*
X147523333Y-85034166D01*
X147490000Y-85000833D01*
X147423333Y-84967500D01*
X147256666Y-84967500D01*
X147190000Y-85000833D01*
X147156666Y-85034166D01*
X147123333Y-85100833D01*
X147123333Y-85234166D01*
X147156666Y-85300833D01*
X147190000Y-85334166D01*
X147256666Y-85367500D01*
%TO.C,D8*%
X173433333Y-81966666D02*
X173433333Y-81266666D01*
X173600000Y-81266666D01*
X173700000Y-81300000D01*
X173766666Y-81366666D01*
X173800000Y-81433333D01*
X173833333Y-81566666D01*
X173833333Y-81666666D01*
X173800000Y-81800000D01*
X173766666Y-81866666D01*
X173700000Y-81933333D01*
X173600000Y-81966666D01*
X173433333Y-81966666D01*
X174233333Y-81566666D02*
X174166666Y-81533333D01*
X174133333Y-81500000D01*
X174100000Y-81433333D01*
X174100000Y-81400000D01*
X174133333Y-81333333D01*
X174166666Y-81300000D01*
X174233333Y-81266666D01*
X174366666Y-81266666D01*
X174433333Y-81300000D01*
X174466666Y-81333333D01*
X174500000Y-81400000D01*
X174500000Y-81433333D01*
X174466666Y-81500000D01*
X174433333Y-81533333D01*
X174366666Y-81566666D01*
X174233333Y-81566666D01*
X174166666Y-81600000D01*
X174133333Y-81633333D01*
X174100000Y-81700000D01*
X174100000Y-81833333D01*
X174133333Y-81900000D01*
X174166666Y-81933333D01*
X174233333Y-81966666D01*
X174366666Y-81966666D01*
X174433333Y-81933333D01*
X174466666Y-81900000D01*
X174500000Y-81833333D01*
X174500000Y-81700000D01*
X174466666Y-81633333D01*
X174433333Y-81600000D01*
X174366666Y-81566666D01*
%TO.C,U3*%
X160716666Y-89833333D02*
X161283333Y-89833333D01*
X161350000Y-89800000D01*
X161383333Y-89766666D01*
X161416666Y-89700000D01*
X161416666Y-89566666D01*
X161383333Y-89500000D01*
X161350000Y-89466666D01*
X161283333Y-89433333D01*
X160716666Y-89433333D01*
X160716666Y-89166666D02*
X160716666Y-88733333D01*
X160983333Y-88966666D01*
X160983333Y-88866666D01*
X161016666Y-88800000D01*
X161050000Y-88766666D01*
X161116666Y-88733333D01*
X161283333Y-88733333D01*
X161350000Y-88766666D01*
X161383333Y-88800000D01*
X161416666Y-88866666D01*
X161416666Y-89066666D01*
X161383333Y-89133333D01*
X161350000Y-89166666D01*
%TO.C,R23*%
X133076666Y-105070000D02*
X132743333Y-105303333D01*
X133076666Y-105470000D02*
X132376666Y-105470000D01*
X132376666Y-105203333D01*
X132410000Y-105136666D01*
X132443333Y-105103333D01*
X132510000Y-105070000D01*
X132610000Y-105070000D01*
X132676666Y-105103333D01*
X132710000Y-105136666D01*
X132743333Y-105203333D01*
X132743333Y-105470000D01*
X132443333Y-104803333D02*
X132410000Y-104770000D01*
X132376666Y-104703333D01*
X132376666Y-104536666D01*
X132410000Y-104470000D01*
X132443333Y-104436666D01*
X132510000Y-104403333D01*
X132576666Y-104403333D01*
X132676666Y-104436666D01*
X133076666Y-104836666D01*
X133076666Y-104403333D01*
X132376666Y-104170000D02*
X132376666Y-103736666D01*
X132643333Y-103970000D01*
X132643333Y-103870000D01*
X132676666Y-103803333D01*
X132710000Y-103770000D01*
X132776666Y-103736666D01*
X132943333Y-103736666D01*
X133010000Y-103770000D01*
X133043333Y-103803333D01*
X133076666Y-103870000D01*
X133076666Y-104070000D01*
X133043333Y-104136666D01*
X133010000Y-104170000D01*
%TO.C,R1*%
X137543333Y-115376666D02*
X137310000Y-115043333D01*
X137143333Y-115376666D02*
X137143333Y-114676666D01*
X137410000Y-114676666D01*
X137476666Y-114710000D01*
X137510000Y-114743333D01*
X137543333Y-114810000D01*
X137543333Y-114910000D01*
X137510000Y-114976666D01*
X137476666Y-115010000D01*
X137410000Y-115043333D01*
X137143333Y-115043333D01*
X138210000Y-115376666D02*
X137810000Y-115376666D01*
X138010000Y-115376666D02*
X138010000Y-114676666D01*
X137943333Y-114776666D01*
X137876666Y-114843333D01*
X137810000Y-114876666D01*
%TO.C,R21*%
X128460000Y-107046666D02*
X128226666Y-106713333D01*
X128060000Y-107046666D02*
X128060000Y-106346666D01*
X128326666Y-106346666D01*
X128393333Y-106380000D01*
X128426666Y-106413333D01*
X128460000Y-106480000D01*
X128460000Y-106580000D01*
X128426666Y-106646666D01*
X128393333Y-106680000D01*
X128326666Y-106713333D01*
X128060000Y-106713333D01*
X128726666Y-106413333D02*
X128760000Y-106380000D01*
X128826666Y-106346666D01*
X128993333Y-106346666D01*
X129060000Y-106380000D01*
X129093333Y-106413333D01*
X129126666Y-106480000D01*
X129126666Y-106546666D01*
X129093333Y-106646666D01*
X128693333Y-107046666D01*
X129126666Y-107046666D01*
X129793333Y-107046666D02*
X129393333Y-107046666D01*
X129593333Y-107046666D02*
X129593333Y-106346666D01*
X129526666Y-106446666D01*
X129460000Y-106513333D01*
X129393333Y-106546666D01*
%TO.C,U4*%
X155396666Y-89833333D02*
X155963333Y-89833333D01*
X156030000Y-89800000D01*
X156063333Y-89766666D01*
X156096666Y-89700000D01*
X156096666Y-89566666D01*
X156063333Y-89500000D01*
X156030000Y-89466666D01*
X155963333Y-89433333D01*
X155396666Y-89433333D01*
X155630000Y-88800000D02*
X156096666Y-88800000D01*
X155363333Y-88966666D02*
X155863333Y-89133333D01*
X155863333Y-88700000D01*
%TO.C,Q5*%
X152333333Y-107675833D02*
X152266666Y-107642500D01*
X152200000Y-107575833D01*
X152100000Y-107475833D01*
X152033333Y-107442500D01*
X151966666Y-107442500D01*
X152000000Y-107609166D02*
X151933333Y-107575833D01*
X151866666Y-107509166D01*
X151833333Y-107375833D01*
X151833333Y-107142500D01*
X151866666Y-107009166D01*
X151933333Y-106942500D01*
X152000000Y-106909166D01*
X152133333Y-106909166D01*
X152200000Y-106942500D01*
X152266666Y-107009166D01*
X152300000Y-107142500D01*
X152300000Y-107375833D01*
X152266666Y-107509166D01*
X152200000Y-107575833D01*
X152133333Y-107609166D01*
X152000000Y-107609166D01*
X152933333Y-106909166D02*
X152600000Y-106909166D01*
X152566666Y-107242500D01*
X152600000Y-107209166D01*
X152666666Y-107175833D01*
X152833333Y-107175833D01*
X152900000Y-107209166D01*
X152933333Y-107242500D01*
X152966666Y-107309166D01*
X152966666Y-107475833D01*
X152933333Y-107542500D01*
X152900000Y-107575833D01*
X152833333Y-107609166D01*
X152666666Y-107609166D01*
X152600000Y-107575833D01*
X152566666Y-107542500D01*
%TO.C,D6*%
X153896666Y-99386666D02*
X153196666Y-99386666D01*
X153196666Y-99220000D01*
X153230000Y-99120000D01*
X153296666Y-99053333D01*
X153363333Y-99020000D01*
X153496666Y-98986666D01*
X153596666Y-98986666D01*
X153730000Y-99020000D01*
X153796666Y-99053333D01*
X153863333Y-99120000D01*
X153896666Y-99220000D01*
X153896666Y-99386666D01*
X153196666Y-98386666D02*
X153196666Y-98520000D01*
X153230000Y-98586666D01*
X153263333Y-98620000D01*
X153363333Y-98686666D01*
X153496666Y-98720000D01*
X153763333Y-98720000D01*
X153830000Y-98686666D01*
X153863333Y-98653333D01*
X153896666Y-98586666D01*
X153896666Y-98453333D01*
X153863333Y-98386666D01*
X153830000Y-98353333D01*
X153763333Y-98320000D01*
X153596666Y-98320000D01*
X153530000Y-98353333D01*
X153496666Y-98386666D01*
X153463333Y-98453333D01*
X153463333Y-98586666D01*
X153496666Y-98653333D01*
X153530000Y-98686666D01*
X153596666Y-98720000D01*
%TO.C,D20*%
X140896666Y-99760000D02*
X140196666Y-99760000D01*
X140196666Y-99593333D01*
X140230000Y-99493333D01*
X140296666Y-99426666D01*
X140363333Y-99393333D01*
X140496666Y-99360000D01*
X140596666Y-99360000D01*
X140730000Y-99393333D01*
X140796666Y-99426666D01*
X140863333Y-99493333D01*
X140896666Y-99593333D01*
X140896666Y-99760000D01*
X140263333Y-99093333D02*
X140230000Y-99060000D01*
X140196666Y-98993333D01*
X140196666Y-98826666D01*
X140230000Y-98760000D01*
X140263333Y-98726666D01*
X140330000Y-98693333D01*
X140396666Y-98693333D01*
X140496666Y-98726666D01*
X140896666Y-99126666D01*
X140896666Y-98693333D01*
X140196666Y-98260000D02*
X140196666Y-98193333D01*
X140230000Y-98126666D01*
X140263333Y-98093333D01*
X140330000Y-98060000D01*
X140463333Y-98026666D01*
X140630000Y-98026666D01*
X140763333Y-98060000D01*
X140830000Y-98093333D01*
X140863333Y-98126666D01*
X140896666Y-98193333D01*
X140896666Y-98260000D01*
X140863333Y-98326666D01*
X140830000Y-98360000D01*
X140763333Y-98393333D01*
X140630000Y-98426666D01*
X140463333Y-98426666D01*
X140330000Y-98393333D01*
X140263333Y-98360000D01*
X140230000Y-98326666D01*
X140196666Y-98260000D01*
%TO.C,R10*%
X165276666Y-105120000D02*
X164943333Y-105353333D01*
X165276666Y-105520000D02*
X164576666Y-105520000D01*
X164576666Y-105253333D01*
X164610000Y-105186666D01*
X164643333Y-105153333D01*
X164710000Y-105120000D01*
X164810000Y-105120000D01*
X164876666Y-105153333D01*
X164910000Y-105186666D01*
X164943333Y-105253333D01*
X164943333Y-105520000D01*
X165276666Y-104453333D02*
X165276666Y-104853333D01*
X165276666Y-104653333D02*
X164576666Y-104653333D01*
X164676666Y-104720000D01*
X164743333Y-104786666D01*
X164776666Y-104853333D01*
X164576666Y-104020000D02*
X164576666Y-103953333D01*
X164610000Y-103886666D01*
X164643333Y-103853333D01*
X164710000Y-103820000D01*
X164843333Y-103786666D01*
X165010000Y-103786666D01*
X165143333Y-103820000D01*
X165210000Y-103853333D01*
X165243333Y-103886666D01*
X165276666Y-103953333D01*
X165276666Y-104020000D01*
X165243333Y-104086666D01*
X165210000Y-104120000D01*
X165143333Y-104153333D01*
X165010000Y-104186666D01*
X164843333Y-104186666D01*
X164710000Y-104153333D01*
X164643333Y-104120000D01*
X164610000Y-104086666D01*
X164576666Y-104020000D01*
%TO.C,R2*%
X173593333Y-106946666D02*
X173360000Y-106613333D01*
X173193333Y-106946666D02*
X173193333Y-106246666D01*
X173460000Y-106246666D01*
X173526666Y-106280000D01*
X173560000Y-106313333D01*
X173593333Y-106380000D01*
X173593333Y-106480000D01*
X173560000Y-106546666D01*
X173526666Y-106580000D01*
X173460000Y-106613333D01*
X173193333Y-106613333D01*
X173860000Y-106313333D02*
X173893333Y-106280000D01*
X173960000Y-106246666D01*
X174126666Y-106246666D01*
X174193333Y-106280000D01*
X174226666Y-106313333D01*
X174260000Y-106380000D01*
X174260000Y-106446666D01*
X174226666Y-106546666D01*
X173826666Y-106946666D01*
X174260000Y-106946666D01*
%TO.C,D5*%
X160306666Y-99426666D02*
X159606666Y-99426666D01*
X159606666Y-99260000D01*
X159640000Y-99160000D01*
X159706666Y-99093333D01*
X159773333Y-99060000D01*
X159906666Y-99026666D01*
X160006666Y-99026666D01*
X160140000Y-99060000D01*
X160206666Y-99093333D01*
X160273333Y-99160000D01*
X160306666Y-99260000D01*
X160306666Y-99426666D01*
X159606666Y-98393333D02*
X159606666Y-98726666D01*
X159940000Y-98760000D01*
X159906666Y-98726666D01*
X159873333Y-98660000D01*
X159873333Y-98493333D01*
X159906666Y-98426666D01*
X159940000Y-98393333D01*
X160006666Y-98360000D01*
X160173333Y-98360000D01*
X160240000Y-98393333D01*
X160273333Y-98426666D01*
X160306666Y-98493333D01*
X160306666Y-98660000D01*
X160273333Y-98726666D01*
X160240000Y-98760000D01*
%TO.C,R7*%
X167083333Y-101736666D02*
X166850000Y-101403333D01*
X166683333Y-101736666D02*
X166683333Y-101036666D01*
X166950000Y-101036666D01*
X167016666Y-101070000D01*
X167050000Y-101103333D01*
X167083333Y-101170000D01*
X167083333Y-101270000D01*
X167050000Y-101336666D01*
X167016666Y-101370000D01*
X166950000Y-101403333D01*
X166683333Y-101403333D01*
X167316666Y-101036666D02*
X167783333Y-101036666D01*
X167483333Y-101736666D01*
%TO.C,D24*%
X140650000Y-81916666D02*
X140650000Y-81216666D01*
X140816666Y-81216666D01*
X140916666Y-81250000D01*
X140983333Y-81316666D01*
X141016666Y-81383333D01*
X141050000Y-81516666D01*
X141050000Y-81616666D01*
X141016666Y-81750000D01*
X140983333Y-81816666D01*
X140916666Y-81883333D01*
X140816666Y-81916666D01*
X140650000Y-81916666D01*
X141316666Y-81283333D02*
X141350000Y-81250000D01*
X141416666Y-81216666D01*
X141583333Y-81216666D01*
X141650000Y-81250000D01*
X141683333Y-81283333D01*
X141716666Y-81350000D01*
X141716666Y-81416666D01*
X141683333Y-81516666D01*
X141283333Y-81916666D01*
X141716666Y-81916666D01*
X142316666Y-81450000D02*
X142316666Y-81916666D01*
X142150000Y-81183333D02*
X141983333Y-81683333D01*
X142416666Y-81683333D01*
%TO.C,U6*%
X142940000Y-92200000D02*
X142940000Y-94210000D01*
X147260000Y-92200000D02*
X147260000Y-94210000D01*
X142940000Y-92200000D02*
X142940000Y-90190000D01*
X142940000Y-90190000D02*
X143295000Y-90190000D01*
X142940000Y-94210000D02*
X143295000Y-94210000D01*
X147260000Y-92200000D02*
X147260000Y-90190000D01*
X147260000Y-90190000D02*
X146905000Y-90190000D01*
X147260000Y-94210000D02*
X146905000Y-94210000D01*
X143295000Y-94210000D02*
X143295000Y-95675000D01*
%TO.C,D23*%
X131600000Y-80800000D02*
X133600000Y-80800000D01*
X133600000Y-80800000D02*
X133600000Y-76500000D01*
X131600000Y-76500000D02*
X131600000Y-80800000D01*
%TO.C,Q4*%
X156130000Y-108752500D02*
X156130000Y-110427500D01*
X159250000Y-108752500D02*
X159250000Y-109402500D01*
X156130000Y-108752500D02*
X156130000Y-108102500D01*
X159250000Y-108752500D02*
X159250000Y-108102500D01*
%TO.C,Q7*%
X136760000Y-108772500D02*
X136760000Y-110447500D01*
X139880000Y-108772500D02*
X139880000Y-108122500D01*
X139880000Y-108772500D02*
X139880000Y-109422500D01*
X136760000Y-108772500D02*
X136760000Y-108122500D01*
%TO.C,F8*%
X133040000Y-86189564D02*
X133040000Y-84985436D01*
X135760000Y-86189564D02*
X135760000Y-84985436D01*
%TO.C,D21*%
X133535000Y-96452500D02*
X131265000Y-96452500D01*
X133535000Y-100512500D02*
X133535000Y-96452500D01*
X131265000Y-96452500D02*
X131265000Y-100512500D01*
%TO.C,F7*%
X138540000Y-86189564D02*
X138540000Y-84985436D01*
X141260000Y-86189564D02*
X141260000Y-84985436D01*
%TO.C,Q1*%
X175440000Y-109000000D02*
X175440000Y-110675000D01*
X178560000Y-109000000D02*
X178560000Y-109650000D01*
X178560000Y-109000000D02*
X178560000Y-108350000D01*
X175440000Y-109000000D02*
X175440000Y-108350000D01*
%TO.C,R15*%
X142635000Y-109067064D02*
X142635000Y-108612936D01*
X141165000Y-109067064D02*
X141165000Y-108612936D01*
%TO.C,D18*%
X154100000Y-80000000D02*
X154100000Y-75700000D01*
X154100000Y-75700000D02*
X152100000Y-75700000D01*
X152100000Y-75700000D02*
X152100000Y-80000000D01*
%TO.C,D4*%
X163565000Y-96527500D02*
X163565000Y-100587500D01*
X165835000Y-96527500D02*
X163565000Y-96527500D01*
X165835000Y-100587500D02*
X165835000Y-96527500D01*
%TO.C,R20*%
X136135000Y-109127064D02*
X136135000Y-108672936D01*
X134665000Y-109127064D02*
X134665000Y-108672936D01*
%TO.C,R6*%
X173365000Y-103927064D02*
X173365000Y-103472936D01*
X174835000Y-103927064D02*
X174835000Y-103472936D01*
%TO.C,R12*%
X161935000Y-103927064D02*
X161935000Y-103472936D01*
X160465000Y-103927064D02*
X160465000Y-103472936D01*
%TO.C,D16*%
X166100000Y-80000000D02*
X166100000Y-75700000D01*
X164100000Y-75700000D02*
X164100000Y-80000000D01*
X166100000Y-75700000D02*
X164100000Y-75700000D01*
%TO.C,D17*%
X160100000Y-75700000D02*
X158100000Y-75700000D01*
X158100000Y-75700000D02*
X158100000Y-80000000D01*
X160100000Y-80000000D02*
X160100000Y-75700000D01*
%TO.C,Q2*%
X168940000Y-108937500D02*
X168940000Y-108287500D01*
X172060000Y-108937500D02*
X172060000Y-109587500D01*
X168940000Y-108937500D02*
X168940000Y-110612500D01*
X172060000Y-108937500D02*
X172060000Y-108287500D01*
%TO.C,D14*%
X178000000Y-80000000D02*
X178000000Y-75700000D01*
X178000000Y-75700000D02*
X176000000Y-75700000D01*
X176000000Y-75700000D02*
X176000000Y-80000000D01*
%TO.C,D19*%
X148100000Y-75700000D02*
X146100000Y-75700000D01*
X146100000Y-75700000D02*
X146100000Y-80000000D01*
X148100000Y-80000000D02*
X148100000Y-75700000D01*
%TO.C,D15*%
X172100000Y-80000000D02*
X172100000Y-75700000D01*
X172100000Y-75700000D02*
X170100000Y-75700000D01*
X170100000Y-75700000D02*
X170100000Y-80000000D01*
%TO.C,J3*%
X126670000Y-83185000D02*
X129330000Y-83185000D01*
X126670000Y-78045000D02*
X129330000Y-78045000D01*
X126670000Y-75445000D02*
X128000000Y-75445000D01*
X129330000Y-78045000D02*
X129330000Y-83185000D01*
X126670000Y-76775000D02*
X126670000Y-75445000D01*
X126670000Y-78045000D02*
X126670000Y-83185000D01*
%TO.C,D11*%
X155100000Y-76500000D02*
X155100000Y-80800000D01*
X155100000Y-80800000D02*
X157100000Y-80800000D01*
X157100000Y-80800000D02*
X157100000Y-76500000D01*
%TO.C,F2*%
X167760000Y-86114564D02*
X167760000Y-84910436D01*
X165040000Y-86114564D02*
X165040000Y-84910436D01*
%TO.C,R24*%
X134765000Y-103877064D02*
X134765000Y-103422936D01*
X136235000Y-103877064D02*
X136235000Y-103422936D01*
%TO.C,F3*%
X159740000Y-86114564D02*
X159740000Y-84910436D01*
X162460000Y-86114564D02*
X162460000Y-84910436D01*
%TO.C,Q3*%
X162550000Y-108752500D02*
X162550000Y-108102500D01*
X165670000Y-108752500D02*
X165670000Y-108102500D01*
X162550000Y-108752500D02*
X162550000Y-110427500D01*
X165670000Y-108752500D02*
X165670000Y-109402500D01*
%TO.C,R3*%
X168385000Y-109047064D02*
X168385000Y-108592936D01*
X166915000Y-109047064D02*
X166915000Y-108592936D01*
%TO.C,D2*%
X178735000Y-100512500D02*
X178735000Y-96452500D01*
X176465000Y-96452500D02*
X176465000Y-100512500D01*
X178735000Y-96452500D02*
X176465000Y-96452500D01*
%TO.C,F1*%
X170240000Y-86089564D02*
X170240000Y-84885436D01*
X172960000Y-86089564D02*
X172960000Y-84885436D01*
%TO.C,R18*%
X147665000Y-103927064D02*
X147665000Y-103472936D01*
X149135000Y-103927064D02*
X149135000Y-103472936D01*
%TO.C,U5*%
X152560000Y-92200000D02*
X152560000Y-90190000D01*
X148240000Y-94210000D02*
X148595000Y-94210000D01*
X152560000Y-92200000D02*
X152560000Y-94210000D01*
X148595000Y-94210000D02*
X148595000Y-95675000D01*
X148240000Y-92200000D02*
X148240000Y-94210000D01*
X152560000Y-94210000D02*
X152205000Y-94210000D01*
X152560000Y-90190000D02*
X152205000Y-90190000D01*
X148240000Y-92200000D02*
X148240000Y-90190000D01*
X148240000Y-90190000D02*
X148595000Y-90190000D01*
%TO.C,R16*%
X151435000Y-103927064D02*
X151435000Y-103472936D01*
X149965000Y-103927064D02*
X149965000Y-103472936D01*
%TO.C,D7*%
X146535000Y-100500000D02*
X146535000Y-96440000D01*
X146535000Y-96440000D02*
X144265000Y-96440000D01*
X144265000Y-96440000D02*
X144265000Y-100500000D01*
%TO.C,R17*%
X144935000Y-103927064D02*
X144935000Y-103472936D01*
X143465000Y-103927064D02*
X143465000Y-103472936D01*
%TO.C,D25*%
X136500000Y-80000000D02*
X136500000Y-75700000D01*
X134500000Y-75700000D02*
X134500000Y-80000000D01*
X136500000Y-75700000D02*
X134500000Y-75700000D01*
%TO.C,D9*%
X169100000Y-80800000D02*
X169100000Y-76500000D01*
X167100000Y-76500000D02*
X167100000Y-80800000D01*
X167100000Y-80800000D02*
X169100000Y-80800000D01*
%TO.C,U7*%
X132340000Y-90190000D02*
X132695000Y-90190000D01*
X136660000Y-90190000D02*
X136305000Y-90190000D01*
X136660000Y-92200000D02*
X136660000Y-90190000D01*
X132340000Y-92200000D02*
X132340000Y-90190000D01*
X136660000Y-94210000D02*
X136305000Y-94210000D01*
X132340000Y-94210000D02*
X132695000Y-94210000D01*
X132695000Y-94210000D02*
X132695000Y-95675000D01*
X136660000Y-92200000D02*
X136660000Y-94210000D01*
X132340000Y-92200000D02*
X132340000Y-94210000D01*
%TO.C,D12*%
X149100000Y-80800000D02*
X151100000Y-80800000D01*
X151100000Y-80800000D02*
X151100000Y-76500000D01*
X149100000Y-76500000D02*
X149100000Y-80800000D01*
%TO.C,D3*%
X172235000Y-100512500D02*
X172235000Y-96452500D01*
X169965000Y-96452500D02*
X169965000Y-100512500D01*
X172235000Y-96452500D02*
X169965000Y-96452500D01*
%TO.C,J1*%
X167100000Y-111170000D02*
X167100000Y-120290000D01*
X165800000Y-118980000D02*
X155050000Y-118980000D01*
X140200000Y-118980000D02*
X140200000Y-112480000D01*
X144610000Y-121680000D02*
X144110000Y-120680000D01*
X150950000Y-118980000D02*
X140200000Y-118980000D01*
X138900000Y-111170000D02*
X167100000Y-111170000D01*
X144110000Y-120680000D02*
X143610000Y-121680000D01*
X143610000Y-121680000D02*
X144610000Y-121680000D01*
X150950000Y-120290000D02*
X150950000Y-118980000D01*
X167100000Y-120290000D02*
X138900000Y-120290000D01*
X165800000Y-112480000D02*
X165800000Y-118980000D01*
X155050000Y-118980000D02*
X155050000Y-120290000D01*
X140200000Y-112480000D02*
X165800000Y-112480000D01*
X155050000Y-118980000D02*
X155050000Y-118980000D01*
X138900000Y-120290000D02*
X138900000Y-111170000D01*
%TO.C,U1*%
X169440000Y-92200000D02*
X169440000Y-90190000D01*
X173760000Y-90190000D02*
X173405000Y-90190000D01*
X169440000Y-92200000D02*
X169440000Y-94210000D01*
X169440000Y-90190000D02*
X169795000Y-90190000D01*
X169795000Y-94210000D02*
X169795000Y-95675000D01*
X173760000Y-94210000D02*
X173405000Y-94210000D01*
X173760000Y-92200000D02*
X173760000Y-94210000D01*
X169440000Y-94210000D02*
X169795000Y-94210000D01*
X173760000Y-92200000D02*
X173760000Y-90190000D01*
%TO.C,D10*%
X163100000Y-80800000D02*
X163100000Y-76500000D01*
X161100000Y-76500000D02*
X161100000Y-80800000D01*
X161100000Y-80800000D02*
X163100000Y-80800000D01*
%TO.C,F4*%
X157160000Y-86189564D02*
X157160000Y-84985436D01*
X154440000Y-86189564D02*
X154440000Y-84985436D01*
%TO.C,Q8*%
X133410000Y-108962500D02*
X133410000Y-108312500D01*
X130290000Y-108962500D02*
X130290000Y-110637500D01*
X130290000Y-108962500D02*
X130290000Y-108312500D01*
X133410000Y-108962500D02*
X133410000Y-109612500D01*
%TO.C,R25*%
X129635000Y-103877064D02*
X129635000Y-103422936D01*
X128165000Y-103877064D02*
X128165000Y-103422936D01*
%TO.C,D13*%
X145100000Y-80800000D02*
X145100000Y-76500000D01*
X143100000Y-76500000D02*
X143100000Y-80800000D01*
X143100000Y-80800000D02*
X145100000Y-80800000D01*
%TO.C,R8*%
X161925000Y-109037064D02*
X161925000Y-108582936D01*
X160455000Y-109037064D02*
X160455000Y-108582936D01*
%TO.C,R11*%
X157835000Y-103927064D02*
X157835000Y-103472936D01*
X156365000Y-103927064D02*
X156365000Y-103472936D01*
%TO.C,R22*%
X137065000Y-103877064D02*
X137065000Y-103422936D01*
X138535000Y-103877064D02*
X138535000Y-103422936D01*
%TO.C,D22*%
X137400000Y-76500000D02*
X137400000Y-80800000D01*
X137400000Y-80800000D02*
X139400000Y-80800000D01*
X139400000Y-80800000D02*
X139400000Y-76500000D01*
%TO.C,U2*%
X164140000Y-92200000D02*
X164140000Y-94210000D01*
X164495000Y-94210000D02*
X164495000Y-95675000D01*
X164140000Y-90190000D02*
X164495000Y-90190000D01*
X164140000Y-94210000D02*
X164495000Y-94210000D01*
X168460000Y-92200000D02*
X168460000Y-94210000D01*
X164140000Y-92200000D02*
X164140000Y-90190000D01*
X168460000Y-92200000D02*
X168460000Y-90190000D01*
X168460000Y-90190000D02*
X168105000Y-90190000D01*
X168460000Y-94210000D02*
X168105000Y-94210000D01*
%TO.C,R5*%
X170635000Y-103927064D02*
X170635000Y-103472936D01*
X169165000Y-103927064D02*
X169165000Y-103472936D01*
%TO.C,F5*%
X151860000Y-86214564D02*
X151860000Y-85010436D01*
X149140000Y-86214564D02*
X149140000Y-85010436D01*
%TO.C,D1*%
X133587500Y-118795000D02*
X137647500Y-118795000D01*
X137647500Y-118795000D02*
X137647500Y-116525000D01*
X137647500Y-116525000D02*
X133587500Y-116525000D01*
%TO.C,U8*%
X141960000Y-92200000D02*
X141960000Y-94210000D01*
X137640000Y-92200000D02*
X137640000Y-90190000D01*
X137640000Y-92200000D02*
X137640000Y-94210000D01*
X141960000Y-90190000D02*
X141605000Y-90190000D01*
X137995000Y-94210000D02*
X137995000Y-95675000D01*
X141960000Y-94210000D02*
X141605000Y-94210000D01*
X141960000Y-92200000D02*
X141960000Y-90190000D01*
X137640000Y-90190000D02*
X137995000Y-90190000D01*
X137640000Y-94210000D02*
X137995000Y-94210000D01*
%TO.C,R4*%
X177035000Y-103927064D02*
X177035000Y-103472936D01*
X175565000Y-103927064D02*
X175565000Y-103472936D01*
%TO.C,R9*%
X154065000Y-109027064D02*
X154065000Y-108572936D01*
X155535000Y-109027064D02*
X155535000Y-108572936D01*
%TO.C,R13*%
X154065000Y-103927064D02*
X154065000Y-103472936D01*
X155535000Y-103927064D02*
X155535000Y-103472936D01*
%TO.C,R19*%
X142635000Y-103927064D02*
X142635000Y-103472936D01*
X141165000Y-103927064D02*
X141165000Y-103472936D01*
%TO.C,R14*%
X149155000Y-109057064D02*
X149155000Y-108602936D01*
X147685000Y-109057064D02*
X147685000Y-108602936D01*
%TO.C,Q6*%
X146360000Y-108782500D02*
X146360000Y-109432500D01*
X143240000Y-108782500D02*
X143240000Y-110457500D01*
X146360000Y-108782500D02*
X146360000Y-108132500D01*
X143240000Y-108782500D02*
X143240000Y-108132500D01*
%TO.C,J2*%
X175560000Y-73687500D02*
X175860000Y-73087500D01*
X151210000Y-62167500D02*
X151460000Y-60667500D01*
X171780000Y-60667500D02*
X169780000Y-60667500D01*
X175860000Y-73087500D02*
X176160000Y-73687500D01*
X179510000Y-63967500D02*
X126490000Y-63967500D01*
X131140000Y-60667500D02*
X129140000Y-60667500D01*
X179510000Y-60667500D02*
X126490000Y-60667500D01*
X156540000Y-60667500D02*
X154540000Y-60667500D01*
X135970000Y-62167500D02*
X136220000Y-60667500D01*
X179510000Y-72887500D02*
X179510000Y-60667500D01*
X176160000Y-73687500D02*
X175560000Y-73687500D01*
X166450000Y-62167500D02*
X166700000Y-60667500D01*
X161370000Y-62167500D02*
X161620000Y-60667500D01*
X146130000Y-62167500D02*
X146380000Y-60667500D01*
X166700000Y-60667500D02*
X164700000Y-60667500D01*
X156290000Y-62167500D02*
X156540000Y-60667500D01*
X159870000Y-62167500D02*
X161370000Y-62167500D01*
X171530000Y-62167500D02*
X171780000Y-60667500D01*
X179510000Y-62167500D02*
X179510000Y-63967500D01*
X144380000Y-60667500D02*
X144630000Y-62167500D01*
X151460000Y-60667500D02*
X149460000Y-60667500D01*
X126490000Y-62167500D02*
X179510000Y-62167500D01*
X175110000Y-62167500D02*
X176610000Y-62167500D01*
X130890000Y-62167500D02*
X131140000Y-60667500D01*
X159620000Y-60667500D02*
X159870000Y-62167500D01*
X161620000Y-60667500D02*
X159620000Y-60667500D01*
X126490000Y-60667500D02*
X126490000Y-72887500D01*
X170030000Y-62167500D02*
X171530000Y-62167500D01*
X149710000Y-62167500D02*
X151210000Y-62167500D01*
X169780000Y-60667500D02*
X170030000Y-62167500D01*
X126490000Y-72887500D02*
X179510000Y-72887500D01*
X134470000Y-62167500D02*
X135970000Y-62167500D01*
X134220000Y-60667500D02*
X134470000Y-62167500D01*
X154540000Y-60667500D02*
X154790000Y-62167500D01*
X164700000Y-60667500D02*
X164950000Y-62167500D01*
X146380000Y-60667500D02*
X144380000Y-60667500D01*
X174860000Y-60667500D02*
X175110000Y-62167500D01*
X164950000Y-62167500D02*
X166450000Y-62167500D01*
X129140000Y-60667500D02*
X129390000Y-62167500D01*
X149460000Y-60667500D02*
X149710000Y-62167500D01*
X176860000Y-60667500D02*
X174860000Y-60667500D01*
X129390000Y-62167500D02*
X130890000Y-62167500D01*
X154790000Y-62167500D02*
X156290000Y-62167500D01*
X144630000Y-62167500D02*
X146130000Y-62167500D01*
X139300000Y-60667500D02*
X139550000Y-62167500D01*
X126490000Y-63967500D02*
X126490000Y-62167500D01*
X176610000Y-62167500D02*
X176860000Y-60667500D01*
X139550000Y-62167500D02*
X141050000Y-62167500D01*
X136220000Y-60667500D02*
X134220000Y-60667500D01*
X141050000Y-62167500D02*
X141300000Y-60667500D01*
X141300000Y-60667500D02*
X139300000Y-60667500D01*
%TO.C,F6*%
X146460000Y-86189564D02*
X146460000Y-84985436D01*
X143740000Y-86189564D02*
X143740000Y-84985436D01*
%TO.C,D8*%
X175000000Y-80800000D02*
X175000000Y-76500000D01*
X173000000Y-76500000D02*
X173000000Y-80800000D01*
X173000000Y-80800000D02*
X175000000Y-80800000D01*
%TO.C,U3*%
X163160000Y-92200000D02*
X163160000Y-94210000D01*
X163160000Y-90190000D02*
X162805000Y-90190000D01*
X159195000Y-94210000D02*
X159195000Y-95675000D01*
X158840000Y-92200000D02*
X158840000Y-90190000D01*
X158840000Y-90190000D02*
X159195000Y-90190000D01*
X163160000Y-94210000D02*
X162805000Y-94210000D01*
X158840000Y-92200000D02*
X158840000Y-94210000D01*
X158840000Y-94210000D02*
X159195000Y-94210000D01*
X163160000Y-92200000D02*
X163160000Y-90190000D01*
%TO.C,R23*%
X132035000Y-103877064D02*
X132035000Y-103422936D01*
X130565000Y-103877064D02*
X130565000Y-103422936D01*
%TO.C,R1*%
X134932936Y-114275000D02*
X135387064Y-114275000D01*
X134932936Y-115745000D02*
X135387064Y-115745000D01*
%TO.C,R21*%
X128265000Y-109227064D02*
X128265000Y-108772936D01*
X129735000Y-109227064D02*
X129735000Y-108772936D01*
%TO.C,U4*%
X153540000Y-92200000D02*
X153540000Y-90190000D01*
X157860000Y-94210000D02*
X157505000Y-94210000D01*
X153540000Y-94210000D02*
X153895000Y-94210000D01*
X153540000Y-90190000D02*
X153895000Y-90190000D01*
X157860000Y-90190000D02*
X157505000Y-90190000D01*
X153540000Y-92200000D02*
X153540000Y-94210000D01*
X157860000Y-92200000D02*
X157860000Y-94210000D01*
X157860000Y-92200000D02*
X157860000Y-90190000D01*
X153895000Y-94210000D02*
X153895000Y-95675000D01*
%TO.C,Q5*%
X149730000Y-108772500D02*
X149730000Y-110447500D01*
X149730000Y-108772500D02*
X149730000Y-108122500D01*
X152850000Y-108772500D02*
X152850000Y-108122500D01*
X152850000Y-108772500D02*
X152850000Y-109422500D01*
%TO.C,D6*%
X153035000Y-96427500D02*
X150765000Y-96427500D01*
X153035000Y-100487500D02*
X153035000Y-96427500D01*
X150765000Y-96427500D02*
X150765000Y-100487500D01*
%TO.C,D20*%
X140035000Y-100500000D02*
X140035000Y-96440000D01*
X140035000Y-96440000D02*
X137765000Y-96440000D01*
X137765000Y-96440000D02*
X137765000Y-100500000D01*
%TO.C,R10*%
X162765000Y-103927064D02*
X162765000Y-103472936D01*
X164235000Y-103927064D02*
X164235000Y-103472936D01*
%TO.C,R2*%
X174835000Y-109127064D02*
X174835000Y-108672936D01*
X173365000Y-109127064D02*
X173365000Y-108672936D01*
%TO.C,D5*%
X159435000Y-100487500D02*
X159435000Y-96427500D01*
X159435000Y-96427500D02*
X157165000Y-96427500D01*
X157165000Y-96427500D02*
X157165000Y-100487500D01*
%TO.C,R7*%
X168335000Y-103927064D02*
X168335000Y-103472936D01*
X166865000Y-103927064D02*
X166865000Y-103472936D01*
%TO.C,D24*%
X142300000Y-75700000D02*
X140300000Y-75700000D01*
X140300000Y-75700000D02*
X140300000Y-80000000D01*
X142300000Y-80000000D02*
X142300000Y-75700000D01*
%TD*%
M02*
