%TF.GenerationSoftware,KiCad,Pcbnew,6.0.11+dfsg-1~bpo11+1*%
%TF.CreationDate,2023-07-05T16:28:11+02:00*%
%TF.ProjectId,dvert_21,64766572-745f-4323-912e-6b696361645f,rev?*%
%TF.SameCoordinates,Original*%
%TF.FileFunction,Legend,Bot*%
%TF.FilePolarity,Positive*%
%FSLAX46Y46*%
G04 Gerber Fmt 4.6, Leading zero omitted, Abs format (unit mm)*
G04 Created by KiCad (PCBNEW 6.0.11+dfsg-1~bpo11+1) date 2023-07-05 16:28:11*
%MOMM*%
%LPD*%
G01*
G04 APERTURE LIST*
%ADD10C,0.150000*%
%ADD11C,0.100000*%
%ADD12C,0.120000*%
%ADD13C,0.600000*%
%ADD14C,0.300000*%
%ADD15C,0.010000*%
G04 APERTURE END LIST*
D10*
G36*
X169200000Y-75300000D02*
G01*
X167500000Y-77000000D01*
X167500000Y-76000000D01*
X162100000Y-76000000D01*
X162100000Y-74700000D01*
X167500000Y-74700000D01*
X167500000Y-73600000D01*
X169200000Y-75300000D01*
G37*
X169200000Y-75300000D02*
X167500000Y-77000000D01*
X167500000Y-76000000D01*
X162100000Y-76000000D01*
X162100000Y-74700000D01*
X167500000Y-74700000D01*
X167500000Y-73600000D01*
X169200000Y-75300000D01*
D11*
X136242857Y-73410000D02*
X136185714Y-73438571D01*
X136100000Y-73438571D01*
X136014285Y-73410000D01*
X135957142Y-73352857D01*
X135928571Y-73295714D01*
X135900000Y-73181428D01*
X135900000Y-73095714D01*
X135928571Y-72981428D01*
X135957142Y-72924285D01*
X136014285Y-72867142D01*
X136100000Y-72838571D01*
X136157142Y-72838571D01*
X136242857Y-72867142D01*
X136271428Y-72895714D01*
X136271428Y-73095714D01*
X136157142Y-73095714D01*
X136528571Y-72838571D02*
X136528571Y-73438571D01*
X136871428Y-72838571D01*
X136871428Y-73438571D01*
X137157142Y-72838571D02*
X137157142Y-73438571D01*
X137300000Y-73438571D01*
X137385714Y-73410000D01*
X137442857Y-73352857D01*
X137471428Y-73295714D01*
X137500000Y-73181428D01*
X137500000Y-73095714D01*
X137471428Y-72981428D01*
X137442857Y-72924285D01*
X137385714Y-72867142D01*
X137300000Y-72838571D01*
X137157142Y-72838571D01*
D12*
X144111428Y-92829285D02*
X143932857Y-93329285D01*
X143754285Y-92829285D01*
X143504285Y-92650714D02*
X143468571Y-92615000D01*
X143397142Y-92579285D01*
X143218571Y-92579285D01*
X143147142Y-92615000D01*
X143111428Y-92650714D01*
X143075714Y-92722142D01*
X143075714Y-92793571D01*
X143111428Y-92900714D01*
X143540000Y-93329285D01*
X143075714Y-93329285D01*
X142754285Y-93257857D02*
X142718571Y-93293571D01*
X142754285Y-93329285D01*
X142790000Y-93293571D01*
X142754285Y-93257857D01*
X142754285Y-93329285D01*
X142004285Y-93329285D02*
X142432857Y-93329285D01*
X142218571Y-93329285D02*
X142218571Y-92579285D01*
X142290000Y-92686428D01*
X142361428Y-92757857D01*
X142432857Y-92793571D01*
D11*
X148891428Y-67210000D02*
X149177142Y-67210000D01*
X148834285Y-67038571D02*
X149034285Y-67638571D01*
X149234285Y-67038571D01*
X149748571Y-67038571D02*
X149405714Y-67038571D01*
X149577142Y-67038571D02*
X149577142Y-67638571D01*
X149520000Y-67552857D01*
X149462857Y-67495714D01*
X149405714Y-67467142D01*
X159991428Y-91171428D02*
X160591428Y-91371428D01*
X159991428Y-91571428D01*
X160277142Y-91771428D02*
X160277142Y-91971428D01*
X160591428Y-92057142D02*
X160591428Y-91771428D01*
X159991428Y-91771428D01*
X159991428Y-92057142D01*
X160591428Y-92657142D02*
X160305714Y-92457142D01*
X160591428Y-92314285D02*
X159991428Y-92314285D01*
X159991428Y-92542857D01*
X160020000Y-92600000D01*
X160048571Y-92628571D01*
X160105714Y-92657142D01*
X160191428Y-92657142D01*
X160248571Y-92628571D01*
X160277142Y-92600000D01*
X160305714Y-92542857D01*
X160305714Y-92314285D01*
X159991428Y-92828571D02*
X159991428Y-93171428D01*
X160591428Y-93000000D02*
X159991428Y-93000000D01*
X160277142Y-93371428D02*
X160277142Y-93571428D01*
X160591428Y-93657142D02*
X160591428Y-93371428D01*
X159991428Y-93371428D01*
X159991428Y-93657142D01*
X160277142Y-94114285D02*
X160305714Y-94200000D01*
X160334285Y-94228571D01*
X160391428Y-94257142D01*
X160477142Y-94257142D01*
X160534285Y-94228571D01*
X160562857Y-94200000D01*
X160591428Y-94142857D01*
X160591428Y-93914285D01*
X159991428Y-93914285D01*
X159991428Y-94114285D01*
X160020000Y-94171428D01*
X160048571Y-94200000D01*
X160105714Y-94228571D01*
X160162857Y-94228571D01*
X160220000Y-94200000D01*
X160248571Y-94171428D01*
X160277142Y-94114285D01*
X160277142Y-93914285D01*
X160591428Y-94857142D02*
X160305714Y-94657142D01*
X160591428Y-94514285D02*
X159991428Y-94514285D01*
X159991428Y-94742857D01*
X160020000Y-94800000D01*
X160048571Y-94828571D01*
X160105714Y-94857142D01*
X160191428Y-94857142D01*
X160248571Y-94828571D01*
X160277142Y-94800000D01*
X160305714Y-94742857D01*
X160305714Y-94514285D01*
X160420000Y-95085714D02*
X160420000Y-95371428D01*
X160591428Y-95028571D02*
X159991428Y-95228571D01*
X160591428Y-95428571D01*
X143841428Y-73030000D02*
X144127142Y-73030000D01*
X143784285Y-72858571D02*
X143984285Y-73458571D01*
X144184285Y-72858571D01*
X144641428Y-73458571D02*
X144527142Y-73458571D01*
X144470000Y-73430000D01*
X144441428Y-73401428D01*
X144384285Y-73315714D01*
X144355714Y-73201428D01*
X144355714Y-72972857D01*
X144384285Y-72915714D01*
X144412857Y-72887142D01*
X144470000Y-72858571D01*
X144584285Y-72858571D01*
X144641428Y-72887142D01*
X144670000Y-72915714D01*
X144698571Y-72972857D01*
X144698571Y-73115714D01*
X144670000Y-73172857D01*
X144641428Y-73201428D01*
X144584285Y-73230000D01*
X144470000Y-73230000D01*
X144412857Y-73201428D01*
X144384285Y-73172857D01*
X144355714Y-73115714D01*
X163182857Y-92081428D02*
X163182857Y-91481428D01*
X162982857Y-91910000D01*
X162782857Y-91481428D01*
X162782857Y-92081428D01*
X162497142Y-92081428D02*
X162497142Y-91481428D01*
X162240000Y-92052857D02*
X162154285Y-92081428D01*
X162011428Y-92081428D01*
X161954285Y-92052857D01*
X161925714Y-92024285D01*
X161897142Y-91967142D01*
X161897142Y-91910000D01*
X161925714Y-91852857D01*
X161954285Y-91824285D01*
X162011428Y-91795714D01*
X162125714Y-91767142D01*
X162182857Y-91738571D01*
X162211428Y-91710000D01*
X162240000Y-91652857D01*
X162240000Y-91595714D01*
X162211428Y-91538571D01*
X162182857Y-91510000D01*
X162125714Y-91481428D01*
X161982857Y-91481428D01*
X161897142Y-91510000D01*
X161525714Y-91481428D02*
X161411428Y-91481428D01*
X161354285Y-91510000D01*
X161297142Y-91567142D01*
X161268571Y-91681428D01*
X161268571Y-91881428D01*
X161297142Y-91995714D01*
X161354285Y-92052857D01*
X161411428Y-92081428D01*
X161525714Y-92081428D01*
X161582857Y-92052857D01*
X161640000Y-91995714D01*
X161668571Y-91881428D01*
X161668571Y-91681428D01*
X161640000Y-91567142D01*
X161582857Y-91510000D01*
X161525714Y-91481428D01*
X139472857Y-118597142D02*
X139387142Y-118625714D01*
X139358571Y-118654285D01*
X139330000Y-118711428D01*
X139330000Y-118797142D01*
X139358571Y-118854285D01*
X139387142Y-118882857D01*
X139444285Y-118911428D01*
X139672857Y-118911428D01*
X139672857Y-118311428D01*
X139472857Y-118311428D01*
X139415714Y-118340000D01*
X139387142Y-118368571D01*
X139358571Y-118425714D01*
X139358571Y-118482857D01*
X139387142Y-118540000D01*
X139415714Y-118568571D01*
X139472857Y-118597142D01*
X139672857Y-118597142D01*
X139130000Y-118311428D02*
X138758571Y-118311428D01*
X138958571Y-118540000D01*
X138872857Y-118540000D01*
X138815714Y-118568571D01*
X138787142Y-118597142D01*
X138758571Y-118654285D01*
X138758571Y-118797142D01*
X138787142Y-118854285D01*
X138815714Y-118882857D01*
X138872857Y-118911428D01*
X139044285Y-118911428D01*
X139101428Y-118882857D01*
X139130000Y-118854285D01*
X156270000Y-96854285D02*
X156298571Y-96882857D01*
X156384285Y-96911428D01*
X156441428Y-96911428D01*
X156527142Y-96882857D01*
X156584285Y-96825714D01*
X156612857Y-96768571D01*
X156641428Y-96654285D01*
X156641428Y-96568571D01*
X156612857Y-96454285D01*
X156584285Y-96397142D01*
X156527142Y-96340000D01*
X156441428Y-96311428D01*
X156384285Y-96311428D01*
X156298571Y-96340000D01*
X156270000Y-96368571D01*
X155670000Y-96911428D02*
X155870000Y-96625714D01*
X156012857Y-96911428D02*
X156012857Y-96311428D01*
X155784285Y-96311428D01*
X155727142Y-96340000D01*
X155698571Y-96368571D01*
X155670000Y-96425714D01*
X155670000Y-96511428D01*
X155698571Y-96568571D01*
X155727142Y-96597142D01*
X155784285Y-96625714D01*
X156012857Y-96625714D01*
X155470000Y-96311428D02*
X155070000Y-96911428D01*
X155070000Y-96311428D02*
X155470000Y-96911428D01*
X144582857Y-118607142D02*
X144497142Y-118635714D01*
X144468571Y-118664285D01*
X144440000Y-118721428D01*
X144440000Y-118807142D01*
X144468571Y-118864285D01*
X144497142Y-118892857D01*
X144554285Y-118921428D01*
X144782857Y-118921428D01*
X144782857Y-118321428D01*
X144582857Y-118321428D01*
X144525714Y-118350000D01*
X144497142Y-118378571D01*
X144468571Y-118435714D01*
X144468571Y-118492857D01*
X144497142Y-118550000D01*
X144525714Y-118578571D01*
X144582857Y-118607142D01*
X144782857Y-118607142D01*
X144240000Y-118321428D02*
X143840000Y-118321428D01*
X144097142Y-118921428D01*
X124248571Y-97034285D02*
X124277142Y-97062857D01*
X124362857Y-97091428D01*
X124420000Y-97091428D01*
X124505714Y-97062857D01*
X124562857Y-97005714D01*
X124591428Y-96948571D01*
X124620000Y-96834285D01*
X124620000Y-96748571D01*
X124591428Y-96634285D01*
X124562857Y-96577142D01*
X124505714Y-96520000D01*
X124420000Y-96491428D01*
X124362857Y-96491428D01*
X124277142Y-96520000D01*
X124248571Y-96548571D01*
X124020000Y-96920000D02*
X123734285Y-96920000D01*
X124077142Y-97091428D02*
X123877142Y-96491428D01*
X123677142Y-97091428D01*
X123477142Y-97091428D02*
X123477142Y-96491428D01*
X123134285Y-97091428D01*
X123134285Y-96491428D01*
X122562857Y-97091428D02*
X122848571Y-97091428D01*
X122848571Y-96491428D01*
X141281428Y-67230000D02*
X141567142Y-67230000D01*
X141224285Y-67058571D02*
X141424285Y-67658571D01*
X141624285Y-67058571D01*
X141767142Y-67658571D02*
X142167142Y-67658571D01*
X141910000Y-67058571D01*
X146211428Y-111391428D02*
X146411428Y-111105714D01*
X146554285Y-111391428D02*
X146554285Y-110791428D01*
X146325714Y-110791428D01*
X146268571Y-110820000D01*
X146240000Y-110848571D01*
X146211428Y-110905714D01*
X146211428Y-110991428D01*
X146240000Y-111048571D01*
X146268571Y-111077142D01*
X146325714Y-111105714D01*
X146554285Y-111105714D01*
X145954285Y-111391428D02*
X145954285Y-110791428D01*
X145468571Y-111077142D02*
X145382857Y-111105714D01*
X145354285Y-111134285D01*
X145325714Y-111191428D01*
X145325714Y-111277142D01*
X145354285Y-111334285D01*
X145382857Y-111362857D01*
X145440000Y-111391428D01*
X145668571Y-111391428D01*
X145668571Y-110791428D01*
X145468571Y-110791428D01*
X145411428Y-110820000D01*
X145382857Y-110848571D01*
X145354285Y-110905714D01*
X145354285Y-110962857D01*
X145382857Y-111020000D01*
X145411428Y-111048571D01*
X145468571Y-111077142D01*
X145668571Y-111077142D01*
X144182857Y-110762857D02*
X144697142Y-111534285D01*
X143182857Y-111334285D02*
X143211428Y-111362857D01*
X143297142Y-111391428D01*
X143354285Y-111391428D01*
X143440000Y-111362857D01*
X143497142Y-111305714D01*
X143525714Y-111248571D01*
X143554285Y-111134285D01*
X143554285Y-111048571D01*
X143525714Y-110934285D01*
X143497142Y-110877142D01*
X143440000Y-110820000D01*
X143354285Y-110791428D01*
X143297142Y-110791428D01*
X143211428Y-110820000D01*
X143182857Y-110848571D01*
X142811428Y-110791428D02*
X142697142Y-110791428D01*
X142640000Y-110820000D01*
X142582857Y-110877142D01*
X142554285Y-110991428D01*
X142554285Y-111191428D01*
X142582857Y-111305714D01*
X142640000Y-111362857D01*
X142697142Y-111391428D01*
X142811428Y-111391428D01*
X142868571Y-111362857D01*
X142925714Y-111305714D01*
X142954285Y-111191428D01*
X142954285Y-110991428D01*
X142925714Y-110877142D01*
X142868571Y-110820000D01*
X142811428Y-110791428D01*
X142325714Y-111362857D02*
X142240000Y-111391428D01*
X142097142Y-111391428D01*
X142040000Y-111362857D01*
X142011428Y-111334285D01*
X141982857Y-111277142D01*
X141982857Y-111220000D01*
X142011428Y-111162857D01*
X142040000Y-111134285D01*
X142097142Y-111105714D01*
X142211428Y-111077142D01*
X142268571Y-111048571D01*
X142297142Y-111020000D01*
X142325714Y-110962857D01*
X142325714Y-110905714D01*
X142297142Y-110848571D01*
X142268571Y-110820000D01*
X142211428Y-110791428D01*
X142068571Y-110791428D01*
X141982857Y-110820000D01*
X141811428Y-110791428D02*
X141468571Y-110791428D01*
X141640000Y-111391428D02*
X141640000Y-110791428D01*
X141268571Y-111077142D02*
X141068571Y-111077142D01*
X140982857Y-111391428D02*
X141268571Y-111391428D01*
X141268571Y-110791428D01*
X140982857Y-110791428D01*
X140440000Y-111391428D02*
X140725714Y-111391428D01*
X140725714Y-110791428D01*
X139954285Y-111391428D02*
X140240000Y-111391428D01*
X140240000Y-110791428D01*
X139782857Y-111220000D02*
X139497142Y-111220000D01*
X139840000Y-111391428D02*
X139640000Y-110791428D01*
X139440000Y-111391428D01*
D13*
X150206666Y-91299523D02*
X150206666Y-87299523D01*
X150206666Y-91109047D02*
X150587619Y-91299523D01*
X151349523Y-91299523D01*
X151730476Y-91109047D01*
X151920952Y-90918571D01*
X152111428Y-90537619D01*
X152111428Y-89394761D01*
X151920952Y-89013809D01*
X151730476Y-88823333D01*
X151349523Y-88632857D01*
X150587619Y-88632857D01*
X150206666Y-88823333D01*
X148682857Y-88632857D02*
X147730476Y-91299523D01*
X146778095Y-88632857D01*
X143730476Y-91109047D02*
X144111428Y-91299523D01*
X144873333Y-91299523D01*
X145254285Y-91109047D01*
X145444761Y-90728095D01*
X145444761Y-89204285D01*
X145254285Y-88823333D01*
X144873333Y-88632857D01*
X144111428Y-88632857D01*
X143730476Y-88823333D01*
X143540000Y-89204285D01*
X143540000Y-89585238D01*
X145444761Y-89966190D01*
X141825714Y-91299523D02*
X141825714Y-88632857D01*
X141825714Y-89394761D02*
X141635238Y-89013809D01*
X141444761Y-88823333D01*
X141063809Y-88632857D01*
X140682857Y-88632857D01*
X139920952Y-88632857D02*
X138397142Y-88632857D01*
X139349523Y-87299523D02*
X139349523Y-90728095D01*
X139159047Y-91109047D01*
X138778095Y-91299523D01*
X138397142Y-91299523D01*
X137254285Y-87680476D02*
X137063809Y-87490000D01*
X136682857Y-87299523D01*
X135730476Y-87299523D01*
X135349523Y-87490000D01*
X135159047Y-87680476D01*
X134968571Y-88061428D01*
X134968571Y-88442380D01*
X135159047Y-89013809D01*
X137444761Y-91299523D01*
X134968571Y-91299523D01*
D11*
X117871428Y-94502857D02*
X117785714Y-94531428D01*
X117642857Y-94531428D01*
X117585714Y-94502857D01*
X117557142Y-94474285D01*
X117528571Y-94417142D01*
X117528571Y-94360000D01*
X117557142Y-94302857D01*
X117585714Y-94274285D01*
X117642857Y-94245714D01*
X117757142Y-94217142D01*
X117814285Y-94188571D01*
X117842857Y-94160000D01*
X117871428Y-94102857D01*
X117871428Y-94045714D01*
X117842857Y-93988571D01*
X117814285Y-93960000D01*
X117757142Y-93931428D01*
X117614285Y-93931428D01*
X117528571Y-93960000D01*
X116928571Y-94474285D02*
X116957142Y-94502857D01*
X117042857Y-94531428D01*
X117100000Y-94531428D01*
X117185714Y-94502857D01*
X117242857Y-94445714D01*
X117271428Y-94388571D01*
X117300000Y-94274285D01*
X117300000Y-94188571D01*
X117271428Y-94074285D01*
X117242857Y-94017142D01*
X117185714Y-93960000D01*
X117100000Y-93931428D01*
X117042857Y-93931428D01*
X116957142Y-93960000D01*
X116928571Y-93988571D01*
X116671428Y-94531428D02*
X116671428Y-93931428D01*
X116328571Y-94531428D02*
X116585714Y-94188571D01*
X116328571Y-93931428D02*
X116671428Y-94274285D01*
X147562857Y-118321428D02*
X147191428Y-118321428D01*
X147391428Y-118550000D01*
X147305714Y-118550000D01*
X147248571Y-118578571D01*
X147220000Y-118607142D01*
X147191428Y-118664285D01*
X147191428Y-118807142D01*
X147220000Y-118864285D01*
X147248571Y-118892857D01*
X147305714Y-118921428D01*
X147477142Y-118921428D01*
X147534285Y-118892857D01*
X147562857Y-118864285D01*
X147020000Y-118321428D02*
X146820000Y-118921428D01*
X146620000Y-118321428D01*
X146477142Y-118321428D02*
X146105714Y-118321428D01*
X146305714Y-118550000D01*
X146220000Y-118550000D01*
X146162857Y-118578571D01*
X146134285Y-118607142D01*
X146105714Y-118664285D01*
X146105714Y-118807142D01*
X146134285Y-118864285D01*
X146162857Y-118892857D01*
X146220000Y-118921428D01*
X146391428Y-118921428D01*
X146448571Y-118892857D01*
X146477142Y-118864285D01*
X141252857Y-73430000D02*
X141195714Y-73458571D01*
X141110000Y-73458571D01*
X141024285Y-73430000D01*
X140967142Y-73372857D01*
X140938571Y-73315714D01*
X140910000Y-73201428D01*
X140910000Y-73115714D01*
X140938571Y-73001428D01*
X140967142Y-72944285D01*
X141024285Y-72887142D01*
X141110000Y-72858571D01*
X141167142Y-72858571D01*
X141252857Y-72887142D01*
X141281428Y-72915714D01*
X141281428Y-73115714D01*
X141167142Y-73115714D01*
X141538571Y-72858571D02*
X141538571Y-73458571D01*
X141881428Y-72858571D01*
X141881428Y-73458571D01*
X142167142Y-72858571D02*
X142167142Y-73458571D01*
X142310000Y-73458571D01*
X142395714Y-73430000D01*
X142452857Y-73372857D01*
X142481428Y-73315714D01*
X142510000Y-73201428D01*
X142510000Y-73115714D01*
X142481428Y-73001428D01*
X142452857Y-72944285D01*
X142395714Y-72887142D01*
X142310000Y-72858571D01*
X142167142Y-72858571D01*
X164100000Y-115957142D02*
X164128571Y-116014285D01*
X164128571Y-116100000D01*
X164100000Y-116185714D01*
X164042857Y-116242857D01*
X163985714Y-116271428D01*
X163871428Y-116300000D01*
X163785714Y-116300000D01*
X163671428Y-116271428D01*
X163614285Y-116242857D01*
X163557142Y-116185714D01*
X163528571Y-116100000D01*
X163528571Y-116042857D01*
X163557142Y-115957142D01*
X163585714Y-115928571D01*
X163785714Y-115928571D01*
X163785714Y-116042857D01*
X163528571Y-115671428D02*
X164128571Y-115671428D01*
X163528571Y-115328571D01*
X164128571Y-115328571D01*
X163528571Y-115042857D02*
X164128571Y-115042857D01*
X164128571Y-114900000D01*
X164100000Y-114814285D01*
X164042857Y-114757142D01*
X163985714Y-114728571D01*
X163871428Y-114700000D01*
X163785714Y-114700000D01*
X163671428Y-114728571D01*
X163614285Y-114757142D01*
X163557142Y-114814285D01*
X163528571Y-114900000D01*
X163528571Y-115042857D01*
X163280000Y-101922857D02*
X162822857Y-101922857D01*
X163051428Y-102151428D02*
X163051428Y-101694285D01*
X162565714Y-101608571D02*
X162537142Y-101580000D01*
X162480000Y-101551428D01*
X162337142Y-101551428D01*
X162280000Y-101580000D01*
X162251428Y-101608571D01*
X162222857Y-101665714D01*
X162222857Y-101722857D01*
X162251428Y-101808571D01*
X162594285Y-102151428D01*
X162222857Y-102151428D01*
X161708571Y-101751428D02*
X161708571Y-102151428D01*
X161851428Y-101522857D02*
X161994285Y-101951428D01*
X161622857Y-101951428D01*
X169810000Y-101892857D02*
X169352857Y-101892857D01*
X169581428Y-102121428D02*
X169581428Y-101664285D01*
X169095714Y-101578571D02*
X169067142Y-101550000D01*
X169010000Y-101521428D01*
X168867142Y-101521428D01*
X168810000Y-101550000D01*
X168781428Y-101578571D01*
X168752857Y-101635714D01*
X168752857Y-101692857D01*
X168781428Y-101778571D01*
X169124285Y-102121428D01*
X168752857Y-102121428D01*
X168238571Y-101721428D02*
X168238571Y-102121428D01*
X168381428Y-101492857D02*
X168524285Y-101921428D01*
X168152857Y-101921428D01*
X169486190Y-96966428D02*
X169512380Y-96992619D01*
X169590952Y-97018809D01*
X169643333Y-97018809D01*
X169721904Y-96992619D01*
X169774285Y-96940238D01*
X169800476Y-96887857D01*
X169826666Y-96783095D01*
X169826666Y-96704523D01*
X169800476Y-96599761D01*
X169774285Y-96547380D01*
X169721904Y-96495000D01*
X169643333Y-96468809D01*
X169590952Y-96468809D01*
X169512380Y-96495000D01*
X169486190Y-96521190D01*
X169276666Y-96861666D02*
X169014761Y-96861666D01*
X169329047Y-97018809D02*
X169145714Y-96468809D01*
X168962380Y-97018809D01*
X168779047Y-97018809D02*
X168779047Y-96468809D01*
X168464761Y-97018809D01*
X168464761Y-96468809D01*
X167940952Y-97018809D02*
X168202857Y-97018809D01*
X168202857Y-96468809D01*
X123987142Y-99000000D02*
X124044285Y-98971428D01*
X124130000Y-98971428D01*
X124215714Y-99000000D01*
X124272857Y-99057142D01*
X124301428Y-99114285D01*
X124330000Y-99228571D01*
X124330000Y-99314285D01*
X124301428Y-99428571D01*
X124272857Y-99485714D01*
X124215714Y-99542857D01*
X124130000Y-99571428D01*
X124072857Y-99571428D01*
X123987142Y-99542857D01*
X123958571Y-99514285D01*
X123958571Y-99314285D01*
X124072857Y-99314285D01*
X123701428Y-99571428D02*
X123701428Y-98971428D01*
X123358571Y-99571428D01*
X123358571Y-98971428D01*
X123072857Y-99571428D02*
X123072857Y-98971428D01*
X122930000Y-98971428D01*
X122844285Y-99000000D01*
X122787142Y-99057142D01*
X122758571Y-99114285D01*
X122730000Y-99228571D01*
X122730000Y-99314285D01*
X122758571Y-99428571D01*
X122787142Y-99485714D01*
X122844285Y-99542857D01*
X122930000Y-99571428D01*
X123072857Y-99571428D01*
X156187142Y-101450000D02*
X156244285Y-101421428D01*
X156330000Y-101421428D01*
X156415714Y-101450000D01*
X156472857Y-101507142D01*
X156501428Y-101564285D01*
X156530000Y-101678571D01*
X156530000Y-101764285D01*
X156501428Y-101878571D01*
X156472857Y-101935714D01*
X156415714Y-101992857D01*
X156330000Y-102021428D01*
X156272857Y-102021428D01*
X156187142Y-101992857D01*
X156158571Y-101964285D01*
X156158571Y-101764285D01*
X156272857Y-101764285D01*
X155901428Y-102021428D02*
X155901428Y-101421428D01*
X155558571Y-102021428D01*
X155558571Y-101421428D01*
X155272857Y-102021428D02*
X155272857Y-101421428D01*
X155130000Y-101421428D01*
X155044285Y-101450000D01*
X154987142Y-101507142D01*
X154958571Y-101564285D01*
X154930000Y-101678571D01*
X154930000Y-101764285D01*
X154958571Y-101878571D01*
X154987142Y-101935714D01*
X155044285Y-101992857D01*
X155130000Y-102021428D01*
X155272857Y-102021428D01*
X124228571Y-89372857D02*
X124142857Y-89401428D01*
X124000000Y-89401428D01*
X123942857Y-89372857D01*
X123914285Y-89344285D01*
X123885714Y-89287142D01*
X123885714Y-89230000D01*
X123914285Y-89172857D01*
X123942857Y-89144285D01*
X124000000Y-89115714D01*
X124114285Y-89087142D01*
X124171428Y-89058571D01*
X124200000Y-89030000D01*
X124228571Y-88972857D01*
X124228571Y-88915714D01*
X124200000Y-88858571D01*
X124171428Y-88830000D01*
X124114285Y-88801428D01*
X123971428Y-88801428D01*
X123885714Y-88830000D01*
X123628571Y-89401428D02*
X123628571Y-88801428D01*
X123485714Y-88801428D01*
X123400000Y-88830000D01*
X123342857Y-88887142D01*
X123314285Y-88944285D01*
X123285714Y-89058571D01*
X123285714Y-89144285D01*
X123314285Y-89258571D01*
X123342857Y-89315714D01*
X123400000Y-89372857D01*
X123485714Y-89401428D01*
X123628571Y-89401428D01*
X123057142Y-89230000D02*
X122771428Y-89230000D01*
X123114285Y-89401428D02*
X122914285Y-88801428D01*
X122714285Y-89401428D01*
X169310000Y-86881428D02*
X169510000Y-86595714D01*
X169652857Y-86881428D02*
X169652857Y-86281428D01*
X169424285Y-86281428D01*
X169367142Y-86310000D01*
X169338571Y-86338571D01*
X169310000Y-86395714D01*
X169310000Y-86481428D01*
X169338571Y-86538571D01*
X169367142Y-86567142D01*
X169424285Y-86595714D01*
X169652857Y-86595714D01*
X169110000Y-86281428D02*
X168710000Y-86881428D01*
X168710000Y-86281428D02*
X169110000Y-86881428D01*
X168481428Y-86881428D02*
X168481428Y-86281428D01*
X168338571Y-86281428D01*
X168252857Y-86310000D01*
X168195714Y-86367142D01*
X168167142Y-86424285D01*
X168138571Y-86538571D01*
X168138571Y-86624285D01*
X168167142Y-86738571D01*
X168195714Y-86795714D01*
X168252857Y-86852857D01*
X168338571Y-86881428D01*
X168481428Y-86881428D01*
X136192857Y-67620000D02*
X136135714Y-67648571D01*
X136050000Y-67648571D01*
X135964285Y-67620000D01*
X135907142Y-67562857D01*
X135878571Y-67505714D01*
X135850000Y-67391428D01*
X135850000Y-67305714D01*
X135878571Y-67191428D01*
X135907142Y-67134285D01*
X135964285Y-67077142D01*
X136050000Y-67048571D01*
X136107142Y-67048571D01*
X136192857Y-67077142D01*
X136221428Y-67105714D01*
X136221428Y-67305714D01*
X136107142Y-67305714D01*
X136478571Y-67048571D02*
X136478571Y-67648571D01*
X136821428Y-67048571D01*
X136821428Y-67648571D01*
X137107142Y-67048571D02*
X137107142Y-67648571D01*
X137250000Y-67648571D01*
X137335714Y-67620000D01*
X137392857Y-67562857D01*
X137421428Y-67505714D01*
X137450000Y-67391428D01*
X137450000Y-67305714D01*
X137421428Y-67191428D01*
X137392857Y-67134285D01*
X137335714Y-67077142D01*
X137250000Y-67048571D01*
X137107142Y-67048571D01*
X117867142Y-86361428D02*
X117524285Y-86361428D01*
X117695714Y-86961428D02*
X117695714Y-86361428D01*
X117381428Y-86361428D02*
X116981428Y-86961428D01*
X116981428Y-86361428D02*
X117381428Y-86961428D01*
X116752857Y-86961428D02*
X116752857Y-86361428D01*
X116610000Y-86361428D01*
X116524285Y-86390000D01*
X116467142Y-86447142D01*
X116438571Y-86504285D01*
X116410000Y-86618571D01*
X116410000Y-86704285D01*
X116438571Y-86818571D01*
X116467142Y-86875714D01*
X116524285Y-86932857D01*
X116610000Y-86961428D01*
X116752857Y-86961428D01*
X156602857Y-104081428D02*
X156231428Y-104081428D01*
X156431428Y-104310000D01*
X156345714Y-104310000D01*
X156288571Y-104338571D01*
X156260000Y-104367142D01*
X156231428Y-104424285D01*
X156231428Y-104567142D01*
X156260000Y-104624285D01*
X156288571Y-104652857D01*
X156345714Y-104681428D01*
X156517142Y-104681428D01*
X156574285Y-104652857D01*
X156602857Y-104624285D01*
X156060000Y-104081428D02*
X155860000Y-104681428D01*
X155660000Y-104081428D01*
X155517142Y-104081428D02*
X155145714Y-104081428D01*
X155345714Y-104310000D01*
X155260000Y-104310000D01*
X155202857Y-104338571D01*
X155174285Y-104367142D01*
X155145714Y-104424285D01*
X155145714Y-104567142D01*
X155174285Y-104624285D01*
X155202857Y-104652857D01*
X155260000Y-104681428D01*
X155431428Y-104681428D01*
X155488571Y-104652857D01*
X155517142Y-104624285D01*
X134577142Y-118340000D02*
X134634285Y-118311428D01*
X134720000Y-118311428D01*
X134805714Y-118340000D01*
X134862857Y-118397142D01*
X134891428Y-118454285D01*
X134920000Y-118568571D01*
X134920000Y-118654285D01*
X134891428Y-118768571D01*
X134862857Y-118825714D01*
X134805714Y-118882857D01*
X134720000Y-118911428D01*
X134662857Y-118911428D01*
X134577142Y-118882857D01*
X134548571Y-118854285D01*
X134548571Y-118654285D01*
X134662857Y-118654285D01*
X134291428Y-118911428D02*
X134291428Y-118311428D01*
X133948571Y-118911428D01*
X133948571Y-118311428D01*
X133662857Y-118911428D02*
X133662857Y-118311428D01*
X133520000Y-118311428D01*
X133434285Y-118340000D01*
X133377142Y-118397142D01*
X133348571Y-118454285D01*
X133320000Y-118568571D01*
X133320000Y-118654285D01*
X133348571Y-118768571D01*
X133377142Y-118825714D01*
X133434285Y-118882857D01*
X133520000Y-118911428D01*
X133662857Y-118911428D01*
X117891428Y-99357142D02*
X117691428Y-99357142D01*
X117605714Y-99671428D02*
X117891428Y-99671428D01*
X117891428Y-99071428D01*
X117605714Y-99071428D01*
X117434285Y-99071428D02*
X117091428Y-99071428D01*
X117262857Y-99671428D02*
X117262857Y-99071428D01*
X116891428Y-99671428D02*
X116891428Y-99071428D01*
X116891428Y-99357142D02*
X116548571Y-99357142D01*
X116548571Y-99671428D02*
X116548571Y-99071428D01*
X118052857Y-92061428D02*
X118052857Y-91461428D01*
X117852857Y-91890000D01*
X117652857Y-91461428D01*
X117652857Y-92061428D01*
X117367142Y-92061428D02*
X117367142Y-91461428D01*
X117110000Y-92032857D02*
X117024285Y-92061428D01*
X116881428Y-92061428D01*
X116824285Y-92032857D01*
X116795714Y-92004285D01*
X116767142Y-91947142D01*
X116767142Y-91890000D01*
X116795714Y-91832857D01*
X116824285Y-91804285D01*
X116881428Y-91775714D01*
X116995714Y-91747142D01*
X117052857Y-91718571D01*
X117081428Y-91690000D01*
X117110000Y-91632857D01*
X117110000Y-91575714D01*
X117081428Y-91518571D01*
X117052857Y-91490000D01*
X116995714Y-91461428D01*
X116852857Y-91461428D01*
X116767142Y-91490000D01*
X116395714Y-91461428D02*
X116281428Y-91461428D01*
X116224285Y-91490000D01*
X116167142Y-91547142D01*
X116138571Y-91661428D01*
X116138571Y-91861428D01*
X116167142Y-91975714D01*
X116224285Y-92032857D01*
X116281428Y-92061428D01*
X116395714Y-92061428D01*
X116452857Y-92032857D01*
X116510000Y-91975714D01*
X116538571Y-91861428D01*
X116538571Y-91661428D01*
X116510000Y-91547142D01*
X116452857Y-91490000D01*
X116395714Y-91461428D01*
X144737142Y-112510000D02*
X144794285Y-112481428D01*
X144880000Y-112481428D01*
X144965714Y-112510000D01*
X145022857Y-112567142D01*
X145051428Y-112624285D01*
X145080000Y-112738571D01*
X145080000Y-112824285D01*
X145051428Y-112938571D01*
X145022857Y-112995714D01*
X144965714Y-113052857D01*
X144880000Y-113081428D01*
X144822857Y-113081428D01*
X144737142Y-113052857D01*
X144708571Y-113024285D01*
X144708571Y-112824285D01*
X144822857Y-112824285D01*
X144451428Y-113081428D02*
X144451428Y-112481428D01*
X144108571Y-113081428D01*
X144108571Y-112481428D01*
X143822857Y-113081428D02*
X143822857Y-112481428D01*
X143680000Y-112481428D01*
X143594285Y-112510000D01*
X143537142Y-112567142D01*
X143508571Y-112624285D01*
X143480000Y-112738571D01*
X143480000Y-112824285D01*
X143508571Y-112938571D01*
X143537142Y-112995714D01*
X143594285Y-113052857D01*
X143680000Y-113081428D01*
X143822857Y-113081428D01*
X141982857Y-118607142D02*
X141897142Y-118635714D01*
X141868571Y-118664285D01*
X141840000Y-118721428D01*
X141840000Y-118807142D01*
X141868571Y-118864285D01*
X141897142Y-118892857D01*
X141954285Y-118921428D01*
X142182857Y-118921428D01*
X142182857Y-118321428D01*
X141982857Y-118321428D01*
X141925714Y-118350000D01*
X141897142Y-118378571D01*
X141868571Y-118435714D01*
X141868571Y-118492857D01*
X141897142Y-118550000D01*
X141925714Y-118578571D01*
X141982857Y-118607142D01*
X142182857Y-118607142D01*
X141297142Y-118321428D02*
X141582857Y-118321428D01*
X141611428Y-118607142D01*
X141582857Y-118578571D01*
X141525714Y-118550000D01*
X141382857Y-118550000D01*
X141325714Y-118578571D01*
X141297142Y-118607142D01*
X141268571Y-118664285D01*
X141268571Y-118807142D01*
X141297142Y-118864285D01*
X141325714Y-118892857D01*
X141382857Y-118921428D01*
X141525714Y-118921428D01*
X141582857Y-118892857D01*
X141611428Y-118864285D01*
X162840000Y-97034285D02*
X162868571Y-97062857D01*
X162954285Y-97091428D01*
X163011428Y-97091428D01*
X163097142Y-97062857D01*
X163154285Y-97005714D01*
X163182857Y-96948571D01*
X163211428Y-96834285D01*
X163211428Y-96748571D01*
X163182857Y-96634285D01*
X163154285Y-96577142D01*
X163097142Y-96520000D01*
X163011428Y-96491428D01*
X162954285Y-96491428D01*
X162868571Y-96520000D01*
X162840000Y-96548571D01*
X162611428Y-96920000D02*
X162325714Y-96920000D01*
X162668571Y-97091428D02*
X162468571Y-96491428D01*
X162268571Y-97091428D01*
X162068571Y-97091428D02*
X162068571Y-96491428D01*
X161725714Y-97091428D01*
X161725714Y-96491428D01*
X161440000Y-97091428D02*
X161440000Y-96491428D01*
X161440000Y-96777142D02*
X161097142Y-96777142D01*
X161097142Y-97091428D02*
X161097142Y-96491428D01*
X141942857Y-112757142D02*
X141857142Y-112785714D01*
X141828571Y-112814285D01*
X141800000Y-112871428D01*
X141800000Y-112957142D01*
X141828571Y-113014285D01*
X141857142Y-113042857D01*
X141914285Y-113071428D01*
X142142857Y-113071428D01*
X142142857Y-112471428D01*
X141942857Y-112471428D01*
X141885714Y-112500000D01*
X141857142Y-112528571D01*
X141828571Y-112585714D01*
X141828571Y-112642857D01*
X141857142Y-112700000D01*
X141885714Y-112728571D01*
X141942857Y-112757142D01*
X142142857Y-112757142D01*
X141285714Y-112471428D02*
X141400000Y-112471428D01*
X141457142Y-112500000D01*
X141485714Y-112528571D01*
X141542857Y-112614285D01*
X141571428Y-112728571D01*
X141571428Y-112957142D01*
X141542857Y-113014285D01*
X141514285Y-113042857D01*
X141457142Y-113071428D01*
X141342857Y-113071428D01*
X141285714Y-113042857D01*
X141257142Y-113014285D01*
X141228571Y-112957142D01*
X141228571Y-112814285D01*
X141257142Y-112757142D01*
X141285714Y-112728571D01*
X141342857Y-112700000D01*
X141457142Y-112700000D01*
X141514285Y-112728571D01*
X141542857Y-112757142D01*
X141571428Y-112814285D01*
X117852857Y-83821428D02*
X117481428Y-83821428D01*
X117681428Y-84050000D01*
X117595714Y-84050000D01*
X117538571Y-84078571D01*
X117510000Y-84107142D01*
X117481428Y-84164285D01*
X117481428Y-84307142D01*
X117510000Y-84364285D01*
X117538571Y-84392857D01*
X117595714Y-84421428D01*
X117767142Y-84421428D01*
X117824285Y-84392857D01*
X117852857Y-84364285D01*
X117310000Y-83821428D02*
X117110000Y-84421428D01*
X116910000Y-83821428D01*
X116767142Y-83821428D02*
X116395714Y-83821428D01*
X116595714Y-84050000D01*
X116510000Y-84050000D01*
X116452857Y-84078571D01*
X116424285Y-84107142D01*
X116395714Y-84164285D01*
X116395714Y-84307142D01*
X116424285Y-84364285D01*
X116452857Y-84392857D01*
X116510000Y-84421428D01*
X116681428Y-84421428D01*
X116738571Y-84392857D01*
X116767142Y-84364285D01*
D13*
X154954285Y-114844285D02*
X154382857Y-115034761D01*
X154192380Y-115225238D01*
X154001904Y-115606190D01*
X154001904Y-116177619D01*
X154192380Y-116558571D01*
X154382857Y-116749047D01*
X154763809Y-116939523D01*
X156287619Y-116939523D01*
X156287619Y-112939523D01*
X154954285Y-112939523D01*
X154573333Y-113130000D01*
X154382857Y-113320476D01*
X154192380Y-113701428D01*
X154192380Y-114082380D01*
X154382857Y-114463333D01*
X154573333Y-114653809D01*
X154954285Y-114844285D01*
X156287619Y-114844285D01*
D11*
X117920000Y-101852857D02*
X117462857Y-101852857D01*
X117691428Y-102081428D02*
X117691428Y-101624285D01*
X117205714Y-101538571D02*
X117177142Y-101510000D01*
X117120000Y-101481428D01*
X116977142Y-101481428D01*
X116920000Y-101510000D01*
X116891428Y-101538571D01*
X116862857Y-101595714D01*
X116862857Y-101652857D01*
X116891428Y-101738571D01*
X117234285Y-102081428D01*
X116862857Y-102081428D01*
X116348571Y-101681428D02*
X116348571Y-102081428D01*
X116491428Y-101452857D02*
X116634285Y-101881428D01*
X116262857Y-101881428D01*
X136862857Y-118597142D02*
X136777142Y-118625714D01*
X136748571Y-118654285D01*
X136720000Y-118711428D01*
X136720000Y-118797142D01*
X136748571Y-118854285D01*
X136777142Y-118882857D01*
X136834285Y-118911428D01*
X137062857Y-118911428D01*
X137062857Y-118311428D01*
X136862857Y-118311428D01*
X136805714Y-118340000D01*
X136777142Y-118368571D01*
X136748571Y-118425714D01*
X136748571Y-118482857D01*
X136777142Y-118540000D01*
X136805714Y-118568571D01*
X136862857Y-118597142D01*
X137062857Y-118597142D01*
X136148571Y-118911428D02*
X136491428Y-118911428D01*
X136320000Y-118911428D02*
X136320000Y-118311428D01*
X136377142Y-118397142D01*
X136434285Y-118454285D01*
X136491428Y-118482857D01*
X163121428Y-99327142D02*
X162921428Y-99327142D01*
X162835714Y-99641428D02*
X163121428Y-99641428D01*
X163121428Y-99041428D01*
X162835714Y-99041428D01*
X162664285Y-99041428D02*
X162321428Y-99041428D01*
X162492857Y-99641428D02*
X162492857Y-99041428D01*
X162121428Y-99641428D02*
X162121428Y-99041428D01*
X162121428Y-99327142D02*
X161778571Y-99327142D01*
X161778571Y-99641428D02*
X161778571Y-99041428D01*
X139848571Y-74578571D02*
X139648571Y-74864285D01*
X139505714Y-74578571D02*
X139505714Y-75178571D01*
X139734285Y-75178571D01*
X139791428Y-75150000D01*
X139820000Y-75121428D01*
X139848571Y-75064285D01*
X139848571Y-74978571D01*
X139820000Y-74921428D01*
X139791428Y-74892857D01*
X139734285Y-74864285D01*
X139505714Y-74864285D01*
X140105714Y-74578571D02*
X140105714Y-75178571D01*
X140591428Y-74892857D02*
X140677142Y-74864285D01*
X140705714Y-74835714D01*
X140734285Y-74778571D01*
X140734285Y-74692857D01*
X140705714Y-74635714D01*
X140677142Y-74607142D01*
X140620000Y-74578571D01*
X140391428Y-74578571D01*
X140391428Y-75178571D01*
X140591428Y-75178571D01*
X140648571Y-75150000D01*
X140677142Y-75121428D01*
X140705714Y-75064285D01*
X140705714Y-75007142D01*
X140677142Y-74950000D01*
X140648571Y-74921428D01*
X140591428Y-74892857D01*
X140391428Y-74892857D01*
X141877142Y-75207142D02*
X141362857Y-74435714D01*
X142877142Y-74635714D02*
X142848571Y-74607142D01*
X142762857Y-74578571D01*
X142705714Y-74578571D01*
X142620000Y-74607142D01*
X142562857Y-74664285D01*
X142534285Y-74721428D01*
X142505714Y-74835714D01*
X142505714Y-74921428D01*
X142534285Y-75035714D01*
X142562857Y-75092857D01*
X142620000Y-75150000D01*
X142705714Y-75178571D01*
X142762857Y-75178571D01*
X142848571Y-75150000D01*
X142877142Y-75121428D01*
X143248571Y-75178571D02*
X143362857Y-75178571D01*
X143420000Y-75150000D01*
X143477142Y-75092857D01*
X143505714Y-74978571D01*
X143505714Y-74778571D01*
X143477142Y-74664285D01*
X143420000Y-74607142D01*
X143362857Y-74578571D01*
X143248571Y-74578571D01*
X143191428Y-74607142D01*
X143134285Y-74664285D01*
X143105714Y-74778571D01*
X143105714Y-74978571D01*
X143134285Y-75092857D01*
X143191428Y-75150000D01*
X143248571Y-75178571D01*
X143734285Y-74607142D02*
X143820000Y-74578571D01*
X143962857Y-74578571D01*
X144020000Y-74607142D01*
X144048571Y-74635714D01*
X144077142Y-74692857D01*
X144077142Y-74750000D01*
X144048571Y-74807142D01*
X144020000Y-74835714D01*
X143962857Y-74864285D01*
X143848571Y-74892857D01*
X143791428Y-74921428D01*
X143762857Y-74950000D01*
X143734285Y-75007142D01*
X143734285Y-75064285D01*
X143762857Y-75121428D01*
X143791428Y-75150000D01*
X143848571Y-75178571D01*
X143991428Y-75178571D01*
X144077142Y-75150000D01*
X144248571Y-75178571D02*
X144591428Y-75178571D01*
X144420000Y-74578571D02*
X144420000Y-75178571D01*
X144791428Y-74892857D02*
X144991428Y-74892857D01*
X145077142Y-74578571D02*
X144791428Y-74578571D01*
X144791428Y-75178571D01*
X145077142Y-75178571D01*
X145620000Y-74578571D02*
X145334285Y-74578571D01*
X145334285Y-75178571D01*
X146105714Y-74578571D02*
X145820000Y-74578571D01*
X145820000Y-75178571D01*
X146277142Y-74750000D02*
X146562857Y-74750000D01*
X146220000Y-74578571D02*
X146420000Y-75178571D01*
X146620000Y-74578571D01*
X141877142Y-85531428D02*
X141534285Y-85531428D01*
X141705714Y-86131428D02*
X141705714Y-85531428D01*
X141391428Y-85531428D02*
X140991428Y-86131428D01*
X140991428Y-85531428D02*
X141391428Y-86131428D01*
X147222857Y-85521428D02*
X146851428Y-85521428D01*
X147051428Y-85750000D01*
X146965714Y-85750000D01*
X146908571Y-85778571D01*
X146880000Y-85807142D01*
X146851428Y-85864285D01*
X146851428Y-86007142D01*
X146880000Y-86064285D01*
X146908571Y-86092857D01*
X146965714Y-86121428D01*
X147137142Y-86121428D01*
X147194285Y-86092857D01*
X147222857Y-86064285D01*
X146680000Y-85521428D02*
X146480000Y-86121428D01*
X146280000Y-85521428D01*
X146137142Y-85521428D02*
X145765714Y-85521428D01*
X145965714Y-85750000D01*
X145880000Y-85750000D01*
X145822857Y-85778571D01*
X145794285Y-85807142D01*
X145765714Y-85864285D01*
X145765714Y-86007142D01*
X145794285Y-86064285D01*
X145822857Y-86092857D01*
X145880000Y-86121428D01*
X146051428Y-86121428D01*
X146108571Y-86092857D01*
X146137142Y-86064285D01*
X133310000Y-67267142D02*
X133767142Y-67267142D01*
X133538571Y-67038571D02*
X133538571Y-67495714D01*
X134024285Y-67581428D02*
X134052857Y-67610000D01*
X134110000Y-67638571D01*
X134252857Y-67638571D01*
X134310000Y-67610000D01*
X134338571Y-67581428D01*
X134367142Y-67524285D01*
X134367142Y-67467142D01*
X134338571Y-67381428D01*
X133995714Y-67038571D01*
X134367142Y-67038571D01*
X134881428Y-67438571D02*
X134881428Y-67038571D01*
X134738571Y-67667142D02*
X134595714Y-67238571D01*
X134967142Y-67238571D01*
X169517142Y-83810000D02*
X169574285Y-83781428D01*
X169660000Y-83781428D01*
X169745714Y-83810000D01*
X169802857Y-83867142D01*
X169831428Y-83924285D01*
X169860000Y-84038571D01*
X169860000Y-84124285D01*
X169831428Y-84238571D01*
X169802857Y-84295714D01*
X169745714Y-84352857D01*
X169660000Y-84381428D01*
X169602857Y-84381428D01*
X169517142Y-84352857D01*
X169488571Y-84324285D01*
X169488571Y-84124285D01*
X169602857Y-84124285D01*
X169231428Y-84381428D02*
X169231428Y-83781428D01*
X168888571Y-84381428D01*
X168888571Y-83781428D01*
X168602857Y-84381428D02*
X168602857Y-83781428D01*
X168460000Y-83781428D01*
X168374285Y-83810000D01*
X168317142Y-83867142D01*
X168288571Y-83924285D01*
X168260000Y-84038571D01*
X168260000Y-84124285D01*
X168288571Y-84238571D01*
X168317142Y-84295714D01*
X168374285Y-84352857D01*
X168460000Y-84381428D01*
X168602857Y-84381428D01*
X156368571Y-91914285D02*
X156397142Y-91942857D01*
X156482857Y-91971428D01*
X156540000Y-91971428D01*
X156625714Y-91942857D01*
X156682857Y-91885714D01*
X156711428Y-91828571D01*
X156740000Y-91714285D01*
X156740000Y-91628571D01*
X156711428Y-91514285D01*
X156682857Y-91457142D01*
X156625714Y-91400000D01*
X156540000Y-91371428D01*
X156482857Y-91371428D01*
X156397142Y-91400000D01*
X156368571Y-91428571D01*
X156140000Y-91800000D02*
X155854285Y-91800000D01*
X156197142Y-91971428D02*
X155997142Y-91371428D01*
X155797142Y-91971428D01*
X155597142Y-91971428D02*
X155597142Y-91371428D01*
X155254285Y-91971428D01*
X155254285Y-91371428D01*
X154682857Y-91971428D02*
X154968571Y-91971428D01*
X154968571Y-91371428D01*
X157750000Y-115888571D02*
X157750000Y-115602857D01*
X157578571Y-115945714D02*
X158178571Y-115745714D01*
X157578571Y-115545714D01*
X157578571Y-115031428D02*
X157578571Y-115374285D01*
X157578571Y-115202857D02*
X158178571Y-115202857D01*
X158092857Y-115260000D01*
X158035714Y-115317142D01*
X158007142Y-115374285D01*
X123967142Y-83740000D02*
X124024285Y-83711428D01*
X124110000Y-83711428D01*
X124195714Y-83740000D01*
X124252857Y-83797142D01*
X124281428Y-83854285D01*
X124310000Y-83968571D01*
X124310000Y-84054285D01*
X124281428Y-84168571D01*
X124252857Y-84225714D01*
X124195714Y-84282857D01*
X124110000Y-84311428D01*
X124052857Y-84311428D01*
X123967142Y-84282857D01*
X123938571Y-84254285D01*
X123938571Y-84054285D01*
X124052857Y-84054285D01*
X123681428Y-84311428D02*
X123681428Y-83711428D01*
X123338571Y-84311428D01*
X123338571Y-83711428D01*
X123052857Y-84311428D02*
X123052857Y-83711428D01*
X122910000Y-83711428D01*
X122824285Y-83740000D01*
X122767142Y-83797142D01*
X122738571Y-83854285D01*
X122710000Y-83968571D01*
X122710000Y-84054285D01*
X122738571Y-84168571D01*
X122767142Y-84225714D01*
X122824285Y-84282857D01*
X122910000Y-84311428D01*
X123052857Y-84311428D01*
X152680000Y-112842857D02*
X152222857Y-112842857D01*
X152451428Y-113071428D02*
X152451428Y-112614285D01*
X151965714Y-112528571D02*
X151937142Y-112500000D01*
X151880000Y-112471428D01*
X151737142Y-112471428D01*
X151680000Y-112500000D01*
X151651428Y-112528571D01*
X151622857Y-112585714D01*
X151622857Y-112642857D01*
X151651428Y-112728571D01*
X151994285Y-113071428D01*
X151622857Y-113071428D01*
X151108571Y-112671428D02*
X151108571Y-113071428D01*
X151251428Y-112442857D02*
X151394285Y-112871428D01*
X151022857Y-112871428D01*
X164070000Y-118427142D02*
X164098571Y-118484285D01*
X164098571Y-118570000D01*
X164070000Y-118655714D01*
X164012857Y-118712857D01*
X163955714Y-118741428D01*
X163841428Y-118770000D01*
X163755714Y-118770000D01*
X163641428Y-118741428D01*
X163584285Y-118712857D01*
X163527142Y-118655714D01*
X163498571Y-118570000D01*
X163498571Y-118512857D01*
X163527142Y-118427142D01*
X163555714Y-118398571D01*
X163755714Y-118398571D01*
X163755714Y-118512857D01*
X163498571Y-118141428D02*
X164098571Y-118141428D01*
X163498571Y-117798571D01*
X164098571Y-117798571D01*
X163498571Y-117512857D02*
X164098571Y-117512857D01*
X164098571Y-117370000D01*
X164070000Y-117284285D01*
X164012857Y-117227142D01*
X163955714Y-117198571D01*
X163841428Y-117170000D01*
X163755714Y-117170000D01*
X163641428Y-117198571D01*
X163584285Y-117227142D01*
X163527142Y-117284285D01*
X163498571Y-117370000D01*
X163498571Y-117512857D01*
X123997142Y-94522857D02*
X123911428Y-94551428D01*
X123768571Y-94551428D01*
X123711428Y-94522857D01*
X123682857Y-94494285D01*
X123654285Y-94437142D01*
X123654285Y-94380000D01*
X123682857Y-94322857D01*
X123711428Y-94294285D01*
X123768571Y-94265714D01*
X123882857Y-94237142D01*
X123940000Y-94208571D01*
X123968571Y-94180000D01*
X123997142Y-94122857D01*
X123997142Y-94065714D01*
X123968571Y-94008571D01*
X123940000Y-93980000D01*
X123882857Y-93951428D01*
X123740000Y-93951428D01*
X123654285Y-93980000D01*
X123425714Y-94522857D02*
X123340000Y-94551428D01*
X123197142Y-94551428D01*
X123140000Y-94522857D01*
X123111428Y-94494285D01*
X123082857Y-94437142D01*
X123082857Y-94380000D01*
X123111428Y-94322857D01*
X123140000Y-94294285D01*
X123197142Y-94265714D01*
X123311428Y-94237142D01*
X123368571Y-94208571D01*
X123397142Y-94180000D01*
X123425714Y-94122857D01*
X123425714Y-94065714D01*
X123397142Y-94008571D01*
X123368571Y-93980000D01*
X123311428Y-93951428D01*
X123168571Y-93951428D01*
X123082857Y-93980000D01*
X169427142Y-99040000D02*
X169484285Y-99011428D01*
X169570000Y-99011428D01*
X169655714Y-99040000D01*
X169712857Y-99097142D01*
X169741428Y-99154285D01*
X169770000Y-99268571D01*
X169770000Y-99354285D01*
X169741428Y-99468571D01*
X169712857Y-99525714D01*
X169655714Y-99582857D01*
X169570000Y-99611428D01*
X169512857Y-99611428D01*
X169427142Y-99582857D01*
X169398571Y-99554285D01*
X169398571Y-99354285D01*
X169512857Y-99354285D01*
X169141428Y-99611428D02*
X169141428Y-99011428D01*
X168798571Y-99611428D01*
X168798571Y-99011428D01*
X168512857Y-99611428D02*
X168512857Y-99011428D01*
X168370000Y-99011428D01*
X168284285Y-99040000D01*
X168227142Y-99097142D01*
X168198571Y-99154285D01*
X168170000Y-99268571D01*
X168170000Y-99354285D01*
X168198571Y-99468571D01*
X168227142Y-99525714D01*
X168284285Y-99582857D01*
X168370000Y-99611428D01*
X168512857Y-99611428D01*
D14*
X158829523Y-106991428D02*
X158448571Y-108324761D01*
X158067619Y-107372380D01*
X157686666Y-108324761D01*
X157305714Y-106991428D01*
X156734285Y-106991428D02*
X156353333Y-108324761D01*
X155972380Y-107372380D01*
X155591428Y-108324761D01*
X155210476Y-106991428D01*
X154639047Y-106991428D02*
X154258095Y-108324761D01*
X153877142Y-107372380D01*
X153496190Y-108324761D01*
X153115238Y-106991428D01*
X152353333Y-108134285D02*
X152258095Y-108229523D01*
X152353333Y-108324761D01*
X152448571Y-108229523D01*
X152353333Y-108134285D01*
X152353333Y-108324761D01*
X151400952Y-108324761D02*
X151400952Y-106991428D01*
X151400952Y-106324761D02*
X151496190Y-106420000D01*
X151400952Y-106515238D01*
X151305714Y-106420000D01*
X151400952Y-106324761D01*
X151400952Y-106515238D01*
X150162857Y-108324761D02*
X150353333Y-108229523D01*
X150448571Y-108134285D01*
X150543809Y-107943809D01*
X150543809Y-107372380D01*
X150448571Y-107181904D01*
X150353333Y-107086666D01*
X150162857Y-106991428D01*
X149877142Y-106991428D01*
X149686666Y-107086666D01*
X149591428Y-107181904D01*
X149496190Y-107372380D01*
X149496190Y-107943809D01*
X149591428Y-108134285D01*
X149686666Y-108229523D01*
X149877142Y-108324761D01*
X150162857Y-108324761D01*
X148924761Y-106991428D02*
X148162857Y-106991428D01*
X148639047Y-106324761D02*
X148639047Y-108039047D01*
X148543809Y-108229523D01*
X148353333Y-108324761D01*
X148162857Y-108324761D01*
X147686666Y-106991428D02*
X147210476Y-108324761D01*
X146734285Y-106991428D01*
X145210476Y-108229523D02*
X145400952Y-108324761D01*
X145781904Y-108324761D01*
X145972380Y-108229523D01*
X146067619Y-108039047D01*
X146067619Y-107277142D01*
X145972380Y-107086666D01*
X145781904Y-106991428D01*
X145400952Y-106991428D01*
X145210476Y-107086666D01*
X145115238Y-107277142D01*
X145115238Y-107467619D01*
X146067619Y-107658095D01*
X144258095Y-108324761D02*
X144258095Y-106991428D01*
X144258095Y-107372380D02*
X144162857Y-107181904D01*
X144067619Y-107086666D01*
X143877142Y-106991428D01*
X143686666Y-106991428D01*
X143305714Y-106991428D02*
X142543809Y-106991428D01*
X143020000Y-106324761D02*
X143020000Y-108039047D01*
X142924761Y-108229523D01*
X142734285Y-108324761D01*
X142543809Y-108324761D01*
X141115238Y-108229523D02*
X141305714Y-108324761D01*
X141686666Y-108324761D01*
X141877142Y-108229523D01*
X141972380Y-108039047D01*
X141972380Y-107277142D01*
X141877142Y-107086666D01*
X141686666Y-106991428D01*
X141305714Y-106991428D01*
X141115238Y-107086666D01*
X141020000Y-107277142D01*
X141020000Y-107467619D01*
X141972380Y-107658095D01*
X140162857Y-108324761D02*
X140162857Y-106324761D01*
X140162857Y-107086666D02*
X139972380Y-106991428D01*
X139591428Y-106991428D01*
X139400952Y-107086666D01*
X139305714Y-107181904D01*
X139210476Y-107372380D01*
X139210476Y-107943809D01*
X139305714Y-108134285D01*
X139400952Y-108229523D01*
X139591428Y-108324761D01*
X139972380Y-108324761D01*
X140162857Y-108229523D01*
X138353333Y-108324761D02*
X138353333Y-106991428D01*
X138353333Y-107372380D02*
X138258095Y-107181904D01*
X138162857Y-107086666D01*
X137972380Y-106991428D01*
X137781904Y-106991428D01*
X136258095Y-108324761D02*
X136258095Y-107277142D01*
X136353333Y-107086666D01*
X136543809Y-106991428D01*
X136924761Y-106991428D01*
X137115238Y-107086666D01*
X136258095Y-108229523D02*
X136448571Y-108324761D01*
X136924761Y-108324761D01*
X137115238Y-108229523D01*
X137210476Y-108039047D01*
X137210476Y-107848571D01*
X137115238Y-107658095D01*
X136924761Y-107562857D01*
X136448571Y-107562857D01*
X136258095Y-107467619D01*
X134543809Y-108229523D02*
X134734285Y-108324761D01*
X135115238Y-108324761D01*
X135305714Y-108229523D01*
X135400952Y-108039047D01*
X135400952Y-107277142D01*
X135305714Y-107086666D01*
X135115238Y-106991428D01*
X134734285Y-106991428D01*
X134543809Y-107086666D01*
X134448571Y-107277142D01*
X134448571Y-107467619D01*
X135400952Y-107658095D01*
X133591428Y-108134285D02*
X133496190Y-108229523D01*
X133591428Y-108324761D01*
X133686666Y-108229523D01*
X133591428Y-108134285D01*
X133591428Y-108324761D01*
X131781904Y-108229523D02*
X131972380Y-108324761D01*
X132353333Y-108324761D01*
X132543809Y-108229523D01*
X132639047Y-108134285D01*
X132734285Y-107943809D01*
X132734285Y-107372380D01*
X132639047Y-107181904D01*
X132543809Y-107086666D01*
X132353333Y-106991428D01*
X131972380Y-106991428D01*
X131781904Y-107086666D01*
X130639047Y-108324761D02*
X130829523Y-108229523D01*
X130924761Y-108134285D01*
X131020000Y-107943809D01*
X131020000Y-107372380D01*
X130924761Y-107181904D01*
X130829523Y-107086666D01*
X130639047Y-106991428D01*
X130353333Y-106991428D01*
X130162857Y-107086666D01*
X130067619Y-107181904D01*
X129972380Y-107372380D01*
X129972380Y-107943809D01*
X130067619Y-108134285D01*
X130162857Y-108229523D01*
X130353333Y-108324761D01*
X130639047Y-108324761D01*
X129115238Y-108324761D02*
X129115238Y-106991428D01*
X129115238Y-107181904D02*
X129020000Y-107086666D01*
X128829523Y-106991428D01*
X128543809Y-106991428D01*
X128353333Y-107086666D01*
X128258095Y-107277142D01*
X128258095Y-108324761D01*
X128258095Y-107277142D02*
X128162857Y-107086666D01*
X127972380Y-106991428D01*
X127686666Y-106991428D01*
X127496190Y-107086666D01*
X127400952Y-107277142D01*
X127400952Y-108324761D01*
D11*
X156308571Y-99394285D02*
X156337142Y-99422857D01*
X156422857Y-99451428D01*
X156480000Y-99451428D01*
X156565714Y-99422857D01*
X156622857Y-99365714D01*
X156651428Y-99308571D01*
X156680000Y-99194285D01*
X156680000Y-99108571D01*
X156651428Y-98994285D01*
X156622857Y-98937142D01*
X156565714Y-98880000D01*
X156480000Y-98851428D01*
X156422857Y-98851428D01*
X156337142Y-98880000D01*
X156308571Y-98908571D01*
X156137142Y-98851428D02*
X155794285Y-98851428D01*
X155965714Y-99451428D02*
X155965714Y-98851428D01*
X155651428Y-98851428D02*
X155251428Y-99451428D01*
X155251428Y-98851428D02*
X155651428Y-99451428D01*
X163207142Y-86361428D02*
X162864285Y-86361428D01*
X163035714Y-86961428D02*
X163035714Y-86361428D01*
X162721428Y-86361428D02*
X162321428Y-86961428D01*
X162321428Y-86361428D02*
X162721428Y-86961428D01*
X162092857Y-86961428D02*
X162092857Y-86361428D01*
X161950000Y-86361428D01*
X161864285Y-86390000D01*
X161807142Y-86447142D01*
X161778571Y-86504285D01*
X161750000Y-86618571D01*
X161750000Y-86704285D01*
X161778571Y-86818571D01*
X161807142Y-86875714D01*
X161864285Y-86932857D01*
X161950000Y-86961428D01*
X162092857Y-86961428D01*
X138497142Y-67648571D02*
X138868571Y-67648571D01*
X138668571Y-67420000D01*
X138754285Y-67420000D01*
X138811428Y-67391428D01*
X138840000Y-67362857D01*
X138868571Y-67305714D01*
X138868571Y-67162857D01*
X138840000Y-67105714D01*
X138811428Y-67077142D01*
X138754285Y-67048571D01*
X138582857Y-67048571D01*
X138525714Y-67077142D01*
X138497142Y-67105714D01*
X139040000Y-67648571D02*
X139240000Y-67048571D01*
X139440000Y-67648571D01*
X139582857Y-67648571D02*
X139954285Y-67648571D01*
X139754285Y-67420000D01*
X139840000Y-67420000D01*
X139897142Y-67391428D01*
X139925714Y-67362857D01*
X139954285Y-67305714D01*
X139954285Y-67162857D01*
X139925714Y-67105714D01*
X139897142Y-67077142D01*
X139840000Y-67048571D01*
X139668571Y-67048571D01*
X139611428Y-67077142D01*
X139582857Y-67105714D01*
X152850000Y-118702857D02*
X152392857Y-118702857D01*
X152621428Y-118931428D02*
X152621428Y-118474285D01*
X152135714Y-118388571D02*
X152107142Y-118360000D01*
X152050000Y-118331428D01*
X151907142Y-118331428D01*
X151850000Y-118360000D01*
X151821428Y-118388571D01*
X151792857Y-118445714D01*
X151792857Y-118502857D01*
X151821428Y-118588571D01*
X152164285Y-118931428D01*
X151792857Y-118931428D01*
X151278571Y-118531428D02*
X151278571Y-118931428D01*
X151421428Y-118302857D02*
X151564285Y-118731428D01*
X151192857Y-118731428D01*
X146401428Y-73020000D02*
X146687142Y-73020000D01*
X146344285Y-72848571D02*
X146544285Y-73448571D01*
X146744285Y-72848571D01*
X147201428Y-73248571D02*
X147201428Y-72848571D01*
X147058571Y-73477142D02*
X146915714Y-73048571D01*
X147287142Y-73048571D01*
X169738571Y-89422857D02*
X169652857Y-89451428D01*
X169510000Y-89451428D01*
X169452857Y-89422857D01*
X169424285Y-89394285D01*
X169395714Y-89337142D01*
X169395714Y-89280000D01*
X169424285Y-89222857D01*
X169452857Y-89194285D01*
X169510000Y-89165714D01*
X169624285Y-89137142D01*
X169681428Y-89108571D01*
X169710000Y-89080000D01*
X169738571Y-89022857D01*
X169738571Y-88965714D01*
X169710000Y-88908571D01*
X169681428Y-88880000D01*
X169624285Y-88851428D01*
X169481428Y-88851428D01*
X169395714Y-88880000D01*
X169138571Y-89451428D02*
X169138571Y-88851428D01*
X168995714Y-88851428D01*
X168910000Y-88880000D01*
X168852857Y-88937142D01*
X168824285Y-88994285D01*
X168795714Y-89108571D01*
X168795714Y-89194285D01*
X168824285Y-89308571D01*
X168852857Y-89365714D01*
X168910000Y-89422857D01*
X168995714Y-89451428D01*
X169138571Y-89451428D01*
X168567142Y-89280000D02*
X168281428Y-89280000D01*
X168624285Y-89451428D02*
X168424285Y-88851428D01*
X168224285Y-89451428D01*
X149777142Y-112500000D02*
X149834285Y-112471428D01*
X149920000Y-112471428D01*
X150005714Y-112500000D01*
X150062857Y-112557142D01*
X150091428Y-112614285D01*
X150120000Y-112728571D01*
X150120000Y-112814285D01*
X150091428Y-112928571D01*
X150062857Y-112985714D01*
X150005714Y-113042857D01*
X149920000Y-113071428D01*
X149862857Y-113071428D01*
X149777142Y-113042857D01*
X149748571Y-113014285D01*
X149748571Y-112814285D01*
X149862857Y-112814285D01*
X149491428Y-113071428D02*
X149491428Y-112471428D01*
X149148571Y-113071428D01*
X149148571Y-112471428D01*
X148862857Y-113071428D02*
X148862857Y-112471428D01*
X148720000Y-112471428D01*
X148634285Y-112500000D01*
X148577142Y-112557142D01*
X148548571Y-112614285D01*
X148520000Y-112728571D01*
X148520000Y-112814285D01*
X148548571Y-112928571D01*
X148577142Y-112985714D01*
X148634285Y-113042857D01*
X148720000Y-113071428D01*
X148862857Y-113071428D01*
X149767142Y-118310000D02*
X149824285Y-118281428D01*
X149910000Y-118281428D01*
X149995714Y-118310000D01*
X150052857Y-118367142D01*
X150081428Y-118424285D01*
X150110000Y-118538571D01*
X150110000Y-118624285D01*
X150081428Y-118738571D01*
X150052857Y-118795714D01*
X149995714Y-118852857D01*
X149910000Y-118881428D01*
X149852857Y-118881428D01*
X149767142Y-118852857D01*
X149738571Y-118824285D01*
X149738571Y-118624285D01*
X149852857Y-118624285D01*
X149481428Y-118881428D02*
X149481428Y-118281428D01*
X149138571Y-118881428D01*
X149138571Y-118281428D01*
X148852857Y-118881428D02*
X148852857Y-118281428D01*
X148710000Y-118281428D01*
X148624285Y-118310000D01*
X148567142Y-118367142D01*
X148538571Y-118424285D01*
X148510000Y-118538571D01*
X148510000Y-118624285D01*
X148538571Y-118738571D01*
X148567142Y-118795714D01*
X148624285Y-118852857D01*
X148710000Y-118881428D01*
X148852857Y-118881428D01*
X152067142Y-85560000D02*
X152124285Y-85531428D01*
X152210000Y-85531428D01*
X152295714Y-85560000D01*
X152352857Y-85617142D01*
X152381428Y-85674285D01*
X152410000Y-85788571D01*
X152410000Y-85874285D01*
X152381428Y-85988571D01*
X152352857Y-86045714D01*
X152295714Y-86102857D01*
X152210000Y-86131428D01*
X152152857Y-86131428D01*
X152067142Y-86102857D01*
X152038571Y-86074285D01*
X152038571Y-85874285D01*
X152152857Y-85874285D01*
X151781428Y-86131428D02*
X151781428Y-85531428D01*
X151438571Y-86131428D01*
X151438571Y-85531428D01*
X151152857Y-86131428D02*
X151152857Y-85531428D01*
X151010000Y-85531428D01*
X150924285Y-85560000D01*
X150867142Y-85617142D01*
X150838571Y-85674285D01*
X150810000Y-85788571D01*
X150810000Y-85874285D01*
X150838571Y-85988571D01*
X150867142Y-86045714D01*
X150924285Y-86102857D01*
X151010000Y-86131428D01*
X151152857Y-86131428D01*
X124662857Y-92061428D02*
X124662857Y-91461428D01*
X124462857Y-91890000D01*
X124262857Y-91461428D01*
X124262857Y-92061428D01*
X123862857Y-91461428D02*
X123748571Y-91461428D01*
X123691428Y-91490000D01*
X123634285Y-91547142D01*
X123605714Y-91661428D01*
X123605714Y-91861428D01*
X123634285Y-91975714D01*
X123691428Y-92032857D01*
X123748571Y-92061428D01*
X123862857Y-92061428D01*
X123920000Y-92032857D01*
X123977142Y-91975714D01*
X124005714Y-91861428D01*
X124005714Y-91661428D01*
X123977142Y-91547142D01*
X123920000Y-91490000D01*
X123862857Y-91461428D01*
X123377142Y-92032857D02*
X123291428Y-92061428D01*
X123148571Y-92061428D01*
X123091428Y-92032857D01*
X123062857Y-92004285D01*
X123034285Y-91947142D01*
X123034285Y-91890000D01*
X123062857Y-91832857D01*
X123091428Y-91804285D01*
X123148571Y-91775714D01*
X123262857Y-91747142D01*
X123320000Y-91718571D01*
X123348571Y-91690000D01*
X123377142Y-91632857D01*
X123377142Y-91575714D01*
X123348571Y-91518571D01*
X123320000Y-91490000D01*
X123262857Y-91461428D01*
X123120000Y-91461428D01*
X123034285Y-91490000D01*
X122777142Y-92061428D02*
X122777142Y-91461428D01*
X157700000Y-110828571D02*
X157700000Y-110542857D01*
X157528571Y-110885714D02*
X158128571Y-110685714D01*
X157528571Y-110485714D01*
X158128571Y-110342857D02*
X158128571Y-109971428D01*
X157900000Y-110171428D01*
X157900000Y-110085714D01*
X157871428Y-110028571D01*
X157842857Y-110000000D01*
X157785714Y-109971428D01*
X157642857Y-109971428D01*
X157585714Y-110000000D01*
X157557142Y-110028571D01*
X157528571Y-110085714D01*
X157528571Y-110257142D01*
X157557142Y-110314285D01*
X157585714Y-110342857D01*
X163234285Y-89432857D02*
X163148571Y-89461428D01*
X163005714Y-89461428D01*
X162948571Y-89432857D01*
X162920000Y-89404285D01*
X162891428Y-89347142D01*
X162891428Y-89290000D01*
X162920000Y-89232857D01*
X162948571Y-89204285D01*
X163005714Y-89175714D01*
X163120000Y-89147142D01*
X163177142Y-89118571D01*
X163205714Y-89090000D01*
X163234285Y-89032857D01*
X163234285Y-88975714D01*
X163205714Y-88918571D01*
X163177142Y-88890000D01*
X163120000Y-88861428D01*
X162977142Y-88861428D01*
X162891428Y-88890000D01*
X162291428Y-89404285D02*
X162320000Y-89432857D01*
X162405714Y-89461428D01*
X162462857Y-89461428D01*
X162548571Y-89432857D01*
X162605714Y-89375714D01*
X162634285Y-89318571D01*
X162662857Y-89204285D01*
X162662857Y-89118571D01*
X162634285Y-89004285D01*
X162605714Y-88947142D01*
X162548571Y-88890000D01*
X162462857Y-88861428D01*
X162405714Y-88861428D01*
X162320000Y-88890000D01*
X162291428Y-88918571D01*
X161748571Y-89461428D02*
X162034285Y-89461428D01*
X162034285Y-88861428D01*
X125908571Y-95118571D02*
X125308571Y-94918571D01*
X125908571Y-94718571D01*
X125622857Y-94518571D02*
X125622857Y-94318571D01*
X125308571Y-94232857D02*
X125308571Y-94518571D01*
X125908571Y-94518571D01*
X125908571Y-94232857D01*
X125308571Y-93632857D02*
X125594285Y-93832857D01*
X125308571Y-93975714D02*
X125908571Y-93975714D01*
X125908571Y-93747142D01*
X125880000Y-93690000D01*
X125851428Y-93661428D01*
X125794285Y-93632857D01*
X125708571Y-93632857D01*
X125651428Y-93661428D01*
X125622857Y-93690000D01*
X125594285Y-93747142D01*
X125594285Y-93975714D01*
X125908571Y-93461428D02*
X125908571Y-93118571D01*
X125308571Y-93290000D02*
X125908571Y-93290000D01*
X125622857Y-92918571D02*
X125622857Y-92718571D01*
X125308571Y-92632857D02*
X125308571Y-92918571D01*
X125908571Y-92918571D01*
X125908571Y-92632857D01*
X125622857Y-92175714D02*
X125594285Y-92090000D01*
X125565714Y-92061428D01*
X125508571Y-92032857D01*
X125422857Y-92032857D01*
X125365714Y-92061428D01*
X125337142Y-92090000D01*
X125308571Y-92147142D01*
X125308571Y-92375714D01*
X125908571Y-92375714D01*
X125908571Y-92175714D01*
X125880000Y-92118571D01*
X125851428Y-92090000D01*
X125794285Y-92061428D01*
X125737142Y-92061428D01*
X125680000Y-92090000D01*
X125651428Y-92118571D01*
X125622857Y-92175714D01*
X125622857Y-92375714D01*
X125308571Y-91432857D02*
X125594285Y-91632857D01*
X125308571Y-91775714D02*
X125908571Y-91775714D01*
X125908571Y-91547142D01*
X125880000Y-91490000D01*
X125851428Y-91461428D01*
X125794285Y-91432857D01*
X125708571Y-91432857D01*
X125651428Y-91461428D01*
X125622857Y-91490000D01*
X125594285Y-91547142D01*
X125594285Y-91775714D01*
X125480000Y-91204285D02*
X125480000Y-90918571D01*
X125308571Y-91261428D02*
X125908571Y-91061428D01*
X125308571Y-90861428D01*
X146351428Y-67240000D02*
X146637142Y-67240000D01*
X146294285Y-67068571D02*
X146494285Y-67668571D01*
X146694285Y-67068571D01*
X146837142Y-67668571D02*
X147208571Y-67668571D01*
X147008571Y-67440000D01*
X147094285Y-67440000D01*
X147151428Y-67411428D01*
X147180000Y-67382857D01*
X147208571Y-67325714D01*
X147208571Y-67182857D01*
X147180000Y-67125714D01*
X147151428Y-67097142D01*
X147094285Y-67068571D01*
X146922857Y-67068571D01*
X146865714Y-67097142D01*
X146837142Y-67125714D01*
X169087142Y-94602857D02*
X169001428Y-94631428D01*
X168858571Y-94631428D01*
X168801428Y-94602857D01*
X168772857Y-94574285D01*
X168744285Y-94517142D01*
X168744285Y-94460000D01*
X168772857Y-94402857D01*
X168801428Y-94374285D01*
X168858571Y-94345714D01*
X168972857Y-94317142D01*
X169030000Y-94288571D01*
X169058571Y-94260000D01*
X169087142Y-94202857D01*
X169087142Y-94145714D01*
X169058571Y-94088571D01*
X169030000Y-94060000D01*
X168972857Y-94031428D01*
X168830000Y-94031428D01*
X168744285Y-94060000D01*
X168515714Y-94602857D02*
X168430000Y-94631428D01*
X168287142Y-94631428D01*
X168230000Y-94602857D01*
X168201428Y-94574285D01*
X168172857Y-94517142D01*
X168172857Y-94460000D01*
X168201428Y-94402857D01*
X168230000Y-94374285D01*
X168287142Y-94345714D01*
X168401428Y-94317142D01*
X168458571Y-94288571D01*
X168487142Y-94260000D01*
X168515714Y-94202857D01*
X168515714Y-94145714D01*
X168487142Y-94088571D01*
X168458571Y-94060000D01*
X168401428Y-94031428D01*
X168258571Y-94031428D01*
X168172857Y-94060000D01*
X139422857Y-112797142D02*
X139337142Y-112825714D01*
X139308571Y-112854285D01*
X139280000Y-112911428D01*
X139280000Y-112997142D01*
X139308571Y-113054285D01*
X139337142Y-113082857D01*
X139394285Y-113111428D01*
X139622857Y-113111428D01*
X139622857Y-112511428D01*
X139422857Y-112511428D01*
X139365714Y-112540000D01*
X139337142Y-112568571D01*
X139308571Y-112625714D01*
X139308571Y-112682857D01*
X139337142Y-112740000D01*
X139365714Y-112768571D01*
X139422857Y-112797142D01*
X139622857Y-112797142D01*
X138765714Y-112711428D02*
X138765714Y-113111428D01*
X138908571Y-112482857D02*
X139051428Y-112911428D01*
X138680000Y-112911428D01*
X151481428Y-73020000D02*
X151767142Y-73020000D01*
X151424285Y-72848571D02*
X151624285Y-73448571D01*
X151824285Y-72848571D01*
X152138571Y-73448571D02*
X152195714Y-73448571D01*
X152252857Y-73420000D01*
X152281428Y-73391428D01*
X152310000Y-73334285D01*
X152338571Y-73220000D01*
X152338571Y-73077142D01*
X152310000Y-72962857D01*
X152281428Y-72905714D01*
X152252857Y-72877142D01*
X152195714Y-72848571D01*
X152138571Y-72848571D01*
X152081428Y-72877142D01*
X152052857Y-72905714D01*
X152024285Y-72962857D01*
X151995714Y-73077142D01*
X151995714Y-73220000D01*
X152024285Y-73334285D01*
X152052857Y-73391428D01*
X152081428Y-73420000D01*
X152138571Y-73448571D01*
X151462857Y-67620000D02*
X151405714Y-67648571D01*
X151320000Y-67648571D01*
X151234285Y-67620000D01*
X151177142Y-67562857D01*
X151148571Y-67505714D01*
X151120000Y-67391428D01*
X151120000Y-67305714D01*
X151148571Y-67191428D01*
X151177142Y-67134285D01*
X151234285Y-67077142D01*
X151320000Y-67048571D01*
X151377142Y-67048571D01*
X151462857Y-67077142D01*
X151491428Y-67105714D01*
X151491428Y-67305714D01*
X151377142Y-67305714D01*
X151748571Y-67048571D02*
X151748571Y-67648571D01*
X152091428Y-67048571D01*
X152091428Y-67648571D01*
X152377142Y-67048571D02*
X152377142Y-67648571D01*
X152520000Y-67648571D01*
X152605714Y-67620000D01*
X152662857Y-67562857D01*
X152691428Y-67505714D01*
X152720000Y-67391428D01*
X152720000Y-67305714D01*
X152691428Y-67191428D01*
X152662857Y-67134285D01*
X152605714Y-67077142D01*
X152520000Y-67048571D01*
X152377142Y-67048571D01*
X164050000Y-110807142D02*
X164078571Y-110864285D01*
X164078571Y-110950000D01*
X164050000Y-111035714D01*
X163992857Y-111092857D01*
X163935714Y-111121428D01*
X163821428Y-111150000D01*
X163735714Y-111150000D01*
X163621428Y-111121428D01*
X163564285Y-111092857D01*
X163507142Y-111035714D01*
X163478571Y-110950000D01*
X163478571Y-110892857D01*
X163507142Y-110807142D01*
X163535714Y-110778571D01*
X163735714Y-110778571D01*
X163735714Y-110892857D01*
X163478571Y-110521428D02*
X164078571Y-110521428D01*
X163478571Y-110178571D01*
X164078571Y-110178571D01*
X163478571Y-109892857D02*
X164078571Y-109892857D01*
X164078571Y-109750000D01*
X164050000Y-109664285D01*
X163992857Y-109607142D01*
X163935714Y-109578571D01*
X163821428Y-109550000D01*
X163735714Y-109550000D01*
X163621428Y-109578571D01*
X163564285Y-109607142D01*
X163507142Y-109664285D01*
X163478571Y-109750000D01*
X163478571Y-109892857D01*
X157690000Y-118468571D02*
X157690000Y-118182857D01*
X157518571Y-118525714D02*
X158118571Y-118325714D01*
X157518571Y-118125714D01*
X158118571Y-117811428D02*
X158118571Y-117754285D01*
X158090000Y-117697142D01*
X158061428Y-117668571D01*
X158004285Y-117640000D01*
X157890000Y-117611428D01*
X157747142Y-117611428D01*
X157632857Y-117640000D01*
X157575714Y-117668571D01*
X157547142Y-117697142D01*
X157518571Y-117754285D01*
X157518571Y-117811428D01*
X157547142Y-117868571D01*
X157575714Y-117897142D01*
X157632857Y-117925714D01*
X157747142Y-117954285D01*
X157890000Y-117954285D01*
X158004285Y-117925714D01*
X158061428Y-117897142D01*
X158090000Y-117868571D01*
X158118571Y-117811428D01*
X123940000Y-86901428D02*
X124140000Y-86615714D01*
X124282857Y-86901428D02*
X124282857Y-86301428D01*
X124054285Y-86301428D01*
X123997142Y-86330000D01*
X123968571Y-86358571D01*
X123940000Y-86415714D01*
X123940000Y-86501428D01*
X123968571Y-86558571D01*
X123997142Y-86587142D01*
X124054285Y-86615714D01*
X124282857Y-86615714D01*
X123740000Y-86301428D02*
X123340000Y-86901428D01*
X123340000Y-86301428D02*
X123740000Y-86901428D01*
X123111428Y-86901428D02*
X123111428Y-86301428D01*
X122968571Y-86301428D01*
X122882857Y-86330000D01*
X122825714Y-86387142D01*
X122797142Y-86444285D01*
X122768571Y-86558571D01*
X122768571Y-86644285D01*
X122797142Y-86758571D01*
X122825714Y-86815714D01*
X122882857Y-86872857D01*
X122968571Y-86901428D01*
X123111428Y-86901428D01*
X163212857Y-83791428D02*
X162841428Y-83791428D01*
X163041428Y-84020000D01*
X162955714Y-84020000D01*
X162898571Y-84048571D01*
X162870000Y-84077142D01*
X162841428Y-84134285D01*
X162841428Y-84277142D01*
X162870000Y-84334285D01*
X162898571Y-84362857D01*
X162955714Y-84391428D01*
X163127142Y-84391428D01*
X163184285Y-84362857D01*
X163212857Y-84334285D01*
X162670000Y-83791428D02*
X162470000Y-84391428D01*
X162270000Y-83791428D01*
X162127142Y-83791428D02*
X161755714Y-83791428D01*
X161955714Y-84020000D01*
X161870000Y-84020000D01*
X161812857Y-84048571D01*
X161784285Y-84077142D01*
X161755714Y-84134285D01*
X161755714Y-84277142D01*
X161784285Y-84334285D01*
X161812857Y-84362857D01*
X161870000Y-84391428D01*
X162041428Y-84391428D01*
X162098571Y-84362857D01*
X162127142Y-84334285D01*
D10*
X150699523Y-82262380D02*
X150699523Y-81262380D01*
X150318571Y-81262380D01*
X150223333Y-81310000D01*
X150175714Y-81357619D01*
X150128095Y-81452857D01*
X150128095Y-81595714D01*
X150175714Y-81690952D01*
X150223333Y-81738571D01*
X150318571Y-81786190D01*
X150699523Y-81786190D01*
X149128095Y-82262380D02*
X149461428Y-81786190D01*
X149699523Y-82262380D02*
X149699523Y-81262380D01*
X149318571Y-81262380D01*
X149223333Y-81310000D01*
X149175714Y-81357619D01*
X149128095Y-81452857D01*
X149128095Y-81595714D01*
X149175714Y-81690952D01*
X149223333Y-81738571D01*
X149318571Y-81786190D01*
X149699523Y-81786190D01*
X148509047Y-81262380D02*
X148318571Y-81262380D01*
X148223333Y-81310000D01*
X148128095Y-81405238D01*
X148080476Y-81595714D01*
X148080476Y-81929047D01*
X148128095Y-82119523D01*
X148223333Y-82214761D01*
X148318571Y-82262380D01*
X148509047Y-82262380D01*
X148604285Y-82214761D01*
X148699523Y-82119523D01*
X148747142Y-81929047D01*
X148747142Y-81595714D01*
X148699523Y-81405238D01*
X148604285Y-81310000D01*
X148509047Y-81262380D01*
X147128095Y-81310000D02*
X147223333Y-81262380D01*
X147366190Y-81262380D01*
X147509047Y-81310000D01*
X147604285Y-81405238D01*
X147651904Y-81500476D01*
X147699523Y-81690952D01*
X147699523Y-81833809D01*
X147651904Y-82024285D01*
X147604285Y-82119523D01*
X147509047Y-82214761D01*
X147366190Y-82262380D01*
X147270952Y-82262380D01*
X147128095Y-82214761D01*
X147080476Y-82167142D01*
X147080476Y-81833809D01*
X147270952Y-81833809D01*
X146080476Y-82262380D02*
X146413809Y-81786190D01*
X146651904Y-82262380D02*
X146651904Y-81262380D01*
X146270952Y-81262380D01*
X146175714Y-81310000D01*
X146128095Y-81357619D01*
X146080476Y-81452857D01*
X146080476Y-81595714D01*
X146128095Y-81690952D01*
X146175714Y-81738571D01*
X146270952Y-81786190D01*
X146651904Y-81786190D01*
X145699523Y-81976666D02*
X145223333Y-81976666D01*
X145794761Y-82262380D02*
X145461428Y-81262380D01*
X145128095Y-82262380D01*
X144794761Y-82262380D02*
X144794761Y-81262380D01*
X144461428Y-81976666D01*
X144128095Y-81262380D01*
X144128095Y-82262380D01*
X143651904Y-82262380D02*
X143651904Y-81262380D01*
X143318571Y-81976666D01*
X142985238Y-81262380D01*
X142985238Y-82262380D01*
X142509047Y-81738571D02*
X142175714Y-81738571D01*
X142032857Y-82262380D02*
X142509047Y-82262380D01*
X142509047Y-81262380D01*
X142032857Y-81262380D01*
X141032857Y-82262380D02*
X141366190Y-81786190D01*
X141604285Y-82262380D02*
X141604285Y-81262380D01*
X141223333Y-81262380D01*
X141128095Y-81310000D01*
X141080476Y-81357619D01*
X141032857Y-81452857D01*
X141032857Y-81595714D01*
X141080476Y-81690952D01*
X141128095Y-81738571D01*
X141223333Y-81786190D01*
X141604285Y-81786190D01*
D11*
X136892857Y-112737142D02*
X136807142Y-112765714D01*
X136778571Y-112794285D01*
X136750000Y-112851428D01*
X136750000Y-112937142D01*
X136778571Y-112994285D01*
X136807142Y-113022857D01*
X136864285Y-113051428D01*
X137092857Y-113051428D01*
X137092857Y-112451428D01*
X136892857Y-112451428D01*
X136835714Y-112480000D01*
X136807142Y-112508571D01*
X136778571Y-112565714D01*
X136778571Y-112622857D01*
X136807142Y-112680000D01*
X136835714Y-112708571D01*
X136892857Y-112737142D01*
X137092857Y-112737142D01*
X136521428Y-112508571D02*
X136492857Y-112480000D01*
X136435714Y-112451428D01*
X136292857Y-112451428D01*
X136235714Y-112480000D01*
X136207142Y-112508571D01*
X136178571Y-112565714D01*
X136178571Y-112622857D01*
X136207142Y-112708571D01*
X136550000Y-113051428D01*
X136178571Y-113051428D01*
D13*
X156382380Y-71946666D02*
X154477619Y-71946666D01*
X156763333Y-73089523D02*
X155430000Y-69089523D01*
X154096666Y-73089523D01*
D11*
X144080000Y-86131428D02*
X144280000Y-85845714D01*
X144422857Y-86131428D02*
X144422857Y-85531428D01*
X144194285Y-85531428D01*
X144137142Y-85560000D01*
X144108571Y-85588571D01*
X144080000Y-85645714D01*
X144080000Y-85731428D01*
X144108571Y-85788571D01*
X144137142Y-85817142D01*
X144194285Y-85845714D01*
X144422857Y-85845714D01*
X143880000Y-85531428D02*
X143480000Y-86131428D01*
X143480000Y-85531428D02*
X143880000Y-86131428D01*
X160314285Y-70958714D02*
X160285714Y-70930142D01*
X160200000Y-70901571D01*
X160142857Y-70901571D01*
X160057142Y-70930142D01*
X160000000Y-70987285D01*
X159971428Y-71044428D01*
X159942857Y-71158714D01*
X159942857Y-71244428D01*
X159971428Y-71358714D01*
X160000000Y-71415857D01*
X160057142Y-71473000D01*
X160142857Y-71501571D01*
X160200000Y-71501571D01*
X160285714Y-71473000D01*
X160314285Y-71444428D01*
X160542857Y-71073000D02*
X160828571Y-71073000D01*
X160485714Y-70901571D02*
X160685714Y-71501571D01*
X160885714Y-70901571D01*
X161085714Y-70901571D02*
X161085714Y-71501571D01*
X161428571Y-70901571D01*
X161428571Y-71501571D01*
X158057142Y-70535571D02*
X158400000Y-70535571D01*
X158228571Y-69935571D02*
X158228571Y-70535571D01*
X158600000Y-70249857D02*
X158800000Y-70249857D01*
X158885714Y-69935571D02*
X158600000Y-69935571D01*
X158600000Y-70535571D01*
X158885714Y-70535571D01*
X159485714Y-69935571D02*
X159285714Y-70221285D01*
X159142857Y-69935571D02*
X159142857Y-70535571D01*
X159371428Y-70535571D01*
X159428571Y-70507000D01*
X159457142Y-70478428D01*
X159485714Y-70421285D01*
X159485714Y-70335571D01*
X159457142Y-70278428D01*
X159428571Y-70249857D01*
X159371428Y-70221285D01*
X159142857Y-70221285D01*
X159742857Y-69935571D02*
X159742857Y-70535571D01*
X159942857Y-70107000D01*
X160142857Y-70535571D01*
X160142857Y-69935571D01*
X160428571Y-69935571D02*
X160428571Y-70535571D01*
X160714285Y-69935571D02*
X160714285Y-70535571D01*
X161057142Y-69935571D01*
X161057142Y-70535571D01*
X161314285Y-70107000D02*
X161600000Y-70107000D01*
X161257142Y-69935571D02*
X161457142Y-70535571D01*
X161657142Y-69935571D01*
X161771428Y-70535571D02*
X162114285Y-70535571D01*
X161942857Y-69935571D02*
X161942857Y-70535571D01*
X162428571Y-70535571D02*
X162542857Y-70535571D01*
X162600000Y-70507000D01*
X162657142Y-70449857D01*
X162685714Y-70335571D01*
X162685714Y-70135571D01*
X162657142Y-70021285D01*
X162600000Y-69964142D01*
X162542857Y-69935571D01*
X162428571Y-69935571D01*
X162371428Y-69964142D01*
X162314285Y-70021285D01*
X162285714Y-70135571D01*
X162285714Y-70335571D01*
X162314285Y-70449857D01*
X162371428Y-70507000D01*
X162428571Y-70535571D01*
X163285714Y-69935571D02*
X163085714Y-70221285D01*
X162942857Y-69935571D02*
X162942857Y-70535571D01*
X163171428Y-70535571D01*
X163228571Y-70507000D01*
X163257142Y-70478428D01*
X163285714Y-70421285D01*
X163285714Y-70335571D01*
X163257142Y-70278428D01*
X163228571Y-70249857D01*
X163171428Y-70221285D01*
X162942857Y-70221285D01*
X148931428Y-73040000D02*
X149217142Y-73040000D01*
X148874285Y-72868571D02*
X149074285Y-73468571D01*
X149274285Y-72868571D01*
X149445714Y-73411428D02*
X149474285Y-73440000D01*
X149531428Y-73468571D01*
X149674285Y-73468571D01*
X149731428Y-73440000D01*
X149760000Y-73411428D01*
X149788571Y-73354285D01*
X149788571Y-73297142D01*
X149760000Y-73211428D01*
X149417142Y-72868571D01*
X149788571Y-72868571D01*
X164140000Y-113387142D02*
X164168571Y-113444285D01*
X164168571Y-113530000D01*
X164140000Y-113615714D01*
X164082857Y-113672857D01*
X164025714Y-113701428D01*
X163911428Y-113730000D01*
X163825714Y-113730000D01*
X163711428Y-113701428D01*
X163654285Y-113672857D01*
X163597142Y-113615714D01*
X163568571Y-113530000D01*
X163568571Y-113472857D01*
X163597142Y-113387142D01*
X163625714Y-113358571D01*
X163825714Y-113358571D01*
X163825714Y-113472857D01*
X163568571Y-113101428D02*
X164168571Y-113101428D01*
X163568571Y-112758571D01*
X164168571Y-112758571D01*
X163568571Y-112472857D02*
X164168571Y-112472857D01*
X164168571Y-112330000D01*
X164140000Y-112244285D01*
X164082857Y-112187142D01*
X164025714Y-112158571D01*
X163911428Y-112130000D01*
X163825714Y-112130000D01*
X163711428Y-112158571D01*
X163654285Y-112187142D01*
X163597142Y-112244285D01*
X163568571Y-112330000D01*
X163568571Y-112472857D01*
X138457142Y-73418571D02*
X138828571Y-73418571D01*
X138628571Y-73190000D01*
X138714285Y-73190000D01*
X138771428Y-73161428D01*
X138800000Y-73132857D01*
X138828571Y-73075714D01*
X138828571Y-72932857D01*
X138800000Y-72875714D01*
X138771428Y-72847142D01*
X138714285Y-72818571D01*
X138542857Y-72818571D01*
X138485714Y-72847142D01*
X138457142Y-72875714D01*
X139000000Y-73418571D02*
X139200000Y-72818571D01*
X139400000Y-73418571D01*
X139542857Y-73418571D02*
X139914285Y-73418571D01*
X139714285Y-73190000D01*
X139800000Y-73190000D01*
X139857142Y-73161428D01*
X139885714Y-73132857D01*
X139914285Y-73075714D01*
X139914285Y-72932857D01*
X139885714Y-72875714D01*
X139857142Y-72847142D01*
X139800000Y-72818571D01*
X139628571Y-72818571D01*
X139571428Y-72847142D01*
X139542857Y-72875714D01*
X117844285Y-89362857D02*
X117758571Y-89391428D01*
X117615714Y-89391428D01*
X117558571Y-89362857D01*
X117530000Y-89334285D01*
X117501428Y-89277142D01*
X117501428Y-89220000D01*
X117530000Y-89162857D01*
X117558571Y-89134285D01*
X117615714Y-89105714D01*
X117730000Y-89077142D01*
X117787142Y-89048571D01*
X117815714Y-89020000D01*
X117844285Y-88962857D01*
X117844285Y-88905714D01*
X117815714Y-88848571D01*
X117787142Y-88820000D01*
X117730000Y-88791428D01*
X117587142Y-88791428D01*
X117501428Y-88820000D01*
X116901428Y-89334285D02*
X116930000Y-89362857D01*
X117015714Y-89391428D01*
X117072857Y-89391428D01*
X117158571Y-89362857D01*
X117215714Y-89305714D01*
X117244285Y-89248571D01*
X117272857Y-89134285D01*
X117272857Y-89048571D01*
X117244285Y-88934285D01*
X117215714Y-88877142D01*
X117158571Y-88820000D01*
X117072857Y-88791428D01*
X117015714Y-88791428D01*
X116930000Y-88820000D01*
X116901428Y-88848571D01*
X116358571Y-89391428D02*
X116644285Y-89391428D01*
X116644285Y-88791428D01*
X169842857Y-92031428D02*
X169842857Y-91431428D01*
X169642857Y-91860000D01*
X169442857Y-91431428D01*
X169442857Y-92031428D01*
X169042857Y-91431428D02*
X168928571Y-91431428D01*
X168871428Y-91460000D01*
X168814285Y-91517142D01*
X168785714Y-91631428D01*
X168785714Y-91831428D01*
X168814285Y-91945714D01*
X168871428Y-92002857D01*
X168928571Y-92031428D01*
X169042857Y-92031428D01*
X169100000Y-92002857D01*
X169157142Y-91945714D01*
X169185714Y-91831428D01*
X169185714Y-91631428D01*
X169157142Y-91517142D01*
X169100000Y-91460000D01*
X169042857Y-91431428D01*
X168557142Y-92002857D02*
X168471428Y-92031428D01*
X168328571Y-92031428D01*
X168271428Y-92002857D01*
X168242857Y-91974285D01*
X168214285Y-91917142D01*
X168214285Y-91860000D01*
X168242857Y-91802857D01*
X168271428Y-91774285D01*
X168328571Y-91745714D01*
X168442857Y-91717142D01*
X168500000Y-91688571D01*
X168528571Y-91660000D01*
X168557142Y-91602857D01*
X168557142Y-91545714D01*
X168528571Y-91488571D01*
X168500000Y-91460000D01*
X168442857Y-91431428D01*
X168300000Y-91431428D01*
X168214285Y-91460000D01*
X167957142Y-92031428D02*
X167957142Y-91431428D01*
X143871428Y-67240000D02*
X144157142Y-67240000D01*
X143814285Y-67068571D02*
X144014285Y-67668571D01*
X144214285Y-67068571D01*
X144700000Y-67668571D02*
X144414285Y-67668571D01*
X144385714Y-67382857D01*
X144414285Y-67411428D01*
X144471428Y-67440000D01*
X144614285Y-67440000D01*
X144671428Y-67411428D01*
X144700000Y-67382857D01*
X144728571Y-67325714D01*
X144728571Y-67182857D01*
X144700000Y-67125714D01*
X144671428Y-67097142D01*
X144614285Y-67068571D01*
X144471428Y-67068571D01*
X144414285Y-67097142D01*
X144385714Y-67125714D01*
X134302857Y-112747142D02*
X134217142Y-112775714D01*
X134188571Y-112804285D01*
X134160000Y-112861428D01*
X134160000Y-112947142D01*
X134188571Y-113004285D01*
X134217142Y-113032857D01*
X134274285Y-113061428D01*
X134502857Y-113061428D01*
X134502857Y-112461428D01*
X134302857Y-112461428D01*
X134245714Y-112490000D01*
X134217142Y-112518571D01*
X134188571Y-112575714D01*
X134188571Y-112632857D01*
X134217142Y-112690000D01*
X134245714Y-112718571D01*
X134302857Y-112747142D01*
X134502857Y-112747142D01*
X133788571Y-112461428D02*
X133731428Y-112461428D01*
X133674285Y-112490000D01*
X133645714Y-112518571D01*
X133617142Y-112575714D01*
X133588571Y-112690000D01*
X133588571Y-112832857D01*
X133617142Y-112947142D01*
X133645714Y-113004285D01*
X133674285Y-113032857D01*
X133731428Y-113061428D01*
X133788571Y-113061428D01*
X133845714Y-113032857D01*
X133874285Y-113004285D01*
X133902857Y-112947142D01*
X133931428Y-112832857D01*
X133931428Y-112690000D01*
X133902857Y-112575714D01*
X133874285Y-112518571D01*
X133845714Y-112490000D01*
X133788571Y-112461428D01*
X133310000Y-73067142D02*
X133767142Y-73067142D01*
X133538571Y-72838571D02*
X133538571Y-73295714D01*
X134024285Y-73381428D02*
X134052857Y-73410000D01*
X134110000Y-73438571D01*
X134252857Y-73438571D01*
X134310000Y-73410000D01*
X134338571Y-73381428D01*
X134367142Y-73324285D01*
X134367142Y-73267142D01*
X134338571Y-73181428D01*
X133995714Y-72838571D01*
X134367142Y-72838571D01*
X134881428Y-73238571D02*
X134881428Y-72838571D01*
X134738571Y-73467142D02*
X134595714Y-73038571D01*
X134967142Y-73038571D01*
X157740000Y-113378571D02*
X157740000Y-113092857D01*
X157568571Y-113435714D02*
X158168571Y-113235714D01*
X157568571Y-113035714D01*
X158111428Y-112864285D02*
X158140000Y-112835714D01*
X158168571Y-112778571D01*
X158168571Y-112635714D01*
X158140000Y-112578571D01*
X158111428Y-112550000D01*
X158054285Y-112521428D01*
X157997142Y-112521428D01*
X157911428Y-112550000D01*
X157568571Y-112892857D01*
X157568571Y-112521428D01*
X156300000Y-94324285D02*
X156328571Y-94352857D01*
X156414285Y-94381428D01*
X156471428Y-94381428D01*
X156557142Y-94352857D01*
X156614285Y-94295714D01*
X156642857Y-94238571D01*
X156671428Y-94124285D01*
X156671428Y-94038571D01*
X156642857Y-93924285D01*
X156614285Y-93867142D01*
X156557142Y-93810000D01*
X156471428Y-93781428D01*
X156414285Y-93781428D01*
X156328571Y-93810000D01*
X156300000Y-93838571D01*
X156071428Y-94210000D02*
X155785714Y-94210000D01*
X156128571Y-94381428D02*
X155928571Y-93781428D01*
X155728571Y-94381428D01*
X155528571Y-94381428D02*
X155528571Y-93781428D01*
X155185714Y-94381428D01*
X155185714Y-93781428D01*
X154900000Y-94381428D02*
X154900000Y-93781428D01*
X154900000Y-94067142D02*
X154557142Y-94067142D01*
X154557142Y-94381428D02*
X154557142Y-93781428D01*
X147582857Y-112481428D02*
X147211428Y-112481428D01*
X147411428Y-112710000D01*
X147325714Y-112710000D01*
X147268571Y-112738571D01*
X147240000Y-112767142D01*
X147211428Y-112824285D01*
X147211428Y-112967142D01*
X147240000Y-113024285D01*
X147268571Y-113052857D01*
X147325714Y-113081428D01*
X147497142Y-113081428D01*
X147554285Y-113052857D01*
X147582857Y-113024285D01*
X147040000Y-112481428D02*
X146840000Y-113081428D01*
X146640000Y-112481428D01*
X146497142Y-112481428D02*
X146125714Y-112481428D01*
X146325714Y-112710000D01*
X146240000Y-112710000D01*
X146182857Y-112738571D01*
X146154285Y-112767142D01*
X146125714Y-112824285D01*
X146125714Y-112967142D01*
X146154285Y-113024285D01*
X146182857Y-113052857D01*
X146240000Y-113081428D01*
X146411428Y-113081428D01*
X146468571Y-113052857D01*
X146497142Y-113024285D01*
X117741666Y-97026428D02*
X117767857Y-97052619D01*
X117846428Y-97078809D01*
X117898809Y-97078809D01*
X117977380Y-97052619D01*
X118029761Y-97000238D01*
X118055952Y-96947857D01*
X118082142Y-96843095D01*
X118082142Y-96764523D01*
X118055952Y-96659761D01*
X118029761Y-96607380D01*
X117977380Y-96555000D01*
X117898809Y-96528809D01*
X117846428Y-96528809D01*
X117767857Y-96555000D01*
X117741666Y-96581190D01*
X117532142Y-96921666D02*
X117270238Y-96921666D01*
X117584523Y-97078809D02*
X117401190Y-96528809D01*
X117217857Y-97078809D01*
X117034523Y-97078809D02*
X117034523Y-96528809D01*
X116720238Y-97078809D01*
X116720238Y-96528809D01*
X116458333Y-97078809D02*
X116458333Y-96528809D01*
X116458333Y-96790714D02*
X116144047Y-96790714D01*
X116144047Y-97078809D02*
X116144047Y-96528809D01*
X124350000Y-101872857D02*
X123892857Y-101872857D01*
X124121428Y-102101428D02*
X124121428Y-101644285D01*
X123635714Y-101558571D02*
X123607142Y-101530000D01*
X123550000Y-101501428D01*
X123407142Y-101501428D01*
X123350000Y-101530000D01*
X123321428Y-101558571D01*
X123292857Y-101615714D01*
X123292857Y-101672857D01*
X123321428Y-101758571D01*
X123664285Y-102101428D01*
X123292857Y-102101428D01*
X122778571Y-101701428D02*
X122778571Y-102101428D01*
X122921428Y-101472857D02*
X123064285Y-101901428D01*
X122692857Y-101901428D01*
X163211428Y-94602857D02*
X163125714Y-94631428D01*
X162982857Y-94631428D01*
X162925714Y-94602857D01*
X162897142Y-94574285D01*
X162868571Y-94517142D01*
X162868571Y-94460000D01*
X162897142Y-94402857D01*
X162925714Y-94374285D01*
X162982857Y-94345714D01*
X163097142Y-94317142D01*
X163154285Y-94288571D01*
X163182857Y-94260000D01*
X163211428Y-94202857D01*
X163211428Y-94145714D01*
X163182857Y-94088571D01*
X163154285Y-94060000D01*
X163097142Y-94031428D01*
X162954285Y-94031428D01*
X162868571Y-94060000D01*
X162268571Y-94574285D02*
X162297142Y-94602857D01*
X162382857Y-94631428D01*
X162440000Y-94631428D01*
X162525714Y-94602857D01*
X162582857Y-94545714D01*
X162611428Y-94488571D01*
X162640000Y-94374285D01*
X162640000Y-94288571D01*
X162611428Y-94174285D01*
X162582857Y-94117142D01*
X162525714Y-94060000D01*
X162440000Y-94031428D01*
X162382857Y-94031428D01*
X162297142Y-94060000D01*
X162268571Y-94088571D01*
X162011428Y-94631428D02*
X162011428Y-94031428D01*
X161668571Y-94631428D02*
X161925714Y-94288571D01*
X161668571Y-94031428D02*
X162011428Y-94374285D01*
%TO.C,REF\u002A\u002A*%
G36*
X143597275Y-99288931D02*
G01*
X143681095Y-99733555D01*
X144299667Y-99988551D01*
X144670707Y-99736246D01*
X144744144Y-99686506D01*
X144841499Y-99621218D01*
X144925787Y-99565454D01*
X144992631Y-99522078D01*
X145037654Y-99493953D01*
X145056478Y-99483942D01*
X145068039Y-99491061D01*
X145102596Y-99520894D01*
X145154894Y-99569852D01*
X145220500Y-99633440D01*
X145294983Y-99707163D01*
X145373913Y-99786525D01*
X145452856Y-99867031D01*
X145527384Y-99944185D01*
X145593063Y-100013493D01*
X145645463Y-100070457D01*
X145680153Y-100110584D01*
X145692701Y-100129377D01*
X145689782Y-100137451D01*
X145669571Y-100173469D01*
X145632663Y-100232744D01*
X145582050Y-100310630D01*
X145520725Y-100402481D01*
X145451679Y-100503650D01*
X145413787Y-100558826D01*
X145348606Y-100654884D01*
X145292723Y-100738717D01*
X145249117Y-100805777D01*
X145220769Y-100851519D01*
X145210657Y-100871396D01*
X145210823Y-100872497D01*
X145219743Y-100897694D01*
X145240206Y-100949147D01*
X145269360Y-101020135D01*
X145304353Y-101103935D01*
X145342332Y-101193828D01*
X145380445Y-101283091D01*
X145415839Y-101365003D01*
X145445662Y-101432843D01*
X145467061Y-101479890D01*
X145477184Y-101499422D01*
X145483174Y-101501155D01*
X145519566Y-101508969D01*
X145584427Y-101521915D01*
X145672565Y-101538979D01*
X145778787Y-101559151D01*
X145897902Y-101581418D01*
X145960683Y-101593223D01*
X146075912Y-101615748D01*
X146176662Y-101636550D01*
X146257426Y-101654435D01*
X146312698Y-101668208D01*
X146336971Y-101676674D01*
X146341331Y-101685066D01*
X146348563Y-101726072D01*
X146354246Y-101794368D01*
X146358382Y-101883529D01*
X146360977Y-101987128D01*
X146362036Y-102098740D01*
X146361561Y-102211938D01*
X146359559Y-102320296D01*
X146356033Y-102417389D01*
X146350987Y-102496790D01*
X146344427Y-102552072D01*
X146336356Y-102576810D01*
X146331458Y-102579600D01*
X146294930Y-102591569D01*
X146231565Y-102607405D01*
X146148686Y-102625374D01*
X146053618Y-102643741D01*
X146021542Y-102649591D01*
X145873393Y-102676798D01*
X145756961Y-102698663D01*
X145668209Y-102716093D01*
X145603103Y-102729996D01*
X145557606Y-102741277D01*
X145527682Y-102750843D01*
X145509294Y-102759601D01*
X145498407Y-102768457D01*
X145497142Y-102769943D01*
X145479338Y-102800931D01*
X145452994Y-102857634D01*
X145420661Y-102933399D01*
X145384893Y-103021574D01*
X145348244Y-103115507D01*
X145313266Y-103208547D01*
X145282513Y-103294041D01*
X145258538Y-103365336D01*
X145243895Y-103415782D01*
X145241136Y-103438726D01*
X145242981Y-103441703D01*
X145262075Y-103470493D01*
X145297984Y-103523595D01*
X145347378Y-103596117D01*
X145406927Y-103683167D01*
X145473303Y-103779854D01*
X145491520Y-103806456D01*
X145555577Y-103901875D01*
X145610937Y-103987212D01*
X145654439Y-104057405D01*
X145682924Y-104107394D01*
X145693232Y-104132116D01*
X145691011Y-104138616D01*
X145667858Y-104170644D01*
X145622177Y-104222945D01*
X145557241Y-104291999D01*
X145476319Y-104374286D01*
X145382685Y-104466286D01*
X145329165Y-104517781D01*
X145244542Y-104597983D01*
X145170475Y-104666678D01*
X145110941Y-104720252D01*
X145069917Y-104755085D01*
X145051381Y-104767563D01*
X145038646Y-104762938D01*
X144999436Y-104741057D01*
X144942495Y-104705273D01*
X144875250Y-104660117D01*
X144827438Y-104627165D01*
X144731985Y-104561727D01*
X144630125Y-104492228D01*
X144537088Y-104429075D01*
X144354832Y-104305800D01*
X144201841Y-104388520D01*
X144165817Y-104407613D01*
X144100303Y-104440272D01*
X144049640Y-104462819D01*
X144022564Y-104471226D01*
X144013703Y-104460430D01*
X143991699Y-104419323D01*
X143959199Y-104351549D01*
X143918010Y-104261409D01*
X143869942Y-104153205D01*
X143816802Y-104031237D01*
X143760399Y-103899808D01*
X143702542Y-103763218D01*
X143645038Y-103625767D01*
X143589697Y-103491758D01*
X143538326Y-103365491D01*
X143492735Y-103251268D01*
X143454732Y-103153390D01*
X143426124Y-103076157D01*
X143408721Y-103023871D01*
X143404331Y-103000833D01*
X143404628Y-103000160D01*
X143425077Y-102978863D01*
X143467850Y-102945508D01*
X143524117Y-102907011D01*
X143541877Y-102895256D01*
X143677014Y-102783735D01*
X143788856Y-102650906D01*
X143874755Y-102502298D01*
X143932062Y-102343440D01*
X143958131Y-102179860D01*
X143950313Y-102017088D01*
X143918644Y-101872315D01*
X143861782Y-101726124D01*
X143778888Y-101595703D01*
X143665131Y-101471813D01*
X143620433Y-101432235D01*
X143475935Y-101334723D01*
X143319838Y-101269050D01*
X143156667Y-101234630D01*
X142990943Y-101230874D01*
X142827192Y-101257194D01*
X142669936Y-101313003D01*
X142523698Y-101397714D01*
X142393004Y-101510737D01*
X142282374Y-101651487D01*
X142261105Y-101686342D01*
X142188810Y-101845655D01*
X142150415Y-102011552D01*
X142144914Y-102179737D01*
X142171301Y-102345913D01*
X142228570Y-102505784D01*
X142315717Y-102655053D01*
X142431736Y-102789423D01*
X142575622Y-102904599D01*
X142580294Y-102907702D01*
X142635964Y-102946933D01*
X142677689Y-102980286D01*
X142696746Y-103000833D01*
X142694342Y-103016941D01*
X142679391Y-103063844D01*
X142652881Y-103136539D01*
X142616620Y-103230725D01*
X142572416Y-103342098D01*
X142522076Y-103466358D01*
X142467407Y-103599202D01*
X142410218Y-103736327D01*
X142352316Y-103873432D01*
X142295510Y-104006215D01*
X142241606Y-104130374D01*
X142192412Y-104241606D01*
X142149737Y-104335609D01*
X142115387Y-104408082D01*
X142091171Y-104454722D01*
X142078897Y-104471226D01*
X142068689Y-104468991D01*
X142028586Y-104452926D01*
X141969318Y-104424759D01*
X141899619Y-104388520D01*
X141746629Y-104305800D01*
X141564373Y-104429075D01*
X141510527Y-104465579D01*
X141410374Y-104533784D01*
X141310525Y-104602098D01*
X141226211Y-104660117D01*
X141179679Y-104691736D01*
X141119200Y-104731020D01*
X141074357Y-104757912D01*
X141052455Y-104767883D01*
X141043045Y-104763650D01*
X141009031Y-104737721D01*
X140956595Y-104692070D01*
X140890301Y-104631186D01*
X140814713Y-104559561D01*
X140734396Y-104481683D01*
X140653913Y-104402045D01*
X140577829Y-104325135D01*
X140510707Y-104255445D01*
X140457112Y-104197464D01*
X140421608Y-104155684D01*
X140408759Y-104134593D01*
X140409500Y-104130581D01*
X140424793Y-104097920D01*
X140457462Y-104041412D01*
X140504350Y-103966163D01*
X140562301Y-103877275D01*
X140628157Y-103779854D01*
X140646627Y-103752982D01*
X140711482Y-103658423D01*
X140768609Y-103574827D01*
X140814678Y-103507084D01*
X140846359Y-103460086D01*
X140860324Y-103438726D01*
X140860668Y-103437811D01*
X140856546Y-103411678D01*
X140840807Y-103358740D01*
X140816004Y-103285647D01*
X140784689Y-103199052D01*
X140749417Y-103105608D01*
X140712740Y-103011965D01*
X140677212Y-102924777D01*
X140645386Y-102850695D01*
X140619816Y-102796371D01*
X140603053Y-102768457D01*
X140601374Y-102766724D01*
X140589372Y-102757956D01*
X140569103Y-102749115D01*
X140536529Y-102739292D01*
X140487616Y-102727583D01*
X140418327Y-102713080D01*
X140324625Y-102694876D01*
X140202476Y-102672066D01*
X140047842Y-102643741D01*
X140015770Y-102637780D01*
X139923893Y-102619352D01*
X139846607Y-102601892D01*
X139791236Y-102587133D01*
X139765105Y-102576810D01*
X139760733Y-102568197D01*
X139753445Y-102526826D01*
X139747669Y-102458241D01*
X139743410Y-102368868D01*
X139740673Y-102265135D01*
X139739462Y-102153465D01*
X139739782Y-102040287D01*
X139741636Y-101932026D01*
X139745030Y-101835108D01*
X139749967Y-101755959D01*
X139756452Y-101701006D01*
X139764489Y-101676674D01*
X139772696Y-101673079D01*
X139813519Y-101661748D01*
X139882524Y-101645722D01*
X139974203Y-101626195D01*
X140083050Y-101604362D01*
X140203558Y-101581418D01*
X140269357Y-101569159D01*
X140382135Y-101547901D01*
X140479207Y-101529287D01*
X140555382Y-101514328D01*
X140605469Y-101504036D01*
X140624276Y-101499422D01*
X140624983Y-101498471D01*
X140636961Y-101474310D01*
X140659794Y-101423694D01*
X140690630Y-101353338D01*
X140726613Y-101269958D01*
X140764891Y-101180270D01*
X140802609Y-101090989D01*
X140836913Y-101008832D01*
X140864949Y-100940513D01*
X140883864Y-100892748D01*
X140890803Y-100872254D01*
X140887742Y-100865043D01*
X140867372Y-100830728D01*
X140830422Y-100772970D01*
X140779860Y-100696299D01*
X140718657Y-100605248D01*
X140649781Y-100504350D01*
X140611994Y-100449093D01*
X140546782Y-100352215D01*
X140490871Y-100267193D01*
X140447241Y-100198662D01*
X140418877Y-100151260D01*
X140408759Y-100129623D01*
X140415790Y-100117887D01*
X140445197Y-100082818D01*
X140493441Y-100029745D01*
X140556093Y-99963164D01*
X140628725Y-99887574D01*
X140706908Y-99807472D01*
X140786214Y-99727354D01*
X140862213Y-99651718D01*
X140930478Y-99585062D01*
X140986580Y-99531882D01*
X141026090Y-99496676D01*
X141044579Y-99483942D01*
X141054843Y-99488893D01*
X141092530Y-99511857D01*
X141153348Y-99550938D01*
X141232913Y-99603272D01*
X141326843Y-99665996D01*
X141430754Y-99736246D01*
X141801794Y-99988551D01*
X142111080Y-99861053D01*
X142420365Y-99733555D01*
X142504186Y-99288931D01*
X142588006Y-98844307D01*
X143513454Y-98844307D01*
X143597275Y-99288931D01*
G37*
D15*
X143597275Y-99288931D02*
X143681095Y-99733555D01*
X144299667Y-99988551D01*
X144670707Y-99736246D01*
X144744144Y-99686506D01*
X144841499Y-99621218D01*
X144925787Y-99565454D01*
X144992631Y-99522078D01*
X145037654Y-99493953D01*
X145056478Y-99483942D01*
X145068039Y-99491061D01*
X145102596Y-99520894D01*
X145154894Y-99569852D01*
X145220500Y-99633440D01*
X145294983Y-99707163D01*
X145373913Y-99786525D01*
X145452856Y-99867031D01*
X145527384Y-99944185D01*
X145593063Y-100013493D01*
X145645463Y-100070457D01*
X145680153Y-100110584D01*
X145692701Y-100129377D01*
X145689782Y-100137451D01*
X145669571Y-100173469D01*
X145632663Y-100232744D01*
X145582050Y-100310630D01*
X145520725Y-100402481D01*
X145451679Y-100503650D01*
X145413787Y-100558826D01*
X145348606Y-100654884D01*
X145292723Y-100738717D01*
X145249117Y-100805777D01*
X145220769Y-100851519D01*
X145210657Y-100871396D01*
X145210823Y-100872497D01*
X145219743Y-100897694D01*
X145240206Y-100949147D01*
X145269360Y-101020135D01*
X145304353Y-101103935D01*
X145342332Y-101193828D01*
X145380445Y-101283091D01*
X145415839Y-101365003D01*
X145445662Y-101432843D01*
X145467061Y-101479890D01*
X145477184Y-101499422D01*
X145483174Y-101501155D01*
X145519566Y-101508969D01*
X145584427Y-101521915D01*
X145672565Y-101538979D01*
X145778787Y-101559151D01*
X145897902Y-101581418D01*
X145960683Y-101593223D01*
X146075912Y-101615748D01*
X146176662Y-101636550D01*
X146257426Y-101654435D01*
X146312698Y-101668208D01*
X146336971Y-101676674D01*
X146341331Y-101685066D01*
X146348563Y-101726072D01*
X146354246Y-101794368D01*
X146358382Y-101883529D01*
X146360977Y-101987128D01*
X146362036Y-102098740D01*
X146361561Y-102211938D01*
X146359559Y-102320296D01*
X146356033Y-102417389D01*
X146350987Y-102496790D01*
X146344427Y-102552072D01*
X146336356Y-102576810D01*
X146331458Y-102579600D01*
X146294930Y-102591569D01*
X146231565Y-102607405D01*
X146148686Y-102625374D01*
X146053618Y-102643741D01*
X146021542Y-102649591D01*
X145873393Y-102676798D01*
X145756961Y-102698663D01*
X145668209Y-102716093D01*
X145603103Y-102729996D01*
X145557606Y-102741277D01*
X145527682Y-102750843D01*
X145509294Y-102759601D01*
X145498407Y-102768457D01*
X145497142Y-102769943D01*
X145479338Y-102800931D01*
X145452994Y-102857634D01*
X145420661Y-102933399D01*
X145384893Y-103021574D01*
X145348244Y-103115507D01*
X145313266Y-103208547D01*
X145282513Y-103294041D01*
X145258538Y-103365336D01*
X145243895Y-103415782D01*
X145241136Y-103438726D01*
X145242981Y-103441703D01*
X145262075Y-103470493D01*
X145297984Y-103523595D01*
X145347378Y-103596117D01*
X145406927Y-103683167D01*
X145473303Y-103779854D01*
X145491520Y-103806456D01*
X145555577Y-103901875D01*
X145610937Y-103987212D01*
X145654439Y-104057405D01*
X145682924Y-104107394D01*
X145693232Y-104132116D01*
X145691011Y-104138616D01*
X145667858Y-104170644D01*
X145622177Y-104222945D01*
X145557241Y-104291999D01*
X145476319Y-104374286D01*
X145382685Y-104466286D01*
X145329165Y-104517781D01*
X145244542Y-104597983D01*
X145170475Y-104666678D01*
X145110941Y-104720252D01*
X145069917Y-104755085D01*
X145051381Y-104767563D01*
X145038646Y-104762938D01*
X144999436Y-104741057D01*
X144942495Y-104705273D01*
X144875250Y-104660117D01*
X144827438Y-104627165D01*
X144731985Y-104561727D01*
X144630125Y-104492228D01*
X144537088Y-104429075D01*
X144354832Y-104305800D01*
X144201841Y-104388520D01*
X144165817Y-104407613D01*
X144100303Y-104440272D01*
X144049640Y-104462819D01*
X144022564Y-104471226D01*
X144013703Y-104460430D01*
X143991699Y-104419323D01*
X143959199Y-104351549D01*
X143918010Y-104261409D01*
X143869942Y-104153205D01*
X143816802Y-104031237D01*
X143760399Y-103899808D01*
X143702542Y-103763218D01*
X143645038Y-103625767D01*
X143589697Y-103491758D01*
X143538326Y-103365491D01*
X143492735Y-103251268D01*
X143454732Y-103153390D01*
X143426124Y-103076157D01*
X143408721Y-103023871D01*
X143404331Y-103000833D01*
X143404628Y-103000160D01*
X143425077Y-102978863D01*
X143467850Y-102945508D01*
X143524117Y-102907011D01*
X143541877Y-102895256D01*
X143677014Y-102783735D01*
X143788856Y-102650906D01*
X143874755Y-102502298D01*
X143932062Y-102343440D01*
X143958131Y-102179860D01*
X143950313Y-102017088D01*
X143918644Y-101872315D01*
X143861782Y-101726124D01*
X143778888Y-101595703D01*
X143665131Y-101471813D01*
X143620433Y-101432235D01*
X143475935Y-101334723D01*
X143319838Y-101269050D01*
X143156667Y-101234630D01*
X142990943Y-101230874D01*
X142827192Y-101257194D01*
X142669936Y-101313003D01*
X142523698Y-101397714D01*
X142393004Y-101510737D01*
X142282374Y-101651487D01*
X142261105Y-101686342D01*
X142188810Y-101845655D01*
X142150415Y-102011552D01*
X142144914Y-102179737D01*
X142171301Y-102345913D01*
X142228570Y-102505784D01*
X142315717Y-102655053D01*
X142431736Y-102789423D01*
X142575622Y-102904599D01*
X142580294Y-102907702D01*
X142635964Y-102946933D01*
X142677689Y-102980286D01*
X142696746Y-103000833D01*
X142694342Y-103016941D01*
X142679391Y-103063844D01*
X142652881Y-103136539D01*
X142616620Y-103230725D01*
X142572416Y-103342098D01*
X142522076Y-103466358D01*
X142467407Y-103599202D01*
X142410218Y-103736327D01*
X142352316Y-103873432D01*
X142295510Y-104006215D01*
X142241606Y-104130374D01*
X142192412Y-104241606D01*
X142149737Y-104335609D01*
X142115387Y-104408082D01*
X142091171Y-104454722D01*
X142078897Y-104471226D01*
X142068689Y-104468991D01*
X142028586Y-104452926D01*
X141969318Y-104424759D01*
X141899619Y-104388520D01*
X141746629Y-104305800D01*
X141564373Y-104429075D01*
X141510527Y-104465579D01*
X141410374Y-104533784D01*
X141310525Y-104602098D01*
X141226211Y-104660117D01*
X141179679Y-104691736D01*
X141119200Y-104731020D01*
X141074357Y-104757912D01*
X141052455Y-104767883D01*
X141043045Y-104763650D01*
X141009031Y-104737721D01*
X140956595Y-104692070D01*
X140890301Y-104631186D01*
X140814713Y-104559561D01*
X140734396Y-104481683D01*
X140653913Y-104402045D01*
X140577829Y-104325135D01*
X140510707Y-104255445D01*
X140457112Y-104197464D01*
X140421608Y-104155684D01*
X140408759Y-104134593D01*
X140409500Y-104130581D01*
X140424793Y-104097920D01*
X140457462Y-104041412D01*
X140504350Y-103966163D01*
X140562301Y-103877275D01*
X140628157Y-103779854D01*
X140646627Y-103752982D01*
X140711482Y-103658423D01*
X140768609Y-103574827D01*
X140814678Y-103507084D01*
X140846359Y-103460086D01*
X140860324Y-103438726D01*
X140860668Y-103437811D01*
X140856546Y-103411678D01*
X140840807Y-103358740D01*
X140816004Y-103285647D01*
X140784689Y-103199052D01*
X140749417Y-103105608D01*
X140712740Y-103011965D01*
X140677212Y-102924777D01*
X140645386Y-102850695D01*
X140619816Y-102796371D01*
X140603053Y-102768457D01*
X140601374Y-102766724D01*
X140589372Y-102757956D01*
X140569103Y-102749115D01*
X140536529Y-102739292D01*
X140487616Y-102727583D01*
X140418327Y-102713080D01*
X140324625Y-102694876D01*
X140202476Y-102672066D01*
X140047842Y-102643741D01*
X140015770Y-102637780D01*
X139923893Y-102619352D01*
X139846607Y-102601892D01*
X139791236Y-102587133D01*
X139765105Y-102576810D01*
X139760733Y-102568197D01*
X139753445Y-102526826D01*
X139747669Y-102458241D01*
X139743410Y-102368868D01*
X139740673Y-102265135D01*
X139739462Y-102153465D01*
X139739782Y-102040287D01*
X139741636Y-101932026D01*
X139745030Y-101835108D01*
X139749967Y-101755959D01*
X139756452Y-101701006D01*
X139764489Y-101676674D01*
X139772696Y-101673079D01*
X139813519Y-101661748D01*
X139882524Y-101645722D01*
X139974203Y-101626195D01*
X140083050Y-101604362D01*
X140203558Y-101581418D01*
X140269357Y-101569159D01*
X140382135Y-101547901D01*
X140479207Y-101529287D01*
X140555382Y-101514328D01*
X140605469Y-101504036D01*
X140624276Y-101499422D01*
X140624983Y-101498471D01*
X140636961Y-101474310D01*
X140659794Y-101423694D01*
X140690630Y-101353338D01*
X140726613Y-101269958D01*
X140764891Y-101180270D01*
X140802609Y-101090989D01*
X140836913Y-101008832D01*
X140864949Y-100940513D01*
X140883864Y-100892748D01*
X140890803Y-100872254D01*
X140887742Y-100865043D01*
X140867372Y-100830728D01*
X140830422Y-100772970D01*
X140779860Y-100696299D01*
X140718657Y-100605248D01*
X140649781Y-100504350D01*
X140611994Y-100449093D01*
X140546782Y-100352215D01*
X140490871Y-100267193D01*
X140447241Y-100198662D01*
X140418877Y-100151260D01*
X140408759Y-100129623D01*
X140415790Y-100117887D01*
X140445197Y-100082818D01*
X140493441Y-100029745D01*
X140556093Y-99963164D01*
X140628725Y-99887574D01*
X140706908Y-99807472D01*
X140786214Y-99727354D01*
X140862213Y-99651718D01*
X140930478Y-99585062D01*
X140986580Y-99531882D01*
X141026090Y-99496676D01*
X141044579Y-99483942D01*
X141054843Y-99488893D01*
X141092530Y-99511857D01*
X141153348Y-99550938D01*
X141232913Y-99603272D01*
X141326843Y-99665996D01*
X141430754Y-99736246D01*
X141801794Y-99988551D01*
X142111080Y-99861053D01*
X142420365Y-99733555D01*
X142504186Y-99288931D01*
X142588006Y-98844307D01*
X143513454Y-98844307D01*
X143597275Y-99288931D01*
G36*
X127251662Y-114220696D02*
G01*
X127291314Y-114221782D01*
X127359109Y-114221782D01*
X127359109Y-114334951D01*
X127199577Y-114334951D01*
X127184682Y-114512732D01*
X127182682Y-114537037D01*
X127178023Y-114597880D01*
X127174731Y-114647389D01*
X127173092Y-114680992D01*
X127173390Y-114694116D01*
X127177724Y-114690343D01*
X127197496Y-114670676D01*
X127231679Y-114635818D01*
X127278541Y-114587576D01*
X127336354Y-114527757D01*
X127403387Y-114458167D01*
X127477912Y-114380615D01*
X127558197Y-114296907D01*
X127642513Y-114208849D01*
X127729130Y-114118250D01*
X127816319Y-114026915D01*
X127902349Y-113936653D01*
X127985492Y-113849269D01*
X128064016Y-113766572D01*
X128136192Y-113690368D01*
X128200291Y-113622463D01*
X128254583Y-113564666D01*
X128351592Y-113461040D01*
X128352034Y-113549315D01*
X128352475Y-113637589D01*
X127751938Y-114269158D01*
X127151401Y-114900726D01*
X127139396Y-115044674D01*
X127091365Y-115620635D01*
X127082876Y-115722791D01*
X127072343Y-115850612D01*
X127062621Y-115969767D01*
X127053898Y-116077914D01*
X127046358Y-116172713D01*
X127040187Y-116251819D01*
X127035573Y-116312892D01*
X127032700Y-116353590D01*
X127031754Y-116371570D01*
X127034251Y-116379808D01*
X127045471Y-116397599D01*
X127066751Y-116424411D01*
X127077021Y-116436129D01*
X127099225Y-116461466D01*
X127144023Y-116509986D01*
X127202281Y-116571192D01*
X127275129Y-116646307D01*
X127363703Y-116736550D01*
X127469134Y-116843145D01*
X127538492Y-116913093D01*
X127635179Y-117010658D01*
X127731526Y-117107941D01*
X127824638Y-117202014D01*
X127911618Y-117289950D01*
X127989569Y-117368820D01*
X128055596Y-117435699D01*
X128106802Y-117487658D01*
X128307514Y-117691620D01*
X128271058Y-117729671D01*
X128262460Y-117738245D01*
X128237095Y-117759297D01*
X128219695Y-117767723D01*
X128206071Y-117760530D01*
X128180743Y-117738944D01*
X128150379Y-117707995D01*
X128131896Y-117688448D01*
X128097427Y-117652752D01*
X128048712Y-117602684D01*
X127987469Y-117540001D01*
X127915420Y-117466457D01*
X127834285Y-117383810D01*
X127745784Y-117293815D01*
X127651637Y-117198228D01*
X127553565Y-117098805D01*
X127011161Y-116549343D01*
X126989066Y-116834746D01*
X126984250Y-116895662D01*
X126977216Y-116977548D01*
X126970872Y-117039569D01*
X126964748Y-117084987D01*
X126958373Y-117117062D01*
X126951277Y-117139052D01*
X126942991Y-117154219D01*
X126931393Y-117175416D01*
X126921850Y-117214386D01*
X126919010Y-117270531D01*
X126919010Y-117352773D01*
X126692674Y-117352773D01*
X126692674Y-117176733D01*
X125847082Y-117176733D01*
X125798203Y-117232262D01*
X125784836Y-117246722D01*
X125712388Y-117304813D01*
X125630532Y-117340576D01*
X125541900Y-117352773D01*
X125463692Y-117346306D01*
X125375233Y-117319047D01*
X125299507Y-117270328D01*
X125284748Y-117256403D01*
X125247864Y-117211328D01*
X125215503Y-117158819D01*
X125192297Y-117107061D01*
X125182879Y-117064239D01*
X125182697Y-117058023D01*
X125181342Y-117035246D01*
X125177800Y-117019513D01*
X125170390Y-117012068D01*
X125157431Y-117014156D01*
X125137243Y-117027020D01*
X125108145Y-117051905D01*
X125068456Y-117090053D01*
X125016496Y-117142710D01*
X124950584Y-117211119D01*
X124869040Y-117296524D01*
X124825604Y-117342112D01*
X124753000Y-117418441D01*
X124684309Y-117490808D01*
X124622223Y-117556366D01*
X124569434Y-117612274D01*
X124528634Y-117655686D01*
X124502515Y-117683758D01*
X124431119Y-117761436D01*
X124342863Y-117673416D01*
X124888690Y-117101287D01*
X124923105Y-117065188D01*
X125045546Y-116936272D01*
X125150651Y-116824754D01*
X125238736Y-116730288D01*
X125310116Y-116652529D01*
X125360588Y-116596174D01*
X125567247Y-116596174D01*
X125568872Y-116609434D01*
X125569156Y-116610819D01*
X125582698Y-116642228D01*
X125609748Y-116656863D01*
X125693129Y-116688063D01*
X125767418Y-116740038D01*
X125825846Y-116808791D01*
X125865890Y-116891315D01*
X125885026Y-116984606D01*
X125891364Y-117063565D01*
X126840838Y-117063565D01*
X126847458Y-117035273D01*
X126848629Y-117028329D01*
X126852268Y-116997281D01*
X126857234Y-116947081D01*
X126863157Y-116881727D01*
X126869669Y-116805219D01*
X126876401Y-116721555D01*
X126898724Y-116436129D01*
X126597826Y-116130565D01*
X126542636Y-116074704D01*
X126475109Y-116006888D01*
X126414529Y-115946643D01*
X126363021Y-115896052D01*
X126322710Y-115857200D01*
X126295722Y-115832170D01*
X126284182Y-115823046D01*
X126276444Y-115827405D01*
X126253395Y-115847241D01*
X126218709Y-115880375D01*
X126175487Y-115923820D01*
X126126832Y-115974587D01*
X126114140Y-115988051D01*
X126057229Y-116048275D01*
X125989414Y-116119864D01*
X125915800Y-116197437D01*
X125841493Y-116275611D01*
X125771599Y-116349005D01*
X125767401Y-116353409D01*
X125702420Y-116421785D01*
X125652836Y-116474732D01*
X125616688Y-116514767D01*
X125592016Y-116544411D01*
X125576858Y-116566181D01*
X125569256Y-116582595D01*
X125567247Y-116596174D01*
X125360588Y-116596174D01*
X125365105Y-116591131D01*
X125404019Y-116545748D01*
X125427173Y-116516035D01*
X125434882Y-116501644D01*
X125434883Y-116501559D01*
X125433825Y-116483624D01*
X125430737Y-116443421D01*
X125425858Y-116383687D01*
X125419432Y-116307158D01*
X125411700Y-116216569D01*
X125402905Y-116114657D01*
X125393287Y-116004159D01*
X125383091Y-115887811D01*
X125372556Y-115768348D01*
X125361926Y-115648507D01*
X125351442Y-115531025D01*
X125341346Y-115418637D01*
X125331881Y-115314081D01*
X125323288Y-115220091D01*
X125315809Y-115139405D01*
X125309687Y-115074759D01*
X125305162Y-115028888D01*
X125302478Y-115004530D01*
X125297067Y-114963732D01*
X125426253Y-114963732D01*
X125427908Y-114994653D01*
X125431549Y-115046653D01*
X125436995Y-115117487D01*
X125444063Y-115204911D01*
X125452570Y-115306681D01*
X125462335Y-115420552D01*
X125473174Y-115544279D01*
X125484907Y-115675618D01*
X125494079Y-115776908D01*
X125505566Y-115902526D01*
X125516322Y-116018762D01*
X125526131Y-116123380D01*
X125534781Y-116214140D01*
X125542057Y-116288804D01*
X125547746Y-116345134D01*
X125551634Y-116380891D01*
X125553506Y-116393837D01*
X125559188Y-116389826D01*
X125580020Y-116370138D01*
X125613872Y-116336322D01*
X125658412Y-116290837D01*
X125711310Y-116236146D01*
X125770236Y-116174710D01*
X125832858Y-116108990D01*
X125896848Y-116041449D01*
X125959874Y-115974547D01*
X126019606Y-115910746D01*
X126073713Y-115852507D01*
X126119865Y-115802292D01*
X126155733Y-115762563D01*
X126178984Y-115735780D01*
X126185778Y-115726477D01*
X126367601Y-115726477D01*
X126643305Y-116001968D01*
X126710726Y-116069224D01*
X126774267Y-116132162D01*
X126823490Y-116180100D01*
X126860196Y-116214594D01*
X126886190Y-116237199D01*
X126903276Y-116249471D01*
X126913256Y-116252966D01*
X126917935Y-116249238D01*
X126919116Y-116239844D01*
X126919873Y-116224749D01*
X126922601Y-116185883D01*
X126927108Y-116126895D01*
X126933179Y-116050473D01*
X126940596Y-115959305D01*
X126949142Y-115856080D01*
X126958602Y-115743483D01*
X126968758Y-115624205D01*
X126977723Y-115519077D01*
X126987066Y-115408351D01*
X126995443Y-115307814D01*
X127002653Y-115219943D01*
X127008496Y-115147215D01*
X127012769Y-115092110D01*
X127015273Y-115057104D01*
X127015805Y-115044674D01*
X127015384Y-115044908D01*
X127003509Y-115056350D01*
X126977130Y-115083198D01*
X126938570Y-115123018D01*
X126890153Y-115173372D01*
X126834203Y-115231828D01*
X126773042Y-115295948D01*
X126708995Y-115363298D01*
X126644385Y-115431443D01*
X126581535Y-115497948D01*
X126522768Y-115560377D01*
X126470409Y-115616295D01*
X126369533Y-115724406D01*
X126367601Y-115726477D01*
X126185778Y-115726477D01*
X126187290Y-115724406D01*
X126179148Y-115713383D01*
X126155478Y-115686999D01*
X126118478Y-115647527D01*
X126070350Y-115597191D01*
X126013296Y-115538217D01*
X125949520Y-115472830D01*
X125881222Y-115403255D01*
X125810605Y-115331716D01*
X125739871Y-115260438D01*
X125671222Y-115191647D01*
X125606861Y-115127566D01*
X125548989Y-115070422D01*
X125499810Y-115022439D01*
X125461524Y-114985841D01*
X125436334Y-114962854D01*
X125426442Y-114955703D01*
X125426253Y-114963732D01*
X125297067Y-114963732D01*
X125295390Y-114951089D01*
X125020297Y-114951089D01*
X125020140Y-114850495D01*
X125120891Y-114850495D01*
X125202624Y-114850495D01*
X125209895Y-114850489D01*
X125250950Y-114849613D01*
X125273277Y-114845867D01*
X125282529Y-114837270D01*
X125284357Y-114821840D01*
X125276306Y-114799159D01*
X125248730Y-114761428D01*
X125202624Y-114712179D01*
X125120891Y-114631172D01*
X125120891Y-114850495D01*
X125020140Y-114850495D01*
X125019968Y-114740471D01*
X125019639Y-114529852D01*
X124567914Y-114070891D01*
X124116189Y-113611931D01*
X124115570Y-113524848D01*
X124114951Y-113437767D01*
X124656769Y-113986952D01*
X124709137Y-114039998D01*
X124817803Y-114149772D01*
X124910709Y-114243114D01*
X124989055Y-114321173D01*
X125054043Y-114385097D01*
X125106872Y-114436035D01*
X125148743Y-114475135D01*
X125180855Y-114503548D01*
X125204410Y-114522420D01*
X125220608Y-114532901D01*
X125230649Y-114536139D01*
X125247579Y-114535158D01*
X125257084Y-114527996D01*
X125258723Y-114508401D01*
X125254782Y-114470124D01*
X125252065Y-114446025D01*
X125248284Y-114405744D01*
X125246760Y-114378961D01*
X125246015Y-114369728D01*
X125238746Y-114359839D01*
X125218668Y-114356562D01*
X125179689Y-114357992D01*
X125169737Y-114358553D01*
X125129898Y-114357921D01*
X125101560Y-114349167D01*
X125081586Y-114334951D01*
X125364852Y-114334951D01*
X125369013Y-114382104D01*
X125370935Y-114403498D01*
X125376924Y-114461909D01*
X125382826Y-114500381D01*
X125389727Y-114522912D01*
X125398712Y-114533498D01*
X125410870Y-114536139D01*
X125421801Y-114537937D01*
X125429050Y-114546530D01*
X125433100Y-114566505D01*
X125434863Y-114602450D01*
X125435248Y-114658952D01*
X125435248Y-114781766D01*
X125475447Y-114821840D01*
X125573565Y-114919654D01*
X125711881Y-115057542D01*
X125711881Y-114951089D01*
X126466337Y-114951089D01*
X126466337Y-115190000D01*
X125847831Y-115190000D01*
X126057592Y-115406906D01*
X126097770Y-115448334D01*
X126153328Y-115505200D01*
X126201570Y-115554082D01*
X126239971Y-115592441D01*
X126266003Y-115617741D01*
X126277140Y-115627442D01*
X126281373Y-115624767D01*
X126301224Y-115606782D01*
X126335451Y-115573481D01*
X126382227Y-115526712D01*
X126439724Y-115468325D01*
X126506112Y-115400169D01*
X126579564Y-115324094D01*
X126658251Y-115241950D01*
X126737341Y-115158943D01*
X126814871Y-115077136D01*
X126877746Y-115010083D01*
X126927502Y-114956007D01*
X126965678Y-114913129D01*
X126993811Y-114879673D01*
X127013440Y-114853861D01*
X127026101Y-114833914D01*
X127033334Y-114818056D01*
X127036675Y-114804509D01*
X127037561Y-114797910D01*
X127041488Y-114761548D01*
X127046459Y-114708018D01*
X127051927Y-114643421D01*
X127057344Y-114573862D01*
X127059181Y-114549635D01*
X127064488Y-114484178D01*
X127069548Y-114427717D01*
X127073863Y-114385618D01*
X127076934Y-114363243D01*
X127082955Y-114334951D01*
X125364852Y-114334951D01*
X125081586Y-114334951D01*
X125073630Y-114329289D01*
X125068820Y-114325104D01*
X125029482Y-114274427D01*
X125013903Y-114221782D01*
X125354698Y-114221782D01*
X126769221Y-114221782D01*
X126981881Y-114221782D01*
X127038908Y-114221782D01*
X127055993Y-114221662D01*
X127081308Y-114219462D01*
X127088616Y-114212334D01*
X127082943Y-114197508D01*
X127081267Y-114194682D01*
X127062448Y-114172944D01*
X127035183Y-114148820D01*
X127007987Y-114129254D01*
X126989371Y-114121188D01*
X126987697Y-114122463D01*
X126983544Y-114139976D01*
X126981881Y-114171485D01*
X126981881Y-114221782D01*
X126769221Y-114221782D01*
X126765526Y-114131095D01*
X126761832Y-114040407D01*
X126686386Y-114025252D01*
X126648551Y-114018379D01*
X126585368Y-114008756D01*
X126526065Y-114001496D01*
X126441188Y-113992893D01*
X126441188Y-114096040D01*
X125862773Y-114096040D01*
X125862773Y-114005122D01*
X125790471Y-114013753D01*
X125679998Y-114032249D01*
X125568816Y-114065691D01*
X125476850Y-114112324D01*
X125402542Y-114172786D01*
X125354698Y-114221782D01*
X125013903Y-114221782D01*
X125012172Y-114215934D01*
X125017474Y-114154575D01*
X125045975Y-114095297D01*
X125048733Y-114091606D01*
X125086822Y-114059851D01*
X125136476Y-114041067D01*
X125190002Y-114036071D01*
X125239707Y-114045678D01*
X125277900Y-114070704D01*
X125290831Y-114083480D01*
X125303428Y-114086576D01*
X125321467Y-114076998D01*
X125351928Y-114053082D01*
X125361274Y-114045731D01*
X125433430Y-113999339D01*
X125518915Y-113958084D01*
X125588830Y-113932575D01*
X125963367Y-113932575D01*
X125963367Y-113995446D01*
X126340594Y-113995446D01*
X126340594Y-113932575D01*
X125963367Y-113932575D01*
X125588830Y-113932575D01*
X125609767Y-113924936D01*
X125698027Y-113902868D01*
X125775736Y-113894852D01*
X125783991Y-113894788D01*
X125829879Y-113890321D01*
X125855079Y-113877795D01*
X125862773Y-113855784D01*
X125863676Y-113848849D01*
X125868615Y-113842885D01*
X125880611Y-113838519D01*
X125902680Y-113835503D01*
X125937836Y-113833590D01*
X125989094Y-113832530D01*
X126059471Y-113832077D01*
X126151980Y-113831980D01*
X126238660Y-113832150D01*
X126312332Y-113832834D01*
X126366265Y-113834215D01*
X126403288Y-113836470D01*
X126426230Y-113839778D01*
X126437920Y-113844320D01*
X126441188Y-113850272D01*
X126451937Y-113864888D01*
X126482055Y-113874215D01*
X126493582Y-113875847D01*
X126532886Y-113881591D01*
X126585188Y-113889378D01*
X126642376Y-113898003D01*
X126673916Y-113902393D01*
X126720074Y-113907148D01*
X126752641Y-113908295D01*
X126766023Y-113905495D01*
X126768308Y-113903671D01*
X126789405Y-113899165D01*
X126827355Y-113896029D01*
X126876048Y-113894852D01*
X126981881Y-113894852D01*
X126981894Y-113932575D01*
X126981894Y-113935718D01*
X126982388Y-113948668D01*
X126988819Y-113970411D01*
X127007123Y-113988851D01*
X127042830Y-114010801D01*
X127074174Y-114030854D01*
X127121893Y-114069356D01*
X127165138Y-114112579D01*
X127198219Y-114154627D01*
X127215442Y-114189604D01*
X127219662Y-114203081D01*
X127227480Y-114212334D01*
X127230116Y-114215454D01*
X127251662Y-114220696D01*
G37*
X127251662Y-114220696D02*
X127291314Y-114221782D01*
X127359109Y-114221782D01*
X127359109Y-114334951D01*
X127199577Y-114334951D01*
X127184682Y-114512732D01*
X127182682Y-114537037D01*
X127178023Y-114597880D01*
X127174731Y-114647389D01*
X127173092Y-114680992D01*
X127173390Y-114694116D01*
X127177724Y-114690343D01*
X127197496Y-114670676D01*
X127231679Y-114635818D01*
X127278541Y-114587576D01*
X127336354Y-114527757D01*
X127403387Y-114458167D01*
X127477912Y-114380615D01*
X127558197Y-114296907D01*
X127642513Y-114208849D01*
X127729130Y-114118250D01*
X127816319Y-114026915D01*
X127902349Y-113936653D01*
X127985492Y-113849269D01*
X128064016Y-113766572D01*
X128136192Y-113690368D01*
X128200291Y-113622463D01*
X128254583Y-113564666D01*
X128351592Y-113461040D01*
X128352034Y-113549315D01*
X128352475Y-113637589D01*
X127751938Y-114269158D01*
X127151401Y-114900726D01*
X127139396Y-115044674D01*
X127091365Y-115620635D01*
X127082876Y-115722791D01*
X127072343Y-115850612D01*
X127062621Y-115969767D01*
X127053898Y-116077914D01*
X127046358Y-116172713D01*
X127040187Y-116251819D01*
X127035573Y-116312892D01*
X127032700Y-116353590D01*
X127031754Y-116371570D01*
X127034251Y-116379808D01*
X127045471Y-116397599D01*
X127066751Y-116424411D01*
X127077021Y-116436129D01*
X127099225Y-116461466D01*
X127144023Y-116509986D01*
X127202281Y-116571192D01*
X127275129Y-116646307D01*
X127363703Y-116736550D01*
X127469134Y-116843145D01*
X127538492Y-116913093D01*
X127635179Y-117010658D01*
X127731526Y-117107941D01*
X127824638Y-117202014D01*
X127911618Y-117289950D01*
X127989569Y-117368820D01*
X128055596Y-117435699D01*
X128106802Y-117487658D01*
X128307514Y-117691620D01*
X128271058Y-117729671D01*
X128262460Y-117738245D01*
X128237095Y-117759297D01*
X128219695Y-117767723D01*
X128206071Y-117760530D01*
X128180743Y-117738944D01*
X128150379Y-117707995D01*
X128131896Y-117688448D01*
X128097427Y-117652752D01*
X128048712Y-117602684D01*
X127987469Y-117540001D01*
X127915420Y-117466457D01*
X127834285Y-117383810D01*
X127745784Y-117293815D01*
X127651637Y-117198228D01*
X127553565Y-117098805D01*
X127011161Y-116549343D01*
X126989066Y-116834746D01*
X126984250Y-116895662D01*
X126977216Y-116977548D01*
X126970872Y-117039569D01*
X126964748Y-117084987D01*
X126958373Y-117117062D01*
X126951277Y-117139052D01*
X126942991Y-117154219D01*
X126931393Y-117175416D01*
X126921850Y-117214386D01*
X126919010Y-117270531D01*
X126919010Y-117352773D01*
X126692674Y-117352773D01*
X126692674Y-117176733D01*
X125847082Y-117176733D01*
X125798203Y-117232262D01*
X125784836Y-117246722D01*
X125712388Y-117304813D01*
X125630532Y-117340576D01*
X125541900Y-117352773D01*
X125463692Y-117346306D01*
X125375233Y-117319047D01*
X125299507Y-117270328D01*
X125284748Y-117256403D01*
X125247864Y-117211328D01*
X125215503Y-117158819D01*
X125192297Y-117107061D01*
X125182879Y-117064239D01*
X125182697Y-117058023D01*
X125181342Y-117035246D01*
X125177800Y-117019513D01*
X125170390Y-117012068D01*
X125157431Y-117014156D01*
X125137243Y-117027020D01*
X125108145Y-117051905D01*
X125068456Y-117090053D01*
X125016496Y-117142710D01*
X124950584Y-117211119D01*
X124869040Y-117296524D01*
X124825604Y-117342112D01*
X124753000Y-117418441D01*
X124684309Y-117490808D01*
X124622223Y-117556366D01*
X124569434Y-117612274D01*
X124528634Y-117655686D01*
X124502515Y-117683758D01*
X124431119Y-117761436D01*
X124342863Y-117673416D01*
X124888690Y-117101287D01*
X124923105Y-117065188D01*
X125045546Y-116936272D01*
X125150651Y-116824754D01*
X125238736Y-116730288D01*
X125310116Y-116652529D01*
X125360588Y-116596174D01*
X125567247Y-116596174D01*
X125568872Y-116609434D01*
X125569156Y-116610819D01*
X125582698Y-116642228D01*
X125609748Y-116656863D01*
X125693129Y-116688063D01*
X125767418Y-116740038D01*
X125825846Y-116808791D01*
X125865890Y-116891315D01*
X125885026Y-116984606D01*
X125891364Y-117063565D01*
X126840838Y-117063565D01*
X126847458Y-117035273D01*
X126848629Y-117028329D01*
X126852268Y-116997281D01*
X126857234Y-116947081D01*
X126863157Y-116881727D01*
X126869669Y-116805219D01*
X126876401Y-116721555D01*
X126898724Y-116436129D01*
X126597826Y-116130565D01*
X126542636Y-116074704D01*
X126475109Y-116006888D01*
X126414529Y-115946643D01*
X126363021Y-115896052D01*
X126322710Y-115857200D01*
X126295722Y-115832170D01*
X126284182Y-115823046D01*
X126276444Y-115827405D01*
X126253395Y-115847241D01*
X126218709Y-115880375D01*
X126175487Y-115923820D01*
X126126832Y-115974587D01*
X126114140Y-115988051D01*
X126057229Y-116048275D01*
X125989414Y-116119864D01*
X125915800Y-116197437D01*
X125841493Y-116275611D01*
X125771599Y-116349005D01*
X125767401Y-116353409D01*
X125702420Y-116421785D01*
X125652836Y-116474732D01*
X125616688Y-116514767D01*
X125592016Y-116544411D01*
X125576858Y-116566181D01*
X125569256Y-116582595D01*
X125567247Y-116596174D01*
X125360588Y-116596174D01*
X125365105Y-116591131D01*
X125404019Y-116545748D01*
X125427173Y-116516035D01*
X125434882Y-116501644D01*
X125434883Y-116501559D01*
X125433825Y-116483624D01*
X125430737Y-116443421D01*
X125425858Y-116383687D01*
X125419432Y-116307158D01*
X125411700Y-116216569D01*
X125402905Y-116114657D01*
X125393287Y-116004159D01*
X125383091Y-115887811D01*
X125372556Y-115768348D01*
X125361926Y-115648507D01*
X125351442Y-115531025D01*
X125341346Y-115418637D01*
X125331881Y-115314081D01*
X125323288Y-115220091D01*
X125315809Y-115139405D01*
X125309687Y-115074759D01*
X125305162Y-115028888D01*
X125302478Y-115004530D01*
X125297067Y-114963732D01*
X125426253Y-114963732D01*
X125427908Y-114994653D01*
X125431549Y-115046653D01*
X125436995Y-115117487D01*
X125444063Y-115204911D01*
X125452570Y-115306681D01*
X125462335Y-115420552D01*
X125473174Y-115544279D01*
X125484907Y-115675618D01*
X125494079Y-115776908D01*
X125505566Y-115902526D01*
X125516322Y-116018762D01*
X125526131Y-116123380D01*
X125534781Y-116214140D01*
X125542057Y-116288804D01*
X125547746Y-116345134D01*
X125551634Y-116380891D01*
X125553506Y-116393837D01*
X125559188Y-116389826D01*
X125580020Y-116370138D01*
X125613872Y-116336322D01*
X125658412Y-116290837D01*
X125711310Y-116236146D01*
X125770236Y-116174710D01*
X125832858Y-116108990D01*
X125896848Y-116041449D01*
X125959874Y-115974547D01*
X126019606Y-115910746D01*
X126073713Y-115852507D01*
X126119865Y-115802292D01*
X126155733Y-115762563D01*
X126178984Y-115735780D01*
X126185778Y-115726477D01*
X126367601Y-115726477D01*
X126643305Y-116001968D01*
X126710726Y-116069224D01*
X126774267Y-116132162D01*
X126823490Y-116180100D01*
X126860196Y-116214594D01*
X126886190Y-116237199D01*
X126903276Y-116249471D01*
X126913256Y-116252966D01*
X126917935Y-116249238D01*
X126919116Y-116239844D01*
X126919873Y-116224749D01*
X126922601Y-116185883D01*
X126927108Y-116126895D01*
X126933179Y-116050473D01*
X126940596Y-115959305D01*
X126949142Y-115856080D01*
X126958602Y-115743483D01*
X126968758Y-115624205D01*
X126977723Y-115519077D01*
X126987066Y-115408351D01*
X126995443Y-115307814D01*
X127002653Y-115219943D01*
X127008496Y-115147215D01*
X127012769Y-115092110D01*
X127015273Y-115057104D01*
X127015805Y-115044674D01*
X127015384Y-115044908D01*
X127003509Y-115056350D01*
X126977130Y-115083198D01*
X126938570Y-115123018D01*
X126890153Y-115173372D01*
X126834203Y-115231828D01*
X126773042Y-115295948D01*
X126708995Y-115363298D01*
X126644385Y-115431443D01*
X126581535Y-115497948D01*
X126522768Y-115560377D01*
X126470409Y-115616295D01*
X126369533Y-115724406D01*
X126367601Y-115726477D01*
X126185778Y-115726477D01*
X126187290Y-115724406D01*
X126179148Y-115713383D01*
X126155478Y-115686999D01*
X126118478Y-115647527D01*
X126070350Y-115597191D01*
X126013296Y-115538217D01*
X125949520Y-115472830D01*
X125881222Y-115403255D01*
X125810605Y-115331716D01*
X125739871Y-115260438D01*
X125671222Y-115191647D01*
X125606861Y-115127566D01*
X125548989Y-115070422D01*
X125499810Y-115022439D01*
X125461524Y-114985841D01*
X125436334Y-114962854D01*
X125426442Y-114955703D01*
X125426253Y-114963732D01*
X125297067Y-114963732D01*
X125295390Y-114951089D01*
X125020297Y-114951089D01*
X125020140Y-114850495D01*
X125120891Y-114850495D01*
X125202624Y-114850495D01*
X125209895Y-114850489D01*
X125250950Y-114849613D01*
X125273277Y-114845867D01*
X125282529Y-114837270D01*
X125284357Y-114821840D01*
X125276306Y-114799159D01*
X125248730Y-114761428D01*
X125202624Y-114712179D01*
X125120891Y-114631172D01*
X125120891Y-114850495D01*
X125020140Y-114850495D01*
X125019968Y-114740471D01*
X125019639Y-114529852D01*
X124567914Y-114070891D01*
X124116189Y-113611931D01*
X124115570Y-113524848D01*
X124114951Y-113437767D01*
X124656769Y-113986952D01*
X124709137Y-114039998D01*
X124817803Y-114149772D01*
X124910709Y-114243114D01*
X124989055Y-114321173D01*
X125054043Y-114385097D01*
X125106872Y-114436035D01*
X125148743Y-114475135D01*
X125180855Y-114503548D01*
X125204410Y-114522420D01*
X125220608Y-114532901D01*
X125230649Y-114536139D01*
X125247579Y-114535158D01*
X125257084Y-114527996D01*
X125258723Y-114508401D01*
X125254782Y-114470124D01*
X125252065Y-114446025D01*
X125248284Y-114405744D01*
X125246760Y-114378961D01*
X125246015Y-114369728D01*
X125238746Y-114359839D01*
X125218668Y-114356562D01*
X125179689Y-114357992D01*
X125169737Y-114358553D01*
X125129898Y-114357921D01*
X125101560Y-114349167D01*
X125081586Y-114334951D01*
X125364852Y-114334951D01*
X125369013Y-114382104D01*
X125370935Y-114403498D01*
X125376924Y-114461909D01*
X125382826Y-114500381D01*
X125389727Y-114522912D01*
X125398712Y-114533498D01*
X125410870Y-114536139D01*
X125421801Y-114537937D01*
X125429050Y-114546530D01*
X125433100Y-114566505D01*
X125434863Y-114602450D01*
X125435248Y-114658952D01*
X125435248Y-114781766D01*
X125475447Y-114821840D01*
X125573565Y-114919654D01*
X125711881Y-115057542D01*
X125711881Y-114951089D01*
X126466337Y-114951089D01*
X126466337Y-115190000D01*
X125847831Y-115190000D01*
X126057592Y-115406906D01*
X126097770Y-115448334D01*
X126153328Y-115505200D01*
X126201570Y-115554082D01*
X126239971Y-115592441D01*
X126266003Y-115617741D01*
X126277140Y-115627442D01*
X126281373Y-115624767D01*
X126301224Y-115606782D01*
X126335451Y-115573481D01*
X126382227Y-115526712D01*
X126439724Y-115468325D01*
X126506112Y-115400169D01*
X126579564Y-115324094D01*
X126658251Y-115241950D01*
X126737341Y-115158943D01*
X126814871Y-115077136D01*
X126877746Y-115010083D01*
X126927502Y-114956007D01*
X126965678Y-114913129D01*
X126993811Y-114879673D01*
X127013440Y-114853861D01*
X127026101Y-114833914D01*
X127033334Y-114818056D01*
X127036675Y-114804509D01*
X127037561Y-114797910D01*
X127041488Y-114761548D01*
X127046459Y-114708018D01*
X127051927Y-114643421D01*
X127057344Y-114573862D01*
X127059181Y-114549635D01*
X127064488Y-114484178D01*
X127069548Y-114427717D01*
X127073863Y-114385618D01*
X127076934Y-114363243D01*
X127082955Y-114334951D01*
X125364852Y-114334951D01*
X125081586Y-114334951D01*
X125073630Y-114329289D01*
X125068820Y-114325104D01*
X125029482Y-114274427D01*
X125013903Y-114221782D01*
X125354698Y-114221782D01*
X126769221Y-114221782D01*
X126981881Y-114221782D01*
X127038908Y-114221782D01*
X127055993Y-114221662D01*
X127081308Y-114219462D01*
X127088616Y-114212334D01*
X127082943Y-114197508D01*
X127081267Y-114194682D01*
X127062448Y-114172944D01*
X127035183Y-114148820D01*
X127007987Y-114129254D01*
X126989371Y-114121188D01*
X126987697Y-114122463D01*
X126983544Y-114139976D01*
X126981881Y-114171485D01*
X126981881Y-114221782D01*
X126769221Y-114221782D01*
X126765526Y-114131095D01*
X126761832Y-114040407D01*
X126686386Y-114025252D01*
X126648551Y-114018379D01*
X126585368Y-114008756D01*
X126526065Y-114001496D01*
X126441188Y-113992893D01*
X126441188Y-114096040D01*
X125862773Y-114096040D01*
X125862773Y-114005122D01*
X125790471Y-114013753D01*
X125679998Y-114032249D01*
X125568816Y-114065691D01*
X125476850Y-114112324D01*
X125402542Y-114172786D01*
X125354698Y-114221782D01*
X125013903Y-114221782D01*
X125012172Y-114215934D01*
X125017474Y-114154575D01*
X125045975Y-114095297D01*
X125048733Y-114091606D01*
X125086822Y-114059851D01*
X125136476Y-114041067D01*
X125190002Y-114036071D01*
X125239707Y-114045678D01*
X125277900Y-114070704D01*
X125290831Y-114083480D01*
X125303428Y-114086576D01*
X125321467Y-114076998D01*
X125351928Y-114053082D01*
X125361274Y-114045731D01*
X125433430Y-113999339D01*
X125518915Y-113958084D01*
X125588830Y-113932575D01*
X125963367Y-113932575D01*
X125963367Y-113995446D01*
X126340594Y-113995446D01*
X126340594Y-113932575D01*
X125963367Y-113932575D01*
X125588830Y-113932575D01*
X125609767Y-113924936D01*
X125698027Y-113902868D01*
X125775736Y-113894852D01*
X125783991Y-113894788D01*
X125829879Y-113890321D01*
X125855079Y-113877795D01*
X125862773Y-113855784D01*
X125863676Y-113848849D01*
X125868615Y-113842885D01*
X125880611Y-113838519D01*
X125902680Y-113835503D01*
X125937836Y-113833590D01*
X125989094Y-113832530D01*
X126059471Y-113832077D01*
X126151980Y-113831980D01*
X126238660Y-113832150D01*
X126312332Y-113832834D01*
X126366265Y-113834215D01*
X126403288Y-113836470D01*
X126426230Y-113839778D01*
X126437920Y-113844320D01*
X126441188Y-113850272D01*
X126451937Y-113864888D01*
X126482055Y-113874215D01*
X126493582Y-113875847D01*
X126532886Y-113881591D01*
X126585188Y-113889378D01*
X126642376Y-113898003D01*
X126673916Y-113902393D01*
X126720074Y-113907148D01*
X126752641Y-113908295D01*
X126766023Y-113905495D01*
X126768308Y-113903671D01*
X126789405Y-113899165D01*
X126827355Y-113896029D01*
X126876048Y-113894852D01*
X126981881Y-113894852D01*
X126981894Y-113932575D01*
X126981894Y-113935718D01*
X126982388Y-113948668D01*
X126988819Y-113970411D01*
X127007123Y-113988851D01*
X127042830Y-114010801D01*
X127074174Y-114030854D01*
X127121893Y-114069356D01*
X127165138Y-114112579D01*
X127198219Y-114154627D01*
X127215442Y-114189604D01*
X127219662Y-114203081D01*
X127227480Y-114212334D01*
X127230116Y-114215454D01*
X127251662Y-114220696D01*
G36*
X128012971Y-119477822D02*
G01*
X124492178Y-119477822D01*
X124492178Y-118610198D01*
X128012971Y-118610198D01*
X128012971Y-119477822D01*
G37*
X128012971Y-119477822D02*
X124492178Y-119477822D01*
X124492178Y-118610198D01*
X128012971Y-118610198D01*
X128012971Y-119477822D01*
%TD*%
M02*
