%TF.GenerationSoftware,KiCad,Pcbnew,6.0.11+dfsg-1~bpo11+1*%
%TF.CreationDate,2023-07-05T16:37:14+02:00*%
%TF.ProjectId,aout4rib21,616f7574-3472-4696-9232-312e6b696361,1.1*%
%TF.SameCoordinates,Original*%
%TF.FileFunction,Legend,Top*%
%TF.FilePolarity,Positive*%
%FSLAX46Y46*%
G04 Gerber Fmt 4.6, Leading zero omitted, Abs format (unit mm)*
G04 Created by KiCad (PCBNEW 6.0.11+dfsg-1~bpo11+1) date 2023-07-05 16:37:14*
%MOMM*%
%LPD*%
G01*
G04 APERTURE LIST*
%ADD10C,0.110000*%
%ADD11C,0.080000*%
%ADD12C,0.200000*%
%ADD13C,0.120000*%
%ADD14C,0.150000*%
G04 APERTURE END LIST*
D10*
X165516666Y-115050000D02*
X165450000Y-115016666D01*
X165350000Y-115016666D01*
X165250000Y-115050000D01*
X165183333Y-115116666D01*
X165150000Y-115183333D01*
X165116666Y-115316666D01*
X165116666Y-115416666D01*
X165150000Y-115550000D01*
X165183333Y-115616666D01*
X165250000Y-115683333D01*
X165350000Y-115716666D01*
X165416666Y-115716666D01*
X165516666Y-115683333D01*
X165550000Y-115650000D01*
X165550000Y-115416666D01*
X165416666Y-115416666D01*
X165850000Y-115716666D02*
X165850000Y-115016666D01*
X166250000Y-115716666D01*
X166250000Y-115016666D01*
X166583333Y-115716666D02*
X166583333Y-115016666D01*
X166750000Y-115016666D01*
X166850000Y-115050000D01*
X166916666Y-115116666D01*
X166950000Y-115183333D01*
X166983333Y-115316666D01*
X166983333Y-115416666D01*
X166950000Y-115550000D01*
X166916666Y-115616666D01*
X166850000Y-115683333D01*
X166750000Y-115716666D01*
X166583333Y-115716666D01*
X167283333Y-115716666D02*
X167283333Y-115016666D01*
X167450000Y-115016666D01*
X167550000Y-115050000D01*
X167616666Y-115116666D01*
X167650000Y-115183333D01*
X167683333Y-115316666D01*
X167683333Y-115416666D01*
X167650000Y-115550000D01*
X167616666Y-115616666D01*
X167550000Y-115683333D01*
X167450000Y-115716666D01*
X167283333Y-115716666D01*
X165516666Y-88050000D02*
X165450000Y-88016666D01*
X165350000Y-88016666D01*
X165250000Y-88050000D01*
X165183333Y-88116666D01*
X165150000Y-88183333D01*
X165116666Y-88316666D01*
X165116666Y-88416666D01*
X165150000Y-88550000D01*
X165183333Y-88616666D01*
X165250000Y-88683333D01*
X165350000Y-88716666D01*
X165416666Y-88716666D01*
X165516666Y-88683333D01*
X165550000Y-88650000D01*
X165550000Y-88416666D01*
X165416666Y-88416666D01*
X165850000Y-88716666D02*
X165850000Y-88016666D01*
X166250000Y-88716666D01*
X166250000Y-88016666D01*
X166583333Y-88716666D02*
X166583333Y-88016666D01*
X166750000Y-88016666D01*
X166850000Y-88050000D01*
X166916666Y-88116666D01*
X166950000Y-88183333D01*
X166983333Y-88316666D01*
X166983333Y-88416666D01*
X166950000Y-88550000D01*
X166916666Y-88616666D01*
X166850000Y-88683333D01*
X166750000Y-88716666D01*
X166583333Y-88716666D01*
X167283333Y-88716666D02*
X167283333Y-88016666D01*
X167450000Y-88016666D01*
X167550000Y-88050000D01*
X167616666Y-88116666D01*
X167650000Y-88183333D01*
X167683333Y-88316666D01*
X167683333Y-88416666D01*
X167650000Y-88550000D01*
X167616666Y-88616666D01*
X167550000Y-88683333D01*
X167450000Y-88716666D01*
X167283333Y-88716666D01*
X165133333Y-113183333D02*
X165233333Y-113216666D01*
X165400000Y-113216666D01*
X165466666Y-113183333D01*
X165500000Y-113150000D01*
X165533333Y-113083333D01*
X165533333Y-113016666D01*
X165500000Y-112950000D01*
X165466666Y-112916666D01*
X165400000Y-112883333D01*
X165266666Y-112850000D01*
X165200000Y-112816666D01*
X165166666Y-112783333D01*
X165133333Y-112716666D01*
X165133333Y-112650000D01*
X165166666Y-112583333D01*
X165200000Y-112550000D01*
X165266666Y-112516666D01*
X165433333Y-112516666D01*
X165533333Y-112550000D01*
X166233333Y-113150000D02*
X166200000Y-113183333D01*
X166100000Y-113216666D01*
X166033333Y-113216666D01*
X165933333Y-113183333D01*
X165866666Y-113116666D01*
X165833333Y-113050000D01*
X165800000Y-112916666D01*
X165800000Y-112816666D01*
X165833333Y-112683333D01*
X165866666Y-112616666D01*
X165933333Y-112550000D01*
X166033333Y-112516666D01*
X166100000Y-112516666D01*
X166200000Y-112550000D01*
X166233333Y-112583333D01*
X166866666Y-113216666D02*
X166533333Y-113216666D01*
X166533333Y-112516666D01*
X167466666Y-113216666D02*
X167066666Y-113216666D01*
X167266666Y-113216666D02*
X167266666Y-112516666D01*
X167200000Y-112616666D01*
X167133333Y-112683333D01*
X167066666Y-112716666D01*
X124933333Y-98550000D02*
X125466666Y-98550000D01*
X125200000Y-98816666D02*
X125200000Y-98283333D01*
X125700000Y-98116666D02*
X125933333Y-98816666D01*
X126166666Y-98116666D01*
X123566666Y-104816666D02*
X123800000Y-105516666D01*
X124033333Y-104816666D01*
X124400000Y-104816666D02*
X124533333Y-104816666D01*
X124600000Y-104850000D01*
X124666666Y-104916666D01*
X124700000Y-105050000D01*
X124700000Y-105283333D01*
X124666666Y-105416666D01*
X124600000Y-105483333D01*
X124533333Y-105516666D01*
X124400000Y-105516666D01*
X124333333Y-105483333D01*
X124266666Y-105416666D01*
X124233333Y-105283333D01*
X124233333Y-105050000D01*
X124266666Y-104916666D01*
X124333333Y-104850000D01*
X124400000Y-104816666D01*
X125000000Y-105516666D02*
X125000000Y-104816666D01*
X125233333Y-105316666D01*
X125466666Y-104816666D01*
X125466666Y-105516666D01*
X125733333Y-104816666D02*
X126166666Y-104816666D01*
X125933333Y-105083333D01*
X126033333Y-105083333D01*
X126100000Y-105116666D01*
X126133333Y-105150000D01*
X126166666Y-105216666D01*
X126166666Y-105383333D01*
X126133333Y-105450000D01*
X126100000Y-105483333D01*
X126033333Y-105516666D01*
X125833333Y-105516666D01*
X125766666Y-105483333D01*
X125733333Y-105450000D01*
X124016666Y-90450000D02*
X123950000Y-90416666D01*
X123850000Y-90416666D01*
X123750000Y-90450000D01*
X123683333Y-90516666D01*
X123650000Y-90583333D01*
X123616666Y-90716666D01*
X123616666Y-90816666D01*
X123650000Y-90950000D01*
X123683333Y-91016666D01*
X123750000Y-91083333D01*
X123850000Y-91116666D01*
X123916666Y-91116666D01*
X124016666Y-91083333D01*
X124050000Y-91050000D01*
X124050000Y-90816666D01*
X123916666Y-90816666D01*
X124350000Y-91116666D02*
X124350000Y-90416666D01*
X124750000Y-91116666D01*
X124750000Y-90416666D01*
X125083333Y-91116666D02*
X125083333Y-90416666D01*
X125250000Y-90416666D01*
X125350000Y-90450000D01*
X125416666Y-90516666D01*
X125450000Y-90583333D01*
X125483333Y-90716666D01*
X125483333Y-90816666D01*
X125450000Y-90950000D01*
X125416666Y-91016666D01*
X125350000Y-91083333D01*
X125250000Y-91116666D01*
X125083333Y-91116666D01*
X125783333Y-91116666D02*
X125783333Y-90416666D01*
X125950000Y-90416666D01*
X126050000Y-90450000D01*
X126116666Y-90516666D01*
X126150000Y-90583333D01*
X126183333Y-90716666D01*
X126183333Y-90816666D01*
X126150000Y-90950000D01*
X126116666Y-91016666D01*
X126050000Y-91083333D01*
X125950000Y-91116666D01*
X125783333Y-91116666D01*
X124016666Y-100750000D02*
X123950000Y-100716666D01*
X123850000Y-100716666D01*
X123750000Y-100750000D01*
X123683333Y-100816666D01*
X123650000Y-100883333D01*
X123616666Y-101016666D01*
X123616666Y-101116666D01*
X123650000Y-101250000D01*
X123683333Y-101316666D01*
X123750000Y-101383333D01*
X123850000Y-101416666D01*
X123916666Y-101416666D01*
X124016666Y-101383333D01*
X124050000Y-101350000D01*
X124050000Y-101116666D01*
X123916666Y-101116666D01*
X124350000Y-101416666D02*
X124350000Y-100716666D01*
X124750000Y-101416666D01*
X124750000Y-100716666D01*
X125083333Y-101416666D02*
X125083333Y-100716666D01*
X125250000Y-100716666D01*
X125350000Y-100750000D01*
X125416666Y-100816666D01*
X125450000Y-100883333D01*
X125483333Y-101016666D01*
X125483333Y-101116666D01*
X125450000Y-101250000D01*
X125416666Y-101316666D01*
X125350000Y-101383333D01*
X125250000Y-101416666D01*
X125083333Y-101416666D01*
X125783333Y-101416666D02*
X125783333Y-100716666D01*
X125950000Y-100716666D01*
X126050000Y-100750000D01*
X126116666Y-100816666D01*
X126150000Y-100883333D01*
X126183333Y-101016666D01*
X126183333Y-101116666D01*
X126150000Y-101250000D01*
X126116666Y-101316666D01*
X126050000Y-101383333D01*
X125950000Y-101416666D01*
X125783333Y-101416666D01*
D11*
X136692380Y-105160952D02*
X136463809Y-105160952D01*
X136578095Y-105160952D02*
X136578095Y-104760952D01*
X136540000Y-104818095D01*
X136501904Y-104856190D01*
X136463809Y-104875238D01*
X136844761Y-104799047D02*
X136863809Y-104780000D01*
X136901904Y-104760952D01*
X136997142Y-104760952D01*
X137035238Y-104780000D01*
X137054285Y-104799047D01*
X137073333Y-104837142D01*
X137073333Y-104875238D01*
X137054285Y-104932380D01*
X136825714Y-105160952D01*
X137073333Y-105160952D01*
X137187619Y-104760952D02*
X137320952Y-105160952D01*
X137454285Y-104760952D01*
D10*
X123833333Y-110483333D02*
X123933333Y-110516666D01*
X124100000Y-110516666D01*
X124166666Y-110483333D01*
X124200000Y-110450000D01*
X124233333Y-110383333D01*
X124233333Y-110316666D01*
X124200000Y-110250000D01*
X124166666Y-110216666D01*
X124100000Y-110183333D01*
X123966666Y-110150000D01*
X123900000Y-110116666D01*
X123866666Y-110083333D01*
X123833333Y-110016666D01*
X123833333Y-109950000D01*
X123866666Y-109883333D01*
X123900000Y-109850000D01*
X123966666Y-109816666D01*
X124133333Y-109816666D01*
X124233333Y-109850000D01*
X124933333Y-110450000D02*
X124900000Y-110483333D01*
X124800000Y-110516666D01*
X124733333Y-110516666D01*
X124633333Y-110483333D01*
X124566666Y-110416666D01*
X124533333Y-110350000D01*
X124500000Y-110216666D01*
X124500000Y-110116666D01*
X124533333Y-109983333D01*
X124566666Y-109916666D01*
X124633333Y-109850000D01*
X124733333Y-109816666D01*
X124800000Y-109816666D01*
X124900000Y-109850000D01*
X124933333Y-109883333D01*
X125566666Y-110516666D02*
X125233333Y-110516666D01*
X125233333Y-109816666D01*
X126166666Y-110516666D02*
X125766666Y-110516666D01*
X125966666Y-110516666D02*
X125966666Y-109816666D01*
X125900000Y-109916666D01*
X125833333Y-109983333D01*
X125766666Y-110016666D01*
D11*
X132345238Y-104830000D02*
X132307142Y-104810952D01*
X132250000Y-104810952D01*
X132192857Y-104830000D01*
X132154761Y-104868095D01*
X132135714Y-104906190D01*
X132116666Y-104982380D01*
X132116666Y-105039523D01*
X132135714Y-105115714D01*
X132154761Y-105153809D01*
X132192857Y-105191904D01*
X132250000Y-105210952D01*
X132288095Y-105210952D01*
X132345238Y-105191904D01*
X132364285Y-105172857D01*
X132364285Y-105039523D01*
X132288095Y-105039523D01*
X132535714Y-105210952D02*
X132535714Y-104810952D01*
X132764285Y-105210952D01*
X132764285Y-104810952D01*
X132954761Y-105210952D02*
X132954761Y-104810952D01*
X133050000Y-104810952D01*
X133107142Y-104830000D01*
X133145238Y-104868095D01*
X133164285Y-104906190D01*
X133183333Y-104982380D01*
X133183333Y-105039523D01*
X133164285Y-105115714D01*
X133145238Y-105153809D01*
X133107142Y-105191904D01*
X133050000Y-105210952D01*
X132954761Y-105210952D01*
X133354761Y-105210952D02*
X133354761Y-104810952D01*
X133450000Y-104810952D01*
X133507142Y-104830000D01*
X133545238Y-104868095D01*
X133564285Y-104906190D01*
X133583333Y-104982380D01*
X133583333Y-105039523D01*
X133564285Y-105115714D01*
X133545238Y-105153809D01*
X133507142Y-105191904D01*
X133450000Y-105210952D01*
X133354761Y-105210952D01*
D12*
X132414285Y-90942857D02*
X132414285Y-90314285D01*
X132357142Y-90200000D01*
X132242857Y-90142857D01*
X132014285Y-90142857D01*
X131900000Y-90200000D01*
X132414285Y-90885714D02*
X132300000Y-90942857D01*
X132014285Y-90942857D01*
X131900000Y-90885714D01*
X131842857Y-90771428D01*
X131842857Y-90657142D01*
X131900000Y-90542857D01*
X132014285Y-90485714D01*
X132300000Y-90485714D01*
X132414285Y-90428571D01*
X133157142Y-90942857D02*
X133042857Y-90885714D01*
X132985714Y-90828571D01*
X132928571Y-90714285D01*
X132928571Y-90371428D01*
X132985714Y-90257142D01*
X133042857Y-90200000D01*
X133157142Y-90142857D01*
X133328571Y-90142857D01*
X133442857Y-90200000D01*
X133500000Y-90257142D01*
X133557142Y-90371428D01*
X133557142Y-90714285D01*
X133500000Y-90828571D01*
X133442857Y-90885714D01*
X133328571Y-90942857D01*
X133157142Y-90942857D01*
X134585714Y-90142857D02*
X134585714Y-90942857D01*
X134071428Y-90142857D02*
X134071428Y-90771428D01*
X134128571Y-90885714D01*
X134242857Y-90942857D01*
X134414285Y-90942857D01*
X134528571Y-90885714D01*
X134585714Y-90828571D01*
X134985714Y-90142857D02*
X135442857Y-90142857D01*
X135157142Y-89742857D02*
X135157142Y-90771428D01*
X135214285Y-90885714D01*
X135328571Y-90942857D01*
X135442857Y-90942857D01*
X135842857Y-90485714D02*
X136757142Y-90485714D01*
X137842857Y-90142857D02*
X137842857Y-90942857D01*
X137557142Y-89685714D02*
X137271428Y-90542857D01*
X138014285Y-90542857D01*
D10*
X123833333Y-93583333D02*
X123933333Y-93616666D01*
X124100000Y-93616666D01*
X124166666Y-93583333D01*
X124200000Y-93550000D01*
X124233333Y-93483333D01*
X124233333Y-93416666D01*
X124200000Y-93350000D01*
X124166666Y-93316666D01*
X124100000Y-93283333D01*
X123966666Y-93250000D01*
X123900000Y-93216666D01*
X123866666Y-93183333D01*
X123833333Y-93116666D01*
X123833333Y-93050000D01*
X123866666Y-92983333D01*
X123900000Y-92950000D01*
X123966666Y-92916666D01*
X124133333Y-92916666D01*
X124233333Y-92950000D01*
X124933333Y-93550000D02*
X124900000Y-93583333D01*
X124800000Y-93616666D01*
X124733333Y-93616666D01*
X124633333Y-93583333D01*
X124566666Y-93516666D01*
X124533333Y-93450000D01*
X124500000Y-93316666D01*
X124500000Y-93216666D01*
X124533333Y-93083333D01*
X124566666Y-93016666D01*
X124633333Y-92950000D01*
X124733333Y-92916666D01*
X124800000Y-92916666D01*
X124900000Y-92950000D01*
X124933333Y-92983333D01*
X125566666Y-93616666D02*
X125233333Y-93616666D01*
X125233333Y-92916666D01*
X125933333Y-92916666D02*
X126000000Y-92916666D01*
X126066666Y-92950000D01*
X126100000Y-92983333D01*
X126133333Y-93050000D01*
X126166666Y-93183333D01*
X126166666Y-93350000D01*
X126133333Y-93483333D01*
X126100000Y-93550000D01*
X126066666Y-93583333D01*
X126000000Y-93616666D01*
X125933333Y-93616666D01*
X125866666Y-93583333D01*
X125833333Y-93550000D01*
X125800000Y-93483333D01*
X125766666Y-93350000D01*
X125766666Y-93183333D01*
X125800000Y-93050000D01*
X125833333Y-92983333D01*
X125866666Y-92950000D01*
X125933333Y-92916666D01*
X124016666Y-107450000D02*
X123950000Y-107416666D01*
X123850000Y-107416666D01*
X123750000Y-107450000D01*
X123683333Y-107516666D01*
X123650000Y-107583333D01*
X123616666Y-107716666D01*
X123616666Y-107816666D01*
X123650000Y-107950000D01*
X123683333Y-108016666D01*
X123750000Y-108083333D01*
X123850000Y-108116666D01*
X123916666Y-108116666D01*
X124016666Y-108083333D01*
X124050000Y-108050000D01*
X124050000Y-107816666D01*
X123916666Y-107816666D01*
X124350000Y-108116666D02*
X124350000Y-107416666D01*
X124750000Y-108116666D01*
X124750000Y-107416666D01*
X125083333Y-108116666D02*
X125083333Y-107416666D01*
X125250000Y-107416666D01*
X125350000Y-107450000D01*
X125416666Y-107516666D01*
X125450000Y-107583333D01*
X125483333Y-107716666D01*
X125483333Y-107816666D01*
X125450000Y-107950000D01*
X125416666Y-108016666D01*
X125350000Y-108083333D01*
X125250000Y-108116666D01*
X125083333Y-108116666D01*
X125783333Y-108116666D02*
X125783333Y-107416666D01*
X125950000Y-107416666D01*
X126050000Y-107450000D01*
X126116666Y-107516666D01*
X126150000Y-107583333D01*
X126183333Y-107716666D01*
X126183333Y-107816666D01*
X126150000Y-107950000D01*
X126116666Y-108016666D01*
X126050000Y-108083333D01*
X125950000Y-108116666D01*
X125783333Y-108116666D01*
X165116666Y-110583333D02*
X165216666Y-110616666D01*
X165383333Y-110616666D01*
X165450000Y-110583333D01*
X165483333Y-110550000D01*
X165516666Y-110483333D01*
X165516666Y-110416666D01*
X165483333Y-110350000D01*
X165450000Y-110316666D01*
X165383333Y-110283333D01*
X165250000Y-110250000D01*
X165183333Y-110216666D01*
X165150000Y-110183333D01*
X165116666Y-110116666D01*
X165116666Y-110050000D01*
X165150000Y-109983333D01*
X165183333Y-109950000D01*
X165250000Y-109916666D01*
X165416666Y-109916666D01*
X165516666Y-109950000D01*
X165816666Y-110616666D02*
X165816666Y-109916666D01*
X165983333Y-109916666D01*
X166083333Y-109950000D01*
X166150000Y-110016666D01*
X166183333Y-110083333D01*
X166216666Y-110216666D01*
X166216666Y-110316666D01*
X166183333Y-110450000D01*
X166150000Y-110516666D01*
X166083333Y-110583333D01*
X165983333Y-110616666D01*
X165816666Y-110616666D01*
X166483333Y-110416666D02*
X166816666Y-110416666D01*
X166416666Y-110616666D02*
X166650000Y-109916666D01*
X166883333Y-110616666D01*
X167483333Y-110616666D02*
X167083333Y-110616666D01*
X167283333Y-110616666D02*
X167283333Y-109916666D01*
X167216666Y-110016666D01*
X167150000Y-110083333D01*
X167083333Y-110116666D01*
X123816666Y-113083333D02*
X123916666Y-113116666D01*
X124083333Y-113116666D01*
X124150000Y-113083333D01*
X124183333Y-113050000D01*
X124216666Y-112983333D01*
X124216666Y-112916666D01*
X124183333Y-112850000D01*
X124150000Y-112816666D01*
X124083333Y-112783333D01*
X123950000Y-112750000D01*
X123883333Y-112716666D01*
X123850000Y-112683333D01*
X123816666Y-112616666D01*
X123816666Y-112550000D01*
X123850000Y-112483333D01*
X123883333Y-112450000D01*
X123950000Y-112416666D01*
X124116666Y-112416666D01*
X124216666Y-112450000D01*
X124516666Y-113116666D02*
X124516666Y-112416666D01*
X124683333Y-112416666D01*
X124783333Y-112450000D01*
X124850000Y-112516666D01*
X124883333Y-112583333D01*
X124916666Y-112716666D01*
X124916666Y-112816666D01*
X124883333Y-112950000D01*
X124850000Y-113016666D01*
X124783333Y-113083333D01*
X124683333Y-113116666D01*
X124516666Y-113116666D01*
X125183333Y-112916666D02*
X125516666Y-112916666D01*
X125116666Y-113116666D02*
X125350000Y-112416666D01*
X125583333Y-113116666D01*
X126183333Y-113116666D02*
X125783333Y-113116666D01*
X125983333Y-113116666D02*
X125983333Y-112416666D01*
X125916666Y-112516666D01*
X125850000Y-112583333D01*
X125783333Y-112616666D01*
D11*
X135023809Y-104810952D02*
X134833333Y-104810952D01*
X134814285Y-105001428D01*
X134833333Y-104982380D01*
X134871428Y-104963333D01*
X134966666Y-104963333D01*
X135004761Y-104982380D01*
X135023809Y-105001428D01*
X135042857Y-105039523D01*
X135042857Y-105134761D01*
X135023809Y-105172857D01*
X135004761Y-105191904D01*
X134966666Y-105210952D01*
X134871428Y-105210952D01*
X134833333Y-105191904D01*
X134814285Y-105172857D01*
X135157142Y-104810952D02*
X135290476Y-105210952D01*
X135423809Y-104810952D01*
D10*
X124016666Y-117650000D02*
X123950000Y-117616666D01*
X123850000Y-117616666D01*
X123750000Y-117650000D01*
X123683333Y-117716666D01*
X123650000Y-117783333D01*
X123616666Y-117916666D01*
X123616666Y-118016666D01*
X123650000Y-118150000D01*
X123683333Y-118216666D01*
X123750000Y-118283333D01*
X123850000Y-118316666D01*
X123916666Y-118316666D01*
X124016666Y-118283333D01*
X124050000Y-118250000D01*
X124050000Y-118016666D01*
X123916666Y-118016666D01*
X124350000Y-118316666D02*
X124350000Y-117616666D01*
X124750000Y-118316666D01*
X124750000Y-117616666D01*
X125083333Y-118316666D02*
X125083333Y-117616666D01*
X125250000Y-117616666D01*
X125350000Y-117650000D01*
X125416666Y-117716666D01*
X125450000Y-117783333D01*
X125483333Y-117916666D01*
X125483333Y-118016666D01*
X125450000Y-118150000D01*
X125416666Y-118216666D01*
X125350000Y-118283333D01*
X125250000Y-118316666D01*
X125083333Y-118316666D01*
X125783333Y-118316666D02*
X125783333Y-117616666D01*
X125950000Y-117616666D01*
X126050000Y-117650000D01*
X126116666Y-117716666D01*
X126150000Y-117783333D01*
X126183333Y-117916666D01*
X126183333Y-118016666D01*
X126150000Y-118150000D01*
X126116666Y-118216666D01*
X126050000Y-118283333D01*
X125950000Y-118316666D01*
X125783333Y-118316666D01*
X165516666Y-104950000D02*
X165450000Y-104916666D01*
X165350000Y-104916666D01*
X165250000Y-104950000D01*
X165183333Y-105016666D01*
X165150000Y-105083333D01*
X165116666Y-105216666D01*
X165116666Y-105316666D01*
X165150000Y-105450000D01*
X165183333Y-105516666D01*
X165250000Y-105583333D01*
X165350000Y-105616666D01*
X165416666Y-105616666D01*
X165516666Y-105583333D01*
X165550000Y-105550000D01*
X165550000Y-105316666D01*
X165416666Y-105316666D01*
X165850000Y-105616666D02*
X165850000Y-104916666D01*
X166250000Y-105616666D01*
X166250000Y-104916666D01*
X166583333Y-105616666D02*
X166583333Y-104916666D01*
X166750000Y-104916666D01*
X166850000Y-104950000D01*
X166916666Y-105016666D01*
X166950000Y-105083333D01*
X166983333Y-105216666D01*
X166983333Y-105316666D01*
X166950000Y-105450000D01*
X166916666Y-105516666D01*
X166850000Y-105583333D01*
X166750000Y-105616666D01*
X166583333Y-105616666D01*
X167283333Y-105616666D02*
X167283333Y-104916666D01*
X167450000Y-104916666D01*
X167550000Y-104950000D01*
X167616666Y-105016666D01*
X167650000Y-105083333D01*
X167683333Y-105216666D01*
X167683333Y-105316666D01*
X167650000Y-105450000D01*
X167616666Y-105516666D01*
X167550000Y-105583333D01*
X167450000Y-105616666D01*
X167283333Y-105616666D01*
X123816666Y-96183333D02*
X123916666Y-96216666D01*
X124083333Y-96216666D01*
X124150000Y-96183333D01*
X124183333Y-96150000D01*
X124216666Y-96083333D01*
X124216666Y-96016666D01*
X124183333Y-95950000D01*
X124150000Y-95916666D01*
X124083333Y-95883333D01*
X123950000Y-95850000D01*
X123883333Y-95816666D01*
X123850000Y-95783333D01*
X123816666Y-95716666D01*
X123816666Y-95650000D01*
X123850000Y-95583333D01*
X123883333Y-95550000D01*
X123950000Y-95516666D01*
X124116666Y-95516666D01*
X124216666Y-95550000D01*
X124516666Y-96216666D02*
X124516666Y-95516666D01*
X124683333Y-95516666D01*
X124783333Y-95550000D01*
X124850000Y-95616666D01*
X124883333Y-95683333D01*
X124916666Y-95816666D01*
X124916666Y-95916666D01*
X124883333Y-96050000D01*
X124850000Y-96116666D01*
X124783333Y-96183333D01*
X124683333Y-96216666D01*
X124516666Y-96216666D01*
X125183333Y-96016666D02*
X125516666Y-96016666D01*
X125116666Y-96216666D02*
X125350000Y-95516666D01*
X125583333Y-96216666D01*
X125950000Y-95516666D02*
X126016666Y-95516666D01*
X126083333Y-95550000D01*
X126116666Y-95583333D01*
X126150000Y-95650000D01*
X126183333Y-95783333D01*
X126183333Y-95950000D01*
X126150000Y-96083333D01*
X126116666Y-96150000D01*
X126083333Y-96183333D01*
X126016666Y-96216666D01*
X125950000Y-96216666D01*
X125883333Y-96183333D01*
X125850000Y-96150000D01*
X125816666Y-96083333D01*
X125783333Y-95950000D01*
X125783333Y-95783333D01*
X125816666Y-95650000D01*
X125850000Y-95583333D01*
X125883333Y-95550000D01*
X125950000Y-95516666D01*
X165516666Y-98250000D02*
X165450000Y-98216666D01*
X165350000Y-98216666D01*
X165250000Y-98250000D01*
X165183333Y-98316666D01*
X165150000Y-98383333D01*
X165116666Y-98516666D01*
X165116666Y-98616666D01*
X165150000Y-98750000D01*
X165183333Y-98816666D01*
X165250000Y-98883333D01*
X165350000Y-98916666D01*
X165416666Y-98916666D01*
X165516666Y-98883333D01*
X165550000Y-98850000D01*
X165550000Y-98616666D01*
X165416666Y-98616666D01*
X165850000Y-98916666D02*
X165850000Y-98216666D01*
X166250000Y-98916666D01*
X166250000Y-98216666D01*
X166583333Y-98916666D02*
X166583333Y-98216666D01*
X166750000Y-98216666D01*
X166850000Y-98250000D01*
X166916666Y-98316666D01*
X166950000Y-98383333D01*
X166983333Y-98516666D01*
X166983333Y-98616666D01*
X166950000Y-98750000D01*
X166916666Y-98816666D01*
X166850000Y-98883333D01*
X166750000Y-98916666D01*
X166583333Y-98916666D01*
X167283333Y-98916666D02*
X167283333Y-98216666D01*
X167450000Y-98216666D01*
X167550000Y-98250000D01*
X167616666Y-98316666D01*
X167650000Y-98383333D01*
X167683333Y-98516666D01*
X167683333Y-98616666D01*
X167650000Y-98750000D01*
X167616666Y-98816666D01*
X167550000Y-98883333D01*
X167450000Y-98916666D01*
X167283333Y-98916666D01*
X165116666Y-93783333D02*
X165216666Y-93816666D01*
X165383333Y-93816666D01*
X165450000Y-93783333D01*
X165483333Y-93750000D01*
X165516666Y-93683333D01*
X165516666Y-93616666D01*
X165483333Y-93550000D01*
X165450000Y-93516666D01*
X165383333Y-93483333D01*
X165250000Y-93450000D01*
X165183333Y-93416666D01*
X165150000Y-93383333D01*
X165116666Y-93316666D01*
X165116666Y-93250000D01*
X165150000Y-93183333D01*
X165183333Y-93150000D01*
X165250000Y-93116666D01*
X165416666Y-93116666D01*
X165516666Y-93150000D01*
X165816666Y-93816666D02*
X165816666Y-93116666D01*
X165983333Y-93116666D01*
X166083333Y-93150000D01*
X166150000Y-93216666D01*
X166183333Y-93283333D01*
X166216666Y-93416666D01*
X166216666Y-93516666D01*
X166183333Y-93650000D01*
X166150000Y-93716666D01*
X166083333Y-93783333D01*
X165983333Y-93816666D01*
X165816666Y-93816666D01*
X166483333Y-93616666D02*
X166816666Y-93616666D01*
X166416666Y-93816666D02*
X166650000Y-93116666D01*
X166883333Y-93816666D01*
X167250000Y-93116666D02*
X167316666Y-93116666D01*
X167383333Y-93150000D01*
X167416666Y-93183333D01*
X167450000Y-93250000D01*
X167483333Y-93383333D01*
X167483333Y-93550000D01*
X167450000Y-93683333D01*
X167416666Y-93750000D01*
X167383333Y-93783333D01*
X167316666Y-93816666D01*
X167250000Y-93816666D01*
X167183333Y-93783333D01*
X167150000Y-93750000D01*
X167116666Y-93683333D01*
X167083333Y-93550000D01*
X167083333Y-93383333D01*
X167116666Y-93250000D01*
X167150000Y-93183333D01*
X167183333Y-93150000D01*
X167250000Y-93116666D01*
X123566666Y-88016666D02*
X123800000Y-88716666D01*
X124033333Y-88016666D01*
X124400000Y-88016666D02*
X124533333Y-88016666D01*
X124600000Y-88050000D01*
X124666666Y-88116666D01*
X124700000Y-88250000D01*
X124700000Y-88483333D01*
X124666666Y-88616666D01*
X124600000Y-88683333D01*
X124533333Y-88716666D01*
X124400000Y-88716666D01*
X124333333Y-88683333D01*
X124266666Y-88616666D01*
X124233333Y-88483333D01*
X124233333Y-88250000D01*
X124266666Y-88116666D01*
X124333333Y-88050000D01*
X124400000Y-88016666D01*
X125000000Y-88716666D02*
X125000000Y-88016666D01*
X125233333Y-88516666D01*
X125466666Y-88016666D01*
X125466666Y-88716666D01*
X126166666Y-88716666D02*
X125766666Y-88716666D01*
X125966666Y-88716666D02*
X125966666Y-88016666D01*
X125900000Y-88116666D01*
X125833333Y-88183333D01*
X125766666Y-88216666D01*
D11*
X146918571Y-95784761D02*
X146918571Y-95480000D01*
X147070952Y-95632380D02*
X146766190Y-95632380D01*
X147070952Y-95080000D02*
X147070952Y-95308571D01*
X147070952Y-95194285D02*
X146670952Y-95194285D01*
X146728095Y-95232380D01*
X146766190Y-95270476D01*
X146785238Y-95308571D01*
X146709047Y-94927619D02*
X146690000Y-94908571D01*
X146670952Y-94870476D01*
X146670952Y-94775238D01*
X146690000Y-94737142D01*
X146709047Y-94718095D01*
X146747142Y-94699047D01*
X146785238Y-94699047D01*
X146842380Y-94718095D01*
X147070952Y-94946666D01*
X147070952Y-94699047D01*
X146670952Y-94584761D02*
X147070952Y-94451428D01*
X146670952Y-94318095D01*
D10*
X165066666Y-100716666D02*
X165300000Y-101416666D01*
X165533333Y-100716666D01*
X165900000Y-100716666D02*
X166033333Y-100716666D01*
X166100000Y-100750000D01*
X166166666Y-100816666D01*
X166200000Y-100950000D01*
X166200000Y-101183333D01*
X166166666Y-101316666D01*
X166100000Y-101383333D01*
X166033333Y-101416666D01*
X165900000Y-101416666D01*
X165833333Y-101383333D01*
X165766666Y-101316666D01*
X165733333Y-101183333D01*
X165733333Y-100950000D01*
X165766666Y-100816666D01*
X165833333Y-100750000D01*
X165900000Y-100716666D01*
X166500000Y-101416666D02*
X166500000Y-100716666D01*
X166733333Y-101216666D01*
X166966666Y-100716666D01*
X166966666Y-101416666D01*
X167266666Y-100783333D02*
X167300000Y-100750000D01*
X167366666Y-100716666D01*
X167533333Y-100716666D01*
X167600000Y-100750000D01*
X167633333Y-100783333D01*
X167666666Y-100850000D01*
X167666666Y-100916666D01*
X167633333Y-101016666D01*
X167233333Y-101416666D01*
X167666666Y-101416666D01*
D13*
X133828571Y-92069285D02*
X134007142Y-92569285D01*
X134185714Y-92069285D01*
X134435714Y-91890714D02*
X134471428Y-91855000D01*
X134542857Y-91819285D01*
X134721428Y-91819285D01*
X134792857Y-91855000D01*
X134828571Y-91890714D01*
X134864285Y-91962142D01*
X134864285Y-92033571D01*
X134828571Y-92140714D01*
X134400000Y-92569285D01*
X134864285Y-92569285D01*
X135185714Y-92497857D02*
X135221428Y-92533571D01*
X135185714Y-92569285D01*
X135150000Y-92533571D01*
X135185714Y-92497857D01*
X135185714Y-92569285D01*
X135935714Y-92569285D02*
X135507142Y-92569285D01*
X135721428Y-92569285D02*
X135721428Y-91819285D01*
X135650000Y-91926428D01*
X135578571Y-91997857D01*
X135507142Y-92033571D01*
D10*
X165133333Y-90850000D02*
X165666666Y-90850000D01*
X165400000Y-91116666D02*
X165400000Y-90583333D01*
X165900000Y-90416666D02*
X166133333Y-91116666D01*
X166366666Y-90416666D01*
X124833333Y-115450000D02*
X125366666Y-115450000D01*
X125100000Y-115716666D02*
X125100000Y-115183333D01*
X125600000Y-115016666D02*
X125833333Y-115716666D01*
X126066666Y-115016666D01*
X165066666Y-117616666D02*
X165300000Y-118316666D01*
X165533333Y-117616666D01*
X165900000Y-117616666D02*
X166033333Y-117616666D01*
X166100000Y-117650000D01*
X166166666Y-117716666D01*
X166200000Y-117850000D01*
X166200000Y-118083333D01*
X166166666Y-118216666D01*
X166100000Y-118283333D01*
X166033333Y-118316666D01*
X165900000Y-118316666D01*
X165833333Y-118283333D01*
X165766666Y-118216666D01*
X165733333Y-118083333D01*
X165733333Y-117850000D01*
X165766666Y-117716666D01*
X165833333Y-117650000D01*
X165900000Y-117616666D01*
X166500000Y-118316666D02*
X166500000Y-117616666D01*
X166733333Y-118116666D01*
X166966666Y-117616666D01*
X166966666Y-118316666D01*
X167600000Y-117850000D02*
X167600000Y-118316666D01*
X167433333Y-117583333D02*
X167266666Y-118083333D01*
X167700000Y-118083333D01*
D11*
X155088571Y-95724761D02*
X155088571Y-95420000D01*
X155240952Y-95020000D02*
X155240952Y-95248571D01*
X155240952Y-95134285D02*
X154840952Y-95134285D01*
X154898095Y-95172380D01*
X154936190Y-95210476D01*
X154955238Y-95248571D01*
X154879047Y-94867619D02*
X154860000Y-94848571D01*
X154840952Y-94810476D01*
X154840952Y-94715238D01*
X154860000Y-94677142D01*
X154879047Y-94658095D01*
X154917142Y-94639047D01*
X154955238Y-94639047D01*
X155012380Y-94658095D01*
X155240952Y-94886666D01*
X155240952Y-94639047D01*
X154840952Y-94524761D02*
X155240952Y-94391428D01*
X154840952Y-94258095D01*
D10*
X165133333Y-107750000D02*
X165666666Y-107750000D01*
X165400000Y-108016666D02*
X165400000Y-107483333D01*
X165900000Y-107316666D02*
X166133333Y-108016666D01*
X166366666Y-107316666D01*
D14*
X119435714Y-110554761D02*
X120102380Y-110364285D01*
X119626190Y-110173809D01*
X120102380Y-109983333D01*
X119435714Y-109792857D01*
X119435714Y-109507142D02*
X120102380Y-109316666D01*
X119626190Y-109126190D01*
X120102380Y-108935714D01*
X119435714Y-108745238D01*
X119435714Y-108459523D02*
X120102380Y-108269047D01*
X119626190Y-108078571D01*
X120102380Y-107888095D01*
X119435714Y-107697619D01*
X120007142Y-107316666D02*
X120054761Y-107269047D01*
X120102380Y-107316666D01*
X120054761Y-107364285D01*
X120007142Y-107316666D01*
X120102380Y-107316666D01*
X120102380Y-106840476D02*
X119435714Y-106840476D01*
X119102380Y-106840476D02*
X119150000Y-106888095D01*
X119197619Y-106840476D01*
X119150000Y-106792857D01*
X119102380Y-106840476D01*
X119197619Y-106840476D01*
X120102380Y-106221428D02*
X120054761Y-106316666D01*
X120007142Y-106364285D01*
X119911904Y-106411904D01*
X119626190Y-106411904D01*
X119530952Y-106364285D01*
X119483333Y-106316666D01*
X119435714Y-106221428D01*
X119435714Y-106078571D01*
X119483333Y-105983333D01*
X119530952Y-105935714D01*
X119626190Y-105888095D01*
X119911904Y-105888095D01*
X120007142Y-105935714D01*
X120054761Y-105983333D01*
X120102380Y-106078571D01*
X120102380Y-106221428D01*
X119435714Y-105602380D02*
X119435714Y-105221428D01*
X119102380Y-105459523D02*
X119959523Y-105459523D01*
X120054761Y-105411904D01*
X120102380Y-105316666D01*
X120102380Y-105221428D01*
X119435714Y-104983333D02*
X120102380Y-104745238D01*
X119435714Y-104507142D01*
X120054761Y-103745238D02*
X120102380Y-103840476D01*
X120102380Y-104030952D01*
X120054761Y-104126190D01*
X119959523Y-104173809D01*
X119578571Y-104173809D01*
X119483333Y-104126190D01*
X119435714Y-104030952D01*
X119435714Y-103840476D01*
X119483333Y-103745238D01*
X119578571Y-103697619D01*
X119673809Y-103697619D01*
X119769047Y-104173809D01*
X120102380Y-103269047D02*
X119435714Y-103269047D01*
X119626190Y-103269047D02*
X119530952Y-103221428D01*
X119483333Y-103173809D01*
X119435714Y-103078571D01*
X119435714Y-102983333D01*
X119435714Y-102792857D02*
X119435714Y-102411904D01*
X119102380Y-102650000D02*
X119959523Y-102650000D01*
X120054761Y-102602380D01*
X120102380Y-102507142D01*
X120102380Y-102411904D01*
X120054761Y-101697619D02*
X120102380Y-101792857D01*
X120102380Y-101983333D01*
X120054761Y-102078571D01*
X119959523Y-102126190D01*
X119578571Y-102126190D01*
X119483333Y-102078571D01*
X119435714Y-101983333D01*
X119435714Y-101792857D01*
X119483333Y-101697619D01*
X119578571Y-101650000D01*
X119673809Y-101650000D01*
X119769047Y-102126190D01*
X120102380Y-101221428D02*
X119102380Y-101221428D01*
X119483333Y-101221428D02*
X119435714Y-101126190D01*
X119435714Y-100935714D01*
X119483333Y-100840476D01*
X119530952Y-100792857D01*
X119626190Y-100745238D01*
X119911904Y-100745238D01*
X120007142Y-100792857D01*
X120054761Y-100840476D01*
X120102380Y-100935714D01*
X120102380Y-101126190D01*
X120054761Y-101221428D01*
X120102380Y-100316666D02*
X119435714Y-100316666D01*
X119626190Y-100316666D02*
X119530952Y-100269047D01*
X119483333Y-100221428D01*
X119435714Y-100126190D01*
X119435714Y-100030952D01*
X120102380Y-99269047D02*
X119578571Y-99269047D01*
X119483333Y-99316666D01*
X119435714Y-99411904D01*
X119435714Y-99602380D01*
X119483333Y-99697619D01*
X120054761Y-99269047D02*
X120102380Y-99364285D01*
X120102380Y-99602380D01*
X120054761Y-99697619D01*
X119959523Y-99745238D01*
X119864285Y-99745238D01*
X119769047Y-99697619D01*
X119721428Y-99602380D01*
X119721428Y-99364285D01*
X119673809Y-99269047D01*
X120054761Y-98411904D02*
X120102380Y-98507142D01*
X120102380Y-98697619D01*
X120054761Y-98792857D01*
X119959523Y-98840476D01*
X119578571Y-98840476D01*
X119483333Y-98792857D01*
X119435714Y-98697619D01*
X119435714Y-98507142D01*
X119483333Y-98411904D01*
X119578571Y-98364285D01*
X119673809Y-98364285D01*
X119769047Y-98840476D01*
X120007142Y-97935714D02*
X120054761Y-97888095D01*
X120102380Y-97935714D01*
X120054761Y-97983333D01*
X120007142Y-97935714D01*
X120102380Y-97935714D01*
X120054761Y-97030952D02*
X120102380Y-97126190D01*
X120102380Y-97316666D01*
X120054761Y-97411904D01*
X120007142Y-97459523D01*
X119911904Y-97507142D01*
X119626190Y-97507142D01*
X119530952Y-97459523D01*
X119483333Y-97411904D01*
X119435714Y-97316666D01*
X119435714Y-97126190D01*
X119483333Y-97030952D01*
X120102380Y-96459523D02*
X120054761Y-96554761D01*
X120007142Y-96602380D01*
X119911904Y-96650000D01*
X119626190Y-96650000D01*
X119530952Y-96602380D01*
X119483333Y-96554761D01*
X119435714Y-96459523D01*
X119435714Y-96316666D01*
X119483333Y-96221428D01*
X119530952Y-96173809D01*
X119626190Y-96126190D01*
X119911904Y-96126190D01*
X120007142Y-96173809D01*
X120054761Y-96221428D01*
X120102380Y-96316666D01*
X120102380Y-96459523D01*
X120102380Y-95697619D02*
X119435714Y-95697619D01*
X119530952Y-95697619D02*
X119483333Y-95650000D01*
X119435714Y-95554761D01*
X119435714Y-95411904D01*
X119483333Y-95316666D01*
X119578571Y-95269047D01*
X120102380Y-95269047D01*
X119578571Y-95269047D02*
X119483333Y-95221428D01*
X119435714Y-95126190D01*
X119435714Y-94983333D01*
X119483333Y-94888095D01*
X119578571Y-94840476D01*
X120102380Y-94840476D01*
D10*
X165133333Y-96283333D02*
X165233333Y-96316666D01*
X165400000Y-96316666D01*
X165466666Y-96283333D01*
X165500000Y-96250000D01*
X165533333Y-96183333D01*
X165533333Y-96116666D01*
X165500000Y-96050000D01*
X165466666Y-96016666D01*
X165400000Y-95983333D01*
X165266666Y-95950000D01*
X165200000Y-95916666D01*
X165166666Y-95883333D01*
X165133333Y-95816666D01*
X165133333Y-95750000D01*
X165166666Y-95683333D01*
X165200000Y-95650000D01*
X165266666Y-95616666D01*
X165433333Y-95616666D01*
X165533333Y-95650000D01*
X166233333Y-96250000D02*
X166200000Y-96283333D01*
X166100000Y-96316666D01*
X166033333Y-96316666D01*
X165933333Y-96283333D01*
X165866666Y-96216666D01*
X165833333Y-96150000D01*
X165800000Y-96016666D01*
X165800000Y-95916666D01*
X165833333Y-95783333D01*
X165866666Y-95716666D01*
X165933333Y-95650000D01*
X166033333Y-95616666D01*
X166100000Y-95616666D01*
X166200000Y-95650000D01*
X166233333Y-95683333D01*
X166866666Y-96316666D02*
X166533333Y-96316666D01*
X166533333Y-95616666D01*
X167233333Y-95616666D02*
X167300000Y-95616666D01*
X167366666Y-95650000D01*
X167400000Y-95683333D01*
X167433333Y-95750000D01*
X167466666Y-95883333D01*
X167466666Y-96050000D01*
X167433333Y-96183333D01*
X167400000Y-96250000D01*
X167366666Y-96283333D01*
X167300000Y-96316666D01*
X167233333Y-96316666D01*
X167166666Y-96283333D01*
X167133333Y-96250000D01*
X167100000Y-96183333D01*
X167066666Y-96050000D01*
X167066666Y-95883333D01*
X167100000Y-95750000D01*
X167133333Y-95683333D01*
X167166666Y-95650000D01*
X167233333Y-95616666D01*
D13*
%TO.C,J3*%
X118956666Y-85406666D02*
X118956666Y-85906666D01*
X118923333Y-86006666D01*
X118856666Y-86073333D01*
X118756666Y-86106666D01*
X118690000Y-86106666D01*
X119223333Y-85406666D02*
X119656666Y-85406666D01*
X119423333Y-85673333D01*
X119523333Y-85673333D01*
X119590000Y-85706666D01*
X119623333Y-85740000D01*
X119656666Y-85806666D01*
X119656666Y-85973333D01*
X119623333Y-86040000D01*
X119590000Y-86073333D01*
X119523333Y-86106666D01*
X119323333Y-86106666D01*
X119256666Y-86073333D01*
X119223333Y-86040000D01*
%TO.C,R1*%
X160253333Y-108016666D02*
X160020000Y-107683333D01*
X159853333Y-108016666D02*
X159853333Y-107316666D01*
X160120000Y-107316666D01*
X160186666Y-107350000D01*
X160220000Y-107383333D01*
X160253333Y-107450000D01*
X160253333Y-107550000D01*
X160220000Y-107616666D01*
X160186666Y-107650000D01*
X160120000Y-107683333D01*
X159853333Y-107683333D01*
X160920000Y-108016666D02*
X160520000Y-108016666D01*
X160720000Y-108016666D02*
X160720000Y-107316666D01*
X160653333Y-107416666D01*
X160586666Y-107483333D01*
X160520000Y-107516666D01*
%TO.C,R11*%
X160110000Y-91896666D02*
X159876666Y-91563333D01*
X159710000Y-91896666D02*
X159710000Y-91196666D01*
X159976666Y-91196666D01*
X160043333Y-91230000D01*
X160076666Y-91263333D01*
X160110000Y-91330000D01*
X160110000Y-91430000D01*
X160076666Y-91496666D01*
X160043333Y-91530000D01*
X159976666Y-91563333D01*
X159710000Y-91563333D01*
X160776666Y-91896666D02*
X160376666Y-91896666D01*
X160576666Y-91896666D02*
X160576666Y-91196666D01*
X160510000Y-91296666D01*
X160443333Y-91363333D01*
X160376666Y-91396666D01*
X161443333Y-91896666D02*
X161043333Y-91896666D01*
X161243333Y-91896666D02*
X161243333Y-91196666D01*
X161176666Y-91296666D01*
X161110000Y-91363333D01*
X161043333Y-91396666D01*
%TO.C,R16*%
X160410000Y-110016666D02*
X160176666Y-109683333D01*
X160010000Y-110016666D02*
X160010000Y-109316666D01*
X160276666Y-109316666D01*
X160343333Y-109350000D01*
X160376666Y-109383333D01*
X160410000Y-109450000D01*
X160410000Y-109550000D01*
X160376666Y-109616666D01*
X160343333Y-109650000D01*
X160276666Y-109683333D01*
X160010000Y-109683333D01*
X161076666Y-110016666D02*
X160676666Y-110016666D01*
X160876666Y-110016666D02*
X160876666Y-109316666D01*
X160810000Y-109416666D01*
X160743333Y-109483333D01*
X160676666Y-109516666D01*
X161676666Y-109316666D02*
X161543333Y-109316666D01*
X161476666Y-109350000D01*
X161443333Y-109383333D01*
X161376666Y-109483333D01*
X161343333Y-109616666D01*
X161343333Y-109883333D01*
X161376666Y-109950000D01*
X161410000Y-109983333D01*
X161476666Y-110016666D01*
X161610000Y-110016666D01*
X161676666Y-109983333D01*
X161710000Y-109950000D01*
X161743333Y-109883333D01*
X161743333Y-109716666D01*
X161710000Y-109650000D01*
X161676666Y-109616666D01*
X161610000Y-109583333D01*
X161476666Y-109583333D01*
X161410000Y-109616666D01*
X161376666Y-109650000D01*
X161343333Y-109716666D01*
%TO.C,C6*%
X148883333Y-87150000D02*
X148850000Y-87183333D01*
X148750000Y-87216666D01*
X148683333Y-87216666D01*
X148583333Y-87183333D01*
X148516666Y-87116666D01*
X148483333Y-87050000D01*
X148450000Y-86916666D01*
X148450000Y-86816666D01*
X148483333Y-86683333D01*
X148516666Y-86616666D01*
X148583333Y-86550000D01*
X148683333Y-86516666D01*
X148750000Y-86516666D01*
X148850000Y-86550000D01*
X148883333Y-86583333D01*
X149483333Y-86516666D02*
X149350000Y-86516666D01*
X149283333Y-86550000D01*
X149250000Y-86583333D01*
X149183333Y-86683333D01*
X149150000Y-86816666D01*
X149150000Y-87083333D01*
X149183333Y-87150000D01*
X149216666Y-87183333D01*
X149283333Y-87216666D01*
X149416666Y-87216666D01*
X149483333Y-87183333D01*
X149516666Y-87150000D01*
X149550000Y-87083333D01*
X149550000Y-86916666D01*
X149516666Y-86850000D01*
X149483333Y-86816666D01*
X149416666Y-86783333D01*
X149283333Y-86783333D01*
X149216666Y-86816666D01*
X149183333Y-86850000D01*
X149150000Y-86916666D01*
%TO.C,J6*%
X129036666Y-119203333D02*
X129536666Y-119203333D01*
X129636666Y-119236666D01*
X129703333Y-119303333D01*
X129736666Y-119403333D01*
X129736666Y-119470000D01*
X129036666Y-118570000D02*
X129036666Y-118703333D01*
X129070000Y-118770000D01*
X129103333Y-118803333D01*
X129203333Y-118870000D01*
X129336666Y-118903333D01*
X129603333Y-118903333D01*
X129670000Y-118870000D01*
X129703333Y-118836666D01*
X129736666Y-118770000D01*
X129736666Y-118636666D01*
X129703333Y-118570000D01*
X129670000Y-118536666D01*
X129603333Y-118503333D01*
X129436666Y-118503333D01*
X129370000Y-118536666D01*
X129336666Y-118570000D01*
X129303333Y-118636666D01*
X129303333Y-118770000D01*
X129336666Y-118836666D01*
X129370000Y-118870000D01*
X129436666Y-118903333D01*
%TO.C,U5*%
X145404166Y-106736666D02*
X145404166Y-107303333D01*
X145437500Y-107370000D01*
X145470833Y-107403333D01*
X145537500Y-107436666D01*
X145670833Y-107436666D01*
X145737500Y-107403333D01*
X145770833Y-107370000D01*
X145804166Y-107303333D01*
X145804166Y-106736666D01*
X146470833Y-106736666D02*
X146137500Y-106736666D01*
X146104166Y-107070000D01*
X146137500Y-107036666D01*
X146204166Y-107003333D01*
X146370833Y-107003333D01*
X146437500Y-107036666D01*
X146470833Y-107070000D01*
X146504166Y-107136666D01*
X146504166Y-107303333D01*
X146470833Y-107370000D01*
X146437500Y-107403333D01*
X146370833Y-107436666D01*
X146204166Y-107436666D01*
X146137500Y-107403333D01*
X146104166Y-107370000D01*
%TO.C,J2*%
X118996666Y-75526666D02*
X118996666Y-76026666D01*
X118963333Y-76126666D01*
X118896666Y-76193333D01*
X118796666Y-76226666D01*
X118730000Y-76226666D01*
X119296666Y-75593333D02*
X119330000Y-75560000D01*
X119396666Y-75526666D01*
X119563333Y-75526666D01*
X119630000Y-75560000D01*
X119663333Y-75593333D01*
X119696666Y-75660000D01*
X119696666Y-75726666D01*
X119663333Y-75826666D01*
X119263333Y-76226666D01*
X119696666Y-76226666D01*
%TO.C,R10*%
X160050000Y-98516666D02*
X159816666Y-98183333D01*
X159650000Y-98516666D02*
X159650000Y-97816666D01*
X159916666Y-97816666D01*
X159983333Y-97850000D01*
X160016666Y-97883333D01*
X160050000Y-97950000D01*
X160050000Y-98050000D01*
X160016666Y-98116666D01*
X159983333Y-98150000D01*
X159916666Y-98183333D01*
X159650000Y-98183333D01*
X160716666Y-98516666D02*
X160316666Y-98516666D01*
X160516666Y-98516666D02*
X160516666Y-97816666D01*
X160450000Y-97916666D01*
X160383333Y-97983333D01*
X160316666Y-98016666D01*
X161150000Y-97816666D02*
X161216666Y-97816666D01*
X161283333Y-97850000D01*
X161316666Y-97883333D01*
X161350000Y-97950000D01*
X161383333Y-98083333D01*
X161383333Y-98250000D01*
X161350000Y-98383333D01*
X161316666Y-98450000D01*
X161283333Y-98483333D01*
X161216666Y-98516666D01*
X161150000Y-98516666D01*
X161083333Y-98483333D01*
X161050000Y-98450000D01*
X161016666Y-98383333D01*
X160983333Y-98250000D01*
X160983333Y-98083333D01*
X161016666Y-97950000D01*
X161050000Y-97883333D01*
X161083333Y-97850000D01*
X161150000Y-97816666D01*
%TO.C,R5*%
X141383333Y-98516666D02*
X141150000Y-98183333D01*
X140983333Y-98516666D02*
X140983333Y-97816666D01*
X141250000Y-97816666D01*
X141316666Y-97850000D01*
X141350000Y-97883333D01*
X141383333Y-97950000D01*
X141383333Y-98050000D01*
X141350000Y-98116666D01*
X141316666Y-98150000D01*
X141250000Y-98183333D01*
X140983333Y-98183333D01*
X142016666Y-97816666D02*
X141683333Y-97816666D01*
X141650000Y-98150000D01*
X141683333Y-98116666D01*
X141750000Y-98083333D01*
X141916666Y-98083333D01*
X141983333Y-98116666D01*
X142016666Y-98150000D01*
X142050000Y-98216666D01*
X142050000Y-98383333D01*
X142016666Y-98450000D01*
X141983333Y-98483333D01*
X141916666Y-98516666D01*
X141750000Y-98516666D01*
X141683333Y-98483333D01*
X141650000Y-98450000D01*
%TO.C,R12*%
X160050000Y-96316666D02*
X159816666Y-95983333D01*
X159650000Y-96316666D02*
X159650000Y-95616666D01*
X159916666Y-95616666D01*
X159983333Y-95650000D01*
X160016666Y-95683333D01*
X160050000Y-95750000D01*
X160050000Y-95850000D01*
X160016666Y-95916666D01*
X159983333Y-95950000D01*
X159916666Y-95983333D01*
X159650000Y-95983333D01*
X160716666Y-96316666D02*
X160316666Y-96316666D01*
X160516666Y-96316666D02*
X160516666Y-95616666D01*
X160450000Y-95716666D01*
X160383333Y-95783333D01*
X160316666Y-95816666D01*
X160983333Y-95683333D02*
X161016666Y-95650000D01*
X161083333Y-95616666D01*
X161250000Y-95616666D01*
X161316666Y-95650000D01*
X161350000Y-95683333D01*
X161383333Y-95750000D01*
X161383333Y-95816666D01*
X161350000Y-95916666D01*
X160950000Y-96316666D01*
X161383333Y-96316666D01*
%TO.C,U2*%
X131216666Y-96916666D02*
X131216666Y-97483333D01*
X131250000Y-97550000D01*
X131283333Y-97583333D01*
X131350000Y-97616666D01*
X131483333Y-97616666D01*
X131550000Y-97583333D01*
X131583333Y-97550000D01*
X131616666Y-97483333D01*
X131616666Y-96916666D01*
X131916666Y-96983333D02*
X131950000Y-96950000D01*
X132016666Y-96916666D01*
X132183333Y-96916666D01*
X132250000Y-96950000D01*
X132283333Y-96983333D01*
X132316666Y-97050000D01*
X132316666Y-97116666D01*
X132283333Y-97216666D01*
X131883333Y-97616666D01*
X132316666Y-97616666D01*
D14*
%TO.C,U4*%
X153148095Y-99582380D02*
X153148095Y-100391904D01*
X153195714Y-100487142D01*
X153243333Y-100534761D01*
X153338571Y-100582380D01*
X153529047Y-100582380D01*
X153624285Y-100534761D01*
X153671904Y-100487142D01*
X153719523Y-100391904D01*
X153719523Y-99582380D01*
X154624285Y-99915714D02*
X154624285Y-100582380D01*
X154386190Y-99534761D02*
X154148095Y-100249047D01*
X154767142Y-100249047D01*
D13*
%TO.C,R15*%
X160050000Y-89716666D02*
X159816666Y-89383333D01*
X159650000Y-89716666D02*
X159650000Y-89016666D01*
X159916666Y-89016666D01*
X159983333Y-89050000D01*
X160016666Y-89083333D01*
X160050000Y-89150000D01*
X160050000Y-89250000D01*
X160016666Y-89316666D01*
X159983333Y-89350000D01*
X159916666Y-89383333D01*
X159650000Y-89383333D01*
X160716666Y-89716666D02*
X160316666Y-89716666D01*
X160516666Y-89716666D02*
X160516666Y-89016666D01*
X160450000Y-89116666D01*
X160383333Y-89183333D01*
X160316666Y-89216666D01*
X161350000Y-89016666D02*
X161016666Y-89016666D01*
X160983333Y-89350000D01*
X161016666Y-89316666D01*
X161083333Y-89283333D01*
X161250000Y-89283333D01*
X161316666Y-89316666D01*
X161350000Y-89350000D01*
X161383333Y-89416666D01*
X161383333Y-89583333D01*
X161350000Y-89650000D01*
X161316666Y-89683333D01*
X161250000Y-89716666D01*
X161083333Y-89716666D01*
X161016666Y-89683333D01*
X160983333Y-89650000D01*
%TO.C,R3*%
X160253333Y-105916666D02*
X160020000Y-105583333D01*
X159853333Y-105916666D02*
X159853333Y-105216666D01*
X160120000Y-105216666D01*
X160186666Y-105250000D01*
X160220000Y-105283333D01*
X160253333Y-105350000D01*
X160253333Y-105450000D01*
X160220000Y-105516666D01*
X160186666Y-105550000D01*
X160120000Y-105583333D01*
X159853333Y-105583333D01*
X160486666Y-105216666D02*
X160920000Y-105216666D01*
X160686666Y-105483333D01*
X160786666Y-105483333D01*
X160853333Y-105516666D01*
X160886666Y-105550000D01*
X160920000Y-105616666D01*
X160920000Y-105783333D01*
X160886666Y-105850000D01*
X160853333Y-105883333D01*
X160786666Y-105916666D01*
X160586666Y-105916666D01*
X160520000Y-105883333D01*
X160486666Y-105850000D01*
%TO.C,J5*%
X161566666Y-87133333D02*
X162066666Y-87133333D01*
X162166666Y-87166666D01*
X162233333Y-87233333D01*
X162266666Y-87333333D01*
X162266666Y-87400000D01*
X161566666Y-86466666D02*
X161566666Y-86800000D01*
X161900000Y-86833333D01*
X161866666Y-86800000D01*
X161833333Y-86733333D01*
X161833333Y-86566666D01*
X161866666Y-86500000D01*
X161900000Y-86466666D01*
X161966666Y-86433333D01*
X162133333Y-86433333D01*
X162200000Y-86466666D01*
X162233333Y-86500000D01*
X162266666Y-86566666D01*
X162266666Y-86733333D01*
X162233333Y-86800000D01*
X162200000Y-86833333D01*
%TO.C,C4*%
X130483333Y-107000000D02*
X130450000Y-107033333D01*
X130350000Y-107066666D01*
X130283333Y-107066666D01*
X130183333Y-107033333D01*
X130116666Y-106966666D01*
X130083333Y-106900000D01*
X130050000Y-106766666D01*
X130050000Y-106666666D01*
X130083333Y-106533333D01*
X130116666Y-106466666D01*
X130183333Y-106400000D01*
X130283333Y-106366666D01*
X130350000Y-106366666D01*
X130450000Y-106400000D01*
X130483333Y-106433333D01*
X131083333Y-106600000D02*
X131083333Y-107066666D01*
X130916666Y-106333333D02*
X130750000Y-106833333D01*
X131183333Y-106833333D01*
%TO.C,C3*%
X148663333Y-102240000D02*
X148630000Y-102273333D01*
X148530000Y-102306666D01*
X148463333Y-102306666D01*
X148363333Y-102273333D01*
X148296666Y-102206666D01*
X148263333Y-102140000D01*
X148230000Y-102006666D01*
X148230000Y-101906666D01*
X148263333Y-101773333D01*
X148296666Y-101706666D01*
X148363333Y-101640000D01*
X148463333Y-101606666D01*
X148530000Y-101606666D01*
X148630000Y-101640000D01*
X148663333Y-101673333D01*
X148896666Y-101606666D02*
X149330000Y-101606666D01*
X149096666Y-101873333D01*
X149196666Y-101873333D01*
X149263333Y-101906666D01*
X149296666Y-101940000D01*
X149330000Y-102006666D01*
X149330000Y-102173333D01*
X149296666Y-102240000D01*
X149263333Y-102273333D01*
X149196666Y-102306666D01*
X148996666Y-102306666D01*
X148930000Y-102273333D01*
X148896666Y-102240000D01*
%TO.C,R8*%
X141383333Y-89466666D02*
X141150000Y-89133333D01*
X140983333Y-89466666D02*
X140983333Y-88766666D01*
X141250000Y-88766666D01*
X141316666Y-88800000D01*
X141350000Y-88833333D01*
X141383333Y-88900000D01*
X141383333Y-89000000D01*
X141350000Y-89066666D01*
X141316666Y-89100000D01*
X141250000Y-89133333D01*
X140983333Y-89133333D01*
X141783333Y-89066666D02*
X141716666Y-89033333D01*
X141683333Y-89000000D01*
X141650000Y-88933333D01*
X141650000Y-88900000D01*
X141683333Y-88833333D01*
X141716666Y-88800000D01*
X141783333Y-88766666D01*
X141916666Y-88766666D01*
X141983333Y-88800000D01*
X142016666Y-88833333D01*
X142050000Y-88900000D01*
X142050000Y-88933333D01*
X142016666Y-89000000D01*
X141983333Y-89033333D01*
X141916666Y-89066666D01*
X141783333Y-89066666D01*
X141716666Y-89100000D01*
X141683333Y-89133333D01*
X141650000Y-89200000D01*
X141650000Y-89333333D01*
X141683333Y-89400000D01*
X141716666Y-89433333D01*
X141783333Y-89466666D01*
X141916666Y-89466666D01*
X141983333Y-89433333D01*
X142016666Y-89400000D01*
X142050000Y-89333333D01*
X142050000Y-89200000D01*
X142016666Y-89133333D01*
X141983333Y-89100000D01*
X141916666Y-89066666D01*
%TO.C,R9*%
X141383333Y-100716666D02*
X141150000Y-100383333D01*
X140983333Y-100716666D02*
X140983333Y-100016666D01*
X141250000Y-100016666D01*
X141316666Y-100050000D01*
X141350000Y-100083333D01*
X141383333Y-100150000D01*
X141383333Y-100250000D01*
X141350000Y-100316666D01*
X141316666Y-100350000D01*
X141250000Y-100383333D01*
X140983333Y-100383333D01*
X141716666Y-100716666D02*
X141850000Y-100716666D01*
X141916666Y-100683333D01*
X141950000Y-100650000D01*
X142016666Y-100550000D01*
X142050000Y-100416666D01*
X142050000Y-100150000D01*
X142016666Y-100083333D01*
X141983333Y-100050000D01*
X141916666Y-100016666D01*
X141783333Y-100016666D01*
X141716666Y-100050000D01*
X141683333Y-100083333D01*
X141650000Y-100150000D01*
X141650000Y-100316666D01*
X141683333Y-100383333D01*
X141716666Y-100416666D01*
X141783333Y-100450000D01*
X141916666Y-100450000D01*
X141983333Y-100416666D01*
X142016666Y-100383333D01*
X142050000Y-100316666D01*
%TO.C,R7*%
X141383333Y-96316666D02*
X141150000Y-95983333D01*
X140983333Y-96316666D02*
X140983333Y-95616666D01*
X141250000Y-95616666D01*
X141316666Y-95650000D01*
X141350000Y-95683333D01*
X141383333Y-95750000D01*
X141383333Y-95850000D01*
X141350000Y-95916666D01*
X141316666Y-95950000D01*
X141250000Y-95983333D01*
X140983333Y-95983333D01*
X141616666Y-95616666D02*
X142083333Y-95616666D01*
X141783333Y-96316666D01*
%TO.C,R14*%
X160260000Y-100626666D02*
X160026666Y-100293333D01*
X159860000Y-100626666D02*
X159860000Y-99926666D01*
X160126666Y-99926666D01*
X160193333Y-99960000D01*
X160226666Y-99993333D01*
X160260000Y-100060000D01*
X160260000Y-100160000D01*
X160226666Y-100226666D01*
X160193333Y-100260000D01*
X160126666Y-100293333D01*
X159860000Y-100293333D01*
X160926666Y-100626666D02*
X160526666Y-100626666D01*
X160726666Y-100626666D02*
X160726666Y-99926666D01*
X160660000Y-100026666D01*
X160593333Y-100093333D01*
X160526666Y-100126666D01*
X161526666Y-100160000D02*
X161526666Y-100626666D01*
X161360000Y-99893333D02*
X161193333Y-100393333D01*
X161626666Y-100393333D01*
%TO.C,R6*%
X141383333Y-94366666D02*
X141150000Y-94033333D01*
X140983333Y-94366666D02*
X140983333Y-93666666D01*
X141250000Y-93666666D01*
X141316666Y-93700000D01*
X141350000Y-93733333D01*
X141383333Y-93800000D01*
X141383333Y-93900000D01*
X141350000Y-93966666D01*
X141316666Y-94000000D01*
X141250000Y-94033333D01*
X140983333Y-94033333D01*
X141983333Y-93666666D02*
X141850000Y-93666666D01*
X141783333Y-93700000D01*
X141750000Y-93733333D01*
X141683333Y-93833333D01*
X141650000Y-93966666D01*
X141650000Y-94233333D01*
X141683333Y-94300000D01*
X141716666Y-94333333D01*
X141783333Y-94366666D01*
X141916666Y-94366666D01*
X141983333Y-94333333D01*
X142016666Y-94300000D01*
X142050000Y-94233333D01*
X142050000Y-94066666D01*
X142016666Y-94000000D01*
X141983333Y-93966666D01*
X141916666Y-93933333D01*
X141783333Y-93933333D01*
X141716666Y-93966666D01*
X141683333Y-94000000D01*
X141650000Y-94066666D01*
%TO.C,C10*%
X148450000Y-106825000D02*
X148416666Y-106858333D01*
X148316666Y-106891666D01*
X148250000Y-106891666D01*
X148150000Y-106858333D01*
X148083333Y-106791666D01*
X148050000Y-106725000D01*
X148016666Y-106591666D01*
X148016666Y-106491666D01*
X148050000Y-106358333D01*
X148083333Y-106291666D01*
X148150000Y-106225000D01*
X148250000Y-106191666D01*
X148316666Y-106191666D01*
X148416666Y-106225000D01*
X148450000Y-106258333D01*
X149116666Y-106891666D02*
X148716666Y-106891666D01*
X148916666Y-106891666D02*
X148916666Y-106191666D01*
X148850000Y-106291666D01*
X148783333Y-106358333D01*
X148716666Y-106391666D01*
X149550000Y-106191666D02*
X149616666Y-106191666D01*
X149683333Y-106225000D01*
X149716666Y-106258333D01*
X149750000Y-106325000D01*
X149783333Y-106458333D01*
X149783333Y-106625000D01*
X149750000Y-106758333D01*
X149716666Y-106825000D01*
X149683333Y-106858333D01*
X149616666Y-106891666D01*
X149550000Y-106891666D01*
X149483333Y-106858333D01*
X149450000Y-106825000D01*
X149416666Y-106758333D01*
X149383333Y-106625000D01*
X149383333Y-106458333D01*
X149416666Y-106325000D01*
X149450000Y-106258333D01*
X149483333Y-106225000D01*
X149550000Y-106191666D01*
%TO.C,C1*%
X138333333Y-105450000D02*
X138300000Y-105483333D01*
X138200000Y-105516666D01*
X138133333Y-105516666D01*
X138033333Y-105483333D01*
X137966666Y-105416666D01*
X137933333Y-105350000D01*
X137900000Y-105216666D01*
X137900000Y-105116666D01*
X137933333Y-104983333D01*
X137966666Y-104916666D01*
X138033333Y-104850000D01*
X138133333Y-104816666D01*
X138200000Y-104816666D01*
X138300000Y-104850000D01*
X138333333Y-104883333D01*
X139000000Y-105516666D02*
X138600000Y-105516666D01*
X138800000Y-105516666D02*
X138800000Y-104816666D01*
X138733333Y-104916666D01*
X138666666Y-104983333D01*
X138600000Y-105016666D01*
%TO.C,J7*%
X161226666Y-119313333D02*
X161726666Y-119313333D01*
X161826666Y-119346666D01*
X161893333Y-119413333D01*
X161926666Y-119513333D01*
X161926666Y-119580000D01*
X161226666Y-119046666D02*
X161226666Y-118580000D01*
X161926666Y-118880000D01*
%TO.C,R2*%
X160263333Y-103876666D02*
X160030000Y-103543333D01*
X159863333Y-103876666D02*
X159863333Y-103176666D01*
X160130000Y-103176666D01*
X160196666Y-103210000D01*
X160230000Y-103243333D01*
X160263333Y-103310000D01*
X160263333Y-103410000D01*
X160230000Y-103476666D01*
X160196666Y-103510000D01*
X160130000Y-103543333D01*
X159863333Y-103543333D01*
X160530000Y-103243333D02*
X160563333Y-103210000D01*
X160630000Y-103176666D01*
X160796666Y-103176666D01*
X160863333Y-103210000D01*
X160896666Y-103243333D01*
X160930000Y-103310000D01*
X160930000Y-103376666D01*
X160896666Y-103476666D01*
X160496666Y-103876666D01*
X160930000Y-103876666D01*
%TO.C,R13*%
X160050000Y-94116666D02*
X159816666Y-93783333D01*
X159650000Y-94116666D02*
X159650000Y-93416666D01*
X159916666Y-93416666D01*
X159983333Y-93450000D01*
X160016666Y-93483333D01*
X160050000Y-93550000D01*
X160050000Y-93650000D01*
X160016666Y-93716666D01*
X159983333Y-93750000D01*
X159916666Y-93783333D01*
X159650000Y-93783333D01*
X160716666Y-94116666D02*
X160316666Y-94116666D01*
X160516666Y-94116666D02*
X160516666Y-93416666D01*
X160450000Y-93516666D01*
X160383333Y-93583333D01*
X160316666Y-93616666D01*
X160950000Y-93416666D02*
X161383333Y-93416666D01*
X161150000Y-93683333D01*
X161250000Y-93683333D01*
X161316666Y-93716666D01*
X161350000Y-93750000D01*
X161383333Y-93816666D01*
X161383333Y-93983333D01*
X161350000Y-94050000D01*
X161316666Y-94083333D01*
X161250000Y-94116666D01*
X161050000Y-94116666D01*
X160983333Y-94083333D01*
X160950000Y-94050000D01*
%TO.C,U1*%
X145376666Y-102066666D02*
X145376666Y-102633333D01*
X145410000Y-102700000D01*
X145443333Y-102733333D01*
X145510000Y-102766666D01*
X145643333Y-102766666D01*
X145710000Y-102733333D01*
X145743333Y-102700000D01*
X145776666Y-102633333D01*
X145776666Y-102066666D01*
X146476666Y-102766666D02*
X146076666Y-102766666D01*
X146276666Y-102766666D02*
X146276666Y-102066666D01*
X146210000Y-102166666D01*
X146143333Y-102233333D01*
X146076666Y-102266666D01*
%TO.C,R4*%
X141383333Y-91916666D02*
X141150000Y-91583333D01*
X140983333Y-91916666D02*
X140983333Y-91216666D01*
X141250000Y-91216666D01*
X141316666Y-91250000D01*
X141350000Y-91283333D01*
X141383333Y-91350000D01*
X141383333Y-91450000D01*
X141350000Y-91516666D01*
X141316666Y-91550000D01*
X141250000Y-91583333D01*
X140983333Y-91583333D01*
X141983333Y-91450000D02*
X141983333Y-91916666D01*
X141816666Y-91183333D02*
X141650000Y-91683333D01*
X142083333Y-91683333D01*
%TO.C,C7*%
X152983333Y-87150000D02*
X152950000Y-87183333D01*
X152850000Y-87216666D01*
X152783333Y-87216666D01*
X152683333Y-87183333D01*
X152616666Y-87116666D01*
X152583333Y-87050000D01*
X152550000Y-86916666D01*
X152550000Y-86816666D01*
X152583333Y-86683333D01*
X152616666Y-86616666D01*
X152683333Y-86550000D01*
X152783333Y-86516666D01*
X152850000Y-86516666D01*
X152950000Y-86550000D01*
X152983333Y-86583333D01*
X153216666Y-86516666D02*
X153683333Y-86516666D01*
X153383333Y-87216666D01*
%TO.C,C2*%
X136883333Y-110750000D02*
X136850000Y-110783333D01*
X136750000Y-110816666D01*
X136683333Y-110816666D01*
X136583333Y-110783333D01*
X136516666Y-110716666D01*
X136483333Y-110650000D01*
X136450000Y-110516666D01*
X136450000Y-110416666D01*
X136483333Y-110283333D01*
X136516666Y-110216666D01*
X136583333Y-110150000D01*
X136683333Y-110116666D01*
X136750000Y-110116666D01*
X136850000Y-110150000D01*
X136883333Y-110183333D01*
X137150000Y-110183333D02*
X137183333Y-110150000D01*
X137250000Y-110116666D01*
X137416666Y-110116666D01*
X137483333Y-110150000D01*
X137516666Y-110183333D01*
X137550000Y-110250000D01*
X137550000Y-110316666D01*
X137516666Y-110416666D01*
X137116666Y-110816666D01*
X137550000Y-110816666D01*
%TO.C,U3*%
X153436666Y-102076666D02*
X153436666Y-102643333D01*
X153470000Y-102710000D01*
X153503333Y-102743333D01*
X153570000Y-102776666D01*
X153703333Y-102776666D01*
X153770000Y-102743333D01*
X153803333Y-102710000D01*
X153836666Y-102643333D01*
X153836666Y-102076666D01*
X154103333Y-102076666D02*
X154536666Y-102076666D01*
X154303333Y-102343333D01*
X154403333Y-102343333D01*
X154470000Y-102376666D01*
X154503333Y-102410000D01*
X154536666Y-102476666D01*
X154536666Y-102643333D01*
X154503333Y-102710000D01*
X154470000Y-102743333D01*
X154403333Y-102776666D01*
X154203333Y-102776666D01*
X154136666Y-102743333D01*
X154103333Y-102710000D01*
%TO.C,C8*%
X140823333Y-102300000D02*
X140790000Y-102333333D01*
X140690000Y-102366666D01*
X140623333Y-102366666D01*
X140523333Y-102333333D01*
X140456666Y-102266666D01*
X140423333Y-102200000D01*
X140390000Y-102066666D01*
X140390000Y-101966666D01*
X140423333Y-101833333D01*
X140456666Y-101766666D01*
X140523333Y-101700000D01*
X140623333Y-101666666D01*
X140690000Y-101666666D01*
X140790000Y-101700000D01*
X140823333Y-101733333D01*
X141223333Y-101966666D02*
X141156666Y-101933333D01*
X141123333Y-101900000D01*
X141090000Y-101833333D01*
X141090000Y-101800000D01*
X141123333Y-101733333D01*
X141156666Y-101700000D01*
X141223333Y-101666666D01*
X141356666Y-101666666D01*
X141423333Y-101700000D01*
X141456666Y-101733333D01*
X141490000Y-101800000D01*
X141490000Y-101833333D01*
X141456666Y-101900000D01*
X141423333Y-101933333D01*
X141356666Y-101966666D01*
X141223333Y-101966666D01*
X141156666Y-102000000D01*
X141123333Y-102033333D01*
X141090000Y-102100000D01*
X141090000Y-102233333D01*
X141123333Y-102300000D01*
X141156666Y-102333333D01*
X141223333Y-102366666D01*
X141356666Y-102366666D01*
X141423333Y-102333333D01*
X141456666Y-102300000D01*
X141490000Y-102233333D01*
X141490000Y-102100000D01*
X141456666Y-102033333D01*
X141423333Y-102000000D01*
X141356666Y-101966666D01*
%TO.C,J4*%
X129336666Y-87173333D02*
X129836666Y-87173333D01*
X129936666Y-87206666D01*
X130003333Y-87273333D01*
X130036666Y-87373333D01*
X130036666Y-87440000D01*
X129570000Y-86540000D02*
X130036666Y-86540000D01*
X129303333Y-86706666D02*
X129803333Y-86873333D01*
X129803333Y-86440000D01*
%TO.C,U6*%
X153444166Y-106686666D02*
X153444166Y-107253333D01*
X153477500Y-107320000D01*
X153510833Y-107353333D01*
X153577500Y-107386666D01*
X153710833Y-107386666D01*
X153777500Y-107353333D01*
X153810833Y-107320000D01*
X153844166Y-107253333D01*
X153844166Y-106686666D01*
X154477500Y-106686666D02*
X154344166Y-106686666D01*
X154277500Y-106720000D01*
X154244166Y-106753333D01*
X154177500Y-106853333D01*
X154144166Y-106986666D01*
X154144166Y-107253333D01*
X154177500Y-107320000D01*
X154210833Y-107353333D01*
X154277500Y-107386666D01*
X154410833Y-107386666D01*
X154477500Y-107353333D01*
X154510833Y-107320000D01*
X154544166Y-107253333D01*
X154544166Y-107086666D01*
X154510833Y-107020000D01*
X154477500Y-106986666D01*
X154410833Y-106953333D01*
X154277500Y-106953333D01*
X154210833Y-106986666D01*
X154177500Y-107020000D01*
X154144166Y-107086666D01*
%TO.C,J1*%
X130516666Y-119203333D02*
X131016666Y-119203333D01*
X131116666Y-119236666D01*
X131183333Y-119303333D01*
X131216666Y-119403333D01*
X131216666Y-119470000D01*
X131216666Y-118503333D02*
X131216666Y-118903333D01*
X131216666Y-118703333D02*
X130516666Y-118703333D01*
X130616666Y-118770000D01*
X130683333Y-118836666D01*
X130716666Y-118903333D01*
%TO.C,C9*%
X140733333Y-106820000D02*
X140700000Y-106853333D01*
X140600000Y-106886666D01*
X140533333Y-106886666D01*
X140433333Y-106853333D01*
X140366666Y-106786666D01*
X140333333Y-106720000D01*
X140300000Y-106586666D01*
X140300000Y-106486666D01*
X140333333Y-106353333D01*
X140366666Y-106286666D01*
X140433333Y-106220000D01*
X140533333Y-106186666D01*
X140600000Y-106186666D01*
X140700000Y-106220000D01*
X140733333Y-106253333D01*
X141066666Y-106886666D02*
X141200000Y-106886666D01*
X141266666Y-106853333D01*
X141300000Y-106820000D01*
X141366666Y-106720000D01*
X141400000Y-106586666D01*
X141400000Y-106320000D01*
X141366666Y-106253333D01*
X141333333Y-106220000D01*
X141266666Y-106186666D01*
X141133333Y-106186666D01*
X141066666Y-106220000D01*
X141033333Y-106253333D01*
X141000000Y-106320000D01*
X141000000Y-106486666D01*
X141033333Y-106553333D01*
X141066666Y-106586666D01*
X141133333Y-106620000D01*
X141266666Y-106620000D01*
X141333333Y-106586666D01*
X141366666Y-106553333D01*
X141400000Y-106486666D01*
%TO.C,J3*%
X118990000Y-76367500D02*
X118990000Y-85187500D01*
X138880000Y-85187500D02*
X136880000Y-85187500D01*
X172010000Y-76367500D02*
X118990000Y-76367500D01*
X154120000Y-85187500D02*
X152120000Y-85187500D01*
X152120000Y-84377500D02*
X149040000Y-84377500D01*
X136880000Y-84377500D02*
X133800000Y-84377500D01*
X143960000Y-85187500D02*
X141960000Y-85187500D01*
X130800000Y-78077500D02*
X129720000Y-78077500D01*
X119900000Y-78077500D02*
X120640000Y-78077500D01*
X168360000Y-85387500D02*
X168660000Y-85987500D01*
X159200000Y-85187500D02*
X157200000Y-85187500D01*
X168660000Y-85987500D02*
X168060000Y-85987500D01*
X143960000Y-83377500D02*
X143960000Y-85187500D01*
X154120000Y-83377500D02*
X154120000Y-85187500D01*
X119900000Y-83377500D02*
X119900000Y-78077500D01*
X147040000Y-83377500D02*
X149040000Y-83377500D01*
X161280000Y-78077500D02*
X160200000Y-78077500D01*
X149040000Y-85187500D02*
X147040000Y-85187500D01*
X131800000Y-83377500D02*
X133800000Y-83377500D01*
X170360000Y-78077500D02*
X171100000Y-78077500D01*
X164280000Y-85187500D02*
X162280000Y-85187500D01*
X141960000Y-84377500D02*
X138880000Y-84377500D01*
X172010000Y-85187500D02*
X172010000Y-76367500D01*
X157200000Y-84377500D02*
X154120000Y-84377500D01*
X151120000Y-78077500D02*
X150040000Y-78077500D01*
X157200000Y-83377500D02*
X159200000Y-83377500D01*
X123640000Y-85187500D02*
X121640000Y-85187500D01*
X169360000Y-85187500D02*
X167360000Y-85187500D01*
X169360000Y-83377500D02*
X169360000Y-85187500D01*
X136880000Y-83377500D02*
X138880000Y-83377500D01*
X138880000Y-83377500D02*
X138880000Y-85187500D01*
X141960000Y-85187500D02*
X141960000Y-83377500D01*
X131800000Y-84377500D02*
X128720000Y-84377500D01*
X126720000Y-83377500D02*
X128720000Y-83377500D01*
X171100000Y-78077500D02*
X171100000Y-83377500D01*
X168060000Y-85987500D02*
X168360000Y-85387500D01*
X133800000Y-83377500D02*
X133800000Y-85187500D01*
X123640000Y-83377500D02*
X123640000Y-85187500D01*
X162280000Y-84377500D02*
X159200000Y-84377500D01*
X136880000Y-85187500D02*
X136880000Y-83377500D01*
X152120000Y-85187500D02*
X152120000Y-83377500D01*
X133800000Y-85187500D02*
X131800000Y-85187500D01*
X118990000Y-84377500D02*
X121530000Y-84377500D01*
X162280000Y-83377500D02*
X164280000Y-83377500D01*
X167360000Y-85187500D02*
X167360000Y-83377500D01*
X156200000Y-78077500D02*
X155120000Y-78077500D01*
X166360000Y-78077500D02*
X165280000Y-78077500D01*
X126720000Y-84377500D02*
X123640000Y-84377500D01*
X159200000Y-83377500D02*
X159200000Y-85187500D01*
X171100000Y-83377500D02*
X119900000Y-83377500D01*
X167360000Y-84377500D02*
X164280000Y-84377500D01*
X147040000Y-85187500D02*
X147040000Y-83377500D01*
X157200000Y-85187500D02*
X157200000Y-83377500D01*
X162280000Y-85187500D02*
X162280000Y-83377500D01*
X140960000Y-78077500D02*
X139880000Y-78077500D01*
X164280000Y-83377500D02*
X164280000Y-85187500D01*
X147040000Y-84377500D02*
X143960000Y-84377500D01*
X126720000Y-85187500D02*
X126720000Y-83377500D01*
X172010000Y-84377500D02*
X169470000Y-84377500D01*
X131800000Y-85187500D02*
X131800000Y-83377500D01*
X128720000Y-83377500D02*
X128720000Y-85187500D01*
X141960000Y-83377500D02*
X143960000Y-83377500D01*
X146040000Y-78077500D02*
X144960000Y-78077500D01*
X128720000Y-85187500D02*
X126720000Y-85187500D01*
X152120000Y-83377500D02*
X154120000Y-83377500D01*
X167360000Y-83377500D02*
X169360000Y-83377500D01*
X121640000Y-85187500D02*
X121640000Y-83377500D01*
X121640000Y-83377500D02*
X123640000Y-83377500D01*
X135880000Y-78077500D02*
X134800000Y-78077500D01*
X118990000Y-85187500D02*
X172010000Y-85187500D01*
X149040000Y-83377500D02*
X149040000Y-85187500D01*
X125720000Y-78077500D02*
X124640000Y-78077500D01*
X144960000Y-78077500D02*
G75*
G03*
X140973158Y-78061679I-2000000J-1650000D01*
G01*
X124640000Y-78077500D02*
G75*
G03*
X120653158Y-78061679I-2000000J-1650000D01*
G01*
X150040000Y-78077500D02*
G75*
G03*
X146053158Y-78061679I-2000000J-1650000D01*
G01*
X129720000Y-78077500D02*
G75*
G03*
X125733158Y-78061679I-2000000J-1650000D01*
G01*
X170360000Y-78077500D02*
G75*
G03*
X166373158Y-78061679I-2000000J-1650000D01*
G01*
X134800000Y-78077500D02*
G75*
G03*
X130813158Y-78061679I-2000000J-1650000D01*
G01*
X165280000Y-78077500D02*
G75*
G03*
X161293158Y-78061679I-2000000J-1650000D01*
G01*
X160200000Y-78077500D02*
G75*
G03*
X156213158Y-78061679I-2000000J-1650000D01*
G01*
X155120000Y-78077500D02*
G75*
G03*
X151133158Y-78061679I-2000000J-1650000D01*
G01*
X139880000Y-78077500D02*
G75*
G03*
X135893158Y-78061679I-2000000J-1650000D01*
G01*
%TO.C,R1*%
X157392936Y-106915000D02*
X157847064Y-106915000D01*
X157392936Y-108385000D02*
X157847064Y-108385000D01*
%TO.C,R11*%
X157477064Y-92335000D02*
X157022936Y-92335000D01*
X157477064Y-90865000D02*
X157022936Y-90865000D01*
%TO.C,R16*%
X157382936Y-108965000D02*
X157837064Y-108965000D01*
X157382936Y-110435000D02*
X157837064Y-110435000D01*
%TO.C,C6*%
X149093752Y-87765000D02*
X148571248Y-87765000D01*
X149093752Y-89235000D02*
X148571248Y-89235000D01*
%TO.C,J6*%
X127775000Y-119155000D02*
X126445000Y-119155000D01*
X126445000Y-119155000D02*
X126445000Y-117825000D01*
X126445000Y-116555000D02*
X126445000Y-103795000D01*
X129105000Y-103795000D02*
X126445000Y-103795000D01*
X129105000Y-116555000D02*
X126445000Y-116555000D01*
X129105000Y-116555000D02*
X129105000Y-103795000D01*
%TO.C,U5*%
X144490000Y-107420000D02*
X142690000Y-107420000D01*
X144490000Y-110540000D02*
X143690000Y-110540000D01*
X144490000Y-110540000D02*
X145290000Y-110540000D01*
X144490000Y-107420000D02*
X145290000Y-107420000D01*
%TO.C,J2*%
X167610000Y-64667500D02*
X169110000Y-64667500D01*
X118990000Y-64667500D02*
X172010000Y-64667500D01*
X152120000Y-63167500D02*
X152370000Y-64667500D01*
X147040000Y-63167500D02*
X147290000Y-64667500D01*
X164280000Y-63167500D02*
X162280000Y-63167500D01*
X149040000Y-63167500D02*
X147040000Y-63167500D01*
X172010000Y-75387500D02*
X172010000Y-63167500D01*
X137130000Y-64667500D02*
X138630000Y-64667500D01*
X138880000Y-63167500D02*
X136880000Y-63167500D01*
X133550000Y-64667500D02*
X133800000Y-63167500D01*
X123640000Y-63167500D02*
X121640000Y-63167500D01*
X132050000Y-64667500D02*
X133550000Y-64667500D01*
X162280000Y-63167500D02*
X162530000Y-64667500D01*
X126970000Y-64667500D02*
X128470000Y-64667500D01*
X168660000Y-76187500D02*
X168060000Y-76187500D01*
X154120000Y-63167500D02*
X152120000Y-63167500D01*
X121640000Y-63167500D02*
X121890000Y-64667500D01*
X118990000Y-75387500D02*
X172010000Y-75387500D01*
X157450000Y-64667500D02*
X158950000Y-64667500D01*
X148790000Y-64667500D02*
X149040000Y-63167500D01*
X168060000Y-76187500D02*
X168360000Y-75587500D01*
X141960000Y-63167500D02*
X142210000Y-64667500D01*
X159200000Y-63167500D02*
X157200000Y-63167500D01*
X128470000Y-64667500D02*
X128720000Y-63167500D01*
X133800000Y-63167500D02*
X131800000Y-63167500D01*
X168360000Y-75587500D02*
X168660000Y-76187500D01*
X118990000Y-66467500D02*
X118990000Y-64667500D01*
X136880000Y-63167500D02*
X137130000Y-64667500D01*
X172010000Y-66467500D02*
X118990000Y-66467500D01*
X138630000Y-64667500D02*
X138880000Y-63167500D01*
X143710000Y-64667500D02*
X143960000Y-63167500D01*
X167360000Y-63167500D02*
X167610000Y-64667500D01*
X118990000Y-63167500D02*
X118990000Y-75387500D01*
X162530000Y-64667500D02*
X164030000Y-64667500D01*
X158950000Y-64667500D02*
X159200000Y-63167500D01*
X143960000Y-63167500D02*
X141960000Y-63167500D01*
X157200000Y-63167500D02*
X157450000Y-64667500D01*
X131800000Y-63167500D02*
X132050000Y-64667500D01*
X153870000Y-64667500D02*
X154120000Y-63167500D01*
X121890000Y-64667500D02*
X123390000Y-64667500D01*
X152370000Y-64667500D02*
X153870000Y-64667500D01*
X142210000Y-64667500D02*
X143710000Y-64667500D01*
X169360000Y-63167500D02*
X167360000Y-63167500D01*
X172010000Y-64667500D02*
X172010000Y-66467500D01*
X123390000Y-64667500D02*
X123640000Y-63167500D01*
X164030000Y-64667500D02*
X164280000Y-63167500D01*
X147290000Y-64667500D02*
X148790000Y-64667500D01*
X169110000Y-64667500D02*
X169360000Y-63167500D01*
X128720000Y-63167500D02*
X126720000Y-63167500D01*
X126720000Y-63167500D02*
X126970000Y-64667500D01*
X172010000Y-63167500D02*
X118990000Y-63167500D01*
%TO.C,R10*%
X157477064Y-98935000D02*
X157022936Y-98935000D01*
X157477064Y-97465000D02*
X157022936Y-97465000D01*
%TO.C,R5*%
X144272936Y-97465000D02*
X144727064Y-97465000D01*
X144272936Y-98935000D02*
X144727064Y-98935000D01*
%TO.C,R12*%
X157477064Y-95265000D02*
X157022936Y-95265000D01*
X157477064Y-96735000D02*
X157022936Y-96735000D01*
%TO.C,U2*%
X131690000Y-104350000D02*
X131690000Y-98340000D01*
X138510000Y-98340000D02*
X137250000Y-98340000D01*
X138510000Y-102100000D02*
X138510000Y-98340000D01*
X131690000Y-98340000D02*
X132950000Y-98340000D01*
%TO.C,U4*%
X151000000Y-90565000D02*
X152950000Y-90565000D01*
X151000000Y-99435000D02*
X152950000Y-99435000D01*
X151000000Y-90565000D02*
X147550000Y-90565000D01*
X151000000Y-99435000D02*
X149050000Y-99435000D01*
%TO.C,R15*%
X157477064Y-88665000D02*
X157022936Y-88665000D01*
X157477064Y-90135000D02*
X157022936Y-90135000D01*
%TO.C,R3*%
X157392936Y-104865000D02*
X157847064Y-104865000D01*
X157392936Y-106335000D02*
X157847064Y-106335000D01*
%TO.C,J5*%
X162170000Y-89610000D02*
X164830000Y-89610000D01*
X162170000Y-102370000D02*
X164830000Y-102370000D01*
X163500000Y-87010000D02*
X164830000Y-87010000D01*
X164830000Y-87010000D02*
X164830000Y-88340000D01*
X164830000Y-89610000D02*
X164830000Y-102370000D01*
X162170000Y-89610000D02*
X162170000Y-102370000D01*
%TO.C,C4*%
X133523752Y-105865000D02*
X133001248Y-105865000D01*
X133523752Y-107335000D02*
X133001248Y-107335000D01*
%TO.C,C3*%
X148165000Y-104448752D02*
X148165000Y-103926248D01*
X149635000Y-104448752D02*
X149635000Y-103926248D01*
%TO.C,R8*%
X144272936Y-90135000D02*
X144727064Y-90135000D01*
X144272936Y-88665000D02*
X144727064Y-88665000D01*
%TO.C,R9*%
X144272936Y-99665000D02*
X144727064Y-99665000D01*
X144272936Y-101135000D02*
X144727064Y-101135000D01*
%TO.C,R7*%
X144272936Y-95265000D02*
X144727064Y-95265000D01*
X144272936Y-96735000D02*
X144727064Y-96735000D01*
%TO.C,R14*%
X157477064Y-101135000D02*
X157022936Y-101135000D01*
X157477064Y-99665000D02*
X157022936Y-99665000D01*
%TO.C,R6*%
X144272936Y-94535000D02*
X144727064Y-94535000D01*
X144272936Y-93065000D02*
X144727064Y-93065000D01*
%TO.C,C10*%
X148125000Y-109068752D02*
X148125000Y-108546248D01*
X149595000Y-109068752D02*
X149595000Y-108546248D01*
%TO.C,C1*%
X137548752Y-105865000D02*
X137026248Y-105865000D01*
X137548752Y-107335000D02*
X137026248Y-107335000D01*
%TO.C,J7*%
X164855000Y-103870000D02*
X164855000Y-105200000D01*
X164855000Y-106470000D02*
X164855000Y-119230000D01*
X162195000Y-119230000D02*
X164855000Y-119230000D01*
X163525000Y-103870000D02*
X164855000Y-103870000D01*
X162195000Y-106470000D02*
X164855000Y-106470000D01*
X162195000Y-106470000D02*
X162195000Y-119230000D01*
%TO.C,R2*%
X157402936Y-104295000D02*
X157857064Y-104295000D01*
X157402936Y-102825000D02*
X157857064Y-102825000D01*
%TO.C,R13*%
X157477064Y-94535000D02*
X157022936Y-94535000D01*
X157477064Y-93065000D02*
X157022936Y-93065000D01*
%TO.C,U1*%
X144462500Y-105910000D02*
X143662500Y-105910000D01*
X144462500Y-105910000D02*
X145262500Y-105910000D01*
X144462500Y-102790000D02*
X142662500Y-102790000D01*
X144462500Y-102790000D02*
X145262500Y-102790000D01*
%TO.C,R4*%
X144272936Y-90865000D02*
X144727064Y-90865000D01*
X144272936Y-92335000D02*
X144727064Y-92335000D01*
%TO.C,C7*%
X153358752Y-87785000D02*
X152836248Y-87785000D01*
X153358752Y-89255000D02*
X152836248Y-89255000D01*
%TO.C,C2*%
X137523752Y-108265000D02*
X137001248Y-108265000D01*
X137523752Y-109735000D02*
X137001248Y-109735000D01*
%TO.C,U3*%
X152450000Y-102790000D02*
X150650000Y-102790000D01*
X152450000Y-102790000D02*
X153250000Y-102790000D01*
X152450000Y-105910000D02*
X153250000Y-105910000D01*
X152450000Y-105910000D02*
X151650000Y-105910000D01*
%TO.C,C8*%
X141735000Y-104523752D02*
X141735000Y-104001248D01*
X140265000Y-104523752D02*
X140265000Y-104001248D01*
%TO.C,J4*%
X129105000Y-99655000D02*
X126445000Y-99655000D01*
X129105000Y-86895000D02*
X126445000Y-86895000D01*
X126445000Y-99655000D02*
X126445000Y-86895000D01*
X129105000Y-99655000D02*
X129105000Y-86895000D01*
X127775000Y-102255000D02*
X126445000Y-102255000D01*
X126445000Y-102255000D02*
X126445000Y-100925000D01*
%TO.C,U6*%
X152437500Y-107410000D02*
X153237500Y-107410000D01*
X152437500Y-110530000D02*
X153237500Y-110530000D01*
X152437500Y-107410000D02*
X150637500Y-107410000D01*
X152437500Y-110530000D02*
X151637500Y-110530000D01*
%TO.C,J1*%
X136610000Y-120672500D02*
X136110000Y-121672500D01*
X131400000Y-111162500D02*
X159600000Y-111162500D01*
X159600000Y-120282500D02*
X131400000Y-120282500D01*
X132700000Y-118972500D02*
X132700000Y-112472500D01*
X147550000Y-118972500D02*
X147550000Y-120282500D01*
X158300000Y-112472500D02*
X158300000Y-118972500D01*
X131400000Y-120282500D02*
X131400000Y-111162500D01*
X159600000Y-111162500D02*
X159600000Y-120282500D01*
X158300000Y-118972500D02*
X147550000Y-118972500D01*
X143450000Y-120282500D02*
X143450000Y-118972500D01*
X137110000Y-121672500D02*
X136610000Y-120672500D01*
X147550000Y-118972500D02*
X147550000Y-118972500D01*
X143450000Y-118972500D02*
X132700000Y-118972500D01*
X132700000Y-112472500D02*
X158300000Y-112472500D01*
X136110000Y-121672500D02*
X137110000Y-121672500D01*
%TO.C,C9*%
X140185000Y-109048752D02*
X140185000Y-108526248D01*
X141655000Y-109048752D02*
X141655000Y-108526248D01*
%TD*%
M02*
