%TF.GenerationSoftware,KiCad,Pcbnew,6.0.11+dfsg-1~bpo11+1*%
%TF.CreationDate,2023-07-05T16:37:14+02:00*%
%TF.ProjectId,aout4rib21,616f7574-3472-4696-9232-312e6b696361,1.1*%
%TF.SameCoordinates,Original*%
%TF.FileFunction,Copper,L2,Inr*%
%TF.FilePolarity,Positive*%
%FSLAX46Y46*%
G04 Gerber Fmt 4.6, Leading zero omitted, Abs format (unit mm)*
G04 Created by KiCad (PCBNEW 6.0.11+dfsg-1~bpo11+1) date 2023-07-05 16:37:14*
%MOMM*%
%LPD*%
G01*
G04 APERTURE LIST*
G04 Aperture macros list*
%AMRoundRect*
0 Rectangle with rounded corners*
0 $1 Rounding radius*
0 $2 $3 $4 $5 $6 $7 $8 $9 X,Y pos of 4 corners*
0 Add a 4 corners polygon primitive as box body*
4,1,4,$2,$3,$4,$5,$6,$7,$8,$9,$2,$3,0*
0 Add four circle primitives for the rounded corners*
1,1,$1+$1,$2,$3*
1,1,$1+$1,$4,$5*
1,1,$1+$1,$6,$7*
1,1,$1+$1,$8,$9*
0 Add four rect primitives between the rounded corners*
20,1,$1+$1,$2,$3,$4,$5,0*
20,1,$1+$1,$4,$5,$6,$7,0*
20,1,$1+$1,$6,$7,$8,$9,0*
20,1,$1+$1,$8,$9,$2,$3,0*%
G04 Aperture macros list end*
%TA.AperFunction,ComponentPad*%
%ADD10RoundRect,0.249999X0.790001X1.550001X-0.790001X1.550001X-0.790001X-1.550001X0.790001X-1.550001X0*%
%TD*%
%TA.AperFunction,ComponentPad*%
%ADD11O,2.080000X3.600000*%
%TD*%
%TA.AperFunction,ComponentPad*%
%ADD12R,1.700000X1.700000*%
%TD*%
%TA.AperFunction,ComponentPad*%
%ADD13O,1.700000X1.700000*%
%TD*%
%TA.AperFunction,ComponentPad*%
%ADD14RoundRect,0.250000X0.600000X-0.600000X0.600000X0.600000X-0.600000X0.600000X-0.600000X-0.600000X0*%
%TD*%
%TA.AperFunction,ComponentPad*%
%ADD15C,1.700000*%
%TD*%
%TA.AperFunction,ViaPad*%
%ADD16C,0.800000*%
%TD*%
G04 APERTURE END LIST*
D10*
%TO.N,+VSW*%
%TO.C,J3*%
X168360000Y-80277500D03*
D11*
%TO.N,Earth*%
X163280000Y-80277500D03*
%TO.N,+VSW*%
X158200000Y-80277500D03*
%TO.N,Earth*%
X153120000Y-80277500D03*
%TO.N,+VSW*%
X148040000Y-80277500D03*
%TO.N,Earth*%
X142960000Y-80277500D03*
%TO.N,+VSW*%
X137880000Y-80277500D03*
%TO.N,Earth*%
X132800000Y-80277500D03*
%TO.N,+VSW*%
X127720000Y-80277500D03*
%TO.N,GNDD*%
X122640000Y-80277500D03*
%TD*%
D12*
%TO.N,GNDD*%
%TO.C,J6*%
X127775000Y-117825000D03*
D13*
%TO.N,+5V*%
X127775000Y-115285000D03*
%TO.N,/SDA1*%
X127775000Y-112745000D03*
%TO.N,/SCL1*%
X127775000Y-110205000D03*
%TO.N,GNDD*%
X127775000Y-107665000D03*
%TO.N,/VOM3*%
X127775000Y-105125000D03*
%TD*%
D10*
%TO.N,Earth*%
%TO.C,J2*%
X168360000Y-73277500D03*
D11*
%TO.N,GNDD*%
X163280000Y-73277500D03*
%TO.N,/VO4*%
X158200000Y-73277500D03*
%TO.N,GNDD*%
X153120000Y-73277500D03*
%TO.N,/VO3*%
X148040000Y-73277500D03*
%TO.N,GNDD*%
X142960000Y-73277500D03*
%TO.N,/VO2*%
X137880000Y-73277500D03*
%TO.N,GNDD*%
X132800000Y-73277500D03*
%TO.N,/VO1*%
X127720000Y-73277500D03*
%TO.N,+VSW*%
X122640000Y-73277500D03*
%TD*%
D12*
%TO.N,GNDD*%
%TO.C,J5*%
X163500000Y-88340000D03*
D13*
%TO.N,+5V*%
X163500000Y-90880000D03*
%TO.N,/SDA0*%
X163500000Y-93420000D03*
%TO.N,/SCL0*%
X163500000Y-95960000D03*
%TO.N,GNDD*%
X163500000Y-98500000D03*
%TO.N,/VOM2*%
X163500000Y-101040000D03*
%TD*%
D12*
%TO.N,GNDD*%
%TO.C,J7*%
X163525000Y-105200000D03*
D13*
%TO.N,+5V*%
X163525000Y-107740000D03*
%TO.N,/SDA1*%
X163525000Y-110280000D03*
%TO.N,/SCL1*%
X163525000Y-112820000D03*
%TO.N,GNDD*%
X163525000Y-115360000D03*
%TO.N,/VOM4*%
X163525000Y-117900000D03*
%TD*%
D12*
%TO.N,GNDD*%
%TO.C,J4*%
X127775000Y-100925000D03*
D13*
%TO.N,+5V*%
X127775000Y-98385000D03*
%TO.N,/SDA0*%
X127775000Y-95845000D03*
%TO.N,/SCL0*%
X127775000Y-93305000D03*
%TO.N,GNDD*%
X127775000Y-90765000D03*
%TO.N,/VOM1*%
X127775000Y-88225000D03*
%TD*%
D14*
%TO.N,+VSW*%
%TO.C,J1*%
X136610000Y-116992500D03*
D15*
X136610000Y-114452500D03*
%TO.N,Earth*%
X139150000Y-116992500D03*
%TO.N,GNDD*%
X139150000Y-114452500D03*
%TO.N,+12V*%
X141690000Y-116992500D03*
%TO.N,-12V*%
X141690000Y-114452500D03*
%TO.N,+5V*%
X144230000Y-116992500D03*
%TO.N,unconnected-(J1-Pad8)*%
X144230000Y-114452500D03*
%TO.N,unconnected-(J1-Pad9)*%
X146770000Y-116992500D03*
%TO.N,unconnected-(J1-Pad10)*%
X146770000Y-114452500D03*
%TO.N,unconnected-(J1-Pad11)*%
X149310000Y-116992500D03*
%TO.N,/SDA1*%
X149310000Y-114452500D03*
%TO.N,/SCL1*%
X151850000Y-116992500D03*
%TO.N,/SDA0*%
X151850000Y-114452500D03*
%TO.N,/SCL0*%
X154390000Y-116992500D03*
%TO.N,GNDD*%
X154390000Y-114452500D03*
%TD*%
D16*
%TO.N,+12V*%
X148640000Y-86830000D03*
%TO.N,GNDD*%
X140870500Y-106550000D03*
X150370000Y-106680000D03*
X159500000Y-91500000D03*
X154100000Y-101960000D03*
X140700000Y-101810000D03*
X145250000Y-112550000D03*
%TO.N,-12V*%
X150820000Y-85860000D03*
%TO.N,/SCL0*%
X155100000Y-105700000D03*
X160550000Y-103200000D03*
X147200000Y-105500000D03*
%TO.N,/SDA0*%
X155000000Y-103650000D03*
X147150000Y-104350000D03*
%TO.N,/VOM1*%
X147900000Y-100250000D03*
X150035500Y-93450000D03*
%TO.N,/VOM2*%
X150000000Y-96700000D03*
%TO.N,/VOM3*%
X152050000Y-96700000D03*
X144500000Y-106670000D03*
%TO.N,/VOM4*%
X151950000Y-93450000D03*
X153000000Y-106800000D03*
%TD*%
%TA.AperFunction,Conductor*%
%TO.N,Earth*%
G36*
X171933621Y-66528502D02*
G01*
X171980114Y-66582158D01*
X171991500Y-66634500D01*
X171991500Y-119365500D01*
X171971498Y-119433621D01*
X171917842Y-119480114D01*
X171865500Y-119491500D01*
X163768588Y-119491500D01*
X163700467Y-119471498D01*
X163653974Y-119417842D01*
X163643870Y-119347568D01*
X163673364Y-119282988D01*
X163733090Y-119244604D01*
X163752578Y-119240521D01*
X163803288Y-119234025D01*
X163803289Y-119234025D01*
X163808416Y-119233368D01*
X163813366Y-119231883D01*
X164017429Y-119170661D01*
X164017434Y-119170659D01*
X164022384Y-119169174D01*
X164222994Y-119070896D01*
X164404860Y-118941173D01*
X164563096Y-118783489D01*
X164568478Y-118776000D01*
X164690435Y-118606277D01*
X164693453Y-118602077D01*
X164768680Y-118449867D01*
X164790136Y-118406453D01*
X164790137Y-118406451D01*
X164792430Y-118401811D01*
X164857370Y-118188069D01*
X164886529Y-117966590D01*
X164887602Y-117922676D01*
X164888074Y-117903365D01*
X164888074Y-117903361D01*
X164888156Y-117900000D01*
X164869852Y-117677361D01*
X164815431Y-117460702D01*
X164726354Y-117255840D01*
X164605014Y-117068277D01*
X164523704Y-116978918D01*
X167486917Y-116978918D01*
X167487334Y-116986156D01*
X167502682Y-117252320D01*
X167555405Y-117521053D01*
X167556792Y-117525103D01*
X167556793Y-117525108D01*
X167633902Y-117750323D01*
X167644112Y-117780144D01*
X167673238Y-117838054D01*
X167742837Y-117976437D01*
X167767160Y-118024799D01*
X167769586Y-118028328D01*
X167769589Y-118028334D01*
X167919843Y-118246953D01*
X167922274Y-118250490D01*
X167925161Y-118253663D01*
X167925162Y-118253664D01*
X168055457Y-118396857D01*
X168106582Y-118453043D01*
X168316675Y-118628707D01*
X168320316Y-118630991D01*
X168545024Y-118771951D01*
X168545028Y-118771953D01*
X168548664Y-118774234D01*
X168616544Y-118804883D01*
X168794345Y-118885164D01*
X168794349Y-118885166D01*
X168798257Y-118886930D01*
X168802377Y-118888150D01*
X168802376Y-118888150D01*
X169056723Y-118963491D01*
X169056727Y-118963492D01*
X169060836Y-118964709D01*
X169065070Y-118965357D01*
X169065075Y-118965358D01*
X169327298Y-119005483D01*
X169327300Y-119005483D01*
X169331540Y-119006132D01*
X169470912Y-119008322D01*
X169601071Y-119010367D01*
X169601077Y-119010367D01*
X169605362Y-119010434D01*
X169877235Y-118977534D01*
X170142127Y-118908041D01*
X170146087Y-118906401D01*
X170146092Y-118906399D01*
X170268631Y-118855641D01*
X170395136Y-118803241D01*
X170631582Y-118665073D01*
X170847089Y-118496094D01*
X170888809Y-118453043D01*
X170992291Y-118346257D01*
X171037669Y-118299431D01*
X171040202Y-118295983D01*
X171040206Y-118295978D01*
X171197257Y-118082178D01*
X171199795Y-118078723D01*
X171203434Y-118072021D01*
X171328418Y-117841830D01*
X171328419Y-117841828D01*
X171330468Y-117838054D01*
X171393085Y-117672342D01*
X171425751Y-117585895D01*
X171425752Y-117585891D01*
X171427269Y-117581877D01*
X171461069Y-117434297D01*
X171487449Y-117319117D01*
X171487450Y-117319113D01*
X171488407Y-117314933D01*
X171495865Y-117231375D01*
X171512531Y-117044627D01*
X171512531Y-117044625D01*
X171512751Y-117042161D01*
X171513193Y-117000000D01*
X171508440Y-116930283D01*
X171494859Y-116731055D01*
X171494858Y-116731049D01*
X171494567Y-116726778D01*
X171439032Y-116458612D01*
X171347617Y-116200465D01*
X171232212Y-115976873D01*
X171223978Y-115960919D01*
X171223978Y-115960918D01*
X171222013Y-115957112D01*
X171212040Y-115942921D01*
X171115857Y-115806067D01*
X171064545Y-115733057D01*
X170982693Y-115644974D01*
X170881046Y-115535588D01*
X170881043Y-115535585D01*
X170878125Y-115532445D01*
X170874810Y-115529731D01*
X170874806Y-115529728D01*
X170669523Y-115361706D01*
X170666205Y-115358990D01*
X170432704Y-115215901D01*
X170428768Y-115214173D01*
X170185873Y-115107549D01*
X170185869Y-115107548D01*
X170181945Y-115105825D01*
X169918566Y-115030800D01*
X169914324Y-115030196D01*
X169914318Y-115030195D01*
X169713834Y-115001662D01*
X169647443Y-114992213D01*
X169503589Y-114991460D01*
X169377877Y-114990802D01*
X169377871Y-114990802D01*
X169373591Y-114990780D01*
X169369347Y-114991339D01*
X169369343Y-114991339D01*
X169250302Y-115007011D01*
X169102078Y-115026525D01*
X169097938Y-115027658D01*
X169097936Y-115027658D01*
X169025008Y-115047609D01*
X168837928Y-115098788D01*
X168833980Y-115100472D01*
X168589982Y-115204546D01*
X168589978Y-115204548D01*
X168586030Y-115206232D01*
X168500220Y-115257588D01*
X168354725Y-115344664D01*
X168354721Y-115344667D01*
X168351043Y-115346868D01*
X168137318Y-115518094D01*
X168045819Y-115614514D01*
X167960138Y-115704803D01*
X167948808Y-115716742D01*
X167789002Y-115939136D01*
X167660857Y-116181161D01*
X167659385Y-116185184D01*
X167659383Y-116185188D01*
X167597939Y-116353090D01*
X167566743Y-116438337D01*
X167508404Y-116705907D01*
X167486917Y-116978918D01*
X164523704Y-116978918D01*
X164454670Y-116903051D01*
X164450619Y-116899852D01*
X164450615Y-116899848D01*
X164283414Y-116767800D01*
X164283410Y-116767798D01*
X164279359Y-116764598D01*
X164238053Y-116741796D01*
X164188084Y-116691364D01*
X164173312Y-116621921D01*
X164198428Y-116555516D01*
X164225780Y-116528909D01*
X164294404Y-116479960D01*
X164404860Y-116401173D01*
X164435384Y-116370756D01*
X164514297Y-116292118D01*
X164563096Y-116243489D01*
X164568238Y-116236334D01*
X164690435Y-116066277D01*
X164693453Y-116062077D01*
X164719921Y-116008524D01*
X164790136Y-115866453D01*
X164790137Y-115866451D01*
X164792430Y-115861811D01*
X164835448Y-115720222D01*
X164855865Y-115653023D01*
X164855865Y-115653021D01*
X164857370Y-115648069D01*
X164886529Y-115426590D01*
X164888156Y-115360000D01*
X164869852Y-115137361D01*
X164815431Y-114920702D01*
X164726354Y-114715840D01*
X164677834Y-114640840D01*
X164607822Y-114532617D01*
X164607820Y-114532614D01*
X164605014Y-114528277D01*
X164454670Y-114363051D01*
X164450619Y-114359852D01*
X164450615Y-114359848D01*
X164283414Y-114227800D01*
X164283410Y-114227798D01*
X164279359Y-114224598D01*
X164238053Y-114201796D01*
X164188084Y-114151364D01*
X164173312Y-114081921D01*
X164198428Y-114015516D01*
X164225780Y-113988909D01*
X164271757Y-113956114D01*
X164404860Y-113861173D01*
X164563096Y-113703489D01*
X164620005Y-113624292D01*
X164690435Y-113526277D01*
X164693453Y-113522077D01*
X164709641Y-113489324D01*
X164790136Y-113326453D01*
X164790137Y-113326451D01*
X164792430Y-113321811D01*
X164831186Y-113194250D01*
X164855865Y-113113023D01*
X164855865Y-113113021D01*
X164857370Y-113108069D01*
X164886529Y-112886590D01*
X164888156Y-112820000D01*
X164869852Y-112597361D01*
X164815431Y-112380702D01*
X164726354Y-112175840D01*
X164677834Y-112100840D01*
X164607822Y-111992617D01*
X164607820Y-111992614D01*
X164605014Y-111988277D01*
X164454670Y-111823051D01*
X164450619Y-111819852D01*
X164450615Y-111819848D01*
X164283414Y-111687800D01*
X164283410Y-111687798D01*
X164279359Y-111684598D01*
X164238053Y-111661796D01*
X164188084Y-111611364D01*
X164173312Y-111541921D01*
X164198428Y-111475516D01*
X164225780Y-111448909D01*
X164271757Y-111416114D01*
X164404860Y-111321173D01*
X164563096Y-111163489D01*
X164620005Y-111084292D01*
X164690435Y-110986277D01*
X164693453Y-110982077D01*
X164728445Y-110911277D01*
X164790136Y-110786453D01*
X164790137Y-110786451D01*
X164792430Y-110781811D01*
X164824900Y-110674940D01*
X164855865Y-110573023D01*
X164855865Y-110573021D01*
X164857370Y-110568069D01*
X164886529Y-110346590D01*
X164888156Y-110280000D01*
X164869852Y-110057361D01*
X164815431Y-109840702D01*
X164726354Y-109635840D01*
X164677834Y-109560840D01*
X164607822Y-109452617D01*
X164607820Y-109452614D01*
X164605014Y-109448277D01*
X164454670Y-109283051D01*
X164450619Y-109279852D01*
X164450615Y-109279848D01*
X164283414Y-109147800D01*
X164283410Y-109147798D01*
X164279359Y-109144598D01*
X164238053Y-109121796D01*
X164188084Y-109071364D01*
X164173312Y-109001921D01*
X164198428Y-108935516D01*
X164225780Y-108908909D01*
X164271757Y-108876114D01*
X164404860Y-108781173D01*
X164563096Y-108623489D01*
X164620005Y-108544292D01*
X164690435Y-108446277D01*
X164693453Y-108442077D01*
X164728445Y-108371277D01*
X164790136Y-108246453D01*
X164790137Y-108246451D01*
X164792430Y-108241811D01*
X164824900Y-108134940D01*
X164855865Y-108033023D01*
X164855865Y-108033021D01*
X164857370Y-108028069D01*
X164886529Y-107806590D01*
X164888156Y-107740000D01*
X164869852Y-107517361D01*
X164815431Y-107300702D01*
X164726354Y-107095840D01*
X164677834Y-107020840D01*
X164607822Y-106912617D01*
X164607820Y-106912614D01*
X164605014Y-106908277D01*
X164601532Y-106904450D01*
X164457798Y-106746488D01*
X164426746Y-106682642D01*
X164435141Y-106612143D01*
X164480317Y-106557375D01*
X164506761Y-106543706D01*
X164613297Y-106503767D01*
X164621705Y-106500615D01*
X164738261Y-106413261D01*
X164825615Y-106296705D01*
X164876745Y-106160316D01*
X164883500Y-106098134D01*
X164883500Y-104301866D01*
X164876745Y-104239684D01*
X164825615Y-104103295D01*
X164738261Y-103986739D01*
X164621705Y-103899385D01*
X164485316Y-103848255D01*
X164423134Y-103841500D01*
X162626866Y-103841500D01*
X162564684Y-103848255D01*
X162428295Y-103899385D01*
X162311739Y-103986739D01*
X162224385Y-104103295D01*
X162173255Y-104239684D01*
X162166500Y-104301866D01*
X162166500Y-106098134D01*
X162173255Y-106160316D01*
X162224385Y-106296705D01*
X162311739Y-106413261D01*
X162428295Y-106500615D01*
X162436704Y-106503767D01*
X162436705Y-106503768D01*
X162545451Y-106544535D01*
X162602216Y-106587176D01*
X162626916Y-106653738D01*
X162611709Y-106723087D01*
X162592316Y-106749568D01*
X162465629Y-106882138D01*
X162462715Y-106886410D01*
X162462714Y-106886411D01*
X162387817Y-106996206D01*
X162339743Y-107066680D01*
X162324003Y-107100590D01*
X162262657Y-107232749D01*
X162245688Y-107269305D01*
X162185989Y-107484570D01*
X162162251Y-107706695D01*
X162162548Y-107711848D01*
X162162548Y-107711851D01*
X162168011Y-107806590D01*
X162175110Y-107929715D01*
X162176247Y-107934761D01*
X162176248Y-107934767D01*
X162196119Y-108022939D01*
X162224222Y-108147639D01*
X162308266Y-108354616D01*
X162424987Y-108545088D01*
X162571250Y-108713938D01*
X162743126Y-108856632D01*
X162749773Y-108860516D01*
X162816445Y-108899476D01*
X162865169Y-108951114D01*
X162878240Y-109020897D01*
X162851509Y-109086669D01*
X162811055Y-109120027D01*
X162798607Y-109126507D01*
X162794474Y-109129610D01*
X162794471Y-109129612D01*
X162624100Y-109257530D01*
X162619965Y-109260635D01*
X162465629Y-109422138D01*
X162462715Y-109426410D01*
X162462714Y-109426411D01*
X162387702Y-109536375D01*
X162339743Y-109606680D01*
X162245688Y-109809305D01*
X162185989Y-110024570D01*
X162162251Y-110246695D01*
X162162548Y-110251848D01*
X162162548Y-110251851D01*
X162168011Y-110346590D01*
X162175110Y-110469715D01*
X162176247Y-110474761D01*
X162176248Y-110474767D01*
X162196119Y-110562939D01*
X162224222Y-110687639D01*
X162308266Y-110894616D01*
X162424987Y-111085088D01*
X162571250Y-111253938D01*
X162743126Y-111396632D01*
X162749773Y-111400516D01*
X162816445Y-111439476D01*
X162865169Y-111491114D01*
X162878240Y-111560897D01*
X162851509Y-111626669D01*
X162811055Y-111660027D01*
X162798607Y-111666507D01*
X162794474Y-111669610D01*
X162794471Y-111669612D01*
X162624100Y-111797530D01*
X162619965Y-111800635D01*
X162465629Y-111962138D01*
X162462715Y-111966410D01*
X162462714Y-111966411D01*
X162387702Y-112076375D01*
X162339743Y-112146680D01*
X162245688Y-112349305D01*
X162185989Y-112564570D01*
X162162251Y-112786695D01*
X162162548Y-112791848D01*
X162162548Y-112791851D01*
X162169788Y-112917414D01*
X162175110Y-113009715D01*
X162176247Y-113014761D01*
X162176248Y-113014767D01*
X162193179Y-113089891D01*
X162224222Y-113227639D01*
X162262461Y-113321811D01*
X162302399Y-113420166D01*
X162308266Y-113434616D01*
X162424987Y-113625088D01*
X162571250Y-113793938D01*
X162743126Y-113936632D01*
X162749773Y-113940516D01*
X162816445Y-113979476D01*
X162865169Y-114031114D01*
X162878240Y-114100897D01*
X162851509Y-114166669D01*
X162811055Y-114200027D01*
X162798607Y-114206507D01*
X162794474Y-114209610D01*
X162794471Y-114209612D01*
X162624100Y-114337530D01*
X162619965Y-114340635D01*
X162616393Y-114344373D01*
X162509849Y-114455865D01*
X162465629Y-114502138D01*
X162462715Y-114506410D01*
X162462714Y-114506411D01*
X162387702Y-114616375D01*
X162339743Y-114686680D01*
X162245688Y-114889305D01*
X162185989Y-115104570D01*
X162162251Y-115326695D01*
X162162548Y-115331848D01*
X162162548Y-115331851D01*
X162173080Y-115514515D01*
X162175110Y-115549715D01*
X162176247Y-115554761D01*
X162176248Y-115554767D01*
X162189141Y-115611976D01*
X162224222Y-115767639D01*
X162285339Y-115918152D01*
X162292447Y-115935657D01*
X162308266Y-115974616D01*
X162424987Y-116165088D01*
X162571250Y-116333938D01*
X162743126Y-116476632D01*
X162750793Y-116481112D01*
X162816445Y-116519476D01*
X162865169Y-116571114D01*
X162878240Y-116640897D01*
X162851509Y-116706669D01*
X162811055Y-116740027D01*
X162798607Y-116746507D01*
X162794474Y-116749610D01*
X162794471Y-116749612D01*
X162624100Y-116877530D01*
X162619965Y-116880635D01*
X162616393Y-116884373D01*
X162479442Y-117027684D01*
X162465629Y-117042138D01*
X162339743Y-117226680D01*
X162296835Y-117319117D01*
X162275540Y-117364995D01*
X162245688Y-117429305D01*
X162185989Y-117644570D01*
X162162251Y-117866695D01*
X162162548Y-117871848D01*
X162162548Y-117871851D01*
X162174030Y-118070983D01*
X162175110Y-118089715D01*
X162176247Y-118094761D01*
X162176248Y-118094767D01*
X162190942Y-118159965D01*
X162224222Y-118307639D01*
X162262461Y-118401811D01*
X162301822Y-118498745D01*
X162308266Y-118514616D01*
X162310965Y-118519020D01*
X162398843Y-118662424D01*
X162424987Y-118705088D01*
X162571250Y-118873938D01*
X162743126Y-119016632D01*
X162936000Y-119129338D01*
X163144692Y-119209030D01*
X163149760Y-119210061D01*
X163149763Y-119210062D01*
X163306891Y-119242030D01*
X163369656Y-119275211D01*
X163404518Y-119337059D01*
X163400409Y-119407937D01*
X163358632Y-119465341D01*
X163292453Y-119491046D01*
X163281770Y-119491500D01*
X119134500Y-119491500D01*
X119066379Y-119471498D01*
X119019886Y-119417842D01*
X119008500Y-119365500D01*
X119008500Y-116978918D01*
X119486917Y-116978918D01*
X119487334Y-116986156D01*
X119502682Y-117252320D01*
X119555405Y-117521053D01*
X119556792Y-117525103D01*
X119556793Y-117525108D01*
X119633902Y-117750323D01*
X119644112Y-117780144D01*
X119673238Y-117838054D01*
X119742837Y-117976437D01*
X119767160Y-118024799D01*
X119769586Y-118028328D01*
X119769589Y-118028334D01*
X119919843Y-118246953D01*
X119922274Y-118250490D01*
X119925161Y-118253663D01*
X119925162Y-118253664D01*
X120055457Y-118396857D01*
X120106582Y-118453043D01*
X120316675Y-118628707D01*
X120320316Y-118630991D01*
X120545024Y-118771951D01*
X120545028Y-118771953D01*
X120548664Y-118774234D01*
X120616544Y-118804883D01*
X120794345Y-118885164D01*
X120794349Y-118885166D01*
X120798257Y-118886930D01*
X120802377Y-118888150D01*
X120802376Y-118888150D01*
X121056723Y-118963491D01*
X121056727Y-118963492D01*
X121060836Y-118964709D01*
X121065070Y-118965357D01*
X121065075Y-118965358D01*
X121327298Y-119005483D01*
X121327300Y-119005483D01*
X121331540Y-119006132D01*
X121470912Y-119008322D01*
X121601071Y-119010367D01*
X121601077Y-119010367D01*
X121605362Y-119010434D01*
X121877235Y-118977534D01*
X122142127Y-118908041D01*
X122146087Y-118906401D01*
X122146092Y-118906399D01*
X122268631Y-118855641D01*
X122395136Y-118803241D01*
X122631582Y-118665073D01*
X122847089Y-118496094D01*
X122888809Y-118453043D01*
X122992291Y-118346257D01*
X123037669Y-118299431D01*
X123040202Y-118295983D01*
X123040206Y-118295978D01*
X123197257Y-118082178D01*
X123199795Y-118078723D01*
X123203434Y-118072021D01*
X123328418Y-117841830D01*
X123328419Y-117841828D01*
X123330468Y-117838054D01*
X123393085Y-117672342D01*
X123425751Y-117585895D01*
X123425752Y-117585891D01*
X123427269Y-117581877D01*
X123461069Y-117434297D01*
X123487449Y-117319117D01*
X123487450Y-117319113D01*
X123488407Y-117314933D01*
X123495865Y-117231375D01*
X123512531Y-117044627D01*
X123512531Y-117044625D01*
X123512751Y-117042161D01*
X123513193Y-117000000D01*
X123508440Y-116930283D01*
X123494859Y-116731055D01*
X123494858Y-116731049D01*
X123494567Y-116726778D01*
X123439032Y-116458612D01*
X123347617Y-116200465D01*
X123232212Y-115976873D01*
X123223978Y-115960919D01*
X123223978Y-115960918D01*
X123222013Y-115957112D01*
X123212040Y-115942921D01*
X123115857Y-115806067D01*
X123064545Y-115733057D01*
X122982693Y-115644974D01*
X122881046Y-115535588D01*
X122881043Y-115535585D01*
X122878125Y-115532445D01*
X122874810Y-115529731D01*
X122874806Y-115529728D01*
X122669523Y-115361706D01*
X122666205Y-115358990D01*
X122491115Y-115251695D01*
X126412251Y-115251695D01*
X126412548Y-115256848D01*
X126412548Y-115256851D01*
X126417893Y-115349550D01*
X126425110Y-115474715D01*
X126426247Y-115479761D01*
X126426248Y-115479767D01*
X126442012Y-115549715D01*
X126474222Y-115692639D01*
X126511396Y-115784187D01*
X126550812Y-115881258D01*
X126558266Y-115899616D01*
X126595832Y-115960919D01*
X126660396Y-116066277D01*
X126674987Y-116090088D01*
X126821250Y-116258938D01*
X126825230Y-116262242D01*
X126829981Y-116266187D01*
X126869616Y-116325090D01*
X126871113Y-116396071D01*
X126833997Y-116456593D01*
X126793725Y-116481112D01*
X126697751Y-116517091D01*
X126678295Y-116524385D01*
X126561739Y-116611739D01*
X126474385Y-116728295D01*
X126423255Y-116864684D01*
X126416500Y-116926866D01*
X126416500Y-118723134D01*
X126423255Y-118785316D01*
X126474385Y-118921705D01*
X126561739Y-119038261D01*
X126678295Y-119125615D01*
X126814684Y-119176745D01*
X126876866Y-119183500D01*
X128673134Y-119183500D01*
X128735316Y-119176745D01*
X128871705Y-119125615D01*
X128988261Y-119038261D01*
X129075615Y-118921705D01*
X129126745Y-118785316D01*
X129133500Y-118723134D01*
X129133500Y-116926866D01*
X129126745Y-116864684D01*
X129075615Y-116728295D01*
X128988261Y-116611739D01*
X128871705Y-116524385D01*
X128858610Y-116519476D01*
X128753203Y-116479960D01*
X128696439Y-116437318D01*
X128671739Y-116370756D01*
X128686947Y-116301408D01*
X128708493Y-116272727D01*
X128742045Y-116239292D01*
X128813096Y-116168489D01*
X128872390Y-116085973D01*
X128940435Y-115991277D01*
X128943453Y-115987077D01*
X128951978Y-115969829D01*
X129040136Y-115791453D01*
X129040137Y-115791451D01*
X129042430Y-115786811D01*
X129088310Y-115635803D01*
X129105865Y-115578023D01*
X129105865Y-115578021D01*
X129107370Y-115573069D01*
X129136529Y-115351590D01*
X129136611Y-115348240D01*
X129138074Y-115288365D01*
X129138074Y-115288361D01*
X129138156Y-115285000D01*
X129119852Y-115062361D01*
X129065431Y-114845702D01*
X128976354Y-114640840D01*
X128903534Y-114528277D01*
X128857822Y-114457617D01*
X128857820Y-114457614D01*
X128855014Y-114453277D01*
X128824002Y-114419195D01*
X135247251Y-114419195D01*
X135247548Y-114424348D01*
X135247548Y-114424351D01*
X135253791Y-114532617D01*
X135260110Y-114642215D01*
X135261247Y-114647261D01*
X135261248Y-114647267D01*
X135271189Y-114691375D01*
X135309222Y-114860139D01*
X135393266Y-115067116D01*
X135433236Y-115132342D01*
X135507291Y-115253188D01*
X135509987Y-115257588D01*
X135656250Y-115426438D01*
X135660430Y-115429908D01*
X135726344Y-115484631D01*
X135765979Y-115543533D01*
X135767477Y-115614514D01*
X135730363Y-115675037D01*
X135699312Y-115695675D01*
X135692996Y-115698634D01*
X135686054Y-115700950D01*
X135535652Y-115794022D01*
X135410695Y-115919197D01*
X135406855Y-115925427D01*
X135406854Y-115925428D01*
X135325482Y-116057438D01*
X135317885Y-116069762D01*
X135262203Y-116237639D01*
X135251500Y-116342100D01*
X135251500Y-117642900D01*
X135251837Y-117646146D01*
X135251837Y-117646150D01*
X135259294Y-117718016D01*
X135262474Y-117748666D01*
X135264655Y-117755202D01*
X135264655Y-117755204D01*
X135308728Y-117887306D01*
X135318450Y-117916446D01*
X135411522Y-118066848D01*
X135536697Y-118191805D01*
X135542927Y-118195645D01*
X135542928Y-118195646D01*
X135680090Y-118280194D01*
X135687262Y-118284615D01*
X135756678Y-118307639D01*
X135848611Y-118338132D01*
X135848613Y-118338132D01*
X135855139Y-118340297D01*
X135861975Y-118340997D01*
X135861978Y-118340998D01*
X135896531Y-118344538D01*
X135959600Y-118351000D01*
X137260400Y-118351000D01*
X137263646Y-118350663D01*
X137263650Y-118350663D01*
X137359308Y-118340738D01*
X137359312Y-118340737D01*
X137366166Y-118340026D01*
X137372702Y-118337845D01*
X137372704Y-118337845D01*
X137504806Y-118293772D01*
X137533946Y-118284050D01*
X137684348Y-118190978D01*
X137757845Y-118117353D01*
X138389977Y-118117353D01*
X138395258Y-118124407D01*
X138556756Y-118218779D01*
X138566042Y-118223229D01*
X138765001Y-118299203D01*
X138774899Y-118302079D01*
X138983595Y-118344538D01*
X138993823Y-118345757D01*
X139206650Y-118353562D01*
X139216936Y-118353095D01*
X139428185Y-118326034D01*
X139438262Y-118323892D01*
X139642255Y-118262691D01*
X139651842Y-118258933D01*
X139843098Y-118165238D01*
X139851944Y-118159965D01*
X139899247Y-118126223D01*
X139907648Y-118115523D01*
X139900660Y-118102370D01*
X139162812Y-117364522D01*
X139148868Y-117356908D01*
X139147035Y-117357039D01*
X139140420Y-117361290D01*
X138396737Y-118104973D01*
X138389977Y-118117353D01*
X137757845Y-118117353D01*
X137809305Y-118065803D01*
X137832401Y-118028334D01*
X137898275Y-117921468D01*
X137898276Y-117921466D01*
X137902115Y-117915238D01*
X137926913Y-117840475D01*
X137967342Y-117782116D01*
X137996630Y-117764434D01*
X138035694Y-117747596D01*
X138777978Y-117005312D01*
X138785592Y-116991368D01*
X138785461Y-116989535D01*
X138781210Y-116982920D01*
X138039849Y-116241559D01*
X137999510Y-116219531D01*
X137986523Y-116216706D01*
X137936322Y-116166503D01*
X137927388Y-116145997D01*
X137903870Y-116075507D01*
X137903869Y-116075505D01*
X137901550Y-116068554D01*
X137808478Y-115918152D01*
X137683303Y-115793195D01*
X137671417Y-115785868D01*
X137611830Y-115749138D01*
X137532738Y-115700385D01*
X137525785Y-115698079D01*
X137524904Y-115697668D01*
X137471618Y-115650752D01*
X137452156Y-115582475D01*
X137472696Y-115514515D01*
X137490529Y-115494344D01*
X137489860Y-115493673D01*
X137557330Y-115426438D01*
X137648096Y-115335989D01*
X137654775Y-115326695D01*
X137778453Y-115154577D01*
X137779776Y-115155528D01*
X137826645Y-115112357D01*
X137896580Y-115100125D01*
X137962026Y-115127644D01*
X137989875Y-115159494D01*
X138049987Y-115257588D01*
X138196250Y-115426438D01*
X138368126Y-115569132D01*
X138390960Y-115582475D01*
X138441955Y-115612274D01*
X138490679Y-115663912D01*
X138503750Y-115733695D01*
X138477019Y-115799467D01*
X138436562Y-115832827D01*
X138428460Y-115837044D01*
X138419734Y-115842539D01*
X138399677Y-115857599D01*
X138391223Y-115868927D01*
X138397968Y-115881258D01*
X139137188Y-116620478D01*
X139151132Y-116628092D01*
X139152965Y-116627961D01*
X139159580Y-116623710D01*
X139903389Y-115879901D01*
X139910410Y-115867044D01*
X139903611Y-115857713D01*
X139899559Y-115855021D01*
X139862602Y-115834620D01*
X139812631Y-115784187D01*
X139797859Y-115714745D01*
X139822975Y-115648339D01*
X139850327Y-115621732D01*
X139918550Y-115573069D01*
X140029860Y-115493673D01*
X140048885Y-115474715D01*
X140172440Y-115351590D01*
X140188096Y-115335989D01*
X140194775Y-115326695D01*
X140318453Y-115154577D01*
X140319776Y-115155528D01*
X140366645Y-115112357D01*
X140436580Y-115100125D01*
X140502026Y-115127644D01*
X140529875Y-115159494D01*
X140589987Y-115257588D01*
X140736250Y-115426438D01*
X140908126Y-115569132D01*
X140930960Y-115582475D01*
X140981445Y-115611976D01*
X141030169Y-115663614D01*
X141043240Y-115733397D01*
X141016509Y-115799169D01*
X140976055Y-115832527D01*
X140963607Y-115839007D01*
X140959474Y-115842110D01*
X140959471Y-115842112D01*
X140801235Y-115960919D01*
X140784965Y-115973135D01*
X140734387Y-116026062D01*
X140698580Y-116063532D01*
X140630629Y-116134638D01*
X140627720Y-116138903D01*
X140627714Y-116138911D01*
X140601043Y-116178009D01*
X140523204Y-116292118D01*
X140522898Y-116292566D01*
X140467987Y-116337569D01*
X140397462Y-116345740D01*
X140333715Y-116314486D01*
X140313017Y-116290001D01*
X140283062Y-116243697D01*
X140272377Y-116234495D01*
X140262812Y-116238898D01*
X139522022Y-116979688D01*
X139514408Y-116993632D01*
X139514539Y-116995465D01*
X139518790Y-117002080D01*
X140260474Y-117743764D01*
X140272484Y-117750323D01*
X140284223Y-117741355D01*
X140318022Y-117694319D01*
X140319277Y-117695221D01*
X140366391Y-117651855D01*
X140436330Y-117639648D01*
X140501767Y-117667191D01*
X140529580Y-117699013D01*
X140587287Y-117793183D01*
X140587291Y-117793188D01*
X140589987Y-117797588D01*
X140736250Y-117966438D01*
X140908126Y-118109132D01*
X141101000Y-118221838D01*
X141309692Y-118301530D01*
X141314760Y-118302561D01*
X141314763Y-118302562D01*
X141363242Y-118312425D01*
X141528597Y-118346067D01*
X141533772Y-118346257D01*
X141533774Y-118346257D01*
X141746673Y-118354064D01*
X141746677Y-118354064D01*
X141751837Y-118354253D01*
X141756957Y-118353597D01*
X141756959Y-118353597D01*
X141968288Y-118326525D01*
X141968289Y-118326525D01*
X141973416Y-118325868D01*
X141978366Y-118324383D01*
X142182429Y-118263161D01*
X142182434Y-118263159D01*
X142187384Y-118261674D01*
X142387994Y-118163396D01*
X142569860Y-118033673D01*
X142582610Y-118020968D01*
X142651209Y-117952607D01*
X142728096Y-117875989D01*
X142734775Y-117866695D01*
X142858453Y-117694577D01*
X142859776Y-117695528D01*
X142906645Y-117652357D01*
X142976580Y-117640125D01*
X143042026Y-117667644D01*
X143069875Y-117699494D01*
X143129987Y-117797588D01*
X143276250Y-117966438D01*
X143448126Y-118109132D01*
X143641000Y-118221838D01*
X143849692Y-118301530D01*
X143854760Y-118302561D01*
X143854763Y-118302562D01*
X143903242Y-118312425D01*
X144068597Y-118346067D01*
X144073772Y-118346257D01*
X144073774Y-118346257D01*
X144286673Y-118354064D01*
X144286677Y-118354064D01*
X144291837Y-118354253D01*
X144296957Y-118353597D01*
X144296959Y-118353597D01*
X144508288Y-118326525D01*
X144508289Y-118326525D01*
X144513416Y-118325868D01*
X144518366Y-118324383D01*
X144722429Y-118263161D01*
X144722434Y-118263159D01*
X144727384Y-118261674D01*
X144927994Y-118163396D01*
X145109860Y-118033673D01*
X145122610Y-118020968D01*
X145191209Y-117952607D01*
X145268096Y-117875989D01*
X145274775Y-117866695D01*
X145398453Y-117694577D01*
X145399776Y-117695528D01*
X145446645Y-117652357D01*
X145516580Y-117640125D01*
X145582026Y-117667644D01*
X145609875Y-117699494D01*
X145669987Y-117797588D01*
X145816250Y-117966438D01*
X145988126Y-118109132D01*
X146181000Y-118221838D01*
X146389692Y-118301530D01*
X146394760Y-118302561D01*
X146394763Y-118302562D01*
X146443242Y-118312425D01*
X146608597Y-118346067D01*
X146613772Y-118346257D01*
X146613774Y-118346257D01*
X146826673Y-118354064D01*
X146826677Y-118354064D01*
X146831837Y-118354253D01*
X146836957Y-118353597D01*
X146836959Y-118353597D01*
X147048288Y-118326525D01*
X147048289Y-118326525D01*
X147053416Y-118325868D01*
X147058366Y-118324383D01*
X147262429Y-118263161D01*
X147262434Y-118263159D01*
X147267384Y-118261674D01*
X147467994Y-118163396D01*
X147649860Y-118033673D01*
X147662610Y-118020968D01*
X147731209Y-117952607D01*
X147808096Y-117875989D01*
X147814775Y-117866695D01*
X147938453Y-117694577D01*
X147939776Y-117695528D01*
X147986645Y-117652357D01*
X148056580Y-117640125D01*
X148122026Y-117667644D01*
X148149875Y-117699494D01*
X148209987Y-117797588D01*
X148356250Y-117966438D01*
X148528126Y-118109132D01*
X148721000Y-118221838D01*
X148929692Y-118301530D01*
X148934760Y-118302561D01*
X148934763Y-118302562D01*
X148983242Y-118312425D01*
X149148597Y-118346067D01*
X149153772Y-118346257D01*
X149153774Y-118346257D01*
X149366673Y-118354064D01*
X149366677Y-118354064D01*
X149371837Y-118354253D01*
X149376957Y-118353597D01*
X149376959Y-118353597D01*
X149588288Y-118326525D01*
X149588289Y-118326525D01*
X149593416Y-118325868D01*
X149598366Y-118324383D01*
X149802429Y-118263161D01*
X149802434Y-118263159D01*
X149807384Y-118261674D01*
X150007994Y-118163396D01*
X150189860Y-118033673D01*
X150202610Y-118020968D01*
X150271209Y-117952607D01*
X150348096Y-117875989D01*
X150354775Y-117866695D01*
X150478453Y-117694577D01*
X150479776Y-117695528D01*
X150526645Y-117652357D01*
X150596580Y-117640125D01*
X150662026Y-117667644D01*
X150689875Y-117699494D01*
X150749987Y-117797588D01*
X150896250Y-117966438D01*
X151068126Y-118109132D01*
X151261000Y-118221838D01*
X151469692Y-118301530D01*
X151474760Y-118302561D01*
X151474763Y-118302562D01*
X151523242Y-118312425D01*
X151688597Y-118346067D01*
X151693772Y-118346257D01*
X151693774Y-118346257D01*
X151906673Y-118354064D01*
X151906677Y-118354064D01*
X151911837Y-118354253D01*
X151916957Y-118353597D01*
X151916959Y-118353597D01*
X152128288Y-118326525D01*
X152128289Y-118326525D01*
X152133416Y-118325868D01*
X152138366Y-118324383D01*
X152342429Y-118263161D01*
X152342434Y-118263159D01*
X152347384Y-118261674D01*
X152547994Y-118163396D01*
X152729860Y-118033673D01*
X152742610Y-118020968D01*
X152811209Y-117952607D01*
X152888096Y-117875989D01*
X152894775Y-117866695D01*
X153018453Y-117694577D01*
X153019776Y-117695528D01*
X153066645Y-117652357D01*
X153136580Y-117640125D01*
X153202026Y-117667644D01*
X153229875Y-117699494D01*
X153289987Y-117797588D01*
X153436250Y-117966438D01*
X153608126Y-118109132D01*
X153801000Y-118221838D01*
X154009692Y-118301530D01*
X154014760Y-118302561D01*
X154014763Y-118302562D01*
X154063242Y-118312425D01*
X154228597Y-118346067D01*
X154233772Y-118346257D01*
X154233774Y-118346257D01*
X154446673Y-118354064D01*
X154446677Y-118354064D01*
X154451837Y-118354253D01*
X154456957Y-118353597D01*
X154456959Y-118353597D01*
X154668288Y-118326525D01*
X154668289Y-118326525D01*
X154673416Y-118325868D01*
X154678366Y-118324383D01*
X154882429Y-118263161D01*
X154882434Y-118263159D01*
X154887384Y-118261674D01*
X155087994Y-118163396D01*
X155269860Y-118033673D01*
X155282610Y-118020968D01*
X155351209Y-117952607D01*
X155428096Y-117875989D01*
X155434775Y-117866695D01*
X155555435Y-117698777D01*
X155558453Y-117694577D01*
X155579320Y-117652357D01*
X155655136Y-117498953D01*
X155655137Y-117498951D01*
X155657430Y-117494311D01*
X155722370Y-117280569D01*
X155751529Y-117059090D01*
X155751839Y-117046411D01*
X155753074Y-116995865D01*
X155753074Y-116995861D01*
X155753156Y-116992500D01*
X155734852Y-116769861D01*
X155680431Y-116553202D01*
X155591354Y-116348340D01*
X155498304Y-116204506D01*
X155472822Y-116165117D01*
X155472820Y-116165114D01*
X155470014Y-116160777D01*
X155319670Y-115995551D01*
X155315619Y-115992352D01*
X155315615Y-115992348D01*
X155148414Y-115860300D01*
X155148410Y-115860298D01*
X155144359Y-115857098D01*
X155103053Y-115834296D01*
X155053084Y-115783864D01*
X155038312Y-115714421D01*
X155063428Y-115648016D01*
X155090780Y-115621409D01*
X155158550Y-115573069D01*
X155269860Y-115493673D01*
X155288885Y-115474715D01*
X155412440Y-115351590D01*
X155428096Y-115335989D01*
X155434775Y-115326695D01*
X155555435Y-115158777D01*
X155558453Y-115154577D01*
X155579320Y-115112357D01*
X155655136Y-114958953D01*
X155655137Y-114958951D01*
X155657430Y-114954311D01*
X155722370Y-114740569D01*
X155751529Y-114519090D01*
X155751943Y-114502138D01*
X155753074Y-114455865D01*
X155753074Y-114455861D01*
X155753156Y-114452500D01*
X155734852Y-114229861D01*
X155680431Y-114013202D01*
X155591354Y-113808340D01*
X155477363Y-113632137D01*
X155472822Y-113625117D01*
X155472820Y-113625114D01*
X155470014Y-113620777D01*
X155319670Y-113455551D01*
X155315619Y-113452352D01*
X155315615Y-113452348D01*
X155148414Y-113320300D01*
X155148410Y-113320298D01*
X155144359Y-113317098D01*
X154948789Y-113209138D01*
X154943920Y-113207414D01*
X154943916Y-113207412D01*
X154743087Y-113136295D01*
X154743083Y-113136294D01*
X154738212Y-113134569D01*
X154733119Y-113133662D01*
X154733116Y-113133661D01*
X154523373Y-113096300D01*
X154523367Y-113096299D01*
X154518284Y-113095394D01*
X154444452Y-113094492D01*
X154300081Y-113092728D01*
X154300079Y-113092728D01*
X154294911Y-113092665D01*
X154074091Y-113126455D01*
X153861756Y-113195857D01*
X153663607Y-113299007D01*
X153659474Y-113302110D01*
X153659471Y-113302112D01*
X153504065Y-113418794D01*
X153484965Y-113433135D01*
X153330629Y-113594638D01*
X153223201Y-113752121D01*
X153168293Y-113797121D01*
X153097768Y-113805292D01*
X153034021Y-113774038D01*
X153013324Y-113749554D01*
X152932822Y-113625117D01*
X152932820Y-113625114D01*
X152930014Y-113620777D01*
X152779670Y-113455551D01*
X152775619Y-113452352D01*
X152775615Y-113452348D01*
X152608414Y-113320300D01*
X152608410Y-113320298D01*
X152604359Y-113317098D01*
X152408789Y-113209138D01*
X152403920Y-113207414D01*
X152403916Y-113207412D01*
X152203087Y-113136295D01*
X152203083Y-113136294D01*
X152198212Y-113134569D01*
X152193119Y-113133662D01*
X152193116Y-113133661D01*
X151983373Y-113096300D01*
X151983367Y-113096299D01*
X151978284Y-113095394D01*
X151904452Y-113094492D01*
X151760081Y-113092728D01*
X151760079Y-113092728D01*
X151754911Y-113092665D01*
X151534091Y-113126455D01*
X151321756Y-113195857D01*
X151123607Y-113299007D01*
X151119474Y-113302110D01*
X151119471Y-113302112D01*
X150964065Y-113418794D01*
X150944965Y-113433135D01*
X150790629Y-113594638D01*
X150683201Y-113752121D01*
X150628293Y-113797121D01*
X150557768Y-113805292D01*
X150494021Y-113774038D01*
X150473324Y-113749554D01*
X150392822Y-113625117D01*
X150392820Y-113625114D01*
X150390014Y-113620777D01*
X150239670Y-113455551D01*
X150235619Y-113452352D01*
X150235615Y-113452348D01*
X150068414Y-113320300D01*
X150068410Y-113320298D01*
X150064359Y-113317098D01*
X149868789Y-113209138D01*
X149863920Y-113207414D01*
X149863916Y-113207412D01*
X149663087Y-113136295D01*
X149663083Y-113136294D01*
X149658212Y-113134569D01*
X149653119Y-113133662D01*
X149653116Y-113133661D01*
X149443373Y-113096300D01*
X149443367Y-113096299D01*
X149438284Y-113095394D01*
X149364452Y-113094492D01*
X149220081Y-113092728D01*
X149220079Y-113092728D01*
X149214911Y-113092665D01*
X148994091Y-113126455D01*
X148781756Y-113195857D01*
X148583607Y-113299007D01*
X148579474Y-113302110D01*
X148579471Y-113302112D01*
X148424065Y-113418794D01*
X148404965Y-113433135D01*
X148250629Y-113594638D01*
X148143201Y-113752121D01*
X148088293Y-113797121D01*
X148017768Y-113805292D01*
X147954021Y-113774038D01*
X147933324Y-113749554D01*
X147852822Y-113625117D01*
X147852820Y-113625114D01*
X147850014Y-113620777D01*
X147699670Y-113455551D01*
X147695619Y-113452352D01*
X147695615Y-113452348D01*
X147528414Y-113320300D01*
X147528410Y-113320298D01*
X147524359Y-113317098D01*
X147328789Y-113209138D01*
X147323920Y-113207414D01*
X147323916Y-113207412D01*
X147123087Y-113136295D01*
X147123083Y-113136294D01*
X147118212Y-113134569D01*
X147113119Y-113133662D01*
X147113116Y-113133661D01*
X146903373Y-113096300D01*
X146903367Y-113096299D01*
X146898284Y-113095394D01*
X146824452Y-113094492D01*
X146680081Y-113092728D01*
X146680079Y-113092728D01*
X146674911Y-113092665D01*
X146454091Y-113126455D01*
X146241756Y-113195857D01*
X146173989Y-113231134D01*
X146104331Y-113244846D01*
X146038316Y-113218721D01*
X145996905Y-113161052D01*
X145993246Y-113090150D01*
X146006692Y-113056370D01*
X146081223Y-112927279D01*
X146081224Y-112927278D01*
X146084527Y-112921556D01*
X146143542Y-112739928D01*
X146145968Y-112716851D01*
X146162814Y-112556565D01*
X146163504Y-112550000D01*
X146162814Y-112543435D01*
X146144232Y-112366635D01*
X146144232Y-112366633D01*
X146143542Y-112360072D01*
X146084527Y-112178444D01*
X145989040Y-112013056D01*
X145963290Y-111984457D01*
X145865675Y-111876045D01*
X145865674Y-111876044D01*
X145861253Y-111871134D01*
X145706752Y-111758882D01*
X145700724Y-111756198D01*
X145700722Y-111756197D01*
X145538319Y-111683891D01*
X145538318Y-111683891D01*
X145532288Y-111681206D01*
X145432649Y-111660027D01*
X145351944Y-111642872D01*
X145351939Y-111642872D01*
X145345487Y-111641500D01*
X145154513Y-111641500D01*
X145148061Y-111642872D01*
X145148056Y-111642872D01*
X145067351Y-111660027D01*
X144967712Y-111681206D01*
X144961682Y-111683891D01*
X144961681Y-111683891D01*
X144799278Y-111756197D01*
X144799276Y-111756198D01*
X144793248Y-111758882D01*
X144638747Y-111871134D01*
X144634326Y-111876044D01*
X144634325Y-111876045D01*
X144536711Y-111984457D01*
X144510960Y-112013056D01*
X144415473Y-112178444D01*
X144356458Y-112360072D01*
X144355768Y-112366633D01*
X144355768Y-112366635D01*
X144337186Y-112543435D01*
X144336496Y-112550000D01*
X144337186Y-112556565D01*
X144354033Y-112716851D01*
X144356458Y-112739928D01*
X144414566Y-112918764D01*
X144414566Y-112918765D01*
X144415473Y-112921556D01*
X144414963Y-112921722D01*
X144423819Y-112987781D01*
X144393713Y-113052078D01*
X144333624Y-113089891D01*
X144297739Y-113094654D01*
X144140081Y-113092728D01*
X144140079Y-113092728D01*
X144134911Y-113092665D01*
X143914091Y-113126455D01*
X143701756Y-113195857D01*
X143503607Y-113299007D01*
X143499474Y-113302110D01*
X143499471Y-113302112D01*
X143344065Y-113418794D01*
X143324965Y-113433135D01*
X143170629Y-113594638D01*
X143063201Y-113752121D01*
X143008293Y-113797121D01*
X142937768Y-113805292D01*
X142874021Y-113774038D01*
X142853324Y-113749554D01*
X142772822Y-113625117D01*
X142772820Y-113625114D01*
X142770014Y-113620777D01*
X142619670Y-113455551D01*
X142615619Y-113452352D01*
X142615615Y-113452348D01*
X142448414Y-113320300D01*
X142448410Y-113320298D01*
X142444359Y-113317098D01*
X142248789Y-113209138D01*
X142243920Y-113207414D01*
X142243916Y-113207412D01*
X142043087Y-113136295D01*
X142043083Y-113136294D01*
X142038212Y-113134569D01*
X142033119Y-113133662D01*
X142033116Y-113133661D01*
X141823373Y-113096300D01*
X141823367Y-113096299D01*
X141818284Y-113095394D01*
X141744452Y-113094492D01*
X141600081Y-113092728D01*
X141600079Y-113092728D01*
X141594911Y-113092665D01*
X141374091Y-113126455D01*
X141161756Y-113195857D01*
X140963607Y-113299007D01*
X140959474Y-113302110D01*
X140959471Y-113302112D01*
X140804065Y-113418794D01*
X140784965Y-113433135D01*
X140630629Y-113594638D01*
X140523201Y-113752121D01*
X140468293Y-113797121D01*
X140397768Y-113805292D01*
X140334021Y-113774038D01*
X140313324Y-113749554D01*
X140232822Y-113625117D01*
X140232820Y-113625114D01*
X140230014Y-113620777D01*
X140079670Y-113455551D01*
X140075619Y-113452352D01*
X140075615Y-113452348D01*
X139908414Y-113320300D01*
X139908410Y-113320298D01*
X139904359Y-113317098D01*
X139708789Y-113209138D01*
X139703920Y-113207414D01*
X139703916Y-113207412D01*
X139503087Y-113136295D01*
X139503083Y-113136294D01*
X139498212Y-113134569D01*
X139493119Y-113133662D01*
X139493116Y-113133661D01*
X139283373Y-113096300D01*
X139283367Y-113096299D01*
X139278284Y-113095394D01*
X139204452Y-113094492D01*
X139060081Y-113092728D01*
X139060079Y-113092728D01*
X139054911Y-113092665D01*
X138834091Y-113126455D01*
X138621756Y-113195857D01*
X138423607Y-113299007D01*
X138419474Y-113302110D01*
X138419471Y-113302112D01*
X138264065Y-113418794D01*
X138244965Y-113433135D01*
X138090629Y-113594638D01*
X137983201Y-113752121D01*
X137928293Y-113797121D01*
X137857768Y-113805292D01*
X137794021Y-113774038D01*
X137773324Y-113749554D01*
X137692822Y-113625117D01*
X137692820Y-113625114D01*
X137690014Y-113620777D01*
X137539670Y-113455551D01*
X137535619Y-113452352D01*
X137535615Y-113452348D01*
X137368414Y-113320300D01*
X137368410Y-113320298D01*
X137364359Y-113317098D01*
X137168789Y-113209138D01*
X137163920Y-113207414D01*
X137163916Y-113207412D01*
X136963087Y-113136295D01*
X136963083Y-113136294D01*
X136958212Y-113134569D01*
X136953119Y-113133662D01*
X136953116Y-113133661D01*
X136743373Y-113096300D01*
X136743367Y-113096299D01*
X136738284Y-113095394D01*
X136664452Y-113094492D01*
X136520081Y-113092728D01*
X136520079Y-113092728D01*
X136514911Y-113092665D01*
X136294091Y-113126455D01*
X136081756Y-113195857D01*
X135883607Y-113299007D01*
X135879474Y-113302110D01*
X135879471Y-113302112D01*
X135724065Y-113418794D01*
X135704965Y-113433135D01*
X135550629Y-113594638D01*
X135424743Y-113779180D01*
X135409003Y-113813090D01*
X135349854Y-113940516D01*
X135330688Y-113981805D01*
X135270989Y-114197070D01*
X135247251Y-114419195D01*
X128824002Y-114419195D01*
X128704670Y-114288051D01*
X128700619Y-114284852D01*
X128700615Y-114284848D01*
X128533414Y-114152800D01*
X128533410Y-114152798D01*
X128529359Y-114149598D01*
X128488053Y-114126796D01*
X128438084Y-114076364D01*
X128423312Y-114006921D01*
X128448428Y-113940516D01*
X128475780Y-113913909D01*
X128519603Y-113882650D01*
X128654860Y-113786173D01*
X128661878Y-113779180D01*
X128809435Y-113632137D01*
X128813096Y-113628489D01*
X128837395Y-113594674D01*
X128940435Y-113451277D01*
X128943453Y-113447077D01*
X128951978Y-113429829D01*
X129040136Y-113251453D01*
X129040137Y-113251451D01*
X129042430Y-113246811D01*
X129090106Y-113089891D01*
X129105865Y-113038023D01*
X129105865Y-113038021D01*
X129107370Y-113033069D01*
X129136529Y-112811590D01*
X129138156Y-112745000D01*
X129119852Y-112522361D01*
X129065431Y-112305702D01*
X128976354Y-112100840D01*
X128903534Y-111988277D01*
X128857822Y-111917617D01*
X128857820Y-111917614D01*
X128855014Y-111913277D01*
X128704670Y-111748051D01*
X128700619Y-111744852D01*
X128700615Y-111744848D01*
X128533414Y-111612800D01*
X128533410Y-111612798D01*
X128529359Y-111609598D01*
X128488053Y-111586796D01*
X128438084Y-111536364D01*
X128423312Y-111466921D01*
X128448428Y-111400516D01*
X128475780Y-111373909D01*
X128519603Y-111342650D01*
X128654860Y-111246173D01*
X128813096Y-111088489D01*
X128872594Y-111005689D01*
X128940435Y-110911277D01*
X128943453Y-110907077D01*
X128951978Y-110889829D01*
X129040136Y-110711453D01*
X129040137Y-110711451D01*
X129042430Y-110706811D01*
X129107370Y-110493069D01*
X129136529Y-110271590D01*
X129138156Y-110205000D01*
X129119852Y-109982361D01*
X129065431Y-109765702D01*
X128976354Y-109560840D01*
X128903534Y-109448277D01*
X128857822Y-109377617D01*
X128857820Y-109377614D01*
X128855014Y-109373277D01*
X128704670Y-109208051D01*
X128700619Y-109204852D01*
X128700615Y-109204848D01*
X128533414Y-109072800D01*
X128533410Y-109072798D01*
X128529359Y-109069598D01*
X128488053Y-109046796D01*
X128438084Y-108996364D01*
X128423312Y-108926921D01*
X128448428Y-108860516D01*
X128475780Y-108833909D01*
X128519603Y-108802650D01*
X128654860Y-108706173D01*
X128813096Y-108548489D01*
X128872594Y-108465689D01*
X128940435Y-108371277D01*
X128943453Y-108367077D01*
X128951978Y-108349829D01*
X129040136Y-108171453D01*
X129040137Y-108171451D01*
X129042430Y-108166811D01*
X129107370Y-107953069D01*
X129136529Y-107731590D01*
X129138030Y-107670166D01*
X129138074Y-107668365D01*
X129138074Y-107668361D01*
X129138156Y-107665000D01*
X129119852Y-107442361D01*
X129065431Y-107225702D01*
X128976354Y-107020840D01*
X128874479Y-106863365D01*
X128857822Y-106837617D01*
X128857820Y-106837614D01*
X128855014Y-106833277D01*
X128704670Y-106668051D01*
X128700619Y-106664852D01*
X128700615Y-106664848D01*
X128555193Y-106550000D01*
X139956996Y-106550000D01*
X139957686Y-106556565D01*
X139969404Y-106668051D01*
X139976958Y-106739928D01*
X140035973Y-106921556D01*
X140131460Y-107086944D01*
X140135878Y-107091851D01*
X140135879Y-107091852D01*
X140254825Y-107223955D01*
X140259247Y-107228866D01*
X140413748Y-107341118D01*
X140419776Y-107343802D01*
X140419778Y-107343803D01*
X140567494Y-107409570D01*
X140588212Y-107418794D01*
X140675473Y-107437342D01*
X140768556Y-107457128D01*
X140768561Y-107457128D01*
X140775013Y-107458500D01*
X140965987Y-107458500D01*
X140972439Y-107457128D01*
X140972444Y-107457128D01*
X141065527Y-107437342D01*
X141152788Y-107418794D01*
X141173506Y-107409570D01*
X141321222Y-107343803D01*
X141321224Y-107343802D01*
X141327252Y-107341118D01*
X141481753Y-107228866D01*
X141486175Y-107223955D01*
X141605121Y-107091852D01*
X141605122Y-107091851D01*
X141609540Y-107086944D01*
X141705027Y-106921556D01*
X141764042Y-106739928D01*
X141771392Y-106670000D01*
X143586496Y-106670000D01*
X143587186Y-106676565D01*
X143600910Y-106807138D01*
X143606458Y-106859928D01*
X143665473Y-107041556D01*
X143668776Y-107047278D01*
X143668777Y-107047279D01*
X143691678Y-107086944D01*
X143760960Y-107206944D01*
X143765378Y-107211851D01*
X143765379Y-107211852D01*
X143884188Y-107343803D01*
X143888747Y-107348866D01*
X144043248Y-107461118D01*
X144049276Y-107463802D01*
X144049278Y-107463803D01*
X144169572Y-107517361D01*
X144217712Y-107538794D01*
X144311112Y-107558647D01*
X144398056Y-107577128D01*
X144398061Y-107577128D01*
X144404513Y-107578500D01*
X144595487Y-107578500D01*
X144601939Y-107577128D01*
X144601944Y-107577128D01*
X144688888Y-107558647D01*
X144782288Y-107538794D01*
X144830428Y-107517361D01*
X144950722Y-107463803D01*
X144950724Y-107463802D01*
X144956752Y-107461118D01*
X145111253Y-107348866D01*
X145115812Y-107343803D01*
X145234621Y-107211852D01*
X145234622Y-107211851D01*
X145239040Y-107206944D01*
X145308322Y-107086944D01*
X145331223Y-107047279D01*
X145331224Y-107047278D01*
X145334527Y-107041556D01*
X145393542Y-106859928D01*
X145399091Y-106807138D01*
X145412453Y-106680000D01*
X149456496Y-106680000D01*
X149457186Y-106686565D01*
X149469859Y-106807138D01*
X149476458Y-106869928D01*
X149535473Y-107051556D01*
X149538776Y-107057278D01*
X149538777Y-107057279D01*
X149552603Y-107081226D01*
X149630960Y-107216944D01*
X149635378Y-107221851D01*
X149635379Y-107221852D01*
X149745184Y-107343803D01*
X149758747Y-107358866D01*
X149843119Y-107420166D01*
X149894143Y-107457237D01*
X149913248Y-107471118D01*
X149919276Y-107473802D01*
X149919278Y-107473803D01*
X150068333Y-107540166D01*
X150087712Y-107548794D01*
X150181113Y-107568647D01*
X150268056Y-107587128D01*
X150268061Y-107587128D01*
X150274513Y-107588500D01*
X150465487Y-107588500D01*
X150471939Y-107587128D01*
X150471944Y-107587128D01*
X150558888Y-107568647D01*
X150652288Y-107548794D01*
X150671667Y-107540166D01*
X150820722Y-107473803D01*
X150820724Y-107473802D01*
X150826752Y-107471118D01*
X150845858Y-107457237D01*
X150896881Y-107420166D01*
X150981253Y-107358866D01*
X150994816Y-107343803D01*
X151104621Y-107221852D01*
X151104622Y-107221851D01*
X151109040Y-107216944D01*
X151187397Y-107081226D01*
X151201223Y-107057279D01*
X151201224Y-107057278D01*
X151204527Y-107051556D01*
X151263542Y-106869928D01*
X151270142Y-106807138D01*
X151270892Y-106800000D01*
X152086496Y-106800000D01*
X152087186Y-106806565D01*
X152089994Y-106833277D01*
X152106458Y-106989928D01*
X152165473Y-107171556D01*
X152168776Y-107177278D01*
X152168777Y-107177279D01*
X152188738Y-107211852D01*
X152260960Y-107336944D01*
X152265378Y-107341851D01*
X152265379Y-107341852D01*
X152284195Y-107362749D01*
X152388747Y-107478866D01*
X152543248Y-107591118D01*
X152549276Y-107593802D01*
X152549278Y-107593803D01*
X152645966Y-107636851D01*
X152717712Y-107668794D01*
X152811112Y-107688647D01*
X152898056Y-107707128D01*
X152898061Y-107707128D01*
X152904513Y-107708500D01*
X153095487Y-107708500D01*
X153101939Y-107707128D01*
X153101944Y-107707128D01*
X153188888Y-107688647D01*
X153282288Y-107668794D01*
X153354034Y-107636851D01*
X153450722Y-107593803D01*
X153450724Y-107593802D01*
X153456752Y-107591118D01*
X153611253Y-107478866D01*
X153715805Y-107362749D01*
X153734621Y-107341852D01*
X153734622Y-107341851D01*
X153739040Y-107336944D01*
X153811262Y-107211852D01*
X153831223Y-107177279D01*
X153831224Y-107177278D01*
X153834527Y-107171556D01*
X153893542Y-106989928D01*
X153910007Y-106833277D01*
X153912814Y-106806565D01*
X153913504Y-106800000D01*
X153907850Y-106746206D01*
X153894232Y-106616635D01*
X153894232Y-106616633D01*
X153893542Y-106610072D01*
X153834527Y-106428444D01*
X153821510Y-106405897D01*
X153781220Y-106336114D01*
X153739040Y-106263056D01*
X153626573Y-106138148D01*
X153615675Y-106126045D01*
X153615674Y-106126044D01*
X153611253Y-106121134D01*
X153456752Y-106008882D01*
X153450724Y-106006198D01*
X153450722Y-106006197D01*
X153288319Y-105933891D01*
X153288318Y-105933891D01*
X153282288Y-105931206D01*
X153188888Y-105911353D01*
X153101944Y-105892872D01*
X153101939Y-105892872D01*
X153095487Y-105891500D01*
X152904513Y-105891500D01*
X152898061Y-105892872D01*
X152898056Y-105892872D01*
X152811112Y-105911353D01*
X152717712Y-105931206D01*
X152711682Y-105933891D01*
X152711681Y-105933891D01*
X152549278Y-106006197D01*
X152549276Y-106006198D01*
X152543248Y-106008882D01*
X152388747Y-106121134D01*
X152384326Y-106126044D01*
X152384325Y-106126045D01*
X152373428Y-106138148D01*
X152260960Y-106263056D01*
X152218780Y-106336114D01*
X152178491Y-106405897D01*
X152165473Y-106428444D01*
X152106458Y-106610072D01*
X152105768Y-106616633D01*
X152105768Y-106616635D01*
X152092150Y-106746206D01*
X152086496Y-106800000D01*
X151270892Y-106800000D01*
X151282814Y-106686565D01*
X151283504Y-106680000D01*
X151265114Y-106505027D01*
X151264232Y-106496635D01*
X151264232Y-106496633D01*
X151263542Y-106490072D01*
X151204527Y-106308444D01*
X151198754Y-106298444D01*
X151129471Y-106178444D01*
X151109040Y-106143056D01*
X151089302Y-106121134D01*
X150985675Y-106006045D01*
X150985674Y-106006044D01*
X150981253Y-106001134D01*
X150826752Y-105888882D01*
X150820724Y-105886198D01*
X150820722Y-105886197D01*
X150658319Y-105813891D01*
X150658318Y-105813891D01*
X150652288Y-105811206D01*
X150558888Y-105791353D01*
X150471944Y-105772872D01*
X150471939Y-105772872D01*
X150465487Y-105771500D01*
X150274513Y-105771500D01*
X150268061Y-105772872D01*
X150268056Y-105772872D01*
X150181113Y-105791353D01*
X150087712Y-105811206D01*
X150081682Y-105813891D01*
X150081681Y-105813891D01*
X149919278Y-105886197D01*
X149919276Y-105886198D01*
X149913248Y-105888882D01*
X149758747Y-106001134D01*
X149754326Y-106006044D01*
X149754325Y-106006045D01*
X149650699Y-106121134D01*
X149630960Y-106143056D01*
X149610529Y-106178444D01*
X149541247Y-106298444D01*
X149535473Y-106308444D01*
X149476458Y-106490072D01*
X149475768Y-106496633D01*
X149475768Y-106496635D01*
X149474886Y-106505027D01*
X149456496Y-106680000D01*
X145412453Y-106680000D01*
X145412814Y-106676565D01*
X145413504Y-106670000D01*
X145396033Y-106503768D01*
X145394232Y-106486635D01*
X145394232Y-106486633D01*
X145393542Y-106480072D01*
X145334527Y-106298444D01*
X145330298Y-106291118D01*
X145262653Y-106173955D01*
X145239040Y-106133056D01*
X145228306Y-106121134D01*
X145115675Y-105996045D01*
X145115674Y-105996044D01*
X145111253Y-105991134D01*
X145012157Y-105919136D01*
X144962094Y-105882763D01*
X144962093Y-105882762D01*
X144956752Y-105878882D01*
X144950724Y-105876198D01*
X144950722Y-105876197D01*
X144788319Y-105803891D01*
X144788318Y-105803891D01*
X144782288Y-105801206D01*
X144688888Y-105781353D01*
X144601944Y-105762872D01*
X144601939Y-105762872D01*
X144595487Y-105761500D01*
X144404513Y-105761500D01*
X144398061Y-105762872D01*
X144398056Y-105762872D01*
X144311112Y-105781353D01*
X144217712Y-105801206D01*
X144211682Y-105803891D01*
X144211681Y-105803891D01*
X144049278Y-105876197D01*
X144049276Y-105876198D01*
X144043248Y-105878882D01*
X144037907Y-105882762D01*
X144037906Y-105882763D01*
X143987843Y-105919136D01*
X143888747Y-105991134D01*
X143884326Y-105996044D01*
X143884325Y-105996045D01*
X143771695Y-106121134D01*
X143760960Y-106133056D01*
X143737347Y-106173955D01*
X143669703Y-106291118D01*
X143665473Y-106298444D01*
X143606458Y-106480072D01*
X143605768Y-106486633D01*
X143605768Y-106486635D01*
X143603967Y-106503768D01*
X143586496Y-106670000D01*
X141771392Y-106670000D01*
X141771597Y-106668051D01*
X141783314Y-106556565D01*
X141784004Y-106550000D01*
X141779145Y-106503767D01*
X141764732Y-106366635D01*
X141764732Y-106366633D01*
X141764042Y-106360072D01*
X141705027Y-106178444D01*
X141695839Y-106162529D01*
X141667814Y-106113990D01*
X141609540Y-106013056D01*
X141598806Y-106001134D01*
X141486175Y-105876045D01*
X141486174Y-105876044D01*
X141481753Y-105871134D01*
X141327252Y-105758882D01*
X141321224Y-105756198D01*
X141321222Y-105756197D01*
X141158819Y-105683891D01*
X141158818Y-105683891D01*
X141152788Y-105681206D01*
X141059388Y-105661353D01*
X140972444Y-105642872D01*
X140972439Y-105642872D01*
X140965987Y-105641500D01*
X140775013Y-105641500D01*
X140768561Y-105642872D01*
X140768556Y-105642872D01*
X140681613Y-105661353D01*
X140588212Y-105681206D01*
X140582182Y-105683891D01*
X140582181Y-105683891D01*
X140419778Y-105756197D01*
X140419776Y-105756198D01*
X140413748Y-105758882D01*
X140259247Y-105871134D01*
X140254826Y-105876044D01*
X140254825Y-105876045D01*
X140142195Y-106001134D01*
X140131460Y-106013056D01*
X140073186Y-106113990D01*
X140045162Y-106162529D01*
X140035973Y-106178444D01*
X139976958Y-106360072D01*
X139976268Y-106366633D01*
X139976268Y-106366635D01*
X139961855Y-106503767D01*
X139956996Y-106550000D01*
X128555193Y-106550000D01*
X128533414Y-106532800D01*
X128533410Y-106532798D01*
X128529359Y-106529598D01*
X128488053Y-106506796D01*
X128438084Y-106456364D01*
X128423312Y-106386921D01*
X128448428Y-106320516D01*
X128475780Y-106293909D01*
X128525915Y-106258148D01*
X128654860Y-106166173D01*
X128695129Y-106126045D01*
X128809435Y-106012137D01*
X128813096Y-106008489D01*
X128872594Y-105925689D01*
X128940435Y-105831277D01*
X128943453Y-105827077D01*
X128956918Y-105799834D01*
X129040136Y-105631453D01*
X129040137Y-105631451D01*
X129042430Y-105626811D01*
X129107370Y-105413069D01*
X129136529Y-105191590D01*
X129136611Y-105188240D01*
X129138074Y-105128365D01*
X129138074Y-105128361D01*
X129138156Y-105125000D01*
X129119852Y-104902361D01*
X129065431Y-104685702D01*
X128976354Y-104480840D01*
X128891710Y-104350000D01*
X146236496Y-104350000D01*
X146237186Y-104356565D01*
X146253955Y-104516109D01*
X146256458Y-104539928D01*
X146315473Y-104721556D01*
X146410960Y-104886944D01*
X146415375Y-104891847D01*
X146415589Y-104892142D01*
X146439447Y-104959010D01*
X146422771Y-105029201D01*
X146389654Y-105086562D01*
X146365473Y-105128444D01*
X146306458Y-105310072D01*
X146305768Y-105316633D01*
X146305768Y-105316635D01*
X146304527Y-105328444D01*
X146286496Y-105500000D01*
X146287186Y-105506565D01*
X146299304Y-105621857D01*
X146306458Y-105689928D01*
X146365473Y-105871556D01*
X146368776Y-105877278D01*
X146368777Y-105877279D01*
X146371943Y-105882763D01*
X146460960Y-106036944D01*
X146465378Y-106041851D01*
X146465379Y-106041852D01*
X146583214Y-106172721D01*
X146588747Y-106178866D01*
X146743248Y-106291118D01*
X146749276Y-106293802D01*
X146749278Y-106293803D01*
X146796279Y-106314729D01*
X146917712Y-106368794D01*
X147011113Y-106388647D01*
X147098056Y-106407128D01*
X147098061Y-106407128D01*
X147104513Y-106408500D01*
X147295487Y-106408500D01*
X147301939Y-106407128D01*
X147301944Y-106407128D01*
X147388887Y-106388647D01*
X147482288Y-106368794D01*
X147603721Y-106314729D01*
X147650722Y-106293803D01*
X147650724Y-106293802D01*
X147656752Y-106291118D01*
X147811253Y-106178866D01*
X147816786Y-106172721D01*
X147934621Y-106041852D01*
X147934622Y-106041851D01*
X147939040Y-106036944D01*
X148028057Y-105882763D01*
X148031223Y-105877279D01*
X148031224Y-105877278D01*
X148034527Y-105871556D01*
X148093542Y-105689928D01*
X148100697Y-105621857D01*
X148112814Y-105506565D01*
X148113504Y-105500000D01*
X148095473Y-105328444D01*
X148094232Y-105316635D01*
X148094232Y-105316633D01*
X148093542Y-105310072D01*
X148034527Y-105128444D01*
X147939040Y-104963056D01*
X147934625Y-104958153D01*
X147934411Y-104957858D01*
X147910553Y-104890990D01*
X147927229Y-104820799D01*
X147981223Y-104727279D01*
X147981224Y-104727278D01*
X147984527Y-104721556D01*
X148043542Y-104539928D01*
X148046046Y-104516109D01*
X148062814Y-104356565D01*
X148063504Y-104350000D01*
X148052735Y-104247540D01*
X148044232Y-104166635D01*
X148044232Y-104166633D01*
X148043542Y-104160072D01*
X147984527Y-103978444D01*
X147889040Y-103813056D01*
X147877791Y-103800562D01*
X147765675Y-103676045D01*
X147765674Y-103676044D01*
X147761253Y-103671134D01*
X147606752Y-103558882D01*
X147600724Y-103556198D01*
X147600722Y-103556197D01*
X147438319Y-103483891D01*
X147438318Y-103483891D01*
X147432288Y-103481206D01*
X147332861Y-103460072D01*
X147251944Y-103442872D01*
X147251939Y-103442872D01*
X147245487Y-103441500D01*
X147054513Y-103441500D01*
X147048061Y-103442872D01*
X147048056Y-103442872D01*
X146967139Y-103460072D01*
X146867712Y-103481206D01*
X146861682Y-103483891D01*
X146861681Y-103483891D01*
X146699278Y-103556197D01*
X146699276Y-103556198D01*
X146693248Y-103558882D01*
X146538747Y-103671134D01*
X146534326Y-103676044D01*
X146534325Y-103676045D01*
X146422210Y-103800562D01*
X146410960Y-103813056D01*
X146315473Y-103978444D01*
X146256458Y-104160072D01*
X146255768Y-104166633D01*
X146255768Y-104166635D01*
X146247265Y-104247540D01*
X146236496Y-104350000D01*
X128891710Y-104350000D01*
X128878038Y-104328866D01*
X128857822Y-104297617D01*
X128857820Y-104297614D01*
X128855014Y-104293277D01*
X128704670Y-104128051D01*
X128700619Y-104124852D01*
X128700615Y-104124848D01*
X128533414Y-103992800D01*
X128533410Y-103992798D01*
X128529359Y-103989598D01*
X128509154Y-103978444D01*
X128477136Y-103960769D01*
X128333789Y-103881638D01*
X128328920Y-103879914D01*
X128328916Y-103879912D01*
X128128087Y-103808795D01*
X128128083Y-103808794D01*
X128123212Y-103807069D01*
X128118119Y-103806162D01*
X128118116Y-103806161D01*
X127908373Y-103768800D01*
X127908367Y-103768799D01*
X127903284Y-103767894D01*
X127829452Y-103766992D01*
X127685081Y-103765228D01*
X127685079Y-103765228D01*
X127679911Y-103765165D01*
X127459091Y-103798955D01*
X127246756Y-103868357D01*
X127048607Y-103971507D01*
X127044474Y-103974610D01*
X127044471Y-103974612D01*
X126917205Y-104070166D01*
X126869965Y-104105635D01*
X126715629Y-104267138D01*
X126589743Y-104451680D01*
X126495688Y-104654305D01*
X126435989Y-104869570D01*
X126412251Y-105091695D01*
X126412548Y-105096848D01*
X126412548Y-105096851D01*
X126418011Y-105191590D01*
X126425110Y-105314715D01*
X126426247Y-105319761D01*
X126426248Y-105319767D01*
X126426914Y-105322721D01*
X126474222Y-105532639D01*
X126558266Y-105739616D01*
X126578645Y-105772872D01*
X126648091Y-105886197D01*
X126674987Y-105930088D01*
X126821250Y-106098938D01*
X126993126Y-106241632D01*
X127021390Y-106258148D01*
X127066445Y-106284476D01*
X127115169Y-106336114D01*
X127128240Y-106405897D01*
X127101509Y-106471669D01*
X127061055Y-106505027D01*
X127048607Y-106511507D01*
X127044474Y-106514610D01*
X127044471Y-106514612D01*
X126914572Y-106612143D01*
X126869965Y-106645635D01*
X126866393Y-106649373D01*
X126773588Y-106746488D01*
X126715629Y-106807138D01*
X126712715Y-106811410D01*
X126712714Y-106811411D01*
X126668514Y-106876206D01*
X126589743Y-106991680D01*
X126564867Y-107045271D01*
X126506248Y-107171556D01*
X126495688Y-107194305D01*
X126435989Y-107409570D01*
X126412251Y-107631695D01*
X126412548Y-107636848D01*
X126412548Y-107636851D01*
X126418011Y-107731590D01*
X126425110Y-107854715D01*
X126426247Y-107859761D01*
X126426248Y-107859767D01*
X126442012Y-107929715D01*
X126474222Y-108072639D01*
X126512461Y-108166811D01*
X126540904Y-108236857D01*
X126558266Y-108279616D01*
X126560965Y-108284020D01*
X126660396Y-108446277D01*
X126674987Y-108470088D01*
X126821250Y-108638938D01*
X126993126Y-108781632D01*
X127063595Y-108822811D01*
X127066445Y-108824476D01*
X127115169Y-108876114D01*
X127128240Y-108945897D01*
X127101509Y-109011669D01*
X127061055Y-109045027D01*
X127048607Y-109051507D01*
X127044474Y-109054610D01*
X127044471Y-109054612D01*
X126874100Y-109182530D01*
X126869965Y-109185635D01*
X126715629Y-109347138D01*
X126589743Y-109531680D01*
X126495688Y-109734305D01*
X126435989Y-109949570D01*
X126412251Y-110171695D01*
X126412548Y-110176848D01*
X126412548Y-110176851D01*
X126418011Y-110271590D01*
X126425110Y-110394715D01*
X126426247Y-110399761D01*
X126426248Y-110399767D01*
X126442012Y-110469715D01*
X126474222Y-110612639D01*
X126512461Y-110706811D01*
X126540904Y-110776857D01*
X126558266Y-110819616D01*
X126560965Y-110824020D01*
X126660396Y-110986277D01*
X126674987Y-111010088D01*
X126821250Y-111178938D01*
X126993126Y-111321632D01*
X127063595Y-111362811D01*
X127066445Y-111364476D01*
X127115169Y-111416114D01*
X127128240Y-111485897D01*
X127101509Y-111551669D01*
X127061055Y-111585027D01*
X127048607Y-111591507D01*
X127044474Y-111594610D01*
X127044471Y-111594612D01*
X126874100Y-111722530D01*
X126869965Y-111725635D01*
X126715629Y-111887138D01*
X126589743Y-112071680D01*
X126495688Y-112274305D01*
X126435989Y-112489570D01*
X126412251Y-112711695D01*
X126412548Y-112716848D01*
X126412548Y-112716851D01*
X126418011Y-112811590D01*
X126425110Y-112934715D01*
X126426247Y-112939761D01*
X126426248Y-112939767D01*
X126442012Y-113009715D01*
X126474222Y-113152639D01*
X126511663Y-113244846D01*
X126542302Y-113320300D01*
X126558266Y-113359616D01*
X126560965Y-113364020D01*
X126660396Y-113526277D01*
X126674987Y-113550088D01*
X126821250Y-113718938D01*
X126993126Y-113861632D01*
X127063595Y-113902811D01*
X127066445Y-113904476D01*
X127115169Y-113956114D01*
X127128240Y-114025897D01*
X127101509Y-114091669D01*
X127061055Y-114125027D01*
X127048607Y-114131507D01*
X127044474Y-114134610D01*
X127044471Y-114134612D01*
X126874100Y-114262530D01*
X126869965Y-114265635D01*
X126866393Y-114269373D01*
X126723220Y-114419195D01*
X126715629Y-114427138D01*
X126589743Y-114611680D01*
X126495688Y-114814305D01*
X126435989Y-115029570D01*
X126412251Y-115251695D01*
X122491115Y-115251695D01*
X122432704Y-115215901D01*
X122428768Y-115214173D01*
X122185873Y-115107549D01*
X122185869Y-115107548D01*
X122181945Y-115105825D01*
X121918566Y-115030800D01*
X121914324Y-115030196D01*
X121914318Y-115030195D01*
X121713834Y-115001662D01*
X121647443Y-114992213D01*
X121503589Y-114991460D01*
X121377877Y-114990802D01*
X121377871Y-114990802D01*
X121373591Y-114990780D01*
X121369347Y-114991339D01*
X121369343Y-114991339D01*
X121250302Y-115007011D01*
X121102078Y-115026525D01*
X121097938Y-115027658D01*
X121097936Y-115027658D01*
X121025008Y-115047609D01*
X120837928Y-115098788D01*
X120833980Y-115100472D01*
X120589982Y-115204546D01*
X120589978Y-115204548D01*
X120586030Y-115206232D01*
X120500220Y-115257588D01*
X120354725Y-115344664D01*
X120354721Y-115344667D01*
X120351043Y-115346868D01*
X120137318Y-115518094D01*
X120045819Y-115614514D01*
X119960138Y-115704803D01*
X119948808Y-115716742D01*
X119789002Y-115939136D01*
X119660857Y-116181161D01*
X119659385Y-116185184D01*
X119659383Y-116185188D01*
X119597939Y-116353090D01*
X119566743Y-116438337D01*
X119508404Y-116705907D01*
X119486917Y-116978918D01*
X119008500Y-116978918D01*
X119008500Y-98351695D01*
X126412251Y-98351695D01*
X126412548Y-98356848D01*
X126412548Y-98356851D01*
X126418011Y-98451590D01*
X126425110Y-98574715D01*
X126426247Y-98579761D01*
X126426248Y-98579767D01*
X126446119Y-98667939D01*
X126474222Y-98792639D01*
X126558266Y-98999616D01*
X126674987Y-99190088D01*
X126821250Y-99358938D01*
X126825230Y-99362242D01*
X126829981Y-99366187D01*
X126869616Y-99425090D01*
X126871113Y-99496071D01*
X126833997Y-99556593D01*
X126793724Y-99581112D01*
X126678295Y-99624385D01*
X126561739Y-99711739D01*
X126474385Y-99828295D01*
X126423255Y-99964684D01*
X126416500Y-100026866D01*
X126416500Y-101823134D01*
X126423255Y-101885316D01*
X126474385Y-102021705D01*
X126561739Y-102138261D01*
X126678295Y-102225615D01*
X126814684Y-102276745D01*
X126876866Y-102283500D01*
X128673134Y-102283500D01*
X128735316Y-102276745D01*
X128871705Y-102225615D01*
X128988261Y-102138261D01*
X129075615Y-102021705D01*
X129126745Y-101885316D01*
X129133500Y-101823134D01*
X129133500Y-101810000D01*
X139786496Y-101810000D01*
X139787186Y-101816565D01*
X139789722Y-101840689D01*
X139806458Y-101999928D01*
X139865473Y-102181556D01*
X139868776Y-102187278D01*
X139868777Y-102187279D01*
X139892730Y-102228767D01*
X139960960Y-102346944D01*
X139965378Y-102351851D01*
X139965379Y-102351852D01*
X140084325Y-102483955D01*
X140088747Y-102488866D01*
X140243248Y-102601118D01*
X140249276Y-102603802D01*
X140249278Y-102603803D01*
X140411681Y-102676109D01*
X140417712Y-102678794D01*
X140511112Y-102698647D01*
X140598056Y-102717128D01*
X140598061Y-102717128D01*
X140604513Y-102718500D01*
X140795487Y-102718500D01*
X140801939Y-102717128D01*
X140801944Y-102717128D01*
X140888888Y-102698647D01*
X140982288Y-102678794D01*
X140988319Y-102676109D01*
X141150722Y-102603803D01*
X141150724Y-102603802D01*
X141156752Y-102601118D01*
X141311253Y-102488866D01*
X141315675Y-102483955D01*
X141434621Y-102351852D01*
X141434622Y-102351851D01*
X141439040Y-102346944D01*
X141507270Y-102228767D01*
X141531223Y-102187279D01*
X141531224Y-102187278D01*
X141534527Y-102181556D01*
X141593542Y-101999928D01*
X141597739Y-101960000D01*
X153186496Y-101960000D01*
X153206458Y-102149928D01*
X153265473Y-102331556D01*
X153268776Y-102337278D01*
X153268777Y-102337279D01*
X153300679Y-102392534D01*
X153360960Y-102496944D01*
X153365378Y-102501851D01*
X153365379Y-102501852D01*
X153457176Y-102603803D01*
X153488747Y-102638866D01*
X153643248Y-102751118D01*
X153649276Y-102753802D01*
X153649278Y-102753803D01*
X153811681Y-102826109D01*
X153817712Y-102828794D01*
X153911112Y-102848647D01*
X153998056Y-102867128D01*
X153998061Y-102867128D01*
X154004513Y-102868500D01*
X154195487Y-102868500D01*
X154195487Y-102870748D01*
X154255112Y-102881655D01*
X154306956Y-102930160D01*
X154324346Y-102998994D01*
X154301762Y-103066302D01*
X154292080Y-103078494D01*
X154260960Y-103113056D01*
X154165473Y-103278444D01*
X154106458Y-103460072D01*
X154105768Y-103466633D01*
X154105768Y-103466635D01*
X154096355Y-103556197D01*
X154086496Y-103650000D01*
X154087186Y-103656565D01*
X154104235Y-103818774D01*
X154106458Y-103839928D01*
X154165473Y-104021556D01*
X154260960Y-104186944D01*
X154265378Y-104191851D01*
X154265379Y-104191852D01*
X154360610Y-104297617D01*
X154388747Y-104328866D01*
X154543248Y-104441118D01*
X154549276Y-104443802D01*
X154549278Y-104443803D01*
X154643134Y-104485590D01*
X154717712Y-104518794D01*
X154817139Y-104539928D01*
X154898057Y-104557128D01*
X154898060Y-104557128D01*
X154904513Y-104558500D01*
X154911114Y-104558500D01*
X154915920Y-104559005D01*
X154981577Y-104586018D01*
X155022208Y-104644239D01*
X155024911Y-104715184D01*
X154988830Y-104776328D01*
X154928948Y-104807562D01*
X154817712Y-104831206D01*
X154811682Y-104833891D01*
X154811681Y-104833891D01*
X154649278Y-104906197D01*
X154649276Y-104906198D01*
X154643248Y-104908882D01*
X154488747Y-105021134D01*
X154360960Y-105163056D01*
X154265473Y-105328444D01*
X154206458Y-105510072D01*
X154205768Y-105516633D01*
X154205768Y-105516635D01*
X154188471Y-105681206D01*
X154186496Y-105700000D01*
X154187186Y-105706565D01*
X154205129Y-105877279D01*
X154206458Y-105889928D01*
X154265473Y-106071556D01*
X154360960Y-106236944D01*
X154365378Y-106241851D01*
X154365379Y-106241852D01*
X154477734Y-106366635D01*
X154488747Y-106378866D01*
X154549108Y-106422721D01*
X154637078Y-106486635D01*
X154643248Y-106491118D01*
X154649276Y-106493802D01*
X154649278Y-106493803D01*
X154779419Y-106551745D01*
X154817712Y-106568794D01*
X154901045Y-106586507D01*
X154998056Y-106607128D01*
X154998061Y-106607128D01*
X155004513Y-106608500D01*
X155195487Y-106608500D01*
X155201939Y-106607128D01*
X155201944Y-106607128D01*
X155298955Y-106586507D01*
X155382288Y-106568794D01*
X155420581Y-106551745D01*
X155550722Y-106493803D01*
X155550724Y-106493802D01*
X155556752Y-106491118D01*
X155562923Y-106486635D01*
X155650892Y-106422721D01*
X155711253Y-106378866D01*
X155722266Y-106366635D01*
X155834621Y-106241852D01*
X155834622Y-106241851D01*
X155839040Y-106236944D01*
X155934527Y-106071556D01*
X155993542Y-105889928D01*
X155994872Y-105877279D01*
X156012814Y-105706565D01*
X156013504Y-105700000D01*
X156011529Y-105681206D01*
X155994232Y-105516635D01*
X155994232Y-105516633D01*
X155993542Y-105510072D01*
X155934527Y-105328444D01*
X155839040Y-105163056D01*
X155711253Y-105021134D01*
X155556752Y-104908882D01*
X155550724Y-104906198D01*
X155550722Y-104906197D01*
X155388319Y-104833891D01*
X155388318Y-104833891D01*
X155382288Y-104831206D01*
X155264513Y-104806172D01*
X155201943Y-104792872D01*
X155201940Y-104792872D01*
X155195487Y-104791500D01*
X155188886Y-104791500D01*
X155184080Y-104790995D01*
X155118423Y-104763982D01*
X155077792Y-104705761D01*
X155075089Y-104634816D01*
X155111170Y-104573672D01*
X155171052Y-104542438D01*
X155282288Y-104518794D01*
X155356866Y-104485590D01*
X155450722Y-104443803D01*
X155450724Y-104443802D01*
X155456752Y-104441118D01*
X155611253Y-104328866D01*
X155639390Y-104297617D01*
X155734621Y-104191852D01*
X155734622Y-104191851D01*
X155739040Y-104186944D01*
X155834527Y-104021556D01*
X155893542Y-103839928D01*
X155895766Y-103818774D01*
X155912814Y-103656565D01*
X155913504Y-103650000D01*
X155903645Y-103556197D01*
X155894232Y-103466635D01*
X155894232Y-103466633D01*
X155893542Y-103460072D01*
X155834527Y-103278444D01*
X155789237Y-103200000D01*
X159636496Y-103200000D01*
X159656458Y-103389928D01*
X159715473Y-103571556D01*
X159810960Y-103736944D01*
X159815378Y-103741851D01*
X159815379Y-103741852D01*
X159905435Y-103841869D01*
X159938747Y-103878866D01*
X159946002Y-103884137D01*
X160079815Y-103981358D01*
X160093248Y-103991118D01*
X160099276Y-103993802D01*
X160099278Y-103993803D01*
X160161613Y-104021556D01*
X160267712Y-104068794D01*
X160361113Y-104088647D01*
X160448056Y-104107128D01*
X160448061Y-104107128D01*
X160454513Y-104108500D01*
X160645487Y-104108500D01*
X160651939Y-104107128D01*
X160651944Y-104107128D01*
X160738887Y-104088647D01*
X160832288Y-104068794D01*
X160938387Y-104021556D01*
X161000722Y-103993803D01*
X161000724Y-103993802D01*
X161006752Y-103991118D01*
X161020186Y-103981358D01*
X161153998Y-103884137D01*
X161161253Y-103878866D01*
X161194565Y-103841869D01*
X161284621Y-103741852D01*
X161284622Y-103741851D01*
X161289040Y-103736944D01*
X161384527Y-103571556D01*
X161443542Y-103389928D01*
X161463504Y-103200000D01*
X161443542Y-103010072D01*
X161384527Y-102828444D01*
X161289040Y-102663056D01*
X161262838Y-102633955D01*
X161165675Y-102526045D01*
X161165674Y-102526044D01*
X161161253Y-102521134D01*
X161006752Y-102408882D01*
X161000724Y-102406198D01*
X161000722Y-102406197D01*
X160838319Y-102333891D01*
X160838318Y-102333891D01*
X160832288Y-102331206D01*
X160728636Y-102309174D01*
X160651944Y-102292872D01*
X160651939Y-102292872D01*
X160645487Y-102291500D01*
X160454513Y-102291500D01*
X160448061Y-102292872D01*
X160448056Y-102292872D01*
X160371364Y-102309174D01*
X160267712Y-102331206D01*
X160261682Y-102333891D01*
X160261681Y-102333891D01*
X160099278Y-102406197D01*
X160099276Y-102406198D01*
X160093248Y-102408882D01*
X159938747Y-102521134D01*
X159934326Y-102526044D01*
X159934325Y-102526045D01*
X159837163Y-102633955D01*
X159810960Y-102663056D01*
X159715473Y-102828444D01*
X159656458Y-103010072D01*
X159636496Y-103200000D01*
X155789237Y-103200000D01*
X155739040Y-103113056D01*
X155611253Y-102971134D01*
X155456752Y-102858882D01*
X155450724Y-102856198D01*
X155450722Y-102856197D01*
X155288319Y-102783891D01*
X155288318Y-102783891D01*
X155282288Y-102781206D01*
X155188887Y-102761353D01*
X155101944Y-102742872D01*
X155101939Y-102742872D01*
X155095487Y-102741500D01*
X154904513Y-102741500D01*
X154904513Y-102739252D01*
X154844888Y-102728345D01*
X154793044Y-102679840D01*
X154775654Y-102611006D01*
X154798238Y-102543698D01*
X154807920Y-102531506D01*
X154839040Y-102496944D01*
X154899321Y-102392534D01*
X154931223Y-102337279D01*
X154931224Y-102337278D01*
X154934527Y-102331556D01*
X154993542Y-102149928D01*
X155013504Y-101960000D01*
X155009667Y-101923489D01*
X154994232Y-101776635D01*
X154994232Y-101776633D01*
X154993542Y-101770072D01*
X154934527Y-101588444D01*
X154910284Y-101546453D01*
X154842341Y-101428774D01*
X154839040Y-101423056D01*
X154753514Y-101328069D01*
X154715675Y-101286045D01*
X154715674Y-101286044D01*
X154711253Y-101281134D01*
X154556752Y-101168882D01*
X154550724Y-101166198D01*
X154550722Y-101166197D01*
X154388319Y-101093891D01*
X154388318Y-101093891D01*
X154382288Y-101091206D01*
X154288887Y-101071353D01*
X154201944Y-101052872D01*
X154201939Y-101052872D01*
X154195487Y-101051500D01*
X154004513Y-101051500D01*
X153998061Y-101052872D01*
X153998056Y-101052872D01*
X153911112Y-101071353D01*
X153817712Y-101091206D01*
X153811682Y-101093891D01*
X153811681Y-101093891D01*
X153649278Y-101166197D01*
X153649276Y-101166198D01*
X153643248Y-101168882D01*
X153488747Y-101281134D01*
X153484326Y-101286044D01*
X153484325Y-101286045D01*
X153446487Y-101328069D01*
X153360960Y-101423056D01*
X153357659Y-101428774D01*
X153289717Y-101546453D01*
X153265473Y-101588444D01*
X153206458Y-101770072D01*
X153205768Y-101776633D01*
X153205768Y-101776635D01*
X153190333Y-101923489D01*
X153186496Y-101960000D01*
X141597739Y-101960000D01*
X141610279Y-101840689D01*
X141612814Y-101816565D01*
X141613504Y-101810000D01*
X141593542Y-101620072D01*
X141534527Y-101438444D01*
X141439040Y-101273056D01*
X141404565Y-101234767D01*
X141315675Y-101136045D01*
X141315674Y-101136044D01*
X141311253Y-101131134D01*
X141185818Y-101040000D01*
X141162094Y-101022763D01*
X141162093Y-101022762D01*
X141156752Y-101018882D01*
X141150724Y-101016198D01*
X141150722Y-101016197D01*
X140988319Y-100943891D01*
X140988318Y-100943891D01*
X140982288Y-100941206D01*
X140888888Y-100921353D01*
X140801944Y-100902872D01*
X140801939Y-100902872D01*
X140795487Y-100901500D01*
X140604513Y-100901500D01*
X140598061Y-100902872D01*
X140598056Y-100902872D01*
X140511113Y-100921353D01*
X140417712Y-100941206D01*
X140411682Y-100943891D01*
X140411681Y-100943891D01*
X140249278Y-101016197D01*
X140249276Y-101016198D01*
X140243248Y-101018882D01*
X140237907Y-101022762D01*
X140237906Y-101022763D01*
X140214182Y-101040000D01*
X140088747Y-101131134D01*
X140084326Y-101136044D01*
X140084325Y-101136045D01*
X139995436Y-101234767D01*
X139960960Y-101273056D01*
X139865473Y-101438444D01*
X139806458Y-101620072D01*
X139786496Y-101810000D01*
X129133500Y-101810000D01*
X129133500Y-100250000D01*
X146986496Y-100250000D01*
X147006458Y-100439928D01*
X147065473Y-100621556D01*
X147160960Y-100786944D01*
X147165378Y-100791851D01*
X147165379Y-100791852D01*
X147265342Y-100902872D01*
X147288747Y-100928866D01*
X147309427Y-100943891D01*
X147417985Y-101022763D01*
X147443248Y-101041118D01*
X147449276Y-101043802D01*
X147449278Y-101043803D01*
X147611681Y-101116109D01*
X147617712Y-101118794D01*
X147698871Y-101136045D01*
X147798056Y-101157128D01*
X147798061Y-101157128D01*
X147804513Y-101158500D01*
X147995487Y-101158500D01*
X148001939Y-101157128D01*
X148001944Y-101157128D01*
X148101129Y-101136045D01*
X148182288Y-101118794D01*
X148188319Y-101116109D01*
X148350722Y-101043803D01*
X148350724Y-101043802D01*
X148356752Y-101041118D01*
X148382016Y-101022763D01*
X148404132Y-101006695D01*
X162137251Y-101006695D01*
X162137548Y-101011848D01*
X162137548Y-101011851D01*
X162144202Y-101127251D01*
X162150110Y-101229715D01*
X162151247Y-101234761D01*
X162151248Y-101234767D01*
X162171119Y-101322939D01*
X162199222Y-101447639D01*
X162283266Y-101654616D01*
X162285965Y-101659020D01*
X162386534Y-101823134D01*
X162399987Y-101845088D01*
X162546250Y-102013938D01*
X162718126Y-102156632D01*
X162911000Y-102269338D01*
X162915825Y-102271180D01*
X162915826Y-102271181D01*
X162947120Y-102283131D01*
X163119692Y-102349030D01*
X163124760Y-102350061D01*
X163124763Y-102350062D01*
X163232017Y-102371883D01*
X163338597Y-102393567D01*
X163343772Y-102393757D01*
X163343774Y-102393757D01*
X163556673Y-102401564D01*
X163556677Y-102401564D01*
X163561837Y-102401753D01*
X163566957Y-102401097D01*
X163566959Y-102401097D01*
X163778288Y-102374025D01*
X163778289Y-102374025D01*
X163783416Y-102373368D01*
X163788366Y-102371883D01*
X163992429Y-102310661D01*
X163992434Y-102310659D01*
X163997384Y-102309174D01*
X164197994Y-102210896D01*
X164379860Y-102081173D01*
X164538096Y-101923489D01*
X164597594Y-101840689D01*
X164665435Y-101746277D01*
X164668453Y-101742077D01*
X164741277Y-101594729D01*
X164765136Y-101546453D01*
X164765137Y-101546451D01*
X164767430Y-101541811D01*
X164832370Y-101328069D01*
X164861529Y-101106590D01*
X164861905Y-101091206D01*
X164863074Y-101043365D01*
X164863074Y-101043361D01*
X164863156Y-101040000D01*
X164844852Y-100817361D01*
X164790431Y-100600702D01*
X164701354Y-100395840D01*
X164580014Y-100208277D01*
X164429670Y-100043051D01*
X164425619Y-100039852D01*
X164425615Y-100039848D01*
X164258414Y-99907800D01*
X164258410Y-99907798D01*
X164254359Y-99904598D01*
X164213053Y-99881796D01*
X164163084Y-99831364D01*
X164148312Y-99761921D01*
X164173428Y-99695516D01*
X164200780Y-99668909D01*
X164267619Y-99621233D01*
X164379860Y-99541173D01*
X164383729Y-99537318D01*
X164465133Y-99456197D01*
X164538096Y-99383489D01*
X164553364Y-99362242D01*
X164665435Y-99206277D01*
X164668453Y-99202077D01*
X164674379Y-99190088D01*
X164765136Y-99006453D01*
X164765137Y-99006451D01*
X164767430Y-99001811D01*
X164803875Y-98881857D01*
X164830865Y-98793023D01*
X164830865Y-98793021D01*
X164832370Y-98788069D01*
X164861529Y-98566590D01*
X164863156Y-98500000D01*
X164844852Y-98277361D01*
X164790431Y-98060702D01*
X164701354Y-97855840D01*
X164608093Y-97711680D01*
X164582822Y-97672617D01*
X164582820Y-97672614D01*
X164580014Y-97668277D01*
X164429670Y-97503051D01*
X164425619Y-97499852D01*
X164425615Y-97499848D01*
X164258414Y-97367800D01*
X164258410Y-97367798D01*
X164254359Y-97364598D01*
X164213053Y-97341796D01*
X164163084Y-97291364D01*
X164148312Y-97221921D01*
X164173428Y-97155516D01*
X164200780Y-97128909D01*
X164244603Y-97097650D01*
X164379860Y-97001173D01*
X164419540Y-96961632D01*
X164492254Y-96889171D01*
X164538096Y-96843489D01*
X164597594Y-96760689D01*
X164665435Y-96666277D01*
X164668453Y-96662077D01*
X164674379Y-96650088D01*
X164765136Y-96466453D01*
X164765137Y-96466451D01*
X164767430Y-96461811D01*
X164809689Y-96322721D01*
X164830865Y-96253023D01*
X164830865Y-96253021D01*
X164832370Y-96248069D01*
X164861529Y-96026590D01*
X164863156Y-95960000D01*
X164844852Y-95737361D01*
X164790431Y-95520702D01*
X164701354Y-95315840D01*
X164608093Y-95171680D01*
X164582822Y-95132617D01*
X164582820Y-95132614D01*
X164580014Y-95128277D01*
X164429670Y-94963051D01*
X164425619Y-94959852D01*
X164425615Y-94959848D01*
X164258414Y-94827800D01*
X164258410Y-94827798D01*
X164254359Y-94824598D01*
X164213053Y-94801796D01*
X164163084Y-94751364D01*
X164148312Y-94681921D01*
X164173428Y-94615516D01*
X164200780Y-94588909D01*
X164244603Y-94557650D01*
X164379860Y-94461173D01*
X164419540Y-94421632D01*
X164492254Y-94349171D01*
X164538096Y-94303489D01*
X164580985Y-94243803D01*
X164665435Y-94126277D01*
X164668453Y-94122077D01*
X164674379Y-94110088D01*
X164765136Y-93926453D01*
X164765137Y-93926451D01*
X164767430Y-93921811D01*
X164826795Y-93726419D01*
X164830865Y-93713023D01*
X164830865Y-93713021D01*
X164832370Y-93708069D01*
X164861529Y-93486590D01*
X164862423Y-93450000D01*
X164863074Y-93423365D01*
X164863074Y-93423361D01*
X164863156Y-93420000D01*
X164844852Y-93197361D01*
X164790431Y-92980702D01*
X164701354Y-92775840D01*
X164626957Y-92660840D01*
X164582822Y-92592617D01*
X164582820Y-92592614D01*
X164580014Y-92588277D01*
X164429670Y-92423051D01*
X164425619Y-92419852D01*
X164425615Y-92419848D01*
X164258414Y-92287800D01*
X164258410Y-92287798D01*
X164254359Y-92284598D01*
X164213053Y-92261796D01*
X164163084Y-92211364D01*
X164148312Y-92141921D01*
X164173428Y-92075516D01*
X164200780Y-92048909D01*
X164244603Y-92017650D01*
X164379860Y-91921173D01*
X164419540Y-91881632D01*
X164492254Y-91809171D01*
X164538096Y-91763489D01*
X164586444Y-91696206D01*
X164665435Y-91586277D01*
X164668453Y-91582077D01*
X164674379Y-91570088D01*
X164765136Y-91386453D01*
X164765137Y-91386451D01*
X164767430Y-91381811D01*
X164803875Y-91261857D01*
X164830865Y-91173023D01*
X164830865Y-91173021D01*
X164832370Y-91168069D01*
X164861529Y-90946590D01*
X164863156Y-90880000D01*
X164844852Y-90657361D01*
X164790431Y-90440702D01*
X164701354Y-90235840D01*
X164608093Y-90091680D01*
X164582822Y-90052617D01*
X164582820Y-90052614D01*
X164580014Y-90048277D01*
X164576532Y-90044450D01*
X164432798Y-89886488D01*
X164401746Y-89822642D01*
X164410141Y-89752143D01*
X164455317Y-89697375D01*
X164481761Y-89683706D01*
X164588297Y-89643767D01*
X164596705Y-89640615D01*
X164713261Y-89553261D01*
X164800615Y-89436705D01*
X164851745Y-89300316D01*
X164858500Y-89238134D01*
X164858500Y-88478918D01*
X167486917Y-88478918D01*
X167487334Y-88486156D01*
X167502682Y-88752320D01*
X167555405Y-89021053D01*
X167556792Y-89025103D01*
X167556793Y-89025108D01*
X167640355Y-89269171D01*
X167644112Y-89280144D01*
X167673238Y-89338054D01*
X167758891Y-89508357D01*
X167767160Y-89524799D01*
X167769586Y-89528328D01*
X167769589Y-89528334D01*
X167918937Y-89745635D01*
X167922274Y-89750490D01*
X167925161Y-89753663D01*
X167925162Y-89753664D01*
X168088596Y-89933277D01*
X168106582Y-89953043D01*
X168316675Y-90128707D01*
X168320316Y-90130991D01*
X168545024Y-90271951D01*
X168545028Y-90271953D01*
X168548664Y-90274234D01*
X168616544Y-90304883D01*
X168794345Y-90385164D01*
X168794349Y-90385166D01*
X168798257Y-90386930D01*
X168802377Y-90388150D01*
X168802376Y-90388150D01*
X169056723Y-90463491D01*
X169056727Y-90463492D01*
X169060836Y-90464709D01*
X169065070Y-90465357D01*
X169065075Y-90465358D01*
X169327298Y-90505483D01*
X169327300Y-90505483D01*
X169331540Y-90506132D01*
X169470912Y-90508322D01*
X169601071Y-90510367D01*
X169601077Y-90510367D01*
X169605362Y-90510434D01*
X169877235Y-90477534D01*
X170142127Y-90408041D01*
X170146087Y-90406401D01*
X170146092Y-90406399D01*
X170352373Y-90320954D01*
X170395136Y-90303241D01*
X170631582Y-90165073D01*
X170847089Y-89996094D01*
X170888809Y-89953043D01*
X171034686Y-89802509D01*
X171037669Y-89799431D01*
X171040202Y-89795983D01*
X171040206Y-89795978D01*
X171197257Y-89582178D01*
X171199795Y-89578723D01*
X171227154Y-89528334D01*
X171328418Y-89341830D01*
X171328419Y-89341828D01*
X171330468Y-89338054D01*
X171427269Y-89081877D01*
X171468173Y-88903279D01*
X171487449Y-88819117D01*
X171487450Y-88819113D01*
X171488407Y-88814933D01*
X171495858Y-88731453D01*
X171512531Y-88544627D01*
X171512531Y-88544625D01*
X171512751Y-88542161D01*
X171513193Y-88500000D01*
X171511465Y-88474648D01*
X171494859Y-88231055D01*
X171494858Y-88231049D01*
X171494567Y-88226778D01*
X171439032Y-87958612D01*
X171347617Y-87700465D01*
X171222013Y-87457112D01*
X171213700Y-87445283D01*
X171143279Y-87345085D01*
X171064545Y-87233057D01*
X170931235Y-87089598D01*
X170881046Y-87035588D01*
X170881043Y-87035585D01*
X170878125Y-87032445D01*
X170874810Y-87029731D01*
X170874806Y-87029728D01*
X170724946Y-86907069D01*
X170666205Y-86858990D01*
X170501847Y-86758272D01*
X170436366Y-86718145D01*
X170436365Y-86718145D01*
X170432704Y-86715901D01*
X170428768Y-86714173D01*
X170185873Y-86607549D01*
X170185869Y-86607548D01*
X170181945Y-86605825D01*
X169918566Y-86530800D01*
X169914324Y-86530196D01*
X169914318Y-86530195D01*
X169713834Y-86501662D01*
X169647443Y-86492213D01*
X169503589Y-86491460D01*
X169377877Y-86490802D01*
X169377871Y-86490802D01*
X169373591Y-86490780D01*
X169369347Y-86491339D01*
X169369343Y-86491339D01*
X169250302Y-86507011D01*
X169102078Y-86526525D01*
X169097938Y-86527658D01*
X169097936Y-86527658D01*
X169074918Y-86533955D01*
X168837928Y-86598788D01*
X168833980Y-86600472D01*
X168589982Y-86704546D01*
X168589978Y-86704548D01*
X168586030Y-86706232D01*
X168546039Y-86730166D01*
X168354725Y-86844664D01*
X168354721Y-86844667D01*
X168351043Y-86846868D01*
X168137318Y-87018094D01*
X168071833Y-87087101D01*
X167962295Y-87202530D01*
X167948808Y-87216742D01*
X167789002Y-87439136D01*
X167660857Y-87681161D01*
X167659385Y-87685184D01*
X167659383Y-87685188D01*
X167616872Y-87801355D01*
X167566743Y-87938337D01*
X167508404Y-88205907D01*
X167486917Y-88478918D01*
X164858500Y-88478918D01*
X164858500Y-87441866D01*
X164857826Y-87435657D01*
X164853693Y-87397617D01*
X164851745Y-87379684D01*
X164800615Y-87243295D01*
X164713261Y-87126739D01*
X164596705Y-87039385D01*
X164460316Y-86988255D01*
X164398134Y-86981500D01*
X162601866Y-86981500D01*
X162539684Y-86988255D01*
X162403295Y-87039385D01*
X162286739Y-87126739D01*
X162199385Y-87243295D01*
X162148255Y-87379684D01*
X162146307Y-87397617D01*
X162142175Y-87435657D01*
X162141500Y-87441866D01*
X162141500Y-89238134D01*
X162148255Y-89300316D01*
X162199385Y-89436705D01*
X162286739Y-89553261D01*
X162403295Y-89640615D01*
X162411704Y-89643767D01*
X162411705Y-89643768D01*
X162520451Y-89684535D01*
X162577216Y-89727176D01*
X162601916Y-89793738D01*
X162586709Y-89863087D01*
X162567316Y-89889568D01*
X162440629Y-90022138D01*
X162314743Y-90206680D01*
X162220688Y-90409305D01*
X162160989Y-90624570D01*
X162137251Y-90846695D01*
X162137548Y-90851848D01*
X162137548Y-90851851D01*
X162143960Y-90963056D01*
X162150110Y-91069715D01*
X162151247Y-91074761D01*
X162151248Y-91074767D01*
X162163345Y-91128444D01*
X162199222Y-91287639D01*
X162283266Y-91494616D01*
X162326819Y-91565689D01*
X162379795Y-91652137D01*
X162399987Y-91685088D01*
X162546250Y-91853938D01*
X162718126Y-91996632D01*
X162769960Y-92026921D01*
X162791445Y-92039476D01*
X162840169Y-92091114D01*
X162853240Y-92160897D01*
X162826509Y-92226669D01*
X162786055Y-92260027D01*
X162773607Y-92266507D01*
X162769474Y-92269610D01*
X162769471Y-92269612D01*
X162599100Y-92397530D01*
X162594965Y-92400635D01*
X162440629Y-92562138D01*
X162437715Y-92566410D01*
X162437714Y-92566411D01*
X162427622Y-92581206D01*
X162314743Y-92746680D01*
X162220688Y-92949305D01*
X162160989Y-93164570D01*
X162137251Y-93386695D01*
X162137548Y-93391848D01*
X162137548Y-93391851D01*
X162148854Y-93587939D01*
X162150110Y-93609715D01*
X162151247Y-93614761D01*
X162151248Y-93614767D01*
X162171119Y-93702939D01*
X162199222Y-93827639D01*
X162283266Y-94034616D01*
X162285965Y-94039020D01*
X162379795Y-94192137D01*
X162399987Y-94225088D01*
X162546250Y-94393938D01*
X162718126Y-94536632D01*
X162769960Y-94566921D01*
X162791445Y-94579476D01*
X162840169Y-94631114D01*
X162853240Y-94700897D01*
X162826509Y-94766669D01*
X162786055Y-94800027D01*
X162773607Y-94806507D01*
X162769474Y-94809610D01*
X162769471Y-94809612D01*
X162713189Y-94851870D01*
X162594965Y-94940635D01*
X162440629Y-95102138D01*
X162314743Y-95286680D01*
X162220688Y-95489305D01*
X162160989Y-95704570D01*
X162137251Y-95926695D01*
X162137548Y-95931848D01*
X162137548Y-95931851D01*
X162148854Y-96127939D01*
X162150110Y-96149715D01*
X162151247Y-96154761D01*
X162151248Y-96154767D01*
X162154405Y-96168774D01*
X162199222Y-96367639D01*
X162283266Y-96574616D01*
X162285965Y-96579020D01*
X162379795Y-96732137D01*
X162399987Y-96765088D01*
X162546250Y-96933938D01*
X162718126Y-97076632D01*
X162769960Y-97106921D01*
X162791445Y-97119476D01*
X162840169Y-97171114D01*
X162853240Y-97240897D01*
X162826509Y-97306669D01*
X162786055Y-97340027D01*
X162773607Y-97346507D01*
X162769474Y-97349610D01*
X162769471Y-97349612D01*
X162713189Y-97391870D01*
X162594965Y-97480635D01*
X162440629Y-97642138D01*
X162314743Y-97826680D01*
X162220688Y-98029305D01*
X162160989Y-98244570D01*
X162137251Y-98466695D01*
X162137548Y-98471848D01*
X162137548Y-98471851D01*
X162148854Y-98667939D01*
X162150110Y-98689715D01*
X162151247Y-98694761D01*
X162151248Y-98694767D01*
X162171119Y-98782939D01*
X162199222Y-98907639D01*
X162283266Y-99114616D01*
X162285965Y-99119020D01*
X162379795Y-99272137D01*
X162399987Y-99305088D01*
X162546250Y-99473938D01*
X162718126Y-99616632D01*
X162726000Y-99621233D01*
X162791445Y-99659476D01*
X162840169Y-99711114D01*
X162853240Y-99780897D01*
X162826509Y-99846669D01*
X162786055Y-99880027D01*
X162773607Y-99886507D01*
X162769474Y-99889610D01*
X162769471Y-99889612D01*
X162599100Y-100017530D01*
X162594965Y-100020635D01*
X162440629Y-100182138D01*
X162314743Y-100366680D01*
X162220688Y-100569305D01*
X162160989Y-100784570D01*
X162137251Y-101006695D01*
X148404132Y-101006695D01*
X148490573Y-100943891D01*
X148511253Y-100928866D01*
X148534658Y-100902872D01*
X148634621Y-100791852D01*
X148634622Y-100791851D01*
X148639040Y-100786944D01*
X148734527Y-100621556D01*
X148793542Y-100439928D01*
X148813504Y-100250000D01*
X148793542Y-100060072D01*
X148734527Y-99878444D01*
X148639040Y-99713056D01*
X148590797Y-99659476D01*
X148515675Y-99576045D01*
X148515674Y-99576044D01*
X148511253Y-99571134D01*
X148356752Y-99458882D01*
X148350724Y-99456198D01*
X148350722Y-99456197D01*
X148188319Y-99383891D01*
X148188318Y-99383891D01*
X148182288Y-99381206D01*
X148077526Y-99358938D01*
X148001944Y-99342872D01*
X148001939Y-99342872D01*
X147995487Y-99341500D01*
X147804513Y-99341500D01*
X147798061Y-99342872D01*
X147798056Y-99342872D01*
X147722474Y-99358938D01*
X147617712Y-99381206D01*
X147611682Y-99383891D01*
X147611681Y-99383891D01*
X147449278Y-99456197D01*
X147449276Y-99456198D01*
X147443248Y-99458882D01*
X147288747Y-99571134D01*
X147284326Y-99576044D01*
X147284325Y-99576045D01*
X147209204Y-99659476D01*
X147160960Y-99713056D01*
X147065473Y-99878444D01*
X147006458Y-100060072D01*
X146986496Y-100250000D01*
X129133500Y-100250000D01*
X129133500Y-100026866D01*
X129126745Y-99964684D01*
X129075615Y-99828295D01*
X128988261Y-99711739D01*
X128871705Y-99624385D01*
X128842208Y-99613327D01*
X128753203Y-99579960D01*
X128696439Y-99537318D01*
X128671739Y-99470756D01*
X128686947Y-99401408D01*
X128708493Y-99372727D01*
X128726251Y-99355031D01*
X128813096Y-99268489D01*
X128872594Y-99185689D01*
X128940435Y-99091277D01*
X128943453Y-99087077D01*
X129042430Y-98886811D01*
X129107370Y-98673069D01*
X129136529Y-98451590D01*
X129138156Y-98385000D01*
X129119852Y-98162361D01*
X129065431Y-97945702D01*
X128976354Y-97740840D01*
X128910083Y-97638401D01*
X128857822Y-97557617D01*
X128857820Y-97557614D01*
X128855014Y-97553277D01*
X128704670Y-97388051D01*
X128700619Y-97384852D01*
X128700615Y-97384848D01*
X128533414Y-97252800D01*
X128533410Y-97252798D01*
X128529359Y-97249598D01*
X128488053Y-97226796D01*
X128438084Y-97176364D01*
X128423312Y-97106921D01*
X128448428Y-97040516D01*
X128475780Y-97013909D01*
X128519603Y-96982650D01*
X128654860Y-96886173D01*
X128697694Y-96843489D01*
X128809435Y-96732137D01*
X128813096Y-96728489D01*
X128817441Y-96722443D01*
X128833568Y-96700000D01*
X149086496Y-96700000D01*
X149087186Y-96706565D01*
X149101961Y-96847137D01*
X149106458Y-96889928D01*
X149165473Y-97071556D01*
X149168776Y-97077278D01*
X149168777Y-97077279D01*
X149191593Y-97116797D01*
X149260960Y-97236944D01*
X149265378Y-97241851D01*
X149265379Y-97241852D01*
X149373654Y-97362104D01*
X149388747Y-97378866D01*
X149543248Y-97491118D01*
X149549276Y-97493802D01*
X149549278Y-97493803D01*
X149633748Y-97531411D01*
X149717712Y-97568794D01*
X149811112Y-97588647D01*
X149898056Y-97607128D01*
X149898061Y-97607128D01*
X149904513Y-97608500D01*
X150095487Y-97608500D01*
X150101939Y-97607128D01*
X150101944Y-97607128D01*
X150188888Y-97588647D01*
X150282288Y-97568794D01*
X150366252Y-97531411D01*
X150450722Y-97493803D01*
X150450724Y-97493802D01*
X150456752Y-97491118D01*
X150611253Y-97378866D01*
X150626346Y-97362104D01*
X150734621Y-97241852D01*
X150734622Y-97241851D01*
X150739040Y-97236944D01*
X150808407Y-97116797D01*
X150831223Y-97077279D01*
X150831224Y-97077278D01*
X150834527Y-97071556D01*
X150893542Y-96889928D01*
X150898040Y-96847137D01*
X150899690Y-96831433D01*
X150926703Y-96765776D01*
X150984925Y-96725146D01*
X151055870Y-96722443D01*
X151117014Y-96758525D01*
X151148944Y-96821936D01*
X151150310Y-96831433D01*
X151151961Y-96847137D01*
X151156458Y-96889928D01*
X151215473Y-97071556D01*
X151218776Y-97077278D01*
X151218777Y-97077279D01*
X151241593Y-97116797D01*
X151310960Y-97236944D01*
X151315378Y-97241851D01*
X151315379Y-97241852D01*
X151423654Y-97362104D01*
X151438747Y-97378866D01*
X151593248Y-97491118D01*
X151599276Y-97493802D01*
X151599278Y-97493803D01*
X151683748Y-97531411D01*
X151767712Y-97568794D01*
X151861112Y-97588647D01*
X151948056Y-97607128D01*
X151948061Y-97607128D01*
X151954513Y-97608500D01*
X152145487Y-97608500D01*
X152151939Y-97607128D01*
X152151944Y-97607128D01*
X152238888Y-97588647D01*
X152332288Y-97568794D01*
X152416252Y-97531411D01*
X152500722Y-97493803D01*
X152500724Y-97493802D01*
X152506752Y-97491118D01*
X152661253Y-97378866D01*
X152676346Y-97362104D01*
X152784621Y-97241852D01*
X152784622Y-97241851D01*
X152789040Y-97236944D01*
X152858407Y-97116797D01*
X152881223Y-97077279D01*
X152881224Y-97077278D01*
X152884527Y-97071556D01*
X152943542Y-96889928D01*
X152948040Y-96847137D01*
X152962814Y-96706565D01*
X152963504Y-96700000D01*
X152947873Y-96551277D01*
X152944232Y-96516635D01*
X152944232Y-96516633D01*
X152943542Y-96510072D01*
X152884527Y-96328444D01*
X152789040Y-96163056D01*
X152772375Y-96144547D01*
X152665675Y-96026045D01*
X152665674Y-96026044D01*
X152661253Y-96021134D01*
X152538366Y-95931851D01*
X152512094Y-95912763D01*
X152512093Y-95912762D01*
X152506752Y-95908882D01*
X152500724Y-95906198D01*
X152500722Y-95906197D01*
X152338319Y-95833891D01*
X152338318Y-95833891D01*
X152332288Y-95831206D01*
X152216348Y-95806562D01*
X152151944Y-95792872D01*
X152151939Y-95792872D01*
X152145487Y-95791500D01*
X151954513Y-95791500D01*
X151948061Y-95792872D01*
X151948056Y-95792872D01*
X151883652Y-95806562D01*
X151767712Y-95831206D01*
X151761682Y-95833891D01*
X151761681Y-95833891D01*
X151599278Y-95906197D01*
X151599276Y-95906198D01*
X151593248Y-95908882D01*
X151587907Y-95912762D01*
X151587906Y-95912763D01*
X151561634Y-95931851D01*
X151438747Y-96021134D01*
X151434326Y-96026044D01*
X151434325Y-96026045D01*
X151327626Y-96144547D01*
X151310960Y-96163056D01*
X151215473Y-96328444D01*
X151156458Y-96510072D01*
X151155768Y-96516633D01*
X151155768Y-96516635D01*
X151150310Y-96568567D01*
X151123297Y-96634224D01*
X151065075Y-96674854D01*
X150994130Y-96677557D01*
X150932986Y-96641475D01*
X150901056Y-96578064D01*
X150899690Y-96568567D01*
X150894232Y-96516635D01*
X150894232Y-96516633D01*
X150893542Y-96510072D01*
X150834527Y-96328444D01*
X150739040Y-96163056D01*
X150722375Y-96144547D01*
X150615675Y-96026045D01*
X150615674Y-96026044D01*
X150611253Y-96021134D01*
X150488366Y-95931851D01*
X150462094Y-95912763D01*
X150462093Y-95912762D01*
X150456752Y-95908882D01*
X150450724Y-95906198D01*
X150450722Y-95906197D01*
X150288319Y-95833891D01*
X150288318Y-95833891D01*
X150282288Y-95831206D01*
X150166348Y-95806562D01*
X150101944Y-95792872D01*
X150101939Y-95792872D01*
X150095487Y-95791500D01*
X149904513Y-95791500D01*
X149898061Y-95792872D01*
X149898056Y-95792872D01*
X149833652Y-95806562D01*
X149717712Y-95831206D01*
X149711682Y-95833891D01*
X149711681Y-95833891D01*
X149549278Y-95906197D01*
X149549276Y-95906198D01*
X149543248Y-95908882D01*
X149537907Y-95912762D01*
X149537906Y-95912763D01*
X149511634Y-95931851D01*
X149388747Y-96021134D01*
X149384326Y-96026044D01*
X149384325Y-96026045D01*
X149277626Y-96144547D01*
X149260960Y-96163056D01*
X149165473Y-96328444D01*
X149106458Y-96510072D01*
X149105768Y-96516633D01*
X149105768Y-96516635D01*
X149102127Y-96551277D01*
X149086496Y-96700000D01*
X128833568Y-96700000D01*
X128940435Y-96551277D01*
X128943453Y-96547077D01*
X128958499Y-96516635D01*
X129040136Y-96351453D01*
X129040137Y-96351451D01*
X129042430Y-96346811D01*
X129098259Y-96163056D01*
X129105865Y-96138023D01*
X129105865Y-96138021D01*
X129107370Y-96133069D01*
X129136529Y-95911590D01*
X129138156Y-95845000D01*
X129119852Y-95622361D01*
X129065431Y-95405702D01*
X128976354Y-95200840D01*
X128855014Y-95013277D01*
X128704670Y-94848051D01*
X128700619Y-94844852D01*
X128700615Y-94844848D01*
X128533414Y-94712800D01*
X128533410Y-94712798D01*
X128529359Y-94709598D01*
X128488053Y-94686796D01*
X128438084Y-94636364D01*
X128423312Y-94566921D01*
X128448428Y-94500516D01*
X128475780Y-94473909D01*
X128519603Y-94442650D01*
X128654860Y-94346173D01*
X128697694Y-94303489D01*
X128809435Y-94192137D01*
X128813096Y-94188489D01*
X128872594Y-94105689D01*
X128940435Y-94011277D01*
X128943453Y-94007077D01*
X128953404Y-93986944D01*
X129040136Y-93811453D01*
X129040137Y-93811451D01*
X129042430Y-93806811D01*
X129107370Y-93593069D01*
X129126206Y-93450000D01*
X149121996Y-93450000D01*
X149122686Y-93456565D01*
X149139314Y-93614767D01*
X149141958Y-93639928D01*
X149200973Y-93821556D01*
X149296460Y-93986944D01*
X149300878Y-93991851D01*
X149300879Y-93991852D01*
X149413957Y-94117438D01*
X149424247Y-94128866D01*
X149500534Y-94184292D01*
X149556685Y-94225088D01*
X149578748Y-94241118D01*
X149584776Y-94243802D01*
X149584778Y-94243803D01*
X149747181Y-94316109D01*
X149753212Y-94318794D01*
X149846612Y-94338647D01*
X149933556Y-94357128D01*
X149933561Y-94357128D01*
X149940013Y-94358500D01*
X150130987Y-94358500D01*
X150137439Y-94357128D01*
X150137444Y-94357128D01*
X150224388Y-94338647D01*
X150317788Y-94318794D01*
X150323819Y-94316109D01*
X150486222Y-94243803D01*
X150486224Y-94243802D01*
X150492252Y-94241118D01*
X150514316Y-94225088D01*
X150570466Y-94184292D01*
X150646753Y-94128866D01*
X150657043Y-94117438D01*
X150770121Y-93991852D01*
X150770122Y-93991851D01*
X150774540Y-93986944D01*
X150870027Y-93821556D01*
X150872069Y-93815271D01*
X150872071Y-93815267D01*
X150872918Y-93812660D01*
X150873817Y-93811345D01*
X150874753Y-93809243D01*
X150875137Y-93809414D01*
X150912992Y-93754055D01*
X150978389Y-93726419D01*
X151048346Y-93738527D01*
X151100651Y-93786534D01*
X151112582Y-93812660D01*
X151113429Y-93815267D01*
X151113431Y-93815271D01*
X151115473Y-93821556D01*
X151210960Y-93986944D01*
X151215378Y-93991851D01*
X151215379Y-93991852D01*
X151328457Y-94117438D01*
X151338747Y-94128866D01*
X151415034Y-94184292D01*
X151471185Y-94225088D01*
X151493248Y-94241118D01*
X151499276Y-94243802D01*
X151499278Y-94243803D01*
X151661681Y-94316109D01*
X151667712Y-94318794D01*
X151761112Y-94338647D01*
X151848056Y-94357128D01*
X151848061Y-94357128D01*
X151854513Y-94358500D01*
X152045487Y-94358500D01*
X152051939Y-94357128D01*
X152051944Y-94357128D01*
X152138888Y-94338647D01*
X152232288Y-94318794D01*
X152238319Y-94316109D01*
X152400722Y-94243803D01*
X152400724Y-94243802D01*
X152406752Y-94241118D01*
X152428816Y-94225088D01*
X152484966Y-94184292D01*
X152561253Y-94128866D01*
X152571543Y-94117438D01*
X152684621Y-93991852D01*
X152684622Y-93991851D01*
X152689040Y-93986944D01*
X152784527Y-93821556D01*
X152843542Y-93639928D01*
X152846187Y-93614767D01*
X152862814Y-93456565D01*
X152863504Y-93450000D01*
X152857392Y-93391851D01*
X152844232Y-93266635D01*
X152844232Y-93266633D01*
X152843542Y-93260072D01*
X152784527Y-93078444D01*
X152770823Y-93054707D01*
X152730993Y-92985720D01*
X152689040Y-92913056D01*
X152618133Y-92834305D01*
X152565675Y-92776045D01*
X152565674Y-92776044D01*
X152561253Y-92771134D01*
X152406752Y-92658882D01*
X152400724Y-92656198D01*
X152400722Y-92656197D01*
X152238319Y-92583891D01*
X152238318Y-92583891D01*
X152232288Y-92581206D01*
X152125000Y-92558401D01*
X152051944Y-92542872D01*
X152051939Y-92542872D01*
X152045487Y-92541500D01*
X151854513Y-92541500D01*
X151848061Y-92542872D01*
X151848056Y-92542872D01*
X151775000Y-92558401D01*
X151667712Y-92581206D01*
X151661682Y-92583891D01*
X151661681Y-92583891D01*
X151499278Y-92656197D01*
X151499276Y-92656198D01*
X151493248Y-92658882D01*
X151338747Y-92771134D01*
X151334326Y-92776044D01*
X151334325Y-92776045D01*
X151281868Y-92834305D01*
X151210960Y-92913056D01*
X151169007Y-92985720D01*
X151129178Y-93054707D01*
X151115473Y-93078444D01*
X151113431Y-93084728D01*
X151113429Y-93084733D01*
X151112582Y-93087340D01*
X151111683Y-93088655D01*
X151110747Y-93090757D01*
X151110363Y-93090586D01*
X151072508Y-93145945D01*
X151007111Y-93173581D01*
X150937154Y-93161473D01*
X150884849Y-93113466D01*
X150872918Y-93087340D01*
X150872071Y-93084733D01*
X150872069Y-93084728D01*
X150870027Y-93078444D01*
X150856323Y-93054707D01*
X150816493Y-92985720D01*
X150774540Y-92913056D01*
X150703633Y-92834305D01*
X150651175Y-92776045D01*
X150651174Y-92776044D01*
X150646753Y-92771134D01*
X150492252Y-92658882D01*
X150486224Y-92656198D01*
X150486222Y-92656197D01*
X150323819Y-92583891D01*
X150323818Y-92583891D01*
X150317788Y-92581206D01*
X150210500Y-92558401D01*
X150137444Y-92542872D01*
X150137439Y-92542872D01*
X150130987Y-92541500D01*
X149940013Y-92541500D01*
X149933561Y-92542872D01*
X149933556Y-92542872D01*
X149860500Y-92558401D01*
X149753212Y-92581206D01*
X149747182Y-92583891D01*
X149747181Y-92583891D01*
X149584778Y-92656197D01*
X149584776Y-92656198D01*
X149578748Y-92658882D01*
X149424247Y-92771134D01*
X149419826Y-92776044D01*
X149419825Y-92776045D01*
X149367368Y-92834305D01*
X149296460Y-92913056D01*
X149254507Y-92985720D01*
X149214678Y-93054707D01*
X149200973Y-93078444D01*
X149141958Y-93260072D01*
X149141268Y-93266633D01*
X149141268Y-93266635D01*
X149128108Y-93391851D01*
X149121996Y-93450000D01*
X129126206Y-93450000D01*
X129136529Y-93371590D01*
X129138156Y-93305000D01*
X129119852Y-93082361D01*
X129065431Y-92865702D01*
X128976354Y-92660840D01*
X128900037Y-92542872D01*
X128857822Y-92477617D01*
X128857820Y-92477614D01*
X128855014Y-92473277D01*
X128704670Y-92308051D01*
X128700619Y-92304852D01*
X128700615Y-92304848D01*
X128533414Y-92172800D01*
X128533410Y-92172798D01*
X128529359Y-92169598D01*
X128488053Y-92146796D01*
X128438084Y-92096364D01*
X128423312Y-92026921D01*
X128448428Y-91960516D01*
X128475780Y-91933909D01*
X128519603Y-91902650D01*
X128654860Y-91806173D01*
X128697694Y-91763489D01*
X128809435Y-91652137D01*
X128813096Y-91648489D01*
X128872594Y-91565689D01*
X128919796Y-91500000D01*
X158586496Y-91500000D01*
X158587186Y-91506565D01*
X158602103Y-91648489D01*
X158606458Y-91689928D01*
X158665473Y-91871556D01*
X158760960Y-92036944D01*
X158765378Y-92041851D01*
X158765379Y-92041852D01*
X158872568Y-92160897D01*
X158888747Y-92178866D01*
X158954542Y-92226669D01*
X159031428Y-92282530D01*
X159043248Y-92291118D01*
X159049276Y-92293802D01*
X159049278Y-92293803D01*
X159211681Y-92366109D01*
X159217712Y-92368794D01*
X159311113Y-92388647D01*
X159398056Y-92407128D01*
X159398061Y-92407128D01*
X159404513Y-92408500D01*
X159595487Y-92408500D01*
X159601939Y-92407128D01*
X159601944Y-92407128D01*
X159688887Y-92388647D01*
X159782288Y-92368794D01*
X159788319Y-92366109D01*
X159950722Y-92293803D01*
X159950724Y-92293802D01*
X159956752Y-92291118D01*
X159968573Y-92282530D01*
X160045458Y-92226669D01*
X160111253Y-92178866D01*
X160127432Y-92160897D01*
X160234621Y-92041852D01*
X160234622Y-92041851D01*
X160239040Y-92036944D01*
X160334527Y-91871556D01*
X160393542Y-91689928D01*
X160397898Y-91648489D01*
X160412814Y-91506565D01*
X160413504Y-91500000D01*
X160393542Y-91310072D01*
X160334527Y-91128444D01*
X160239040Y-90963056D01*
X160226877Y-90949547D01*
X160115675Y-90826045D01*
X160115674Y-90826044D01*
X160111253Y-90821134D01*
X159988151Y-90731695D01*
X159962094Y-90712763D01*
X159962093Y-90712762D01*
X159956752Y-90708882D01*
X159950724Y-90706198D01*
X159950722Y-90706197D01*
X159788319Y-90633891D01*
X159788318Y-90633891D01*
X159782288Y-90631206D01*
X159688888Y-90611353D01*
X159601944Y-90592872D01*
X159601939Y-90592872D01*
X159595487Y-90591500D01*
X159404513Y-90591500D01*
X159398061Y-90592872D01*
X159398056Y-90592872D01*
X159311112Y-90611353D01*
X159217712Y-90631206D01*
X159211682Y-90633891D01*
X159211681Y-90633891D01*
X159049278Y-90706197D01*
X159049276Y-90706198D01*
X159043248Y-90708882D01*
X159037907Y-90712762D01*
X159037906Y-90712763D01*
X159011849Y-90731695D01*
X158888747Y-90821134D01*
X158884326Y-90826044D01*
X158884325Y-90826045D01*
X158773124Y-90949547D01*
X158760960Y-90963056D01*
X158665473Y-91128444D01*
X158606458Y-91310072D01*
X158586496Y-91500000D01*
X128919796Y-91500000D01*
X128940435Y-91471277D01*
X128943453Y-91467077D01*
X129042430Y-91266811D01*
X129107370Y-91053069D01*
X129136529Y-90831590D01*
X129136611Y-90828240D01*
X129138074Y-90768365D01*
X129138074Y-90768361D01*
X129138156Y-90765000D01*
X129119852Y-90542361D01*
X129065431Y-90325702D01*
X128976354Y-90120840D01*
X128855014Y-89933277D01*
X128704670Y-89768051D01*
X128700619Y-89764852D01*
X128700615Y-89764848D01*
X128533414Y-89632800D01*
X128533410Y-89632798D01*
X128529359Y-89629598D01*
X128488053Y-89606796D01*
X128438084Y-89556364D01*
X128423312Y-89486921D01*
X128448428Y-89420516D01*
X128475780Y-89393909D01*
X128519603Y-89362650D01*
X128654860Y-89266173D01*
X128813096Y-89108489D01*
X128839652Y-89071533D01*
X128940435Y-88931277D01*
X128943453Y-88927077D01*
X129042430Y-88726811D01*
X129107370Y-88513069D01*
X129136529Y-88291590D01*
X129138156Y-88225000D01*
X129119852Y-88002361D01*
X129065431Y-87785702D01*
X128976354Y-87580840D01*
X128855014Y-87393277D01*
X128704670Y-87228051D01*
X128700619Y-87224852D01*
X128700615Y-87224848D01*
X128533414Y-87092800D01*
X128533410Y-87092798D01*
X128529359Y-87089598D01*
X128333789Y-86981638D01*
X128328920Y-86979914D01*
X128328916Y-86979912D01*
X128128087Y-86908795D01*
X128128083Y-86908794D01*
X128123212Y-86907069D01*
X128118119Y-86906162D01*
X128118116Y-86906161D01*
X127908373Y-86868800D01*
X127908367Y-86868799D01*
X127903284Y-86867894D01*
X127829452Y-86866992D01*
X127685081Y-86865228D01*
X127685079Y-86865228D01*
X127679911Y-86865165D01*
X127459091Y-86898955D01*
X127246756Y-86968357D01*
X127048607Y-87071507D01*
X127044474Y-87074610D01*
X127044471Y-87074612D01*
X126874100Y-87202530D01*
X126869965Y-87205635D01*
X126833976Y-87243295D01*
X126721279Y-87361226D01*
X126715629Y-87367138D01*
X126712715Y-87371410D01*
X126712714Y-87371411D01*
X126666970Y-87438469D01*
X126589743Y-87551680D01*
X126574003Y-87585590D01*
X126520680Y-87700465D01*
X126495688Y-87754305D01*
X126435989Y-87969570D01*
X126412251Y-88191695D01*
X126412548Y-88196848D01*
X126412548Y-88196851D01*
X126418011Y-88291590D01*
X126425110Y-88414715D01*
X126426247Y-88419761D01*
X126426248Y-88419767D01*
X126439579Y-88478918D01*
X126474222Y-88632639D01*
X126558266Y-88839616D01*
X126674987Y-89030088D01*
X126821250Y-89198938D01*
X126868462Y-89238134D01*
X126983977Y-89334036D01*
X126993126Y-89341632D01*
X127063595Y-89382811D01*
X127066445Y-89384476D01*
X127115169Y-89436114D01*
X127128240Y-89505897D01*
X127101509Y-89571669D01*
X127061055Y-89605027D01*
X127048607Y-89611507D01*
X127044474Y-89614610D01*
X127044471Y-89614612D01*
X126934241Y-89697375D01*
X126869965Y-89745635D01*
X126863746Y-89752143D01*
X126735363Y-89886488D01*
X126715629Y-89907138D01*
X126589743Y-90091680D01*
X126574003Y-90125590D01*
X126505005Y-90274234D01*
X126495688Y-90294305D01*
X126435989Y-90509570D01*
X126412251Y-90731695D01*
X126412548Y-90736848D01*
X126412548Y-90736851D01*
X126418011Y-90831590D01*
X126425110Y-90954715D01*
X126426247Y-90959761D01*
X126426248Y-90959767D01*
X126428278Y-90968774D01*
X126474222Y-91172639D01*
X126558266Y-91379616D01*
X126674987Y-91570088D01*
X126821250Y-91738938D01*
X126993126Y-91881632D01*
X127054557Y-91917529D01*
X127066445Y-91924476D01*
X127115169Y-91976114D01*
X127128240Y-92045897D01*
X127101509Y-92111669D01*
X127061055Y-92145027D01*
X127048607Y-92151507D01*
X127044474Y-92154610D01*
X127044471Y-92154612D01*
X126874100Y-92282530D01*
X126869965Y-92285635D01*
X126851605Y-92304848D01*
X126734998Y-92426870D01*
X126715629Y-92447138D01*
X126589743Y-92631680D01*
X126575315Y-92662763D01*
X126520622Y-92780590D01*
X126495688Y-92834305D01*
X126435989Y-93049570D01*
X126412251Y-93271695D01*
X126412548Y-93276848D01*
X126412548Y-93276851D01*
X126418011Y-93371590D01*
X126425110Y-93494715D01*
X126426247Y-93499761D01*
X126426248Y-93499767D01*
X126446119Y-93587939D01*
X126474222Y-93712639D01*
X126558266Y-93919616D01*
X126674987Y-94110088D01*
X126821250Y-94278938D01*
X126993126Y-94421632D01*
X127054557Y-94457529D01*
X127066445Y-94464476D01*
X127115169Y-94516114D01*
X127128240Y-94585897D01*
X127101509Y-94651669D01*
X127061055Y-94685027D01*
X127048607Y-94691507D01*
X127044474Y-94694610D01*
X127044471Y-94694612D01*
X126874100Y-94822530D01*
X126869965Y-94825635D01*
X126866393Y-94829373D01*
X126734998Y-94966870D01*
X126715629Y-94987138D01*
X126589743Y-95171680D01*
X126574003Y-95205590D01*
X126520622Y-95320590D01*
X126495688Y-95374305D01*
X126435989Y-95589570D01*
X126412251Y-95811695D01*
X126412548Y-95816848D01*
X126412548Y-95816851D01*
X126418011Y-95911590D01*
X126425110Y-96034715D01*
X126426247Y-96039761D01*
X126426248Y-96039767D01*
X126446119Y-96127939D01*
X126474222Y-96252639D01*
X126558266Y-96459616D01*
X126560965Y-96464020D01*
X126665266Y-96634224D01*
X126674987Y-96650088D01*
X126821250Y-96818938D01*
X126993126Y-96961632D01*
X127054557Y-96997529D01*
X127066445Y-97004476D01*
X127115169Y-97056114D01*
X127128240Y-97125897D01*
X127101509Y-97191669D01*
X127061055Y-97225027D01*
X127048607Y-97231507D01*
X127044474Y-97234610D01*
X127044471Y-97234612D01*
X126874100Y-97362530D01*
X126869965Y-97365635D01*
X126851605Y-97384848D01*
X126734998Y-97506870D01*
X126715629Y-97527138D01*
X126712715Y-97531410D01*
X126712714Y-97531411D01*
X126660128Y-97608500D01*
X126589743Y-97711680D01*
X126574003Y-97745590D01*
X126520622Y-97860590D01*
X126495688Y-97914305D01*
X126435989Y-98129570D01*
X126412251Y-98351695D01*
X119008500Y-98351695D01*
X119008500Y-88478918D01*
X119486917Y-88478918D01*
X119487334Y-88486156D01*
X119502682Y-88752320D01*
X119555405Y-89021053D01*
X119556792Y-89025103D01*
X119556793Y-89025108D01*
X119640355Y-89269171D01*
X119644112Y-89280144D01*
X119673238Y-89338054D01*
X119758891Y-89508357D01*
X119767160Y-89524799D01*
X119769586Y-89528328D01*
X119769589Y-89528334D01*
X119918937Y-89745635D01*
X119922274Y-89750490D01*
X119925161Y-89753663D01*
X119925162Y-89753664D01*
X120088596Y-89933277D01*
X120106582Y-89953043D01*
X120316675Y-90128707D01*
X120320316Y-90130991D01*
X120545024Y-90271951D01*
X120545028Y-90271953D01*
X120548664Y-90274234D01*
X120616544Y-90304883D01*
X120794345Y-90385164D01*
X120794349Y-90385166D01*
X120798257Y-90386930D01*
X120802377Y-90388150D01*
X120802376Y-90388150D01*
X121056723Y-90463491D01*
X121056727Y-90463492D01*
X121060836Y-90464709D01*
X121065070Y-90465357D01*
X121065075Y-90465358D01*
X121327298Y-90505483D01*
X121327300Y-90505483D01*
X121331540Y-90506132D01*
X121470912Y-90508322D01*
X121601071Y-90510367D01*
X121601077Y-90510367D01*
X121605362Y-90510434D01*
X121877235Y-90477534D01*
X122142127Y-90408041D01*
X122146087Y-90406401D01*
X122146092Y-90406399D01*
X122352373Y-90320954D01*
X122395136Y-90303241D01*
X122631582Y-90165073D01*
X122847089Y-89996094D01*
X122888809Y-89953043D01*
X123034686Y-89802509D01*
X123037669Y-89799431D01*
X123040202Y-89795983D01*
X123040206Y-89795978D01*
X123197257Y-89582178D01*
X123199795Y-89578723D01*
X123227154Y-89528334D01*
X123328418Y-89341830D01*
X123328419Y-89341828D01*
X123330468Y-89338054D01*
X123427269Y-89081877D01*
X123468173Y-88903279D01*
X123487449Y-88819117D01*
X123487450Y-88819113D01*
X123488407Y-88814933D01*
X123495858Y-88731453D01*
X123512531Y-88544627D01*
X123512531Y-88544625D01*
X123512751Y-88542161D01*
X123513193Y-88500000D01*
X123511465Y-88474648D01*
X123494859Y-88231055D01*
X123494858Y-88231049D01*
X123494567Y-88226778D01*
X123439032Y-87958612D01*
X123347617Y-87700465D01*
X123222013Y-87457112D01*
X123213700Y-87445283D01*
X123143279Y-87345085D01*
X123064545Y-87233057D01*
X122931235Y-87089598D01*
X122881046Y-87035588D01*
X122881043Y-87035585D01*
X122878125Y-87032445D01*
X122874810Y-87029731D01*
X122874806Y-87029728D01*
X122724946Y-86907069D01*
X122666205Y-86858990D01*
X122618897Y-86830000D01*
X147726496Y-86830000D01*
X147727186Y-86836565D01*
X147743421Y-86991029D01*
X147746458Y-87019928D01*
X147805473Y-87201556D01*
X147900960Y-87366944D01*
X147905378Y-87371851D01*
X147905379Y-87371852D01*
X147985575Y-87460919D01*
X148028747Y-87508866D01*
X148183248Y-87621118D01*
X148189276Y-87623802D01*
X148189278Y-87623803D01*
X148318107Y-87681161D01*
X148357712Y-87698794D01*
X148451112Y-87718647D01*
X148538056Y-87737128D01*
X148538061Y-87737128D01*
X148544513Y-87738500D01*
X148735487Y-87738500D01*
X148741939Y-87737128D01*
X148741944Y-87737128D01*
X148828888Y-87718647D01*
X148922288Y-87698794D01*
X148961893Y-87681161D01*
X149090722Y-87623803D01*
X149090724Y-87623802D01*
X149096752Y-87621118D01*
X149251253Y-87508866D01*
X149294425Y-87460919D01*
X149374621Y-87371852D01*
X149374622Y-87371851D01*
X149379040Y-87366944D01*
X149474527Y-87201556D01*
X149533542Y-87019928D01*
X149536580Y-86991029D01*
X149552814Y-86836565D01*
X149553504Y-86830000D01*
X149540496Y-86706232D01*
X149534232Y-86646635D01*
X149534232Y-86646633D01*
X149533542Y-86640072D01*
X149474527Y-86458444D01*
X149379040Y-86293056D01*
X149251253Y-86151134D01*
X149152157Y-86079136D01*
X149102094Y-86042763D01*
X149102093Y-86042762D01*
X149096752Y-86038882D01*
X149090724Y-86036198D01*
X149090722Y-86036197D01*
X148928319Y-85963891D01*
X148928318Y-85963891D01*
X148922288Y-85961206D01*
X148828888Y-85941353D01*
X148741944Y-85922872D01*
X148741939Y-85922872D01*
X148735487Y-85921500D01*
X148544513Y-85921500D01*
X148538061Y-85922872D01*
X148538056Y-85922872D01*
X148451112Y-85941353D01*
X148357712Y-85961206D01*
X148351682Y-85963891D01*
X148351681Y-85963891D01*
X148189278Y-86036197D01*
X148189276Y-86036198D01*
X148183248Y-86038882D01*
X148177907Y-86042762D01*
X148177906Y-86042763D01*
X148127843Y-86079136D01*
X148028747Y-86151134D01*
X147900960Y-86293056D01*
X147805473Y-86458444D01*
X147746458Y-86640072D01*
X147745768Y-86646633D01*
X147745768Y-86646635D01*
X147739504Y-86706232D01*
X147726496Y-86830000D01*
X122618897Y-86830000D01*
X122501847Y-86758272D01*
X122436366Y-86718145D01*
X122436365Y-86718145D01*
X122432704Y-86715901D01*
X122428768Y-86714173D01*
X122185873Y-86607549D01*
X122185869Y-86607548D01*
X122181945Y-86605825D01*
X121918566Y-86530800D01*
X121914324Y-86530196D01*
X121914318Y-86530195D01*
X121713834Y-86501662D01*
X121647443Y-86492213D01*
X121503589Y-86491460D01*
X121377877Y-86490802D01*
X121377871Y-86490802D01*
X121373591Y-86490780D01*
X121369347Y-86491339D01*
X121369343Y-86491339D01*
X121250302Y-86507011D01*
X121102078Y-86526525D01*
X121097938Y-86527658D01*
X121097936Y-86527658D01*
X121074918Y-86533955D01*
X120837928Y-86598788D01*
X120833980Y-86600472D01*
X120589982Y-86704546D01*
X120589978Y-86704548D01*
X120586030Y-86706232D01*
X120546039Y-86730166D01*
X120354725Y-86844664D01*
X120354721Y-86844667D01*
X120351043Y-86846868D01*
X120137318Y-87018094D01*
X120071833Y-87087101D01*
X119962295Y-87202530D01*
X119948808Y-87216742D01*
X119789002Y-87439136D01*
X119660857Y-87681161D01*
X119659385Y-87685184D01*
X119659383Y-87685188D01*
X119616872Y-87801355D01*
X119566743Y-87938337D01*
X119508404Y-88205907D01*
X119486917Y-88478918D01*
X119008500Y-88478918D01*
X119008500Y-85860000D01*
X149906496Y-85860000D01*
X149926458Y-86049928D01*
X149985473Y-86231556D01*
X150080960Y-86396944D01*
X150085378Y-86401851D01*
X150085379Y-86401852D01*
X150201484Y-86530800D01*
X150208747Y-86538866D01*
X150289664Y-86597656D01*
X150357078Y-86646635D01*
X150363248Y-86651118D01*
X150369276Y-86653802D01*
X150369278Y-86653803D01*
X150531681Y-86726109D01*
X150537712Y-86728794D01*
X150631112Y-86748647D01*
X150718056Y-86767128D01*
X150718061Y-86767128D01*
X150724513Y-86768500D01*
X150915487Y-86768500D01*
X150921939Y-86767128D01*
X150921944Y-86767128D01*
X151008888Y-86748647D01*
X151102288Y-86728794D01*
X151108319Y-86726109D01*
X151270722Y-86653803D01*
X151270724Y-86653802D01*
X151276752Y-86651118D01*
X151282923Y-86646635D01*
X151350336Y-86597656D01*
X151431253Y-86538866D01*
X151438516Y-86530800D01*
X151554621Y-86401852D01*
X151554622Y-86401851D01*
X151559040Y-86396944D01*
X151654527Y-86231556D01*
X151713542Y-86049928D01*
X151733504Y-85860000D01*
X151713542Y-85670072D01*
X151654527Y-85488444D01*
X151559040Y-85323056D01*
X151431253Y-85181134D01*
X151276752Y-85068882D01*
X151270724Y-85066198D01*
X151270722Y-85066197D01*
X151108319Y-84993891D01*
X151108318Y-84993891D01*
X151102288Y-84991206D01*
X151008887Y-84971353D01*
X150921944Y-84952872D01*
X150921939Y-84952872D01*
X150915487Y-84951500D01*
X150724513Y-84951500D01*
X150718061Y-84952872D01*
X150718056Y-84952872D01*
X150631113Y-84971353D01*
X150537712Y-84991206D01*
X150531682Y-84993891D01*
X150531681Y-84993891D01*
X150369278Y-85066197D01*
X150369276Y-85066198D01*
X150363248Y-85068882D01*
X150208747Y-85181134D01*
X150080960Y-85323056D01*
X149985473Y-85488444D01*
X149926458Y-85670072D01*
X149906496Y-85860000D01*
X119008500Y-85860000D01*
X119008500Y-81100118D01*
X121091500Y-81100118D01*
X121091702Y-81102626D01*
X121091702Y-81102631D01*
X121106034Y-81280759D01*
X121106446Y-81285882D01*
X121165885Y-81527873D01*
X121263249Y-81757248D01*
X121265947Y-81761532D01*
X121393148Y-81963524D01*
X121396033Y-81968106D01*
X121560822Y-82155022D01*
X121753375Y-82313187D01*
X121968738Y-82438531D01*
X122085055Y-82483181D01*
X122196643Y-82526016D01*
X122196646Y-82526017D01*
X122201372Y-82527831D01*
X122445290Y-82578788D01*
X122450339Y-82579017D01*
X122450345Y-82579018D01*
X122564004Y-82584179D01*
X122694218Y-82590092D01*
X122699238Y-82589511D01*
X122699242Y-82589511D01*
X122816026Y-82575998D01*
X122941750Y-82561451D01*
X122946624Y-82560072D01*
X122946628Y-82560071D01*
X123176651Y-82494981D01*
X123176653Y-82494980D01*
X123181520Y-82493603D01*
X123186095Y-82491469D01*
X123186102Y-82491467D01*
X123402776Y-82390429D01*
X123407357Y-82388293D01*
X123411537Y-82385452D01*
X123411541Y-82385450D01*
X123609264Y-82251078D01*
X123609265Y-82251077D01*
X123613453Y-82248231D01*
X123617545Y-82244362D01*
X123790824Y-82080500D01*
X123794504Y-82077020D01*
X123861884Y-81988890D01*
X123942779Y-81883084D01*
X123942782Y-81883080D01*
X123945852Y-81879064D01*
X124063604Y-81659457D01*
X124108913Y-81527873D01*
X124143082Y-81428638D01*
X124144731Y-81423849D01*
X124162482Y-81321079D01*
X124186469Y-81182211D01*
X124186470Y-81182205D01*
X124187144Y-81178301D01*
X124188500Y-81148441D01*
X124188500Y-81100118D01*
X126171500Y-81100118D01*
X126171702Y-81102626D01*
X126171702Y-81102631D01*
X126186034Y-81280759D01*
X126186446Y-81285882D01*
X126245885Y-81527873D01*
X126343249Y-81757248D01*
X126345947Y-81761532D01*
X126473148Y-81963524D01*
X126476033Y-81968106D01*
X126640822Y-82155022D01*
X126833375Y-82313187D01*
X127048738Y-82438531D01*
X127165055Y-82483181D01*
X127276643Y-82526016D01*
X127276646Y-82526017D01*
X127281372Y-82527831D01*
X127525290Y-82578788D01*
X127530339Y-82579017D01*
X127530345Y-82579018D01*
X127644004Y-82584179D01*
X127774218Y-82590092D01*
X127779238Y-82589511D01*
X127779242Y-82589511D01*
X127896026Y-82575998D01*
X128021750Y-82561451D01*
X128026624Y-82560072D01*
X128026628Y-82560071D01*
X128256651Y-82494981D01*
X128256653Y-82494980D01*
X128261520Y-82493603D01*
X128266095Y-82491469D01*
X128266102Y-82491467D01*
X128482776Y-82390429D01*
X128487357Y-82388293D01*
X128491537Y-82385452D01*
X128491541Y-82385450D01*
X128689264Y-82251078D01*
X128689265Y-82251077D01*
X128693453Y-82248231D01*
X128697545Y-82244362D01*
X128870824Y-82080500D01*
X128874504Y-82077020D01*
X128941884Y-81988890D01*
X129022779Y-81883084D01*
X129022782Y-81883080D01*
X129025852Y-81879064D01*
X129143604Y-81659457D01*
X129188913Y-81527873D01*
X129223082Y-81428638D01*
X129224731Y-81423849D01*
X129242482Y-81321079D01*
X129266469Y-81182211D01*
X129266470Y-81182205D01*
X129267144Y-81178301D01*
X129268500Y-81148441D01*
X129268500Y-81097572D01*
X131252000Y-81097572D01*
X131252202Y-81102604D01*
X131266536Y-81280759D01*
X131268148Y-81290712D01*
X131325154Y-81522800D01*
X131328337Y-81532370D01*
X131421718Y-81752360D01*
X131426392Y-81761299D01*
X131553739Y-81963524D01*
X131559780Y-81971599D01*
X131717827Y-82150868D01*
X131725079Y-82157871D01*
X131909750Y-82309562D01*
X131918033Y-82315318D01*
X132124579Y-82435531D01*
X132133684Y-82439893D01*
X132356785Y-82525534D01*
X132366474Y-82528385D01*
X132528264Y-82562185D01*
X132542325Y-82561062D01*
X132546000Y-82550954D01*
X132546000Y-82548358D01*
X133054000Y-82548358D01*
X133058136Y-82562444D01*
X133071114Y-82564493D01*
X133096631Y-82561540D01*
X133106521Y-82559581D01*
X133336476Y-82494511D01*
X133345927Y-82490997D01*
X133562528Y-82389994D01*
X133571292Y-82385015D01*
X133768951Y-82250686D01*
X133776815Y-82244362D01*
X133950451Y-82080164D01*
X133957210Y-82072657D01*
X134102357Y-81882812D01*
X134107821Y-81874333D01*
X134220752Y-81663717D01*
X134224792Y-81654471D01*
X134302596Y-81428513D01*
X134305107Y-81418732D01*
X134345969Y-81182166D01*
X134346824Y-81174294D01*
X134347936Y-81149815D01*
X134348000Y-81146982D01*
X134348000Y-81100118D01*
X136331500Y-81100118D01*
X136331702Y-81102626D01*
X136331702Y-81102631D01*
X136346034Y-81280759D01*
X136346446Y-81285882D01*
X136405885Y-81527873D01*
X136503249Y-81757248D01*
X136505947Y-81761532D01*
X136633148Y-81963524D01*
X136636033Y-81968106D01*
X136800822Y-82155022D01*
X136993375Y-82313187D01*
X137208738Y-82438531D01*
X137325055Y-82483181D01*
X137436643Y-82526016D01*
X137436646Y-82526017D01*
X137441372Y-82527831D01*
X137685290Y-82578788D01*
X137690339Y-82579017D01*
X137690345Y-82579018D01*
X137804004Y-82584179D01*
X137934218Y-82590092D01*
X137939238Y-82589511D01*
X137939242Y-82589511D01*
X138056026Y-82575998D01*
X138181750Y-82561451D01*
X138186624Y-82560072D01*
X138186628Y-82560071D01*
X138416651Y-82494981D01*
X138416653Y-82494980D01*
X138421520Y-82493603D01*
X138426095Y-82491469D01*
X138426102Y-82491467D01*
X138642776Y-82390429D01*
X138647357Y-82388293D01*
X138651537Y-82385452D01*
X138651541Y-82385450D01*
X138849264Y-82251078D01*
X138849265Y-82251077D01*
X138853453Y-82248231D01*
X138857545Y-82244362D01*
X139030824Y-82080500D01*
X139034504Y-82077020D01*
X139101884Y-81988890D01*
X139182779Y-81883084D01*
X139182782Y-81883080D01*
X139185852Y-81879064D01*
X139303604Y-81659457D01*
X139348913Y-81527873D01*
X139383082Y-81428638D01*
X139384731Y-81423849D01*
X139402482Y-81321079D01*
X139426469Y-81182211D01*
X139426470Y-81182205D01*
X139427144Y-81178301D01*
X139428500Y-81148441D01*
X139428500Y-81097572D01*
X141412000Y-81097572D01*
X141412202Y-81102604D01*
X141426536Y-81280759D01*
X141428148Y-81290712D01*
X141485154Y-81522800D01*
X141488337Y-81532370D01*
X141581718Y-81752360D01*
X141586392Y-81761299D01*
X141713739Y-81963524D01*
X141719780Y-81971599D01*
X141877827Y-82150868D01*
X141885079Y-82157871D01*
X142069750Y-82309562D01*
X142078033Y-82315318D01*
X142284579Y-82435531D01*
X142293684Y-82439893D01*
X142516785Y-82525534D01*
X142526474Y-82528385D01*
X142688264Y-82562185D01*
X142702325Y-82561062D01*
X142706000Y-82550954D01*
X142706000Y-82548358D01*
X143214000Y-82548358D01*
X143218136Y-82562444D01*
X143231114Y-82564493D01*
X143256631Y-82561540D01*
X143266521Y-82559581D01*
X143496476Y-82494511D01*
X143505927Y-82490997D01*
X143722528Y-82389994D01*
X143731292Y-82385015D01*
X143928951Y-82250686D01*
X143936815Y-82244362D01*
X144110451Y-82080164D01*
X144117210Y-82072657D01*
X144262357Y-81882812D01*
X144267821Y-81874333D01*
X144380752Y-81663717D01*
X144384792Y-81654471D01*
X144462596Y-81428513D01*
X144465107Y-81418732D01*
X144505969Y-81182166D01*
X144506824Y-81174294D01*
X144507936Y-81149815D01*
X144508000Y-81146982D01*
X144508000Y-81100118D01*
X146491500Y-81100118D01*
X146491702Y-81102626D01*
X146491702Y-81102631D01*
X146506034Y-81280759D01*
X146506446Y-81285882D01*
X146565885Y-81527873D01*
X146663249Y-81757248D01*
X146665947Y-81761532D01*
X146793148Y-81963524D01*
X146796033Y-81968106D01*
X146960822Y-82155022D01*
X147153375Y-82313187D01*
X147368738Y-82438531D01*
X147485055Y-82483181D01*
X147596643Y-82526016D01*
X147596646Y-82526017D01*
X147601372Y-82527831D01*
X147845290Y-82578788D01*
X147850339Y-82579017D01*
X147850345Y-82579018D01*
X147964004Y-82584179D01*
X148094218Y-82590092D01*
X148099238Y-82589511D01*
X148099242Y-82589511D01*
X148216026Y-82575998D01*
X148341750Y-82561451D01*
X148346624Y-82560072D01*
X148346628Y-82560071D01*
X148576651Y-82494981D01*
X148576653Y-82494980D01*
X148581520Y-82493603D01*
X148586095Y-82491469D01*
X148586102Y-82491467D01*
X148802776Y-82390429D01*
X148807357Y-82388293D01*
X148811537Y-82385452D01*
X148811541Y-82385450D01*
X149009264Y-82251078D01*
X149009265Y-82251077D01*
X149013453Y-82248231D01*
X149017545Y-82244362D01*
X149190824Y-82080500D01*
X149194504Y-82077020D01*
X149261884Y-81988890D01*
X149342779Y-81883084D01*
X149342782Y-81883080D01*
X149345852Y-81879064D01*
X149463604Y-81659457D01*
X149508913Y-81527873D01*
X149543082Y-81428638D01*
X149544731Y-81423849D01*
X149562482Y-81321079D01*
X149586469Y-81182211D01*
X149586470Y-81182205D01*
X149587144Y-81178301D01*
X149588500Y-81148441D01*
X149588500Y-81097572D01*
X151572000Y-81097572D01*
X151572202Y-81102604D01*
X151586536Y-81280759D01*
X151588148Y-81290712D01*
X151645154Y-81522800D01*
X151648337Y-81532370D01*
X151741718Y-81752360D01*
X151746392Y-81761299D01*
X151873739Y-81963524D01*
X151879780Y-81971599D01*
X152037827Y-82150868D01*
X152045079Y-82157871D01*
X152229750Y-82309562D01*
X152238033Y-82315318D01*
X152444579Y-82435531D01*
X152453684Y-82439893D01*
X152676785Y-82525534D01*
X152686474Y-82528385D01*
X152848264Y-82562185D01*
X152862325Y-82561062D01*
X152866000Y-82550954D01*
X152866000Y-82548358D01*
X153374000Y-82548358D01*
X153378136Y-82562444D01*
X153391114Y-82564493D01*
X153416631Y-82561540D01*
X153426521Y-82559581D01*
X153656476Y-82494511D01*
X153665927Y-82490997D01*
X153882528Y-82389994D01*
X153891292Y-82385015D01*
X154088951Y-82250686D01*
X154096815Y-82244362D01*
X154270451Y-82080164D01*
X154277210Y-82072657D01*
X154422357Y-81882812D01*
X154427821Y-81874333D01*
X154540752Y-81663717D01*
X154544792Y-81654471D01*
X154622596Y-81428513D01*
X154625107Y-81418732D01*
X154665969Y-81182166D01*
X154666824Y-81174294D01*
X154667936Y-81149815D01*
X154668000Y-81146982D01*
X154668000Y-81100118D01*
X156651500Y-81100118D01*
X156651702Y-81102626D01*
X156651702Y-81102631D01*
X156666034Y-81280759D01*
X156666446Y-81285882D01*
X156725885Y-81527873D01*
X156823249Y-81757248D01*
X156825947Y-81761532D01*
X156953148Y-81963524D01*
X156956033Y-81968106D01*
X157120822Y-82155022D01*
X157313375Y-82313187D01*
X157528738Y-82438531D01*
X157645055Y-82483181D01*
X157756643Y-82526016D01*
X157756646Y-82526017D01*
X157761372Y-82527831D01*
X158005290Y-82578788D01*
X158010339Y-82579017D01*
X158010345Y-82579018D01*
X158124004Y-82584179D01*
X158254218Y-82590092D01*
X158259238Y-82589511D01*
X158259242Y-82589511D01*
X158376026Y-82575998D01*
X158501750Y-82561451D01*
X158506624Y-82560072D01*
X158506628Y-82560071D01*
X158736651Y-82494981D01*
X158736653Y-82494980D01*
X158741520Y-82493603D01*
X158746095Y-82491469D01*
X158746102Y-82491467D01*
X158962776Y-82390429D01*
X158967357Y-82388293D01*
X158971537Y-82385452D01*
X158971541Y-82385450D01*
X159169264Y-82251078D01*
X159169265Y-82251077D01*
X159173453Y-82248231D01*
X159177545Y-82244362D01*
X159350824Y-82080500D01*
X159354504Y-82077020D01*
X159421884Y-81988890D01*
X159502779Y-81883084D01*
X159502782Y-81883080D01*
X159505852Y-81879064D01*
X159623604Y-81659457D01*
X159668913Y-81527873D01*
X159703082Y-81428638D01*
X159704731Y-81423849D01*
X159722482Y-81321079D01*
X159746469Y-81182211D01*
X159746470Y-81182205D01*
X159747144Y-81178301D01*
X159748500Y-81148441D01*
X159748500Y-81097572D01*
X161732000Y-81097572D01*
X161732202Y-81102604D01*
X161746536Y-81280759D01*
X161748148Y-81290712D01*
X161805154Y-81522800D01*
X161808337Y-81532370D01*
X161901718Y-81752360D01*
X161906392Y-81761299D01*
X162033739Y-81963524D01*
X162039780Y-81971599D01*
X162197827Y-82150868D01*
X162205079Y-82157871D01*
X162389750Y-82309562D01*
X162398033Y-82315318D01*
X162604579Y-82435531D01*
X162613684Y-82439893D01*
X162836785Y-82525534D01*
X162846474Y-82528385D01*
X163008264Y-82562185D01*
X163022325Y-82561062D01*
X163026000Y-82550954D01*
X163026000Y-82548358D01*
X163534000Y-82548358D01*
X163538136Y-82562444D01*
X163551114Y-82564493D01*
X163576631Y-82561540D01*
X163586521Y-82559581D01*
X163816476Y-82494511D01*
X163825927Y-82490997D01*
X164042528Y-82389994D01*
X164051292Y-82385015D01*
X164248951Y-82250686D01*
X164256815Y-82244362D01*
X164430451Y-82080164D01*
X164437210Y-82072657D01*
X164582357Y-81882812D01*
X164587821Y-81874333D01*
X164700752Y-81663717D01*
X164704792Y-81654471D01*
X164782596Y-81428513D01*
X164785107Y-81418732D01*
X164825969Y-81182166D01*
X164826824Y-81174294D01*
X164827936Y-81149815D01*
X164828000Y-81146982D01*
X164828000Y-80549615D01*
X164823525Y-80534376D01*
X164822135Y-80533171D01*
X164814452Y-80531500D01*
X163552115Y-80531500D01*
X163536876Y-80535975D01*
X163535671Y-80537365D01*
X163534000Y-80545048D01*
X163534000Y-82548358D01*
X163026000Y-82548358D01*
X163026000Y-80549615D01*
X163021525Y-80534376D01*
X163020135Y-80533171D01*
X163012452Y-80531500D01*
X161750115Y-80531500D01*
X161734876Y-80535975D01*
X161733671Y-80537365D01*
X161732000Y-80545048D01*
X161732000Y-81097572D01*
X159748500Y-81097572D01*
X159748500Y-80005385D01*
X161732000Y-80005385D01*
X161736475Y-80020624D01*
X161737865Y-80021829D01*
X161745548Y-80023500D01*
X163007885Y-80023500D01*
X163023124Y-80019025D01*
X163024329Y-80017635D01*
X163026000Y-80009952D01*
X163026000Y-80005385D01*
X163534000Y-80005385D01*
X163538475Y-80020624D01*
X163539865Y-80021829D01*
X163547548Y-80023500D01*
X164809885Y-80023500D01*
X164825124Y-80019025D01*
X164826329Y-80017635D01*
X164828000Y-80009952D01*
X164828000Y-79457428D01*
X164827798Y-79452396D01*
X164813464Y-79274241D01*
X164811852Y-79264288D01*
X164754846Y-79032200D01*
X164751663Y-79022630D01*
X164658282Y-78802640D01*
X164653608Y-78793701D01*
X164580180Y-78677099D01*
X166811500Y-78677099D01*
X166811501Y-81877900D01*
X166822474Y-81983667D01*
X166824658Y-81990213D01*
X166875730Y-82143292D01*
X166878450Y-82151446D01*
X166971521Y-82301849D01*
X166976703Y-82307022D01*
X166979661Y-82309975D01*
X167096697Y-82426806D01*
X167117928Y-82439893D01*
X167201597Y-82491467D01*
X167247261Y-82519615D01*
X167327004Y-82546064D01*
X167408610Y-82573132D01*
X167408612Y-82573132D01*
X167415138Y-82575297D01*
X167421974Y-82575997D01*
X167421977Y-82575998D01*
X167465030Y-82580409D01*
X167519599Y-82586000D01*
X168353519Y-82586000D01*
X169200400Y-82585999D01*
X169306167Y-82575026D01*
X169386100Y-82548358D01*
X169467002Y-82521367D01*
X169467004Y-82521366D01*
X169473946Y-82519050D01*
X169624349Y-82425979D01*
X169749306Y-82300803D01*
X169842115Y-82150239D01*
X169897797Y-81982362D01*
X169908500Y-81877901D01*
X169908499Y-78677100D01*
X169897526Y-78571333D01*
X169865220Y-78474500D01*
X169843867Y-78410498D01*
X169843866Y-78410496D01*
X169841550Y-78403554D01*
X169748479Y-78253151D01*
X169740753Y-78245438D01*
X169661883Y-78166707D01*
X169623303Y-78128194D01*
X169519166Y-78064003D01*
X169478969Y-78039225D01*
X169478967Y-78039224D01*
X169472739Y-78035385D01*
X169352245Y-77995419D01*
X169311390Y-77981868D01*
X169311388Y-77981868D01*
X169304862Y-77979703D01*
X169298026Y-77979003D01*
X169298023Y-77979002D01*
X169254970Y-77974591D01*
X169200401Y-77969000D01*
X168366481Y-77969000D01*
X167519600Y-77969001D01*
X167413833Y-77979974D01*
X167407286Y-77982158D01*
X167407287Y-77982158D01*
X167252998Y-78033633D01*
X167252996Y-78033634D01*
X167246054Y-78035950D01*
X167095651Y-78129021D01*
X166970694Y-78254197D01*
X166877885Y-78404761D01*
X166822203Y-78572638D01*
X166811500Y-78677099D01*
X164580180Y-78677099D01*
X164526261Y-78591476D01*
X164520220Y-78583401D01*
X164362173Y-78404132D01*
X164354921Y-78397129D01*
X164170250Y-78245438D01*
X164161967Y-78239682D01*
X163955421Y-78119469D01*
X163946316Y-78115107D01*
X163723215Y-78029466D01*
X163713526Y-78026615D01*
X163551736Y-77992815D01*
X163537675Y-77993938D01*
X163534000Y-78004046D01*
X163534000Y-80005385D01*
X163026000Y-80005385D01*
X163026000Y-78006642D01*
X163021864Y-77992556D01*
X163008886Y-77990507D01*
X162983369Y-77993460D01*
X162973479Y-77995419D01*
X162743524Y-78060489D01*
X162734073Y-78064003D01*
X162517472Y-78165006D01*
X162508708Y-78169985D01*
X162311049Y-78304314D01*
X162303185Y-78310638D01*
X162129549Y-78474836D01*
X162122790Y-78482343D01*
X161977643Y-78672188D01*
X161972179Y-78680667D01*
X161859248Y-78891283D01*
X161855208Y-78900529D01*
X161777404Y-79126487D01*
X161774893Y-79136268D01*
X161734031Y-79372834D01*
X161733176Y-79380706D01*
X161732064Y-79405185D01*
X161732000Y-79408018D01*
X161732000Y-80005385D01*
X159748500Y-80005385D01*
X159748500Y-79454882D01*
X159748298Y-79452369D01*
X159733960Y-79274159D01*
X159733959Y-79274154D01*
X159733554Y-79269118D01*
X159674115Y-79027127D01*
X159576751Y-78797752D01*
X159489998Y-78659990D01*
X159446663Y-78591175D01*
X159446662Y-78591174D01*
X159443967Y-78586894D01*
X159279178Y-78399978D01*
X159086625Y-78241813D01*
X158871262Y-78116469D01*
X158727795Y-78061397D01*
X158643357Y-78028984D01*
X158643354Y-78028983D01*
X158638628Y-78027169D01*
X158394710Y-77976212D01*
X158389661Y-77975983D01*
X158389655Y-77975982D01*
X158275996Y-77970821D01*
X158145782Y-77964908D01*
X158140762Y-77965489D01*
X158140758Y-77965489D01*
X158050074Y-77975982D01*
X157898250Y-77993549D01*
X157893376Y-77994928D01*
X157893372Y-77994929D01*
X157663349Y-78060019D01*
X157663347Y-78060020D01*
X157658480Y-78061397D01*
X157653905Y-78063531D01*
X157653898Y-78063533D01*
X157504143Y-78133366D01*
X157432643Y-78166707D01*
X157428463Y-78169548D01*
X157428459Y-78169550D01*
X157230736Y-78303922D01*
X157226547Y-78306769D01*
X157222872Y-78310244D01*
X157222871Y-78310245D01*
X157131375Y-78396768D01*
X157045496Y-78477980D01*
X157042418Y-78482006D01*
X157042417Y-78482007D01*
X156897221Y-78671916D01*
X156897218Y-78671920D01*
X156894148Y-78675936D01*
X156776396Y-78895543D01*
X156774750Y-78900324D01*
X156774748Y-78900328D01*
X156729341Y-79032200D01*
X156695269Y-79131151D01*
X156694407Y-79136143D01*
X156670568Y-79274159D01*
X156652856Y-79376699D01*
X156651500Y-79406559D01*
X156651500Y-81100118D01*
X154668000Y-81100118D01*
X154668000Y-80549615D01*
X154663525Y-80534376D01*
X154662135Y-80533171D01*
X154654452Y-80531500D01*
X153392115Y-80531500D01*
X153376876Y-80535975D01*
X153375671Y-80537365D01*
X153374000Y-80545048D01*
X153374000Y-82548358D01*
X152866000Y-82548358D01*
X152866000Y-80549615D01*
X152861525Y-80534376D01*
X152860135Y-80533171D01*
X152852452Y-80531500D01*
X151590115Y-80531500D01*
X151574876Y-80535975D01*
X151573671Y-80537365D01*
X151572000Y-80545048D01*
X151572000Y-81097572D01*
X149588500Y-81097572D01*
X149588500Y-80005385D01*
X151572000Y-80005385D01*
X151576475Y-80020624D01*
X151577865Y-80021829D01*
X151585548Y-80023500D01*
X152847885Y-80023500D01*
X152863124Y-80019025D01*
X152864329Y-80017635D01*
X152866000Y-80009952D01*
X152866000Y-80005385D01*
X153374000Y-80005385D01*
X153378475Y-80020624D01*
X153379865Y-80021829D01*
X153387548Y-80023500D01*
X154649885Y-80023500D01*
X154665124Y-80019025D01*
X154666329Y-80017635D01*
X154668000Y-80009952D01*
X154668000Y-79457428D01*
X154667798Y-79452396D01*
X154653464Y-79274241D01*
X154651852Y-79264288D01*
X154594846Y-79032200D01*
X154591663Y-79022630D01*
X154498282Y-78802640D01*
X154493608Y-78793701D01*
X154366261Y-78591476D01*
X154360220Y-78583401D01*
X154202173Y-78404132D01*
X154194921Y-78397129D01*
X154010250Y-78245438D01*
X154001967Y-78239682D01*
X153795421Y-78119469D01*
X153786316Y-78115107D01*
X153563215Y-78029466D01*
X153553526Y-78026615D01*
X153391736Y-77992815D01*
X153377675Y-77993938D01*
X153374000Y-78004046D01*
X153374000Y-80005385D01*
X152866000Y-80005385D01*
X152866000Y-78006642D01*
X152861864Y-77992556D01*
X152848886Y-77990507D01*
X152823369Y-77993460D01*
X152813479Y-77995419D01*
X152583524Y-78060489D01*
X152574073Y-78064003D01*
X152357472Y-78165006D01*
X152348708Y-78169985D01*
X152151049Y-78304314D01*
X152143185Y-78310638D01*
X151969549Y-78474836D01*
X151962790Y-78482343D01*
X151817643Y-78672188D01*
X151812179Y-78680667D01*
X151699248Y-78891283D01*
X151695208Y-78900529D01*
X151617404Y-79126487D01*
X151614893Y-79136268D01*
X151574031Y-79372834D01*
X151573176Y-79380706D01*
X151572064Y-79405185D01*
X151572000Y-79408018D01*
X151572000Y-80005385D01*
X149588500Y-80005385D01*
X149588500Y-79454882D01*
X149588298Y-79452369D01*
X149573960Y-79274159D01*
X149573959Y-79274154D01*
X149573554Y-79269118D01*
X149514115Y-79027127D01*
X149416751Y-78797752D01*
X149329998Y-78659990D01*
X149286663Y-78591175D01*
X149286662Y-78591174D01*
X149283967Y-78586894D01*
X149119178Y-78399978D01*
X148926625Y-78241813D01*
X148711262Y-78116469D01*
X148567795Y-78061397D01*
X148483357Y-78028984D01*
X148483354Y-78028983D01*
X148478628Y-78027169D01*
X148234710Y-77976212D01*
X148229661Y-77975983D01*
X148229655Y-77975982D01*
X148115996Y-77970821D01*
X147985782Y-77964908D01*
X147980762Y-77965489D01*
X147980758Y-77965489D01*
X147890074Y-77975982D01*
X147738250Y-77993549D01*
X147733376Y-77994928D01*
X147733372Y-77994929D01*
X147503349Y-78060019D01*
X147503347Y-78060020D01*
X147498480Y-78061397D01*
X147493905Y-78063531D01*
X147493898Y-78063533D01*
X147344143Y-78133366D01*
X147272643Y-78166707D01*
X147268463Y-78169548D01*
X147268459Y-78169550D01*
X147070736Y-78303922D01*
X147066547Y-78306769D01*
X147062872Y-78310244D01*
X147062871Y-78310245D01*
X146971375Y-78396768D01*
X146885496Y-78477980D01*
X146882418Y-78482006D01*
X146882417Y-78482007D01*
X146737221Y-78671916D01*
X146737218Y-78671920D01*
X146734148Y-78675936D01*
X146616396Y-78895543D01*
X146614750Y-78900324D01*
X146614748Y-78900328D01*
X146569341Y-79032200D01*
X146535269Y-79131151D01*
X146534407Y-79136143D01*
X146510568Y-79274159D01*
X146492856Y-79376699D01*
X146491500Y-79406559D01*
X146491500Y-81100118D01*
X144508000Y-81100118D01*
X144508000Y-80549615D01*
X144503525Y-80534376D01*
X144502135Y-80533171D01*
X144494452Y-80531500D01*
X143232115Y-80531500D01*
X143216876Y-80535975D01*
X143215671Y-80537365D01*
X143214000Y-80545048D01*
X143214000Y-82548358D01*
X142706000Y-82548358D01*
X142706000Y-80549615D01*
X142701525Y-80534376D01*
X142700135Y-80533171D01*
X142692452Y-80531500D01*
X141430115Y-80531500D01*
X141414876Y-80535975D01*
X141413671Y-80537365D01*
X141412000Y-80545048D01*
X141412000Y-81097572D01*
X139428500Y-81097572D01*
X139428500Y-80005385D01*
X141412000Y-80005385D01*
X141416475Y-80020624D01*
X141417865Y-80021829D01*
X141425548Y-80023500D01*
X142687885Y-80023500D01*
X142703124Y-80019025D01*
X142704329Y-80017635D01*
X142706000Y-80009952D01*
X142706000Y-80005385D01*
X143214000Y-80005385D01*
X143218475Y-80020624D01*
X143219865Y-80021829D01*
X143227548Y-80023500D01*
X144489885Y-80023500D01*
X144505124Y-80019025D01*
X144506329Y-80017635D01*
X144508000Y-80009952D01*
X144508000Y-79457428D01*
X144507798Y-79452396D01*
X144493464Y-79274241D01*
X144491852Y-79264288D01*
X144434846Y-79032200D01*
X144431663Y-79022630D01*
X144338282Y-78802640D01*
X144333608Y-78793701D01*
X144206261Y-78591476D01*
X144200220Y-78583401D01*
X144042173Y-78404132D01*
X144034921Y-78397129D01*
X143850250Y-78245438D01*
X143841967Y-78239682D01*
X143635421Y-78119469D01*
X143626316Y-78115107D01*
X143403215Y-78029466D01*
X143393526Y-78026615D01*
X143231736Y-77992815D01*
X143217675Y-77993938D01*
X143214000Y-78004046D01*
X143214000Y-80005385D01*
X142706000Y-80005385D01*
X142706000Y-78006642D01*
X142701864Y-77992556D01*
X142688886Y-77990507D01*
X142663369Y-77993460D01*
X142653479Y-77995419D01*
X142423524Y-78060489D01*
X142414073Y-78064003D01*
X142197472Y-78165006D01*
X142188708Y-78169985D01*
X141991049Y-78304314D01*
X141983185Y-78310638D01*
X141809549Y-78474836D01*
X141802790Y-78482343D01*
X141657643Y-78672188D01*
X141652179Y-78680667D01*
X141539248Y-78891283D01*
X141535208Y-78900529D01*
X141457404Y-79126487D01*
X141454893Y-79136268D01*
X141414031Y-79372834D01*
X141413176Y-79380706D01*
X141412064Y-79405185D01*
X141412000Y-79408018D01*
X141412000Y-80005385D01*
X139428500Y-80005385D01*
X139428500Y-79454882D01*
X139428298Y-79452369D01*
X139413960Y-79274159D01*
X139413959Y-79274154D01*
X139413554Y-79269118D01*
X139354115Y-79027127D01*
X139256751Y-78797752D01*
X139169998Y-78659990D01*
X139126663Y-78591175D01*
X139126662Y-78591174D01*
X139123967Y-78586894D01*
X138959178Y-78399978D01*
X138766625Y-78241813D01*
X138551262Y-78116469D01*
X138407795Y-78061397D01*
X138323357Y-78028984D01*
X138323354Y-78028983D01*
X138318628Y-78027169D01*
X138074710Y-77976212D01*
X138069661Y-77975983D01*
X138069655Y-77975982D01*
X137955996Y-77970821D01*
X137825782Y-77964908D01*
X137820762Y-77965489D01*
X137820758Y-77965489D01*
X137730074Y-77975982D01*
X137578250Y-77993549D01*
X137573376Y-77994928D01*
X137573372Y-77994929D01*
X137343349Y-78060019D01*
X137343347Y-78060020D01*
X137338480Y-78061397D01*
X137333905Y-78063531D01*
X137333898Y-78063533D01*
X137184143Y-78133366D01*
X137112643Y-78166707D01*
X137108463Y-78169548D01*
X137108459Y-78169550D01*
X136910736Y-78303922D01*
X136906547Y-78306769D01*
X136902872Y-78310244D01*
X136902871Y-78310245D01*
X136811375Y-78396768D01*
X136725496Y-78477980D01*
X136722418Y-78482006D01*
X136722417Y-78482007D01*
X136577221Y-78671916D01*
X136577218Y-78671920D01*
X136574148Y-78675936D01*
X136456396Y-78895543D01*
X136454750Y-78900324D01*
X136454748Y-78900328D01*
X136409341Y-79032200D01*
X136375269Y-79131151D01*
X136374407Y-79136143D01*
X136350568Y-79274159D01*
X136332856Y-79376699D01*
X136331500Y-79406559D01*
X136331500Y-81100118D01*
X134348000Y-81100118D01*
X134348000Y-80549615D01*
X134343525Y-80534376D01*
X134342135Y-80533171D01*
X134334452Y-80531500D01*
X133072115Y-80531500D01*
X133056876Y-80535975D01*
X133055671Y-80537365D01*
X133054000Y-80545048D01*
X133054000Y-82548358D01*
X132546000Y-82548358D01*
X132546000Y-80549615D01*
X132541525Y-80534376D01*
X132540135Y-80533171D01*
X132532452Y-80531500D01*
X131270115Y-80531500D01*
X131254876Y-80535975D01*
X131253671Y-80537365D01*
X131252000Y-80545048D01*
X131252000Y-81097572D01*
X129268500Y-81097572D01*
X129268500Y-80005385D01*
X131252000Y-80005385D01*
X131256475Y-80020624D01*
X131257865Y-80021829D01*
X131265548Y-80023500D01*
X132527885Y-80023500D01*
X132543124Y-80019025D01*
X132544329Y-80017635D01*
X132546000Y-80009952D01*
X132546000Y-80005385D01*
X133054000Y-80005385D01*
X133058475Y-80020624D01*
X133059865Y-80021829D01*
X133067548Y-80023500D01*
X134329885Y-80023500D01*
X134345124Y-80019025D01*
X134346329Y-80017635D01*
X134348000Y-80009952D01*
X134348000Y-79457428D01*
X134347798Y-79452396D01*
X134333464Y-79274241D01*
X134331852Y-79264288D01*
X134274846Y-79032200D01*
X134271663Y-79022630D01*
X134178282Y-78802640D01*
X134173608Y-78793701D01*
X134046261Y-78591476D01*
X134040220Y-78583401D01*
X133882173Y-78404132D01*
X133874921Y-78397129D01*
X133690250Y-78245438D01*
X133681967Y-78239682D01*
X133475421Y-78119469D01*
X133466316Y-78115107D01*
X133243215Y-78029466D01*
X133233526Y-78026615D01*
X133071736Y-77992815D01*
X133057675Y-77993938D01*
X133054000Y-78004046D01*
X133054000Y-80005385D01*
X132546000Y-80005385D01*
X132546000Y-78006642D01*
X132541864Y-77992556D01*
X132528886Y-77990507D01*
X132503369Y-77993460D01*
X132493479Y-77995419D01*
X132263524Y-78060489D01*
X132254073Y-78064003D01*
X132037472Y-78165006D01*
X132028708Y-78169985D01*
X131831049Y-78304314D01*
X131823185Y-78310638D01*
X131649549Y-78474836D01*
X131642790Y-78482343D01*
X131497643Y-78672188D01*
X131492179Y-78680667D01*
X131379248Y-78891283D01*
X131375208Y-78900529D01*
X131297404Y-79126487D01*
X131294893Y-79136268D01*
X131254031Y-79372834D01*
X131253176Y-79380706D01*
X131252064Y-79405185D01*
X131252000Y-79408018D01*
X131252000Y-80005385D01*
X129268500Y-80005385D01*
X129268500Y-79454882D01*
X129268298Y-79452369D01*
X129253960Y-79274159D01*
X129253959Y-79274154D01*
X129253554Y-79269118D01*
X129194115Y-79027127D01*
X129096751Y-78797752D01*
X129009998Y-78659990D01*
X128966663Y-78591175D01*
X128966662Y-78591174D01*
X128963967Y-78586894D01*
X128799178Y-78399978D01*
X128606625Y-78241813D01*
X128391262Y-78116469D01*
X128247795Y-78061397D01*
X128163357Y-78028984D01*
X128163354Y-78028983D01*
X128158628Y-78027169D01*
X127914710Y-77976212D01*
X127909661Y-77975983D01*
X127909655Y-77975982D01*
X127795996Y-77970821D01*
X127665782Y-77964908D01*
X127660762Y-77965489D01*
X127660758Y-77965489D01*
X127570074Y-77975982D01*
X127418250Y-77993549D01*
X127413376Y-77994928D01*
X127413372Y-77994929D01*
X127183349Y-78060019D01*
X127183347Y-78060020D01*
X127178480Y-78061397D01*
X127173905Y-78063531D01*
X127173898Y-78063533D01*
X127024143Y-78133366D01*
X126952643Y-78166707D01*
X126948463Y-78169548D01*
X126948459Y-78169550D01*
X126750736Y-78303922D01*
X126746547Y-78306769D01*
X126742872Y-78310244D01*
X126742871Y-78310245D01*
X126651375Y-78396768D01*
X126565496Y-78477980D01*
X126562418Y-78482006D01*
X126562417Y-78482007D01*
X126417221Y-78671916D01*
X126417218Y-78671920D01*
X126414148Y-78675936D01*
X126296396Y-78895543D01*
X126294750Y-78900324D01*
X126294748Y-78900328D01*
X126249341Y-79032200D01*
X126215269Y-79131151D01*
X126214407Y-79136143D01*
X126190568Y-79274159D01*
X126172856Y-79376699D01*
X126171500Y-79406559D01*
X126171500Y-81100118D01*
X124188500Y-81100118D01*
X124188500Y-79454882D01*
X124188298Y-79452369D01*
X124173960Y-79274159D01*
X124173959Y-79274154D01*
X124173554Y-79269118D01*
X124114115Y-79027127D01*
X124016751Y-78797752D01*
X123929998Y-78659990D01*
X123886663Y-78591175D01*
X123886662Y-78591174D01*
X123883967Y-78586894D01*
X123719178Y-78399978D01*
X123526625Y-78241813D01*
X123311262Y-78116469D01*
X123167795Y-78061397D01*
X123083357Y-78028984D01*
X123083354Y-78028983D01*
X123078628Y-78027169D01*
X122834710Y-77976212D01*
X122829661Y-77975983D01*
X122829655Y-77975982D01*
X122715996Y-77970821D01*
X122585782Y-77964908D01*
X122580762Y-77965489D01*
X122580758Y-77965489D01*
X122490074Y-77975982D01*
X122338250Y-77993549D01*
X122333376Y-77994928D01*
X122333372Y-77994929D01*
X122103349Y-78060019D01*
X122103347Y-78060020D01*
X122098480Y-78061397D01*
X122093905Y-78063531D01*
X122093898Y-78063533D01*
X121944143Y-78133366D01*
X121872643Y-78166707D01*
X121868463Y-78169548D01*
X121868459Y-78169550D01*
X121670736Y-78303922D01*
X121666547Y-78306769D01*
X121662872Y-78310244D01*
X121662871Y-78310245D01*
X121571375Y-78396768D01*
X121485496Y-78477980D01*
X121482418Y-78482006D01*
X121482417Y-78482007D01*
X121337221Y-78671916D01*
X121337218Y-78671920D01*
X121334148Y-78675936D01*
X121216396Y-78895543D01*
X121214750Y-78900324D01*
X121214748Y-78900328D01*
X121169341Y-79032200D01*
X121135269Y-79131151D01*
X121134407Y-79136143D01*
X121110568Y-79274159D01*
X121092856Y-79376699D01*
X121091500Y-79406559D01*
X121091500Y-81100118D01*
X119008500Y-81100118D01*
X119008500Y-74100118D01*
X121091500Y-74100118D01*
X121091702Y-74102626D01*
X121091702Y-74102631D01*
X121097472Y-74174339D01*
X121106446Y-74285882D01*
X121165885Y-74527873D01*
X121263249Y-74757248D01*
X121396033Y-74968106D01*
X121560822Y-75155022D01*
X121753375Y-75313187D01*
X121968738Y-75438531D01*
X122085055Y-75483181D01*
X122196643Y-75526016D01*
X122196646Y-75526017D01*
X122201372Y-75527831D01*
X122445290Y-75578788D01*
X122450339Y-75579017D01*
X122450345Y-75579018D01*
X122564004Y-75584179D01*
X122694218Y-75590092D01*
X122699238Y-75589511D01*
X122699242Y-75589511D01*
X122822543Y-75575244D01*
X122941750Y-75561451D01*
X122946624Y-75560072D01*
X122946628Y-75560071D01*
X123176651Y-75494981D01*
X123176653Y-75494980D01*
X123181520Y-75493603D01*
X123186095Y-75491469D01*
X123186102Y-75491467D01*
X123402776Y-75390429D01*
X123407357Y-75388293D01*
X123411537Y-75385452D01*
X123411541Y-75385450D01*
X123609264Y-75251078D01*
X123609265Y-75251077D01*
X123613453Y-75248231D01*
X123794504Y-75077020D01*
X123861960Y-74988791D01*
X123942779Y-74883084D01*
X123942782Y-74883080D01*
X123945852Y-74879064D01*
X124063604Y-74659457D01*
X124108913Y-74527873D01*
X124143082Y-74428638D01*
X124144731Y-74423849D01*
X124162482Y-74321079D01*
X124186469Y-74182211D01*
X124186470Y-74182205D01*
X124187144Y-74178301D01*
X124188500Y-74148441D01*
X124188500Y-74100118D01*
X126171500Y-74100118D01*
X126171702Y-74102626D01*
X126171702Y-74102631D01*
X126177472Y-74174339D01*
X126186446Y-74285882D01*
X126245885Y-74527873D01*
X126343249Y-74757248D01*
X126476033Y-74968106D01*
X126640822Y-75155022D01*
X126833375Y-75313187D01*
X127048738Y-75438531D01*
X127165055Y-75483181D01*
X127276643Y-75526016D01*
X127276646Y-75526017D01*
X127281372Y-75527831D01*
X127525290Y-75578788D01*
X127530339Y-75579017D01*
X127530345Y-75579018D01*
X127644004Y-75584179D01*
X127774218Y-75590092D01*
X127779238Y-75589511D01*
X127779242Y-75589511D01*
X127902543Y-75575244D01*
X128021750Y-75561451D01*
X128026624Y-75560072D01*
X128026628Y-75560071D01*
X128256651Y-75494981D01*
X128256653Y-75494980D01*
X128261520Y-75493603D01*
X128266095Y-75491469D01*
X128266102Y-75491467D01*
X128482776Y-75390429D01*
X128487357Y-75388293D01*
X128491537Y-75385452D01*
X128491541Y-75385450D01*
X128689264Y-75251078D01*
X128689265Y-75251077D01*
X128693453Y-75248231D01*
X128874504Y-75077020D01*
X128941960Y-74988791D01*
X129022779Y-74883084D01*
X129022782Y-74883080D01*
X129025852Y-74879064D01*
X129143604Y-74659457D01*
X129188913Y-74527873D01*
X129223082Y-74428638D01*
X129224731Y-74423849D01*
X129242482Y-74321079D01*
X129266469Y-74182211D01*
X129266470Y-74182205D01*
X129267144Y-74178301D01*
X129268500Y-74148441D01*
X129268500Y-74100118D01*
X131251500Y-74100118D01*
X131251702Y-74102626D01*
X131251702Y-74102631D01*
X131257472Y-74174339D01*
X131266446Y-74285882D01*
X131325885Y-74527873D01*
X131423249Y-74757248D01*
X131556033Y-74968106D01*
X131720822Y-75155022D01*
X131913375Y-75313187D01*
X132128738Y-75438531D01*
X132245055Y-75483181D01*
X132356643Y-75526016D01*
X132356646Y-75526017D01*
X132361372Y-75527831D01*
X132605290Y-75578788D01*
X132610339Y-75579017D01*
X132610345Y-75579018D01*
X132724004Y-75584179D01*
X132854218Y-75590092D01*
X132859238Y-75589511D01*
X132859242Y-75589511D01*
X132982543Y-75575244D01*
X133101750Y-75561451D01*
X133106624Y-75560072D01*
X133106628Y-75560071D01*
X133336651Y-75494981D01*
X133336653Y-75494980D01*
X133341520Y-75493603D01*
X133346095Y-75491469D01*
X133346102Y-75491467D01*
X133562776Y-75390429D01*
X133567357Y-75388293D01*
X133571537Y-75385452D01*
X133571541Y-75385450D01*
X133769264Y-75251078D01*
X133769265Y-75251077D01*
X133773453Y-75248231D01*
X133954504Y-75077020D01*
X134021960Y-74988791D01*
X134102779Y-74883084D01*
X134102782Y-74883080D01*
X134105852Y-74879064D01*
X134223604Y-74659457D01*
X134268913Y-74527873D01*
X134303082Y-74428638D01*
X134304731Y-74423849D01*
X134322482Y-74321079D01*
X134346469Y-74182211D01*
X134346470Y-74182205D01*
X134347144Y-74178301D01*
X134348500Y-74148441D01*
X134348500Y-74100118D01*
X136331500Y-74100118D01*
X136331702Y-74102626D01*
X136331702Y-74102631D01*
X136337472Y-74174339D01*
X136346446Y-74285882D01*
X136405885Y-74527873D01*
X136503249Y-74757248D01*
X136636033Y-74968106D01*
X136800822Y-75155022D01*
X136993375Y-75313187D01*
X137208738Y-75438531D01*
X137325055Y-75483181D01*
X137436643Y-75526016D01*
X137436646Y-75526017D01*
X137441372Y-75527831D01*
X137685290Y-75578788D01*
X137690339Y-75579017D01*
X137690345Y-75579018D01*
X137804004Y-75584179D01*
X137934218Y-75590092D01*
X137939238Y-75589511D01*
X137939242Y-75589511D01*
X138062543Y-75575244D01*
X138181750Y-75561451D01*
X138186624Y-75560072D01*
X138186628Y-75560071D01*
X138416651Y-75494981D01*
X138416653Y-75494980D01*
X138421520Y-75493603D01*
X138426095Y-75491469D01*
X138426102Y-75491467D01*
X138642776Y-75390429D01*
X138647357Y-75388293D01*
X138651537Y-75385452D01*
X138651541Y-75385450D01*
X138849264Y-75251078D01*
X138849265Y-75251077D01*
X138853453Y-75248231D01*
X139034504Y-75077020D01*
X139101960Y-74988791D01*
X139182779Y-74883084D01*
X139182782Y-74883080D01*
X139185852Y-74879064D01*
X139303604Y-74659457D01*
X139348913Y-74527873D01*
X139383082Y-74428638D01*
X139384731Y-74423849D01*
X139402482Y-74321079D01*
X139426469Y-74182211D01*
X139426470Y-74182205D01*
X139427144Y-74178301D01*
X139428500Y-74148441D01*
X139428500Y-74100118D01*
X141411500Y-74100118D01*
X141411702Y-74102626D01*
X141411702Y-74102631D01*
X141417472Y-74174339D01*
X141426446Y-74285882D01*
X141485885Y-74527873D01*
X141583249Y-74757248D01*
X141716033Y-74968106D01*
X141880822Y-75155022D01*
X142073375Y-75313187D01*
X142288738Y-75438531D01*
X142405055Y-75483181D01*
X142516643Y-75526016D01*
X142516646Y-75526017D01*
X142521372Y-75527831D01*
X142765290Y-75578788D01*
X142770339Y-75579017D01*
X142770345Y-75579018D01*
X142884004Y-75584179D01*
X143014218Y-75590092D01*
X143019238Y-75589511D01*
X143019242Y-75589511D01*
X143142543Y-75575244D01*
X143261750Y-75561451D01*
X143266624Y-75560072D01*
X143266628Y-75560071D01*
X143496651Y-75494981D01*
X143496653Y-75494980D01*
X143501520Y-75493603D01*
X143506095Y-75491469D01*
X143506102Y-75491467D01*
X143722776Y-75390429D01*
X143727357Y-75388293D01*
X143731537Y-75385452D01*
X143731541Y-75385450D01*
X143929264Y-75251078D01*
X143929265Y-75251077D01*
X143933453Y-75248231D01*
X144114504Y-75077020D01*
X144181960Y-74988791D01*
X144262779Y-74883084D01*
X144262782Y-74883080D01*
X144265852Y-74879064D01*
X144383604Y-74659457D01*
X144428913Y-74527873D01*
X144463082Y-74428638D01*
X144464731Y-74423849D01*
X144482482Y-74321079D01*
X144506469Y-74182211D01*
X144506470Y-74182205D01*
X144507144Y-74178301D01*
X144508500Y-74148441D01*
X144508500Y-74100118D01*
X146491500Y-74100118D01*
X146491702Y-74102626D01*
X146491702Y-74102631D01*
X146497472Y-74174339D01*
X146506446Y-74285882D01*
X146565885Y-74527873D01*
X146663249Y-74757248D01*
X146796033Y-74968106D01*
X146960822Y-75155022D01*
X147153375Y-75313187D01*
X147368738Y-75438531D01*
X147485055Y-75483181D01*
X147596643Y-75526016D01*
X147596646Y-75526017D01*
X147601372Y-75527831D01*
X147845290Y-75578788D01*
X147850339Y-75579017D01*
X147850345Y-75579018D01*
X147964004Y-75584179D01*
X148094218Y-75590092D01*
X148099238Y-75589511D01*
X148099242Y-75589511D01*
X148222543Y-75575244D01*
X148341750Y-75561451D01*
X148346624Y-75560072D01*
X148346628Y-75560071D01*
X148576651Y-75494981D01*
X148576653Y-75494980D01*
X148581520Y-75493603D01*
X148586095Y-75491469D01*
X148586102Y-75491467D01*
X148802776Y-75390429D01*
X148807357Y-75388293D01*
X148811537Y-75385452D01*
X148811541Y-75385450D01*
X149009264Y-75251078D01*
X149009265Y-75251077D01*
X149013453Y-75248231D01*
X149194504Y-75077020D01*
X149261960Y-74988791D01*
X149342779Y-74883084D01*
X149342782Y-74883080D01*
X149345852Y-74879064D01*
X149463604Y-74659457D01*
X149508913Y-74527873D01*
X149543082Y-74428638D01*
X149544731Y-74423849D01*
X149562482Y-74321079D01*
X149586469Y-74182211D01*
X149586470Y-74182205D01*
X149587144Y-74178301D01*
X149588500Y-74148441D01*
X149588500Y-74100118D01*
X151571500Y-74100118D01*
X151571702Y-74102626D01*
X151571702Y-74102631D01*
X151577472Y-74174339D01*
X151586446Y-74285882D01*
X151645885Y-74527873D01*
X151743249Y-74757248D01*
X151876033Y-74968106D01*
X152040822Y-75155022D01*
X152233375Y-75313187D01*
X152448738Y-75438531D01*
X152565055Y-75483181D01*
X152676643Y-75526016D01*
X152676646Y-75526017D01*
X152681372Y-75527831D01*
X152925290Y-75578788D01*
X152930339Y-75579017D01*
X152930345Y-75579018D01*
X153044004Y-75584179D01*
X153174218Y-75590092D01*
X153179238Y-75589511D01*
X153179242Y-75589511D01*
X153302543Y-75575244D01*
X153421750Y-75561451D01*
X153426624Y-75560072D01*
X153426628Y-75560071D01*
X153656651Y-75494981D01*
X153656653Y-75494980D01*
X153661520Y-75493603D01*
X153666095Y-75491469D01*
X153666102Y-75491467D01*
X153882776Y-75390429D01*
X153887357Y-75388293D01*
X153891537Y-75385452D01*
X153891541Y-75385450D01*
X154089264Y-75251078D01*
X154089265Y-75251077D01*
X154093453Y-75248231D01*
X154274504Y-75077020D01*
X154341960Y-74988791D01*
X154422779Y-74883084D01*
X154422782Y-74883080D01*
X154425852Y-74879064D01*
X154543604Y-74659457D01*
X154588913Y-74527873D01*
X154623082Y-74428638D01*
X154624731Y-74423849D01*
X154642482Y-74321079D01*
X154666469Y-74182211D01*
X154666470Y-74182205D01*
X154667144Y-74178301D01*
X154668500Y-74148441D01*
X154668500Y-74100118D01*
X156651500Y-74100118D01*
X156651702Y-74102626D01*
X156651702Y-74102631D01*
X156657472Y-74174339D01*
X156666446Y-74285882D01*
X156725885Y-74527873D01*
X156823249Y-74757248D01*
X156956033Y-74968106D01*
X157120822Y-75155022D01*
X157313375Y-75313187D01*
X157528738Y-75438531D01*
X157645055Y-75483181D01*
X157756643Y-75526016D01*
X157756646Y-75526017D01*
X157761372Y-75527831D01*
X158005290Y-75578788D01*
X158010339Y-75579017D01*
X158010345Y-75579018D01*
X158124004Y-75584179D01*
X158254218Y-75590092D01*
X158259238Y-75589511D01*
X158259242Y-75589511D01*
X158382543Y-75575244D01*
X158501750Y-75561451D01*
X158506624Y-75560072D01*
X158506628Y-75560071D01*
X158736651Y-75494981D01*
X158736653Y-75494980D01*
X158741520Y-75493603D01*
X158746095Y-75491469D01*
X158746102Y-75491467D01*
X158962776Y-75390429D01*
X158967357Y-75388293D01*
X158971537Y-75385452D01*
X158971541Y-75385450D01*
X159169264Y-75251078D01*
X159169265Y-75251077D01*
X159173453Y-75248231D01*
X159354504Y-75077020D01*
X159421960Y-74988791D01*
X159502779Y-74883084D01*
X159502782Y-74883080D01*
X159505852Y-74879064D01*
X159623604Y-74659457D01*
X159668913Y-74527873D01*
X159703082Y-74428638D01*
X159704731Y-74423849D01*
X159722482Y-74321079D01*
X159746469Y-74182211D01*
X159746470Y-74182205D01*
X159747144Y-74178301D01*
X159748500Y-74148441D01*
X159748500Y-74100118D01*
X161731500Y-74100118D01*
X161731702Y-74102626D01*
X161731702Y-74102631D01*
X161737472Y-74174339D01*
X161746446Y-74285882D01*
X161805885Y-74527873D01*
X161903249Y-74757248D01*
X162036033Y-74968106D01*
X162200822Y-75155022D01*
X162393375Y-75313187D01*
X162608738Y-75438531D01*
X162725055Y-75483181D01*
X162836643Y-75526016D01*
X162836646Y-75526017D01*
X162841372Y-75527831D01*
X163085290Y-75578788D01*
X163090339Y-75579017D01*
X163090345Y-75579018D01*
X163204004Y-75584179D01*
X163334218Y-75590092D01*
X163339238Y-75589511D01*
X163339242Y-75589511D01*
X163462543Y-75575244D01*
X163581750Y-75561451D01*
X163586624Y-75560072D01*
X163586628Y-75560071D01*
X163816651Y-75494981D01*
X163816653Y-75494980D01*
X163821520Y-75493603D01*
X163826095Y-75491469D01*
X163826102Y-75491467D01*
X164042776Y-75390429D01*
X164047357Y-75388293D01*
X164051537Y-75385452D01*
X164051541Y-75385450D01*
X164249264Y-75251078D01*
X164249265Y-75251077D01*
X164253453Y-75248231D01*
X164434504Y-75077020D01*
X164501960Y-74988791D01*
X164582779Y-74883084D01*
X164582782Y-74883080D01*
X164585852Y-74879064D01*
X164588247Y-74874598D01*
X166812000Y-74874598D01*
X166812337Y-74881113D01*
X166822256Y-74976705D01*
X166825150Y-74990104D01*
X166876588Y-75144285D01*
X166882762Y-75157464D01*
X166968063Y-75295310D01*
X166977099Y-75306709D01*
X167091828Y-75421238D01*
X167103239Y-75430250D01*
X167241242Y-75515316D01*
X167254423Y-75521463D01*
X167408709Y-75572638D01*
X167422085Y-75575505D01*
X167516437Y-75585172D01*
X167522853Y-75585500D01*
X168087885Y-75585500D01*
X168103124Y-75581025D01*
X168104329Y-75579635D01*
X168106000Y-75571952D01*
X168106000Y-75567385D01*
X168614000Y-75567385D01*
X168618475Y-75582624D01*
X168619865Y-75583829D01*
X168627548Y-75585500D01*
X169197098Y-75585500D01*
X169203613Y-75585163D01*
X169299205Y-75575244D01*
X169312604Y-75572350D01*
X169466785Y-75520912D01*
X169479964Y-75514738D01*
X169617810Y-75429437D01*
X169629209Y-75420401D01*
X169743738Y-75305672D01*
X169752750Y-75294261D01*
X169837816Y-75156258D01*
X169843963Y-75143077D01*
X169895138Y-74988791D01*
X169898005Y-74975415D01*
X169907672Y-74881063D01*
X169908000Y-74874647D01*
X169908000Y-73549615D01*
X169903525Y-73534376D01*
X169902135Y-73533171D01*
X169894452Y-73531500D01*
X168632115Y-73531500D01*
X168616876Y-73535975D01*
X168615671Y-73537365D01*
X168614000Y-73545048D01*
X168614000Y-75567385D01*
X168106000Y-75567385D01*
X168106000Y-73549615D01*
X168101525Y-73534376D01*
X168100135Y-73533171D01*
X168092452Y-73531500D01*
X166830115Y-73531500D01*
X166814876Y-73535975D01*
X166813671Y-73537365D01*
X166812000Y-73545048D01*
X166812000Y-74874598D01*
X164588247Y-74874598D01*
X164703604Y-74659457D01*
X164748913Y-74527873D01*
X164783082Y-74428638D01*
X164784731Y-74423849D01*
X164802482Y-74321079D01*
X164826469Y-74182211D01*
X164826470Y-74182205D01*
X164827144Y-74178301D01*
X164828500Y-74148441D01*
X164828500Y-73005385D01*
X166812000Y-73005385D01*
X166816475Y-73020624D01*
X166817865Y-73021829D01*
X166825548Y-73023500D01*
X168087885Y-73023500D01*
X168103124Y-73019025D01*
X168104329Y-73017635D01*
X168106000Y-73009952D01*
X168106000Y-73005385D01*
X168614000Y-73005385D01*
X168618475Y-73020624D01*
X168619865Y-73021829D01*
X168627548Y-73023500D01*
X169889885Y-73023500D01*
X169905124Y-73019025D01*
X169906329Y-73017635D01*
X169908000Y-73009952D01*
X169908000Y-71680402D01*
X169907663Y-71673887D01*
X169897744Y-71578295D01*
X169894850Y-71564896D01*
X169843412Y-71410715D01*
X169837238Y-71397536D01*
X169751937Y-71259690D01*
X169742901Y-71248291D01*
X169628172Y-71133762D01*
X169616761Y-71124750D01*
X169478758Y-71039684D01*
X169465577Y-71033537D01*
X169311291Y-70982362D01*
X169297915Y-70979495D01*
X169203563Y-70969828D01*
X169197146Y-70969500D01*
X168632115Y-70969500D01*
X168616876Y-70973975D01*
X168615671Y-70975365D01*
X168614000Y-70983048D01*
X168614000Y-73005385D01*
X168106000Y-73005385D01*
X168106000Y-70987615D01*
X168101525Y-70972376D01*
X168100135Y-70971171D01*
X168092452Y-70969500D01*
X167522902Y-70969500D01*
X167516387Y-70969837D01*
X167420795Y-70979756D01*
X167407396Y-70982650D01*
X167253215Y-71034088D01*
X167240036Y-71040262D01*
X167102190Y-71125563D01*
X167090791Y-71134599D01*
X166976262Y-71249328D01*
X166967250Y-71260739D01*
X166882184Y-71398742D01*
X166876037Y-71411923D01*
X166824862Y-71566209D01*
X166821995Y-71579585D01*
X166812328Y-71673937D01*
X166812000Y-71680354D01*
X166812000Y-73005385D01*
X164828500Y-73005385D01*
X164828500Y-72454882D01*
X164824498Y-72405140D01*
X164813960Y-72274159D01*
X164813959Y-72274154D01*
X164813554Y-72269118D01*
X164754115Y-72027127D01*
X164656751Y-71797752D01*
X164523967Y-71586894D01*
X164359178Y-71399978D01*
X164166625Y-71241813D01*
X163951262Y-71116469D01*
X163804205Y-71060019D01*
X163723357Y-71028984D01*
X163723354Y-71028983D01*
X163718628Y-71027169D01*
X163474710Y-70976212D01*
X163469661Y-70975983D01*
X163469655Y-70975982D01*
X163355996Y-70970821D01*
X163225782Y-70964908D01*
X163220762Y-70965489D01*
X163220758Y-70965489D01*
X163130074Y-70975982D01*
X162978250Y-70993549D01*
X162973376Y-70994928D01*
X162973372Y-70994929D01*
X162743349Y-71060019D01*
X162743347Y-71060020D01*
X162738480Y-71061397D01*
X162733905Y-71063531D01*
X162733898Y-71063533D01*
X162562131Y-71143630D01*
X162512643Y-71166707D01*
X162508463Y-71169548D01*
X162508459Y-71169550D01*
X162402127Y-71241813D01*
X162306547Y-71306769D01*
X162125496Y-71477980D01*
X162122418Y-71482006D01*
X162122417Y-71482007D01*
X161977221Y-71671916D01*
X161977218Y-71671920D01*
X161974148Y-71675936D01*
X161856396Y-71895543D01*
X161854750Y-71900324D01*
X161854748Y-71900328D01*
X161777256Y-72125382D01*
X161775269Y-72131151D01*
X161774407Y-72136143D01*
X161750568Y-72274159D01*
X161732856Y-72376699D01*
X161731500Y-72406559D01*
X161731500Y-74100118D01*
X159748500Y-74100118D01*
X159748500Y-72454882D01*
X159744498Y-72405140D01*
X159733960Y-72274159D01*
X159733959Y-72274154D01*
X159733554Y-72269118D01*
X159674115Y-72027127D01*
X159576751Y-71797752D01*
X159443967Y-71586894D01*
X159279178Y-71399978D01*
X159086625Y-71241813D01*
X158871262Y-71116469D01*
X158724205Y-71060019D01*
X158643357Y-71028984D01*
X158643354Y-71028983D01*
X158638628Y-71027169D01*
X158394710Y-70976212D01*
X158389661Y-70975983D01*
X158389655Y-70975982D01*
X158275996Y-70970821D01*
X158145782Y-70964908D01*
X158140762Y-70965489D01*
X158140758Y-70965489D01*
X158050074Y-70975982D01*
X157898250Y-70993549D01*
X157893376Y-70994928D01*
X157893372Y-70994929D01*
X157663349Y-71060019D01*
X157663347Y-71060020D01*
X157658480Y-71061397D01*
X157653905Y-71063531D01*
X157653898Y-71063533D01*
X157482131Y-71143630D01*
X157432643Y-71166707D01*
X157428463Y-71169548D01*
X157428459Y-71169550D01*
X157322127Y-71241813D01*
X157226547Y-71306769D01*
X157045496Y-71477980D01*
X157042418Y-71482006D01*
X157042417Y-71482007D01*
X156897221Y-71671916D01*
X156897218Y-71671920D01*
X156894148Y-71675936D01*
X156776396Y-71895543D01*
X156774750Y-71900324D01*
X156774748Y-71900328D01*
X156697256Y-72125382D01*
X156695269Y-72131151D01*
X156694407Y-72136143D01*
X156670568Y-72274159D01*
X156652856Y-72376699D01*
X156651500Y-72406559D01*
X156651500Y-74100118D01*
X154668500Y-74100118D01*
X154668500Y-72454882D01*
X154664498Y-72405140D01*
X154653960Y-72274159D01*
X154653959Y-72274154D01*
X154653554Y-72269118D01*
X154594115Y-72027127D01*
X154496751Y-71797752D01*
X154363967Y-71586894D01*
X154199178Y-71399978D01*
X154006625Y-71241813D01*
X153791262Y-71116469D01*
X153644205Y-71060019D01*
X153563357Y-71028984D01*
X153563354Y-71028983D01*
X153558628Y-71027169D01*
X153314710Y-70976212D01*
X153309661Y-70975983D01*
X153309655Y-70975982D01*
X153195996Y-70970821D01*
X153065782Y-70964908D01*
X153060762Y-70965489D01*
X153060758Y-70965489D01*
X152970074Y-70975982D01*
X152818250Y-70993549D01*
X152813376Y-70994928D01*
X152813372Y-70994929D01*
X152583349Y-71060019D01*
X152583347Y-71060020D01*
X152578480Y-71061397D01*
X152573905Y-71063531D01*
X152573898Y-71063533D01*
X152402131Y-71143630D01*
X152352643Y-71166707D01*
X152348463Y-71169548D01*
X152348459Y-71169550D01*
X152242127Y-71241813D01*
X152146547Y-71306769D01*
X151965496Y-71477980D01*
X151962418Y-71482006D01*
X151962417Y-71482007D01*
X151817221Y-71671916D01*
X151817218Y-71671920D01*
X151814148Y-71675936D01*
X151696396Y-71895543D01*
X151694750Y-71900324D01*
X151694748Y-71900328D01*
X151617256Y-72125382D01*
X151615269Y-72131151D01*
X151614407Y-72136143D01*
X151590568Y-72274159D01*
X151572856Y-72376699D01*
X151571500Y-72406559D01*
X151571500Y-74100118D01*
X149588500Y-74100118D01*
X149588500Y-72454882D01*
X149584498Y-72405140D01*
X149573960Y-72274159D01*
X149573959Y-72274154D01*
X149573554Y-72269118D01*
X149514115Y-72027127D01*
X149416751Y-71797752D01*
X149283967Y-71586894D01*
X149119178Y-71399978D01*
X148926625Y-71241813D01*
X148711262Y-71116469D01*
X148564205Y-71060019D01*
X148483357Y-71028984D01*
X148483354Y-71028983D01*
X148478628Y-71027169D01*
X148234710Y-70976212D01*
X148229661Y-70975983D01*
X148229655Y-70975982D01*
X148115996Y-70970821D01*
X147985782Y-70964908D01*
X147980762Y-70965489D01*
X147980758Y-70965489D01*
X147890074Y-70975982D01*
X147738250Y-70993549D01*
X147733376Y-70994928D01*
X147733372Y-70994929D01*
X147503349Y-71060019D01*
X147503347Y-71060020D01*
X147498480Y-71061397D01*
X147493905Y-71063531D01*
X147493898Y-71063533D01*
X147322131Y-71143630D01*
X147272643Y-71166707D01*
X147268463Y-71169548D01*
X147268459Y-71169550D01*
X147162127Y-71241813D01*
X147066547Y-71306769D01*
X146885496Y-71477980D01*
X146882418Y-71482006D01*
X146882417Y-71482007D01*
X146737221Y-71671916D01*
X146737218Y-71671920D01*
X146734148Y-71675936D01*
X146616396Y-71895543D01*
X146614750Y-71900324D01*
X146614748Y-71900328D01*
X146537256Y-72125382D01*
X146535269Y-72131151D01*
X146534407Y-72136143D01*
X146510568Y-72274159D01*
X146492856Y-72376699D01*
X146491500Y-72406559D01*
X146491500Y-74100118D01*
X144508500Y-74100118D01*
X144508500Y-72454882D01*
X144504498Y-72405140D01*
X144493960Y-72274159D01*
X144493959Y-72274154D01*
X144493554Y-72269118D01*
X144434115Y-72027127D01*
X144336751Y-71797752D01*
X144203967Y-71586894D01*
X144039178Y-71399978D01*
X143846625Y-71241813D01*
X143631262Y-71116469D01*
X143484205Y-71060019D01*
X143403357Y-71028984D01*
X143403354Y-71028983D01*
X143398628Y-71027169D01*
X143154710Y-70976212D01*
X143149661Y-70975983D01*
X143149655Y-70975982D01*
X143035996Y-70970821D01*
X142905782Y-70964908D01*
X142900762Y-70965489D01*
X142900758Y-70965489D01*
X142810074Y-70975982D01*
X142658250Y-70993549D01*
X142653376Y-70994928D01*
X142653372Y-70994929D01*
X142423349Y-71060019D01*
X142423347Y-71060020D01*
X142418480Y-71061397D01*
X142413905Y-71063531D01*
X142413898Y-71063533D01*
X142242131Y-71143630D01*
X142192643Y-71166707D01*
X142188463Y-71169548D01*
X142188459Y-71169550D01*
X142082127Y-71241813D01*
X141986547Y-71306769D01*
X141805496Y-71477980D01*
X141802418Y-71482006D01*
X141802417Y-71482007D01*
X141657221Y-71671916D01*
X141657218Y-71671920D01*
X141654148Y-71675936D01*
X141536396Y-71895543D01*
X141534750Y-71900324D01*
X141534748Y-71900328D01*
X141457256Y-72125382D01*
X141455269Y-72131151D01*
X141454407Y-72136143D01*
X141430568Y-72274159D01*
X141412856Y-72376699D01*
X141411500Y-72406559D01*
X141411500Y-74100118D01*
X139428500Y-74100118D01*
X139428500Y-72454882D01*
X139424498Y-72405140D01*
X139413960Y-72274159D01*
X139413959Y-72274154D01*
X139413554Y-72269118D01*
X139354115Y-72027127D01*
X139256751Y-71797752D01*
X139123967Y-71586894D01*
X138959178Y-71399978D01*
X138766625Y-71241813D01*
X138551262Y-71116469D01*
X138404205Y-71060019D01*
X138323357Y-71028984D01*
X138323354Y-71028983D01*
X138318628Y-71027169D01*
X138074710Y-70976212D01*
X138069661Y-70975983D01*
X138069655Y-70975982D01*
X137955996Y-70970821D01*
X137825782Y-70964908D01*
X137820762Y-70965489D01*
X137820758Y-70965489D01*
X137730074Y-70975982D01*
X137578250Y-70993549D01*
X137573376Y-70994928D01*
X137573372Y-70994929D01*
X137343349Y-71060019D01*
X137343347Y-71060020D01*
X137338480Y-71061397D01*
X137333905Y-71063531D01*
X137333898Y-71063533D01*
X137162131Y-71143630D01*
X137112643Y-71166707D01*
X137108463Y-71169548D01*
X137108459Y-71169550D01*
X137002127Y-71241813D01*
X136906547Y-71306769D01*
X136725496Y-71477980D01*
X136722418Y-71482006D01*
X136722417Y-71482007D01*
X136577221Y-71671916D01*
X136577218Y-71671920D01*
X136574148Y-71675936D01*
X136456396Y-71895543D01*
X136454750Y-71900324D01*
X136454748Y-71900328D01*
X136377256Y-72125382D01*
X136375269Y-72131151D01*
X136374407Y-72136143D01*
X136350568Y-72274159D01*
X136332856Y-72376699D01*
X136331500Y-72406559D01*
X136331500Y-74100118D01*
X134348500Y-74100118D01*
X134348500Y-72454882D01*
X134344498Y-72405140D01*
X134333960Y-72274159D01*
X134333959Y-72274154D01*
X134333554Y-72269118D01*
X134274115Y-72027127D01*
X134176751Y-71797752D01*
X134043967Y-71586894D01*
X133879178Y-71399978D01*
X133686625Y-71241813D01*
X133471262Y-71116469D01*
X133324205Y-71060019D01*
X133243357Y-71028984D01*
X133243354Y-71028983D01*
X133238628Y-71027169D01*
X132994710Y-70976212D01*
X132989661Y-70975983D01*
X132989655Y-70975982D01*
X132875996Y-70970821D01*
X132745782Y-70964908D01*
X132740762Y-70965489D01*
X132740758Y-70965489D01*
X132650074Y-70975982D01*
X132498250Y-70993549D01*
X132493376Y-70994928D01*
X132493372Y-70994929D01*
X132263349Y-71060019D01*
X132263347Y-71060020D01*
X132258480Y-71061397D01*
X132253905Y-71063531D01*
X132253898Y-71063533D01*
X132082131Y-71143630D01*
X132032643Y-71166707D01*
X132028463Y-71169548D01*
X132028459Y-71169550D01*
X131922127Y-71241813D01*
X131826547Y-71306769D01*
X131645496Y-71477980D01*
X131642418Y-71482006D01*
X131642417Y-71482007D01*
X131497221Y-71671916D01*
X131497218Y-71671920D01*
X131494148Y-71675936D01*
X131376396Y-71895543D01*
X131374750Y-71900324D01*
X131374748Y-71900328D01*
X131297256Y-72125382D01*
X131295269Y-72131151D01*
X131294407Y-72136143D01*
X131270568Y-72274159D01*
X131252856Y-72376699D01*
X131251500Y-72406559D01*
X131251500Y-74100118D01*
X129268500Y-74100118D01*
X129268500Y-72454882D01*
X129264498Y-72405140D01*
X129253960Y-72274159D01*
X129253959Y-72274154D01*
X129253554Y-72269118D01*
X129194115Y-72027127D01*
X129096751Y-71797752D01*
X128963967Y-71586894D01*
X128799178Y-71399978D01*
X128606625Y-71241813D01*
X128391262Y-71116469D01*
X128244205Y-71060019D01*
X128163357Y-71028984D01*
X128163354Y-71028983D01*
X128158628Y-71027169D01*
X127914710Y-70976212D01*
X127909661Y-70975983D01*
X127909655Y-70975982D01*
X127795996Y-70970821D01*
X127665782Y-70964908D01*
X127660762Y-70965489D01*
X127660758Y-70965489D01*
X127570074Y-70975982D01*
X127418250Y-70993549D01*
X127413376Y-70994928D01*
X127413372Y-70994929D01*
X127183349Y-71060019D01*
X127183347Y-71060020D01*
X127178480Y-71061397D01*
X127173905Y-71063531D01*
X127173898Y-71063533D01*
X127002131Y-71143630D01*
X126952643Y-71166707D01*
X126948463Y-71169548D01*
X126948459Y-71169550D01*
X126842127Y-71241813D01*
X126746547Y-71306769D01*
X126565496Y-71477980D01*
X126562418Y-71482006D01*
X126562417Y-71482007D01*
X126417221Y-71671916D01*
X126417218Y-71671920D01*
X126414148Y-71675936D01*
X126296396Y-71895543D01*
X126294750Y-71900324D01*
X126294748Y-71900328D01*
X126217256Y-72125382D01*
X126215269Y-72131151D01*
X126214407Y-72136143D01*
X126190568Y-72274159D01*
X126172856Y-72376699D01*
X126171500Y-72406559D01*
X126171500Y-74100118D01*
X124188500Y-74100118D01*
X124188500Y-72454882D01*
X124184498Y-72405140D01*
X124173960Y-72274159D01*
X124173959Y-72274154D01*
X124173554Y-72269118D01*
X124114115Y-72027127D01*
X124016751Y-71797752D01*
X123883967Y-71586894D01*
X123719178Y-71399978D01*
X123526625Y-71241813D01*
X123311262Y-71116469D01*
X123164205Y-71060019D01*
X123083357Y-71028984D01*
X123083354Y-71028983D01*
X123078628Y-71027169D01*
X122834710Y-70976212D01*
X122829661Y-70975983D01*
X122829655Y-70975982D01*
X122715996Y-70970821D01*
X122585782Y-70964908D01*
X122580762Y-70965489D01*
X122580758Y-70965489D01*
X122490074Y-70975982D01*
X122338250Y-70993549D01*
X122333376Y-70994928D01*
X122333372Y-70994929D01*
X122103349Y-71060019D01*
X122103347Y-71060020D01*
X122098480Y-71061397D01*
X122093905Y-71063531D01*
X122093898Y-71063533D01*
X121922131Y-71143630D01*
X121872643Y-71166707D01*
X121868463Y-71169548D01*
X121868459Y-71169550D01*
X121762127Y-71241813D01*
X121666547Y-71306769D01*
X121485496Y-71477980D01*
X121482418Y-71482006D01*
X121482417Y-71482007D01*
X121337221Y-71671916D01*
X121337218Y-71671920D01*
X121334148Y-71675936D01*
X121216396Y-71895543D01*
X121214750Y-71900324D01*
X121214748Y-71900328D01*
X121137256Y-72125382D01*
X121135269Y-72131151D01*
X121134407Y-72136143D01*
X121110568Y-72274159D01*
X121092856Y-72376699D01*
X121091500Y-72406559D01*
X121091500Y-74100118D01*
X119008500Y-74100118D01*
X119008500Y-66634500D01*
X119028502Y-66566379D01*
X119082158Y-66519886D01*
X119134500Y-66508500D01*
X171865500Y-66508500D01*
X171933621Y-66528502D01*
G37*
%TD.AperFunction*%
%TD*%
M02*
