%TF.GenerationSoftware,KiCad,Pcbnew,6.0.11+dfsg-1~bpo11+1*%
%TF.CreationDate,2023-07-05T16:39:37+02:00*%
%TF.ProjectId,ain4rib21,61696e34-7269-4623-9231-2e6b69636164,1.1*%
%TF.SameCoordinates,Original*%
%TF.FileFunction,Legend,Top*%
%TF.FilePolarity,Positive*%
%FSLAX46Y46*%
G04 Gerber Fmt 4.6, Leading zero omitted, Abs format (unit mm)*
G04 Created by KiCad (PCBNEW 6.0.11+dfsg-1~bpo11+1) date 2023-07-05 16:39:37*
%MOMM*%
%LPD*%
G01*
G04 APERTURE LIST*
%ADD10C,0.120000*%
%ADD11C,0.150000*%
%ADD12C,0.200000*%
G04 APERTURE END LIST*
D10*
X136128571Y-118079285D02*
X136307142Y-118579285D01*
X136485714Y-118079285D01*
X136735714Y-117900714D02*
X136771428Y-117865000D01*
X136842857Y-117829285D01*
X137021428Y-117829285D01*
X137092857Y-117865000D01*
X137128571Y-117900714D01*
X137164285Y-117972142D01*
X137164285Y-118043571D01*
X137128571Y-118150714D01*
X136700000Y-118579285D01*
X137164285Y-118579285D01*
X137485714Y-118507857D02*
X137521428Y-118543571D01*
X137485714Y-118579285D01*
X137450000Y-118543571D01*
X137485714Y-118507857D01*
X137485714Y-118579285D01*
X138235714Y-118579285D02*
X137807142Y-118579285D01*
X138021428Y-118579285D02*
X138021428Y-117829285D01*
X137950000Y-117936428D01*
X137878571Y-118007857D01*
X137807142Y-118043571D01*
D11*
X147835714Y-95997619D02*
X147264285Y-95997619D01*
X147550000Y-94997619D02*
X147550000Y-95997619D01*
X164585714Y-95716666D02*
X165061904Y-95716666D01*
X164490476Y-96002380D02*
X164823809Y-95002380D01*
X165157142Y-96002380D01*
X165395238Y-95002380D02*
X166014285Y-95002380D01*
X165680952Y-95383333D01*
X165823809Y-95383333D01*
X165919047Y-95430952D01*
X165966666Y-95478571D01*
X166014285Y-95573809D01*
X166014285Y-95811904D01*
X165966666Y-95907142D01*
X165919047Y-95954761D01*
X165823809Y-96002380D01*
X165538095Y-96002380D01*
X165442857Y-95954761D01*
X165395238Y-95907142D01*
X159585714Y-95716666D02*
X160061904Y-95716666D01*
X159490476Y-96002380D02*
X159823809Y-95002380D01*
X160157142Y-96002380D01*
X161014285Y-96002380D02*
X160442857Y-96002380D01*
X160728571Y-96002380D02*
X160728571Y-95002380D01*
X160633333Y-95145238D01*
X160538095Y-95240476D01*
X160442857Y-95288095D01*
X152438095Y-95977380D02*
X152438095Y-94977380D01*
X152676190Y-94977380D01*
X152819047Y-95025000D01*
X152914285Y-95120238D01*
X152961904Y-95215476D01*
X153009523Y-95405952D01*
X153009523Y-95548809D01*
X152961904Y-95739285D01*
X152914285Y-95834523D01*
X152819047Y-95929761D01*
X152676190Y-95977380D01*
X152438095Y-95977380D01*
X150384523Y-95907142D02*
X150336904Y-95954761D01*
X150194047Y-96002380D01*
X150098809Y-96002380D01*
X149955952Y-95954761D01*
X149860714Y-95859523D01*
X149813095Y-95764285D01*
X149765476Y-95573809D01*
X149765476Y-95430952D01*
X149813095Y-95240476D01*
X149860714Y-95145238D01*
X149955952Y-95050000D01*
X150098809Y-95002380D01*
X150194047Y-95002380D01*
X150336904Y-95050000D01*
X150384523Y-95097619D01*
D12*
X135284285Y-117402857D02*
X135284285Y-116774285D01*
X135227142Y-116660000D01*
X135112857Y-116602857D01*
X134884285Y-116602857D01*
X134770000Y-116660000D01*
X135284285Y-117345714D02*
X135170000Y-117402857D01*
X134884285Y-117402857D01*
X134770000Y-117345714D01*
X134712857Y-117231428D01*
X134712857Y-117117142D01*
X134770000Y-117002857D01*
X134884285Y-116945714D01*
X135170000Y-116945714D01*
X135284285Y-116888571D01*
X135855714Y-117402857D02*
X135855714Y-116602857D01*
X135855714Y-116202857D02*
X135798571Y-116260000D01*
X135855714Y-116317142D01*
X135912857Y-116260000D01*
X135855714Y-116202857D01*
X135855714Y-116317142D01*
X136427142Y-116602857D02*
X136427142Y-117402857D01*
X136427142Y-116717142D02*
X136484285Y-116660000D01*
X136598571Y-116602857D01*
X136770000Y-116602857D01*
X136884285Y-116660000D01*
X136941428Y-116774285D01*
X136941428Y-117402857D01*
X137512857Y-116945714D02*
X138427142Y-116945714D01*
X139512857Y-116602857D02*
X139512857Y-117402857D01*
X139227142Y-116145714D02*
X138941428Y-117002857D01*
X139684285Y-117002857D01*
D11*
X167285714Y-95716666D02*
X167761904Y-95716666D01*
X167190476Y-96002380D02*
X167523809Y-95002380D01*
X167857142Y-96002380D01*
X168619047Y-95335714D02*
X168619047Y-96002380D01*
X168380952Y-94954761D02*
X168142857Y-95669047D01*
X168761904Y-95669047D01*
X155435714Y-95997619D02*
X154864285Y-95997619D01*
X155150000Y-94997619D02*
X155150000Y-95997619D01*
X144569047Y-95496428D02*
X145330952Y-95496428D01*
X144950000Y-95877380D02*
X144950000Y-95115476D01*
X180310714Y-108504761D02*
X180977380Y-108314285D01*
X180501190Y-108123809D01*
X180977380Y-107933333D01*
X180310714Y-107742857D01*
X180310714Y-107457142D02*
X180977380Y-107266666D01*
X180501190Y-107076190D01*
X180977380Y-106885714D01*
X180310714Y-106695238D01*
X180310714Y-106409523D02*
X180977380Y-106219047D01*
X180501190Y-106028571D01*
X180977380Y-105838095D01*
X180310714Y-105647619D01*
X180882142Y-105266666D02*
X180929761Y-105219047D01*
X180977380Y-105266666D01*
X180929761Y-105314285D01*
X180882142Y-105266666D01*
X180977380Y-105266666D01*
X180977380Y-104790476D02*
X180310714Y-104790476D01*
X179977380Y-104790476D02*
X180025000Y-104838095D01*
X180072619Y-104790476D01*
X180025000Y-104742857D01*
X179977380Y-104790476D01*
X180072619Y-104790476D01*
X180977380Y-104171428D02*
X180929761Y-104266666D01*
X180882142Y-104314285D01*
X180786904Y-104361904D01*
X180501190Y-104361904D01*
X180405952Y-104314285D01*
X180358333Y-104266666D01*
X180310714Y-104171428D01*
X180310714Y-104028571D01*
X180358333Y-103933333D01*
X180405952Y-103885714D01*
X180501190Y-103838095D01*
X180786904Y-103838095D01*
X180882142Y-103885714D01*
X180929761Y-103933333D01*
X180977380Y-104028571D01*
X180977380Y-104171428D01*
X180310714Y-103552380D02*
X180310714Y-103171428D01*
X179977380Y-103409523D02*
X180834523Y-103409523D01*
X180929761Y-103361904D01*
X180977380Y-103266666D01*
X180977380Y-103171428D01*
X180310714Y-102933333D02*
X180977380Y-102695238D01*
X180310714Y-102457142D01*
X180929761Y-101695238D02*
X180977380Y-101790476D01*
X180977380Y-101980952D01*
X180929761Y-102076190D01*
X180834523Y-102123809D01*
X180453571Y-102123809D01*
X180358333Y-102076190D01*
X180310714Y-101980952D01*
X180310714Y-101790476D01*
X180358333Y-101695238D01*
X180453571Y-101647619D01*
X180548809Y-101647619D01*
X180644047Y-102123809D01*
X180977380Y-101219047D02*
X180310714Y-101219047D01*
X180501190Y-101219047D02*
X180405952Y-101171428D01*
X180358333Y-101123809D01*
X180310714Y-101028571D01*
X180310714Y-100933333D01*
X180310714Y-100742857D02*
X180310714Y-100361904D01*
X179977380Y-100600000D02*
X180834523Y-100600000D01*
X180929761Y-100552380D01*
X180977380Y-100457142D01*
X180977380Y-100361904D01*
X180929761Y-99647619D02*
X180977380Y-99742857D01*
X180977380Y-99933333D01*
X180929761Y-100028571D01*
X180834523Y-100076190D01*
X180453571Y-100076190D01*
X180358333Y-100028571D01*
X180310714Y-99933333D01*
X180310714Y-99742857D01*
X180358333Y-99647619D01*
X180453571Y-99600000D01*
X180548809Y-99600000D01*
X180644047Y-100076190D01*
X180977380Y-99171428D02*
X179977380Y-99171428D01*
X180358333Y-99171428D02*
X180310714Y-99076190D01*
X180310714Y-98885714D01*
X180358333Y-98790476D01*
X180405952Y-98742857D01*
X180501190Y-98695238D01*
X180786904Y-98695238D01*
X180882142Y-98742857D01*
X180929761Y-98790476D01*
X180977380Y-98885714D01*
X180977380Y-99076190D01*
X180929761Y-99171428D01*
X180977380Y-98266666D02*
X180310714Y-98266666D01*
X180501190Y-98266666D02*
X180405952Y-98219047D01*
X180358333Y-98171428D01*
X180310714Y-98076190D01*
X180310714Y-97980952D01*
X180977380Y-97219047D02*
X180453571Y-97219047D01*
X180358333Y-97266666D01*
X180310714Y-97361904D01*
X180310714Y-97552380D01*
X180358333Y-97647619D01*
X180929761Y-97219047D02*
X180977380Y-97314285D01*
X180977380Y-97552380D01*
X180929761Y-97647619D01*
X180834523Y-97695238D01*
X180739285Y-97695238D01*
X180644047Y-97647619D01*
X180596428Y-97552380D01*
X180596428Y-97314285D01*
X180548809Y-97219047D01*
X180929761Y-96361904D02*
X180977380Y-96457142D01*
X180977380Y-96647619D01*
X180929761Y-96742857D01*
X180834523Y-96790476D01*
X180453571Y-96790476D01*
X180358333Y-96742857D01*
X180310714Y-96647619D01*
X180310714Y-96457142D01*
X180358333Y-96361904D01*
X180453571Y-96314285D01*
X180548809Y-96314285D01*
X180644047Y-96790476D01*
X180882142Y-95885714D02*
X180929761Y-95838095D01*
X180977380Y-95885714D01*
X180929761Y-95933333D01*
X180882142Y-95885714D01*
X180977380Y-95885714D01*
X180929761Y-94980952D02*
X180977380Y-95076190D01*
X180977380Y-95266666D01*
X180929761Y-95361904D01*
X180882142Y-95409523D01*
X180786904Y-95457142D01*
X180501190Y-95457142D01*
X180405952Y-95409523D01*
X180358333Y-95361904D01*
X180310714Y-95266666D01*
X180310714Y-95076190D01*
X180358333Y-94980952D01*
X180977380Y-94409523D02*
X180929761Y-94504761D01*
X180882142Y-94552380D01*
X180786904Y-94600000D01*
X180501190Y-94600000D01*
X180405952Y-94552380D01*
X180358333Y-94504761D01*
X180310714Y-94409523D01*
X180310714Y-94266666D01*
X180358333Y-94171428D01*
X180405952Y-94123809D01*
X180501190Y-94076190D01*
X180786904Y-94076190D01*
X180882142Y-94123809D01*
X180929761Y-94171428D01*
X180977380Y-94266666D01*
X180977380Y-94409523D01*
X180977380Y-93647619D02*
X180310714Y-93647619D01*
X180405952Y-93647619D02*
X180358333Y-93600000D01*
X180310714Y-93504761D01*
X180310714Y-93361904D01*
X180358333Y-93266666D01*
X180453571Y-93219047D01*
X180977380Y-93219047D01*
X180453571Y-93219047D02*
X180358333Y-93171428D01*
X180310714Y-93076190D01*
X180310714Y-92933333D01*
X180358333Y-92838095D01*
X180453571Y-92790476D01*
X180977380Y-92790476D01*
X162135714Y-95716666D02*
X162611904Y-95716666D01*
X162040476Y-96002380D02*
X162373809Y-95002380D01*
X162707142Y-96002380D01*
X162992857Y-95097619D02*
X163040476Y-95050000D01*
X163135714Y-95002380D01*
X163373809Y-95002380D01*
X163469047Y-95050000D01*
X163516666Y-95097619D01*
X163564285Y-95192857D01*
X163564285Y-95288095D01*
X163516666Y-95430952D01*
X162945238Y-96002380D01*
X163564285Y-96002380D01*
D10*
%TO.C,R22*%
X138800000Y-106836666D02*
X138566666Y-106503333D01*
X138400000Y-106836666D02*
X138400000Y-106136666D01*
X138666666Y-106136666D01*
X138733333Y-106170000D01*
X138766666Y-106203333D01*
X138800000Y-106270000D01*
X138800000Y-106370000D01*
X138766666Y-106436666D01*
X138733333Y-106470000D01*
X138666666Y-106503333D01*
X138400000Y-106503333D01*
X139066666Y-106203333D02*
X139100000Y-106170000D01*
X139166666Y-106136666D01*
X139333333Y-106136666D01*
X139400000Y-106170000D01*
X139433333Y-106203333D01*
X139466666Y-106270000D01*
X139466666Y-106336666D01*
X139433333Y-106436666D01*
X139033333Y-106836666D01*
X139466666Y-106836666D01*
X139733333Y-106203333D02*
X139766666Y-106170000D01*
X139833333Y-106136666D01*
X140000000Y-106136666D01*
X140066666Y-106170000D01*
X140100000Y-106203333D01*
X140133333Y-106270000D01*
X140133333Y-106336666D01*
X140100000Y-106436666D01*
X139700000Y-106836666D01*
X140133333Y-106836666D01*
%TO.C,R17*%
X128480000Y-110266666D02*
X128246666Y-109933333D01*
X128080000Y-110266666D02*
X128080000Y-109566666D01*
X128346666Y-109566666D01*
X128413333Y-109600000D01*
X128446666Y-109633333D01*
X128480000Y-109700000D01*
X128480000Y-109800000D01*
X128446666Y-109866666D01*
X128413333Y-109900000D01*
X128346666Y-109933333D01*
X128080000Y-109933333D01*
X129146666Y-110266666D02*
X128746666Y-110266666D01*
X128946666Y-110266666D02*
X128946666Y-109566666D01*
X128880000Y-109666666D01*
X128813333Y-109733333D01*
X128746666Y-109766666D01*
X129380000Y-109566666D02*
X129846666Y-109566666D01*
X129546666Y-110266666D01*
%TO.C,D4*%
X150673333Y-90516666D02*
X150673333Y-89816666D01*
X150840000Y-89816666D01*
X150940000Y-89850000D01*
X151006666Y-89916666D01*
X151040000Y-89983333D01*
X151073333Y-90116666D01*
X151073333Y-90216666D01*
X151040000Y-90350000D01*
X151006666Y-90416666D01*
X150940000Y-90483333D01*
X150840000Y-90516666D01*
X150673333Y-90516666D01*
X151673333Y-90050000D02*
X151673333Y-90516666D01*
X151506666Y-89783333D02*
X151340000Y-90283333D01*
X151773333Y-90283333D01*
%TO.C,C6*%
X152573333Y-106837500D02*
X152540000Y-106870833D01*
X152440000Y-106904166D01*
X152373333Y-106904166D01*
X152273333Y-106870833D01*
X152206666Y-106804166D01*
X152173333Y-106737500D01*
X152140000Y-106604166D01*
X152140000Y-106504166D01*
X152173333Y-106370833D01*
X152206666Y-106304166D01*
X152273333Y-106237500D01*
X152373333Y-106204166D01*
X152440000Y-106204166D01*
X152540000Y-106237500D01*
X152573333Y-106270833D01*
X153173333Y-106204166D02*
X153040000Y-106204166D01*
X152973333Y-106237500D01*
X152940000Y-106270833D01*
X152873333Y-106370833D01*
X152840000Y-106504166D01*
X152840000Y-106770833D01*
X152873333Y-106837500D01*
X152906666Y-106870833D01*
X152973333Y-106904166D01*
X153106666Y-106904166D01*
X153173333Y-106870833D01*
X153206666Y-106837500D01*
X153240000Y-106770833D01*
X153240000Y-106604166D01*
X153206666Y-106537500D01*
X153173333Y-106504166D01*
X153106666Y-106470833D01*
X152973333Y-106470833D01*
X152906666Y-106504166D01*
X152873333Y-106537500D01*
X152840000Y-106604166D01*
%TO.C,R1*%
X134826666Y-89296666D02*
X134493333Y-89530000D01*
X134826666Y-89696666D02*
X134126666Y-89696666D01*
X134126666Y-89430000D01*
X134160000Y-89363333D01*
X134193333Y-89330000D01*
X134260000Y-89296666D01*
X134360000Y-89296666D01*
X134426666Y-89330000D01*
X134460000Y-89363333D01*
X134493333Y-89430000D01*
X134493333Y-89696666D01*
X134826666Y-88630000D02*
X134826666Y-89030000D01*
X134826666Y-88830000D02*
X134126666Y-88830000D01*
X134226666Y-88896666D01*
X134293333Y-88963333D01*
X134326666Y-89030000D01*
%TO.C,R44*%
X166090000Y-112006666D02*
X165856666Y-111673333D01*
X165690000Y-112006666D02*
X165690000Y-111306666D01*
X165956666Y-111306666D01*
X166023333Y-111340000D01*
X166056666Y-111373333D01*
X166090000Y-111440000D01*
X166090000Y-111540000D01*
X166056666Y-111606666D01*
X166023333Y-111640000D01*
X165956666Y-111673333D01*
X165690000Y-111673333D01*
X166690000Y-111540000D02*
X166690000Y-112006666D01*
X166523333Y-111273333D02*
X166356666Y-111773333D01*
X166790000Y-111773333D01*
X167356666Y-111540000D02*
X167356666Y-112006666D01*
X167190000Y-111273333D02*
X167023333Y-111773333D01*
X167456666Y-111773333D01*
%TO.C,C4*%
X141273333Y-106850000D02*
X141240000Y-106883333D01*
X141140000Y-106916666D01*
X141073333Y-106916666D01*
X140973333Y-106883333D01*
X140906666Y-106816666D01*
X140873333Y-106750000D01*
X140840000Y-106616666D01*
X140840000Y-106516666D01*
X140873333Y-106383333D01*
X140906666Y-106316666D01*
X140973333Y-106250000D01*
X141073333Y-106216666D01*
X141140000Y-106216666D01*
X141240000Y-106250000D01*
X141273333Y-106283333D01*
X141873333Y-106450000D02*
X141873333Y-106916666D01*
X141706666Y-106183333D02*
X141540000Y-106683333D01*
X141973333Y-106683333D01*
%TO.C,R6*%
X145756666Y-89206666D02*
X145423333Y-89440000D01*
X145756666Y-89606666D02*
X145056666Y-89606666D01*
X145056666Y-89340000D01*
X145090000Y-89273333D01*
X145123333Y-89240000D01*
X145190000Y-89206666D01*
X145290000Y-89206666D01*
X145356666Y-89240000D01*
X145390000Y-89273333D01*
X145423333Y-89340000D01*
X145423333Y-89606666D01*
X145056666Y-88606666D02*
X145056666Y-88740000D01*
X145090000Y-88806666D01*
X145123333Y-88840000D01*
X145223333Y-88906666D01*
X145356666Y-88940000D01*
X145623333Y-88940000D01*
X145690000Y-88906666D01*
X145723333Y-88873333D01*
X145756666Y-88806666D01*
X145756666Y-88673333D01*
X145723333Y-88606666D01*
X145690000Y-88573333D01*
X145623333Y-88540000D01*
X145456666Y-88540000D01*
X145390000Y-88573333D01*
X145356666Y-88606666D01*
X145323333Y-88673333D01*
X145323333Y-88806666D01*
X145356666Y-88873333D01*
X145390000Y-88906666D01*
X145456666Y-88940000D01*
%TO.C,D2*%
X139753333Y-90576666D02*
X139753333Y-89876666D01*
X139920000Y-89876666D01*
X140020000Y-89910000D01*
X140086666Y-89976666D01*
X140120000Y-90043333D01*
X140153333Y-90176666D01*
X140153333Y-90276666D01*
X140120000Y-90410000D01*
X140086666Y-90476666D01*
X140020000Y-90543333D01*
X139920000Y-90576666D01*
X139753333Y-90576666D01*
X140420000Y-89943333D02*
X140453333Y-89910000D01*
X140520000Y-89876666D01*
X140686666Y-89876666D01*
X140753333Y-89910000D01*
X140786666Y-89943333D01*
X140820000Y-90010000D01*
X140820000Y-90076666D01*
X140786666Y-90176666D01*
X140386666Y-90576666D01*
X140820000Y-90576666D01*
%TO.C,R16*%
X138954000Y-111296666D02*
X138720666Y-110963333D01*
X138554000Y-111296666D02*
X138554000Y-110596666D01*
X138820666Y-110596666D01*
X138887333Y-110630000D01*
X138920666Y-110663333D01*
X138954000Y-110730000D01*
X138954000Y-110830000D01*
X138920666Y-110896666D01*
X138887333Y-110930000D01*
X138820666Y-110963333D01*
X138554000Y-110963333D01*
X139620666Y-111296666D02*
X139220666Y-111296666D01*
X139420666Y-111296666D02*
X139420666Y-110596666D01*
X139354000Y-110696666D01*
X139287333Y-110763333D01*
X139220666Y-110796666D01*
X140220666Y-110596666D02*
X140087333Y-110596666D01*
X140020666Y-110630000D01*
X139987333Y-110663333D01*
X139920666Y-110763333D01*
X139887333Y-110896666D01*
X139887333Y-111163333D01*
X139920666Y-111230000D01*
X139954000Y-111263333D01*
X140020666Y-111296666D01*
X140154000Y-111296666D01*
X140220666Y-111263333D01*
X140254000Y-111230000D01*
X140287333Y-111163333D01*
X140287333Y-110996666D01*
X140254000Y-110930000D01*
X140220666Y-110896666D01*
X140154000Y-110863333D01*
X140020666Y-110863333D01*
X139954000Y-110896666D01*
X139920666Y-110930000D01*
X139887333Y-110996666D01*
%TO.C,R10*%
X172266666Y-92400000D02*
X171933333Y-92633333D01*
X172266666Y-92800000D02*
X171566666Y-92800000D01*
X171566666Y-92533333D01*
X171600000Y-92466666D01*
X171633333Y-92433333D01*
X171700000Y-92400000D01*
X171800000Y-92400000D01*
X171866666Y-92433333D01*
X171900000Y-92466666D01*
X171933333Y-92533333D01*
X171933333Y-92800000D01*
X172266666Y-91733333D02*
X172266666Y-92133333D01*
X172266666Y-91933333D02*
X171566666Y-91933333D01*
X171666666Y-92000000D01*
X171733333Y-92066666D01*
X171766666Y-92133333D01*
X171566666Y-91300000D02*
X171566666Y-91233333D01*
X171600000Y-91166666D01*
X171633333Y-91133333D01*
X171700000Y-91100000D01*
X171833333Y-91066666D01*
X172000000Y-91066666D01*
X172133333Y-91100000D01*
X172200000Y-91133333D01*
X172233333Y-91166666D01*
X172266666Y-91233333D01*
X172266666Y-91300000D01*
X172233333Y-91366666D01*
X172200000Y-91400000D01*
X172133333Y-91433333D01*
X172000000Y-91466666D01*
X171833333Y-91466666D01*
X171700000Y-91433333D01*
X171633333Y-91400000D01*
X171600000Y-91366666D01*
X171566666Y-91300000D01*
%TO.C,R5*%
X142466666Y-97666666D02*
X142133333Y-97900000D01*
X142466666Y-98066666D02*
X141766666Y-98066666D01*
X141766666Y-97800000D01*
X141800000Y-97733333D01*
X141833333Y-97700000D01*
X141900000Y-97666666D01*
X142000000Y-97666666D01*
X142066666Y-97700000D01*
X142100000Y-97733333D01*
X142133333Y-97800000D01*
X142133333Y-98066666D01*
X141766666Y-97033333D02*
X141766666Y-97366666D01*
X142100000Y-97400000D01*
X142066666Y-97366666D01*
X142033333Y-97300000D01*
X142033333Y-97133333D01*
X142066666Y-97066666D01*
X142100000Y-97033333D01*
X142166666Y-97000000D01*
X142333333Y-97000000D01*
X142400000Y-97033333D01*
X142433333Y-97066666D01*
X142466666Y-97133333D01*
X142466666Y-97300000D01*
X142433333Y-97366666D01*
X142400000Y-97400000D01*
%TO.C,R29*%
X159476666Y-97800000D02*
X159143333Y-98033333D01*
X159476666Y-98200000D02*
X158776666Y-98200000D01*
X158776666Y-97933333D01*
X158810000Y-97866666D01*
X158843333Y-97833333D01*
X158910000Y-97800000D01*
X159010000Y-97800000D01*
X159076666Y-97833333D01*
X159110000Y-97866666D01*
X159143333Y-97933333D01*
X159143333Y-98200000D01*
X158843333Y-97533333D02*
X158810000Y-97500000D01*
X158776666Y-97433333D01*
X158776666Y-97266666D01*
X158810000Y-97200000D01*
X158843333Y-97166666D01*
X158910000Y-97133333D01*
X158976666Y-97133333D01*
X159076666Y-97166666D01*
X159476666Y-97566666D01*
X159476666Y-97133333D01*
X159476666Y-96800000D02*
X159476666Y-96666666D01*
X159443333Y-96600000D01*
X159410000Y-96566666D01*
X159310000Y-96500000D01*
X159176666Y-96466666D01*
X158910000Y-96466666D01*
X158843333Y-96500000D01*
X158810000Y-96533333D01*
X158776666Y-96600000D01*
X158776666Y-96733333D01*
X158810000Y-96800000D01*
X158843333Y-96833333D01*
X158910000Y-96866666D01*
X159076666Y-96866666D01*
X159143333Y-96833333D01*
X159176666Y-96800000D01*
X159210000Y-96733333D01*
X159210000Y-96600000D01*
X159176666Y-96533333D01*
X159143333Y-96500000D01*
X159076666Y-96466666D01*
%TO.C,R12*%
X138350000Y-112916666D02*
X138116666Y-112583333D01*
X137950000Y-112916666D02*
X137950000Y-112216666D01*
X138216666Y-112216666D01*
X138283333Y-112250000D01*
X138316666Y-112283333D01*
X138350000Y-112350000D01*
X138350000Y-112450000D01*
X138316666Y-112516666D01*
X138283333Y-112550000D01*
X138216666Y-112583333D01*
X137950000Y-112583333D01*
X139016666Y-112916666D02*
X138616666Y-112916666D01*
X138816666Y-112916666D02*
X138816666Y-112216666D01*
X138750000Y-112316666D01*
X138683333Y-112383333D01*
X138616666Y-112416666D01*
X139283333Y-112283333D02*
X139316666Y-112250000D01*
X139383333Y-112216666D01*
X139550000Y-112216666D01*
X139616666Y-112250000D01*
X139650000Y-112283333D01*
X139683333Y-112350000D01*
X139683333Y-112416666D01*
X139650000Y-112516666D01*
X139250000Y-112916666D01*
X139683333Y-112916666D01*
%TO.C,R49*%
X159300000Y-106946666D02*
X159066666Y-106613333D01*
X158900000Y-106946666D02*
X158900000Y-106246666D01*
X159166666Y-106246666D01*
X159233333Y-106280000D01*
X159266666Y-106313333D01*
X159300000Y-106380000D01*
X159300000Y-106480000D01*
X159266666Y-106546666D01*
X159233333Y-106580000D01*
X159166666Y-106613333D01*
X158900000Y-106613333D01*
X159900000Y-106480000D02*
X159900000Y-106946666D01*
X159733333Y-106213333D02*
X159566666Y-106713333D01*
X160000000Y-106713333D01*
X160300000Y-106946666D02*
X160433333Y-106946666D01*
X160500000Y-106913333D01*
X160533333Y-106880000D01*
X160600000Y-106780000D01*
X160633333Y-106646666D01*
X160633333Y-106380000D01*
X160600000Y-106313333D01*
X160566666Y-106280000D01*
X160500000Y-106246666D01*
X160366666Y-106246666D01*
X160300000Y-106280000D01*
X160266666Y-106313333D01*
X160233333Y-106380000D01*
X160233333Y-106546666D01*
X160266666Y-106613333D01*
X160300000Y-106646666D01*
X160366666Y-106680000D01*
X160500000Y-106680000D01*
X160566666Y-106646666D01*
X160600000Y-106613333D01*
X160633333Y-106546666D01*
%TO.C,J1*%
X142726666Y-94998333D02*
X143226666Y-94998333D01*
X143326666Y-95031666D01*
X143393333Y-95098333D01*
X143426666Y-95198333D01*
X143426666Y-95265000D01*
X143426666Y-94298333D02*
X143426666Y-94698333D01*
X143426666Y-94498333D02*
X142726666Y-94498333D01*
X142826666Y-94565000D01*
X142893333Y-94631666D01*
X142926666Y-94698333D01*
%TO.C,R19*%
X142770000Y-111996666D02*
X142536666Y-111663333D01*
X142370000Y-111996666D02*
X142370000Y-111296666D01*
X142636666Y-111296666D01*
X142703333Y-111330000D01*
X142736666Y-111363333D01*
X142770000Y-111430000D01*
X142770000Y-111530000D01*
X142736666Y-111596666D01*
X142703333Y-111630000D01*
X142636666Y-111663333D01*
X142370000Y-111663333D01*
X143436666Y-111996666D02*
X143036666Y-111996666D01*
X143236666Y-111996666D02*
X143236666Y-111296666D01*
X143170000Y-111396666D01*
X143103333Y-111463333D01*
X143036666Y-111496666D01*
X143770000Y-111996666D02*
X143903333Y-111996666D01*
X143970000Y-111963333D01*
X144003333Y-111930000D01*
X144070000Y-111830000D01*
X144103333Y-111696666D01*
X144103333Y-111430000D01*
X144070000Y-111363333D01*
X144036666Y-111330000D01*
X143970000Y-111296666D01*
X143836666Y-111296666D01*
X143770000Y-111330000D01*
X143736666Y-111363333D01*
X143703333Y-111430000D01*
X143703333Y-111596666D01*
X143736666Y-111663333D01*
X143770000Y-111696666D01*
X143836666Y-111730000D01*
X143970000Y-111730000D01*
X144036666Y-111696666D01*
X144070000Y-111663333D01*
X144103333Y-111596666D01*
%TO.C,C3*%
X140853333Y-98560000D02*
X140820000Y-98593333D01*
X140720000Y-98626666D01*
X140653333Y-98626666D01*
X140553333Y-98593333D01*
X140486666Y-98526666D01*
X140453333Y-98460000D01*
X140420000Y-98326666D01*
X140420000Y-98226666D01*
X140453333Y-98093333D01*
X140486666Y-98026666D01*
X140553333Y-97960000D01*
X140653333Y-97926666D01*
X140720000Y-97926666D01*
X140820000Y-97960000D01*
X140853333Y-97993333D01*
X141086666Y-97926666D02*
X141520000Y-97926666D01*
X141286666Y-98193333D01*
X141386666Y-98193333D01*
X141453333Y-98226666D01*
X141486666Y-98260000D01*
X141520000Y-98326666D01*
X141520000Y-98493333D01*
X141486666Y-98560000D01*
X141453333Y-98593333D01*
X141386666Y-98626666D01*
X141186666Y-98626666D01*
X141120000Y-98593333D01*
X141086666Y-98560000D01*
%TO.C,R24*%
X166846666Y-89540000D02*
X166513333Y-89773333D01*
X166846666Y-89940000D02*
X166146666Y-89940000D01*
X166146666Y-89673333D01*
X166180000Y-89606666D01*
X166213333Y-89573333D01*
X166280000Y-89540000D01*
X166380000Y-89540000D01*
X166446666Y-89573333D01*
X166480000Y-89606666D01*
X166513333Y-89673333D01*
X166513333Y-89940000D01*
X166213333Y-89273333D02*
X166180000Y-89240000D01*
X166146666Y-89173333D01*
X166146666Y-89006666D01*
X166180000Y-88940000D01*
X166213333Y-88906666D01*
X166280000Y-88873333D01*
X166346666Y-88873333D01*
X166446666Y-88906666D01*
X166846666Y-89306666D01*
X166846666Y-88873333D01*
X166380000Y-88273333D02*
X166846666Y-88273333D01*
X166113333Y-88440000D02*
X166613333Y-88606666D01*
X166613333Y-88173333D01*
%TO.C,R46*%
X166020000Y-106826666D02*
X165786666Y-106493333D01*
X165620000Y-106826666D02*
X165620000Y-106126666D01*
X165886666Y-106126666D01*
X165953333Y-106160000D01*
X165986666Y-106193333D01*
X166020000Y-106260000D01*
X166020000Y-106360000D01*
X165986666Y-106426666D01*
X165953333Y-106460000D01*
X165886666Y-106493333D01*
X165620000Y-106493333D01*
X166620000Y-106360000D02*
X166620000Y-106826666D01*
X166453333Y-106093333D02*
X166286666Y-106593333D01*
X166720000Y-106593333D01*
X167286666Y-106126666D02*
X167153333Y-106126666D01*
X167086666Y-106160000D01*
X167053333Y-106193333D01*
X166986666Y-106293333D01*
X166953333Y-106426666D01*
X166953333Y-106693333D01*
X166986666Y-106760000D01*
X167020000Y-106793333D01*
X167086666Y-106826666D01*
X167220000Y-106826666D01*
X167286666Y-106793333D01*
X167320000Y-106760000D01*
X167353333Y-106693333D01*
X167353333Y-106526666D01*
X167320000Y-106460000D01*
X167286666Y-106426666D01*
X167220000Y-106393333D01*
X167086666Y-106393333D01*
X167020000Y-106426666D01*
X166986666Y-106460000D01*
X166953333Y-106526666D01*
%TO.C,R31*%
X153916666Y-98010000D02*
X153583333Y-98243333D01*
X153916666Y-98410000D02*
X153216666Y-98410000D01*
X153216666Y-98143333D01*
X153250000Y-98076666D01*
X153283333Y-98043333D01*
X153350000Y-98010000D01*
X153450000Y-98010000D01*
X153516666Y-98043333D01*
X153550000Y-98076666D01*
X153583333Y-98143333D01*
X153583333Y-98410000D01*
X153216666Y-97776666D02*
X153216666Y-97343333D01*
X153483333Y-97576666D01*
X153483333Y-97476666D01*
X153516666Y-97410000D01*
X153550000Y-97376666D01*
X153616666Y-97343333D01*
X153783333Y-97343333D01*
X153850000Y-97376666D01*
X153883333Y-97410000D01*
X153916666Y-97476666D01*
X153916666Y-97676666D01*
X153883333Y-97743333D01*
X153850000Y-97776666D01*
X153916666Y-96676666D02*
X153916666Y-97076666D01*
X153916666Y-96876666D02*
X153216666Y-96876666D01*
X153316666Y-96943333D01*
X153383333Y-97010000D01*
X153416666Y-97076666D01*
%TO.C,D7*%
X166643333Y-83556666D02*
X166643333Y-82856666D01*
X166810000Y-82856666D01*
X166910000Y-82890000D01*
X166976666Y-82956666D01*
X167010000Y-83023333D01*
X167043333Y-83156666D01*
X167043333Y-83256666D01*
X167010000Y-83390000D01*
X166976666Y-83456666D01*
X166910000Y-83523333D01*
X166810000Y-83556666D01*
X166643333Y-83556666D01*
X167276666Y-82856666D02*
X167743333Y-82856666D01*
X167443333Y-83556666D01*
%TO.C,C7*%
X163653333Y-98660000D02*
X163620000Y-98693333D01*
X163520000Y-98726666D01*
X163453333Y-98726666D01*
X163353333Y-98693333D01*
X163286666Y-98626666D01*
X163253333Y-98560000D01*
X163220000Y-98426666D01*
X163220000Y-98326666D01*
X163253333Y-98193333D01*
X163286666Y-98126666D01*
X163353333Y-98060000D01*
X163453333Y-98026666D01*
X163520000Y-98026666D01*
X163620000Y-98060000D01*
X163653333Y-98093333D01*
X163886666Y-98026666D02*
X164353333Y-98026666D01*
X164053333Y-98726666D01*
%TO.C,R45*%
X154270000Y-106856666D02*
X154036666Y-106523333D01*
X153870000Y-106856666D02*
X153870000Y-106156666D01*
X154136666Y-106156666D01*
X154203333Y-106190000D01*
X154236666Y-106223333D01*
X154270000Y-106290000D01*
X154270000Y-106390000D01*
X154236666Y-106456666D01*
X154203333Y-106490000D01*
X154136666Y-106523333D01*
X153870000Y-106523333D01*
X154870000Y-106390000D02*
X154870000Y-106856666D01*
X154703333Y-106123333D02*
X154536666Y-106623333D01*
X154970000Y-106623333D01*
X155570000Y-106156666D02*
X155236666Y-106156666D01*
X155203333Y-106490000D01*
X155236666Y-106456666D01*
X155303333Y-106423333D01*
X155470000Y-106423333D01*
X155536666Y-106456666D01*
X155570000Y-106490000D01*
X155603333Y-106556666D01*
X155603333Y-106723333D01*
X155570000Y-106790000D01*
X155536666Y-106823333D01*
X155470000Y-106856666D01*
X155303333Y-106856666D01*
X155236666Y-106823333D01*
X155203333Y-106790000D01*
%TO.C,R50*%
X157280000Y-106906666D02*
X157046666Y-106573333D01*
X156880000Y-106906666D02*
X156880000Y-106206666D01*
X157146666Y-106206666D01*
X157213333Y-106240000D01*
X157246666Y-106273333D01*
X157280000Y-106340000D01*
X157280000Y-106440000D01*
X157246666Y-106506666D01*
X157213333Y-106540000D01*
X157146666Y-106573333D01*
X156880000Y-106573333D01*
X157913333Y-106206666D02*
X157580000Y-106206666D01*
X157546666Y-106540000D01*
X157580000Y-106506666D01*
X157646666Y-106473333D01*
X157813333Y-106473333D01*
X157880000Y-106506666D01*
X157913333Y-106540000D01*
X157946666Y-106606666D01*
X157946666Y-106773333D01*
X157913333Y-106840000D01*
X157880000Y-106873333D01*
X157813333Y-106906666D01*
X157646666Y-106906666D01*
X157580000Y-106873333D01*
X157546666Y-106840000D01*
X158380000Y-106206666D02*
X158446666Y-106206666D01*
X158513333Y-106240000D01*
X158546666Y-106273333D01*
X158580000Y-106340000D01*
X158613333Y-106473333D01*
X158613333Y-106640000D01*
X158580000Y-106773333D01*
X158546666Y-106840000D01*
X158513333Y-106873333D01*
X158446666Y-106906666D01*
X158380000Y-106906666D01*
X158313333Y-106873333D01*
X158280000Y-106840000D01*
X158246666Y-106773333D01*
X158213333Y-106640000D01*
X158213333Y-106473333D01*
X158246666Y-106340000D01*
X158280000Y-106273333D01*
X158313333Y-106240000D01*
X158380000Y-106206666D01*
%TO.C,J2*%
X139956666Y-119533333D02*
X140456666Y-119533333D01*
X140556666Y-119566666D01*
X140623333Y-119633333D01*
X140656666Y-119733333D01*
X140656666Y-119800000D01*
X140023333Y-119233333D02*
X139990000Y-119200000D01*
X139956666Y-119133333D01*
X139956666Y-118966666D01*
X139990000Y-118900000D01*
X140023333Y-118866666D01*
X140090000Y-118833333D01*
X140156666Y-118833333D01*
X140256666Y-118866666D01*
X140656666Y-119266666D01*
X140656666Y-118833333D01*
%TO.C,R42*%
X154430000Y-112036666D02*
X154196666Y-111703333D01*
X154030000Y-112036666D02*
X154030000Y-111336666D01*
X154296666Y-111336666D01*
X154363333Y-111370000D01*
X154396666Y-111403333D01*
X154430000Y-111470000D01*
X154430000Y-111570000D01*
X154396666Y-111636666D01*
X154363333Y-111670000D01*
X154296666Y-111703333D01*
X154030000Y-111703333D01*
X155030000Y-111570000D02*
X155030000Y-112036666D01*
X154863333Y-111303333D02*
X154696666Y-111803333D01*
X155130000Y-111803333D01*
X155363333Y-111403333D02*
X155396666Y-111370000D01*
X155463333Y-111336666D01*
X155630000Y-111336666D01*
X155696666Y-111370000D01*
X155730000Y-111403333D01*
X155763333Y-111470000D01*
X155763333Y-111536666D01*
X155730000Y-111636666D01*
X155330000Y-112036666D01*
X155763333Y-112036666D01*
%TO.C,R9*%
X138323333Y-114976666D02*
X138090000Y-114643333D01*
X137923333Y-114976666D02*
X137923333Y-114276666D01*
X138190000Y-114276666D01*
X138256666Y-114310000D01*
X138290000Y-114343333D01*
X138323333Y-114410000D01*
X138323333Y-114510000D01*
X138290000Y-114576666D01*
X138256666Y-114610000D01*
X138190000Y-114643333D01*
X137923333Y-114643333D01*
X138656666Y-114976666D02*
X138790000Y-114976666D01*
X138856666Y-114943333D01*
X138890000Y-114910000D01*
X138956666Y-114810000D01*
X138990000Y-114676666D01*
X138990000Y-114410000D01*
X138956666Y-114343333D01*
X138923333Y-114310000D01*
X138856666Y-114276666D01*
X138723333Y-114276666D01*
X138656666Y-114310000D01*
X138623333Y-114343333D01*
X138590000Y-114410000D01*
X138590000Y-114576666D01*
X138623333Y-114643333D01*
X138656666Y-114676666D01*
X138723333Y-114710000D01*
X138856666Y-114710000D01*
X138923333Y-114676666D01*
X138956666Y-114643333D01*
X138990000Y-114576666D01*
%TO.C,C1*%
X129463333Y-98580000D02*
X129430000Y-98613333D01*
X129330000Y-98646666D01*
X129263333Y-98646666D01*
X129163333Y-98613333D01*
X129096666Y-98546666D01*
X129063333Y-98480000D01*
X129030000Y-98346666D01*
X129030000Y-98246666D01*
X129063333Y-98113333D01*
X129096666Y-98046666D01*
X129163333Y-97980000D01*
X129263333Y-97946666D01*
X129330000Y-97946666D01*
X129430000Y-97980000D01*
X129463333Y-98013333D01*
X130130000Y-98646666D02*
X129730000Y-98646666D01*
X129930000Y-98646666D02*
X129930000Y-97946666D01*
X129863333Y-98046666D01*
X129796666Y-98113333D01*
X129730000Y-98146666D01*
%TO.C,RV4*%
X132606666Y-94106666D02*
X132273333Y-94340000D01*
X132606666Y-94506666D02*
X131906666Y-94506666D01*
X131906666Y-94240000D01*
X131940000Y-94173333D01*
X131973333Y-94140000D01*
X132040000Y-94106666D01*
X132140000Y-94106666D01*
X132206666Y-94140000D01*
X132240000Y-94173333D01*
X132273333Y-94240000D01*
X132273333Y-94506666D01*
X131906666Y-93906666D02*
X132606666Y-93673333D01*
X131906666Y-93440000D01*
X132140000Y-92906666D02*
X132606666Y-92906666D01*
X131873333Y-93073333D02*
X132373333Y-93240000D01*
X132373333Y-92806666D01*
%TO.C,R30*%
X170826666Y-97750000D02*
X170493333Y-97983333D01*
X170826666Y-98150000D02*
X170126666Y-98150000D01*
X170126666Y-97883333D01*
X170160000Y-97816666D01*
X170193333Y-97783333D01*
X170260000Y-97750000D01*
X170360000Y-97750000D01*
X170426666Y-97783333D01*
X170460000Y-97816666D01*
X170493333Y-97883333D01*
X170493333Y-98150000D01*
X170126666Y-97516666D02*
X170126666Y-97083333D01*
X170393333Y-97316666D01*
X170393333Y-97216666D01*
X170426666Y-97150000D01*
X170460000Y-97116666D01*
X170526666Y-97083333D01*
X170693333Y-97083333D01*
X170760000Y-97116666D01*
X170793333Y-97150000D01*
X170826666Y-97216666D01*
X170826666Y-97416666D01*
X170793333Y-97483333D01*
X170760000Y-97516666D01*
X170126666Y-96650000D02*
X170126666Y-96583333D01*
X170160000Y-96516666D01*
X170193333Y-96483333D01*
X170260000Y-96450000D01*
X170393333Y-96416666D01*
X170560000Y-96416666D01*
X170693333Y-96450000D01*
X170760000Y-96483333D01*
X170793333Y-96516666D01*
X170826666Y-96583333D01*
X170826666Y-96650000D01*
X170793333Y-96716666D01*
X170760000Y-96750000D01*
X170693333Y-96783333D01*
X170560000Y-96816666D01*
X170393333Y-96816666D01*
X170260000Y-96783333D01*
X170193333Y-96750000D01*
X170160000Y-96716666D01*
X170126666Y-96650000D01*
%TO.C,R20*%
X131100000Y-106916666D02*
X130866666Y-106583333D01*
X130700000Y-106916666D02*
X130700000Y-106216666D01*
X130966666Y-106216666D01*
X131033333Y-106250000D01*
X131066666Y-106283333D01*
X131100000Y-106350000D01*
X131100000Y-106450000D01*
X131066666Y-106516666D01*
X131033333Y-106550000D01*
X130966666Y-106583333D01*
X130700000Y-106583333D01*
X131366666Y-106283333D02*
X131400000Y-106250000D01*
X131466666Y-106216666D01*
X131633333Y-106216666D01*
X131700000Y-106250000D01*
X131733333Y-106283333D01*
X131766666Y-106350000D01*
X131766666Y-106416666D01*
X131733333Y-106516666D01*
X131333333Y-106916666D01*
X131766666Y-106916666D01*
X132200000Y-106216666D02*
X132266666Y-106216666D01*
X132333333Y-106250000D01*
X132366666Y-106283333D01*
X132400000Y-106350000D01*
X132433333Y-106483333D01*
X132433333Y-106650000D01*
X132400000Y-106783333D01*
X132366666Y-106850000D01*
X132333333Y-106883333D01*
X132266666Y-106916666D01*
X132200000Y-106916666D01*
X132133333Y-106883333D01*
X132100000Y-106850000D01*
X132066666Y-106783333D01*
X132033333Y-106650000D01*
X132033333Y-106483333D01*
X132066666Y-106350000D01*
X132100000Y-106283333D01*
X132133333Y-106250000D01*
X132200000Y-106216666D01*
%TO.C,R43*%
X173760000Y-111516666D02*
X173526666Y-111183333D01*
X173360000Y-111516666D02*
X173360000Y-110816666D01*
X173626666Y-110816666D01*
X173693333Y-110850000D01*
X173726666Y-110883333D01*
X173760000Y-110950000D01*
X173760000Y-111050000D01*
X173726666Y-111116666D01*
X173693333Y-111150000D01*
X173626666Y-111183333D01*
X173360000Y-111183333D01*
X174360000Y-111050000D02*
X174360000Y-111516666D01*
X174193333Y-110783333D02*
X174026666Y-111283333D01*
X174460000Y-111283333D01*
X174660000Y-110816666D02*
X175093333Y-110816666D01*
X174860000Y-111083333D01*
X174960000Y-111083333D01*
X175026666Y-111116666D01*
X175060000Y-111150000D01*
X175093333Y-111216666D01*
X175093333Y-111383333D01*
X175060000Y-111450000D01*
X175026666Y-111483333D01*
X174960000Y-111516666D01*
X174760000Y-111516666D01*
X174693333Y-111483333D01*
X174660000Y-111450000D01*
%TO.C,U1*%
X135036666Y-97886666D02*
X135036666Y-98453333D01*
X135070000Y-98520000D01*
X135103333Y-98553333D01*
X135170000Y-98586666D01*
X135303333Y-98586666D01*
X135370000Y-98553333D01*
X135403333Y-98520000D01*
X135436666Y-98453333D01*
X135436666Y-97886666D01*
X136136666Y-98586666D02*
X135736666Y-98586666D01*
X135936666Y-98586666D02*
X135936666Y-97886666D01*
X135870000Y-97986666D01*
X135803333Y-98053333D01*
X135736666Y-98086666D01*
%TO.C,J3*%
X128336666Y-72516666D02*
X128336666Y-73016666D01*
X128303333Y-73116666D01*
X128236666Y-73183333D01*
X128136666Y-73216666D01*
X128070000Y-73216666D01*
X128603333Y-72516666D02*
X129036666Y-72516666D01*
X128803333Y-72783333D01*
X128903333Y-72783333D01*
X128970000Y-72816666D01*
X129003333Y-72850000D01*
X129036666Y-72916666D01*
X129036666Y-73083333D01*
X129003333Y-73150000D01*
X128970000Y-73183333D01*
X128903333Y-73216666D01*
X128703333Y-73216666D01*
X128636666Y-73183333D01*
X128603333Y-73150000D01*
%TO.C,R14*%
X128480000Y-112746666D02*
X128246666Y-112413333D01*
X128080000Y-112746666D02*
X128080000Y-112046666D01*
X128346666Y-112046666D01*
X128413333Y-112080000D01*
X128446666Y-112113333D01*
X128480000Y-112180000D01*
X128480000Y-112280000D01*
X128446666Y-112346666D01*
X128413333Y-112380000D01*
X128346666Y-112413333D01*
X128080000Y-112413333D01*
X129146666Y-112746666D02*
X128746666Y-112746666D01*
X128946666Y-112746666D02*
X128946666Y-112046666D01*
X128880000Y-112146666D01*
X128813333Y-112213333D01*
X128746666Y-112246666D01*
X129746666Y-112280000D02*
X129746666Y-112746666D01*
X129580000Y-112013333D02*
X129413333Y-112513333D01*
X129846666Y-112513333D01*
%TO.C,D1*%
X134433333Y-83526666D02*
X134433333Y-82826666D01*
X134600000Y-82826666D01*
X134700000Y-82860000D01*
X134766666Y-82926666D01*
X134800000Y-82993333D01*
X134833333Y-83126666D01*
X134833333Y-83226666D01*
X134800000Y-83360000D01*
X134766666Y-83426666D01*
X134700000Y-83493333D01*
X134600000Y-83526666D01*
X134433333Y-83526666D01*
X135500000Y-83526666D02*
X135100000Y-83526666D01*
X135300000Y-83526666D02*
X135300000Y-82826666D01*
X135233333Y-82926666D01*
X135166666Y-82993333D01*
X135100000Y-83026666D01*
%TO.C,C8*%
X163873333Y-106830000D02*
X163840000Y-106863333D01*
X163740000Y-106896666D01*
X163673333Y-106896666D01*
X163573333Y-106863333D01*
X163506666Y-106796666D01*
X163473333Y-106730000D01*
X163440000Y-106596666D01*
X163440000Y-106496666D01*
X163473333Y-106363333D01*
X163506666Y-106296666D01*
X163573333Y-106230000D01*
X163673333Y-106196666D01*
X163740000Y-106196666D01*
X163840000Y-106230000D01*
X163873333Y-106263333D01*
X164273333Y-106496666D02*
X164206666Y-106463333D01*
X164173333Y-106430000D01*
X164140000Y-106363333D01*
X164140000Y-106330000D01*
X164173333Y-106263333D01*
X164206666Y-106230000D01*
X164273333Y-106196666D01*
X164406666Y-106196666D01*
X164473333Y-106230000D01*
X164506666Y-106263333D01*
X164540000Y-106330000D01*
X164540000Y-106363333D01*
X164506666Y-106430000D01*
X164473333Y-106463333D01*
X164406666Y-106496666D01*
X164273333Y-106496666D01*
X164206666Y-106530000D01*
X164173333Y-106563333D01*
X164140000Y-106630000D01*
X164140000Y-106763333D01*
X164173333Y-106830000D01*
X164206666Y-106863333D01*
X164273333Y-106896666D01*
X164406666Y-106896666D01*
X164473333Y-106863333D01*
X164506666Y-106830000D01*
X164540000Y-106763333D01*
X164540000Y-106630000D01*
X164506666Y-106563333D01*
X164473333Y-106530000D01*
X164406666Y-106496666D01*
%TO.C,U6*%
X168906666Y-97986666D02*
X168906666Y-98553333D01*
X168940000Y-98620000D01*
X168973333Y-98653333D01*
X169040000Y-98686666D01*
X169173333Y-98686666D01*
X169240000Y-98653333D01*
X169273333Y-98620000D01*
X169306666Y-98553333D01*
X169306666Y-97986666D01*
X169940000Y-97986666D02*
X169806666Y-97986666D01*
X169740000Y-98020000D01*
X169706666Y-98053333D01*
X169640000Y-98153333D01*
X169606666Y-98286666D01*
X169606666Y-98553333D01*
X169640000Y-98620000D01*
X169673333Y-98653333D01*
X169740000Y-98686666D01*
X169873333Y-98686666D01*
X169940000Y-98653333D01*
X169973333Y-98620000D01*
X170006666Y-98553333D01*
X170006666Y-98386666D01*
X169973333Y-98320000D01*
X169940000Y-98286666D01*
X169873333Y-98253333D01*
X169740000Y-98253333D01*
X169673333Y-98286666D01*
X169640000Y-98320000D01*
X169606666Y-98386666D01*
%TO.C,R48*%
X173400000Y-106846666D02*
X173166666Y-106513333D01*
X173000000Y-106846666D02*
X173000000Y-106146666D01*
X173266666Y-106146666D01*
X173333333Y-106180000D01*
X173366666Y-106213333D01*
X173400000Y-106280000D01*
X173400000Y-106380000D01*
X173366666Y-106446666D01*
X173333333Y-106480000D01*
X173266666Y-106513333D01*
X173000000Y-106513333D01*
X174000000Y-106380000D02*
X174000000Y-106846666D01*
X173833333Y-106113333D02*
X173666666Y-106613333D01*
X174100000Y-106613333D01*
X174466666Y-106446666D02*
X174400000Y-106413333D01*
X174366666Y-106380000D01*
X174333333Y-106313333D01*
X174333333Y-106280000D01*
X174366666Y-106213333D01*
X174400000Y-106180000D01*
X174466666Y-106146666D01*
X174600000Y-106146666D01*
X174666666Y-106180000D01*
X174700000Y-106213333D01*
X174733333Y-106280000D01*
X174733333Y-106313333D01*
X174700000Y-106380000D01*
X174666666Y-106413333D01*
X174600000Y-106446666D01*
X174466666Y-106446666D01*
X174400000Y-106480000D01*
X174366666Y-106513333D01*
X174333333Y-106580000D01*
X174333333Y-106713333D01*
X174366666Y-106780000D01*
X174400000Y-106813333D01*
X174466666Y-106846666D01*
X174600000Y-106846666D01*
X174666666Y-106813333D01*
X174700000Y-106780000D01*
X174733333Y-106713333D01*
X174733333Y-106580000D01*
X174700000Y-106513333D01*
X174666666Y-106480000D01*
X174600000Y-106446666D01*
%TO.C,R3*%
X147996666Y-97216666D02*
X147663333Y-97450000D01*
X147996666Y-97616666D02*
X147296666Y-97616666D01*
X147296666Y-97350000D01*
X147330000Y-97283333D01*
X147363333Y-97250000D01*
X147430000Y-97216666D01*
X147530000Y-97216666D01*
X147596666Y-97250000D01*
X147630000Y-97283333D01*
X147663333Y-97350000D01*
X147663333Y-97616666D01*
X147296666Y-96983333D02*
X147296666Y-96550000D01*
X147563333Y-96783333D01*
X147563333Y-96683333D01*
X147596666Y-96616666D01*
X147630000Y-96583333D01*
X147696666Y-96550000D01*
X147863333Y-96550000D01*
X147930000Y-96583333D01*
X147963333Y-96616666D01*
X147996666Y-96683333D01*
X147996666Y-96883333D01*
X147963333Y-96950000D01*
X147930000Y-96983333D01*
%TO.C,R32*%
X165316666Y-97770000D02*
X164983333Y-98003333D01*
X165316666Y-98170000D02*
X164616666Y-98170000D01*
X164616666Y-97903333D01*
X164650000Y-97836666D01*
X164683333Y-97803333D01*
X164750000Y-97770000D01*
X164850000Y-97770000D01*
X164916666Y-97803333D01*
X164950000Y-97836666D01*
X164983333Y-97903333D01*
X164983333Y-98170000D01*
X164616666Y-97536666D02*
X164616666Y-97103333D01*
X164883333Y-97336666D01*
X164883333Y-97236666D01*
X164916666Y-97170000D01*
X164950000Y-97136666D01*
X165016666Y-97103333D01*
X165183333Y-97103333D01*
X165250000Y-97136666D01*
X165283333Y-97170000D01*
X165316666Y-97236666D01*
X165316666Y-97436666D01*
X165283333Y-97503333D01*
X165250000Y-97536666D01*
X164683333Y-96836666D02*
X164650000Y-96803333D01*
X164616666Y-96736666D01*
X164616666Y-96570000D01*
X164650000Y-96503333D01*
X164683333Y-96470000D01*
X164750000Y-96436666D01*
X164816666Y-96436666D01*
X164916666Y-96470000D01*
X165316666Y-96870000D01*
X165316666Y-96436666D01*
%TO.C,D5*%
X155963333Y-83456666D02*
X155963333Y-82756666D01*
X156130000Y-82756666D01*
X156230000Y-82790000D01*
X156296666Y-82856666D01*
X156330000Y-82923333D01*
X156363333Y-83056666D01*
X156363333Y-83156666D01*
X156330000Y-83290000D01*
X156296666Y-83356666D01*
X156230000Y-83423333D01*
X156130000Y-83456666D01*
X155963333Y-83456666D01*
X156996666Y-82756666D02*
X156663333Y-82756666D01*
X156630000Y-83090000D01*
X156663333Y-83056666D01*
X156730000Y-83023333D01*
X156896666Y-83023333D01*
X156963333Y-83056666D01*
X156996666Y-83090000D01*
X157030000Y-83156666D01*
X157030000Y-83323333D01*
X156996666Y-83390000D01*
X156963333Y-83423333D01*
X156896666Y-83456666D01*
X156730000Y-83456666D01*
X156663333Y-83423333D01*
X156630000Y-83390000D01*
%TO.C,R51*%
X170940000Y-106876666D02*
X170706666Y-106543333D01*
X170540000Y-106876666D02*
X170540000Y-106176666D01*
X170806666Y-106176666D01*
X170873333Y-106210000D01*
X170906666Y-106243333D01*
X170940000Y-106310000D01*
X170940000Y-106410000D01*
X170906666Y-106476666D01*
X170873333Y-106510000D01*
X170806666Y-106543333D01*
X170540000Y-106543333D01*
X171573333Y-106176666D02*
X171240000Y-106176666D01*
X171206666Y-106510000D01*
X171240000Y-106476666D01*
X171306666Y-106443333D01*
X171473333Y-106443333D01*
X171540000Y-106476666D01*
X171573333Y-106510000D01*
X171606666Y-106576666D01*
X171606666Y-106743333D01*
X171573333Y-106810000D01*
X171540000Y-106843333D01*
X171473333Y-106876666D01*
X171306666Y-106876666D01*
X171240000Y-106843333D01*
X171206666Y-106810000D01*
X172273333Y-106876666D02*
X171873333Y-106876666D01*
X172073333Y-106876666D02*
X172073333Y-106176666D01*
X172006666Y-106276666D01*
X171940000Y-106343333D01*
X171873333Y-106376666D01*
%TO.C,U2*%
X146436666Y-97866666D02*
X146436666Y-98433333D01*
X146470000Y-98500000D01*
X146503333Y-98533333D01*
X146570000Y-98566666D01*
X146703333Y-98566666D01*
X146770000Y-98533333D01*
X146803333Y-98500000D01*
X146836666Y-98433333D01*
X146836666Y-97866666D01*
X147136666Y-97933333D02*
X147170000Y-97900000D01*
X147236666Y-97866666D01*
X147403333Y-97866666D01*
X147470000Y-97900000D01*
X147503333Y-97933333D01*
X147536666Y-98000000D01*
X147536666Y-98066666D01*
X147503333Y-98166666D01*
X147103333Y-98566666D01*
X147536666Y-98566666D01*
%TO.C,R27*%
X147770000Y-106876666D02*
X147536666Y-106543333D01*
X147370000Y-106876666D02*
X147370000Y-106176666D01*
X147636666Y-106176666D01*
X147703333Y-106210000D01*
X147736666Y-106243333D01*
X147770000Y-106310000D01*
X147770000Y-106410000D01*
X147736666Y-106476666D01*
X147703333Y-106510000D01*
X147636666Y-106543333D01*
X147370000Y-106543333D01*
X148036666Y-106243333D02*
X148070000Y-106210000D01*
X148136666Y-106176666D01*
X148303333Y-106176666D01*
X148370000Y-106210000D01*
X148403333Y-106243333D01*
X148436666Y-106310000D01*
X148436666Y-106376666D01*
X148403333Y-106476666D01*
X148003333Y-106876666D01*
X148436666Y-106876666D01*
X148670000Y-106176666D02*
X149136666Y-106176666D01*
X148836666Y-106876666D01*
%TO.C,R4*%
X131126666Y-97646666D02*
X130793333Y-97880000D01*
X131126666Y-98046666D02*
X130426666Y-98046666D01*
X130426666Y-97780000D01*
X130460000Y-97713333D01*
X130493333Y-97680000D01*
X130560000Y-97646666D01*
X130660000Y-97646666D01*
X130726666Y-97680000D01*
X130760000Y-97713333D01*
X130793333Y-97780000D01*
X130793333Y-98046666D01*
X130660000Y-97046666D02*
X131126666Y-97046666D01*
X130393333Y-97213333D02*
X130893333Y-97380000D01*
X130893333Y-96946666D01*
%TO.C,J4*%
X128416666Y-82396666D02*
X128416666Y-82896666D01*
X128383333Y-82996666D01*
X128316666Y-83063333D01*
X128216666Y-83096666D01*
X128150000Y-83096666D01*
X129050000Y-82630000D02*
X129050000Y-83096666D01*
X128883333Y-82363333D02*
X128716666Y-82863333D01*
X129150000Y-82863333D01*
%TO.C,R41*%
X162150000Y-112006666D02*
X161916666Y-111673333D01*
X161750000Y-112006666D02*
X161750000Y-111306666D01*
X162016666Y-111306666D01*
X162083333Y-111340000D01*
X162116666Y-111373333D01*
X162150000Y-111440000D01*
X162150000Y-111540000D01*
X162116666Y-111606666D01*
X162083333Y-111640000D01*
X162016666Y-111673333D01*
X161750000Y-111673333D01*
X162750000Y-111540000D02*
X162750000Y-112006666D01*
X162583333Y-111273333D02*
X162416666Y-111773333D01*
X162850000Y-111773333D01*
X163483333Y-112006666D02*
X163083333Y-112006666D01*
X163283333Y-112006666D02*
X163283333Y-111306666D01*
X163216666Y-111406666D01*
X163150000Y-111473333D01*
X163083333Y-111506666D01*
%TO.C,R18*%
X150650000Y-111966666D02*
X150416666Y-111633333D01*
X150250000Y-111966666D02*
X150250000Y-111266666D01*
X150516666Y-111266666D01*
X150583333Y-111300000D01*
X150616666Y-111333333D01*
X150650000Y-111400000D01*
X150650000Y-111500000D01*
X150616666Y-111566666D01*
X150583333Y-111600000D01*
X150516666Y-111633333D01*
X150250000Y-111633333D01*
X151316666Y-111966666D02*
X150916666Y-111966666D01*
X151116666Y-111966666D02*
X151116666Y-111266666D01*
X151050000Y-111366666D01*
X150983333Y-111433333D01*
X150916666Y-111466666D01*
X151716666Y-111566666D02*
X151650000Y-111533333D01*
X151616666Y-111500000D01*
X151583333Y-111433333D01*
X151583333Y-111400000D01*
X151616666Y-111333333D01*
X151650000Y-111300000D01*
X151716666Y-111266666D01*
X151850000Y-111266666D01*
X151916666Y-111300000D01*
X151950000Y-111333333D01*
X151983333Y-111400000D01*
X151983333Y-111433333D01*
X151950000Y-111500000D01*
X151916666Y-111533333D01*
X151850000Y-111566666D01*
X151716666Y-111566666D01*
X151650000Y-111600000D01*
X151616666Y-111633333D01*
X151583333Y-111700000D01*
X151583333Y-111833333D01*
X151616666Y-111900000D01*
X151650000Y-111933333D01*
X151716666Y-111966666D01*
X151850000Y-111966666D01*
X151916666Y-111933333D01*
X151950000Y-111900000D01*
X151983333Y-111833333D01*
X151983333Y-111700000D01*
X151950000Y-111633333D01*
X151916666Y-111600000D01*
X151850000Y-111566666D01*
%TO.C,R2*%
X136246666Y-97256666D02*
X135913333Y-97490000D01*
X136246666Y-97656666D02*
X135546666Y-97656666D01*
X135546666Y-97390000D01*
X135580000Y-97323333D01*
X135613333Y-97290000D01*
X135680000Y-97256666D01*
X135780000Y-97256666D01*
X135846666Y-97290000D01*
X135880000Y-97323333D01*
X135913333Y-97390000D01*
X135913333Y-97656666D01*
X135613333Y-96990000D02*
X135580000Y-96956666D01*
X135546666Y-96890000D01*
X135546666Y-96723333D01*
X135580000Y-96656666D01*
X135613333Y-96623333D01*
X135680000Y-96590000D01*
X135746666Y-96590000D01*
X135846666Y-96623333D01*
X136246666Y-97023333D01*
X136246666Y-96590000D01*
%TO.C,R28*%
X145720000Y-106866666D02*
X145486666Y-106533333D01*
X145320000Y-106866666D02*
X145320000Y-106166666D01*
X145586666Y-106166666D01*
X145653333Y-106200000D01*
X145686666Y-106233333D01*
X145720000Y-106300000D01*
X145720000Y-106400000D01*
X145686666Y-106466666D01*
X145653333Y-106500000D01*
X145586666Y-106533333D01*
X145320000Y-106533333D01*
X145986666Y-106233333D02*
X146020000Y-106200000D01*
X146086666Y-106166666D01*
X146253333Y-106166666D01*
X146320000Y-106200000D01*
X146353333Y-106233333D01*
X146386666Y-106300000D01*
X146386666Y-106366666D01*
X146353333Y-106466666D01*
X145953333Y-106866666D01*
X146386666Y-106866666D01*
X146786666Y-106466666D02*
X146720000Y-106433333D01*
X146686666Y-106400000D01*
X146653333Y-106333333D01*
X146653333Y-106300000D01*
X146686666Y-106233333D01*
X146720000Y-106200000D01*
X146786666Y-106166666D01*
X146920000Y-106166666D01*
X146986666Y-106200000D01*
X147020000Y-106233333D01*
X147053333Y-106300000D01*
X147053333Y-106333333D01*
X147020000Y-106400000D01*
X146986666Y-106433333D01*
X146920000Y-106466666D01*
X146786666Y-106466666D01*
X146720000Y-106500000D01*
X146686666Y-106533333D01*
X146653333Y-106600000D01*
X146653333Y-106733333D01*
X146686666Y-106800000D01*
X146720000Y-106833333D01*
X146786666Y-106866666D01*
X146920000Y-106866666D01*
X146986666Y-106833333D01*
X147020000Y-106800000D01*
X147053333Y-106733333D01*
X147053333Y-106600000D01*
X147020000Y-106533333D01*
X146986666Y-106500000D01*
X146920000Y-106466666D01*
%TO.C,U4*%
X175019166Y-95506666D02*
X175019166Y-96073333D01*
X175052500Y-96140000D01*
X175085833Y-96173333D01*
X175152500Y-96206666D01*
X175285833Y-96206666D01*
X175352500Y-96173333D01*
X175385833Y-96140000D01*
X175419166Y-96073333D01*
X175419166Y-95506666D01*
X176052500Y-95740000D02*
X176052500Y-96206666D01*
X175885833Y-95473333D02*
X175719166Y-95973333D01*
X176152500Y-95973333D01*
%TO.C,D6*%
X161420833Y-90576666D02*
X161420833Y-89876666D01*
X161587500Y-89876666D01*
X161687500Y-89910000D01*
X161754166Y-89976666D01*
X161787500Y-90043333D01*
X161820833Y-90176666D01*
X161820833Y-90276666D01*
X161787500Y-90410000D01*
X161754166Y-90476666D01*
X161687500Y-90543333D01*
X161587500Y-90576666D01*
X161420833Y-90576666D01*
X162420833Y-89876666D02*
X162287500Y-89876666D01*
X162220833Y-89910000D01*
X162187500Y-89943333D01*
X162120833Y-90043333D01*
X162087500Y-90176666D01*
X162087500Y-90443333D01*
X162120833Y-90510000D01*
X162154166Y-90543333D01*
X162220833Y-90576666D01*
X162354166Y-90576666D01*
X162420833Y-90543333D01*
X162454166Y-90510000D01*
X162487500Y-90443333D01*
X162487500Y-90276666D01*
X162454166Y-90210000D01*
X162420833Y-90176666D01*
X162354166Y-90143333D01*
X162220833Y-90143333D01*
X162154166Y-90176666D01*
X162120833Y-90210000D01*
X162087500Y-90276666D01*
%TO.C,R25*%
X136010000Y-106896666D02*
X135776666Y-106563333D01*
X135610000Y-106896666D02*
X135610000Y-106196666D01*
X135876666Y-106196666D01*
X135943333Y-106230000D01*
X135976666Y-106263333D01*
X136010000Y-106330000D01*
X136010000Y-106430000D01*
X135976666Y-106496666D01*
X135943333Y-106530000D01*
X135876666Y-106563333D01*
X135610000Y-106563333D01*
X136276666Y-106263333D02*
X136310000Y-106230000D01*
X136376666Y-106196666D01*
X136543333Y-106196666D01*
X136610000Y-106230000D01*
X136643333Y-106263333D01*
X136676666Y-106330000D01*
X136676666Y-106396666D01*
X136643333Y-106496666D01*
X136243333Y-106896666D01*
X136676666Y-106896666D01*
X137310000Y-106196666D02*
X136976666Y-106196666D01*
X136943333Y-106530000D01*
X136976666Y-106496666D01*
X137043333Y-106463333D01*
X137210000Y-106463333D01*
X137276666Y-106496666D01*
X137310000Y-106530000D01*
X137343333Y-106596666D01*
X137343333Y-106763333D01*
X137310000Y-106830000D01*
X137276666Y-106863333D01*
X137210000Y-106896666D01*
X137043333Y-106896666D01*
X136976666Y-106863333D01*
X136943333Y-106830000D01*
%TO.C,R21*%
X142780000Y-106896666D02*
X142546666Y-106563333D01*
X142380000Y-106896666D02*
X142380000Y-106196666D01*
X142646666Y-106196666D01*
X142713333Y-106230000D01*
X142746666Y-106263333D01*
X142780000Y-106330000D01*
X142780000Y-106430000D01*
X142746666Y-106496666D01*
X142713333Y-106530000D01*
X142646666Y-106563333D01*
X142380000Y-106563333D01*
X143046666Y-106263333D02*
X143080000Y-106230000D01*
X143146666Y-106196666D01*
X143313333Y-106196666D01*
X143380000Y-106230000D01*
X143413333Y-106263333D01*
X143446666Y-106330000D01*
X143446666Y-106396666D01*
X143413333Y-106496666D01*
X143013333Y-106896666D01*
X143446666Y-106896666D01*
X144113333Y-106896666D02*
X143713333Y-106896666D01*
X143913333Y-106896666D02*
X143913333Y-106196666D01*
X143846666Y-106296666D01*
X143780000Y-106363333D01*
X143713333Y-106396666D01*
%TO.C,R47*%
X161630000Y-106856666D02*
X161396666Y-106523333D01*
X161230000Y-106856666D02*
X161230000Y-106156666D01*
X161496666Y-106156666D01*
X161563333Y-106190000D01*
X161596666Y-106223333D01*
X161630000Y-106290000D01*
X161630000Y-106390000D01*
X161596666Y-106456666D01*
X161563333Y-106490000D01*
X161496666Y-106523333D01*
X161230000Y-106523333D01*
X162230000Y-106390000D02*
X162230000Y-106856666D01*
X162063333Y-106123333D02*
X161896666Y-106623333D01*
X162330000Y-106623333D01*
X162530000Y-106156666D02*
X162996666Y-106156666D01*
X162696666Y-106856666D01*
%TO.C,U9*%
X172126666Y-118916666D02*
X172126666Y-119483333D01*
X172160000Y-119550000D01*
X172193333Y-119583333D01*
X172260000Y-119616666D01*
X172393333Y-119616666D01*
X172460000Y-119583333D01*
X172493333Y-119550000D01*
X172526666Y-119483333D01*
X172526666Y-118916666D01*
X172893333Y-119616666D02*
X173026666Y-119616666D01*
X173093333Y-119583333D01*
X173126666Y-119550000D01*
X173193333Y-119450000D01*
X173226666Y-119316666D01*
X173226666Y-119050000D01*
X173193333Y-118983333D01*
X173160000Y-118950000D01*
X173093333Y-118916666D01*
X172960000Y-118916666D01*
X172893333Y-118950000D01*
X172860000Y-118983333D01*
X172826666Y-119050000D01*
X172826666Y-119216666D01*
X172860000Y-119283333D01*
X172893333Y-119316666D01*
X172960000Y-119350000D01*
X173093333Y-119350000D01*
X173160000Y-119316666D01*
X173193333Y-119283333D01*
X173226666Y-119216666D01*
%TO.C,D3*%
X145253333Y-83496666D02*
X145253333Y-82796666D01*
X145420000Y-82796666D01*
X145520000Y-82830000D01*
X145586666Y-82896666D01*
X145620000Y-82963333D01*
X145653333Y-83096666D01*
X145653333Y-83196666D01*
X145620000Y-83330000D01*
X145586666Y-83396666D01*
X145520000Y-83463333D01*
X145420000Y-83496666D01*
X145253333Y-83496666D01*
X145886666Y-82796666D02*
X146320000Y-82796666D01*
X146086666Y-83063333D01*
X146186666Y-83063333D01*
X146253333Y-83096666D01*
X146286666Y-83130000D01*
X146320000Y-83196666D01*
X146320000Y-83363333D01*
X146286666Y-83430000D01*
X146253333Y-83463333D01*
X146186666Y-83496666D01*
X145986666Y-83496666D01*
X145920000Y-83463333D01*
X145886666Y-83430000D01*
%TO.C,D8*%
X171523333Y-90586666D02*
X171523333Y-89886666D01*
X171690000Y-89886666D01*
X171790000Y-89920000D01*
X171856666Y-89986666D01*
X171890000Y-90053333D01*
X171923333Y-90186666D01*
X171923333Y-90286666D01*
X171890000Y-90420000D01*
X171856666Y-90486666D01*
X171790000Y-90553333D01*
X171690000Y-90586666D01*
X171523333Y-90586666D01*
X172323333Y-90186666D02*
X172256666Y-90153333D01*
X172223333Y-90120000D01*
X172190000Y-90053333D01*
X172190000Y-90020000D01*
X172223333Y-89953333D01*
X172256666Y-89920000D01*
X172323333Y-89886666D01*
X172456666Y-89886666D01*
X172523333Y-89920000D01*
X172556666Y-89953333D01*
X172590000Y-90020000D01*
X172590000Y-90053333D01*
X172556666Y-90120000D01*
X172523333Y-90153333D01*
X172456666Y-90186666D01*
X172323333Y-90186666D01*
X172256666Y-90220000D01*
X172223333Y-90253333D01*
X172190000Y-90320000D01*
X172190000Y-90453333D01*
X172223333Y-90520000D01*
X172256666Y-90553333D01*
X172323333Y-90586666D01*
X172456666Y-90586666D01*
X172523333Y-90553333D01*
X172556666Y-90520000D01*
X172590000Y-90453333D01*
X172590000Y-90320000D01*
X172556666Y-90253333D01*
X172523333Y-90220000D01*
X172456666Y-90186666D01*
%TO.C,C9*%
X174343333Y-114090000D02*
X174310000Y-114123333D01*
X174210000Y-114156666D01*
X174143333Y-114156666D01*
X174043333Y-114123333D01*
X173976666Y-114056666D01*
X173943333Y-113990000D01*
X173910000Y-113856666D01*
X173910000Y-113756666D01*
X173943333Y-113623333D01*
X173976666Y-113556666D01*
X174043333Y-113490000D01*
X174143333Y-113456666D01*
X174210000Y-113456666D01*
X174310000Y-113490000D01*
X174343333Y-113523333D01*
X174676666Y-114156666D02*
X174810000Y-114156666D01*
X174876666Y-114123333D01*
X174910000Y-114090000D01*
X174976666Y-113990000D01*
X175010000Y-113856666D01*
X175010000Y-113590000D01*
X174976666Y-113523333D01*
X174943333Y-113490000D01*
X174876666Y-113456666D01*
X174743333Y-113456666D01*
X174676666Y-113490000D01*
X174643333Y-113523333D01*
X174610000Y-113590000D01*
X174610000Y-113756666D01*
X174643333Y-113823333D01*
X174676666Y-113856666D01*
X174743333Y-113890000D01*
X174876666Y-113890000D01*
X174943333Y-113856666D01*
X174976666Y-113823333D01*
X175010000Y-113756666D01*
%TO.C,R52*%
X168830000Y-106866666D02*
X168596666Y-106533333D01*
X168430000Y-106866666D02*
X168430000Y-106166666D01*
X168696666Y-106166666D01*
X168763333Y-106200000D01*
X168796666Y-106233333D01*
X168830000Y-106300000D01*
X168830000Y-106400000D01*
X168796666Y-106466666D01*
X168763333Y-106500000D01*
X168696666Y-106533333D01*
X168430000Y-106533333D01*
X169463333Y-106166666D02*
X169130000Y-106166666D01*
X169096666Y-106500000D01*
X169130000Y-106466666D01*
X169196666Y-106433333D01*
X169363333Y-106433333D01*
X169430000Y-106466666D01*
X169463333Y-106500000D01*
X169496666Y-106566666D01*
X169496666Y-106733333D01*
X169463333Y-106800000D01*
X169430000Y-106833333D01*
X169363333Y-106866666D01*
X169196666Y-106866666D01*
X169130000Y-106833333D01*
X169096666Y-106800000D01*
X169763333Y-106233333D02*
X169796666Y-106200000D01*
X169863333Y-106166666D01*
X170030000Y-106166666D01*
X170096666Y-106200000D01*
X170130000Y-106233333D01*
X170163333Y-106300000D01*
X170163333Y-106366666D01*
X170130000Y-106466666D01*
X169730000Y-106866666D01*
X170163333Y-106866666D01*
%TO.C,U5*%
X157556666Y-97996666D02*
X157556666Y-98563333D01*
X157590000Y-98630000D01*
X157623333Y-98663333D01*
X157690000Y-98696666D01*
X157823333Y-98696666D01*
X157890000Y-98663333D01*
X157923333Y-98630000D01*
X157956666Y-98563333D01*
X157956666Y-97996666D01*
X158623333Y-97996666D02*
X158290000Y-97996666D01*
X158256666Y-98330000D01*
X158290000Y-98296666D01*
X158356666Y-98263333D01*
X158523333Y-98263333D01*
X158590000Y-98296666D01*
X158623333Y-98330000D01*
X158656666Y-98396666D01*
X158656666Y-98563333D01*
X158623333Y-98630000D01*
X158590000Y-98663333D01*
X158523333Y-98696666D01*
X158356666Y-98696666D01*
X158290000Y-98663333D01*
X158256666Y-98630000D01*
%TO.C,R23*%
X150290000Y-106806666D02*
X150056666Y-106473333D01*
X149890000Y-106806666D02*
X149890000Y-106106666D01*
X150156666Y-106106666D01*
X150223333Y-106140000D01*
X150256666Y-106173333D01*
X150290000Y-106240000D01*
X150290000Y-106340000D01*
X150256666Y-106406666D01*
X150223333Y-106440000D01*
X150156666Y-106473333D01*
X149890000Y-106473333D01*
X150556666Y-106173333D02*
X150590000Y-106140000D01*
X150656666Y-106106666D01*
X150823333Y-106106666D01*
X150890000Y-106140000D01*
X150923333Y-106173333D01*
X150956666Y-106240000D01*
X150956666Y-106306666D01*
X150923333Y-106406666D01*
X150523333Y-106806666D01*
X150956666Y-106806666D01*
X151190000Y-106106666D02*
X151623333Y-106106666D01*
X151390000Y-106373333D01*
X151490000Y-106373333D01*
X151556666Y-106406666D01*
X151590000Y-106440000D01*
X151623333Y-106506666D01*
X151623333Y-106673333D01*
X151590000Y-106740000D01*
X151556666Y-106773333D01*
X151490000Y-106806666D01*
X151290000Y-106806666D01*
X151223333Y-106773333D01*
X151190000Y-106740000D01*
%TO.C,C5*%
X152263333Y-98600000D02*
X152230000Y-98633333D01*
X152130000Y-98666666D01*
X152063333Y-98666666D01*
X151963333Y-98633333D01*
X151896666Y-98566666D01*
X151863333Y-98500000D01*
X151830000Y-98366666D01*
X151830000Y-98266666D01*
X151863333Y-98133333D01*
X151896666Y-98066666D01*
X151963333Y-98000000D01*
X152063333Y-97966666D01*
X152130000Y-97966666D01*
X152230000Y-98000000D01*
X152263333Y-98033333D01*
X152896666Y-97966666D02*
X152563333Y-97966666D01*
X152530000Y-98300000D01*
X152563333Y-98266666D01*
X152630000Y-98233333D01*
X152796666Y-98233333D01*
X152863333Y-98266666D01*
X152896666Y-98300000D01*
X152930000Y-98366666D01*
X152930000Y-98533333D01*
X152896666Y-98600000D01*
X152863333Y-98633333D01*
X152796666Y-98666666D01*
X152630000Y-98666666D01*
X152563333Y-98633333D01*
X152530000Y-98600000D01*
%TO.C,R26*%
X134010000Y-106896666D02*
X133776666Y-106563333D01*
X133610000Y-106896666D02*
X133610000Y-106196666D01*
X133876666Y-106196666D01*
X133943333Y-106230000D01*
X133976666Y-106263333D01*
X134010000Y-106330000D01*
X134010000Y-106430000D01*
X133976666Y-106496666D01*
X133943333Y-106530000D01*
X133876666Y-106563333D01*
X133610000Y-106563333D01*
X134276666Y-106263333D02*
X134310000Y-106230000D01*
X134376666Y-106196666D01*
X134543333Y-106196666D01*
X134610000Y-106230000D01*
X134643333Y-106263333D01*
X134676666Y-106330000D01*
X134676666Y-106396666D01*
X134643333Y-106496666D01*
X134243333Y-106896666D01*
X134676666Y-106896666D01*
X135276666Y-106196666D02*
X135143333Y-106196666D01*
X135076666Y-106230000D01*
X135043333Y-106263333D01*
X134976666Y-106363333D01*
X134943333Y-106496666D01*
X134943333Y-106763333D01*
X134976666Y-106830000D01*
X135010000Y-106863333D01*
X135076666Y-106896666D01*
X135210000Y-106896666D01*
X135276666Y-106863333D01*
X135310000Y-106830000D01*
X135343333Y-106763333D01*
X135343333Y-106596666D01*
X135310000Y-106530000D01*
X135276666Y-106496666D01*
X135210000Y-106463333D01*
X135076666Y-106463333D01*
X135010000Y-106496666D01*
X134976666Y-106530000D01*
X134943333Y-106596666D01*
%TO.C,R15*%
X156606666Y-89510000D02*
X156273333Y-89743333D01*
X156606666Y-89910000D02*
X155906666Y-89910000D01*
X155906666Y-89643333D01*
X155940000Y-89576666D01*
X155973333Y-89543333D01*
X156040000Y-89510000D01*
X156140000Y-89510000D01*
X156206666Y-89543333D01*
X156240000Y-89576666D01*
X156273333Y-89643333D01*
X156273333Y-89910000D01*
X156606666Y-88843333D02*
X156606666Y-89243333D01*
X156606666Y-89043333D02*
X155906666Y-89043333D01*
X156006666Y-89110000D01*
X156073333Y-89176666D01*
X156106666Y-89243333D01*
X155906666Y-88210000D02*
X155906666Y-88543333D01*
X156240000Y-88576666D01*
X156206666Y-88543333D01*
X156173333Y-88476666D01*
X156173333Y-88310000D01*
X156206666Y-88243333D01*
X156240000Y-88210000D01*
X156306666Y-88176666D01*
X156473333Y-88176666D01*
X156540000Y-88210000D01*
X156573333Y-88243333D01*
X156606666Y-88310000D01*
X156606666Y-88476666D01*
X156573333Y-88543333D01*
X156540000Y-88576666D01*
%TO.C,C2*%
X129483333Y-106820000D02*
X129450000Y-106853333D01*
X129350000Y-106886666D01*
X129283333Y-106886666D01*
X129183333Y-106853333D01*
X129116666Y-106786666D01*
X129083333Y-106720000D01*
X129050000Y-106586666D01*
X129050000Y-106486666D01*
X129083333Y-106353333D01*
X129116666Y-106286666D01*
X129183333Y-106220000D01*
X129283333Y-106186666D01*
X129350000Y-106186666D01*
X129450000Y-106220000D01*
X129483333Y-106253333D01*
X129750000Y-106253333D02*
X129783333Y-106220000D01*
X129850000Y-106186666D01*
X130016666Y-106186666D01*
X130083333Y-106220000D01*
X130116666Y-106253333D01*
X130150000Y-106320000D01*
X130150000Y-106386666D01*
X130116666Y-106486666D01*
X129716666Y-106886666D01*
X130150000Y-106886666D01*
%TO.C,R54*%
X176030000Y-101556666D02*
X175796666Y-101223333D01*
X175630000Y-101556666D02*
X175630000Y-100856666D01*
X175896666Y-100856666D01*
X175963333Y-100890000D01*
X175996666Y-100923333D01*
X176030000Y-100990000D01*
X176030000Y-101090000D01*
X175996666Y-101156666D01*
X175963333Y-101190000D01*
X175896666Y-101223333D01*
X175630000Y-101223333D01*
X176663333Y-100856666D02*
X176330000Y-100856666D01*
X176296666Y-101190000D01*
X176330000Y-101156666D01*
X176396666Y-101123333D01*
X176563333Y-101123333D01*
X176630000Y-101156666D01*
X176663333Y-101190000D01*
X176696666Y-101256666D01*
X176696666Y-101423333D01*
X176663333Y-101490000D01*
X176630000Y-101523333D01*
X176563333Y-101556666D01*
X176396666Y-101556666D01*
X176330000Y-101523333D01*
X176296666Y-101490000D01*
X177296666Y-101090000D02*
X177296666Y-101556666D01*
X177130000Y-100823333D02*
X176963333Y-101323333D01*
X177396666Y-101323333D01*
%TO.C,R53*%
X176020000Y-106536666D02*
X175786666Y-106203333D01*
X175620000Y-106536666D02*
X175620000Y-105836666D01*
X175886666Y-105836666D01*
X175953333Y-105870000D01*
X175986666Y-105903333D01*
X176020000Y-105970000D01*
X176020000Y-106070000D01*
X175986666Y-106136666D01*
X175953333Y-106170000D01*
X175886666Y-106203333D01*
X175620000Y-106203333D01*
X176653333Y-105836666D02*
X176320000Y-105836666D01*
X176286666Y-106170000D01*
X176320000Y-106136666D01*
X176386666Y-106103333D01*
X176553333Y-106103333D01*
X176620000Y-106136666D01*
X176653333Y-106170000D01*
X176686666Y-106236666D01*
X176686666Y-106403333D01*
X176653333Y-106470000D01*
X176620000Y-106503333D01*
X176553333Y-106536666D01*
X176386666Y-106536666D01*
X176320000Y-106503333D01*
X176286666Y-106470000D01*
X176920000Y-105836666D02*
X177353333Y-105836666D01*
X177120000Y-106103333D01*
X177220000Y-106103333D01*
X177286666Y-106136666D01*
X177320000Y-106170000D01*
X177353333Y-106236666D01*
X177353333Y-106403333D01*
X177320000Y-106470000D01*
X177286666Y-106503333D01*
X177220000Y-106536666D01*
X177020000Y-106536666D01*
X176953333Y-106503333D01*
X176920000Y-106470000D01*
%TO.C,R22*%
X139162936Y-107025000D02*
X139617064Y-107025000D01*
X139162936Y-108495000D02*
X139617064Y-108495000D01*
%TO.C,R17*%
X131322936Y-109135000D02*
X131777064Y-109135000D01*
X131322936Y-110605000D02*
X131777064Y-110605000D01*
%TO.C,D4*%
X152530000Y-90700000D02*
X151880000Y-90700000D01*
X152530000Y-87580000D02*
X153180000Y-87580000D01*
X152530000Y-90700000D02*
X154205000Y-90700000D01*
X152530000Y-87580000D02*
X151880000Y-87580000D01*
%TO.C,C6*%
X152035000Y-104658752D02*
X152035000Y-104136248D01*
X153505000Y-104658752D02*
X153505000Y-104136248D01*
%TO.C,R1*%
X136442936Y-88455000D02*
X136897064Y-88455000D01*
X136442936Y-89925000D02*
X136897064Y-89925000D01*
%TO.C,R44*%
X166262936Y-108995000D02*
X166717064Y-108995000D01*
X166262936Y-110465000D02*
X166717064Y-110465000D01*
%TO.C,C4*%
X142035000Y-104653752D02*
X142035000Y-104131248D01*
X140565000Y-104653752D02*
X140565000Y-104131248D01*
%TO.C,R6*%
X147352936Y-88385000D02*
X147807064Y-88385000D01*
X147352936Y-89855000D02*
X147807064Y-89855000D01*
%TO.C,D2*%
X141620000Y-87630000D02*
X140970000Y-87630000D01*
X141620000Y-90750000D02*
X143295000Y-90750000D01*
X141620000Y-87630000D02*
X142270000Y-87630000D01*
X141620000Y-90750000D02*
X140970000Y-90750000D01*
%TO.C,R16*%
X139617064Y-110465000D02*
X139162936Y-110465000D01*
X139617064Y-108995000D02*
X139162936Y-108995000D01*
%TO.C,R10*%
X174377064Y-92735000D02*
X173922936Y-92735000D01*
X174377064Y-91265000D02*
X173922936Y-91265000D01*
%TO.C,R5*%
X144507064Y-98275000D02*
X144052936Y-98275000D01*
X144507064Y-96805000D02*
X144052936Y-96805000D01*
%TO.C,R29*%
X161022936Y-96815000D02*
X161477064Y-96815000D01*
X161022936Y-98285000D02*
X161477064Y-98285000D01*
%TO.C,R12*%
X136177064Y-111835000D02*
X135722936Y-111835000D01*
X136177064Y-113305000D02*
X135722936Y-113305000D01*
%TO.C,R49*%
X159015000Y-108502936D02*
X159015000Y-108957064D01*
X160485000Y-108502936D02*
X160485000Y-108957064D01*
%TO.C,J1*%
X169170000Y-93450000D02*
X169170000Y-94780000D01*
X169170000Y-94780000D02*
X167840000Y-94780000D01*
X166570000Y-94780000D02*
X143650000Y-94780000D01*
X143650000Y-92120000D02*
X143650000Y-94780000D01*
X166570000Y-92120000D02*
X166570000Y-94780000D01*
X166570000Y-92120000D02*
X143650000Y-92120000D01*
%TO.C,R19*%
X143002936Y-110475000D02*
X143457064Y-110475000D01*
X143002936Y-109005000D02*
X143457064Y-109005000D01*
%TO.C,C3*%
X142015000Y-100768752D02*
X142015000Y-100246248D01*
X140545000Y-100768752D02*
X140545000Y-100246248D01*
%TO.C,R24*%
X168472936Y-88345000D02*
X168927064Y-88345000D01*
X168472936Y-89815000D02*
X168927064Y-89815000D01*
%TO.C,R46*%
X166717064Y-108485000D02*
X166262936Y-108485000D01*
X166717064Y-107015000D02*
X166262936Y-107015000D01*
%TO.C,R31*%
X155987064Y-98285000D02*
X155532936Y-98285000D01*
X155987064Y-96815000D02*
X155532936Y-96815000D01*
%TO.C,D7*%
X175650000Y-87230000D02*
X175650000Y-82930000D01*
X175650000Y-82930000D02*
X168350000Y-82930000D01*
X175650000Y-87230000D02*
X168350000Y-87230000D01*
%TO.C,C7*%
X164965000Y-100788752D02*
X164965000Y-100266248D01*
X163495000Y-100788752D02*
X163495000Y-100266248D01*
%TO.C,R45*%
X155137064Y-107025000D02*
X154682936Y-107025000D01*
X155137064Y-108495000D02*
X154682936Y-108495000D01*
%TO.C,R50*%
X158515000Y-108502936D02*
X158515000Y-108957064D01*
X157045000Y-108502936D02*
X157045000Y-108957064D01*
%TO.C,J2*%
X169100000Y-120262500D02*
X140900000Y-120262500D01*
X169100000Y-111142500D02*
X169100000Y-120262500D01*
X142200000Y-118952500D02*
X142200000Y-112452500D01*
X157050000Y-118952500D02*
X157050000Y-118952500D01*
X146110000Y-120652500D02*
X145610000Y-121652500D01*
X146610000Y-121652500D02*
X146110000Y-120652500D01*
X142200000Y-112452500D02*
X167800000Y-112452500D01*
X167800000Y-112452500D02*
X167800000Y-118952500D01*
X152950000Y-120262500D02*
X152950000Y-118952500D01*
X152950000Y-118952500D02*
X142200000Y-118952500D01*
X157050000Y-118952500D02*
X157050000Y-120262500D01*
X145610000Y-121652500D02*
X146610000Y-121652500D01*
X167800000Y-118952500D02*
X157050000Y-118952500D01*
X140900000Y-120262500D02*
X140900000Y-111142500D01*
X140900000Y-111142500D02*
X169100000Y-111142500D01*
%TO.C,R42*%
X154672936Y-108995000D02*
X155127064Y-108995000D01*
X154672936Y-110465000D02*
X155127064Y-110465000D01*
%TO.C,R9*%
X136167064Y-113875000D02*
X135712936Y-113875000D01*
X136167064Y-115345000D02*
X135712936Y-115345000D01*
%TO.C,C1*%
X130375000Y-100793752D02*
X130375000Y-100271248D01*
X128905000Y-100793752D02*
X128905000Y-100271248D01*
%TO.C,RV4*%
X142575000Y-96230000D02*
X132805000Y-96230000D01*
X142575000Y-91160000D02*
X132805000Y-91160000D01*
X142575000Y-96230000D02*
X142575000Y-91160000D01*
X132805000Y-96230000D02*
X132805000Y-91160000D01*
%TO.C,R30*%
X172372936Y-96805000D02*
X172827064Y-96805000D01*
X172372936Y-98275000D02*
X172827064Y-98275000D01*
%TO.C,R20*%
X131767064Y-107075000D02*
X131312936Y-107075000D01*
X131767064Y-108545000D02*
X131312936Y-108545000D01*
%TO.C,R43*%
X174012936Y-109125000D02*
X174467064Y-109125000D01*
X174012936Y-110595000D02*
X174467064Y-110595000D01*
%TO.C,U1*%
X131135000Y-102410000D02*
X131135000Y-100460000D01*
X140005000Y-102410000D02*
X140005000Y-98960000D01*
X131135000Y-102410000D02*
X131135000Y-104360000D01*
X140005000Y-102410000D02*
X140005000Y-104360000D01*
%TO.C,J3*%
X143500000Y-60167500D02*
X141500000Y-60167500D01*
X151500000Y-60167500D02*
X151750000Y-61667500D01*
X181110000Y-61667500D02*
X181110000Y-63467500D01*
X181110000Y-63467500D02*
X128890000Y-63467500D01*
X166500000Y-60167500D02*
X166750000Y-61667500D01*
X181110000Y-60167500D02*
X128890000Y-60167500D01*
X177800000Y-73187500D02*
X177200000Y-73187500D01*
X128890000Y-63467500D02*
X128890000Y-61667500D01*
X133250000Y-61667500D02*
X133500000Y-60167500D01*
X158250000Y-61667500D02*
X158500000Y-60167500D01*
X176750000Y-61667500D02*
X178250000Y-61667500D01*
X168500000Y-60167500D02*
X166500000Y-60167500D01*
X181110000Y-72387500D02*
X181110000Y-60167500D01*
X156500000Y-60167500D02*
X156750000Y-61667500D01*
X178500000Y-60167500D02*
X176500000Y-60167500D01*
X141750000Y-61667500D02*
X143250000Y-61667500D01*
X128890000Y-60167500D02*
X128890000Y-72387500D01*
X171500000Y-60167500D02*
X171750000Y-61667500D01*
X148500000Y-60167500D02*
X146500000Y-60167500D01*
X146750000Y-61667500D02*
X148250000Y-61667500D01*
X161500000Y-60167500D02*
X161750000Y-61667500D01*
X146500000Y-60167500D02*
X146750000Y-61667500D01*
X173500000Y-60167500D02*
X171500000Y-60167500D01*
X138500000Y-60167500D02*
X136500000Y-60167500D01*
X133500000Y-60167500D02*
X131500000Y-60167500D01*
X131500000Y-60167500D02*
X131750000Y-61667500D01*
X173250000Y-61667500D02*
X173500000Y-60167500D01*
X158500000Y-60167500D02*
X156500000Y-60167500D01*
X141500000Y-60167500D02*
X141750000Y-61667500D01*
X136500000Y-60167500D02*
X136750000Y-61667500D01*
X153250000Y-61667500D02*
X153500000Y-60167500D01*
X178250000Y-61667500D02*
X178500000Y-60167500D01*
X163500000Y-60167500D02*
X161500000Y-60167500D01*
X161750000Y-61667500D02*
X163250000Y-61667500D01*
X148250000Y-61667500D02*
X148500000Y-60167500D01*
X168250000Y-61667500D02*
X168500000Y-60167500D01*
X171750000Y-61667500D02*
X173250000Y-61667500D01*
X156750000Y-61667500D02*
X158250000Y-61667500D01*
X177200000Y-73187500D02*
X177500000Y-72587500D01*
X163250000Y-61667500D02*
X163500000Y-60167500D01*
X128890000Y-61667500D02*
X181110000Y-61667500D01*
X153500000Y-60167500D02*
X151500000Y-60167500D01*
X151750000Y-61667500D02*
X153250000Y-61667500D01*
X143250000Y-61667500D02*
X143500000Y-60167500D01*
X128890000Y-72387500D02*
X181110000Y-72387500D01*
X166750000Y-61667500D02*
X168250000Y-61667500D01*
X136750000Y-61667500D02*
X138250000Y-61667500D01*
X176500000Y-60167500D02*
X176750000Y-61667500D01*
X138250000Y-61667500D02*
X138500000Y-60167500D01*
X177500000Y-72587500D02*
X177800000Y-73187500D01*
X131750000Y-61667500D02*
X133250000Y-61667500D01*
%TO.C,R14*%
X131777064Y-113285000D02*
X131322936Y-113285000D01*
X131777064Y-111815000D02*
X131322936Y-111815000D01*
%TO.C,D1*%
X143470000Y-82910000D02*
X136170000Y-82910000D01*
X143470000Y-87210000D02*
X143470000Y-82910000D01*
X143470000Y-87210000D02*
X136170000Y-87210000D01*
%TO.C,C8*%
X164985000Y-104653752D02*
X164985000Y-104131248D01*
X163515000Y-104653752D02*
X163515000Y-104131248D01*
%TO.C,U6*%
X165475000Y-102400000D02*
X165475000Y-100450000D01*
X174345000Y-102400000D02*
X174345000Y-104350000D01*
X165475000Y-102400000D02*
X165475000Y-104350000D01*
X174345000Y-102400000D02*
X174345000Y-98950000D01*
%TO.C,R48*%
X174032936Y-108615000D02*
X174487064Y-108615000D01*
X174032936Y-107145000D02*
X174487064Y-107145000D01*
%TO.C,R3*%
X149512936Y-98295000D02*
X149967064Y-98295000D01*
X149512936Y-96825000D02*
X149967064Y-96825000D01*
%TO.C,R32*%
X167397064Y-96815000D02*
X166942936Y-96815000D01*
X167397064Y-98285000D02*
X166942936Y-98285000D01*
%TO.C,D5*%
X165000000Y-87200000D02*
X157700000Y-87200000D01*
X165000000Y-82900000D02*
X157700000Y-82900000D01*
X165000000Y-87200000D02*
X165000000Y-82900000D01*
%TO.C,R51*%
X172105000Y-108532936D02*
X172105000Y-108987064D01*
X170635000Y-108532936D02*
X170635000Y-108987064D01*
%TO.C,U2*%
X142595000Y-102370000D02*
X142595000Y-104320000D01*
X151465000Y-102370000D02*
X151465000Y-98920000D01*
X151465000Y-102370000D02*
X151465000Y-104320000D01*
X142595000Y-102370000D02*
X142595000Y-100420000D01*
%TO.C,R27*%
X147435000Y-108492936D02*
X147435000Y-108947064D01*
X148905000Y-108492936D02*
X148905000Y-108947064D01*
%TO.C,R4*%
X133167064Y-98295000D02*
X132712936Y-98295000D01*
X133167064Y-96825000D02*
X132712936Y-96825000D01*
%TO.C,J4*%
X156540000Y-81377500D02*
X153460000Y-81377500D01*
X136220000Y-81377500D02*
X133140000Y-81377500D01*
X145380000Y-75077500D02*
X144300000Y-75077500D01*
X129400000Y-80377500D02*
X129400000Y-75077500D01*
X168700000Y-80377500D02*
X168700000Y-82187500D01*
X148380000Y-82187500D02*
X146380000Y-82187500D01*
X160620000Y-75077500D02*
X159540000Y-75077500D01*
X153460000Y-80377500D02*
X153460000Y-82187500D01*
X180600000Y-80377500D02*
X129400000Y-80377500D01*
X141300000Y-80377500D02*
X143300000Y-80377500D01*
X150460000Y-75077500D02*
X149380000Y-75077500D01*
X153460000Y-82187500D02*
X151460000Y-82187500D01*
X151460000Y-81377500D02*
X148380000Y-81377500D01*
X179860000Y-75077500D02*
X180600000Y-75077500D01*
X128490000Y-81377500D02*
X131030000Y-81377500D01*
X178860000Y-82187500D02*
X176860000Y-82187500D01*
X136220000Y-80377500D02*
X138220000Y-80377500D01*
X131140000Y-80377500D02*
X133140000Y-80377500D01*
X131140000Y-82187500D02*
X131140000Y-80377500D01*
X158540000Y-80377500D02*
X158540000Y-82187500D01*
X148380000Y-80377500D02*
X148380000Y-82187500D01*
X138220000Y-82187500D02*
X136220000Y-82187500D01*
X133140000Y-82187500D02*
X131140000Y-82187500D01*
X146380000Y-81377500D02*
X143300000Y-81377500D01*
X133140000Y-80377500D02*
X133140000Y-82187500D01*
X151460000Y-82187500D02*
X151460000Y-80377500D01*
X158540000Y-82187500D02*
X156540000Y-82187500D01*
X163620000Y-82187500D02*
X161620000Y-82187500D01*
X175860000Y-75077500D02*
X174780000Y-75077500D01*
X165700000Y-75077500D02*
X164620000Y-75077500D01*
X128490000Y-73367500D02*
X128490000Y-82187500D01*
X151460000Y-80377500D02*
X153460000Y-80377500D01*
X181510000Y-73367500D02*
X128490000Y-73367500D01*
X135220000Y-75077500D02*
X134140000Y-75077500D01*
X166700000Y-81377500D02*
X163620000Y-81377500D01*
X143300000Y-80377500D02*
X143300000Y-82187500D01*
X128490000Y-82187500D02*
X181510000Y-82187500D01*
X141300000Y-81377500D02*
X138220000Y-81377500D01*
X166700000Y-82187500D02*
X166700000Y-80377500D01*
X163620000Y-80377500D02*
X163620000Y-82187500D01*
X161620000Y-81377500D02*
X158540000Y-81377500D01*
X161620000Y-80377500D02*
X163620000Y-80377500D01*
X171780000Y-80377500D02*
X173780000Y-80377500D01*
X161620000Y-82187500D02*
X161620000Y-80377500D01*
X176860000Y-81377500D02*
X173780000Y-81377500D01*
X177860000Y-82387500D02*
X178160000Y-82987500D01*
X178860000Y-80377500D02*
X178860000Y-82187500D01*
X168700000Y-82187500D02*
X166700000Y-82187500D01*
X171780000Y-82187500D02*
X171780000Y-80377500D01*
X136220000Y-82187500D02*
X136220000Y-80377500D01*
X156540000Y-80377500D02*
X158540000Y-80377500D01*
X138220000Y-80377500D02*
X138220000Y-82187500D01*
X181510000Y-81377500D02*
X178970000Y-81377500D01*
X143300000Y-82187500D02*
X141300000Y-82187500D01*
X173780000Y-82187500D02*
X171780000Y-82187500D01*
X177560000Y-82987500D02*
X177860000Y-82387500D01*
X180600000Y-75077500D02*
X180600000Y-80377500D01*
X176860000Y-80377500D02*
X178860000Y-80377500D01*
X178160000Y-82987500D02*
X177560000Y-82987500D01*
X141300000Y-82187500D02*
X141300000Y-80377500D01*
X173780000Y-80377500D02*
X173780000Y-82187500D01*
X170780000Y-75077500D02*
X169700000Y-75077500D01*
X176860000Y-82187500D02*
X176860000Y-80377500D01*
X156540000Y-82187500D02*
X156540000Y-80377500D01*
X146380000Y-82187500D02*
X146380000Y-80377500D01*
X146380000Y-80377500D02*
X148380000Y-80377500D01*
X129400000Y-75077500D02*
X130140000Y-75077500D01*
X140300000Y-75077500D02*
X139220000Y-75077500D01*
X155540000Y-75077500D02*
X154460000Y-75077500D01*
X171780000Y-81377500D02*
X168700000Y-81377500D01*
X181510000Y-82187500D02*
X181510000Y-73367500D01*
X166700000Y-80377500D02*
X168700000Y-80377500D01*
X169700000Y-75077500D02*
G75*
G03*
X165713158Y-75061679I-2000000J-1650000D01*
G01*
X159540000Y-75077500D02*
G75*
G03*
X155553158Y-75061679I-2000000J-1650000D01*
G01*
X134140000Y-75077500D02*
G75*
G03*
X130153158Y-75061679I-2000000J-1650000D01*
G01*
X149380000Y-75077500D02*
G75*
G03*
X145393158Y-75061679I-2000000J-1650000D01*
G01*
X144300000Y-75077500D02*
G75*
G03*
X140313158Y-75061679I-2000000J-1650000D01*
G01*
X164620000Y-75077500D02*
G75*
G03*
X160633158Y-75061679I-2000000J-1650000D01*
G01*
X139220000Y-75077500D02*
G75*
G03*
X135233158Y-75061679I-2000000J-1650000D01*
G01*
X174780000Y-75077500D02*
G75*
G03*
X170793158Y-75061679I-2000000J-1650000D01*
G01*
X154460000Y-75077500D02*
G75*
G03*
X150473158Y-75061679I-2000000J-1650000D01*
G01*
X179860000Y-75077500D02*
G75*
G03*
X175873158Y-75061679I-2000000J-1650000D01*
G01*
%TO.C,R41*%
X162847064Y-110465000D02*
X162392936Y-110465000D01*
X162847064Y-108995000D02*
X162392936Y-108995000D01*
%TO.C,R18*%
X151287064Y-110465000D02*
X150832936Y-110465000D01*
X151287064Y-108995000D02*
X150832936Y-108995000D01*
%TO.C,R2*%
X138012936Y-96845000D02*
X138467064Y-96845000D01*
X138012936Y-98315000D02*
X138467064Y-98315000D01*
%TO.C,R28*%
X146915000Y-108492936D02*
X146915000Y-108947064D01*
X145445000Y-108492936D02*
X145445000Y-108947064D01*
%TO.C,U4*%
X174162500Y-96360000D02*
X174812500Y-96360000D01*
X174162500Y-96360000D02*
X173512500Y-96360000D01*
X174162500Y-93240000D02*
X172487500Y-93240000D01*
X174162500Y-93240000D02*
X174812500Y-93240000D01*
%TO.C,D6*%
X163317500Y-87620000D02*
X162667500Y-87620000D01*
X163317500Y-90740000D02*
X162667500Y-90740000D01*
X163317500Y-90740000D02*
X164992500Y-90740000D01*
X163317500Y-87620000D02*
X163967500Y-87620000D01*
%TO.C,R25*%
X135735000Y-108492936D02*
X135735000Y-108947064D01*
X137205000Y-108492936D02*
X137205000Y-108947064D01*
%TO.C,R21*%
X143457064Y-108505000D02*
X143002936Y-108505000D01*
X143457064Y-107035000D02*
X143002936Y-107035000D01*
%TO.C,R47*%
X162402936Y-108485000D02*
X162857064Y-108485000D01*
X162402936Y-107015000D02*
X162857064Y-107015000D01*
D11*
%TO.C,U9*%
X174225000Y-115365000D02*
X174225000Y-115640000D01*
X174225000Y-118615000D02*
X174225000Y-118340000D01*
X170975000Y-115365000D02*
X170975000Y-115540000D01*
X170975000Y-115365000D02*
X174225000Y-115365000D01*
X170975000Y-115540000D02*
X169900000Y-115540000D01*
X170975000Y-118615000D02*
X174225000Y-118615000D01*
X170975000Y-118615000D02*
X170975000Y-118340000D01*
D10*
%TO.C,D3*%
X154300000Y-87200000D02*
X154300000Y-82900000D01*
X154300000Y-82900000D02*
X147000000Y-82900000D01*
X154300000Y-87200000D02*
X147000000Y-87200000D01*
%TO.C,D8*%
X173400000Y-87640000D02*
X172750000Y-87640000D01*
X173400000Y-90760000D02*
X172750000Y-90760000D01*
X173400000Y-90760000D02*
X175075000Y-90760000D01*
X173400000Y-87640000D02*
X174050000Y-87640000D01*
%TO.C,C9*%
X171831248Y-113015000D02*
X172353752Y-113015000D01*
X171831248Y-114485000D02*
X172353752Y-114485000D01*
%TO.C,R52*%
X170105000Y-108522936D02*
X170105000Y-108977064D01*
X168635000Y-108522936D02*
X168635000Y-108977064D01*
%TO.C,U5*%
X154085000Y-102450000D02*
X154085000Y-104400000D01*
X154085000Y-102450000D02*
X154085000Y-100500000D01*
X162955000Y-102450000D02*
X162955000Y-104400000D01*
X162955000Y-102450000D02*
X162955000Y-99000000D01*
%TO.C,R23*%
X150822936Y-107025000D02*
X151277064Y-107025000D01*
X150822936Y-108495000D02*
X151277064Y-108495000D01*
%TO.C,C5*%
X152045000Y-100773752D02*
X152045000Y-100251248D01*
X153515000Y-100773752D02*
X153515000Y-100251248D01*
%TO.C,R26*%
X135195000Y-108492936D02*
X135195000Y-108947064D01*
X133725000Y-108492936D02*
X133725000Y-108947064D01*
%TO.C,R15*%
X158212936Y-88465000D02*
X158667064Y-88465000D01*
X158212936Y-89935000D02*
X158667064Y-89935000D01*
%TO.C,C2*%
X128895000Y-104618752D02*
X128895000Y-104096248D01*
X130365000Y-104618752D02*
X130365000Y-104096248D01*
%TO.C,R54*%
X176637064Y-101735000D02*
X176182936Y-101735000D01*
X176637064Y-103205000D02*
X176182936Y-103205000D01*
%TO.C,R53*%
X176637064Y-104225000D02*
X176182936Y-104225000D01*
X176637064Y-105695000D02*
X176182936Y-105695000D01*
%TD*%
M02*
